<svg width="379" height="108" viewBox="0 0 379 108" fill="none" xmlns="http://www.w3.org/2000/svg">
<path d="M373.043 5.63219C365.011 5.97975 356.847 6.33298 348.974 8.44816L348.004 8.96704C343.746 11.2688 336.528 13.3941 331.532 13.7562C327.754 14.0296 324.772 14.64 322.121 15.8691C319.465 17.101 317.21 18.9217 314.837 21.5109C310.925 25.7784 305.349 28.6815 298.182 30.0829C293.586 30.9804 290.571 31.8083 288.631 33.2027C286.569 34.6856 285.831 36.7122 285.437 39.5124C285.213 41.108 284.265 43.5942 282.847 46.3496C281.441 49.0783 279.626 51.9717 277.747 54.3636C276.005 56.5834 274.73 58.1956 273.576 59.3858C272.438 60.5593 271.465 61.2709 270.352 61.7154C269.226 62.1651 267.877 62.3738 265.934 62.4125C263.984 62.4514 261.52 62.3193 258.179 62.1327C250.823 61.7216 239.487 58.0485 232.432 53.7667C226.847 50.3775 223.16 48.4521 219.631 47.8819C216.049 47.3032 212.75 48.1358 208.007 49.8757C204.632 51.1138 199.733 51.8938 193.45 52.1661C187.182 52.4378 179.599 52.2022 170.891 51.4451C157.981 50.3242 151.045 49.788 145.778 50.5483C140.421 51.3216 136.805 53.4321 130.539 57.3292C126.949 59.5613 123.619 61.8792 121.142 63.8211C119.906 64.7904 118.866 65.6787 118.109 66.4248C117.731 66.7968 117.407 67.1494 117.161 67.4714C116.938 67.7635 116.692 68.1397 116.609 68.5459C116.516 68.9989 116.645 69.4972 116.765 69.8656C116.903 70.2903 117.115 70.7895 117.382 71.3407C117.916 72.4471 118.712 73.8534 119.7 75.4558C121.678 78.6655 124.468 82.7299 127.595 86.881C130.701 91.0039 133.469 94.8577 135.426 97.7428C136.407 99.1876 137.175 100.377 137.679 101.232C137.708 101.28 137.735 101.327 137.762 101.372C137.168 101.306 136.399 101.186 135.483 101.015C133.193 100.588 130.078 99.8609 126.697 98.9365C121.474 97.5084 118.018 96.8016 115.32 97.0997C112.521 97.4092 110.641 98.7811 108.531 101.061L102.118 105.924C99.672 105.201 96.572 104.571 93.308 104.177C85.764 103.266 80.363 101.443 77.021 98.8634C73.7525 96.3406 72.4067 93.0655 72.9854 88.9502C73.4135 85.9062 75.7918 82.4333 78.865 79.8299C80.384 78.5425 82.026 77.5098 83.6 76.8705C85.185 76.2264 86.622 76.0126 87.777 76.2488C89.781 76.6596 91.459 76.5963 92.677 75.996C93.987 75.35 94.62 74.1524 94.566 72.7598C94.515 71.447 93.867 70.0073 92.804 68.6014C91.728 67.1784 90.168 65.7105 88.151 64.3295C81.787 59.9712 75.3717 57.8794 69.1162 58.1508C62.8552 58.4226 56.8653 61.0571 51.3511 65.9511C49.1733 67.8841 47.5731 69.2886 46.2028 70.2647C44.8462 71.2309 43.7908 71.7202 42.7207 71.8855C41.6455 72.0517 40.4442 71.9082 38.7639 71.4048C37.0728 70.8983 34.9919 70.0584 32.1632 68.9005C25.8482 66.3157 17.1334 63.3708 12.763 62.3543C7.30161 61.0848 3.45101 56.0302 2.32801 51.2405C1.76821 48.8531 1.92601 46.6902 2.74711 45.185C3.52731 43.7549 4.98831 42.763 7.47451 42.7999C9.49241 42.8302 11.1226 42.1919 12.1854 40.5995C13.1794 39.1103 13.5677 36.9338 13.6005 34.1542C13.6228 32.2247 14.3466 29.6067 15.5612 26.9288C16.769 24.2657 18.4157 21.6456 20.1901 19.7097C23.0477 16.5927 25.1572 14.8047 28.0567 13.5739C31.0033 12.3231 34.832 11.6181 41.2056 10.8441C49.3561 9.85418 59.663 9.4875 64.0772 10.0025C67.1922 10.3669 69.9568 10.2016 72.7422 9.36174C75.516 8.52537 78.257 7.03614 81.346 4.8268C87.314 0.556808 92.55 -0.989185 101.787 -1.10352C107.46 -1.17381 110.982 -1.38998 113.845 -2.49506C116.752 -3.61678 118.887 -5.61476 121.91 -8.91252L368.122 -10.0277C373.283 -6.62053 376.19 -3.43288 377.345 0.195854C377.851 1.78565 378.033 3.49962 377.892 5.40784C376.283 5.49203 374.667 5.56198 373.044 5.63216L373.043 5.63219Z" fill="#C6B889"/>
<path d="M277.747 54.3636C279.626 51.9717 281.441 49.0783 282.847 46.3496C284.265 43.5942 285.213 41.108 285.437 39.5124C285.831 36.7122 286.569 34.6856 288.631 33.2027C290.571 31.8083 293.586 30.9804 298.182 30.0829C305.349 28.6815 310.925 25.7784 314.837 21.5109C317.21 18.9217 319.465 17.101 322.121 15.8691C324.772 14.64 327.754 14.0296 331.532 13.7562C336.528 13.3941 343.746 11.2688 348.004 8.96704L348.974 8.44816C356.847 6.33293 365.011 5.97973 373.044 5.63216C374.667 5.56198 376.283 5.49203 377.892 5.40784C378.033 3.49962 377.851 1.78565 377.345 0.195854C376.19 -3.43288 373.283 -6.62053 368.122 -10.0277L121.91 -8.91252C118.887 -5.61476 116.752 -3.61678 113.845 -2.49506C110.982 -1.38998 107.46 -1.17381 101.787 -1.10352C92.55 -0.989185 87.314 0.556808 81.346 4.8268C78.257 7.03614 75.516 8.52537 72.7422 9.36174C69.9568 10.2016 67.1922 10.3669 64.0772 10.0025C59.663 9.4875 49.3561 9.85418 41.2056 10.8441C34.832 11.6181 31.0033 12.3231 28.0567 13.5739C25.1572 14.8047 23.0477 16.5927 20.1901 19.7097C18.4157 21.6456 16.769 24.2657 15.5612 26.9288C14.3466 29.6067 13.6228 32.2247 13.6005 34.1542C13.5677 36.9338 13.1794 39.1103 12.1854 40.5995C11.1226 42.1919 9.49241 42.8302 7.47451 42.7999C4.98831 42.763 3.52731 43.7549 2.74711 45.185C1.92601 46.6902 1.76821 48.8531 2.32801 51.2405C3.45101 56.0302 7.30161 61.0848 12.763 62.3543C17.1334 63.3708 25.8482 66.3157 32.1632 68.9005M277.747 54.3636L278.534 54.9812M277.747 54.3636C276.005 56.5834 274.73 58.1956 273.576 59.3858C272.438 60.5593 271.465 61.2709 270.352 61.7154C269.226 62.1651 267.877 62.3738 265.934 62.4125C263.984 62.4514 261.52 62.3193 258.179 62.1327C250.823 61.7216 239.487 58.0485 232.432 53.7667C226.847 50.3775 223.16 48.4521 219.631 47.8819C216.049 47.3032 212.75 48.1358 208.007 49.8757C204.632 51.1138 199.733 51.8938 193.45 52.1661C187.182 52.4378 179.599 52.2022 170.891 51.4451C157.981 50.3242 151.045 49.788 145.778 50.5483C140.421 51.3216 136.805 53.4321 130.539 57.3292C126.949 59.5613 123.619 61.8792 121.142 63.8211C119.906 64.7904 118.866 65.6787 118.109 66.4248C117.731 66.7968 117.407 67.1494 117.161 67.4714C116.938 67.7635 116.692 68.1397 116.609 68.5459C116.516 68.9989 116.645 69.4972 116.765 69.8656C116.903 70.2903 117.115 70.7895 117.382 71.3407C117.916 72.4471 118.712 73.8534 119.7 75.4558C121.678 78.6655 124.468 82.7299 127.595 86.881C130.701 91.0039 133.469 94.8577 135.426 97.7428C136.407 99.1876 137.175 100.377 137.679 101.232C137.708 101.28 137.735 101.327 137.762 101.372C137.168 101.306 136.399 101.186 135.483 101.015C133.193 100.588 130.078 99.8609 126.697 98.9365C121.474 97.5084 118.018 96.8016 115.32 97.0997C112.521 97.4092 110.641 98.7811 108.531 101.061L102.118 105.924C99.672 105.201 96.572 104.571 93.308 104.177C85.764 103.266 80.363 101.443 77.021 98.8634C73.7525 96.3406 72.4067 93.0655 72.9854 88.9502C73.4135 85.9062 75.7918 82.4333 78.865 79.8299C80.384 78.5425 82.026 77.5098 83.6 76.8705C85.185 76.2264 86.622 76.0126 87.777 76.2488C89.781 76.6596 91.459 76.5963 92.677 75.996C93.987 75.35 94.62 74.1524 94.566 72.7598C94.515 71.447 93.867 70.0073 92.804 68.6014C91.728 67.1784 90.168 65.7105 88.151 64.3295C81.787 59.9712 75.3717 57.8794 69.1162 58.1508C62.8552 58.4226 56.8653 61.0571 51.3511 65.9511C49.1733 67.8841 47.5731 69.2886 46.2028 70.2647C44.8462 71.2309 43.7908 71.7202 42.7207 71.8855C41.6455 72.0517 40.4442 71.9082 38.7639 71.4048C37.0728 70.8983 34.9919 70.0584 32.1632 68.9005M32.1632 68.9005L31.7844 69.826" stroke="#988A5B" stroke-width="2"/>
</svg>
