<svg width="59" height="48" viewBox="0 0 59 48" fill="none" xmlns="http://www.w3.org/2000/svg">
<path d="M8.31533 0.948851C8.57525 0.516253 8.94827 0.0523344 9.49986 0.0112279C10.0852 -0.0729427 10.6288 0.328338 10.9106 0.805957C11.2439 2.91022 11.0931 5.05559 11.2836 7.17356C11.3471 8.2482 11.3649 9.32676 11.4225 10.4034C13.0336 9.44812 14.4999 8.26974 16.0614 7.23816C16.609 6.87407 17.4145 7.02675 17.8153 7.53569C18.2657 8.02114 18.107 8.72778 18.1328 9.32285C18.1407 12.0868 17.9562 14.8801 17.1626 17.5422C16.605 19.4096 15.605 21.2203 14.0038 22.4084C13.2558 22.9839 12.3411 23.2678 11.4641 23.5868C12.2181 24.7241 13.48 25.4953 14.7935 25.8457C15.4899 25.3348 16.0217 24.6439 16.7022 24.1153C18.3213 22.7412 20.2737 21.8623 22.2419 21.1028C21.4423 20.2317 21.1685 18.9966 21.5118 17.873C21.8233 17.0861 22.484 16.4343 23.2816 16.127C24.363 15.8373 25.6606 15.9665 26.4463 16.8356C27.4562 17.781 27.4641 19.3333 26.8967 20.5117C28.6963 20.5273 30.4959 20.5254 32.2955 20.5117C31.7757 19.4135 31.7141 18.0002 32.5574 17.0391C33.611 15.6728 35.9483 15.6141 37.0713 16.9217C38.1903 18.059 38.0098 20.0262 36.9066 21.1165C38.6348 21.7488 40.3451 22.4789 41.8134 23.5966C42.7161 24.1995 43.4225 25.0256 44.2399 25.7244C45.5435 25.4914 46.6903 24.6223 47.4761 23.5868C46.4046 23.1836 45.2836 22.7941 44.4582 21.97C42.2935 20.0047 41.5316 17.0372 41.1447 14.2635C40.855 12.306 40.859 10.3231 40.8649 8.34999C40.8372 7.52199 41.732 6.8545 42.5376 7.06003C43.1745 7.26556 43.6606 7.75688 44.2161 8.11118C45.3392 8.85501 46.3788 9.72608 47.5693 10.3681C47.6526 8.98029 47.6209 7.58463 47.7578 6.20071C47.8848 4.41355 47.7796 2.60486 48.0792 0.833362C48.4423 -0.123834 49.9086 -0.317622 50.4483 0.58868C52.0316 3.08639 53.5177 5.64675 55.0634 8.16795C55.7181 9.24259 56.3967 10.3192 56.8154 11.5113C58.0753 14.8742 57.2876 18.932 54.7618 21.5256C53.6288 22.7334 52.0534 23.4557 50.4165 23.6925C49.7479 25.5971 48.1626 27.0202 46.3649 27.8932C46.605 28.2103 46.8312 28.5588 47.1685 28.7897C48.5396 28.3689 49.855 27.672 51.3173 27.6074C52.9146 27.4822 54.5356 27.8815 55.9106 28.6821C57.0138 29.3085 57.9066 30.2246 58.7479 31.1504C59.4027 31.9295 58.6904 33.2899 57.6626 33.1803C56.8868 33.3232 56.4542 32.5911 55.9661 32.1448C54.9364 31.0349 53.4661 30.2637 51.9165 30.3048C50.6983 30.2618 49.5653 30.7668 48.4721 31.2307C48.6467 31.8571 48.7023 32.505 48.7836 33.147C51.3054 32.9611 53.8967 33.9809 55.5376 35.8934C55.9622 36.4082 56.5495 36.9563 56.4344 37.6903C56.359 38.5712 55.2658 39.1369 54.48 38.7023C53.9999 38.3969 53.7142 37.886 53.3173 37.4926C52.0971 36.1537 50.1388 35.5939 48.365 35.9462C47.9642 37.0894 47.4741 38.1973 47.0058 39.315C48.113 39.6164 49.2459 39.9316 50.2003 40.5854C51.5634 41.4564 52.6249 42.7523 53.2836 44.2106C53.7161 45.0719 52.8769 46.1504 51.9324 46.0428C51.1011 46.0017 50.7519 45.1267 50.3689 44.5316C49.5634 43.0968 47.9919 42.1983 46.3729 41.981C46.0892 41.9713 45.6844 41.8597 45.5316 42.1827C44.4602 43.9248 43.24 45.6415 41.5336 46.8336C40.5118 47.5304 39.3015 48.0335 38.0396 47.9983C32.4106 47.9983 26.7796 48.0002 21.1507 47.9983C19.3094 48.0315 17.6288 47.0117 16.3768 45.755C15.2816 44.7156 14.4562 43.4472 13.6626 42.1768C13.5118 41.8577 13.113 41.981 12.8372 41.9791C11.234 42.1181 9.64668 42.9187 8.77763 44.285C8.35502 44.882 8.10105 45.6963 7.36692 45.9997C6.41057 46.3109 5.33716 45.3459 5.64469 44.3789C6.70422 41.6972 9.27764 39.7554 12.1447 39.3072C11.734 38.1836 11.238 37.0933 10.8153 35.9736C8.93637 35.5488 6.83914 36.1322 5.57922 37.5944C5.09311 38.0759 4.72406 38.902 3.91652 38.8413C2.98993 38.8843 2.25184 37.8665 2.63279 37.0169C4.17644 34.3842 7.34906 32.8691 10.4026 33.1529C10.5098 32.5226 10.5733 31.8884 10.7042 31.262C9.58319 30.8783 8.49192 30.2989 7.27763 30.295C5.9066 30.2246 4.5197 30.7296 3.51573 31.6535C3.02962 32.0802 2.62089 32.5911 2.11493 32.9983C1.2816 33.5679 -0.0814962 32.8828 0.00382129 31.8512C-0.00808348 31.1387 0.668503 30.7198 1.09906 30.2441C2.66652 28.5686 4.94827 27.488 7.2816 27.5781C8.95422 27.5605 10.486 28.3063 12.0157 28.8759C12.2895 28.5901 12.5356 28.2769 12.7479 27.9461C11.4602 27.3765 10.238 26.568 9.41454 25.419C9.02962 24.912 8.82128 24.3072 8.51573 23.7571C8.30541 23.5575 7.98002 23.5927 7.71811 23.5085C5.42843 23.025 3.56731 21.2927 2.60898 19.2276C1.45422 16.8943 1.24192 14.1088 2.12485 11.6561C2.47208 10.6402 3.00779 9.70259 3.56136 8.7865C5.14668 6.17526 6.73597 3.56597 8.31533 0.948851Z" fill="#D7C99C"/>
<path d="M33.6739 33.7569C33.2391 33.3466 32.5342 33.3466 32.0994 33.7569L26.3261 39.2061C25.8913 39.6165 25.8913 40.2818 26.3261 40.6922C26.7609 41.1026 27.4658 41.1026 27.9006 40.6922L33.6739 35.2431C34.1087 34.8327 34.1087 34.1673 33.6739 33.7569Z" fill="black"/>
<path d="M33.6739 35.2431C34.1087 34.8327 34.1087 34.1673 33.6739 33.7569L27.9006 28.3078C27.4658 27.8974 26.7609 27.8974 26.3261 28.3078C25.8913 28.7182 25.8913 29.3835 26.3261 29.7939L32.0994 35.2431C32.5342 35.6534 33.2391 35.6534 33.6739 35.2431Z" fill="black"/>
</svg>
