<svg width="681" height="720" viewBox="0 0 681 720" fill="none" xmlns="http://www.w3.org/2000/svg">
<g clip-path="url(#clip0)">
<g filter="url(#filter0_f)">
<path d="M102.369 497.879C92.6976 518.044 109.184 501.428 93.8994 529.007L90.1036 538.789C81.9134 564.394 109.942 572.082 128.177 569.54C160.505 565.027 181.041 524.285 211.297 499.996C234.95 481.015 263.414 485.425 261.823 470.28C257.745 431.53 254.879 444.17 271.836 405.853C282.163 382.512 246.164 320.546 214.394 361.862C182.747 403.016 180.907 375.115 138.961 390.783C98.0882 406.043 110.545 418.808 114.557 443.615C115.548 449.751 104.918 492.562 102.369 497.879Z" fill="#9B8E62"/>
<path d="M173.26 442.058C195.625 445.154 172.324 460.723 179.156 476.505C183.002 482.27 188.029 483.994 194.639 485.569C204.543 487.933 223.564 487.605 219.823 501.51C213.963 520.925 202.701 518.808 186.304 524.238L184.167 525.006C172.021 529.377 162.958 539.648 149.485 538.319C135.587 536.947 137.567 530.026 138.377 520.021C140.818 489.996 104.405 498.554 112.301 477.033C121.1 453.05 148.541 439.179 173.26 442.058Z" fill="#9B8E62"/>
<path d="M170.324 361.044C179.913 325.012 195.335 313.728 233.875 311.04C268.967 308.59 155.373 420.52 170.324 361.044Z" fill="#9B8E62"/>
<path d="M101.178 609.058C116.881 639.821 164.722 557.062 120.229 579.079C110.513 583.885 97.8685 597.338 101.178 609.058Z" fill="#9B8E62"/>
</g>
<g filter="url(#filter1_f)">
<path d="M195.968 481.039C185.887 486.572 152.642 453.537 144.777 446.525L140.776 443.248C121.208 427.232 130.276 430.076 123.765 416.441C122.728 414.265 99.4875 401.323 124.238 398.588C148.756 395.88 154.539 395.577 179.228 397.757C187.673 398.504 253.853 396.342 240.729 415.741C219.873 446.58 246.5 458.025 216.206 469.599C201.882 475.07 205.261 475.935 195.968 481.039Z" fill="#9B8E62"/>
<path d="M68.9988 304.798C51.1384 306.19 50.2618 309.65 41.0904 297.461C32.2761 286.408 33.1902 277.709 41.9021 266.296C57.4015 245.991 56.3402 268.014 82.7104 241.397C112.831 210.996 97.6119 197.535 138.479 199.466C184.472 201.639 193.206 189.683 177.093 234.809C176.207 237.289 175.395 239.589 174.63 241.735C192.773 248.278 204.089 273.762 230.244 272.209C248.971 271.097 258.745 286.535 248.193 302.031C235.77 320.273 253.793 321.608 224.799 324.645C202.248 327.008 191.752 352.655 187.874 351.286C175.25 346.83 185.531 330.989 140.948 330.61C118.221 330.417 83.5261 332.411 70.2862 309.876C69.4482 308.45 69.0343 306.705 68.9988 304.798Z" fill="#9B8E62"/>
<path d="M192.476 174.959C190.142 170.89 195.159 167.922 196.776 164.675L196.777 164.666C200.582 164.162 203.632 161.641 206.917 159.894C211.23 157.465 216.448 160.555 220.739 157.549C225.247 153.729 229.694 158.803 231.886 162.592C237.407 168.368 242.436 175.077 244.179 183.029C245.925 186.768 243.082 191.814 246.55 194.738C249.384 198.602 253.686 201.626 254.936 206.472C254.673 211.563 256.742 216.58 255.999 221.688C253.35 225.679 248.228 226.365 244.5 228.93C241.04 232.348 235.825 232.744 231.253 232.035C225.626 230.785 219.735 230.356 214.076 231.659C208.51 232.331 207.528 226.149 206.561 222.183C204.856 218.498 203.592 214.075 200.049 211.72C196.187 210.259 194.513 205.443 197.103 202.082C200.984 197.423 194.989 195.059 191.14 194.366C187.497 192.388 189.01 187.519 190.364 184.528C191.416 181.575 194.149 177.997 192.476 174.959Z" fill="#9B8E62"/>
<path d="M226.237 116.594C226.94 121.419 228.534 125.997 223.233 126.882L223.174 126.874C221.269 126.631 219.387 126.391 217.61 125.535C214.893 124.228 215.32 118.568 215.69 117.791C216.754 115.556 225.947 114.607 226.237 116.594Z" fill="#9B8E62"/>
<path d="M210.331 95.3926C207.497 98.5022 205.913 104.229 203.406 106.708C199.977 107.996 198.609 107.992 195.056 107.254C181.951 104.538 185.797 111.7 179.902 95.3077C175.696 83.6188 174.931 83.5295 168.108 73.6728C166.743 71.6955 164.07 66.1562 165.679 63.8047C172.482 55.1075 169.04 56.5515 180.553 54.6165C182.114 54.6509 189.75 56.9245 191.921 57.4588C195.077 58.2361 192.768 57.0709 194.878 58.5602C198.857 61.3602 200.106 57.97 200.797 60.4795C201.472 62.9376 198.983 61.9663 199.865 66.6401C200.422 69.5927 207.013 79.5206 208.993 82.6383C209.827 83.949 209.881 83.3637 209.654 84.5243C209.164 86.9905 209.003 90.1077 209.886 92.4743C210.961 95.3533 211.866 93.955 210.331 95.3926Z" fill="#9B8E62"/>
<path d="M235.485 78.7392C233.449 75.1886 237.824 72.6009 239.236 69.7685L239.237 69.7604C242.556 69.3209 245.217 67.1217 248.083 65.5976C251.844 63.4777 256.396 66.1736 260.138 63.5517C264.072 60.2195 267.95 64.6458 269.863 67.9517C274.451 72.8121 276.279 75.7816 279.67 81.4194C282.95 86.8733 282.651 86.7416 284.046 92.6898C285.318 98.1181 288.539 101.67 289.969 106.228C289.74 110.67 291.545 115.046 290.897 119.501C288.585 122.983 284.118 123.581 280.866 125.82C277.848 128.8 273.299 129.146 269.311 128.528C264.403 127.438 259.263 127.062 254.327 128.198C246.081 128.51 251.033 117.696 241.934 113.303C239.005 111.89 235.089 109.71 235.022 105.956C234.861 96.7588 227.605 98.1981 232.612 88.0778C234.288 84.8743 236.83 82.28 235.485 78.7392Z" fill="#9B8E62"/>
<path d="M266.991 155.279C268.328 151.863 261.216 152.803 259.504 153.29C255.876 155.186 255.787 156.757 257.784 159.972C258.348 160.881 259.179 162.718 259.587 163.302C261.452 165.974 266.433 156.703 266.991 155.279Z" fill="#9B8E62"/>
<path d="M132.904 346.814C132.624 336.413 113.835 352.266 126.816 352.975C131.036 353.206 132.131 350.282 132.904 346.814Z" fill="#9B8E62"/>
<path d="M49.3137 183.027C44.4782 170.824 73.6519 160.159 80.34 173.562C80.0435 180.185 78.5554 202.066 71.8918 205.345C60.9261 210.742 52.2748 190.497 49.3137 183.027Z" fill="#9B8E62"/>
</g>
<g filter="url(#filter2_f)">
<path d="M146.831 510.852C140.362 509.703 141.682 501.652 139.649 497.001L139.64 496.991C142.518 492.455 142.551 486.917 143.627 481.823C144.892 475.011 152.901 472.186 153.529 464.881C153.476 456.611 162.923 456.394 168.964 457.444C180.13 456.705 191.856 457.331 201.966 462.601C207.551 464.085 210.417 471.667 216.674 470.571C223.372 470.999 230.487 469.096 236.815 472.106C242.048 476.961 249.297 479.245 254.116 484.629C256.022 491.056 252.157 497.17 251.563 503.475C252.124 510.258 247.863 516.211 242.992 520.483C236.593 525.399 230.837 531.338 227.151 538.582C222.871 545.161 215.348 540.663 210.219 538.139C204.727 536.66 198.84 534.046 193.126 535.733C188.087 538.568 181.408 536.039 180.125 530.241C178.609 521.891 170.682 526.203 166.477 529.713C161.079 531.846 157.208 525.851 155.212 521.712C152.985 517.93 151.598 511.784 146.831 510.852Z" fill="#A29669"/>
<path d="M206.059 407.077C211.276 407.558 232.492 427.96 233.949 431.464C235.821 440.743 233.309 448.419 233.185 458.97C233.048 470.621 216.585 469.689 208.665 467.995C158.792 457.321 180.508 404.716 206.059 407.077Z" fill="#A29669"/>
</g>
<g filter="url(#filter3_f)">
<path d="M95.8309 314.852C89.3617 313.703 90.6824 305.652 88.6488 301.001L88.6396 300.991C91.5177 296.455 91.5509 290.917 92.6266 285.823C93.8923 279.011 101.901 276.186 102.529 268.881C102.476 260.611 111.923 260.394 117.964 261.444C129.13 260.705 140.856 261.331 150.966 266.601C156.551 268.085 159.417 275.667 165.674 274.571C172.372 274.999 179.487 273.096 185.815 276.106C191.048 280.961 198.297 283.245 203.116 288.629C205.022 295.056 201.157 301.17 200.563 307.475C201.124 314.258 196.863 320.211 191.992 324.483C185.593 329.399 179.837 335.338 176.151 342.582C171.871 349.161 164.348 344.663 159.219 342.139C153.727 340.66 147.84 338.046 142.126 339.733C137.087 342.568 130.408 340.039 129.125 334.241C127.609 325.891 119.682 330.203 115.477 333.713C110.079 335.846 106.208 329.851 104.212 325.712C101.985 321.93 100.598 315.784 95.8309 314.852Z" fill="#A29669"/>
<path d="M155.059 211.077C160.276 211.558 181.492 231.96 182.949 235.464C184.821 244.743 182.309 252.419 182.185 262.97C182.048 274.621 165.585 273.689 157.665 271.995C107.792 261.321 129.508 208.716 155.059 211.077Z" fill="#A29669"/>
</g>
<g filter="url(#filter4_f)">
<path d="M212.705 144.081C208.148 143.272 209.078 137.607 207.646 134.334L207.64 134.327C209.667 131.135 209.69 127.238 210.448 123.653C211.339 118.86 216.98 116.871 217.423 111.731C217.385 105.912 224.039 105.759 228.294 106.497C236.159 105.977 244.418 106.418 251.539 110.127C255.473 111.171 257.491 116.506 261.899 115.735C266.617 116.036 271.628 114.697 276.085 116.815C279.771 120.232 284.876 121.839 288.271 125.627C289.613 130.151 286.891 134.453 286.472 138.89C286.868 143.663 283.866 147.853 280.436 150.858C275.929 154.318 271.874 158.497 269.278 163.595C266.263 168.224 260.965 165.059 257.352 163.283C253.484 162.242 249.337 160.403 245.313 161.59C241.763 163.585 237.059 161.805 236.156 157.725C235.088 151.849 229.504 154.884 226.543 157.354C222.741 158.855 220.014 154.636 218.608 151.723C217.04 149.062 216.063 144.737 212.705 144.081Z" fill="#A29669"/>
<path d="M254.422 71.0542C258.097 71.3928 273.04 85.7499 274.066 88.2151C275.385 94.7453 273.615 100.147 273.528 107.572C273.432 115.771 261.836 115.115 256.257 113.922C221.129 106.411 236.425 69.3928 254.422 71.0542Z" fill="#A29669"/>
</g>
<g filter="url(#filter5_f)">
<path d="M280.518 22.7614C290.189 2.59624 273.703 19.2118 288.988 -8.36736L292.783 -18.1485C300.974 -43.7542 272.945 -51.4423 254.71 -48.8997C222.382 -44.3872 201.846 -3.64462 171.59 20.6439C147.937 39.6255 119.473 35.2152 121.064 50.3602C125.142 89.1097 128.008 76.4701 111.051 114.787C100.724 138.128 136.723 200.094 168.493 158.778C200.14 117.624 201.979 145.525 243.925 129.857C284.799 114.597 272.342 101.832 268.33 77.0253C267.339 70.889 277.968 28.0777 280.518 22.7614Z" fill="#9B8E62"/>
<path d="M209.627 78.5824C187.262 75.4866 210.563 59.9171 203.731 44.1351C199.885 38.3706 194.858 36.6465 188.248 35.0707C178.344 32.7069 159.323 33.0355 163.064 19.1299C168.924 -0.284744 180.186 1.83215 196.583 -3.59742L198.72 -4.36597C210.866 -8.73711 219.929 -19.0079 233.402 -17.679C247.3 -16.3071 245.32 -9.38551 244.51 0.619133C242.069 30.6438 278.482 22.0863 270.586 43.607C261.787 67.5902 234.346 81.4615 209.627 78.5824Z" fill="#9B8E62"/>
<path d="M212.563 159.596C202.974 195.628 187.552 206.913 149.012 209.6C113.92 212.05 227.514 100.12 212.563 159.596Z" fill="#9B8E62"/>
<path d="M281.709 -88.4179C266.006 -119.181 218.165 -36.4217 262.658 -58.4384C272.374 -63.2454 285.018 -76.6979 281.709 -88.4179Z" fill="#9B8E62"/>
</g>
<g filter="url(#filter6_f)">
<path d="M162.919 -6.39904C173 -11.9319 206.244 21.1036 214.11 28.1155L218.11 31.3917C237.679 47.4082 228.611 44.5639 235.121 58.1988C236.159 60.3753 259.399 73.3167 234.649 76.0524C210.131 78.7603 204.347 79.063 179.658 76.883C171.214 76.1357 105.034 78.2984 118.158 58.8988C139.014 28.0603 112.387 16.615 142.681 5.04132C157.005 -0.429684 153.626 -1.2953 162.919 -6.39904Z" fill="#9B8E62"/>
<path d="M289.888 169.842C307.748 168.45 308.625 164.99 317.796 177.179C326.611 188.233 325.697 196.932 316.985 208.344C301.485 228.649 302.547 206.626 276.176 233.243C246.056 263.644 261.275 277.105 220.408 275.175C174.415 273.001 165.68 284.958 181.794 239.831C182.679 237.351 183.492 235.051 184.257 232.905C166.114 226.362 154.798 200.878 128.643 202.431C109.916 203.543 100.142 188.105 110.694 172.609C123.116 154.367 105.094 153.032 134.088 149.995C156.639 147.632 167.135 121.985 171.013 123.354C183.636 127.81 173.356 143.651 217.939 144.03C240.666 144.223 275.361 142.229 288.601 164.764C289.438 166.19 289.852 167.935 289.888 169.842Z" fill="#9B8E62"/>
<path d="M166.411 299.681C168.745 303.751 163.728 306.719 162.11 309.965L162.109 309.974C158.305 310.478 155.255 312.999 151.969 314.746C147.657 317.176 142.439 314.086 138.148 317.091C133.64 320.911 129.193 315.837 127 312.048C121.48 306.272 116.451 299.564 114.708 291.611C112.962 287.872 115.804 282.826 112.337 279.902C109.503 276.038 105.201 273.014 103.951 268.169C104.214 263.077 102.145 258.06 102.888 252.953C105.537 248.961 110.659 248.275 114.386 245.71C117.846 242.292 123.062 241.896 127.634 242.605C133.26 243.855 139.152 244.284 144.811 242.981C150.377 242.309 151.359 248.491 152.326 252.457C154.031 256.143 155.295 260.565 158.837 262.921C162.7 264.381 164.374 269.197 161.784 272.559C157.902 277.217 163.898 279.581 167.747 280.274C171.389 282.252 169.877 287.121 168.523 290.112C167.471 293.065 164.738 296.643 166.411 299.681Z" fill="#9B8E62"/>
<path d="M132.65 358.046C131.946 353.221 130.353 348.643 135.653 347.759L135.713 347.766C137.617 348.009 139.5 348.249 141.277 349.105C143.994 350.413 143.567 356.072 143.197 356.849C142.133 359.084 132.94 360.033 132.65 358.046Z" fill="#9B8E62"/>
<path d="M148.556 379.248C151.39 376.138 152.974 370.411 155.481 367.932C158.91 366.645 160.278 366.648 163.831 367.386C176.936 370.102 173.09 362.94 178.984 379.332C183.191 391.021 183.955 391.111 190.779 400.967C192.144 402.945 194.817 408.484 193.208 410.835C186.404 419.533 189.847 418.089 178.334 420.024C176.773 419.989 169.137 417.716 166.965 417.181C163.809 416.404 166.118 417.569 164.008 416.08C160.03 413.28 158.781 416.67 158.089 414.161C157.415 411.702 159.903 412.674 159.021 408C158.464 405.047 151.874 395.12 149.893 392.002C149.06 390.691 149.006 391.276 149.233 390.116C149.723 387.65 149.884 384.532 149.001 382.166C147.925 379.287 147.021 380.685 148.556 379.248Z" fill="#9B8E62"/>
<path d="M123.402 395.901C125.438 399.451 121.063 402.039 119.651 404.872L119.65 404.88C116.331 405.319 113.67 407.518 110.804 409.043C107.043 411.162 102.491 408.467 98.7486 411.088C94.8151 414.421 90.9365 409.994 89.0242 406.688C84.4355 401.828 82.6077 398.858 79.2169 393.221C75.9363 387.767 76.2359 387.899 74.8411 381.95C73.5684 376.522 70.348 372.97 68.9173 368.412C69.1469 363.97 67.3418 359.594 67.9899 355.139C70.3014 351.657 74.7683 351.059 78.0209 348.82C81.0388 345.84 85.5877 345.494 89.5756 346.112C94.484 347.202 99.6242 347.578 104.56 346.442C112.805 346.13 107.854 356.944 116.953 361.337C119.882 362.75 123.798 364.93 123.865 368.684C124.026 377.881 131.282 376.442 126.275 386.562C124.599 389.766 122.057 392.36 123.402 395.901Z" fill="#9B8E62"/>
<path d="M91.8957 319.362C90.5592 322.778 97.6711 321.837 99.3824 321.35C103.011 319.454 103.099 317.884 101.103 314.668C100.538 313.759 99.7076 311.922 99.3001 311.338C97.4343 308.666 92.4533 317.937 91.8957 319.362Z" fill="#9B8E62"/>
<path d="M225.983 127.826C226.262 138.227 245.052 122.374 232.071 121.665C227.851 121.435 226.756 124.358 225.983 127.826Z" fill="#9B8E62"/>
<path d="M309.573 291.613C314.408 303.816 285.235 314.481 278.547 301.078C278.843 294.455 280.331 272.574 286.995 269.295C297.961 263.898 306.612 284.143 309.573 291.613Z" fill="#9B8E62"/>
</g>
<g filter="url(#filter7_f)">
<path d="M236.056 9.78838C242.525 10.9373 241.205 18.9878 243.238 23.6395L243.247 23.6486C240.369 28.185 240.336 33.7228 239.26 38.8176C237.995 45.6289 229.986 48.4546 229.358 55.7593C229.411 64.029 219.964 64.246 213.923 63.1965C202.757 63.9354 191.031 63.3095 180.921 58.0388C175.336 56.5553 172.47 48.973 166.213 50.0694C159.515 49.6411 152.4 51.5438 146.072 48.5344C140.839 43.6794 133.59 41.3954 128.771 36.0116C126.865 29.584 130.73 23.4705 131.324 17.1651C130.762 10.3823 135.024 4.42864 139.895 0.157274C146.294 -4.75936 152.05 -10.6981 155.736 -17.9423C160.016 -24.5207 167.539 -20.0232 172.668 -17.4992C178.16 -16.0202 184.047 -13.4059 189.761 -15.0928C194.8 -17.9274 201.479 -15.3989 202.762 -9.60056C204.278 -1.25085 212.205 -5.56332 216.41 -9.07292C221.808 -11.2063 225.679 -5.21046 227.675 -1.07158C229.902 2.70983 231.289 8.85645 236.056 9.78838Z" fill="#A29669"/>
<path d="M176.828 113.563C171.611 113.082 150.395 92.6798 148.938 89.1766C147.066 79.8968 149.578 72.2209 149.702 61.67C149.839 50.0188 166.302 50.9509 174.222 52.6451C224.095 63.3193 202.379 115.924 176.828 113.563Z" fill="#A29669"/>
</g>
<g filter="url(#filter8_f)">
<path d="M287.056 205.788C293.525 206.937 292.205 214.988 294.238 219.64L294.247 219.649C291.369 224.185 291.336 229.723 290.26 234.818C288.995 241.629 280.986 244.455 280.358 251.759C280.411 260.029 270.964 260.246 264.923 259.196C253.757 259.935 242.031 259.31 231.921 254.039C226.336 252.555 223.47 244.973 217.213 246.069C210.515 245.641 203.4 247.544 197.072 244.534C191.839 239.679 184.59 237.395 179.771 232.012C177.865 225.584 181.73 219.47 182.324 213.165C181.762 206.382 186.024 200.429 190.895 196.157C197.294 191.241 203.05 185.302 206.736 178.058C211.016 171.479 218.539 175.977 223.668 178.501C229.16 179.98 235.047 182.594 240.761 180.907C245.8 178.073 252.479 180.601 253.762 186.399C255.278 194.749 263.205 190.437 267.41 186.927C272.808 184.794 276.679 190.79 278.675 194.928C280.902 198.71 282.289 204.856 287.056 205.788Z" fill="#A29669"/>
<path d="M227.828 309.563C222.611 309.082 201.395 288.68 199.938 285.177C198.066 275.897 200.578 268.221 200.702 257.67C200.839 246.019 217.302 246.951 225.222 248.645C275.095 259.319 253.379 311.924 227.828 309.563Z" fill="#A29669"/>
</g>
<g filter="url(#filter9_f)">
<path d="M170.182 376.559C174.739 377.368 173.809 383.033 175.241 386.306L175.247 386.313C173.22 389.505 173.197 393.402 172.439 396.987C171.548 401.78 165.907 403.769 165.464 408.909C165.502 414.729 158.848 414.881 154.593 414.143C146.728 414.663 138.469 414.222 131.348 410.513C127.414 409.469 125.396 404.134 120.988 404.905C116.27 404.604 111.259 405.943 106.802 403.825C103.116 400.409 98.0105 398.801 94.6163 395.013C93.2735 390.49 95.9963 386.187 96.4146 381.75C96.0189 376.977 99.0205 372.788 102.451 369.782C106.958 366.322 111.013 362.143 113.609 357.045C116.624 352.416 121.922 355.581 125.535 357.357C129.403 358.398 133.549 360.237 137.574 359.05C141.124 357.056 145.828 358.835 146.731 362.915C147.799 368.791 153.383 365.756 156.344 363.287C160.146 361.785 162.873 366.005 164.279 368.917C165.847 371.578 166.824 375.903 170.182 376.559Z" fill="#A29669"/>
<path d="M128.465 449.586C124.79 449.247 109.847 434.89 108.821 432.425C107.502 425.895 109.271 420.493 109.359 413.069C109.455 404.87 121.051 405.526 126.63 406.718C161.758 414.229 146.462 451.247 128.465 449.586Z" fill="#A29669"/>
</g>
<g filter="url(#filter10_f)">
<path d="M540.879 732.271C561.044 741.942 544.428 725.456 572.007 740.74L581.789 744.536C607.394 752.726 615.082 724.698 612.54 706.463C608.027 674.135 567.285 653.599 542.996 623.342C524.015 599.69 528.425 571.226 513.28 572.817C474.53 576.895 487.17 579.761 448.853 562.804C425.512 552.477 363.546 588.475 404.862 620.246C446.016 651.892 418.115 653.732 433.783 695.678C449.043 736.551 461.808 724.095 486.615 720.083C492.751 719.091 535.562 729.721 540.879 732.271Z" fill="#9B8E62"/>
<path d="M485.058 661.38C488.154 639.015 503.723 662.316 519.505 655.483C525.27 651.638 526.994 646.61 528.569 640.001C530.933 630.097 530.605 611.075 544.51 614.817C563.925 620.677 561.808 631.938 567.238 648.335L568.006 650.473C572.377 662.619 582.648 671.682 581.319 685.154C579.947 699.053 573.026 697.073 563.021 696.262C532.996 693.822 541.554 730.235 520.033 722.339C496.05 713.539 482.179 686.099 485.058 661.38Z" fill="#9B8E62"/>
<path d="M404.044 664.315C368.012 654.727 356.728 639.305 354.04 600.765C351.59 565.673 463.52 679.266 404.044 664.315Z" fill="#9B8E62"/>
<path d="M652.058 733.462C682.821 717.759 600.062 669.918 622.079 714.41C626.885 724.126 640.338 736.771 652.058 733.462Z" fill="#9B8E62"/>
</g>
<g filter="url(#filter11_f)">
<path d="M524.039 638.672C529.572 648.753 496.536 681.997 489.524 689.863L486.248 693.863C470.232 713.431 473.076 704.364 459.441 710.874C457.265 711.912 444.323 735.152 441.588 710.402C438.88 685.884 438.577 680.1 440.757 655.411C441.504 646.967 439.342 580.787 458.741 593.911C489.58 614.766 501.025 588.14 512.599 618.434C518.07 632.757 518.935 629.379 524.039 638.672Z" fill="#9B8E62"/>
<path d="M347.798 765.641C349.19 783.501 352.65 784.378 340.461 793.549C329.407 802.364 320.708 801.449 309.296 792.738C288.991 777.238 311.014 778.299 284.397 751.929C253.996 721.809 240.535 737.028 242.465 696.161C244.639 650.168 232.682 641.433 277.809 657.547C280.289 658.432 282.589 659.245 284.735 660.01C291.278 641.867 316.762 630.551 315.209 604.396C314.096 585.669 329.535 575.895 345.031 586.447C363.273 598.869 364.608 580.847 367.645 609.841C370.008 632.392 395.655 642.888 394.286 646.766C389.83 659.389 373.989 649.109 373.61 693.692C373.417 716.418 375.411 751.114 352.876 764.353C351.45 765.191 349.705 765.605 347.798 765.641Z" fill="#9B8E62"/>
<path d="M217.959 642.164C213.889 644.498 210.921 639.481 207.675 637.863L207.666 637.862C207.162 634.058 204.641 631.007 202.894 627.722C200.464 623.41 203.554 618.192 200.549 613.901C196.729 609.393 201.803 604.946 205.592 602.753C211.368 597.233 218.076 592.204 226.029 590.461C229.768 588.715 234.814 591.557 237.738 588.09C241.602 585.256 244.626 580.954 249.471 579.704C254.563 579.967 259.58 577.898 264.687 578.641C268.678 581.29 269.365 586.412 271.93 590.139C275.348 593.599 275.744 598.815 275.035 603.387C273.785 609.013 273.356 614.905 274.659 620.564C275.331 626.13 269.149 627.112 265.183 628.078C261.497 629.784 257.075 631.048 254.719 634.59C253.259 638.453 248.442 640.127 245.081 637.537C240.423 633.655 238.059 639.65 237.366 643.5C235.388 647.142 230.519 645.63 227.528 644.276C224.575 643.224 220.997 640.491 217.959 642.164Z" fill="#9B8E62"/>
<path d="M159.594 608.403C164.419 607.699 168.997 606.106 169.881 611.406L169.874 611.466C169.631 613.37 169.391 615.253 168.535 617.03C167.227 619.747 161.568 619.32 160.791 618.95C158.556 617.886 157.607 608.692 159.594 608.403Z" fill="#9B8E62"/>
<path d="M138.392 624.308C141.502 627.143 147.229 628.727 149.708 631.234C150.995 634.663 150.992 636.03 150.254 639.584C147.537 652.689 154.7 648.843 138.308 654.737C126.619 658.944 126.529 659.708 116.673 666.532C114.695 667.897 109.156 670.57 106.805 668.961C98.1073 662.157 99.5514 665.6 97.6164 654.087C97.6507 652.526 99.9244 644.89 100.459 642.718C101.236 639.562 100.071 641.871 101.56 639.761C104.36 635.783 100.97 634.534 103.479 633.842C105.937 633.168 104.966 635.656 109.64 634.774C112.593 634.217 122.52 627.627 125.638 625.646C126.949 624.813 126.364 624.759 127.524 624.986C129.99 625.476 133.108 625.637 135.474 624.754C138.353 623.678 136.955 622.773 138.392 624.308Z" fill="#9B8E62"/>
<path d="M121.739 599.155C118.188 601.191 115.601 596.815 112.768 595.404L112.76 595.403C112.321 592.084 110.122 589.423 108.597 586.557C106.478 582.796 109.173 578.244 106.552 574.502C103.219 570.568 107.646 566.689 110.952 564.777C115.812 560.188 118.781 558.361 124.419 554.97C129.873 551.689 129.741 551.989 135.69 550.594C141.118 549.321 144.67 546.101 149.228 544.67C153.67 544.9 158.046 543.095 162.501 543.743C165.983 546.054 166.581 550.521 168.82 553.774C171.8 556.792 172.146 561.341 171.528 565.329C170.438 570.237 170.062 575.377 171.198 580.313C171.51 588.558 160.696 583.607 156.303 592.706C154.89 595.635 152.71 599.551 148.956 599.618C139.759 599.779 141.198 607.035 131.078 602.028C127.874 600.352 125.28 597.81 121.739 599.155Z" fill="#9B8E62"/>
<path d="M198.278 567.649C194.862 566.312 195.803 573.424 196.29 575.135C198.186 578.764 199.756 578.852 202.972 576.856C203.881 576.291 205.718 575.461 206.302 575.053C208.974 573.187 199.703 568.206 198.278 567.649Z" fill="#9B8E62"/>
<path d="M389.814 701.736C379.413 702.015 395.266 720.805 395.975 707.824C396.205 703.604 393.282 702.508 389.814 701.736Z" fill="#9B8E62"/>
<path d="M226.027 785.326C213.824 790.161 203.159 760.988 216.562 754.3C223.185 754.596 245.066 756.084 248.345 762.748C253.742 773.713 233.497 782.365 226.027 785.326Z" fill="#9B8E62"/>
</g>
<g filter="url(#filter12_f)">
<path d="M553.852 687.809C552.703 694.278 544.652 692.957 540.001 694.991L539.991 695C535.455 692.122 529.917 692.089 524.823 691.013C518.011 689.747 515.186 681.739 507.881 681.111C499.611 681.163 499.394 671.717 500.444 665.675C499.705 654.51 500.331 642.783 505.601 632.674C507.085 627.088 514.667 624.223 513.571 617.965C513.999 611.267 512.096 604.153 515.106 597.824C519.961 592.591 522.245 585.343 527.629 580.524C534.056 578.617 540.17 582.483 546.475 583.077C553.258 582.515 559.211 586.777 563.483 591.647C568.399 598.047 574.338 603.803 581.582 607.489C588.161 611.769 583.663 619.292 581.139 624.421C579.66 629.913 577.046 635.799 578.733 641.513C581.568 646.553 579.039 653.232 573.241 654.514C564.891 656.031 569.203 663.958 572.713 668.162C574.846 673.56 568.851 677.432 564.712 679.427C560.93 681.654 554.784 683.041 553.852 687.809Z" fill="#A29669"/>
<path d="M450.077 628.581C450.558 623.363 470.96 602.148 474.464 600.691C483.743 598.819 491.419 601.331 501.97 601.455C513.621 601.591 512.689 618.055 510.995 625.975C500.321 675.848 447.716 654.132 450.077 628.581Z" fill="#A29669"/>
</g>
<g filter="url(#filter13_f)">
<path d="M357.852 738.809C356.703 745.278 348.652 743.957 344.001 745.991L343.991 746C339.455 743.122 333.917 743.089 328.823 742.013C322.011 740.747 319.186 732.739 311.881 732.111C303.611 732.163 303.394 722.717 304.444 716.675C303.705 705.51 304.331 693.783 309.601 683.674C311.085 678.088 318.667 675.223 317.571 668.965C317.999 662.267 316.096 655.153 319.106 648.824C323.961 643.591 326.245 636.343 331.629 631.524C338.056 629.617 344.17 633.483 350.475 634.077C357.258 633.515 363.211 637.777 367.483 642.647C372.399 649.047 378.338 654.803 385.582 658.489C392.161 662.769 387.663 670.292 385.139 675.421C383.66 680.913 381.046 686.799 382.733 692.513C385.568 697.553 383.039 704.232 377.241 705.514C368.891 707.031 373.203 714.958 376.713 719.162C378.846 724.56 372.851 728.432 368.712 730.427C364.93 732.654 358.784 734.041 357.852 738.809Z" fill="#A29669"/>
<path d="M254.077 679.581C254.558 674.363 274.96 653.148 278.464 651.691C287.743 649.819 295.419 652.331 305.97 652.455C317.621 652.591 316.689 669.055 314.995 676.975C304.321 726.848 251.716 705.132 254.077 679.581Z" fill="#A29669"/>
</g>
<g filter="url(#filter14_f)">
<path d="M187.081 621.935C186.272 626.491 180.607 625.561 177.334 626.994L177.327 627C174.135 624.973 170.238 624.949 166.653 624.192C161.86 623.3 159.871 617.66 154.731 617.217C148.912 617.254 148.759 610.6 149.497 606.345C148.977 598.481 149.418 590.221 153.127 583.101C154.171 579.167 159.506 577.148 158.735 572.741C159.036 568.023 157.697 563.012 159.815 558.555C163.232 554.869 164.839 549.763 168.627 546.369C173.151 545.026 177.453 547.749 181.89 548.167C186.663 547.772 190.853 550.773 193.858 554.204C197.318 558.711 201.497 562.765 206.595 565.362C211.224 568.376 208.059 573.675 206.283 577.288C205.242 581.156 203.403 585.302 204.59 589.327C206.585 592.876 204.805 597.581 200.725 598.484C194.849 599.552 197.884 605.136 200.354 608.097C201.855 611.899 197.636 614.626 194.723 616.031C192.062 617.6 187.737 618.577 187.081 621.935Z" fill="#A29669"/>
<path d="M114.054 580.218C114.393 576.543 128.75 561.6 131.215 560.573C137.745 559.255 143.147 561.024 150.572 561.112C158.771 561.208 158.115 572.804 156.922 578.382C149.411 613.51 112.393 598.215 114.054 580.218Z" fill="#A29669"/>
</g>
<g filter="url(#filter15_f)">
<path d="M490.518 56.2715C510.683 65.9424 494.067 49.4561 521.646 64.7406L531.428 68.5364C557.033 76.7266 564.721 48.6983 562.179 30.4629C557.666 -1.86449 516.924 -22.401 492.635 -52.6573C473.654 -76.3098 478.064 -104.774 462.919 -103.183C424.169 -99.1048 436.809 -96.2386 398.492 -113.196C375.151 -123.523 313.185 -87.5242 354.501 -55.7535C395.655 -24.1072 367.754 -22.2674 383.422 19.6786C398.682 60.5519 411.447 48.0951 436.254 44.0831C442.39 43.0917 485.201 53.7215 490.518 56.2715Z" fill="#9B8E62"/>
<path d="M434.697 -14.6197C437.792 -36.9848 453.362 -13.6838 469.144 -20.5163C474.908 -24.3616 476.633 -29.3892 478.208 -35.9991C480.572 -45.9031 480.244 -64.9243 494.149 -61.1828C513.564 -55.3229 511.447 -44.0614 516.876 -27.6642L517.645 -25.5266C522.016 -13.3811 532.287 -4.31791 530.958 9.15475C529.586 23.0532 522.665 21.0732 512.66 20.2626C482.635 17.8223 491.193 54.2352 469.672 46.3392C445.689 37.5397 431.818 10.0993 434.697 -14.6197Z" fill="#9B8E62"/>
<path d="M353.683 -11.6843C317.651 -21.2727 306.367 -36.695 303.679 -75.2346C301.229 -110.327 413.159 3.26683 353.683 -11.6843Z" fill="#9B8E62"/>
<path d="M601.697 57.4623C632.46 41.7589 549.701 -6.08176 571.717 38.4106C576.524 48.1266 589.977 60.7715 601.697 57.4623Z" fill="#9B8E62"/>
</g>
<g filter="url(#filter16_f)">
<path d="M529.038 7.67146C534.571 17.7524 501.536 50.997 494.524 58.8624L491.248 62.863C475.231 82.4314 478.075 73.3636 464.44 79.8741C462.264 80.9118 449.323 104.152 446.587 79.4014C443.879 54.884 443.576 49.1002 445.756 24.4112C446.504 15.9667 444.341 -50.2132 463.74 -37.0893C494.579 -16.2337 506.024 -42.8603 517.598 -12.5664C523.069 1.75733 523.935 -1.6215 529.038 7.67146Z" fill="#9B8E62"/>
<path d="M352.797 134.641C354.19 152.501 357.649 153.378 345.46 162.549C334.407 171.363 325.708 170.449 314.296 161.737C293.99 146.238 316.013 147.299 289.396 120.929C258.995 90.8087 245.534 106.028 247.465 65.1605C249.638 19.1675 237.682 10.4331 282.808 26.5464C285.289 27.4322 287.589 28.2447 289.734 29.0098C296.277 10.8669 321.761 -0.449534 320.208 -26.6045C319.096 -45.3311 334.534 -55.105 350.03 -44.5531C368.273 -32.1308 369.607 -50.1531 372.644 -21.1595C375.007 1.3914 400.654 11.888 399.285 15.7655C394.83 28.3891 378.988 18.1085 378.61 62.6916C378.416 85.4183 380.41 120.113 357.875 133.353C356.449 134.191 354.704 134.605 352.797 134.641Z" fill="#9B8E62"/>
<path d="M222.958 11.1639C218.889 13.498 215.921 8.48081 212.674 6.86311L212.665 6.86229C212.161 3.05757 209.64 0.00733858 207.894 -3.27771C205.464 -7.59055 208.554 -12.8081 205.549 -17.0993C201.728 -21.6074 206.802 -26.0543 210.591 -28.2468C216.367 -33.7672 223.076 -38.7965 231.028 -40.5394C234.768 -42.2854 239.813 -39.4427 242.737 -42.9104C246.602 -45.7443 249.625 -50.0465 254.471 -51.2965C259.563 -51.0332 264.579 -53.1022 269.687 -52.3594C273.678 -49.7102 274.364 -44.5886 276.93 -40.8608C280.347 -37.4009 280.743 -32.1856 280.034 -27.6133C278.784 -21.9869 278.355 -16.095 279.658 -10.4361C280.33 -4.86999 274.148 -3.88822 270.182 -2.92167C266.497 -1.21619 262.074 0.0479764 259.719 3.59021C258.258 7.45268 253.442 9.12665 250.081 6.53659C245.422 2.65517 243.058 8.65033 242.365 12.5C240.387 16.1422 235.518 14.6298 232.527 13.2758C229.574 12.2237 225.996 9.49046 222.958 11.1639Z" fill="#9B8E62"/>
<path d="M164.593 -22.5976C169.419 -23.3009 173.996 -24.8941 174.881 -19.5938L174.873 -19.5345C174.63 -17.6299 174.39 -15.7475 173.534 -13.9701C172.227 -11.2534 166.568 -11.6804 165.79 -12.0505C163.555 -13.114 162.606 -22.3077 164.593 -22.5976Z" fill="#9B8E62"/>
<path d="M143.392 -6.69165C146.501 -3.85717 152.228 -2.27304 154.707 0.233843C155.995 3.66264 155.992 5.03034 155.253 8.58384C152.537 21.6886 159.699 17.8425 143.307 23.7372C131.618 27.9439 131.529 28.7081 121.672 35.5316C119.695 36.8965 114.155 39.5696 111.804 37.9609C103.107 31.1571 104.551 34.5997 102.616 23.0867C102.65 21.5258 104.924 13.8898 105.458 11.7181C106.235 8.56216 105.07 10.8712 106.559 8.76125C109.359 4.78238 105.969 3.53395 108.479 2.84216C110.937 2.16782 109.965 4.65615 114.639 3.77415C117.592 3.21712 127.52 -3.37335 130.637 -5.3539C131.948 -6.18757 131.363 -6.24162 132.523 -6.01444C134.99 -5.52412 138.107 -5.36341 140.473 -6.24637C143.352 -7.32174 141.954 -8.22665 143.392 -6.69165Z" fill="#9B8E62"/>
<path d="M126.738 -31.8454C123.188 -29.8092 120.6 -34.1846 117.768 -35.5965L117.76 -35.5972C117.32 -38.9163 115.121 -41.577 113.597 -44.443C111.477 -48.2045 114.173 -52.756 111.551 -56.4986C108.219 -60.4321 112.645 -64.3107 115.951 -66.223C120.811 -70.8116 123.781 -72.6395 129.418 -76.0303C134.872 -79.3109 134.741 -79.0113 140.689 -80.4061C146.117 -81.6788 149.669 -84.8991 154.227 -86.3299C158.669 -86.1003 163.045 -87.9054 167.5 -87.2573C170.982 -84.9458 171.58 -80.4788 173.819 -77.2263C176.8 -74.2084 177.145 -69.6595 176.527 -65.6716C175.437 -60.7632 175.062 -55.623 176.197 -50.6872C176.51 -42.4418 165.695 -47.3934 161.303 -38.2943C159.889 -35.3656 157.709 -31.449 153.955 -31.3825C144.758 -31.2213 146.197 -23.9656 136.077 -28.9724C132.873 -30.6483 130.279 -33.1903 126.738 -31.8454Z" fill="#9B8E62"/>
<path d="M203.278 -63.3515C199.862 -64.688 200.802 -57.5761 201.289 -55.8648C203.185 -52.2362 204.756 -52.1479 207.971 -54.1441C208.88 -54.7089 210.718 -55.5396 211.301 -55.9471C213.973 -57.8129 204.702 -62.7938 203.278 -63.3515Z" fill="#9B8E62"/>
<path d="M394.813 70.7359C384.412 71.015 400.265 89.8048 400.975 76.8235C401.205 72.6037 398.281 71.5084 394.813 70.7359Z" fill="#9B8E62"/>
<path d="M231.026 154.326C218.823 159.161 208.158 129.988 221.561 123.3C228.184 123.596 250.065 125.084 253.344 131.748C258.741 142.713 238.496 151.365 231.026 154.326Z" fill="#9B8E62"/>
</g>
<g filter="url(#filter17_f)">
<path d="M634.038 7.67146C639.571 17.7524 606.535 50.997 599.524 58.8624L596.247 62.863C580.231 82.4314 583.075 73.3636 569.44 79.8741C567.264 80.9118 554.322 104.152 551.587 79.4014C548.879 54.884 548.576 49.1002 550.756 24.4112C551.503 15.9667 549.341 -50.2132 568.74 -37.0893C599.579 -16.2337 611.024 -42.8603 622.598 -12.5664C628.069 1.75733 628.934 -1.6215 634.038 7.67146Z" fill="#9B8E62"/>
<path d="M457.797 134.641C459.189 152.501 462.649 153.378 450.46 162.549C439.406 171.363 430.707 170.449 419.295 161.737C398.99 146.238 421.013 147.299 394.396 120.929C363.995 90.8087 350.534 106.028 352.464 65.1605C354.638 19.1675 342.681 10.4331 387.808 26.5464C390.288 27.4322 392.588 28.2447 394.734 29.0098C401.277 10.8669 426.761 -0.449534 425.208 -26.6045C424.096 -45.3311 439.534 -55.105 455.03 -44.5531C473.272 -32.1308 474.607 -50.1531 477.644 -21.1595C480.007 1.3914 505.654 11.888 504.285 15.7655C499.829 28.3891 483.988 18.1085 483.609 62.6916C483.416 85.4183 485.41 120.113 462.875 133.353C461.449 134.191 459.704 134.605 457.797 134.641Z" fill="#9B8E62"/>
<path d="M327.958 11.1639C323.888 13.498 320.92 8.48081 317.674 6.86311L317.665 6.86229C317.161 3.05757 314.64 0.00733858 312.893 -3.27771C310.463 -7.59055 313.553 -12.8081 310.548 -17.0993C306.728 -21.6074 311.802 -26.0543 315.591 -28.2468C321.367 -33.7672 328.075 -38.7965 336.028 -40.5394C339.767 -42.2854 344.813 -39.4427 347.737 -42.9104C351.601 -45.7443 354.625 -50.0465 359.47 -51.2965C364.562 -51.0332 369.579 -53.1022 374.686 -52.3594C378.678 -49.7102 379.364 -44.5886 381.929 -40.8608C385.347 -37.4009 385.743 -32.1856 385.034 -27.6133C383.784 -21.9869 383.355 -16.095 384.658 -10.4361C385.33 -4.86999 379.148 -3.88822 375.182 -2.92167C371.496 -1.21619 367.074 0.0479764 364.718 3.59021C363.258 7.45268 358.442 9.12665 355.08 6.53659C350.422 2.65517 348.058 8.65033 347.365 12.5C345.387 16.1422 340.518 14.6298 337.527 13.2758C334.574 12.2237 330.996 9.49046 327.958 11.1639Z" fill="#9B8E62"/>
<path d="M269.593 -22.5976C274.418 -23.3009 278.996 -24.8941 279.88 -19.5938L279.873 -19.5345C279.63 -17.6299 279.39 -15.7475 278.534 -13.9701C277.226 -11.2534 271.567 -11.6804 270.79 -12.0505C268.555 -13.114 267.606 -22.3077 269.593 -22.5976Z" fill="#9B8E62"/>
<path d="M248.391 -6.69165C251.501 -3.85717 257.228 -2.27304 259.707 0.233843C260.994 3.66264 260.991 5.03034 260.253 8.58384C257.537 21.6886 264.699 17.8425 248.307 23.7372C236.618 27.9439 236.528 28.7081 226.672 35.5316C224.694 36.8965 219.155 39.5696 216.804 37.9609C208.106 31.1571 209.55 34.5997 207.615 23.0867C207.65 21.5258 209.923 13.8898 210.458 11.7181C211.235 8.56216 210.07 10.8712 211.559 8.76125C214.359 4.78238 210.969 3.53395 213.478 2.84216C215.937 2.16782 214.965 4.65615 219.639 3.77415C222.592 3.21712 232.519 -3.37335 235.637 -5.3539C236.948 -6.18757 236.363 -6.24162 237.523 -6.01444C239.989 -5.52412 243.107 -5.36341 245.473 -6.24637C248.352 -7.32174 246.954 -8.22665 248.391 -6.69165Z" fill="#9B8E62"/>
<path d="M231.738 -31.8454C228.188 -29.8092 225.6 -34.1846 222.767 -35.5965L222.759 -35.5972C222.32 -38.9163 220.121 -41.577 218.596 -44.443C216.477 -48.2045 219.172 -52.756 216.551 -56.4986C213.218 -60.4321 217.645 -64.3107 220.951 -66.223C225.811 -70.8116 228.781 -72.6395 234.418 -76.0303C239.872 -79.3109 239.74 -79.0113 245.689 -80.4061C251.117 -81.6788 254.669 -84.8991 259.227 -86.3299C263.669 -86.1003 268.045 -87.9054 272.5 -87.2573C275.982 -84.9458 276.58 -80.4788 278.819 -77.2263C281.799 -74.2084 282.145 -69.6595 281.527 -65.6716C280.437 -60.7632 280.061 -55.623 281.197 -50.6872C281.509 -42.4418 270.695 -47.3934 266.302 -38.2943C264.889 -35.3656 262.709 -31.449 258.955 -31.3825C249.758 -31.2213 251.197 -23.9656 241.077 -28.9724C237.873 -30.6483 235.279 -33.1903 231.738 -31.8454Z" fill="#9B8E62"/>
<path d="M308.277 -63.3515C304.861 -64.688 305.802 -57.5761 306.289 -55.8648C308.185 -52.2362 309.755 -52.1479 312.971 -54.1441C313.88 -54.7089 315.717 -55.5396 316.301 -55.9471C318.973 -57.8129 309.702 -62.7938 308.277 -63.3515Z" fill="#9B8E62"/>
<path d="M499.813 70.7359C489.412 71.015 505.265 89.8048 505.974 76.8235C506.204 72.6037 503.281 71.5084 499.813 70.7359Z" fill="#9B8E62"/>
<path d="M336.026 154.326C323.823 159.161 313.158 129.988 326.561 123.3C333.184 123.596 355.065 125.084 358.344 131.748C363.741 142.713 343.496 151.365 336.026 154.326Z" fill="#9B8E62"/>
</g>
<g filter="url(#filter18_f)">
<path d="M552.851 11.8092C551.702 18.2783 543.651 16.9577 538.999 18.9912L538.99 19.0004C534.454 16.1223 528.916 16.0891 523.821 15.0134C517.01 13.7477 514.184 5.73939 506.88 5.11113C498.61 5.16377 498.393 -4.28301 499.442 -10.3242C498.704 -21.4898 499.329 -33.2161 504.6 -43.3255C506.084 -48.9112 513.666 -51.7768 512.569 -58.0342C512.998 -64.7322 511.095 -71.8468 514.105 -78.1751C518.959 -83.4084 521.244 -90.6568 526.627 -95.4757C533.055 -97.3822 539.168 -93.5165 545.474 -92.9226C552.257 -93.4844 558.21 -89.2229 562.482 -84.3524C567.398 -77.9531 573.337 -72.1969 580.581 -68.5109C587.16 -64.2309 582.662 -56.7078 580.138 -51.5788C578.659 -46.0869 576.045 -40.2003 577.732 -34.4864C580.566 -29.4466 578.038 -22.768 572.239 -21.4851C563.89 -19.9688 568.202 -12.0418 571.712 -7.83739C573.845 -2.43939 567.849 1.43196 563.71 3.42774C559.929 5.65469 553.782 7.0417 552.851 11.8092Z" fill="#A29669"/>
<path d="M449.076 -47.4191C449.557 -52.6363 469.959 -73.8517 473.462 -75.3089C482.742 -77.1806 490.418 -74.669 500.969 -74.5445C512.62 -74.4082 511.688 -57.9446 509.994 -50.0245C499.32 -0.151532 446.715 -21.8677 449.076 -47.4191Z" fill="#A29669"/>
</g>
<g filter="url(#filter19_f)">
<path d="M356.851 62.8092C355.702 69.2783 347.652 67.9577 343 69.9912L342.991 70.0004C338.454 67.1223 332.917 67.0891 327.822 66.0134C321.01 64.7477 318.185 56.7394 310.88 56.1111C302.61 56.1638 302.393 46.717 303.443 40.6758C302.704 29.5102 303.33 17.7839 308.601 7.67447C310.084 2.08879 317.666 -0.776762 316.57 -7.03419C316.998 -13.7322 315.096 -20.8468 318.105 -27.1751C322.96 -32.4084 325.244 -39.6568 330.628 -44.4757C337.055 -46.3822 343.169 -42.5165 349.474 -41.9226C356.257 -42.4844 362.211 -38.2229 366.482 -33.3524C371.399 -26.9531 377.338 -21.1969 384.582 -17.5109C391.16 -13.2309 386.663 -5.70784 384.139 -0.578765C382.66 4.91308 380.045 10.7997 381.732 16.5136C384.567 21.5534 382.038 28.232 376.24 29.5149C367.89 31.0312 372.203 38.9582 375.712 43.1626C377.846 48.5606 371.85 52.432 367.711 54.4277C363.93 56.6547 357.783 58.0417 356.851 62.8092Z" fill="#A29669"/>
<path d="M253.076 3.5809C253.557 -1.63633 273.96 -22.8517 277.463 -24.3089C286.743 -26.1806 294.419 -23.669 304.969 -23.5445C316.621 -23.4082 315.688 -6.94462 313.994 0.975489C303.32 50.8485 250.715 29.1323 253.076 3.5809Z" fill="#A29669"/>
</g>
</g>
<defs>
<filter id="filter0_f" x="64.6396" y="287" width="233" height="353" filterUnits="userSpaceOnUse" color-interpolation-filters="sRGB">
<feFlood flood-opacity="0" result="BackgroundImageFix"/>
<feBlend mode="normal" in="SourceGraphic" in2="BackgroundImageFix" result="shape"/>
<feGaussianBlur stdDeviation="12" result="effect1_foregroundBlur"/>
</filter>
<filter id="filter1_f" x="-62.3604" y="-11.36" width="533.608" height="534.36" filterUnits="userSpaceOnUse" color-interpolation-filters="sRGB">
<feFlood flood-opacity="0" result="BackgroundImageFix"/>
<feBlend mode="normal" in="SourceGraphic" in2="BackgroundImageFix" result="shape"/>
<feGaussianBlur stdDeviation="12" result="effect1_foregroundBlur"/>
</filter>
<filter id="filter2_f" x="115.64" y="383" width="163" height="183" filterUnits="userSpaceOnUse" color-interpolation-filters="sRGB">
<feFlood flood-opacity="0" result="BackgroundImageFix"/>
<feBlend mode="normal" in="SourceGraphic" in2="BackgroundImageFix" result="shape"/>
<feGaussianBlur stdDeviation="12" result="effect1_foregroundBlur"/>
</filter>
<filter id="filter3_f" x="64.6396" y="187" width="163" height="183" filterUnits="userSpaceOnUse" color-interpolation-filters="sRGB">
<feFlood flood-opacity="0" result="BackgroundImageFix"/>
<feBlend mode="normal" in="SourceGraphic" in2="BackgroundImageFix" result="shape"/>
<feGaussianBlur stdDeviation="12" result="effect1_foregroundBlur"/>
</filter>
<filter id="filter4_f" x="183.64" y="47" width="129" height="143" filterUnits="userSpaceOnUse" color-interpolation-filters="sRGB">
<feFlood flood-opacity="0" result="BackgroundImageFix"/>
<feBlend mode="normal" in="SourceGraphic" in2="BackgroundImageFix" result="shape"/>
<feGaussianBlur stdDeviation="12" result="effect1_foregroundBlur"/>
</filter>
<filter id="filter5_f" x="85.2473" y="-119.36" width="233" height="353" filterUnits="userSpaceOnUse" color-interpolation-filters="sRGB">
<feFlood flood-opacity="0" result="BackgroundImageFix"/>
<feBlend mode="normal" in="SourceGraphic" in2="BackgroundImageFix" result="shape"/>
<feGaussianBlur stdDeviation="12" result="effect1_foregroundBlur"/>
</filter>
<filter id="filter6_f" x="-112.361" y="-48.36" width="533.608" height="534.36" filterUnits="userSpaceOnUse" color-interpolation-filters="sRGB">
<feFlood flood-opacity="0" result="BackgroundImageFix"/>
<feBlend mode="normal" in="SourceGraphic" in2="BackgroundImageFix" result="shape"/>
<feGaussianBlur stdDeviation="12" result="effect1_foregroundBlur"/>
</filter>
<filter id="filter7_f" x="104.247" y="-45.3599" width="163" height="183" filterUnits="userSpaceOnUse" color-interpolation-filters="sRGB">
<feFlood flood-opacity="0" result="BackgroundImageFix"/>
<feBlend mode="normal" in="SourceGraphic" in2="BackgroundImageFix" result="shape"/>
<feGaussianBlur stdDeviation="12" result="effect1_foregroundBlur"/>
</filter>
<filter id="filter8_f" x="155.247" y="150.64" width="163" height="183" filterUnits="userSpaceOnUse" color-interpolation-filters="sRGB">
<feFlood flood-opacity="0" result="BackgroundImageFix"/>
<feBlend mode="normal" in="SourceGraphic" in2="BackgroundImageFix" result="shape"/>
<feGaussianBlur stdDeviation="12" result="effect1_foregroundBlur"/>
</filter>
<filter id="filter9_f" x="70.2473" y="330.64" width="129" height="143" filterUnits="userSpaceOnUse" color-interpolation-filters="sRGB">
<feFlood flood-opacity="0" result="BackgroundImageFix"/>
<feBlend mode="normal" in="SourceGraphic" in2="BackgroundImageFix" result="shape"/>
<feGaussianBlur stdDeviation="12" result="effect1_foregroundBlur"/>
</filter>
<filter id="filter10_f" x="330" y="537" width="353" height="233" filterUnits="userSpaceOnUse" color-interpolation-filters="sRGB">
<feFlood flood-opacity="0" result="BackgroundImageFix"/>
<feBlend mode="normal" in="SourceGraphic" in2="BackgroundImageFix" result="shape"/>
<feGaussianBlur stdDeviation="12" result="effect1_foregroundBlur"/>
</filter>
<filter id="filter11_f" x="31.6399" y="363.392" width="534.36" height="533.608" filterUnits="userSpaceOnUse" color-interpolation-filters="sRGB">
<feFlood flood-opacity="0" result="BackgroundImageFix"/>
<feBlend mode="normal" in="SourceGraphic" in2="BackgroundImageFix" result="shape"/>
<feGaussianBlur stdDeviation="12" result="effect1_foregroundBlur"/>
</filter>
<filter id="filter12_f" x="426" y="556" width="183" height="163" filterUnits="userSpaceOnUse" color-interpolation-filters="sRGB">
<feFlood flood-opacity="0" result="BackgroundImageFix"/>
<feBlend mode="normal" in="SourceGraphic" in2="BackgroundImageFix" result="shape"/>
<feGaussianBlur stdDeviation="12" result="effect1_foregroundBlur"/>
</filter>
<filter id="filter13_f" x="230" y="607" width="183" height="163" filterUnits="userSpaceOnUse" color-interpolation-filters="sRGB">
<feFlood flood-opacity="0" result="BackgroundImageFix"/>
<feBlend mode="normal" in="SourceGraphic" in2="BackgroundImageFix" result="shape"/>
<feGaussianBlur stdDeviation="12" result="effect1_foregroundBlur"/>
</filter>
<filter id="filter14_f" x="90" y="522" width="143" height="129" filterUnits="userSpaceOnUse" color-interpolation-filters="sRGB">
<feFlood flood-opacity="0" result="BackgroundImageFix"/>
<feBlend mode="normal" in="SourceGraphic" in2="BackgroundImageFix" result="shape"/>
<feGaussianBlur stdDeviation="12" result="effect1_foregroundBlur"/>
</filter>
<filter id="filter15_f" x="279.639" y="-139" width="353" height="233" filterUnits="userSpaceOnUse" color-interpolation-filters="sRGB">
<feFlood flood-opacity="0" result="BackgroundImageFix"/>
<feBlend mode="normal" in="SourceGraphic" in2="BackgroundImageFix" result="shape"/>
<feGaussianBlur stdDeviation="12" result="effect1_foregroundBlur"/>
</filter>
<filter id="filter16_f" x="36.6392" y="-267.608" width="534.36" height="533.608" filterUnits="userSpaceOnUse" color-interpolation-filters="sRGB">
<feFlood flood-opacity="0" result="BackgroundImageFix"/>
<feBlend mode="normal" in="SourceGraphic" in2="BackgroundImageFix" result="shape"/>
<feGaussianBlur stdDeviation="12" result="effect1_foregroundBlur"/>
</filter>
<filter id="filter17_f" x="141.639" y="-267.608" width="534.36" height="533.608" filterUnits="userSpaceOnUse" color-interpolation-filters="sRGB">
<feFlood flood-opacity="0" result="BackgroundImageFix"/>
<feBlend mode="normal" in="SourceGraphic" in2="BackgroundImageFix" result="shape"/>
<feGaussianBlur stdDeviation="12" result="effect1_foregroundBlur"/>
</filter>
<filter id="filter18_f" x="424.999" y="-120" width="183" height="163" filterUnits="userSpaceOnUse" color-interpolation-filters="sRGB">
<feFlood flood-opacity="0" result="BackgroundImageFix"/>
<feBlend mode="normal" in="SourceGraphic" in2="BackgroundImageFix" result="shape"/>
<feGaussianBlur stdDeviation="12" result="effect1_foregroundBlur"/>
</filter>
<filter id="filter19_f" x="228.999" y="-68.9996" width="183" height="163" filterUnits="userSpaceOnUse" color-interpolation-filters="sRGB">
<feFlood flood-opacity="0" result="BackgroundImageFix"/>
<feBlend mode="normal" in="SourceGraphic" in2="BackgroundImageFix" result="shape"/>
<feGaussianBlur stdDeviation="12" result="effect1_foregroundBlur"/>
</filter>
<clipPath id="clip0">
<rect x="681" y="720" width="681" height="720" transform="rotate(180 681 720)" fill="white"/>
</clipPath>
</defs>
</svg>
