<svg width="1214" height="600" viewBox="0 0 1214 600" fill="none" xmlns="http://www.w3.org/2000/svg">
<g clip-path="url(#clip0)">
<g filter="url(#filter0_f)">
<path d="M976.271 130.121C985.942 109.956 969.456 126.572 984.74 98.9925L988.536 89.2114C996.726 63.6057 968.698 55.9175 950.463 58.4601C918.135 62.9726 897.599 103.715 867.342 128.004C843.69 146.985 815.225 142.575 816.817 157.72C820.895 196.47 823.761 183.83 806.804 222.147C796.476 245.488 832.475 307.454 864.246 266.138C895.892 224.984 897.732 252.885 939.678 237.217C980.551 221.957 968.095 209.192 964.083 184.385C963.091 178.249 973.721 135.438 976.271 130.121Z" fill="#FFF7E1"/>
<path d="M905.38 185.942C883.015 182.846 906.316 167.277 899.483 151.495C895.638 145.73 890.61 144.006 884.001 142.431C874.096 140.067 855.075 140.395 858.817 126.49C864.677 107.075 875.938 109.192 892.335 103.762L894.473 102.994C906.619 98.6228 915.682 88.352 929.154 89.6809C943.053 91.0528 941.073 97.9743 940.262 107.979C937.822 138.004 974.235 129.446 966.339 150.967C957.539 174.95 930.099 188.821 905.38 185.942Z" fill="#FFF7E1"/>
<path d="M908.315 266.956C898.727 302.988 883.305 314.272 844.765 316.96C809.673 319.41 923.266 207.48 908.315 266.956Z" fill="#FFF7E1"/>
<path d="M977.462 18.942C961.759 -11.8212 913.918 70.9381 958.41 48.9215C968.126 44.1145 980.771 30.662 977.462 18.942Z" fill="#FFF7E1"/>
</g>
<g filter="url(#filter1_f)">
<path d="M936.945 85.1035C926.555 76.8492 915.992 70.2393 911.034 72.9608C901.741 78.0645 905.12 78.9301 890.796 84.4012C860.502 95.9748 887.129 107.42 866.273 138.259C853.149 157.658 919.329 155.496 927.773 156.243C931.852 156.603 935.415 156.895 938.632 157.12C935.756 158.41 932.806 159.595 931.003 162.312C930.26 167.42 932.329 172.437 932.066 177.528C933.316 182.374 937.618 185.397 940.452 189.262C943.919 192.186 941.077 197.232 942.823 200.971C944.566 208.923 949.595 215.632 955.115 221.408C957.308 225.197 961.755 230.271 966.263 226.451C970.554 223.445 975.772 226.535 980.084 224.106C983.37 222.359 986.42 219.838 990.224 219.334L990.225 219.325C991.843 216.078 996.86 213.11 994.526 209.041C992.853 206.003 995.586 202.425 996.638 199.472C997.992 196.481 999.504 191.612 995.862 189.634C992.013 188.941 986.017 186.577 989.899 181.918C992.489 178.557 990.815 173.741 986.952 172.28C983.41 169.925 982.146 165.502 980.441 161.817C979.999 160.005 979.554 157.732 978.671 155.86C979.977 155.719 981.339 155.57 982.764 155.412C1007.51 152.676 984.274 139.735 983.236 137.559C977.077 124.66 984.86 126.509 969.151 113.186C987.047 118.515 997.379 136.858 1012.37 142.265C1011.61 144.411 1010.79 146.711 1009.91 149.191C993.795 194.317 1002.53 182.361 1048.52 184.534C1089.39 186.465 1074.17 173.004 1104.29 142.603C1130.66 115.986 1129.6 138.009 1145.1 117.704C1153.81 106.291 1154.73 97.5924 1145.91 86.5389C1136.74 74.3502 1135.86 77.8096 1118 79.202C1117.97 77.295 1117.55 75.5501 1116.72 74.1237C1103.48 51.5889 1068.78 53.5827 1046.05 53.3896C1001.47 53.0111 1011.75 37.1696 999.128 32.714C995.25 31.3452 984.754 56.9923 962.203 59.3546C933.209 62.392 951.231 63.7266 938.809 81.9693C938.096 83.016 937.476 84.0624 936.945 85.1035Z" fill="#FFF7E1"/>
<path d="M880.765 167.406C880.061 162.581 878.468 158.003 883.768 157.119L883.828 157.126C885.732 157.369 887.615 157.609 889.392 158.465C892.109 159.772 891.682 165.432 891.312 166.209C890.248 168.444 881.055 169.393 880.765 167.406Z" fill="#FFF7E1"/>
<path d="M903.596 177.292C901.089 179.771 899.505 185.498 896.671 188.607C895.136 190.045 896.04 188.647 897.116 191.526C897.999 193.892 897.838 197.01 897.348 199.476C897.121 200.636 897.175 200.051 898.008 201.362C899.989 204.479 906.579 214.407 907.136 217.36C908.018 222.034 905.53 221.062 906.204 223.52C906.896 226.03 908.145 222.64 912.123 225.44C914.233 226.929 911.924 225.764 915.08 226.541C916.069 226.784 918.189 227.388 920.353 227.977C920.191 228.305 920.073 228.562 920.011 228.721C918.674 232.137 925.786 231.197 927.497 230.71C928.737 230.062 929.563 229.453 930.034 228.803C937.275 227.65 935.348 227.834 941.323 220.195C942.932 217.844 940.259 212.305 938.894 210.327C932.07 200.471 931.306 200.381 927.099 188.692C921.205 172.3 925.051 179.462 911.946 176.746C908.392 176.008 907.025 176.005 903.596 177.292Z" fill="#FFF7E1"/>
<path d="M871.517 205.261C873.553 208.811 869.178 211.399 867.766 214.232L867.765 214.24C864.446 214.679 861.785 216.878 858.919 218.402C855.158 220.522 850.606 217.826 846.864 220.448C842.93 223.781 839.051 219.354 837.139 216.048C832.551 211.188 830.723 208.218 827.332 202.581C824.051 197.127 824.351 197.258 822.956 191.31C821.683 185.882 818.463 182.33 817.032 177.772C817.262 173.33 815.457 168.954 816.105 164.499C818.416 161.017 822.883 160.419 826.136 158.18C829.154 155.2 833.703 154.854 837.691 155.472C842.599 156.562 847.739 156.938 852.675 155.802C860.92 155.49 855.969 166.304 865.068 170.697C867.997 172.11 871.913 174.29 871.98 178.044C872.141 187.241 879.397 185.802 874.39 195.922C872.714 199.126 870.172 201.72 871.517 205.261Z" fill="#FFF7E1"/>
<path d="M1054.1 37.186C1054.38 47.5874 1073.17 31.7337 1060.19 31.0246C1055.97 30.7944 1054.87 33.7178 1054.1 37.186Z" fill="#FFF7E1"/>
<path d="M1137.69 200.973C1142.52 213.176 1113.35 223.841 1106.66 210.438C1106.96 203.815 1108.45 181.934 1115.11 178.655C1126.08 173.258 1134.73 193.503 1137.69 200.973Z" fill="#FFF7E1"/>
</g>
<g filter="url(#filter2_f)">
<path d="M931.809 117.148C938.278 118.297 936.957 126.348 938.991 130.999L939 131.009C936.122 135.545 936.089 141.083 935.013 146.177C933.747 152.989 925.739 155.814 925.111 163.119C925.163 171.389 915.717 171.606 909.675 170.556C898.51 171.295 886.783 170.669 876.674 165.399C871.088 163.915 868.223 156.333 861.965 157.429C855.267 157.001 848.153 158.904 841.824 155.894C836.591 151.039 829.343 148.755 824.524 143.371C822.617 136.944 826.483 130.83 827.077 124.525C826.515 117.742 830.777 111.788 835.647 107.517C842.047 102.601 847.803 96.6617 851.489 89.4176C855.769 82.8392 863.292 87.3367 868.421 89.8607C873.913 91.3397 879.799 93.9539 885.513 92.2671C890.553 89.4325 897.232 91.961 898.514 97.7593C900.031 106.109 907.958 101.797 912.162 98.2869C917.56 96.1536 921.432 102.149 923.427 106.288C925.654 110.07 927.041 116.216 931.809 117.148Z" fill="#FFF7E1"/>
<path d="M872.581 220.923C867.363 220.442 846.148 200.04 844.691 196.536C842.819 187.257 845.331 179.581 845.455 169.03C845.591 157.379 862.055 158.311 869.975 160.005C919.848 170.679 898.132 223.284 872.581 220.923Z" fill="#FFF7E1"/>
</g>
<g filter="url(#filter3_f)">
<path d="M1164.81 106.148C1171.28 107.297 1169.96 115.348 1171.99 119.999L1172 120.009C1169.12 124.545 1169.09 130.083 1168.01 135.177C1166.75 141.989 1158.74 144.814 1158.11 152.119C1158.16 160.389 1148.72 160.606 1142.68 159.556C1131.51 160.295 1119.78 159.669 1109.67 154.399C1104.09 152.915 1101.22 145.333 1094.97 146.429C1088.27 146.001 1081.15 147.904 1074.82 144.894C1069.59 140.039 1062.34 137.755 1057.52 132.371C1055.62 125.944 1059.48 119.83 1060.08 113.525C1059.52 106.742 1063.78 100.788 1068.65 96.5171C1075.05 91.6005 1080.8 85.6617 1084.49 78.4176C1088.77 71.8392 1096.29 76.3367 1101.42 78.8607C1106.91 80.3397 1112.8 82.9539 1118.51 81.2671C1123.55 78.4325 1130.23 80.961 1131.51 86.7593C1133.03 95.109 1140.96 90.7965 1145.16 87.2869C1150.56 85.1536 1154.43 91.1494 1156.43 95.2883C1158.65 99.0697 1160.04 105.216 1164.81 106.148Z" fill="#FFF7E1"/>
<path d="M1105.58 209.923C1100.36 209.442 1079.15 189.04 1077.69 185.536C1075.82 176.257 1078.33 168.581 1078.46 158.03C1078.59 146.379 1095.06 147.311 1102.98 149.005C1152.85 159.679 1131.13 212.284 1105.58 209.923Z" fill="#FFF7E1"/>
</g>
<g filter="url(#filter4_f)">
<path d="M917.935 127.919C922.492 128.728 921.562 134.393 922.994 137.666L923 137.673C920.973 140.865 920.95 144.762 920.192 148.347C919.301 153.14 913.66 155.129 913.218 160.269C913.255 166.088 906.601 166.241 902.346 165.503C894.481 166.023 886.222 165.582 879.101 161.873C875.167 160.829 873.149 155.494 868.741 156.265C864.024 155.964 859.013 157.303 854.555 155.185C850.869 151.768 845.764 150.161 842.369 146.373C841.027 141.849 843.749 137.547 844.168 133.11C843.772 128.337 846.774 124.147 850.204 121.142C854.712 117.682 858.766 113.503 861.362 108.405C864.377 103.776 869.676 106.941 873.288 108.717C877.156 109.758 881.303 111.597 885.327 110.41C888.877 108.415 893.581 110.195 894.485 114.275C895.553 120.151 901.136 117.116 904.097 114.646C907.899 113.145 910.626 117.364 912.032 120.277C913.6 122.938 914.577 127.263 917.935 127.919Z" fill="#FFF7E1"/>
<path d="M876.218 200.946C872.543 200.607 857.6 186.25 856.574 183.785C855.256 177.255 857.025 171.853 857.112 164.428C857.208 156.229 868.804 156.885 874.383 158.078C909.511 165.589 894.215 202.607 876.218 200.946Z" fill="#FFF7E1"/>
</g>
<g filter="url(#filter5_f)">
<path d="M906.482 405.879C896.811 426.044 913.297 409.428 898.013 437.007L894.217 446.789C886.027 472.394 914.055 480.082 932.29 477.54C964.618 473.027 985.154 432.285 1015.41 407.996C1039.06 389.015 1067.53 393.425 1065.94 378.28C1061.86 339.53 1058.99 352.17 1075.95 313.853C1086.28 290.512 1050.28 228.546 1018.51 269.862C986.861 311.016 985.021 283.115 943.075 298.783C902.201 314.043 914.658 326.808 918.67 351.615C919.662 357.751 909.032 400.562 906.482 405.879Z" fill="#FFF7E1"/>
<path d="M977.373 350.058C999.738 353.154 976.437 368.723 983.27 384.505C987.115 390.27 992.143 391.994 998.752 393.569C1008.66 395.933 1027.68 395.605 1023.94 409.51C1018.08 428.925 1006.81 426.808 990.418 432.238L988.28 433.006C976.134 437.377 967.071 447.648 953.599 446.319C939.7 444.947 941.68 438.026 942.491 428.021C944.931 397.996 908.518 406.554 916.414 385.033C925.214 361.05 952.654 347.179 977.373 350.058Z" fill="#FFF7E1"/>
<path d="M974.438 269.044C984.026 233.012 999.448 221.728 1037.99 219.04C1073.08 216.59 959.487 328.52 974.438 269.044Z" fill="#FFF7E1"/>
<path d="M905.291 517.058C920.994 547.821 968.835 465.062 924.343 487.079C914.627 491.885 901.982 505.338 905.291 517.058Z" fill="#FFF7E1"/>
</g>
<g filter="url(#filter6_f)">
<path d="M1024.08 560.399C1014 565.932 980.756 532.897 972.891 525.885L968.89 522.609C949.322 506.592 958.389 509.436 951.879 495.801C950.841 493.625 927.601 480.684 952.352 477.948C976.869 475.24 982.653 474.937 1007.34 477.117C1015.79 477.865 1081.97 475.702 1068.84 495.101C1047.99 525.94 1074.61 537.385 1044.32 548.959C1030 554.43 1033.37 555.296 1024.08 560.399Z" fill="#FFF7E1"/>
<path d="M897.112 384.158C879.252 385.551 878.375 389.01 869.204 376.821C860.39 365.768 861.304 357.069 870.016 345.657C885.515 325.351 884.454 347.374 910.824 320.757C940.944 290.356 925.725 276.895 966.593 278.826C1012.59 280.999 1021.32 269.043 1005.21 314.169C1004.32 316.65 1003.51 318.95 1002.74 321.095C1020.89 327.638 1032.2 353.122 1058.36 351.569C1077.08 350.457 1086.86 365.895 1076.31 381.391C1063.88 399.634 1081.91 400.968 1052.91 404.006C1030.36 406.368 1019.87 432.015 1015.99 430.646C1003.36 426.191 1013.64 410.349 969.061 409.971C946.335 409.777 911.64 411.771 898.4 389.236C897.562 387.81 897.148 386.065 897.112 384.158Z" fill="#FFF7E1"/>
<path d="M1020.59 254.319C1018.26 250.25 1023.27 247.282 1024.89 244.035L1024.89 244.026C1028.7 243.522 1031.75 241.001 1035.03 239.255C1039.34 236.825 1044.56 239.915 1048.85 236.91C1053.36 233.089 1057.81 238.163 1060 241.952C1065.52 247.728 1070.55 254.437 1072.29 262.389C1074.04 266.129 1071.2 271.174 1074.66 274.098C1077.5 277.963 1081.8 280.986 1083.05 285.832C1082.79 290.924 1084.86 295.94 1084.11 301.048C1081.46 305.039 1076.34 305.725 1072.61 308.291C1069.15 311.708 1063.94 312.104 1059.37 311.395C1053.74 310.145 1047.85 309.716 1042.19 311.019C1036.62 311.691 1035.64 305.509 1034.67 301.543C1032.97 297.858 1031.71 293.435 1028.16 291.08C1024.3 289.619 1022.63 284.803 1025.22 281.442C1029.1 276.783 1023.1 274.419 1019.25 273.726C1015.61 271.748 1017.12 266.879 1018.48 263.888C1019.53 260.935 1022.26 257.357 1020.59 254.319Z" fill="#FFF7E1"/>
<path d="M1054.35 195.954C1055.05 200.78 1056.65 205.357 1051.35 206.242L1051.29 206.234C1049.38 205.991 1047.5 205.751 1045.72 204.895C1043.01 203.588 1043.43 197.929 1043.8 197.151C1044.87 194.916 1054.06 193.967 1054.35 195.954Z" fill="#FFF7E1"/>
<path d="M1038.44 174.753C1035.61 177.862 1034.03 183.589 1031.52 186.068C1028.09 187.356 1026.72 187.353 1023.17 186.614C1010.06 183.898 1013.91 191.06 1008.02 174.668C1003.81 162.979 1003.04 162.89 996.221 153.033C994.857 151.056 992.183 145.516 993.792 143.165C1000.6 134.468 997.153 135.912 1008.67 133.977C1010.23 134.011 1017.86 136.285 1020.03 136.819C1023.19 137.596 1020.88 136.431 1022.99 137.92C1026.97 140.72 1028.22 137.33 1028.91 139.84C1029.59 142.298 1027.1 141.326 1027.98 146C1028.54 148.953 1035.13 158.881 1037.11 161.998C1037.94 163.309 1037.99 162.724 1037.77 163.884C1037.28 166.351 1037.12 169.468 1038 171.834C1039.07 174.713 1039.98 173.315 1038.44 174.753Z" fill="#FFF7E1"/>
<path d="M1063.6 158.099C1061.56 154.549 1065.94 151.961 1067.35 149.129L1067.35 149.121C1070.67 148.681 1073.33 146.482 1076.2 144.958C1079.96 142.838 1084.51 145.534 1088.25 142.912C1092.19 139.58 1096.06 144.006 1097.98 147.312C1102.56 152.172 1104.39 155.142 1107.78 160.78C1111.06 166.233 1110.76 166.102 1112.16 172.05C1113.43 177.478 1116.65 181.03 1118.08 185.588C1117.85 190.03 1119.66 194.406 1119.01 198.861C1116.7 202.343 1112.23 202.941 1108.98 205.18C1105.96 208.161 1101.41 208.506 1097.42 207.888C1092.52 206.798 1087.38 206.423 1082.44 207.558C1074.19 207.871 1079.15 197.056 1070.05 192.664C1067.12 191.25 1063.2 189.07 1063.14 185.316C1062.97 176.119 1055.72 177.558 1060.73 167.438C1062.4 164.234 1064.94 161.64 1063.6 158.099Z" fill="#FFF7E1"/>
<path d="M1095.1 234.639C1096.44 231.223 1089.33 232.164 1087.62 232.65C1083.99 234.546 1083.9 236.117 1085.9 239.332C1086.46 240.241 1087.29 242.079 1087.7 242.662C1089.57 245.334 1094.55 236.063 1095.1 234.639Z" fill="#FFF7E1"/>
<path d="M961.017 426.174C960.738 415.773 941.948 431.626 954.93 432.336C959.149 432.566 960.245 429.642 961.017 426.174Z" fill="#FFF7E1"/>
<path d="M877.427 262.387C872.592 250.184 901.765 239.519 908.454 252.922C908.157 259.545 906.669 281.426 900.005 284.705C889.04 290.102 880.388 269.857 877.427 262.387Z" fill="#FFF7E1"/>
</g>
<g filter="url(#filter7_f)">
<path d="M950.944 544.212C944.475 543.063 945.796 535.012 943.762 530.361L943.753 530.352C946.631 525.815 946.664 520.277 947.74 515.183C949.006 508.371 957.014 505.546 957.642 498.241C957.59 489.971 967.036 489.754 973.077 490.804C984.243 490.065 995.969 490.691 1006.08 495.961C1011.66 497.445 1014.53 505.027 1020.79 503.931C1027.49 504.359 1034.6 502.456 1040.93 505.466C1046.16 510.321 1053.41 512.605 1058.23 517.989C1060.14 524.416 1056.27 530.53 1055.68 536.835C1056.24 543.618 1051.98 549.572 1047.11 553.843C1040.71 558.76 1034.95 564.698 1031.26 571.943C1026.98 578.521 1019.46 574.023 1014.33 571.499C1008.84 570.02 1002.95 567.406 997.24 569.093C992.2 571.928 985.521 569.399 984.238 563.601C982.722 555.251 974.795 559.564 970.591 563.073C965.193 565.207 961.321 559.211 959.326 555.072C957.099 551.29 955.712 545.144 950.944 544.212Z" fill="#FFF7E1"/>
<path d="M1010.17 440.437C1015.39 440.918 1036.61 461.32 1038.06 464.824C1039.93 474.103 1037.42 481.779 1037.3 492.33C1037.16 503.981 1020.7 503.049 1012.78 501.355C962.905 490.681 984.621 438.076 1010.17 440.437Z" fill="#FFF7E1"/>
</g>
<g filter="url(#filter8_f)">
<path d="M899.944 348.212C893.475 347.063 894.796 339.012 892.762 334.361L892.753 334.352C895.631 329.815 895.664 324.277 896.74 319.183C898.006 312.371 906.014 309.546 906.642 302.241C906.59 293.971 916.036 293.754 922.077 294.804C933.243 294.065 944.969 294.691 955.079 299.961C960.665 301.445 963.53 309.027 969.787 307.931C976.486 308.359 983.6 306.456 989.928 309.466C995.162 314.321 1002.41 316.605 1007.23 321.989C1009.14 328.416 1005.27 334.53 1004.68 340.835C1005.24 347.618 1000.98 353.572 996.106 357.843C989.706 362.76 983.95 368.698 980.264 375.943C975.984 382.521 968.461 378.023 963.332 375.499C957.84 374.02 951.954 371.406 946.24 373.093C941.2 375.928 934.521 373.399 933.238 367.601C931.722 359.251 923.795 363.564 919.591 367.073C914.193 369.207 910.321 363.211 908.326 359.072C906.099 355.29 904.712 349.144 899.944 348.212Z" fill="#FFF7E1"/>
<path d="M959.172 244.437C964.39 244.918 985.605 265.32 987.062 268.824C988.934 278.103 986.422 285.779 986.298 296.33C986.162 307.981 969.698 307.049 961.778 305.355C911.905 294.681 933.621 242.076 959.172 244.437Z" fill="#FFF7E1"/>
</g>
<g filter="url(#filter9_f)">
<path d="M961.065 219.081C956.509 218.272 957.439 212.607 956.006 209.334L956 209.327C958.027 206.135 958.051 202.238 958.808 198.653C959.7 193.86 965.34 191.871 965.783 186.731C965.746 180.912 972.4 180.759 976.655 181.497C984.519 180.977 992.779 181.418 999.899 185.127C1003.83 186.171 1005.85 191.506 1010.26 190.735C1014.98 191.036 1019.99 189.697 1024.45 191.815C1028.13 195.232 1033.24 196.839 1036.63 200.627C1037.97 205.151 1035.25 209.453 1034.83 213.89C1035.23 218.663 1032.23 222.853 1028.8 225.858C1024.29 229.318 1020.23 233.497 1017.64 238.595C1014.62 243.224 1009.32 240.059 1005.71 238.283C1001.84 237.242 997.698 235.403 993.673 236.59C990.124 238.585 985.419 236.805 984.516 232.725C983.448 226.849 977.864 229.884 974.903 232.354C971.101 233.855 968.374 229.636 966.969 226.723C965.4 224.062 964.423 219.737 961.065 219.081Z" fill="#FFF7E1"/>
<path d="M1002.78 146.054C1006.46 146.393 1021.4 160.75 1022.43 163.215C1023.74 169.745 1021.98 175.147 1021.89 182.572C1021.79 190.771 1010.2 190.115 1004.62 188.922C969.49 181.411 984.785 144.393 1002.78 146.054Z" fill="#FFF7E1"/>
</g>
<g filter="url(#filter10_f)">
<path d="M646.121 232.729C625.956 223.058 642.572 239.544 614.993 224.26L605.211 220.464C579.606 212.274 571.918 240.302 574.46 258.537C578.973 290.865 619.715 311.401 644.004 341.658C662.985 365.31 658.575 393.774 673.72 392.183C712.47 388.105 699.83 385.239 738.147 402.196C761.488 412.524 823.454 376.525 782.138 344.754C740.984 313.108 768.885 311.268 753.217 269.322C737.957 228.449 725.192 240.905 700.385 244.917C694.249 245.909 651.438 235.279 646.121 232.729Z" fill="#FFF7E1"/>
<path d="M701.942 303.62C698.846 325.985 683.277 302.684 667.495 309.517C661.73 313.362 660.006 318.39 658.431 324.999C656.067 334.903 656.395 353.925 642.49 350.183C623.075 344.323 625.192 333.062 619.762 316.665L618.994 314.527C614.623 302.381 604.352 293.318 605.681 279.846C607.053 265.947 613.974 267.927 623.979 268.738C654.004 271.178 645.446 234.765 666.967 242.661C690.95 251.461 704.821 278.901 701.942 303.62Z" fill="#FFF7E1"/>
<path d="M782.956 300.685C818.988 310.273 830.272 325.695 832.96 364.235C835.41 399.327 723.48 285.734 782.956 300.685Z" fill="#FFF7E1"/>
<path d="M534.942 231.538C504.179 247.241 586.938 295.082 564.921 250.59C560.115 240.874 546.662 228.229 534.942 231.538Z" fill="#FFF7E1"/>
</g>
<g filter="url(#filter11_f)">
<path d="M635.961 477.328C630.428 467.247 663.464 434.003 670.476 426.137L673.752 422.137C689.768 402.568 686.924 411.636 700.559 405.126C702.735 404.088 715.677 380.848 718.412 405.598C721.12 430.116 721.423 435.9 719.243 460.589C718.496 469.033 720.658 535.213 701.259 522.089C670.42 501.234 658.975 527.86 647.401 497.566C641.93 483.243 641.065 486.621 635.961 477.328Z" fill="#FFF7E1"/>
<path d="M812.202 350.359C810.81 332.499 807.35 331.622 819.539 322.451C830.593 313.636 839.292 314.551 850.704 323.262C871.009 338.762 848.986 337.701 875.603 364.071C906.004 394.191 919.465 378.972 917.535 419.839C915.361 465.832 927.318 474.567 882.191 458.453C879.711 457.568 877.411 456.755 875.265 455.99C868.722 474.133 843.238 485.449 844.791 511.604C845.903 530.331 830.465 540.105 814.969 529.553C796.727 517.131 795.392 535.153 792.355 506.159C789.992 483.608 764.345 473.112 765.714 469.234C770.17 456.611 786.011 466.891 786.39 422.308C786.583 399.582 784.589 364.886 807.124 351.647C808.55 350.809 810.295 350.395 812.202 350.359Z" fill="#FFF7E1"/>
<path d="M942.041 473.836C946.111 471.502 949.079 476.519 952.325 478.137L952.334 478.138C952.838 481.942 955.359 484.993 957.106 488.278C959.536 492.59 956.446 497.808 959.451 502.099C963.271 506.607 958.197 511.054 954.408 513.247C948.632 518.767 941.924 523.796 933.971 525.539C930.232 527.285 925.186 524.443 922.262 527.91C918.398 530.744 915.374 535.046 910.529 536.296C905.437 536.033 900.42 538.102 895.313 537.359C891.321 534.71 890.635 529.588 888.07 525.861C884.652 522.401 884.256 517.185 884.965 512.613C886.215 506.987 886.644 501.095 885.341 495.436C884.669 489.87 890.851 488.888 894.817 487.922C898.503 486.216 902.925 484.952 905.281 481.41C906.741 477.547 911.557 475.873 914.919 478.463C919.577 482.345 921.941 476.35 922.634 472.5C924.612 468.858 929.481 470.37 932.472 471.724C935.425 472.776 939.003 475.509 942.041 473.836Z" fill="#FFF7E1"/>
<path d="M1000.41 507.597C995.581 508.301 991.003 509.894 990.119 504.594L990.126 504.534C990.369 502.63 990.609 500.747 991.465 498.97C992.773 496.253 998.432 496.68 999.209 497.05C1001.44 498.114 1002.39 507.308 1000.41 507.597Z" fill="#FFF7E1"/>
<path d="M1021.61 491.692C1018.5 488.857 1012.77 487.273 1010.29 484.766C1009 481.337 1009.01 479.97 1009.75 476.416C1012.46 463.311 1005.3 467.157 1021.69 461.263C1033.38 457.056 1033.47 456.292 1043.33 449.468C1045.3 448.103 1050.84 445.43 1053.2 447.039C1061.89 453.843 1060.45 450.4 1062.38 461.913C1062.35 463.474 1060.08 471.11 1059.54 473.282C1058.76 476.438 1059.93 474.129 1058.44 476.239C1055.64 480.218 1059.03 481.466 1056.52 482.158C1054.06 482.832 1055.03 480.344 1050.36 481.226C1047.41 481.783 1037.48 488.373 1034.36 490.354C1033.05 491.187 1033.64 491.242 1032.48 491.014C1030.01 490.524 1026.89 490.363 1024.53 491.246C1021.65 492.322 1023.05 493.227 1021.61 491.692Z" fill="#FFF7E1"/>
<path d="M1038.26 516.845C1041.81 514.809 1044.4 519.185 1047.23 520.596L1047.24 520.597C1047.68 523.916 1049.88 526.577 1051.4 529.443C1053.52 533.204 1050.83 537.756 1053.45 541.498C1056.78 545.432 1052.35 549.311 1049.05 551.223C1044.19 555.812 1041.22 557.639 1035.58 561.03C1030.13 564.311 1030.26 564.011 1024.31 565.406C1018.88 566.679 1015.33 569.899 1010.77 571.33C1006.33 571.1 1001.95 572.905 997.499 572.257C994.017 569.946 993.419 565.479 991.18 562.226C988.2 559.208 987.854 554.659 988.472 550.671C989.562 545.763 989.938 540.623 988.802 535.687C988.49 527.442 999.304 532.393 1003.7 523.294C1005.11 520.366 1007.29 516.449 1011.04 516.382C1020.24 516.221 1018.8 508.965 1028.92 513.972C1032.13 515.648 1034.72 518.19 1038.26 516.845Z" fill="#FFF7E1"/>
<path d="M961.722 548.351C965.138 549.688 964.197 542.576 963.71 540.865C961.814 537.236 960.244 537.148 957.028 539.144C956.119 539.709 954.282 540.539 953.698 540.947C951.026 542.813 960.297 547.794 961.722 548.351Z" fill="#FFF7E1"/>
<path d="M770.186 414.264C780.587 413.985 764.734 395.195 764.025 408.176C763.795 412.396 766.718 413.492 770.186 414.264Z" fill="#FFF7E1"/>
<path d="M933.973 330.674C946.176 325.839 956.841 355.012 943.438 361.7C936.815 361.404 914.934 359.916 911.655 353.252C906.258 342.287 926.503 333.635 933.973 330.674Z" fill="#FFF7E1"/>
</g>
<g filter="url(#filter12_f)">
<path d="M595.961 485.328C590.428 475.247 623.464 442.003 630.476 434.137L633.752 430.137C649.768 410.568 646.924 419.636 660.559 413.126C662.735 412.088 675.677 388.848 678.412 413.598C681.12 438.116 681.423 443.9 679.243 468.589C678.496 477.033 680.658 543.213 661.259 530.089C630.42 509.234 618.975 535.86 607.401 505.566C601.93 491.243 601.065 494.621 595.961 485.328Z" fill="#FFF7E1"/>
<path d="M772.202 358.359C770.81 340.499 767.35 339.622 779.539 330.451C790.593 321.636 799.292 322.551 810.704 331.262C831.009 346.762 808.986 345.701 835.603 372.071C866.004 402.191 879.465 386.972 877.535 427.839C875.361 473.832 887.318 482.567 842.191 466.453C839.711 465.568 837.411 464.755 835.265 463.99C828.722 482.133 803.238 493.449 804.791 519.604C805.903 538.331 790.465 548.105 774.969 537.553C756.727 525.131 755.392 543.153 752.355 514.159C749.992 491.608 724.345 481.112 725.714 477.234C730.17 464.611 746.011 474.891 746.39 430.308C746.583 407.582 744.589 372.886 767.124 359.647C768.55 358.809 770.295 358.395 772.202 358.359Z" fill="#FFF7E1"/>
<path d="M902.041 481.836C906.111 479.502 909.079 484.519 912.325 486.137L912.334 486.138C912.838 489.942 915.359 492.993 917.106 496.278C919.536 500.59 916.446 505.808 919.451 510.099C923.271 514.607 918.197 519.054 914.408 521.247C908.632 526.767 901.924 531.796 893.971 533.539C890.232 535.285 885.186 532.443 882.262 535.91C878.398 538.744 875.374 543.046 870.529 544.296C865.437 544.033 860.42 546.102 855.313 545.359C851.321 542.71 850.635 537.588 848.07 533.861C844.652 530.401 844.256 525.185 844.965 520.613C846.215 514.987 846.644 509.095 845.341 503.436C844.669 497.87 850.851 496.888 854.817 495.922C858.503 494.216 862.925 492.952 865.281 489.41C866.741 485.547 871.557 483.873 874.919 486.463C879.577 490.345 881.941 484.35 882.634 480.5C884.612 476.858 889.481 478.37 892.472 479.724C895.425 480.776 899.003 483.509 902.041 481.836Z" fill="#FFF7E1"/>
<path d="M960.406 515.597C955.581 516.301 951.003 517.894 950.119 512.594L950.126 512.534C950.369 510.63 950.609 508.747 951.465 506.97C952.773 504.253 958.432 504.68 959.209 505.05C961.444 506.114 962.393 515.308 960.406 515.597Z" fill="#FFF7E1"/>
<path d="M981.608 499.692C978.498 496.857 972.771 495.273 970.292 492.766C969.005 489.337 969.008 487.97 969.746 484.416C972.462 471.311 965.3 475.157 981.692 469.263C993.381 465.056 993.471 464.292 1003.33 457.468C1005.3 456.103 1010.84 453.43 1013.2 455.039C1021.89 461.843 1020.45 458.4 1022.38 469.913C1022.35 471.474 1020.08 479.11 1019.54 481.282C1018.76 484.438 1019.93 482.129 1018.44 484.239C1015.64 488.218 1019.03 489.466 1016.52 490.158C1014.06 490.832 1015.03 488.344 1010.36 489.226C1007.41 489.783 997.48 496.373 994.362 498.354C993.051 499.187 993.636 499.242 992.476 499.014C990.01 498.524 986.892 498.363 984.526 499.246C981.647 500.322 983.045 501.227 981.608 499.692Z" fill="#FFF7E1"/>
<path d="M998.261 524.845C1001.81 522.809 1004.4 527.185 1007.23 528.596L1007.24 528.597C1007.68 531.916 1009.88 534.577 1011.4 537.443C1013.52 541.204 1010.83 545.756 1013.45 549.498C1016.78 553.432 1012.35 557.311 1009.05 559.223C1004.19 563.812 1001.22 565.639 995.581 569.03C990.127 572.311 990.259 572.011 984.31 573.406C978.882 574.679 975.33 577.899 970.772 579.33C966.33 579.1 961.954 580.905 957.499 580.257C954.017 577.946 953.419 573.479 951.18 570.226C948.2 567.208 947.854 562.659 948.472 558.671C949.562 553.763 949.938 548.623 948.802 543.687C948.49 535.442 959.304 540.393 963.697 531.294C965.11 528.366 967.29 524.449 971.044 524.382C980.241 524.221 978.802 516.965 988.922 521.972C992.126 523.648 994.72 526.19 998.261 524.845Z" fill="#FFF7E1"/>
<path d="M921.722 556.351C925.138 557.688 924.197 550.576 923.71 548.865C921.814 545.236 920.244 545.148 917.028 547.144C916.119 547.709 914.282 548.539 913.698 548.947C911.026 550.813 920.297 555.794 921.722 556.351Z" fill="#FFF7E1"/>
<path d="M730.186 422.264C740.587 421.985 724.734 403.195 724.025 416.176C723.795 420.396 726.718 421.492 730.186 422.264Z" fill="#FFF7E1"/>
<path d="M893.973 338.674C906.176 333.839 916.841 363.012 903.438 369.7C896.815 369.404 874.934 367.916 871.655 361.252C866.258 350.287 886.503 341.635 893.973 338.674Z" fill="#FFF7E1"/>
</g>
<g filter="url(#filter13_f)">
<path d="M749.148 324.191C750.297 317.722 758.348 319.043 762.999 317.009L763.009 317C767.545 319.878 773.083 319.911 778.177 320.987C784.989 322.253 787.814 330.261 795.119 330.889C803.389 330.837 803.606 340.283 802.556 346.325C803.295 357.49 802.669 369.217 797.399 379.326C795.915 384.912 788.333 387.777 789.429 394.035C789.001 400.733 790.904 407.847 787.894 414.176C783.039 419.409 780.755 426.657 775.371 431.476C768.944 433.383 762.83 429.517 756.525 428.923C749.742 429.485 743.789 425.223 739.517 420.353C734.601 413.953 728.662 408.197 721.418 404.511C714.839 400.231 719.337 392.708 721.861 387.579C723.34 382.087 725.954 376.201 724.267 370.487C721.432 365.447 723.961 358.768 729.759 357.486C738.109 355.969 733.797 348.042 730.287 343.838C728.154 338.44 734.149 334.568 738.288 332.573C742.07 330.346 748.216 328.959 749.148 324.191Z" fill="#FFF7E1"/>
<path d="M852.923 383.419C852.442 388.637 832.04 409.852 828.536 411.309C819.257 413.181 811.581 410.669 801.03 410.545C789.379 410.409 790.311 393.945 792.005 386.025C802.679 336.152 855.284 357.868 852.923 383.419Z" fill="#FFF7E1"/>
</g>
<g filter="url(#filter14_f)">
<path d="M819.148 219.191C820.297 212.722 828.348 214.043 832.999 212.009L833.009 212C837.545 214.878 843.083 214.911 848.177 215.987C854.989 217.253 857.814 225.261 865.119 225.889C873.389 225.837 873.606 235.283 872.556 241.325C873.295 252.49 872.669 264.217 867.399 274.326C865.915 279.912 858.333 282.777 859.429 289.035C859.001 295.733 860.904 302.847 857.894 309.176C853.039 314.409 850.755 321.657 845.371 326.476C838.944 328.383 832.83 324.517 826.525 323.923C819.742 324.485 813.789 320.223 809.517 315.353C804.601 308.953 798.662 303.197 791.418 299.511C784.839 295.231 789.337 287.708 791.861 282.579C793.34 277.087 795.954 271.201 794.267 265.487C791.432 260.447 793.961 253.768 799.759 252.486C808.109 250.969 803.797 243.042 800.287 238.838C798.154 233.44 804.149 229.568 808.288 227.573C812.07 225.346 818.216 223.959 819.148 219.191Z" fill="#FFF7E1"/>
<path d="M922.923 278.419C922.442 283.637 902.04 304.852 898.536 306.309C889.257 308.181 881.581 305.669 871.03 305.545C859.379 305.409 860.311 288.945 862.005 281.025C872.679 231.152 925.284 252.868 922.923 278.419Z" fill="#FFF7E1"/>
</g>
<g filter="url(#filter15_f)">
<path d="M1078.92 432.065C1079.73 427.509 1085.39 428.439 1088.67 427.006L1088.67 427C1091.86 429.027 1095.76 429.051 1099.35 429.808C1104.14 430.7 1106.13 436.34 1111.27 436.783C1117.09 436.746 1117.24 443.4 1116.5 447.655C1117.02 455.519 1116.58 463.779 1112.87 470.899C1111.83 474.833 1106.49 476.852 1107.27 481.259C1106.96 485.977 1108.3 490.988 1106.18 495.445C1102.77 499.131 1101.16 504.237 1097.37 507.631C1092.85 508.974 1088.55 506.251 1084.11 505.833C1079.34 506.228 1075.15 503.227 1072.14 499.796C1068.68 495.289 1064.5 491.235 1059.4 488.638C1054.78 485.624 1057.94 480.325 1059.72 476.712C1060.76 472.844 1062.6 468.698 1061.41 464.673C1059.42 461.124 1061.19 456.419 1065.28 455.516C1071.15 454.448 1068.12 448.864 1065.65 445.903C1064.15 442.101 1068.36 439.374 1071.28 437.969C1073.94 436.4 1078.26 435.423 1078.92 432.065Z" fill="#FFF7E1"/>
<path d="M1151.95 473.782C1151.61 477.457 1137.25 492.4 1134.78 493.427C1128.25 494.745 1122.85 492.976 1115.43 492.888C1107.23 492.792 1107.89 481.196 1109.08 475.618C1116.59 440.49 1153.61 455.785 1151.95 473.782Z" fill="#FFF7E1"/>
</g>
<g filter="url(#filter16_f)">
<path d="M601.729 463.879C592.058 484.044 608.544 467.428 593.26 495.007L589.464 504.789C581.274 530.394 609.302 538.082 627.537 535.54C659.865 531.027 680.401 490.285 710.658 465.996C734.31 447.015 762.775 451.425 761.183 436.28C757.105 397.53 754.239 410.17 771.196 371.853C781.524 348.512 745.525 286.546 713.754 327.862C682.108 369.016 680.268 341.115 638.322 356.783C597.449 372.043 609.905 384.808 613.917 409.615C614.909 415.751 604.279 458.562 601.729 463.879Z" fill="#FFF7E1"/>
<path d="M672.62 408.058C694.985 411.154 671.684 426.723 678.517 442.505C682.362 448.27 687.39 449.994 694 451.569C703.904 453.933 722.925 453.605 719.183 467.51C713.323 486.925 702.062 484.808 685.665 490.238L683.527 491.006C671.382 495.377 662.318 505.648 648.846 504.319C634.947 502.947 636.927 496.026 637.738 486.021C640.178 455.996 603.765 464.554 611.661 443.033C620.461 419.05 647.901 405.179 672.62 408.058Z" fill="#FFF7E1"/>
<path d="M669.685 327.044C679.273 291.012 694.695 279.728 733.235 277.04C768.327 274.59 654.734 386.52 669.685 327.044Z" fill="#FFF7E1"/>
<path d="M600.538 575.058C616.241 605.821 664.082 523.062 619.59 545.079C609.874 549.885 597.229 563.338 600.538 575.058Z" fill="#FFF7E1"/>
</g>
<g filter="url(#filter17_f)">
<path d="M710.328 512.4C700.247 517.933 667.003 484.897 659.137 477.885L655.137 474.609C635.568 458.593 644.636 461.437 638.126 447.802C637.088 445.626 613.848 432.684 638.598 429.949C663.116 427.241 668.9 426.938 693.589 429.118C702.033 429.865 768.213 427.703 755.089 447.102C734.233 477.941 760.86 489.386 730.566 500.96C716.242 506.431 719.621 507.296 710.328 512.4Z" fill="#FFF7E1"/>
<path d="M583.359 336.159C565.499 337.551 564.622 341.011 555.451 328.822C546.636 317.768 547.551 309.069 556.262 297.657C571.762 277.352 570.701 299.375 597.071 272.758C627.191 242.357 611.972 228.896 652.839 230.826C698.832 233 707.567 221.043 691.453 266.17C690.568 268.65 689.755 270.95 688.99 273.096C707.133 279.639 718.449 305.123 744.604 303.57C763.331 302.458 773.105 317.896 762.553 333.392C750.131 351.634 768.153 352.969 739.159 356.006C716.608 358.369 706.112 384.016 702.234 382.647C689.611 378.191 699.891 362.35 655.308 361.971C632.582 361.778 597.886 363.772 584.646 341.237C583.809 339.811 583.395 338.066 583.359 336.159Z" fill="#FFF7E1"/>
<path d="M706.836 206.32C704.502 202.25 709.519 199.282 711.137 196.036L711.138 196.027C714.942 195.523 717.993 193.002 721.278 191.255C725.59 188.825 730.808 191.915 735.099 188.91C739.607 185.09 744.054 190.164 746.247 193.953C751.767 199.729 756.796 206.437 758.539 214.39C760.285 218.129 757.443 223.175 760.91 226.099C763.744 229.963 768.046 232.987 769.296 237.833C769.033 242.924 771.102 247.941 770.359 253.048C767.71 257.04 762.588 257.726 758.861 260.291C755.401 263.709 750.185 264.105 745.613 263.396C739.987 262.146 734.095 261.717 728.436 263.02C722.87 263.692 721.888 257.51 720.922 253.544C719.216 249.858 717.952 245.436 714.41 243.08C710.547 241.62 708.873 236.804 711.463 233.442C715.345 228.784 709.35 226.42 705.5 225.727C701.858 223.749 703.37 218.88 704.724 215.889C705.776 212.936 708.509 209.358 706.836 206.32Z" fill="#FFF7E1"/>
<path d="M740.597 147.955C741.301 152.78 742.894 157.358 737.594 158.242L737.534 158.235C735.63 157.992 733.747 157.752 731.97 156.896C729.253 155.588 729.68 149.929 730.05 149.152C731.114 146.917 740.308 145.968 740.597 147.955Z" fill="#FFF7E1"/>
<path d="M724.692 126.754C721.857 129.863 720.273 135.59 717.766 138.069C714.337 139.356 712.97 139.353 709.416 138.615C696.311 135.899 700.157 143.061 694.263 126.669C690.056 114.98 689.292 114.89 682.468 105.034C681.103 103.056 678.43 97.5171 680.039 95.1656C686.843 86.4684 683.4 87.9124 694.913 85.9774C696.474 86.0118 704.11 88.2854 706.282 88.8197C709.438 89.5969 707.129 88.4318 709.239 89.9211C713.218 92.7211 714.466 89.3309 715.158 91.8404C715.832 94.2985 713.344 93.3272 714.226 98.001C714.783 100.954 721.373 110.881 723.354 113.999C724.187 115.31 724.242 114.725 724.014 115.885C723.524 118.351 723.363 121.469 724.246 123.835C725.322 126.714 726.227 125.316 724.692 126.754Z" fill="#FFF7E1"/>
<path d="M749.845 110.1C747.809 106.55 752.185 103.962 753.596 101.129L753.597 101.121C756.916 100.682 759.577 98.4826 762.443 96.9585C766.204 94.8386 770.756 97.5345 774.499 94.9126C778.432 91.5804 782.311 96.0067 784.223 99.3126C788.812 104.173 790.639 107.143 794.03 112.78C797.311 118.234 797.011 118.103 798.406 124.051C799.679 129.479 802.899 133.031 804.33 137.589C804.1 142.031 805.905 146.407 805.257 150.862C802.946 154.344 798.479 154.942 795.226 157.181C792.208 160.161 787.659 160.507 783.671 159.889C778.763 158.799 773.623 158.423 768.687 159.559C760.442 159.871 765.393 149.057 756.294 144.664C753.366 143.251 749.449 141.071 749.382 137.317C749.221 128.12 741.965 129.559 746.972 119.439C748.648 116.235 751.19 113.641 749.845 110.1Z" fill="#FFF7E1"/>
<path d="M781.351 186.639C782.688 183.223 775.576 184.164 773.865 184.651C770.236 186.547 770.148 188.117 772.144 191.333C772.709 192.242 773.539 194.079 773.947 194.663C775.813 197.335 780.794 188.064 781.351 186.639Z" fill="#FFF7E1"/>
<path d="M647.264 378.175C646.985 367.774 628.195 383.627 641.176 384.336C645.396 384.566 646.491 381.643 647.264 378.175Z" fill="#FFF7E1"/>
<path d="M563.674 214.388C558.839 202.185 588.012 191.52 594.7 204.923C594.404 211.546 592.916 233.427 586.252 236.706C575.287 242.103 566.635 221.858 563.674 214.388Z" fill="#FFF7E1"/>
</g>
<g filter="url(#filter18_f)">
<path d="M612.191 501.852C605.722 500.703 607.043 492.653 605.009 488.001L605 487.992C607.878 483.456 607.911 477.918 608.987 472.823C610.253 466.012 618.261 463.186 618.889 455.882C618.837 447.612 628.283 447.395 634.325 448.444C645.49 447.705 657.217 448.331 667.326 453.602C672.912 455.086 675.777 462.668 682.035 461.571C688.733 462 695.847 460.097 702.176 463.106C707.409 467.961 714.657 470.245 719.476 475.629C721.383 482.057 717.517 488.17 716.923 494.476C717.485 501.259 713.223 507.212 708.353 511.484C701.953 516.4 696.197 522.339 692.511 529.583C688.231 536.161 680.708 531.664 675.579 529.14C670.087 527.661 664.201 525.047 658.487 526.734C653.447 529.568 646.768 527.04 645.486 521.241C643.969 512.892 636.042 517.204 631.838 520.714C626.44 522.847 622.568 516.851 620.573 512.712C618.346 508.931 616.959 502.784 612.191 501.852Z" fill="#FFF7E1"/>
<path d="M671.42 398.078C676.637 398.559 697.852 418.961 699.309 422.464C701.181 431.744 698.669 439.42 698.545 449.971C698.409 461.622 681.945 460.69 674.025 458.996C624.152 448.322 645.868 395.717 671.42 398.078Z" fill="#FFF7E1"/>
</g>
<g filter="url(#filter19_f)">
<path d="M612.191 382.852C605.722 381.703 607.043 373.653 605.009 369.001L605 368.992C607.878 364.456 607.911 358.918 608.987 353.823C610.253 347.012 618.261 344.186 618.889 336.881C618.837 328.612 628.283 328.395 634.325 329.444C645.49 328.705 657.217 329.331 667.326 334.602C672.912 336.085 675.777 343.668 682.035 342.571C688.733 343 695.847 341.097 702.176 344.106C707.409 348.961 714.657 351.245 719.476 356.629C721.383 363.057 717.517 369.17 716.923 375.476C717.485 382.258 713.223 388.212 708.353 392.483C701.953 397.4 696.197 403.339 692.511 410.583C688.231 417.161 680.708 412.664 675.579 410.14C670.087 408.661 664.201 406.047 658.487 407.733C653.447 410.568 646.768 408.04 645.486 402.241C643.969 393.891 636.042 398.204 631.838 401.714C626.44 403.847 622.568 397.851 620.573 393.712C618.346 389.931 616.959 383.784 612.191 382.852Z" fill="#FFF7E1"/>
<path d="M671.42 279.078C676.637 279.559 697.852 299.961 699.309 303.464C701.181 312.744 698.669 320.42 698.545 330.971C698.409 342.622 681.945 341.69 674.025 339.996C624.152 329.321 645.868 276.717 671.42 279.078Z" fill="#FFF7E1"/>
</g>
<g filter="url(#filter20_f)">
<path d="M556.065 410.081C551.509 409.273 552.439 403.608 551.006 400.334L551 400.328C553.027 397.136 553.051 393.239 553.808 389.653C554.7 384.86 560.34 382.872 560.783 377.731C560.746 371.912 567.4 371.759 571.655 372.498C579.519 371.978 587.779 372.418 594.899 376.127C598.833 377.171 600.852 382.507 605.259 381.735C609.977 382.037 614.988 380.698 619.445 382.816C623.131 386.232 628.237 387.839 631.631 391.628C632.974 396.151 630.251 400.453 629.833 404.89C630.228 409.663 627.227 413.853 623.796 416.859C619.289 420.319 615.235 424.498 612.638 429.596C609.624 434.225 604.325 431.06 600.712 429.284C596.844 428.243 592.698 426.403 588.673 427.59C585.124 429.585 580.419 427.806 579.516 423.725C578.448 417.85 572.864 420.884 569.903 423.354C566.101 424.855 563.374 420.636 561.969 417.724C560.4 415.063 559.423 410.737 556.065 410.081Z" fill="#FFF7E1"/>
<path d="M597.782 337.055C601.457 337.393 616.4 351.75 617.427 354.216C618.745 360.746 616.976 366.147 616.888 373.572C616.792 381.771 605.196 381.115 599.618 379.923C564.49 372.411 579.785 335.393 597.782 337.055Z" fill="#FFF7E1"/>
</g>
<g filter="url(#filter21_f)">
<path d="M646.122 59.7288C625.957 50.0579 642.572 66.5441 614.993 51.2597L605.212 47.4639C579.606 39.2736 571.918 67.3019 574.461 85.5373C578.973 117.865 619.716 138.401 644.005 168.658C662.986 192.31 658.576 220.774 673.721 219.183C712.47 215.105 699.831 212.239 738.148 229.196C761.489 239.523 823.455 203.525 782.138 171.754C740.984 140.107 768.885 138.268 753.218 96.3217C737.958 55.4484 725.192 67.9052 700.386 71.9172C694.25 72.9086 651.438 62.2787 646.122 59.7288Z" fill="#FFF7E1"/>
<path d="M701.943 130.62C698.847 152.985 683.278 129.684 667.496 136.517C661.731 140.362 660.007 145.389 658.431 151.999C656.068 161.903 656.396 180.925 642.49 177.183C623.076 171.323 625.193 160.062 619.763 143.665L618.995 141.527C614.623 129.381 604.353 120.318 605.682 106.846C607.054 92.947 613.975 94.9271 623.98 95.7376C654.004 98.178 645.447 61.7651 666.968 69.661C690.951 78.4605 704.822 105.901 701.943 130.62Z" fill="#FFF7E1"/>
<path d="M782.957 127.685C818.989 137.273 830.273 152.695 832.961 191.235C835.411 226.327 723.481 112.733 782.957 127.685Z" fill="#FFF7E1"/>
<path d="M534.943 58.538C504.179 74.2413 586.939 122.082 564.922 77.5896C560.115 67.8737 546.663 55.2287 534.943 58.538Z" fill="#FFF7E1"/>
</g>
<g filter="url(#filter22_f)">
<path d="M531.961 186.328C526.428 176.247 559.464 143.003 566.476 135.137L569.752 131.137C585.768 111.568 582.924 120.636 596.559 114.126C598.735 113.088 611.677 89.8478 614.412 114.598C617.12 139.116 617.423 144.9 615.243 169.589C614.496 178.033 616.658 244.213 597.259 231.089C566.42 210.234 554.975 236.86 543.401 206.566C537.93 192.243 537.065 195.621 531.961 186.328Z" fill="#FFF7E1"/>
<path d="M708.202 59.3591C706.81 41.4987 703.35 40.6221 715.539 31.4508C726.593 22.6365 735.292 23.5505 746.704 32.2624C767.009 47.7618 744.986 46.7005 771.603 73.0708C802.004 103.191 815.465 87.9723 813.535 128.839C811.361 174.832 823.318 183.567 778.191 167.453C775.711 166.568 773.411 165.755 771.265 164.99C764.722 183.133 739.238 194.449 740.791 220.604C741.903 239.331 726.465 249.105 710.969 238.553C692.727 226.131 691.392 244.153 688.355 215.159C685.992 192.608 660.345 182.112 661.714 178.234C666.17 165.611 682.011 175.891 682.39 131.308C682.583 108.582 680.589 73.8865 703.124 60.6465C704.55 59.8086 706.295 59.3947 708.202 59.3591Z" fill="#FFF7E1"/>
<path d="M838.041 182.836C842.111 180.502 845.079 185.519 848.325 187.137L848.334 187.138C848.838 190.942 851.359 193.993 853.106 197.278C855.536 201.59 852.446 206.808 855.451 211.099C859.271 215.607 854.197 220.054 850.408 222.247C844.632 227.767 837.924 232.796 829.971 234.539C826.232 236.285 821.186 233.443 818.262 236.91C814.398 239.744 811.374 244.046 806.529 245.296C801.437 245.033 796.42 247.102 791.313 246.359C787.321 243.71 786.635 238.588 784.07 234.861C780.652 231.401 780.256 226.185 780.965 221.613C782.215 215.987 782.644 210.095 781.341 204.436C780.669 198.87 786.851 197.888 790.817 196.922C794.503 195.216 798.925 193.952 801.281 190.41C802.741 186.547 807.557 184.873 810.919 187.463C815.577 191.345 817.941 185.35 818.634 181.5C820.612 177.858 825.481 179.37 828.472 180.724C831.425 181.776 835.003 184.509 838.041 182.836Z" fill="#FFF7E1"/>
<path d="M896.406 216.597C891.581 217.301 887.003 218.894 886.119 213.594L886.126 213.534C886.369 211.63 886.609 209.747 887.465 207.97C888.773 205.253 894.432 205.68 895.209 206.05C897.444 207.114 898.393 216.308 896.406 216.597Z" fill="#FFF7E1"/>
<path d="M917.608 200.692C914.498 197.857 908.771 196.273 906.292 193.766C905.005 190.337 905.008 188.97 905.746 185.416C908.462 172.311 901.3 176.157 917.692 170.263C929.381 166.056 929.471 165.292 939.327 158.468C941.305 157.103 946.844 154.43 949.195 156.039C957.893 162.843 956.449 159.4 958.384 170.913C958.349 172.474 956.076 180.11 955.541 182.282C954.764 185.438 955.929 183.129 954.44 185.239C951.64 189.218 955.03 190.466 952.521 191.158C950.062 191.832 951.034 189.344 946.36 190.226C943.407 190.783 933.48 197.373 930.362 199.354C929.051 200.187 929.636 200.241 928.476 200.014C926.01 199.524 922.892 199.363 920.526 200.246C917.647 201.322 919.045 202.227 917.608 200.692Z" fill="#FFF7E1"/>
<path d="M934.261 225.845C937.811 223.809 940.399 228.185 943.232 229.596L943.24 229.597C943.679 232.916 945.878 235.577 947.403 238.443C949.522 242.204 946.827 246.756 949.448 250.498C952.781 254.432 948.354 258.311 945.048 260.223C940.188 264.812 937.218 266.639 931.581 270.03C926.127 273.311 926.259 273.011 920.31 274.406C914.882 275.679 911.33 278.899 906.772 280.33C902.33 280.1 897.954 281.905 893.499 281.257C890.017 278.946 889.419 274.479 887.18 271.226C884.2 268.208 883.854 263.659 884.472 259.671C885.562 254.763 885.938 249.623 884.802 244.687C884.49 236.442 895.304 241.393 899.697 232.294C901.11 229.366 903.29 225.449 907.044 225.382C916.241 225.221 914.802 217.965 924.922 222.972C928.126 224.648 930.72 227.19 934.261 225.845Z" fill="#FFF7E1"/>
<path d="M857.722 257.351C861.138 258.688 860.197 251.576 859.71 249.865C857.814 246.236 856.244 246.148 853.028 248.144C852.119 248.709 850.282 249.539 849.698 249.947C847.026 251.813 856.297 256.794 857.722 257.351Z" fill="#FFF7E1"/>
<path d="M666.186 123.264C676.587 122.985 660.734 104.195 660.025 117.176C659.795 121.396 662.718 122.492 666.186 123.264Z" fill="#FFF7E1"/>
<path d="M829.973 39.6741C842.176 34.8386 852.841 64.0123 839.438 70.7003C832.815 70.4039 810.934 68.9158 807.655 62.2522C802.258 51.2865 822.503 42.6351 829.973 39.6741Z" fill="#FFF7E1"/>
</g>
<g filter="url(#filter23_f)">
<path d="M633.149 104.191C634.298 97.722 642.348 99.0426 647 97.009L647.009 96.9999C651.546 99.878 657.083 99.9111 662.178 100.987C668.99 102.253 671.815 110.261 679.12 110.889C687.39 110.836 687.607 120.283 686.557 126.324C687.296 137.49 686.67 149.216 681.399 159.326C679.916 164.911 672.334 167.777 673.43 174.034C673.002 180.732 674.904 187.847 671.895 194.175C667.04 199.409 664.756 206.657 659.372 211.476C652.945 213.382 646.831 209.517 640.526 208.923C633.743 209.485 627.789 205.223 623.518 200.353C618.601 193.953 612.662 188.197 605.418 184.511C598.84 180.231 603.337 172.708 605.861 167.579C607.34 162.087 609.955 156.2 608.268 150.487C605.433 145.447 607.962 138.768 613.76 137.485C622.11 135.969 617.797 128.042 614.288 123.838C612.154 118.44 618.15 114.568 622.289 112.573C626.07 110.346 632.217 108.959 633.149 104.191Z" fill="#FFF7E1"/>
<path d="M736.924 163.419C736.443 168.637 716.04 189.852 712.537 191.309C703.257 193.181 695.581 190.669 685.031 190.545C673.379 190.408 674.312 173.945 676.006 166.025C686.68 116.152 739.285 137.868 736.924 163.419Z" fill="#FFF7E1"/>
</g>
<g filter="url(#filter24_f)">
<path d="M595.148 104.191C596.297 97.722 604.348 99.0426 609 97.009L609.009 96.9999C613.545 99.878 619.083 99.9111 624.178 100.987C630.989 102.253 633.815 110.261 641.119 110.889C649.389 110.836 649.606 120.283 648.557 126.324C649.295 137.49 648.67 149.216 643.399 159.326C641.915 164.911 634.333 167.777 635.43 174.034C635.001 180.732 636.904 187.847 633.895 194.175C629.04 199.409 626.755 206.657 621.372 211.476C614.944 213.382 608.831 209.517 602.525 208.923C595.742 209.485 589.789 205.223 585.517 200.353C580.601 193.953 574.662 188.197 567.418 184.511C560.839 180.231 565.337 172.708 567.861 167.579C569.34 162.087 571.954 156.2 570.267 150.487C567.433 145.447 569.961 138.768 575.76 137.485C584.109 135.969 579.797 128.042 576.287 123.838C574.154 118.44 580.15 114.568 584.289 112.573C588.07 110.346 594.217 108.959 595.148 104.191Z" fill="#FFF7E1"/>
<path d="M698.923 163.419C698.442 168.637 678.04 189.852 674.537 191.309C665.257 193.181 657.581 190.669 647.03 190.545C635.379 190.408 636.311 173.945 638.005 166.025C648.679 116.152 701.284 137.868 698.923 163.419Z" fill="#FFF7E1"/>
</g>
<g filter="url(#filter25_f)">
<path d="M765.919 221.065C766.728 216.509 772.393 217.439 775.666 216.007L775.673 216C778.865 218.027 782.762 218.051 786.347 218.808C791.141 219.7 793.129 225.341 798.269 225.783C804.089 225.746 804.241 232.4 803.503 236.655C804.023 244.519 803.582 252.779 799.873 259.899C798.829 263.834 793.494 265.852 794.265 270.259C793.964 274.977 795.303 279.988 793.185 284.446C789.769 288.132 788.161 293.237 784.373 296.631C779.85 297.974 775.548 295.251 771.11 294.833C766.337 295.229 762.148 292.227 759.142 288.797C755.682 284.289 751.503 280.235 746.405 277.639C741.776 274.624 744.941 269.325 746.717 265.713C747.758 261.844 749.597 257.698 748.41 253.674C746.416 250.124 748.195 245.42 752.275 244.516C758.151 243.448 755.116 237.865 752.647 234.903C751.145 231.101 755.365 228.375 758.277 226.969C760.938 225.4 765.264 224.423 765.919 221.065Z" fill="#FFF7E1"/>
<path d="M838.946 262.783C838.607 266.457 824.25 281.4 821.785 282.427C815.255 283.745 809.853 281.976 802.429 281.888C794.23 281.792 794.886 270.196 796.078 264.618C803.589 229.49 840.607 244.786 838.946 262.783Z" fill="#FFF7E1"/>
</g>
</g>
<defs>
<filter id="filter0_f" x="781" y="-12" width="233" height="353" filterUnits="userSpaceOnUse" color-interpolation-filters="sRGB">
<feFlood flood-opacity="0" result="BackgroundImageFix"/>
<feBlend mode="normal" in="SourceGraphic" in2="BackgroundImageFix" result="shape"/>
<feGaussianBlur stdDeviation="12" result="effect1_foregroundBlur"/>
</filter>
<filter id="filter1_f" x="791.964" y="7.01184" width="384.13" height="248.195" filterUnits="userSpaceOnUse" color-interpolation-filters="sRGB">
<feFlood flood-opacity="0" result="BackgroundImageFix"/>
<feBlend mode="normal" in="SourceGraphic" in2="BackgroundImageFix" result="shape"/>
<feGaussianBlur stdDeviation="12" result="effect1_foregroundBlur"/>
</filter>
<filter id="filter2_f" x="800" y="62" width="163" height="183" filterUnits="userSpaceOnUse" color-interpolation-filters="sRGB">
<feFlood flood-opacity="0" result="BackgroundImageFix"/>
<feBlend mode="normal" in="SourceGraphic" in2="BackgroundImageFix" result="shape"/>
<feGaussianBlur stdDeviation="12" result="effect1_foregroundBlur"/>
</filter>
<filter id="filter3_f" x="1033" y="51" width="163" height="183" filterUnits="userSpaceOnUse" color-interpolation-filters="sRGB">
<feFlood flood-opacity="0" result="BackgroundImageFix"/>
<feBlend mode="normal" in="SourceGraphic" in2="BackgroundImageFix" result="shape"/>
<feGaussianBlur stdDeviation="12" result="effect1_foregroundBlur"/>
</filter>
<filter id="filter4_f" x="818" y="82" width="129" height="143" filterUnits="userSpaceOnUse" color-interpolation-filters="sRGB">
<feFlood flood-opacity="0" result="BackgroundImageFix"/>
<feBlend mode="normal" in="SourceGraphic" in2="BackgroundImageFix" result="shape"/>
<feGaussianBlur stdDeviation="12" result="effect1_foregroundBlur"/>
</filter>
<filter id="filter5_f" x="868.753" y="195" width="233" height="353" filterUnits="userSpaceOnUse" color-interpolation-filters="sRGB">
<feFlood flood-opacity="0" result="BackgroundImageFix"/>
<feBlend mode="normal" in="SourceGraphic" in2="BackgroundImageFix" result="shape"/>
<feGaussianBlur stdDeviation="12" result="effect1_foregroundBlur"/>
</filter>
<filter id="filter6_f" x="839.021" y="109.977" width="304.13" height="475.044" filterUnits="userSpaceOnUse" color-interpolation-filters="sRGB">
<feFlood flood-opacity="0" result="BackgroundImageFix"/>
<feBlend mode="normal" in="SourceGraphic" in2="BackgroundImageFix" result="shape"/>
<feGaussianBlur stdDeviation="12" result="effect1_foregroundBlur"/>
</filter>
<filter id="filter7_f" x="919.753" y="416.36" width="163" height="183" filterUnits="userSpaceOnUse" color-interpolation-filters="sRGB">
<feFlood flood-opacity="0" result="BackgroundImageFix"/>
<feBlend mode="normal" in="SourceGraphic" in2="BackgroundImageFix" result="shape"/>
<feGaussianBlur stdDeviation="12" result="effect1_foregroundBlur"/>
</filter>
<filter id="filter8_f" x="868.753" y="220.36" width="163" height="183" filterUnits="userSpaceOnUse" color-interpolation-filters="sRGB">
<feFlood flood-opacity="0" result="BackgroundImageFix"/>
<feBlend mode="normal" in="SourceGraphic" in2="BackgroundImageFix" result="shape"/>
<feGaussianBlur stdDeviation="12" result="effect1_foregroundBlur"/>
</filter>
<filter id="filter9_f" x="932" y="122" width="129" height="143" filterUnits="userSpaceOnUse" color-interpolation-filters="sRGB">
<feFlood flood-opacity="0" result="BackgroundImageFix"/>
<feBlend mode="normal" in="SourceGraphic" in2="BackgroundImageFix" result="shape"/>
<feGaussianBlur stdDeviation="12" result="effect1_foregroundBlur"/>
</filter>
<filter id="filter10_f" x="504" y="195" width="353" height="233" filterUnits="userSpaceOnUse" color-interpolation-filters="sRGB">
<feFlood flood-opacity="0" result="BackgroundImageFix"/>
<feBlend mode="normal" in="SourceGraphic" in2="BackgroundImageFix" result="shape"/>
<feGaussianBlur stdDeviation="12" result="effect1_foregroundBlur"/>
</filter>
<filter id="filter11_f" x="611.339" y="292.268" width="475.044" height="304.13" filterUnits="userSpaceOnUse" color-interpolation-filters="sRGB">
<feFlood flood-opacity="0" result="BackgroundImageFix"/>
<feBlend mode="normal" in="SourceGraphic" in2="BackgroundImageFix" result="shape"/>
<feGaussianBlur stdDeviation="12" result="effect1_foregroundBlur"/>
</filter>
<filter id="filter12_f" x="571.339" y="300.268" width="475.044" height="304.13" filterUnits="userSpaceOnUse" color-interpolation-filters="sRGB">
<feFlood flood-opacity="0" result="BackgroundImageFix"/>
<feBlend mode="normal" in="SourceGraphic" in2="BackgroundImageFix" result="shape"/>
<feGaussianBlur stdDeviation="12" result="effect1_foregroundBlur"/>
</filter>
<filter id="filter13_f" x="694" y="293" width="183" height="163" filterUnits="userSpaceOnUse" color-interpolation-filters="sRGB">
<feFlood flood-opacity="0" result="BackgroundImageFix"/>
<feBlend mode="normal" in="SourceGraphic" in2="BackgroundImageFix" result="shape"/>
<feGaussianBlur stdDeviation="12" result="effect1_foregroundBlur"/>
</filter>
<filter id="filter14_f" x="764" y="188" width="183" height="163" filterUnits="userSpaceOnUse" color-interpolation-filters="sRGB">
<feFlood flood-opacity="0" result="BackgroundImageFix"/>
<feBlend mode="normal" in="SourceGraphic" in2="BackgroundImageFix" result="shape"/>
<feGaussianBlur stdDeviation="12" result="effect1_foregroundBlur"/>
</filter>
<filter id="filter15_f" x="1033" y="403" width="143" height="129" filterUnits="userSpaceOnUse" color-interpolation-filters="sRGB">
<feFlood flood-opacity="0" result="BackgroundImageFix"/>
<feBlend mode="normal" in="SourceGraphic" in2="BackgroundImageFix" result="shape"/>
<feGaussianBlur stdDeviation="12" result="effect1_foregroundBlur"/>
</filter>
<filter id="filter16_f" x="564" y="253" width="233" height="353" filterUnits="userSpaceOnUse" color-interpolation-filters="sRGB">
<feFlood flood-opacity="0" result="BackgroundImageFix"/>
<feBlend mode="normal" in="SourceGraphic" in2="BackgroundImageFix" result="shape"/>
<feGaussianBlur stdDeviation="12" result="effect1_foregroundBlur"/>
</filter>
<filter id="filter17_f" x="525.268" y="61.9774" width="304.13" height="475.044" filterUnits="userSpaceOnUse" color-interpolation-filters="sRGB">
<feFlood flood-opacity="0" result="BackgroundImageFix"/>
<feBlend mode="normal" in="SourceGraphic" in2="BackgroundImageFix" result="shape"/>
<feGaussianBlur stdDeviation="12" result="effect1_foregroundBlur"/>
</filter>
<filter id="filter18_f" x="581" y="374.001" width="163" height="183" filterUnits="userSpaceOnUse" color-interpolation-filters="sRGB">
<feFlood flood-opacity="0" result="BackgroundImageFix"/>
<feBlend mode="normal" in="SourceGraphic" in2="BackgroundImageFix" result="shape"/>
<feGaussianBlur stdDeviation="12" result="effect1_foregroundBlur"/>
</filter>
<filter id="filter19_f" x="581" y="255" width="163" height="183" filterUnits="userSpaceOnUse" color-interpolation-filters="sRGB">
<feFlood flood-opacity="0" result="BackgroundImageFix"/>
<feBlend mode="normal" in="SourceGraphic" in2="BackgroundImageFix" result="shape"/>
<feGaussianBlur stdDeviation="12" result="effect1_foregroundBlur"/>
</filter>
<filter id="filter20_f" x="527" y="313" width="129" height="143" filterUnits="userSpaceOnUse" color-interpolation-filters="sRGB">
<feFlood flood-opacity="0" result="BackgroundImageFix"/>
<feBlend mode="normal" in="SourceGraphic" in2="BackgroundImageFix" result="shape"/>
<feGaussianBlur stdDeviation="12" result="effect1_foregroundBlur"/>
</filter>
<filter id="filter21_f" x="504.001" y="21.9999" width="353" height="233" filterUnits="userSpaceOnUse" color-interpolation-filters="sRGB">
<feFlood flood-opacity="0" result="BackgroundImageFix"/>
<feBlend mode="normal" in="SourceGraphic" in2="BackgroundImageFix" result="shape"/>
<feGaussianBlur stdDeviation="12" result="effect1_foregroundBlur"/>
</filter>
<filter id="filter22_f" x="507.339" y="1.26843" width="475.044" height="304.13" filterUnits="userSpaceOnUse" color-interpolation-filters="sRGB">
<feFlood flood-opacity="0" result="BackgroundImageFix"/>
<feBlend mode="normal" in="SourceGraphic" in2="BackgroundImageFix" result="shape"/>
<feGaussianBlur stdDeviation="12" result="effect1_foregroundBlur"/>
</filter>
<filter id="filter23_f" x="578.001" y="72.9999" width="183" height="163" filterUnits="userSpaceOnUse" color-interpolation-filters="sRGB">
<feFlood flood-opacity="0" result="BackgroundImageFix"/>
<feBlend mode="normal" in="SourceGraphic" in2="BackgroundImageFix" result="shape"/>
<feGaussianBlur stdDeviation="12" result="effect1_foregroundBlur"/>
</filter>
<filter id="filter24_f" x="540" y="72.9999" width="183" height="163" filterUnits="userSpaceOnUse" color-interpolation-filters="sRGB">
<feFlood flood-opacity="0" result="BackgroundImageFix"/>
<feBlend mode="normal" in="SourceGraphic" in2="BackgroundImageFix" result="shape"/>
<feGaussianBlur stdDeviation="12" result="effect1_foregroundBlur"/>
</filter>
<filter id="filter25_f" x="720" y="192" width="143" height="129" filterUnits="userSpaceOnUse" color-interpolation-filters="sRGB">
<feFlood flood-opacity="0" result="BackgroundImageFix"/>
<feBlend mode="normal" in="SourceGraphic" in2="BackgroundImageFix" result="shape"/>
<feGaussianBlur stdDeviation="12" result="effect1_foregroundBlur"/>
</filter>
<clipPath id="clip0">
<rect width="1214" height="600" fill="white"/>
</clipPath>
</defs>
</svg>
