<?xml version="1.0" encoding="UTF-8"?>
<!DOCTYPE svg PUBLIC "-//W3C//DTD SVG 1.1//EN" "http://www.w3.org/Graphics/SVG/1.1/DTD/svg11.dtd">
<svg xmlns="http://www.w3.org/2000/svg" xmlns:xlink="http://www.w3.org/1999/xlink">
    <symbol id="fb" viewBox="0 0 11 22">
        <path d="M11 7.124H7.254V4.84c0-.857.611-1.057 1.042-1.057h2.644V.013L7.299 0C3.257 0 2.337 2.812 2.337 4.61v2.514H0v3.884h2.337V22h4.917V11.008h3.317L11 7.124z"/>
    </symbol>
    <symbol id="tw" viewBox="0 0 18 14">
        <path d="M17.73 2.171c-.652.258-1.515.555-2.184.629.692-.383 1.38-1.235 1.714-1.989.119-.267.096-.251-.147-.112-.526.3-1.11.652-1.704.854l-.467-.433C14.264.45 13.594 0 12.524 0c-2.055 0-3.628 1.457-3.628 3.36 0 .223.029.392.067.535l-.067.025c-3.627 0-6.024-.715-7.859-2.8-.32.508-.604 1.048-.604 1.68 0 1.196.815 2.18 1.813 2.8-.61-.018-1.312-.304-1.813-.56 0 1.669 2.53 3.602 4.232 3.92-.605.56-2.795.041-3.023 0 .474 1.37 2 2.211 3.627 2.24-1.272.923-2.81 1.406-4.553 1.406-.862 0-.999-.048-.12.351C2.149 13.662 4.083 14 5.875 14c6.844 0 10.277-4.966 10.277-9.52 0-.15.005-.412 0-.56.661-.443 1.207-1.035 1.677-1.66a.803.803 0 00-.098-.089z"/>
    </symbol>
    <symbol id="vk" viewBox="0 0 18 10">
        <path d="M17.59.678c.123-.39 0-.678-.595-.678h-1.968c-.501 0-.732.247-.856.522 0 0-1.002 2.284-2.419 3.765-.458.429-.668.566-.919.566-.123 0-.314-.137-.314-.528V.678C10.52.21 10.38 0 9.964 0H6.87c-.314 0-.501.219-.501.422 0 .444.708.547.782 1.797V4.93c0 .594-.114.703-.364.703-.669 0-2.293-2.293-3.255-4.918C3.338.206 3.148 0 2.643 0H.675C.114 0 0 .247 0 .522c0 .487.668 2.91 3.111 6.11C4.738 8.815 7.03 10 9.116 10c1.253 0 1.406-.262 1.406-.716 0-2.087-.113-2.284.515-2.284.29 0 .792.137 1.962 1.19C14.335 9.44 14.556 10 15.304 10h1.968c.562 0 .846-.263.682-.781-.374-1.09-2.904-3.335-3.017-3.485-.291-.35-.208-.506 0-.819.003-.003 2.406-3.165 2.653-4.237z"/>
    </symbol>
    <symbol id="tg" viewBox="0 0 18 17">
        <path d="M17.764.108A7.81 7.81 0 0118 0c-1.193 5.105-2.396 10.21-3.598 15.313-1.888-.886-3.77-1.783-5.658-2.671-.723.943-1.443 1.888-2.165 2.831-.394.508-.772 1.027-1.175 1.527-.01-1.978-.005-3.957-.003-5.935C3.605 10.205 1.8 9.363 0 8.506 5.92 5.704 11.843 2.908 17.764.108zm-2.788 2.996c-2.552 2.042-5.089 4.1-7.642 6.141-.072.055-.147.12-.131.217.005.804-.014 1.609.01 2.413.056-.051.11-.102.162-.157 1.9-2.102 3.797-4.205 5.699-6.305.819-.916 1.659-1.815 2.463-2.743-.2.129-.376.287-.561.434z"/>
    </symbol>
    <symbol id="hamb" viewBox="0 0 27 19">
        <path d="M0 1.434C0 .642.642 0 1.434 0h24.132a1.434 1.434 0 110 2.868H1.434A1.434 1.434 0 010 1.434zM0 9.68c0-.793.642-1.435 1.434-1.435h21.132a1.434 1.434 0 110 2.868H1.434A1.434 1.434 0 010 9.68zm0 7.886c0-.792.642-1.434 1.434-1.434h24.132a1.434 1.434 0 110 2.868H1.434A1.434 1.434 0 010 17.566z"/>
    </symbol>
    <symbol id="arrow" viewBox="0 0 8 13">
        <path d="M0.326096 5.75694C0.76089 5.34655 1.46583 5.34655 1.90063 5.75694L7.6739 11.2061C8.1087 11.6165 8.1087 12.2818 7.6739 12.6922C7.23911 13.1026 6.53417 13.1026 6.09937 12.6922L0.326096 7.24307C-0.108699 6.83268 -0.108699 6.16732 0.326096 5.75694Z"/>
        <path d="M0.326096 7.24307C-0.108699 6.83268 -0.108699 6.16732 0.326096 5.75694L6.09937 0.307788C6.53417 -0.102596 7.23911 -0.102596 7.6739 0.307788C8.1087 0.718171 8.1087 1.38354 7.6739 1.79392L1.90063 7.24307C1.46583 7.65345 0.760891 7.65345 0.326096 7.24307Z"/>
    </symbol>
    <symbol id="cross" viewBox="0 0 10 10">
        <path d="M0 1.33333L1.33333 3.17891e-07L10 8.66667L8.66667 10L0 1.33333Z"/>
        <path d="M1.33333 10L0 8.66667L8.66667 0L10 1.33333L1.33333 10Z"/>
    </symbol>
</svg>
