<svg width="102" height="343" viewBox="0 0 102 343" fill="none" xmlns="http://www.w3.org/2000/svg">
<g clip-path="url(#clip0)">
<path d="M163.613 81.5709L163.364 81.5448L163.574 80.4716C165.144 72.4719 168.424 64.9876 171.652 57.6226C172.304 56.1354 172.953 54.653 173.586 53.1723C171.936 52.2045 170.317 51.6128 168.667 51.3669L168.666 51.3668C164.9 50.8044 160.758 52.0099 155.425 55.1415L154.919 54.2792L155.425 55.1415C152.567 56.8196 150.242 58.0803 148.297 58.8064C146.353 59.5323 144.637 59.7836 143.072 59.2432C141.506 58.7026 140.313 57.4462 139.235 55.6763C138.158 53.9061 137.113 51.4815 135.909 48.4007L136.84 48.0366L135.909 48.4006C135.004 46.0855 133.782 43.9494 132.557 42.3828C131.943 41.5987 131.347 40.9799 130.81 40.5541C130.254 40.1132 129.851 39.9507 129.617 39.9261C128.057 39.7622 126.43 38.8117 124.969 37.5953C123.482 36.3566 122.045 34.7404 120.858 33.0511C119.675 31.3662 118.708 29.5604 118.198 27.9294C117.713 26.3797 117.535 24.6414 118.473 23.4286L118.473 23.4284C120.355 20.9955 120.222 18.3895 118.906 16.4961C117.574 14.5783 114.933 13.2674 111.566 13.7465L111.565 13.7466C108.849 14.132 106.441 13.903 104.152 12.9042C101.879 11.9125 99.8049 10.197 97.6894 7.74618L97.6892 7.74595L92.9558 2.25899L91.1222 6.45327C90.4829 7.9164 90.048 9.56297 89.8662 11.0226C89.6775 12.5371 89.7861 13.6538 90.0402 14.1817C90.0403 14.1818 90.0403 14.1818 90.0404 14.1819L89.1394 14.6158C89.9114 16.2175 86.3861 23.8622 81.3071 31.604L82.1432 32.1525C73.5176 45.2992 70.0279 56.3297 67.9422 77.3146C67.5876 80.8827 66.9176 83.535 65.5261 85.5405C64.1123 87.5779 62.0494 88.8146 59.2155 89.7629L58.8982 88.8146L59.2155 89.7629C57.2885 90.4076 54.9409 92.1506 52.4966 94.8063C50.0728 97.4398 47.6303 100.887 45.4953 104.808C43.511 108.453 41.3939 111.748 39.5721 114.126C38.6641 115.312 37.8093 116.295 37.0648 116.983C36.6941 117.326 36.3239 117.62 35.9657 117.828C35.6347 118.021 35.1752 118.222 34.6715 118.169C34.6752 118.17 34.6768 118.17 34.6763 118.17C34.673 118.171 34.6003 118.172 34.4347 118.231C34.2517 118.296 34.0124 118.411 33.7176 118.586C33.1283 118.937 32.4001 119.482 31.5792 120.196C29.9417 121.619 28.0211 123.639 26.2272 125.907C23.1755 129.767 21.7635 131.867 21.3591 133.873C20.9646 135.83 21.5042 137.844 22.999 141.669C25.1984 147.296 25.3994 152.103 23.1224 155.568C22.3451 156.751 21.256 159.06 20.1278 161.88C19.0085 164.677 17.8786 167.905 17.0101 170.883C15.2232 177.018 10.9411 185.236 7.42532 189.217L7.4252 189.217C5.45441 191.448 4.02943 193.229 3.03778 195.134C2.05811 197.016 1.48015 199.061 1.28584 201.832C0.890946 207.464 2.08036 215.921 4.62496 231.728C6.94103 246.113 9.21189 261.554 9.66825 266.027L9.66827 266.027C9.97903 269.081 10.4892 270.74 11.1964 271.571C11.777 272.254 12.6469 272.534 14.4395 272.166C16.0897 271.828 18.1114 272.106 20.0152 272.741C21.9336 273.381 23.8527 274.423 25.3063 275.741M163.613 81.5709L24.6347 276.482M163.613 81.5709C163.803 86.4077 162.531 93.8231 160.655 98.468C159.235 101.98 158.469 104.926 158.405 107.847C158.34 110.775 158.982 113.6 160.26 116.872C162.367 122.264 162.517 128.549 160.617 135.6C159.398 140.121 158.813 143.193 159.21 145.548C159.632 148.053 161.127 149.608 163.467 151.196L163.467 151.196C164.801 152.1 166.615 154.046 168.463 156.534C170.294 158.997 172.091 161.902 173.411 164.642L174.312 164.208L173.411 164.642C174.636 167.185 175.521 169.039 176.081 170.599C176.633 172.138 176.843 173.325 176.752 174.52C176.659 175.729 176.253 177.032 175.431 178.793C174.607 180.561 173.403 182.715 171.763 185.632C168.153 192.054 159.861 200.612 152.909 205.059C147.406 208.579 144.053 211.041 141.986 213.958C139.888 216.918 139.182 220.246 138.654 225.271C138.279 228.846 136.82 233.588 134.297 239.348C131.779 245.095 128.226 251.798 123.71 259.282L124.566 259.798L123.71 259.282C117.015 270.378 113.478 276.367 111.84 281.43C110.174 286.58 110.476 290.756 111.213 298.098C111.635 302.305 112.249 306.315 112.901 309.394C113.226 310.931 113.566 312.256 113.902 313.264C114.069 313.767 114.243 314.213 114.424 314.576C114.588 314.905 114.817 315.292 115.145 315.546C115.511 315.829 116.015 315.932 116.398 315.987C116.84 316.05 117.382 316.079 117.994 316.083C119.223 316.091 120.836 315.996 122.71 315.816C126.463 315.454 131.341 314.74 136.445 313.761C141.515 312.79 146.194 312.003 149.646 311.517C151.375 311.274 152.782 311.108 153.771 311.032C153.826 311.027 153.881 311.023 153.933 311.02M163.613 81.5709L153.933 311.02M25.3063 275.741L24.6347 276.482M25.3063 275.741C25.3062 275.741 25.3061 275.74 25.306 275.74L24.6347 276.482M25.3063 275.741C27.4817 277.711 28.5501 278.242 29.6597 278.038C30.2669 277.927 31.005 277.576 32.0165 276.835C33.023 276.097 34.2223 275.034 35.7539 273.591L42.7093 267.036L43.7873 266.02L44.3265 267.4L47.9458 276.658L47.0144 277.023M24.6347 276.482C28.9131 280.356 30.3019 280.102 36.4396 274.319L42.6105 268.503L42.4638 268.128L43.3952 267.764L44.081 268.491L43.7877 268.768L47.0144 277.023M47.0144 277.023L47.9458 276.659C49.5743 280.825 50.4272 283.622 50.1535 286.726C49.8837 289.784 48.5264 293.04 46.09 298.163C42.1226 306.506 41.2036 311.888 42.407 319.127L41.4206 319.291M47.0144 277.023C50.268 285.348 50.0844 287.435 45.1869 297.734C41.1529 306.217 40.1764 311.806 41.4206 319.291M41.4206 319.291L42.4071 319.127C43.0294 322.874 43.1588 325.99 42.6875 328.848C42.2142 331.719 41.1445 334.274 39.4449 336.909M41.4206 319.291C42.6445 326.659 41.8826 331.284 38.6044 336.367M39.4449 336.909L38.4349 393.756C34.6403 391.839 29.8952 386.075 27.8912 380.948C24.7716 372.965 24.9567 369.595 29.179 357.483M39.4449 336.909C37.0377 340.645 32.8256 350.059 30.1233 357.812L29.179 357.483M39.4449 336.909C39.4449 336.909 39.445 336.909 39.445 336.909L38.6044 336.367M39.4449 336.909L38.6044 336.367M39.4449 336.909L153.933 311.02M38.6044 336.367C36.1332 340.202 31.8903 349.705 29.179 357.483M29.179 357.483L30.1232 357.812C28.0098 363.875 26.9558 367.622 26.7804 370.819C26.6078 373.964 27.2834 376.645 28.8226 380.584C29.7786 383.03 31.4051 385.663 33.2636 387.92C35.1325 390.19 37.1635 391.993 38.8858 392.864L38.8861 392.864C41.3669 394.118 43.1497 395.425 44.0486 396.974C45.0099 398.63 44.8645 400.374 43.9482 402.172C42.8197 404.388 43.0664 406.137 44.0065 407.467C44.9959 408.867 46.8681 409.962 49.2579 410.511C54.0524 411.613 60.2864 410.384 63.8323 406.041L64.6069 406.673M64.6069 406.673C67.3985 403.255 73.8388 396.768 78.9205 392.257C88.0181 384.181 88.1125 383.881 85.027 372.718M64.6069 406.673L112.208 297.998C113.046 306.353 114.643 313.894 115.757 314.755C116.87 315.616 126.096 314.727 136.257 312.779C146.419 310.832 155.041 309.618 155.417 310.084C155.794 310.551 152.286 315.257 147.621 320.541C140.417 328.703 139.531 331.161 141.739 336.845M64.6069 406.673L63.8324 406.04C66.6706 402.565 73.1539 396.039 78.2567 391.509C80.5424 389.48 82.2132 387.982 83.4131 386.687C84.6053 385.4 85.2634 384.385 85.5879 383.347C85.911 382.313 85.9368 381.15 85.6671 379.507C85.3947 377.847 84.8389 375.791 84.0631 372.985L85.027 372.718M85.027 372.718C81.1988 358.865 86.1652 347.53 99.3131 340.105C107.53 335.465 113.337 338.041 108.565 344.211M85.027 372.718L84.0631 372.984C82.0993 365.878 82.3734 359.34 84.8881 353.6C87.4005 347.865 92.1049 343.027 98.8214 339.234C100.95 338.032 102.955 337.279 104.706 336.94C106.437 336.605 108.015 336.657 109.216 337.19C110.49 337.755 111.286 338.851 111.288 340.312C111.291 341.67 110.608 343.204 109.356 344.822M108.565 344.211C105.028 348.787 108.023 360.687 113.68 364.524C121.155 369.594 129.344 365.566 137.703 352.706C139.592 349.801 141.63 347.192 143.393 345.332M108.565 344.211L109.356 344.822C109.356 344.822 109.356 344.822 109.356 344.822M108.565 344.211L109.356 344.822M143.393 345.332L141.739 336.845M143.393 345.332L142.668 344.644C142.551 344.767 142.433 344.894 142.314 345.023M143.393 345.332L142.412 345.524L142.314 345.023M141.739 336.845L140.758 337.037L140.775 337.123M141.739 336.845L140.807 337.207C140.796 337.179 140.785 337.151 140.775 337.123M140.775 337.123C139.658 334.224 139.254 331.932 140.21 329.283C141.131 326.73 143.288 323.939 146.871 319.879C149.191 317.251 151.216 314.776 152.608 312.908C153.165 312.161 153.612 311.523 153.933 311.02M140.775 337.123L142.314 345.023M142.314 345.023C140.588 346.9 138.657 349.405 136.865 352.161C132.723 358.533 128.707 362.578 124.919 364.442C121.214 366.264 117.681 366.029 114.242 363.697C111.698 361.971 109.628 358.306 108.645 354.4C108.158 352.469 107.955 350.54 108.074 348.846C108.194 347.139 108.636 345.755 109.356 344.822" fill="#C6B889" stroke="#988A5B" stroke-width="2"/>
</g>
<defs>
<clipPath id="clip0">
<rect width="102" height="343" fill="white"/>
</clipPath>
</defs>
</svg>
