<svg width="133" height="196" viewBox="0 0 133 196" fill="none" xmlns="http://www.w3.org/2000/svg">
<g clip-path="url(#clip0)">
<path d="M65.2039 181.255L65.2024 181.246L65.2008 181.238C64.1697 175.972 60.2563 172.66 55.8647 170.141C53.6705 168.883 51.301 167.793 49.0382 166.751L49.0117 166.739C46.7224 165.685 44.5519 164.684 42.6845 163.586L42.6488 163.565L42.6114 163.547C38.4444 161.542 33.439 158.635 30.0175 154.942C26.6564 151.313 24.9277 147.063 26.8106 142.139C30.3779 137.846 34.4167 131.602 35.4136 125.929C35.9215 123.039 35.659 120.178 34.0044 117.818C32.3526 115.461 29.4451 113.79 25.0647 112.992C14.0351 110.544 9.13428 97.807 14.5911 88.122L14.6467 88.0234L14.6788 87.9147C16.4584 81.8973 15.9552 75.8317 14.6642 69.9334C14.0186 66.9834 13.1713 64.0566 12.3039 61.1883C12.1039 60.5269 11.903 59.8694 11.7033 59.2155C11.0332 57.0219 10.3753 54.8681 9.80122 52.7401L9.77581 52.6459L9.73268 52.5584C9.33889 51.7595 8.9251 50.9384 8.50217 50.0991C6.13168 45.395 3.47381 40.1207 2.4383 35.004C1.83339 32.015 1.80356 29.1615 2.672 26.5695C3.53016 24.0082 5.29454 21.6143 8.43729 19.5617C23.2845 12.0082 35.4243 0.247801 45.4444 -12.766C54.0412 -22.543 65.8314 -30.867 79.1089 -29.769L79.197 -29.7617L79.2849 -29.77C84.0168 -30.2149 88.7354 -31.5584 93.346 -32.871C95.0717 -33.3623 96.7823 -33.8493 98.4727 -34.2833C104.687 -35.8787 110.763 -36.8104 116.944 -35.0422C122.196 -30.296 125.979 -24.364 129.698 -18.2099C130.048 -17.6294 130.399 -17.0467 130.75 -16.4629C134.109 -10.8742 137.531 -5.18238 142.021 -0.319266C144.92 5.84466 145.474 12.4228 145.382 19.2233C145.35 21.6123 145.235 24.053 145.12 26.5116C144.91 30.9721 144.698 35.4914 144.97 39.8674C143.986 45.7275 146.532 50.1934 149.786 54.1672C149.928 54.9281 150.075 55.6601 150.225 56.3591C154.349 75.5967 161.555 89.6887 170.544 99.5052C172.425 111.672 172.434 124.24 171.62 136.52L171.612 136.639L171.633 136.757C172.687 142.817 173.082 150.478 171.208 156.558C170.276 159.584 168.8 162.159 166.623 163.97C164.46 165.77 161.523 166.885 157.53 166.859L157.484 166.859L157.438 166.863C149.653 167.531 144.286 172.141 139.284 176.665C139.054 176.873 138.824 177.081 138.595 177.289C133.781 181.654 129.236 185.774 122.956 186.939L122.944 186.941L122.932 186.944C120.378 187.482 117.762 187.891 115.109 188.295C114.894 188.328 114.678 188.361 114.462 188.393C112.028 188.763 109.564 189.138 107.129 189.61C101.994 190.605 96.9075 192.047 92.2723 194.871C89.9016 193.909 87.1859 193.33 84.4655 192.829C83.8118 192.709 83.1584 192.593 82.5074 192.478C80.233 192.074 77.9885 191.676 75.8679 191.11C73.1492 190.383 70.7519 189.407 68.9047 187.883C67.0845 186.38 65.7463 184.303 65.2039 181.255ZM169.892 95.7057C162.356 86.5689 156.222 73.9794 152.464 57.2335C152.737 57.5337 153.011 57.8322 153.283 58.1298C154.662 59.6368 156.019 61.12 157.253 62.6917C159.042 64.9723 160.48 67.3338 161.184 69.9794L161.212 70.0867L161.264 70.1852C165.48 78.2576 168.218 86.8548 169.892 95.7057ZM172.425 98.5929C170.807 88.4717 167.895 78.5921 163.087 69.3566C162.276 66.3895 160.677 63.8154 158.826 61.457C157.545 59.8251 156.101 58.2465 154.696 56.7102C154.066 56.0216 153.443 55.3414 152.847 54.6688C152.44 54.209 152.042 53.7506 151.658 53.2919C150.237 45.434 149.381 34.708 151.185 25.5898C152.192 20.4982 154.011 15.9963 156.939 12.7635C159.838 9.56251 163.885 7.53574 169.531 7.4698L169.52 6.46986L169.532 7.46978C177.542 7.37543 184.762 6.60642 191.587 5.87952C193.93 5.62989 196.227 5.38523 198.494 5.17455C207.353 4.35107 215.813 4.03634 225.048 5.88102C225.799 6.21766 227.088 7.10726 228.845 8.53855C230.634 9.99659 232.82 11.9416 235.259 14.2376C240.135 18.828 245.99 24.7899 251.658 30.9924C257.327 37.1968 262.792 43.6257 266.895 49.151C268.947 51.9148 270.646 54.4358 271.858 56.5786C273.089 58.7566 273.747 60.4257 273.848 61.5203C275.012 74.0938 269.408 86.2748 259.88 95.9518C250.354 105.628 236.972 112.724 222.779 115.109C208.596 117.492 193.648 115.167 180.917 106.07C177.959 103.957 175.116 101.474 172.425 98.5929Z" fill="#C6B889" stroke="#988A5B" stroke-width="2"/>
</g>
<defs>
<clipPath id="clip0">
<rect width="133" height="196" fill="white"/>
</clipPath>
</defs>
</svg>
