<svg width="114" height="27" viewBox="0 0 114 27" fill="none" xmlns="http://www.w3.org/2000/svg">
<path d="M106.729 20.3974C100.056 20.3974 97.8133 12.7518 102.046 8.58728C103.426 7.2299 104.899 6.54659 106.936 6.54659H113.825V19.9911C113.825 22.6966 112.539 24.8112 110.221 26.0578C108.062 27.212 105.049 26.9812 102.506 26.9812V24.5526C104.496 24.5526 107.752 24.7281 109.188 23.9155C110.512 23.1768 111.187 21.9764 111.187 20.2866V8.9751H106.936C100.882 8.9751 100.864 17.9781 106.729 17.9781C108.015 17.9781 109.151 17.6272 110.127 16.9347V19.5294C109.076 20.1112 107.94 20.3974 106.729 20.3974Z" fill="#524A2D"/>
<path d="M76.2744 14.8204V0.267788H78.8835V14.8204C78.8835 17.3135 79.9346 17.8491 82.2153 17.8491V20.2407C78.0576 20.2407 76.2744 18.9017 76.2744 14.8204Z" fill="#524A2D"/>
<path d="M70.6437 6.54682H73.4593L69.9492 12.5119C73.6846 13.4999 73.5156 16.9811 73.5156 20.2407H70.9628C70.9628 18.3108 71.2162 16.4732 69.8178 15.2082C68.6634 14.1555 66.899 14.0447 65.1908 14.2479V20.2407H62.638V0.267788H65.1908V11.9948C66.0074 11.884 66.8145 11.884 67.631 11.9948L70.6437 6.54682Z" fill="#524A2D"/>
<path d="M51.7035 20.2406V12.4565C51.7035 9.6586 52.3041 7.73796 54.4252 6.97155C56.1146 6.36211 58.0292 6.54679 60.0471 6.54679V8.94759C58.827 8.94759 56.5463 8.78138 55.5609 9.16921C54.444 9.61243 54.2563 10.7574 54.2563 12.4565V20.2406H51.7035Z" fill="#524A2D"/>
<path d="M37.3824 8.56003C41.6339 4.31245 49.3768 7.19342 49.3768 13.4078C49.3768 20.9704 38.7808 22.8356 35.9089 16.0764C34.8483 13.574 35.3551 10.5268 37.3824 8.56003ZM42.3754 8.97556C36.594 8.97556 36.594 17.8401 42.3754 17.8401C48.1661 17.8401 48.1661 8.97556 42.3754 8.97556Z" fill="#524A2D"/>
<path d="M33.7582 8.94738H30.417V20.2404H27.8079V8.94738H25.8369L27.0007 6.54657H27.8079C27.8079 2.47444 30.9614 0.239838 34.9126 0.239838V2.64065C31.9187 2.64065 30.417 3.94262 30.417 6.54657H33.7582V8.94738Z" fill="#524A2D"/>
<path fill-rule="evenodd" clip-rule="evenodd" d="M17.9542 17.9784C16.7528 17.9137 15.5421 18.0245 14.3408 17.7383C12.7265 17.332 11.3469 16.5194 10.0329 15.596C9.0287 14.8758 8.03386 14.1371 7.01085 13.4538C5.09624 12.1333 2.48712 12.2811 0 12.2349C0 11.6254 0.0187707 11.016 0.0187707 10.4066C0.0187707 9.78791 0 9.17847 0 8.56903C2.48712 8.52287 5.09624 8.67061 7.01085 7.35016C8.03386 6.66686 9.0287 5.92815 10.0329 5.2079C11.3469 4.28452 12.7265 3.47194 14.3408 3.06565C15.5421 2.7794 16.7528 2.8902 17.9542 2.82557C17.3723 2.13302 16.7904 1.57899 16.1428 0.941855C15.9645 0.766411 15.8143 0.563266 15.9645 0.304718C16.0771 0.101573 16.2836 0.0461694 16.5088 0.0461694C17.2784 0.0369355 18.0199 0 18.7895 0C19.3901 0 19.8875 0.221613 20.3099 0.637137C21.4174 1.7452 22.5248 2.82557 23.6229 3.93363C24.2142 4.5246 24.1954 4.96782 23.5948 5.57726C22.5061 6.66686 21.3798 7.74722 20.2817 8.85528C19.8782 9.25234 19.3995 9.45549 18.8364 9.47395C18.1043 9.49242 17.3723 9.49242 16.6402 9.49242C16.368 9.49242 16.0959 9.44625 15.9645 9.16924C15.7955 8.86452 16.0302 8.67984 16.2179 8.48593C16.8092 7.92266 17.391 7.36863 18.0856 6.71303C16.2554 6.50065 14.6975 6.67609 13.3178 7.60871C12.0977 8.43976 10.8964 9.29851 9.64814 10.148C9.50736 10.2404 9.42289 10.3235 9.4135 10.4066C9.42289 10.4804 9.50736 10.5636 9.64814 10.6559C10.8964 11.5054 12.0977 12.3642 13.3178 13.1952C14.6975 14.1278 16.2554 14.3033 18.0856 14.0909C17.391 13.4353 16.8092 12.8813 16.2179 12.318C16.0302 12.1241 15.7955 11.9394 15.9645 11.6347C16.0959 11.3577 16.368 11.3115 16.6402 11.3115C17.3723 11.3115 18.1043 11.3115 18.8364 11.33C19.3995 11.3484 19.8782 11.5516 20.2817 11.9486C21.3798 13.0567 22.5061 14.1371 23.5948 15.2267C24.1954 15.8361 24.2142 16.2793 23.6229 16.8703C22.5248 17.9784 21.4174 19.0587 20.3099 20.1668C19.8875 20.5823 19.3901 20.8039 18.7895 20.8039C18.0199 20.8039 17.2784 20.767 16.5088 20.7577C16.2836 20.7577 16.0771 20.7023 15.9645 20.4992C15.8143 20.2407 15.9645 20.0375 16.1428 19.8621C16.7904 19.2249 17.3723 18.6709 17.9542 17.9784Z" fill="#524A2D"/>
<path d="M85.9976 8.56003C90.2492 4.31245 97.9921 7.19342 97.9921 13.4078C97.9921 20.9704 87.396 22.8356 84.5241 16.0764C83.4636 13.574 83.9798 10.5268 85.9976 8.56003ZM91 8.97556C85.2093 8.97556 85.2093 17.8401 91 17.8401C96.7814 17.8401 96.7814 8.97556 91 8.97556Z" fill="#524A2D"/>
</svg>
