<svg width="114" height="28" viewBox="0 0 114 28" fill="none" xmlns="http://www.w3.org/2000/svg">
<path d="M106.894 20.4288C100.211 20.4288 97.964 12.7714 102.203 8.60051C103.585 7.24104 105.061 6.55668 107.101 6.55668H114V20.0219C114 22.7316 112.712 24.8494 110.39 26.0979C108.229 27.2539 105.211 27.0227 102.664 27.0227V24.5905C104.657 24.5905 107.918 24.7662 109.357 23.9523C110.682 23.2125 111.359 22.0102 111.359 20.3178V8.98893H107.101C101.038 8.98893 101.019 18.0058 106.894 18.0058C108.182 18.0058 109.319 17.6544 110.296 16.9608V19.5595C109.244 20.1421 108.106 20.4288 106.894 20.4288Z" fill="#FEFEFC"/>
<path d="M76.3918 14.8432V0.268211H79.005V14.8432C79.005 17.3402 80.0578 17.8766 82.3419 17.8766V20.2718C78.1778 20.2718 76.3918 18.9309 76.3918 14.8432Z" fill="#FEFEFC"/>
<path d="M70.7525 6.55692H73.5724L70.0569 12.5312C73.798 13.5207 73.6288 17.0073 73.6288 20.2718H71.072C71.072 18.339 71.3258 16.4986 69.9253 15.2316C68.7691 14.1773 67.0019 14.0664 65.2912 14.2698V20.2718H62.7344V0.268211H65.2912V12.0133C66.109 11.9023 66.9173 11.9023 67.7351 12.0133L70.7525 6.55692Z" fill="#19AAE0"/>
<path d="M51.7831 20.2718V12.4757C51.7831 9.67349 52.3847 7.74988 54.509 6.98229C56.201 6.37192 58.1186 6.55688 60.1395 6.55688V8.96138C58.9175 8.96138 56.6334 8.79492 55.6464 9.18334C54.5278 9.62725 54.3398 10.774 54.3398 12.4757V20.2718H51.7831Z" fill="#19AAE0"/>
<path d="M37.44 8.57321C41.6981 4.31908 49.4529 7.20449 49.4529 13.4285C49.4529 21.0027 38.8406 22.8708 35.9642 16.1012C34.902 13.5949 35.4096 10.5431 37.44 8.57321ZM42.4407 8.98937C36.6504 8.98937 36.6504 17.8675 42.4407 17.8675C48.2403 17.8675 48.2403 8.98937 42.4407 8.98937Z" fill="#19AAE0"/>
<path d="M33.8102 8.96115H30.4638V20.2716H27.8507V8.96115H25.8767L27.0423 6.55664H27.8507C27.8507 2.47824 31.009 0.240196 34.9663 0.240196V2.6447C31.9678 2.6447 30.4638 3.94868 30.4638 6.55664H33.8102V8.96115Z" fill="#19AAE0"/>
<path fill-rule="evenodd" clip-rule="evenodd" d="M17.9818 18.006C16.7786 17.9413 15.5661 18.0523 14.3629 17.7656C12.7461 17.3587 11.3644 16.5448 10.0484 15.62C9.04261 14.8987 8.04623 14.1588 7.02165 13.4745C5.10409 12.152 2.49095 12.3 0 12.2537C0 11.6434 0.0187996 11.033 0.0187996 10.4226C0.0187996 9.80298 0 9.19261 0 8.58223C2.49095 8.53599 5.10409 8.68396 7.02165 7.36148C8.04623 6.67712 9.04261 5.93728 10.0484 5.21593C11.3644 4.29112 12.7461 3.47728 14.3629 3.07037C15.5661 2.78368 16.7786 2.89465 17.9818 2.82992C17.399 2.13631 16.8162 1.58142 16.1677 0.943306C15.9891 0.767592 15.8387 0.564134 15.9891 0.305187C16.1019 0.101729 16.3087 0.0462405 16.5343 0.0462405C17.305 0.0369924 18.0476 0 18.8184 0C19.42 0 19.9182 0.221954 20.3412 0.638119C21.4503 1.74789 22.5595 2.82992 23.6593 3.93969C24.2515 4.53157 24.2327 4.97548 23.6311 5.58585C22.5407 6.67712 21.4127 7.75915 20.313 8.86892C19.9088 9.26659 19.4294 9.47005 18.8654 9.48855C18.1322 9.50704 17.399 9.50704 16.6658 9.50704C16.3933 9.50704 16.1207 9.4608 15.9891 9.18336C15.8199 8.87817 16.0549 8.69321 16.2429 8.499C16.835 7.93487 17.4178 7.37998 18.1134 6.72337C16.2805 6.51066 14.7201 6.68637 13.3383 7.62043C12.1163 8.45276 10.9132 9.31283 9.663 10.1637C9.522 10.2561 9.4374 10.3394 9.428 10.4226C9.4374 10.4966 9.522 10.5798 9.663 10.6723C10.9132 11.5231 12.1163 12.3832 13.3383 13.2155C14.7201 14.1496 16.2805 14.3253 18.1134 14.1126C17.4178 13.456 16.835 12.9011 16.2429 12.337C16.0549 12.1427 15.8199 11.9578 15.9891 11.6526C16.1207 11.3752 16.3933 11.3289 16.6658 11.3289C17.399 11.3289 18.1322 11.3289 18.8654 11.3474C19.4294 11.3659 19.9088 11.5694 20.313 11.967C21.4127 13.0768 22.5407 14.1588 23.6311 15.2501C24.2327 15.8605 24.2515 16.3044 23.6593 16.8963C22.5595 18.006 21.4503 19.0881 20.3412 20.1978C19.9182 20.614 19.42 20.836 18.8184 20.836C18.0476 20.836 17.305 20.799 16.5343 20.7897C16.3087 20.7897 16.1019 20.7342 15.9891 20.5308C15.8387 20.2718 15.9891 20.0684 16.1677 19.8927C16.8162 19.2545 17.399 18.6996 17.9818 18.006Z" fill="#E9A520"/>
<path d="M86.1301 8.57321C90.3882 4.31908 98.143 7.20449 98.143 13.4285C98.143 21.0027 87.5307 22.8708 84.6543 16.1012C83.5921 13.5949 84.1091 10.5431 86.1301 8.57321ZM91.1402 8.98937C85.3405 8.98937 85.3405 17.8675 91.1402 17.8675C96.9305 17.8675 96.9305 8.98937 91.1402 8.98937Z" fill="#FEFEFC"/>
</svg>
