<svg width="906" height="527" viewBox="0 0 906 527" fill="none" xmlns="http://www.w3.org/2000/svg">
<g clip-path="url(#clip0)">
<path d="M616.979 406.161L616.979 406.162L616.975 406.158C616.072 405.226 614.807 404.628 613.495 404.522C613.483 404.522 613.469 404.521 613.444 404.521C613.441 404.521 613.438 404.521 613.434 404.521C613.389 404.52 613.305 404.518 613.209 404.5H612.785C612.68 404.519 612.584 404.521 612.524 404.523C612.52 404.523 612.516 404.523 612.512 404.523C612.435 404.526 612.405 404.528 612.381 404.532L612.361 404.536L612.341 404.538C610.966 404.69 609.663 405.386 608.78 406.423L608.78 406.423L608.778 406.426C607.864 407.483 607.393 408.896 607.521 410.263C607.65 411.284 608.081 412.264 608.61 413.227C609.207 414.298 609.928 415.307 610.706 416.287L610.707 416.288C611.416 417.188 612.178 418.05 612.978 418.879C612.986 418.887 612.993 418.894 613.001 418.902C613.014 418.889 613.027 418.875 613.041 418.862C613.764 418.114 614.451 417.332 615.107 416.525C616.182 415.182 617.173 413.8 617.869 412.283C618.142 411.678 618.356 411.064 618.457 410.44C618.668 408.906 618.093 407.285 616.979 406.161Z" fill="#FF2222" stroke="#524A2D"/>
<circle cx="614.2" cy="408.8" r="1.9" fill="#D7C99C" stroke="#524A2D"/>
<path d="M68.9792 126.161L68.9792 126.162L68.9755 126.158C68.072 125.226 66.8069 124.628 65.4951 124.522C65.483 124.522 65.4687 124.521 65.4444 124.521C65.4411 124.521 65.4376 124.521 65.4338 124.521C65.3888 124.52 65.3045 124.518 65.2093 124.5H64.7851C64.6805 124.519 64.5844 124.521 64.524 124.523C64.5199 124.523 64.516 124.523 64.5123 124.523C64.4349 124.526 64.4046 124.528 64.3812 124.532L64.3613 124.536L64.3412 124.538C62.9662 124.69 61.6635 125.386 60.7799 126.423L60.7799 126.423L60.7777 126.426C59.8641 127.483 59.3926 128.896 59.5208 130.263C59.6498 131.284 60.0806 132.264 60.6099 133.227C61.2073 134.298 61.9285 135.307 62.7058 136.287L62.7068 136.288C63.4159 137.188 64.1775 138.05 64.978 138.879C64.9857 138.887 64.9933 138.894 65.0008 138.902C65.0138 138.889 65.0272 138.875 65.0407 138.862C65.7639 138.114 66.451 137.332 67.1072 136.525C68.1819 135.182 69.1726 133.8 69.8686 132.283C70.1418 131.678 70.3557 131.064 70.4567 130.44C70.6681 128.906 70.0929 127.285 68.9792 126.161Z" fill="#FF2222" stroke="#524A2D"/>
<circle cx="66.1998" cy="128.8" r="1.9" fill="#D7C99C" stroke="#524A2D"/>
<path d="M80.9792 130.161L80.9792 130.162L80.9755 130.158C80.072 129.226 78.8069 128.628 77.4951 128.522C77.483 128.522 77.4687 128.521 77.4444 128.521C77.4411 128.521 77.4376 128.521 77.4338 128.521C77.3888 128.52 77.3045 128.518 77.2093 128.5H76.7851C76.6805 128.519 76.5844 128.521 76.524 128.523C76.5199 128.523 76.516 128.523 76.5123 128.523C76.4349 128.526 76.4046 128.528 76.3812 128.532L76.3613 128.536L76.3412 128.538C74.9662 128.69 73.6635 129.386 72.7799 130.423L72.7799 130.423L72.7777 130.426C71.8641 131.483 71.3926 132.896 71.5208 134.263C71.6498 135.284 72.0806 136.264 72.6099 137.227C73.2073 138.298 73.9285 139.307 74.7058 140.287L74.7068 140.288C75.4159 141.188 76.1775 142.05 76.978 142.879C76.9857 142.887 76.9933 142.894 77.0008 142.902C77.0138 142.889 77.0272 142.875 77.0407 142.862C77.7639 142.114 78.451 141.332 79.1072 140.525C80.1819 139.182 81.1726 137.8 81.8686 136.283C82.1418 135.678 82.3557 135.064 82.4567 134.44C82.6681 132.906 82.0929 131.285 80.9792 130.161Z" fill="#FF2222" stroke="#524A2D"/>
<circle cx="78.1998" cy="132.8" r="1.9" fill="#D7C99C" stroke="#524A2D"/>
<path d="M128.979 85.1615L128.979 85.1615L128.975 85.1576C128.072 84.2265 126.807 83.6279 125.495 83.5223C125.483 83.5216 125.469 83.5213 125.444 83.5208C125.441 83.5207 125.438 83.5206 125.434 83.5206C125.389 83.5198 125.305 83.5182 125.209 83.5H124.785C124.68 83.5185 124.584 83.5212 124.524 83.523C124.52 83.5231 124.516 83.5232 124.512 83.5233C124.435 83.5256 124.405 83.5276 124.381 83.5321L124.361 83.5359L124.341 83.5382C122.966 83.6898 121.663 84.3864 120.78 85.423L120.78 85.423L120.778 85.4255C119.864 86.4827 119.393 87.8965 119.521 89.2634C119.65 90.2843 120.081 91.2645 120.61 92.2272C121.207 93.2981 121.928 94.3073 122.706 95.2871L122.707 95.2883C123.416 96.1878 124.178 97.0498 124.978 97.8787C124.986 97.8866 124.993 97.8945 125.001 97.9023C125.014 97.8888 125.027 97.8751 125.041 97.8615C125.764 97.1144 126.451 96.3324 127.107 95.5247C128.182 94.1822 129.173 92.8 129.869 91.2832C130.142 90.6779 130.356 90.0642 130.457 89.4405C130.668 87.9063 130.093 86.2847 128.979 85.1615Z" fill="#FF2222" stroke="#524A2D"/>
<circle cx="126.2" cy="87.7999" r="1.9" fill="#D7C99C" stroke="#524A2D"/>
</g>
<defs>
<clipPath id="clip0">
<rect width="906" height="527" fill="white"/>
</clipPath>
</defs>
</svg>
