<svg width="906" height="527" viewBox="0 0 906 527" fill="none" xmlns="http://www.w3.org/2000/svg">
<g clip-path="url(#clip0)">
<path d="M588.979 429.161L588.979 429.162L588.975 429.158C588.072 428.226 586.807 427.628 585.495 427.522C585.483 427.522 585.469 427.521 585.444 427.521C585.441 427.521 585.438 427.521 585.434 427.521C585.389 427.52 585.305 427.518 585.209 427.5H584.785C584.68 427.519 584.584 427.521 584.524 427.523C584.52 427.523 584.516 427.523 584.512 427.523C584.435 427.526 584.405 427.528 584.381 427.532L584.361 427.536L584.341 427.538C582.966 427.69 581.663 428.386 580.78 429.423L580.78 429.423L580.778 429.426C579.864 430.483 579.393 431.896 579.521 433.263C579.65 434.284 580.081 435.264 580.61 436.227C581.207 437.298 581.928 438.307 582.706 439.287L582.707 439.288C583.416 440.188 584.178 441.05 584.978 441.879C584.986 441.887 584.993 441.894 585.001 441.902C585.014 441.889 585.027 441.875 585.041 441.862C585.764 441.114 586.451 440.332 587.107 439.525C588.182 438.182 589.173 436.8 589.869 435.283C590.142 434.678 590.356 434.064 590.457 433.44C590.668 431.906 590.093 430.285 588.979 429.161Z" fill="white" stroke="#524A2D"/>
<circle cx="586.2" cy="431.8" r="1.9" fill="#D7C99C" stroke="#524A2D"/>
<path d="M569.979 432.161L569.979 432.162L569.975 432.158C569.072 431.226 567.807 430.628 566.495 430.522C566.483 430.522 566.469 430.521 566.444 430.521C566.441 430.521 566.438 430.521 566.434 430.521C566.389 430.52 566.305 430.518 566.209 430.5H565.785C565.68 430.519 565.584 430.521 565.524 430.523C565.52 430.523 565.516 430.523 565.512 430.523C565.435 430.526 565.405 430.528 565.381 430.532L565.361 430.536L565.341 430.538C563.966 430.69 562.663 431.386 561.78 432.423L561.78 432.423L561.778 432.426C560.864 433.483 560.393 434.896 560.521 436.263C560.65 437.284 561.081 438.264 561.61 439.227C562.207 440.298 562.928 441.307 563.706 442.287L563.707 442.288C564.416 443.188 565.178 444.05 565.978 444.879C565.986 444.887 565.993 444.894 566.001 444.902C566.014 444.889 566.027 444.875 566.041 444.862C566.764 444.114 567.451 443.332 568.107 442.525C569.182 441.182 570.173 439.8 570.869 438.283C571.142 437.678 571.356 437.064 571.457 436.44C571.668 434.906 571.093 433.285 569.979 432.161Z" fill="white" stroke="#524A2D"/>
<circle cx="567.2" cy="434.8" r="1.9" fill="#D7C99C" stroke="#524A2D"/>
<path d="M579.979 442.161L579.979 442.162L579.975 442.158C579.072 441.226 577.807 440.628 576.495 440.522C576.483 440.522 576.469 440.521 576.444 440.521C576.441 440.521 576.438 440.521 576.434 440.521C576.389 440.52 576.305 440.518 576.209 440.5H575.785C575.68 440.519 575.584 440.521 575.524 440.523C575.52 440.523 575.516 440.523 575.512 440.523C575.435 440.526 575.405 440.528 575.381 440.532L575.361 440.536L575.341 440.538C573.966 440.69 572.663 441.386 571.78 442.423L571.78 442.423L571.778 442.426C570.864 443.483 570.393 444.896 570.521 446.263C570.65 447.284 571.081 448.264 571.61 449.227C572.207 450.298 572.928 451.307 573.706 452.287L573.707 452.288C574.416 453.188 575.178 454.05 575.978 454.879C575.986 454.887 575.993 454.894 576.001 454.902C576.014 454.889 576.027 454.875 576.041 454.862C576.764 454.114 577.451 453.332 578.107 452.525C579.182 451.182 580.173 449.8 580.869 448.283C581.142 447.678 581.356 447.064 581.457 446.44C581.668 444.906 581.093 443.285 579.979 442.161Z" fill="white" stroke="#524A2D"/>
<circle cx="577.2" cy="444.8" r="1.9" fill="#D7C99C" stroke="#524A2D"/>
<path d="M246.979 282.161L246.979 282.162L246.975 282.158C246.072 281.226 244.807 280.628 243.495 280.522C243.483 280.522 243.469 280.521 243.444 280.521C243.441 280.521 243.438 280.521 243.434 280.521C243.389 280.52 243.305 280.518 243.209 280.5H242.785C242.68 280.519 242.584 280.521 242.524 280.523C242.52 280.523 242.516 280.523 242.512 280.523C242.435 280.526 242.405 280.528 242.381 280.532L242.361 280.536L242.341 280.538C240.966 280.69 239.663 281.386 238.78 282.423L238.78 282.423L238.778 282.426C237.864 283.483 237.393 284.896 237.521 286.263C237.65 287.284 238.081 288.264 238.61 289.227C239.207 290.298 239.928 291.307 240.706 292.287L240.707 292.288C241.416 293.188 242.178 294.05 242.978 294.879C242.986 294.887 242.993 294.894 243.001 294.902C243.014 294.889 243.027 294.875 243.041 294.862C243.764 294.114 244.451 293.332 245.107 292.525C246.182 291.182 247.173 289.8 247.869 288.283C248.142 287.678 248.356 287.064 248.457 286.44C248.668 284.906 248.093 283.285 246.979 282.161Z" fill="white" stroke="#524A2D"/>
<circle cx="244.2" cy="284.8" r="1.9" fill="#D7C99C" stroke="#524A2D"/>
<path d="M306.979 289.161L306.979 289.162L306.975 289.158C306.072 288.226 304.807 287.628 303.495 287.522C303.483 287.522 303.469 287.521 303.444 287.521C303.441 287.521 303.438 287.521 303.434 287.521C303.389 287.52 303.305 287.518 303.209 287.5H302.785C302.68 287.519 302.584 287.521 302.524 287.523C302.52 287.523 302.516 287.523 302.512 287.523C302.435 287.526 302.405 287.528 302.381 287.532L302.361 287.536L302.341 287.538C300.966 287.69 299.663 288.386 298.78 289.423L298.78 289.423L298.778 289.426C297.864 290.483 297.393 291.896 297.521 293.263C297.65 294.284 298.081 295.264 298.61 296.227C299.207 297.298 299.928 298.307 300.706 299.287L300.707 299.288C301.416 300.188 302.178 301.05 302.978 301.879C302.986 301.887 302.993 301.894 303.001 301.902C303.014 301.889 303.027 301.875 303.041 301.862C303.764 301.114 304.451 300.332 305.107 299.525C306.182 298.182 307.173 296.8 307.869 295.283C308.142 294.678 308.356 294.064 308.457 293.44C308.668 291.906 308.093 290.285 306.979 289.161Z" fill="white" stroke="#524A2D"/>
<circle cx="304.2" cy="291.8" r="1.9" fill="#D7C99C" stroke="#524A2D"/>
<path d="M260.979 258.161L260.979 258.162L260.975 258.158C260.072 257.226 258.807 256.628 257.495 256.522C257.483 256.522 257.469 256.521 257.444 256.521C257.441 256.521 257.438 256.521 257.434 256.521C257.389 256.52 257.305 256.518 257.209 256.5H256.785C256.68 256.519 256.584 256.521 256.524 256.523C256.52 256.523 256.516 256.523 256.512 256.523C256.435 256.526 256.405 256.528 256.381 256.532L256.361 256.536L256.341 256.538C254.966 256.69 253.663 257.386 252.78 258.423L252.78 258.423L252.778 258.426C251.864 259.483 251.393 260.896 251.521 262.263C251.65 263.284 252.081 264.264 252.61 265.227C253.207 266.298 253.928 267.307 254.706 268.287L254.707 268.288C255.416 269.188 256.178 270.05 256.978 270.879C256.986 270.887 256.993 270.894 257.001 270.902C257.014 270.889 257.027 270.875 257.041 270.862C257.764 270.114 258.451 269.332 259.107 268.525C260.182 267.182 261.173 265.8 261.869 264.283C262.142 263.678 262.356 263.064 262.457 262.44C262.668 260.906 262.093 259.285 260.979 258.161Z" fill="white" stroke="#524A2D"/>
<circle cx="258.2" cy="260.8" r="1.9" fill="#D7C99C" stroke="#524A2D"/>
<path d="M273.979 257.161L273.979 257.162L273.975 257.158C273.072 256.226 271.807 255.628 270.495 255.522C270.483 255.522 270.469 255.521 270.444 255.521C270.441 255.521 270.438 255.521 270.434 255.521C270.389 255.52 270.305 255.518 270.209 255.5H269.785C269.68 255.519 269.584 255.521 269.524 255.523C269.52 255.523 269.516 255.523 269.512 255.523C269.435 255.526 269.405 255.528 269.381 255.532L269.361 255.536L269.341 255.538C267.966 255.69 266.663 256.386 265.78 257.423L265.78 257.423L265.778 257.426C264.864 258.483 264.393 259.896 264.521 261.263C264.65 262.284 265.081 263.264 265.61 264.227C266.207 265.298 266.928 266.307 267.706 267.287L267.707 267.288C268.416 268.188 269.178 269.05 269.978 269.879C269.986 269.887 269.993 269.894 270.001 269.902C270.014 269.889 270.027 269.875 270.041 269.862C270.764 269.114 271.451 268.332 272.107 267.525C273.182 266.182 274.173 264.8 274.869 263.283C275.142 262.678 275.356 262.064 275.457 261.44C275.668 259.906 275.093 258.285 273.979 257.161Z" fill="white" stroke="#524A2D"/>
<circle cx="271.2" cy="259.8" r="1.9" fill="#D7C99C" stroke="#524A2D"/>
<path d="M286.979 262.161L286.979 262.162L286.975 262.158C286.072 261.226 284.807 260.628 283.495 260.522C283.483 260.522 283.469 260.521 283.444 260.521C283.441 260.521 283.438 260.521 283.434 260.521C283.389 260.52 283.305 260.518 283.209 260.5H282.785C282.68 260.519 282.584 260.521 282.524 260.523C282.52 260.523 282.516 260.523 282.512 260.523C282.435 260.526 282.405 260.528 282.381 260.532L282.361 260.536L282.341 260.538C280.966 260.69 279.663 261.386 278.78 262.423L278.78 262.423L278.778 262.426C277.864 263.483 277.393 264.896 277.521 266.263C277.65 267.284 278.081 268.264 278.61 269.227C279.207 270.298 279.928 271.307 280.706 272.287L280.707 272.288C281.416 273.188 282.178 274.05 282.978 274.879C282.986 274.887 282.993 274.894 283.001 274.902C283.014 274.889 283.027 274.875 283.041 274.862C283.764 274.114 284.451 273.332 285.107 272.525C286.182 271.182 287.173 269.8 287.869 268.283C288.142 267.678 288.356 267.064 288.457 266.44C288.668 264.906 288.093 263.285 286.979 262.161Z" fill="white" stroke="#524A2D"/>
<circle cx="284.2" cy="264.8" r="1.9" fill="#D7C99C" stroke="#524A2D"/>
<path d="M594.979 396.161L594.979 396.162L594.975 396.158C594.072 395.226 592.807 394.628 591.495 394.522C591.483 394.522 591.469 394.521 591.444 394.521C591.441 394.521 591.438 394.521 591.434 394.521C591.389 394.52 591.305 394.518 591.209 394.5H590.785C590.68 394.519 590.584 394.521 590.524 394.523C590.52 394.523 590.516 394.523 590.512 394.523C590.435 394.526 590.405 394.528 590.381 394.532L590.361 394.536L590.341 394.538C588.966 394.69 587.663 395.386 586.78 396.423L586.78 396.423L586.778 396.426C585.864 397.483 585.393 398.896 585.521 400.263C585.65 401.284 586.081 402.264 586.61 403.227C587.207 404.298 587.928 405.307 588.706 406.287L588.707 406.288C589.416 407.188 590.178 408.05 590.978 408.879C590.986 408.887 590.993 408.894 591.001 408.902C591.014 408.889 591.027 408.875 591.041 408.862C591.764 408.114 592.451 407.332 593.107 406.525C594.182 405.182 595.173 403.8 595.869 402.283C596.142 401.678 596.356 401.064 596.457 400.44C596.668 398.906 596.093 397.285 594.979 396.161Z" fill="white" stroke="#524A2D"/>
<circle cx="592.2" cy="398.8" r="1.9" fill="#D7C99C" stroke="#524A2D"/>
<path d="M610.979 393.161L610.979 393.162L610.975 393.158C610.072 392.226 608.807 391.628 607.495 391.522C607.483 391.522 607.469 391.521 607.444 391.521C607.441 391.521 607.438 391.521 607.434 391.521C607.389 391.52 607.305 391.518 607.209 391.5H606.785C606.68 391.519 606.584 391.521 606.524 391.523C606.52 391.523 606.516 391.523 606.512 391.523C606.435 391.526 606.405 391.528 606.381 391.532L606.361 391.536L606.341 391.538C604.966 391.69 603.663 392.386 602.78 393.423L602.78 393.423L602.778 393.426C601.864 394.483 601.393 395.896 601.521 397.263C601.65 398.284 602.081 399.264 602.61 400.227C603.207 401.298 603.928 402.307 604.706 403.287L604.707 403.288C605.416 404.188 606.178 405.05 606.978 405.879C606.986 405.887 606.993 405.894 607.001 405.902C607.014 405.889 607.027 405.875 607.041 405.862C607.764 405.114 608.451 404.332 609.107 403.525C610.182 402.182 611.173 400.8 611.869 399.283C612.142 398.678 612.356 398.064 612.457 397.44C612.668 395.906 612.093 394.285 610.979 393.161Z" fill="white" stroke="#524A2D"/>
<circle cx="608.2" cy="395.8" r="1.9" fill="#D7C99C" stroke="#524A2D"/>
<path d="M604.979 409.161L604.979 409.162L604.975 409.158C604.072 408.226 602.807 407.628 601.495 407.522C601.483 407.522 601.469 407.521 601.444 407.521C601.441 407.521 601.438 407.521 601.434 407.521C601.389 407.52 601.305 407.518 601.209 407.5H600.785C600.68 407.519 600.584 407.521 600.524 407.523C600.52 407.523 600.516 407.523 600.512 407.523C600.435 407.526 600.405 407.528 600.381 407.532L600.361 407.536L600.341 407.538C598.966 407.69 597.663 408.386 596.78 409.423L596.78 409.423L596.778 409.426C595.864 410.483 595.393 411.896 595.521 413.263C595.65 414.284 596.081 415.264 596.61 416.227C597.207 417.298 597.928 418.307 598.706 419.287L598.707 419.288C599.416 420.188 600.178 421.05 600.978 421.879C600.986 421.887 600.993 421.894 601.001 421.902C601.014 421.889 601.027 421.875 601.041 421.862C601.764 421.114 602.451 420.332 603.107 419.525C604.182 418.182 605.173 416.8 605.869 415.283C606.142 414.678 606.356 414.064 606.457 413.44C606.668 411.906 606.093 410.285 604.979 409.161Z" fill="white" stroke="#524A2D"/>
<circle cx="602.2" cy="411.8" r="1.9" fill="#D7C99C" stroke="#524A2D"/>
<path d="M521.979 381.161L521.979 381.162L521.975 381.158C521.072 380.226 519.807 379.628 518.495 379.522C518.483 379.522 518.469 379.521 518.444 379.521C518.441 379.521 518.438 379.521 518.434 379.521C518.389 379.52 518.305 379.518 518.209 379.5H517.785C517.68 379.519 517.584 379.521 517.524 379.523C517.52 379.523 517.516 379.523 517.512 379.523C517.435 379.526 517.405 379.528 517.381 379.532L517.361 379.536L517.341 379.538C515.966 379.69 514.663 380.386 513.78 381.423L513.78 381.423L513.778 381.426C512.864 382.483 512.393 383.896 512.521 385.263C512.65 386.284 513.081 387.264 513.61 388.227C514.207 389.298 514.928 390.307 515.706 391.287L515.707 391.288C516.416 392.188 517.178 393.05 517.978 393.879C517.986 393.887 517.993 393.894 518.001 393.902C518.014 393.889 518.027 393.875 518.041 393.862C518.764 393.114 519.451 392.332 520.107 391.525C521.182 390.182 522.173 388.8 522.869 387.283C523.142 386.678 523.356 386.064 523.457 385.44C523.668 383.906 523.093 382.285 521.979 381.161Z" fill="white" stroke="#524A2D"/>
<circle cx="519.2" cy="383.8" r="1.9" fill="#D7C99C" stroke="#524A2D"/>
<path d="M509.979 380.161L509.979 380.162L509.975 380.158C509.072 379.226 507.807 378.628 506.495 378.522C506.483 378.522 506.469 378.521 506.444 378.521C506.441 378.521 506.438 378.521 506.434 378.521C506.389 378.52 506.305 378.518 506.209 378.5H505.785C505.68 378.519 505.584 378.521 505.524 378.523C505.52 378.523 505.516 378.523 505.512 378.523C505.435 378.526 505.405 378.528 505.381 378.532L505.361 378.536L505.341 378.538C503.966 378.69 502.663 379.386 501.78 380.423L501.78 380.423L501.778 380.426C500.864 381.483 500.393 382.896 500.521 384.263C500.65 385.284 501.081 386.264 501.61 387.227C502.207 388.298 502.928 389.307 503.706 390.287L503.707 390.288C504.416 391.188 505.178 392.05 505.978 392.879C505.986 392.887 505.993 392.894 506.001 392.902C506.014 392.889 506.027 392.875 506.041 392.862C506.764 392.114 507.451 391.332 508.107 390.525C509.182 389.182 510.173 387.8 510.869 386.283C511.142 385.678 511.356 385.064 511.457 384.44C511.668 382.906 511.093 381.285 509.979 380.161Z" fill="white" stroke="#524A2D"/>
<circle cx="507.2" cy="382.8" r="1.9" fill="#D7C99C" stroke="#524A2D"/>
<path d="M460.979 390.161L460.979 390.162L460.975 390.158C460.072 389.226 458.807 388.628 457.495 388.522C457.483 388.522 457.469 388.521 457.444 388.521C457.441 388.521 457.438 388.521 457.434 388.521C457.389 388.52 457.305 388.518 457.209 388.5H456.785C456.68 388.519 456.584 388.521 456.524 388.523C456.52 388.523 456.516 388.523 456.512 388.523C456.435 388.526 456.405 388.528 456.381 388.532L456.361 388.536L456.341 388.538C454.966 388.69 453.663 389.386 452.78 390.423L452.78 390.423L452.778 390.426C451.864 391.483 451.393 392.896 451.521 394.263C451.65 395.284 452.081 396.264 452.61 397.227C453.207 398.298 453.928 399.307 454.706 400.287L454.707 400.288C455.416 401.188 456.178 402.05 456.978 402.879C456.986 402.887 456.993 402.894 457.001 402.902C457.014 402.889 457.027 402.875 457.041 402.862C457.764 402.114 458.451 401.332 459.107 400.525C460.182 399.182 461.173 397.8 461.869 396.283C462.142 395.678 462.356 395.064 462.457 394.44C462.668 392.906 462.093 391.285 460.979 390.161Z" fill="white" stroke="#524A2D"/>
<circle cx="458.2" cy="392.8" r="1.9" fill="#D7C99C" stroke="#524A2D"/>
<path d="M427.979 386.161L427.979 386.162L427.975 386.158C427.072 385.226 425.807 384.628 424.495 384.522C424.483 384.522 424.469 384.521 424.444 384.521C424.441 384.521 424.438 384.521 424.434 384.521C424.389 384.52 424.305 384.518 424.209 384.5H423.785C423.68 384.519 423.584 384.521 423.524 384.523C423.52 384.523 423.516 384.523 423.512 384.523C423.435 384.526 423.405 384.528 423.381 384.532L423.361 384.536L423.341 384.538C421.966 384.69 420.663 385.386 419.78 386.423L419.78 386.423L419.778 386.426C418.864 387.483 418.393 388.896 418.521 390.263C418.65 391.284 419.081 392.264 419.61 393.227C420.207 394.298 420.928 395.307 421.706 396.287L421.707 396.288C422.416 397.188 423.178 398.05 423.978 398.879C423.986 398.887 423.993 398.894 424.001 398.902C424.014 398.889 424.027 398.875 424.041 398.862C424.764 398.114 425.451 397.332 426.107 396.525C427.182 395.182 428.173 393.8 428.869 392.283C429.142 391.678 429.356 391.064 429.457 390.44C429.668 388.906 429.093 387.285 427.979 386.161Z" fill="white" stroke="#524A2D"/>
<circle cx="425.2" cy="388.8" r="1.9" fill="#D7C99C" stroke="#524A2D"/>
<path d="M49.9792 177.161L49.9792 177.162L49.9755 177.158C49.072 176.226 47.8069 175.628 46.4951 175.522C46.483 175.522 46.4687 175.521 46.4444 175.521C46.4411 175.521 46.4376 175.521 46.4338 175.521C46.3888 175.52 46.3045 175.518 46.2093 175.5H45.7851C45.6805 175.519 45.5844 175.521 45.524 175.523C45.5199 175.523 45.516 175.523 45.5123 175.523C45.4349 175.526 45.4046 175.528 45.3812 175.532L45.3613 175.536L45.3412 175.538C43.9662 175.69 42.6635 176.386 41.7799 177.423L41.7799 177.423L41.7777 177.426C40.8641 178.483 40.3926 179.896 40.5208 181.263C40.6498 182.284 41.0806 183.264 41.6099 184.227C42.2073 185.298 42.9285 186.307 43.7058 187.287L43.7068 187.288C44.4159 188.188 45.1775 189.05 45.978 189.879C45.9857 189.887 45.9933 189.894 46.0008 189.902C46.0138 189.889 46.0272 189.875 46.0407 189.862C46.7639 189.114 47.451 188.332 48.1072 187.525C49.1819 186.182 50.1726 184.8 50.8686 183.283C51.1418 182.678 51.3557 182.064 51.4567 181.44C51.6681 179.906 51.0929 178.285 49.9792 177.161Z" fill="white" stroke="#524A2D"/>
<circle cx="47.1998" cy="179.8" r="1.9" fill="#D7C99C" stroke="#524A2D"/>
<path d="M100.979 230.161L100.979 230.162L100.975 230.158C100.072 229.226 98.8069 228.628 97.4951 228.522C97.483 228.522 97.4687 228.521 97.4444 228.521C97.4411 228.521 97.4376 228.521 97.4338 228.521C97.3888 228.52 97.3045 228.518 97.2093 228.5H96.7851C96.6805 228.519 96.5844 228.521 96.524 228.523C96.5199 228.523 96.516 228.523 96.5123 228.523C96.4349 228.526 96.4046 228.528 96.3812 228.532L96.3613 228.536L96.3412 228.538C94.9662 228.69 93.6635 229.386 92.7799 230.423L92.7799 230.423L92.7777 230.426C91.8641 231.483 91.3926 232.896 91.5208 234.263C91.6498 235.284 92.0806 236.264 92.6099 237.227C93.2073 238.298 93.9285 239.307 94.7058 240.287L94.7068 240.288C95.4159 241.188 96.1775 242.05 96.978 242.879C96.9857 242.887 96.9933 242.894 97.0008 242.902C97.0138 242.889 97.0272 242.875 97.0407 242.862C97.7639 242.114 98.451 241.332 99.1072 240.525C100.182 239.182 101.173 237.8 101.869 236.283C102.142 235.678 102.356 235.064 102.457 234.44C102.668 232.906 102.093 231.285 100.979 230.161Z" fill="white" stroke="#524A2D"/>
<circle cx="98.1998" cy="232.8" r="1.9" fill="#D7C99C" stroke="#524A2D"/>
<path d="M62.9792 150.161L62.9792 150.162L62.9755 150.158C62.072 149.226 60.8069 148.628 59.4951 148.522C59.483 148.522 59.4687 148.521 59.4444 148.521C59.4411 148.521 59.4376 148.521 59.4338 148.521C59.3888 148.52 59.3045 148.518 59.2093 148.5H58.7851C58.6805 148.519 58.5844 148.521 58.524 148.523C58.5199 148.523 58.516 148.523 58.5123 148.523C58.4349 148.526 58.4046 148.528 58.3812 148.532L58.3613 148.536L58.3412 148.538C56.9662 148.69 55.6635 149.386 54.7799 150.423L54.7799 150.423L54.7777 150.426C53.8641 151.483 53.3926 152.896 53.5208 154.263C53.6498 155.284 54.0806 156.264 54.6099 157.227C55.2073 158.298 55.9285 159.307 56.7058 160.287L56.7068 160.288C57.4159 161.188 58.1775 162.05 58.978 162.879C58.9857 162.887 58.9933 162.894 59.0008 162.902C59.0138 162.889 59.0272 162.875 59.0407 162.862C59.7639 162.114 60.451 161.332 61.1072 160.525C62.1819 159.182 63.1726 157.8 63.8686 156.283C64.1418 155.678 64.3557 155.064 64.4567 154.44C64.6681 152.906 64.0929 151.285 62.9792 150.161Z" fill="white" stroke="#524A2D"/>
<circle cx="60.1998" cy="152.8" r="1.9" fill="#D7C99C" stroke="#524A2D"/>
<path d="M135.979 154.161L135.979 154.162L135.975 154.158C135.072 153.226 133.807 152.628 132.495 152.522C132.483 152.522 132.469 152.521 132.444 152.521C132.441 152.521 132.438 152.521 132.434 152.521C132.389 152.52 132.305 152.518 132.209 152.5H131.785C131.68 152.519 131.584 152.521 131.524 152.523C131.52 152.523 131.516 152.523 131.512 152.523C131.435 152.526 131.405 152.528 131.381 152.532L131.361 152.536L131.341 152.538C129.966 152.69 128.663 153.386 127.78 154.423L127.78 154.423L127.778 154.426C126.864 155.483 126.393 156.896 126.521 158.263C126.65 159.284 127.081 160.264 127.61 161.227C128.207 162.298 128.928 163.307 129.706 164.287L129.707 164.288C130.416 165.188 131.178 166.05 131.978 166.879C131.986 166.887 131.993 166.894 132.001 166.902C132.014 166.889 132.027 166.875 132.041 166.862C132.764 166.114 133.451 165.332 134.107 164.525C135.182 163.182 136.173 161.8 136.869 160.283C137.142 159.678 137.356 159.064 137.457 158.44C137.668 156.906 137.093 155.285 135.979 154.161Z" fill="white" stroke="#524A2D"/>
<circle cx="133.2" cy="156.8" r="1.9" fill="#D7C99C" stroke="#524A2D"/>
<path d="M116.979 135.161L116.979 135.162L116.975 135.158C116.072 134.226 114.807 133.628 113.495 133.522C113.483 133.522 113.469 133.521 113.444 133.521C113.441 133.521 113.438 133.521 113.434 133.521C113.389 133.52 113.305 133.518 113.209 133.5H112.785C112.68 133.519 112.584 133.521 112.524 133.523C112.52 133.523 112.516 133.523 112.512 133.523C112.435 133.526 112.405 133.528 112.381 133.532L112.361 133.536L112.341 133.538C110.966 133.69 109.663 134.386 108.78 135.423L108.78 135.423L108.778 135.426C107.864 136.483 107.393 137.896 107.521 139.263C107.65 140.284 108.081 141.264 108.61 142.227C109.207 143.298 109.928 144.307 110.706 145.287L110.707 145.288C111.416 146.188 112.178 147.05 112.978 147.879C112.986 147.887 112.993 147.894 113.001 147.902C113.014 147.889 113.027 147.875 113.041 147.862C113.764 147.114 114.451 146.332 115.107 145.525C116.182 144.182 117.173 142.8 117.869 141.283C118.142 140.678 118.356 140.064 118.457 139.44C118.668 137.906 118.093 136.285 116.979 135.161Z" fill="white" stroke="#524A2D"/>
<circle cx="114.2" cy="137.8" r="1.9" fill="#D7C99C" stroke="#524A2D"/>
<path d="M115.979 85.1615L115.979 85.1615L115.975 85.1576C115.072 84.2265 113.807 83.6279 112.495 83.5223C112.483 83.5216 112.469 83.5213 112.444 83.5208C112.441 83.5207 112.438 83.5206 112.434 83.5206C112.389 83.5198 112.305 83.5182 112.209 83.5H111.785C111.68 83.5185 111.584 83.5212 111.524 83.523C111.52 83.5231 111.516 83.5232 111.512 83.5233C111.435 83.5256 111.405 83.5276 111.381 83.5321L111.361 83.5359L111.341 83.5382C109.966 83.6898 108.663 84.3864 107.78 85.423L107.78 85.423L107.778 85.4255C106.864 86.4827 106.393 87.8965 106.521 89.2634C106.65 90.2843 107.081 91.2645 107.61 92.2272C108.207 93.2981 108.928 94.3073 109.706 95.2871L109.707 95.2883C110.416 96.1878 111.178 97.0498 111.978 97.8787C111.986 97.8866 111.993 97.8945 112.001 97.9023C112.014 97.8888 112.027 97.8751 112.041 97.8615C112.764 97.1144 113.451 96.3324 114.107 95.5247C115.182 94.1822 116.173 92.8 116.869 91.2832C117.142 90.6779 117.356 90.0642 117.457 89.4405C117.668 87.9063 117.093 86.2847 115.979 85.1615Z" fill="white" stroke="#524A2D"/>
<circle cx="113.2" cy="87.7999" r="1.9" fill="#D7C99C" stroke="#524A2D"/>
<path d="M104.979 80.1615L104.979 80.1615L104.975 80.1576C104.072 79.2265 102.807 78.6279 101.495 78.5223C101.483 78.5216 101.469 78.5213 101.444 78.5208C101.441 78.5207 101.438 78.5206 101.434 78.5206C101.389 78.5198 101.305 78.5182 101.209 78.5H100.785C100.68 78.5185 100.584 78.5212 100.524 78.523C100.52 78.5231 100.516 78.5232 100.512 78.5233C100.435 78.5256 100.405 78.5276 100.381 78.5321L100.361 78.5359L100.341 78.5382C98.9662 78.6898 97.6635 79.3864 96.7799 80.423L96.7799 80.423L96.7777 80.4255C95.8641 81.4827 95.3926 82.8965 95.5208 84.2634C95.6498 85.2843 96.0806 86.2645 96.6099 87.2272C97.2073 88.2981 97.9285 89.3073 98.7058 90.2871L98.7068 90.2883C99.4159 91.1878 100.178 92.0498 100.978 92.8787C100.986 92.8866 100.993 92.8945 101.001 92.9023C101.014 92.8888 101.027 92.8751 101.041 92.8615C101.764 92.1144 102.451 91.3324 103.107 90.5247C104.182 89.1822 105.173 87.8 105.869 86.2832C106.142 85.6779 106.356 85.0642 106.457 84.4405C106.668 82.9063 106.093 81.2847 104.979 80.1615Z" fill="white" stroke="#524A2D"/>
<circle cx="102.2" cy="82.7999" r="1.9" fill="#D7C99C" stroke="#524A2D"/>
<path d="M93.9792 75.1615L93.9792 75.1615L93.9755 75.1576C93.072 74.2265 91.8069 73.6279 90.4951 73.5223C90.483 73.5216 90.4687 73.5213 90.4444 73.5208C90.4411 73.5207 90.4376 73.5206 90.4338 73.5206C90.3888 73.5198 90.3045 73.5182 90.2093 73.5H89.7851C89.6805 73.5185 89.5844 73.5212 89.524 73.523C89.5199 73.5231 89.516 73.5232 89.5123 73.5233C89.4349 73.5256 89.4046 73.5276 89.3812 73.5321L89.3613 73.5359L89.3412 73.5382C87.9662 73.6898 86.6635 74.3864 85.7799 75.423L85.7799 75.423L85.7777 75.4255C84.8641 76.4827 84.3926 77.8965 84.5208 79.2634C84.6498 80.2843 85.0806 81.2645 85.6099 82.2272C86.2073 83.2981 86.9285 84.3073 87.7058 85.2871L87.7068 85.2883C88.4159 86.1878 89.1775 87.0498 89.978 87.8787C89.9857 87.8866 89.9933 87.8945 90.0008 87.9023C90.0138 87.8888 90.0272 87.8751 90.0407 87.8615C90.7639 87.1144 91.451 86.3324 92.1072 85.5247C93.1819 84.1822 94.1726 82.8 94.8686 81.2832C95.1418 80.6779 95.3557 80.0642 95.4567 79.4405C95.6681 77.9063 95.0929 76.2847 93.9792 75.1615Z" fill="white" stroke="#524A2D"/>
<circle cx="91.1998" cy="77.7999" r="1.9" fill="#D7C99C" stroke="#524A2D"/>
<path d="M86.9792 98.1615L86.9792 98.1615L86.9755 98.1576C86.072 97.2265 84.8069 96.6279 83.4951 96.5223C83.483 96.5216 83.4687 96.5213 83.4444 96.5208C83.4411 96.5207 83.4376 96.5206 83.4338 96.5206C83.3888 96.5198 83.3045 96.5182 83.2093 96.5H82.7851C82.6805 96.5185 82.5844 96.5212 82.524 96.523C82.5199 96.5231 82.516 96.5232 82.5123 96.5233C82.4349 96.5256 82.4046 96.5276 82.3812 96.5321L82.3613 96.5359L82.3412 96.5382C80.9662 96.6898 79.6635 97.3864 78.7799 98.423L78.7799 98.423L78.7777 98.4255C77.8641 99.4827 77.3926 100.896 77.5208 102.263C77.6498 103.284 78.0806 104.264 78.6099 105.227C79.2073 106.298 79.9285 107.307 80.7058 108.287L80.7068 108.288C81.4159 109.188 82.1775 110.05 82.978 110.879C82.9857 110.887 82.9933 110.894 83.0008 110.902C83.0138 110.889 83.0272 110.875 83.0407 110.862C83.7639 110.114 84.451 109.332 85.1072 108.525C86.1819 107.182 87.1726 105.8 87.8686 104.283C88.1418 103.678 88.3557 103.064 88.4567 102.44C88.6681 100.906 88.0929 99.2847 86.9792 98.1615Z" fill="white" stroke="#524A2D"/>
<circle cx="84.1998" cy="100.8" r="1.9" fill="#D7C99C" stroke="#524A2D"/>
<path d="M93.9792 104.161L93.9792 104.162L93.9755 104.158C93.072 103.226 91.8069 102.628 90.4951 102.522C90.483 102.522 90.4687 102.521 90.4444 102.521C90.4411 102.521 90.4376 102.521 90.4338 102.521C90.3888 102.52 90.3045 102.518 90.2093 102.5H89.7851C89.6805 102.519 89.5844 102.521 89.524 102.523C89.5199 102.523 89.516 102.523 89.5123 102.523C89.4349 102.526 89.4046 102.528 89.3812 102.532L89.3613 102.536L89.3412 102.538C87.9662 102.69 86.6635 103.386 85.7799 104.423L85.7799 104.423L85.7777 104.426C84.8641 105.483 84.3926 106.896 84.5208 108.263C84.6498 109.284 85.0806 110.264 85.6099 111.227C86.2073 112.298 86.9285 113.307 87.7058 114.287L87.7068 114.288C88.4159 115.188 89.1775 116.05 89.978 116.879C89.9857 116.887 89.9933 116.894 90.0008 116.902C90.0138 116.889 90.0272 116.875 90.0407 116.862C90.7639 116.114 91.451 115.332 92.1072 114.525C93.1819 113.182 94.1726 111.8 94.8686 110.283C95.1418 109.678 95.3557 109.064 95.4567 108.44C95.6681 106.906 95.0929 105.285 93.9792 104.161Z" fill="white" stroke="#524A2D"/>
<circle cx="91.1998" cy="106.8" r="1.9" fill="#D7C99C" stroke="#524A2D"/>
<path d="M91.9792 117.161L91.9792 117.162L91.9755 117.158C91.072 116.226 89.8069 115.628 88.4951 115.522C88.483 115.522 88.4687 115.521 88.4444 115.521C88.4411 115.521 88.4376 115.521 88.4338 115.521C88.3888 115.52 88.3045 115.518 88.2093 115.5H87.7851C87.6805 115.519 87.5844 115.521 87.524 115.523C87.5199 115.523 87.516 115.523 87.5123 115.523C87.4349 115.526 87.4046 115.528 87.3812 115.532L87.3613 115.536L87.3412 115.538C85.9662 115.69 84.6635 116.386 83.7799 117.423L83.7799 117.423L83.7777 117.426C82.8641 118.483 82.3926 119.896 82.5208 121.263C82.6498 122.284 83.0806 123.264 83.6099 124.227C84.2073 125.298 84.9285 126.307 85.7058 127.287L85.7068 127.288C86.4159 128.188 87.1775 129.05 87.978 129.879C87.9857 129.887 87.9933 129.894 88.0008 129.902C88.0138 129.889 88.0272 129.875 88.0407 129.862C88.7639 129.114 89.451 128.332 90.1072 127.525C91.1819 126.182 92.1726 124.8 92.8686 123.283C93.1418 122.678 93.3557 122.064 93.4567 121.44C93.6681 119.906 93.0929 118.285 91.9792 117.161Z" fill="white" stroke="#524A2D"/>
<circle cx="89.1998" cy="119.8" r="1.9" fill="#D7C99C" stroke="#524A2D"/>
<path d="M102.979 120.161L102.979 120.162L102.975 120.158C102.072 119.226 100.807 118.628 99.4951 118.522C99.483 118.522 99.4687 118.521 99.4444 118.521C99.4411 118.521 99.4376 118.521 99.4338 118.521C99.3888 118.52 99.3045 118.518 99.2093 118.5H98.7851C98.6805 118.519 98.5844 118.521 98.524 118.523C98.5199 118.523 98.516 118.523 98.5123 118.523C98.4349 118.526 98.4046 118.528 98.3812 118.532L98.3613 118.536L98.3412 118.538C96.9662 118.69 95.6635 119.386 94.7799 120.423L94.7799 120.423L94.7777 120.426C93.8641 121.483 93.3926 122.896 93.5208 124.263C93.6498 125.284 94.0806 126.264 94.6099 127.227C95.2073 128.298 95.9285 129.307 96.7058 130.287L96.7068 130.288C97.4159 131.188 98.1775 132.05 98.978 132.879C98.9857 132.887 98.9933 132.894 99.0008 132.902C99.0138 132.889 99.0272 132.875 99.0407 132.862C99.7639 132.114 100.451 131.332 101.107 130.525C102.182 129.182 103.173 127.8 103.869 126.283C104.142 125.678 104.356 125.064 104.457 124.44C104.668 122.906 104.093 121.285 102.979 120.161Z" fill="white" stroke="#524A2D"/>
<circle cx="100.2" cy="122.8" r="1.9" fill="#D7C99C" stroke="#524A2D"/>
<path d="M105.979 104.161L105.979 104.162L105.975 104.158C105.072 103.226 103.807 102.628 102.495 102.522C102.483 102.522 102.469 102.521 102.444 102.521C102.441 102.521 102.438 102.521 102.434 102.521C102.389 102.52 102.305 102.518 102.209 102.5H101.785C101.68 102.519 101.584 102.521 101.524 102.523C101.52 102.523 101.516 102.523 101.512 102.523C101.435 102.526 101.405 102.528 101.381 102.532L101.361 102.536L101.341 102.538C99.9662 102.69 98.6635 103.386 97.7799 104.423L97.7799 104.423L97.7777 104.426C96.8641 105.483 96.3926 106.896 96.5208 108.263C96.6498 109.284 97.0806 110.264 97.6099 111.227C98.2073 112.298 98.9285 113.307 99.7058 114.287L99.7068 114.288C100.416 115.188 101.178 116.05 101.978 116.879C101.986 116.887 101.993 116.894 102.001 116.902C102.014 116.889 102.027 116.875 102.041 116.862C102.764 116.114 103.451 115.332 104.107 114.525C105.182 113.182 106.173 111.8 106.869 110.283C107.142 109.678 107.356 109.064 107.457 108.44C107.668 106.906 107.093 105.285 105.979 104.161Z" fill="white" stroke="#524A2D"/>
<circle cx="103.2" cy="106.8" r="1.9" fill="#D7C99C" stroke="#524A2D"/>
<path d="M105.979 130.161L105.979 130.162L105.975 130.158C105.072 129.226 103.807 128.628 102.495 128.522C102.483 128.522 102.469 128.521 102.444 128.521C102.441 128.521 102.438 128.521 102.434 128.521C102.389 128.52 102.305 128.518 102.209 128.5H101.785C101.68 128.519 101.584 128.521 101.524 128.523C101.52 128.523 101.516 128.523 101.512 128.523C101.435 128.526 101.405 128.528 101.381 128.532L101.361 128.536L101.341 128.538C99.9662 128.69 98.6635 129.386 97.7799 130.423L97.7799 130.423L97.7777 130.426C96.8641 131.483 96.3926 132.896 96.5208 134.263C96.6498 135.284 97.0806 136.264 97.6099 137.227C98.2073 138.298 98.9285 139.307 99.7058 140.287L99.7068 140.288C100.416 141.188 101.178 142.05 101.978 142.879C101.986 142.887 101.993 142.894 102.001 142.902C102.014 142.889 102.027 142.875 102.041 142.862C102.764 142.114 103.451 141.332 104.107 140.525C105.182 139.182 106.173 137.8 106.869 136.283C107.142 135.678 107.356 135.064 107.457 134.44C107.668 132.906 107.093 131.285 105.979 130.161Z" fill="white" stroke="#524A2D"/>
<circle cx="103.2" cy="132.8" r="1.9" fill="#D7C99C" stroke="#524A2D"/>
<path d="M93.9792 130.161L93.9792 130.162L93.9755 130.158C93.072 129.226 91.8069 128.628 90.4951 128.522C90.483 128.522 90.4687 128.521 90.4444 128.521C90.4411 128.521 90.4376 128.521 90.4338 128.521C90.3888 128.52 90.3045 128.518 90.2093 128.5H89.7851C89.6805 128.519 89.5844 128.521 89.524 128.523C89.5199 128.523 89.516 128.523 89.5123 128.523C89.4349 128.526 89.4046 128.528 89.3812 128.532L89.3613 128.536L89.3412 128.538C87.9662 128.69 86.6635 129.386 85.7799 130.423L85.7799 130.423L85.7777 130.426C84.8641 131.483 84.3926 132.896 84.5208 134.263C84.6498 135.284 85.0806 136.264 85.6099 137.227C86.2073 138.298 86.9285 139.307 87.7058 140.287L87.7068 140.288C88.4159 141.188 89.1775 142.05 89.978 142.879C89.9857 142.887 89.9933 142.894 90.0008 142.902C90.0138 142.889 90.0272 142.875 90.0407 142.862C90.7639 142.114 91.451 141.332 92.1072 140.525C93.1819 139.182 94.1726 137.8 94.8686 136.283C95.1418 135.678 95.3557 135.064 95.4567 134.44C95.6681 132.906 95.0929 131.285 93.9792 130.161Z" fill="white" stroke="#524A2D"/>
<circle cx="91.1998" cy="132.8" r="1.9" fill="#D7C99C" stroke="#524A2D"/>
<path d="M123.979 17.1615L123.979 17.1615L123.975 17.1576C123.072 16.2265 121.807 15.6279 120.495 15.5223C120.483 15.5216 120.469 15.5213 120.444 15.5208C120.441 15.5207 120.438 15.5206 120.434 15.5206C120.389 15.5198 120.305 15.5182 120.209 15.5H119.785C119.68 15.5185 119.584 15.5212 119.524 15.523C119.52 15.5231 119.516 15.5232 119.512 15.5233C119.435 15.5256 119.405 15.5276 119.381 15.5321L119.361 15.5359L119.341 15.5382C117.966 15.6898 116.663 16.3864 115.78 17.423L115.78 17.423L115.778 17.4255C114.864 18.4827 114.393 19.8965 114.521 21.2634C114.65 22.2843 115.081 23.2645 115.61 24.2272C116.207 25.2981 116.928 26.3073 117.706 27.2871L117.707 27.2883C118.416 28.1878 119.178 29.0498 119.978 29.8787C119.986 29.8866 119.993 29.8945 120.001 29.9023C120.014 29.8888 120.027 29.8751 120.041 29.8615C120.764 29.1144 121.451 28.3324 122.107 27.5247C123.182 26.1822 124.173 24.8 124.869 23.2832C125.142 22.6779 125.356 22.0642 125.457 21.4405C125.668 19.9063 125.093 18.2847 123.979 17.1615Z" fill="white" stroke="#524A2D"/>
<circle cx="121.2" cy="19.7999" r="1.9" fill="#D7C99C" stroke="#524A2D"/>
<path d="M135.979 17.1615L135.979 17.1615L135.975 17.1576C135.072 16.2265 133.807 15.6279 132.495 15.5223C132.483 15.5216 132.469 15.5213 132.444 15.5208C132.441 15.5207 132.438 15.5206 132.434 15.5206C132.389 15.5198 132.305 15.5182 132.209 15.5H131.785C131.68 15.5185 131.584 15.5212 131.524 15.523C131.52 15.5231 131.516 15.5232 131.512 15.5233C131.435 15.5256 131.405 15.5276 131.381 15.5321L131.361 15.5359L131.341 15.5382C129.966 15.6898 128.663 16.3864 127.78 17.423L127.78 17.423L127.778 17.4255C126.864 18.4827 126.393 19.8965 126.521 21.2634C126.65 22.2843 127.081 23.2645 127.61 24.2272C128.207 25.2981 128.928 26.3073 129.706 27.2871L129.707 27.2883C130.416 28.1878 131.178 29.0498 131.978 29.8787C131.986 29.8866 131.993 29.8945 132.001 29.9023C132.014 29.8888 132.027 29.8751 132.041 29.8615C132.764 29.1144 133.451 28.3324 134.107 27.5247C135.182 26.1822 136.173 24.8 136.869 23.2832C137.142 22.6779 137.356 22.0642 137.457 21.4405C137.668 19.9063 137.093 18.2847 135.979 17.1615Z" fill="white" stroke="#524A2D"/>
<circle cx="133.2" cy="19.7999" r="1.9" fill="#D7C99C" stroke="#524A2D"/>
<path d="M170.979 13.1615L170.979 13.1615L170.975 13.1576C170.072 12.2265 168.807 11.6279 167.495 11.5223C167.483 11.5216 167.469 11.5213 167.444 11.5208C167.441 11.5207 167.438 11.5206 167.434 11.5206C167.389 11.5198 167.305 11.5182 167.209 11.5H166.785C166.68 11.5185 166.584 11.5212 166.524 11.523C166.52 11.5231 166.516 11.5232 166.512 11.5233C166.435 11.5256 166.405 11.5276 166.381 11.5321L166.361 11.5359L166.341 11.5382C164.966 11.6898 163.663 12.3864 162.78 13.423L162.78 13.423L162.778 13.4255C161.864 14.4827 161.393 15.8965 161.521 17.2634C161.65 18.2843 162.081 19.2645 162.61 20.2272C163.207 21.2981 163.928 22.3073 164.706 23.2871L164.707 23.2883C165.416 24.1878 166.178 25.0498 166.978 25.8787C166.986 25.8866 166.993 25.8945 167.001 25.9023C167.014 25.8888 167.027 25.8751 167.041 25.8615C167.764 25.1144 168.451 24.3324 169.107 23.5247C170.182 22.1822 171.173 20.8 171.869 19.2832C172.142 18.6779 172.356 18.0642 172.457 17.4405C172.668 15.9063 172.093 14.2847 170.979 13.1615Z" fill="white" stroke="#524A2D"/>
<circle cx="168.2" cy="15.7999" r="1.9" fill="#D7C99C" stroke="#524A2D"/>
<path d="M93.9792 146.161L93.9792 146.162L93.9755 146.158C93.072 145.226 91.8069 144.628 90.4951 144.522C90.483 144.522 90.4687 144.521 90.4444 144.521C90.4411 144.521 90.4376 144.521 90.4338 144.521C90.3888 144.52 90.3045 144.518 90.2093 144.5H89.7851C89.6805 144.519 89.5844 144.521 89.524 144.523C89.5199 144.523 89.516 144.523 89.5123 144.523C89.4349 144.526 89.4046 144.528 89.3812 144.532L89.3613 144.536L89.3412 144.538C87.9662 144.69 86.6635 145.386 85.7799 146.423L85.7799 146.423L85.7777 146.426C84.8641 147.483 84.3926 148.896 84.5208 150.263C84.6498 151.284 85.0806 152.264 85.6099 153.227C86.2073 154.298 86.9285 155.307 87.7058 156.287L87.7068 156.288C88.4159 157.188 89.1775 158.05 89.978 158.879C89.9857 158.887 89.9933 158.894 90.0008 158.902C90.0138 158.889 90.0272 158.875 90.0407 158.862C90.7639 158.114 91.451 157.332 92.1072 156.525C93.1819 155.182 94.1726 153.8 94.8686 152.283C95.1418 151.678 95.3557 151.064 95.4567 150.44C95.6681 148.906 95.0929 147.285 93.9792 146.161Z" fill="white" stroke="#524A2D"/>
<circle cx="91.1998" cy="148.8" r="1.9" fill="#D7C99C" stroke="#524A2D"/>
</g>
<defs>
<clipPath id="clip0">
<rect width="906" height="527" fill="white"/>
</clipPath>
</defs>
</svg>
