<svg width="273" height="305" viewBox="0 0 273 305" fill="none" xmlns="http://www.w3.org/2000/svg">
<g clip-path="url(#clip0)">
<path d="M135.17 304.937C209.823 304.937 270.341 299.506 270.341 292.807C270.341 286.108 209.823 280.677 135.17 280.677C60.5179 280.677 0 286.108 0 292.807C0 299.506 60.5179 304.937 135.17 304.937Z" fill="#837547"/>
<path fill-rule="evenodd" clip-rule="evenodd" d="M92.8671 218.732C92.8671 218.732 95.5513 246.642 96.8146 252.011C98.0779 257.38 100.052 261.407 100.683 264.407C101.315 267.407 100.999 267.407 101.078 268.749C101.157 270.092 102.263 270.328 102.341 270.802C102.42 271.276 101.631 271.276 101.473 271.986C101.315 272.697 101.157 274.197 101.157 274.197C101.157 274.197 102.341 274.908 102.499 275.46C102.657 276.013 104.473 277.197 107.237 277.355C110 277.513 119.475 277.119 120.659 276.566C121.843 276.013 121.528 275.145 122.87 274.355C124.212 273.566 123.186 272.934 122.949 271.986C122.712 271.039 123.975 270.407 123.975 270.407C123.975 270.407 122.633 269.302 122.475 268.828C122.317 268.355 123.738 266.933 124.212 266.302C124.686 265.67 122.08 265.433 122.791 263.144C123.501 260.854 125.001 257.222 126.344 255.406C127.686 253.59 126.817 254.379 129.265 254.379C131.713 254.379 134.792 253.985 135.581 254.932C136.371 255.88 137.555 257.538 138.661 258.327C139.766 259.117 140.319 258.485 140.871 259.354C141.424 260.222 143.556 262.196 144.977 264.249C146.398 266.302 145.688 266.617 146.082 267.881C146.477 269.144 146.714 268.512 147.662 269.697C148.609 270.881 149.399 272.223 149.399 272.223C149.399 272.223 147.82 271.513 148.214 273.092C148.609 274.671 150.386 275.54 152.518 276.329C154.65 277.118 159.782 277.355 163.73 276.645C167.677 275.934 173.125 271.907 173.125 271.907C173.125 271.907 171.546 270.96 171.388 270.328C171.23 269.697 171.862 268.433 171.862 268.433C171.862 268.433 172.652 255.485 172.691 254.774C172.731 254.064 172.06 248.438 171.527 247.491C170.994 246.543 171.704 237.325 172.415 235.193C173.126 233.061 173.915 222.205 173.599 219.916C173.283 217.626 174.152 218.415 171.23 219.047C168.309 219.678 150.229 227.416 133.727 227.1C117.225 226.784 99.8553 220.863 97.1709 219.994C94.4865 219.126 92.8671 218.732 92.8671 218.732Z" fill="#2B3745"/>
<path fill-rule="evenodd" clip-rule="evenodd" d="M92.8671 218.732C92.8671 218.732 93.0239 220.361 93.279 222.906C94.561 223.807 97.3484 225.261 103.405 227.403C115.012 231.509 114.933 229.456 116.591 230.64C118.249 231.825 120.065 233.72 124.407 233.72C128.75 233.72 130.487 231.035 133.171 231.035C135.856 231.035 138.09 230.594 140.328 230.538C142.567 230.482 167.043 228.745 170.122 228.193C171.135 228.011 172.295 227.787 173.395 227.568C173.64 224.316 173.756 221.055 173.599 219.915C173.488 219.109 173.523 218.685 173.489 218.501L173.08 218.479C172.766 218.605 172.213 218.834 171.23 219.047C168.309 219.678 150.229 227.416 133.727 227.1C117.225 226.784 99.8553 220.863 97.1709 219.994C94.4865 219.126 92.8671 218.732 92.8671 218.732Z" fill="#101823"/>
<path fill-rule="evenodd" clip-rule="evenodd" d="M149.49 274.846C150.277 275.435 151.343 275.894 152.518 276.329C154.65 277.118 159.782 277.355 163.73 276.645C167.677 275.934 173.125 271.907 173.125 271.907C173.125 271.907 171.546 270.96 171.388 270.328C171.23 269.697 171.862 268.433 171.862 268.433L172.248 262.092C171.779 264.011 171.384 267.406 170.674 268.037C169.963 268.669 168.384 270.169 167.2 270.485C166.015 270.801 158.752 271.906 158.041 272.143C157.59 272.293 152.873 273.781 149.49 274.846ZM172.305 261.166C172.493 258.078 172.673 255.104 172.691 254.774C172.731 254.064 172.06 248.438 171.527 247.491C170.994 246.543 171.705 237.325 172.415 235.193C173.126 233.061 173.915 222.205 173.599 219.916C173.283 217.626 174.152 218.415 171.231 219.047C170.523 219.2 168.924 219.77 166.675 220.542C167.108 225.36 168.112 237.499 167.674 241.824C167.121 247.272 167.595 251.378 167.831 253.51C168.068 255.641 168.542 259.273 166.726 261.642C164.91 264.011 161.436 266.379 161.436 266.379C161.436 266.379 168.937 263.774 170.042 261.958C170.926 260.506 172.107 260.236 172.305 261.166ZM172.305 261.166C172.354 261.399 172.342 261.708 172.248 262.092V262.092L172.305 261.166Z" fill="#101823"/>
<path fill-rule="evenodd" clip-rule="evenodd" d="M123.094 271.181C123.394 270.698 123.975 270.407 123.975 270.407C123.975 270.407 122.633 269.302 122.475 268.828C122.317 268.355 123.738 266.934 124.212 266.302C124.686 265.67 122.08 265.433 122.791 263.144C123.501 260.854 125.002 257.222 126.344 255.406C127.686 253.59 126.817 254.38 129.265 254.38C131.713 254.38 134.792 253.985 135.582 254.932C136.371 255.88 137.555 257.538 138.661 258.327C139.766 259.117 140.319 258.485 140.871 259.354C141.424 260.222 143.556 262.196 144.977 264.249C146.398 266.302 145.688 266.618 146.082 267.881C146.477 269.144 146.714 268.512 147.662 269.697C148.609 270.881 149.399 272.223 149.399 272.223C149.399 272.223 147.82 271.513 148.214 273.092C148.609 274.671 150.386 275.54 152.518 276.329C153.593 276.727 155.43 276.984 157.493 277.051C157.468 277.02 157.44 276.989 157.411 276.96C156.385 275.933 153.779 271.354 153.858 270.643C153.937 269.933 154.174 268.196 153.385 267.959C152.595 267.722 149.753 266.222 150.542 264.485C151.332 262.748 157.174 259.984 157.174 259.984C157.174 259.984 154.016 258.642 150.779 256.984C147.542 255.326 142.568 252.405 142.015 250.431C141.462 248.457 146.91 242.299 142.805 246.167C138.699 250.036 134.593 251.063 126.935 249.641C119.276 248.22 116.986 245.141 116.986 245.141L113.433 241.114C113.433 241.114 116.671 248.536 118.013 250.115C119.355 251.694 119.592 253.194 119.987 255.326C120.382 257.458 120.303 259.669 119.829 261.011C119.355 262.353 117.539 264.485 118.092 264.722C118.644 264.958 119.671 266.854 120.934 267.722C122.198 268.591 120.066 270.406 119.355 270.643C118.645 270.88 117.223 273.407 118.487 273.249C119.103 273.172 121.144 272.269 123.094 271.181Z" fill="#101823"/>
<path fill-rule="evenodd" clip-rule="evenodd" d="M102.854 274.038C102.854 274.038 102.38 276.92 102.617 277.512C102.854 278.104 103.17 279.447 102.933 279.644C102.696 279.841 103.288 281.499 102.459 282.013C101.63 282.526 101.157 283.039 99.9722 282.96C98.7878 282.881 97.2879 282.802 96.5772 282.842C95.8665 282.881 95.235 282.684 94.6428 282.802C94.0506 282.921 92.7872 284.144 92.5504 285.21C92.3137 286.276 92.2346 288.329 92.2741 288.645C92.3137 288.961 92.432 289.868 92.353 290.342C92.2741 290.816 92.9848 291.684 93.5374 292.079C94.0901 292.474 96.1823 291.724 97.2877 292.277C98.3932 292.829 99.6958 293.658 100.999 293.658C102.301 293.658 103.604 292.79 104.473 292.474C105.341 292.158 105.775 292.237 106.447 292.435C107.118 292.632 109.723 291.448 109.723 291.448C109.723 291.448 109.368 291.092 109.368 290.224C109.368 289.355 111.263 289.079 111.895 289.276C112.526 289.474 111.973 290.777 113.868 290.698C115.763 290.619 118.842 289.79 119.435 289.592C120.027 289.395 120.303 288.329 120.501 286.829C120.698 285.329 119.869 283.078 119.553 282.605C119.237 282.131 120.343 282.131 120.54 281.539C120.737 280.947 120.54 279.446 120.737 278.657C120.935 277.867 122.001 274.354 122.001 274.354L102.854 274.038Z" fill="#1E2329"/>
<path fill-rule="evenodd" clip-rule="evenodd" d="M92.7475 284.668C92.6585 284.849 92.59 285.032 92.5504 285.21C92.3137 286.276 92.2346 288.329 92.2741 288.645C92.3137 288.961 92.432 289.868 92.353 290.342C92.2741 290.816 92.9848 291.685 93.5374 292.079C94.0901 292.474 96.1823 291.724 97.2877 292.277C98.3932 292.829 99.6958 293.659 100.999 293.659C102.301 293.659 103.604 292.79 104.473 292.474C105.341 292.158 105.775 292.237 106.447 292.435C107.118 292.632 109.723 291.448 109.723 291.448C109.723 291.448 109.368 291.093 109.368 290.224C109.368 289.355 111.263 289.079 111.895 289.277C112.526 289.474 111.973 290.777 113.868 290.698C115.763 290.619 118.842 289.79 119.435 289.592C120.027 289.395 120.303 288.329 120.501 286.829C120.698 285.329 119.869 283.079 119.553 282.605C119.237 282.131 120.343 282.131 120.54 281.539C120.737 280.947 120.54 279.446 120.737 278.657C120.935 277.868 122.001 274.354 122.001 274.354L118.61 274.298C117.584 275.193 116.708 276.17 116.708 276.17C116.708 276.17 117.379 278.933 116.432 279.802C115.484 280.67 115.089 281.183 114.339 281.381C113.589 281.578 112.76 283.749 112.089 284.381C111.418 285.013 109.957 285.407 109.207 286.078C108.457 286.75 108.22 286.829 104.983 287.776C101.746 288.723 94.6401 288.289 94.6401 288.289C94.6401 288.289 94.6401 288.289 93.5741 286.631C93.255 286.135 92.9785 285.423 92.7475 284.668Z" fill="#0D1014"/>
<path fill-rule="evenodd" clip-rule="evenodd" d="M92.3661 289.55C92.3843 289.84 92.3879 290.133 92.3531 290.342C92.2742 290.816 92.9848 291.685 93.5375 292.079C94.0901 292.474 96.1823 291.724 97.2878 292.277C98.3932 292.829 99.6958 293.659 100.999 293.659C102.302 293.659 103.604 292.79 104.473 292.474C105.341 292.158 105.775 292.237 106.447 292.435C107.118 292.632 109.723 291.448 109.723 291.448C109.723 291.448 109.441 291.166 109.38 290.49C107.96 290.63 105.603 290.707 103.522 290.737C100.799 290.776 97.6403 290.855 95.3506 290.5C94.3624 290.346 93.2788 289.95 92.3661 289.55ZM112.282 289.795C112.443 290.226 112.648 290.749 113.868 290.698C115.763 290.619 118.842 289.79 119.435 289.592C119.966 289.415 120.243 288.54 120.437 287.279C118.562 287.894 114.656 289.088 112.282 289.795Z" fill="#060805"/>
<path fill-rule="evenodd" clip-rule="evenodd" d="M149.714 274.117C149.714 274.117 151.608 278.46 151.608 279.96C151.608 281.46 152.24 282.565 152.872 283.75C153.503 284.934 153.187 285.408 153.661 286.671C154.135 287.934 154.214 294.645 154.845 295.988C155.477 297.33 160.53 298.198 163.688 298.435C166.847 298.672 173.873 296.935 175.058 295.988C176.242 295.04 176.795 294.172 176.242 293.145C175.69 292.119 175.216 292.356 175.216 290.934C175.216 289.513 175.532 287.145 175.058 286.75C174.584 286.355 170.242 283.434 170.005 282.723C169.768 282.013 171.189 279.802 171.505 279.17C171.821 278.539 172.583 271.55 172.583 271.55L149.714 274.117Z" fill="#0D1014"/>
<path fill-rule="evenodd" clip-rule="evenodd" d="M154.193 291.293C154.351 293.298 154.529 295.316 154.845 295.988C155.477 297.33 160.53 298.198 163.688 298.435C166.847 298.672 173.873 296.935 175.058 295.988C176.242 295.04 176.795 294.172 176.242 293.145C176.009 292.713 175.791 292.505 175.615 292.302C170.909 293.398 163.058 294.322 160.014 294.29C157.934 294.267 155.729 292.682 154.193 291.293Z" fill="#060805"/>
<path fill-rule="evenodd" clip-rule="evenodd" d="M99.6557 227.731C99.6557 227.731 96.7738 235.745 96.3396 237.206C95.9054 238.667 95.8658 241.114 97.4055 237.246C98.9452 233.377 100.84 227.771 100.879 227.1C100.919 226.429 99.6557 227.731 99.6557 227.731Z" fill="#101823"/>
<path fill-rule="evenodd" clip-rule="evenodd" d="M158.95 227.889C158.95 227.889 163.451 233.929 165.227 236.337C167.003 238.746 169.885 240.68 170.398 240.917C170.912 241.154 170.793 239.377 169.964 238.746C169.135 238.114 158.832 225.244 158.2 225.402C157.568 225.56 158.95 227.889 158.95 227.889Z" fill="#101823"/>
<path fill-rule="evenodd" clip-rule="evenodd" d="M100.563 252.523C100.563 252.523 102.695 256.866 106.011 259.077C109.327 261.287 110.353 263.419 111.617 265.235C112.88 267.051 113.433 266.656 114.933 266.972C116.433 267.288 119.749 267.446 119.749 267.446C119.749 267.446 113.038 269.341 111.617 268.63C110.195 267.92 108.695 267.446 108.379 266.104C108.064 264.761 109.169 265.472 106.248 263.103C103.326 260.735 100.879 255.524 100.563 252.523Z" fill="#101823"/>
<path fill-rule="evenodd" clip-rule="evenodd" d="M103.8 270.367C103.8 270.367 105.695 272.183 107.116 272.104C108.537 272.025 110.432 271.867 111.774 271.788C113.117 271.709 114.775 272.025 115.722 271.709C116.67 271.394 117.459 271.315 117.459 271.315C117.459 271.315 118.328 272.933 116.314 273.13C114.301 273.328 111.696 274.078 109.406 273.802C107.116 273.525 105.419 273.999 104.59 273.052C103.761 272.104 103.8 270.367 103.8 270.367Z" fill="#101823"/>
<path fill-rule="evenodd" clip-rule="evenodd" d="M98.6272 283.256C97.8772 283.276 95.6861 283.591 95.469 284.085C95.2519 284.578 95.0347 284.815 95.7453 285.013C96.456 285.21 97.4233 285.013 97.9364 284.796C98.4495 284.578 99.5353 284.322 100.147 284.539C100.759 284.756 103.562 284.894 102.397 284.302C101.233 283.71 98.6272 283.256 98.6272 283.256Z" fill="#767A80"/>
<path fill-rule="evenodd" clip-rule="evenodd" d="M160.423 289.325C160.87 290.579 164.529 289.916 165.607 289.817C166.767 289.71 166.865 289.787 167.938 289.88C169.352 290.003 168.924 288.7 171.342 289.005C173.627 289.294 173.418 286.298 170.839 287.687C168.638 288.872 170.231 286.969 167.941 287.071C165.677 287.172 166.238 287.909 164.25 288.312C163.486 288.467 160.424 288.363 160.423 289.325Z" fill="#56595E"/>
<path fill-rule="evenodd" clip-rule="evenodd" d="M163.523 286.99C163.528 287.557 167.028 286.794 166.409 286.367C165.723 285.895 163.927 286.494 163.523 286.99Z" fill="#56595E"/>
<path fill-rule="evenodd" clip-rule="evenodd" d="M37.0254 173.622C37.0254 173.622 32.762 182.939 32.1303 188.466C31.4985 193.993 30.5511 215.784 30.0774 219.416C29.6036 223.048 28.0246 231.101 27.7087 234.102C27.3929 237.102 28.182 248.946 33.2351 259.052C38.2883 269.158 42.8677 275.948 46.3417 276.895C49.8156 277.843 51.8685 277.685 53.4476 275.79C55.0266 273.895 57.5531 270.263 60.3955 270.421C63.2379 270.579 66.712 268.21 67.1857 266.473C67.6594 264.737 72.5547 263.473 72.3967 261.578C72.2387 259.683 68.4489 250.051 67.8173 249.104C67.1857 248.156 65.6067 247.682 64.8171 245.314C64.0275 242.945 64.659 241.682 64.5012 239.945C64.3433 238.208 62.9221 235.681 62.6063 233.47C62.2904 231.26 59.6061 228.733 59.6061 228.733C59.6061 228.733 61.8168 217.048 63.8696 215.469C65.9224 213.89 67.3437 209.468 67.6594 207.889C67.9751 206.31 70.1861 200.152 70.5018 198.73C70.8175 197.309 38.604 175.833 37.0254 173.622Z" fill="#DBA581"/>
<path fill-rule="evenodd" clip-rule="evenodd" d="M64.8171 245.314C64.0275 242.945 61.3323 246.065 57.3401 242C53.348 237.935 57.8444 235.522 58.8444 234.5C59.6219 233.705 59.7878 229.15 59.648 228.739C59.4838 228.256 60.167 227.906 58.8444 228.047C56.1701 228.536 52.9683 232.269 55.967 223.961C57.8961 218.685 60.2874 213.718 62.2821 208.537C63.2797 205.946 59.3886 213.634 59.2776 213.846C57.5427 217.161 55.9018 220.519 54.261 223.881C53.9575 224.503 51.9356 228.465 51.0644 226.896C49.7456 223.379 57.9141 208.42 59.2255 203.976C59.9682 201.46 54.447 212.785 53.7182 214.25C51.7679 218.17 49.8078 222.084 47.8481 225.999L47.6891 226.316L47.5305 226.633C46.6801 228.332 45.8311 230.113 45.6194 232.022C45.4877 233.689 45.9569 235.954 46.2016 237.633C46.4544 240.541 45.2446 241.952 43.6962 244.259C41.7595 247.144 39.5593 249.718 37.3642 252.399C35.5685 254.596 35.9433 257.007 37.1007 259.431C38.7042 262.789 41.2971 262.009 42.4451 264.614C42.9477 265.754 43.5405 265.174 44.7966 265.356C46.5272 265.607 49.0453 264.929 51.719 263.803C52.4313 263.503 51.1394 260.995 51.8643 260.645C53.6194 259.797 54.7107 258.113 56.7527 257.63C57.4763 257.459 56.529 254.782 57.3401 254.764C58.1112 254.747 60.378 252.248 61.3323 253.038C62.5304 254.029 63.3561 256.379 63.7922 256.056C64.4902 255.538 62.6478 253.785 61.8403 252.18C60.7201 249.953 60.9576 248.728 63.4119 247.569C64.2909 247.154 64.3808 246.865 64.8766 246.065C65.0721 245.711 64.9565 245.725 64.8171 245.314Z" fill="#BD8A68"/>
<path fill-rule="evenodd" clip-rule="evenodd" d="M34.5161 179.771C33.4648 182.627 32.4188 185.942 32.1303 188.466C31.4985 193.993 30.5511 215.784 30.0774 219.416C29.6036 223.048 28.0246 231.101 27.7087 234.102C27.5504 235.605 27.6698 239.329 28.4637 243.942C29.2296 243.204 29.9904 242.224 30.421 242.6C31.0527 243.153 33.8949 250.891 34.7635 252.864C35.632 254.838 38.1585 256.023 41.3167 259.023C44.4749 262.023 47.5541 262.813 48.5016 262.023C49.449 261.234 51.0282 256.575 50.7123 254.996C50.3965 253.417 48.8176 251.799 47.5543 251.246C46.2909 250.693 46.5673 250.377 45.6198 248.64C44.6724 246.903 45.4619 246.587 46.2515 245.482C47.0411 244.377 48.1465 244.061 48.9359 241.85C49.7254 239.639 50.3571 238.218 49.4096 235.06C48.4622 231.902 41.83 229.849 39.9351 227.322C38.0402 224.796 41.5143 220.532 42.6196 217.532C43.7249 214.532 51.6206 194.003 50.5942 192.977C49.7822 192.165 38.9899 183.398 34.5161 179.771Z" fill="#EBB794"/>
<path fill-rule="evenodd" clip-rule="evenodd" d="M49.5059 264.688C47.6686 264.885 46.7113 265.398 46.5042 266.741C46.2971 268.083 46.2195 269.741 46.7887 270.649C47.3581 271.557 50.3596 273.965 51.4464 272.939C52.5333 271.912 53.1284 271.044 53.1284 270.215C53.1284 269.386 53.3615 267.688 52.8697 266.464C52.3779 265.241 52.5075 264.451 51.8087 264.254C51.1101 264.056 49.9198 265.241 49.5059 264.688Z" fill="#F2C8AC"/>
<path fill-rule="evenodd" clip-rule="evenodd" d="M52.1713 262.161C52.1713 262.161 53.3973 266.544 54.589 267.057C55.7807 267.57 57.4834 266.662 58.1984 266.662C58.9136 266.662 59.7987 266.78 59.867 265.793C59.9352 264.807 58.5391 260.582 58.2666 260.188C57.9942 259.793 56.8023 258.451 55.4062 259.556C54.0101 260.661 52.1713 262.161 52.1713 262.161Z" fill="#F2C8AC"/>
<path fill-rule="evenodd" clip-rule="evenodd" d="M64.6211 259.536C64.62 258.455 62.3678 254.687 61.174 254.198C59.7413 253.863 57.2831 255.215 57.7295 256.904C57.972 257.822 59.7793 262.684 60.8835 262.469C61.8784 262.274 64.2965 260.511 64.6211 259.536Z" fill="#F2C8AC"/>
<path fill-rule="evenodd" clip-rule="evenodd" d="M63.3959 248.49C63.3959 248.49 61.817 249.754 62.488 251.333C63.159 252.912 64.1853 254.925 64.7775 255.201C65.3697 255.478 66.2383 255.004 66.2383 255.004C66.2383 255.004 67.6593 254.925 68.0147 253.82C68.3701 252.715 67.7385 249.951 67.1463 248.925C66.5541 247.898 65.8435 246.99 63.3959 248.49Z" fill="#F2C8AC"/>
<path fill-rule="evenodd" clip-rule="evenodd" d="M257.824 221.597C257.824 221.597 261.017 219.226 263.921 219.117C266.825 219.007 272.453 221.027 272.86 222.869C273.267 224.71 270.915 227.828 268.292 229.207C265.668 230.586 257.183 238.057 257.183 238.057L247.194 234.138L243.383 232.182L257.824 221.597Z" fill="#433125"/>
<path fill-rule="evenodd" clip-rule="evenodd" d="M257.824 221.597C257.824 221.597 261.017 219.226 263.921 219.117C265.19 219.069 266.978 219.427 268.624 220C267.598 221.259 266.618 222.487 265.918 223.494C263.702 226.677 257.549 229.488 255.628 231.363C254.824 232.147 252.555 233.703 250.082 235.271L247.194 234.137L243.383 232.182L257.824 221.597Z" fill="#664939"/>
<path fill-rule="evenodd" clip-rule="evenodd" d="M241.436 166.833C241.436 166.833 243.015 180.414 243.015 184.677C243.015 188.941 245.384 203.153 246.173 205.443C246.963 207.732 248.147 209.469 248.858 210.575C249.569 211.68 249.726 214.049 249.805 215.549C249.884 217.049 248.305 220.839 248.305 221.549C248.305 222.26 256.833 236.156 257.543 237.577C258.254 238.998 259.517 240.341 259.122 241.92C258.728 243.499 256.952 248.157 256.122 248.71C255.293 249.263 254.109 249.302 253.872 249.618C253.635 249.934 250.082 257.316 248.069 258.303C246.056 259.29 242.937 260.632 242.542 260.751C242.147 260.869 241.555 260.672 241.555 260.672C241.555 260.672 240.411 260.948 240.174 262.132C239.937 263.317 239.976 265.606 237.607 266.633C235.239 267.659 231.686 268.804 230.896 268.844C230.107 268.883 223.119 266.83 222.566 266.159C222.014 265.488 221.737 264.462 221.737 264.462C221.737 264.462 212.026 254.632 211.473 254.395C210.92 254.158 209.421 252.026 209.657 251.473C209.894 250.921 210.684 245.71 210.684 244.762C210.684 243.815 210.447 241.367 210.684 240.577C210.92 239.788 212.184 236.551 212.579 235.761C212.973 234.972 215.895 229.366 214.868 224.944C213.842 220.523 212.105 218.391 211.315 216.496C210.526 214.601 210.131 212.075 210.131 212.075C210.131 212.075 205.709 204.89 204.604 202.521C203.499 200.152 203.104 196.442 203.104 196.442L203.814 192.415L241.436 166.833Z" fill="#EBB794"/>
<path fill-rule="evenodd" clip-rule="evenodd" d="M210.579 241.653C210.584 241.201 210.612 240.814 210.684 240.578C210.743 240.379 210.867 240.027 211.026 239.598C211.543 241.318 212.653 243.324 214.978 243.207C218.886 243.01 218.492 242.299 218.492 242.299L218.91 245.544C218.136 245.496 217.118 245.475 215.729 245.458C212.864 245.422 211.364 243.616 210.579 241.653Z" fill="#DBA581"/>
<path fill-rule="evenodd" clip-rule="evenodd" d="M258.587 239.384C259.032 240.191 259.348 241.017 259.122 241.92C258.728 243.499 256.952 248.157 256.123 248.71C255.293 249.262 254.109 249.302 253.872 249.618C253.635 249.934 250.083 257.316 248.069 258.303C246.056 259.29 242.937 260.632 242.542 260.751C242.147 260.869 241.555 260.672 241.555 260.672C241.555 260.672 240.411 260.948 240.174 262.132C239.937 263.317 239.976 265.606 237.607 266.633C235.239 267.659 231.686 268.804 230.896 268.843C230.107 268.883 223.119 266.83 222.566 266.159C222.014 265.488 221.737 264.461 221.737 264.461C221.737 264.461 212.026 254.631 211.473 254.395C210.921 254.158 209.421 252.026 209.657 251.473C209.894 250.92 210.684 245.709 210.684 244.762C210.684 244.099 210.568 242.702 210.579 241.653C211.364 243.616 212.864 245.422 215.729 245.458C222.045 245.536 220.703 245.694 223.546 248.063C226.388 250.432 229.072 254.38 231.599 255.011C234.125 255.643 239.021 253.274 239.021 253.274C239.021 253.274 239.81 250.827 241.31 250.827C242.811 250.827 243.521 251.3 243.521 251.3C243.521 251.3 247.311 251.932 248.574 251.3C249.838 250.669 251.653 248.853 251.89 247.589C252.127 246.326 251.654 245.931 252.127 244.273C252.601 242.615 253.627 242.063 254.733 241.51C255.838 240.957 258.587 239.384 258.587 239.384Z" fill="#BD8A68"/>
<path fill-rule="evenodd" clip-rule="evenodd" d="M241.436 166.833C241.436 166.833 241.946 171.225 242.387 175.797C236.485 180.008 224.268 188.415 218.176 190.348C209.965 192.953 214.465 208.349 217.15 217.192C219.463 224.812 218.376 229.032 214.394 231.266C214.971 229.303 215.344 226.996 214.868 224.944C213.842 220.523 212.105 218.391 211.315 216.496C210.526 214.601 210.131 212.075 210.131 212.075C210.131 212.075 205.709 204.89 204.604 202.521C203.499 200.152 203.104 196.442 203.104 196.442L203.814 192.415L241.436 166.833Z" fill="#BD8A68"/>
<path fill-rule="evenodd" clip-rule="evenodd" d="M219.135 190.01C216.829 192.963 215.415 196.131 216.361 198.992C219.203 207.599 222.756 211.151 221.966 219.679C221.177 228.206 220.427 229.903 218.769 230.377C217.735 230.673 217.039 230.292 216.661 229.409C218.694 226.929 218.935 223.074 217.15 217.192C214.465 208.349 209.965 192.953 218.176 190.348C218.481 190.251 218.802 190.138 219.135 190.01Z" fill="#DBA581"/>
<path fill-rule="evenodd" clip-rule="evenodd" d="M223.786 248.267C225.054 247.04 228.168 244.584 228.558 244.746C229.032 244.944 232.23 253.589 232.23 253.589C232.23 253.589 237.628 251.511 238.507 251.971C238.777 252.112 239.041 252.364 239.278 252.646C239.108 253.005 239.021 253.274 239.021 253.274C239.021 253.274 234.125 255.643 231.599 255.011C229.144 254.397 226.539 250.652 223.786 248.267Z" fill="#DBA581"/>
<path fill-rule="evenodd" clip-rule="evenodd" d="M244.389 206.177C244.389 206.177 242.967 212.77 242.889 214.823C242.81 216.876 248.06 213.007 248.06 213.007C248.06 213.007 246.047 206.572 244.389 206.177Z" fill="#F2C8AC"/>
<path fill-rule="evenodd" clip-rule="evenodd" d="M243.559 242.536C242.414 242.536 240.954 243.641 241.112 245.181C241.27 246.721 241.625 248.418 242.059 249.01C242.494 249.602 244.665 250.984 247.31 249.997C249.955 249.01 250.744 248.181 250.586 246.168C250.428 244.154 246.994 240.286 243.559 242.536Z" fill="#F2C8AC"/>
<path d="M244.962 226.49C242.208 227.856 238.813 228.814 236.268 230.236C234.615 231.159 237.902 230.299 238.261 230.229C239.637 229.957 245.296 228.821 246.344 228.945C246.747 228.993 245.279 229.292 245.24 229.301C243.24 229.767 234.944 231.419 233.276 231.3C234.253 230.412 240.056 228.698 241.356 227.603C239.983 227.695 236.317 228.964 234.611 229.362C229.435 230.571 238.702 227.928 239.391 227.733C239.981 227.567 246.327 225.778 245.231 226.349L244.962 226.49ZM234.451 216.6C235.003 216.264 240.217 213.553 240.365 213.773C240.561 214.066 233.516 217.429 234.451 216.6ZM235.679 213.404C235.68 213.404 241.104 210.87 239.787 211.801C238.998 212.358 231.416 215.766 232.932 214.828C233.746 214.325 234.812 213.827 235.679 213.404ZM230.129 214.675C232.019 213.39 235.314 211.71 237.406 210.676C240.108 209.34 238.423 210.497 236.986 211.273C235.823 211.9 229.015 215.575 230.129 214.675ZM232.538 211.363C235.372 209.701 238.323 208.728 241.167 207.273C241.424 207.141 241.685 207.465 240.392 207.987C238.691 208.675 236.7 209.729 234.988 210.516C234.969 210.525 230.381 212.696 232.538 211.363ZM232.799 209.145C235.461 207.573 238.57 206.161 241.398 204.878C242.38 204.433 241.716 205.115 241.013 205.449C238.717 206.542 236.44 207.784 234.143 208.795C234.135 208.798 231.786 209.808 232.799 209.145ZM232.921 207.423C232.929 207.419 245.376 201.085 240.752 203.862C239.588 204.562 232.454 208.202 231.273 208.465C231.435 208.223 232.578 207.601 232.921 207.423ZM239.285 202.501C238.453 203.084 236.312 204.125 235.301 204.661C230.259 207.332 230.914 206.487 235.41 204.185C235.689 204.042 239.168 202.139 239.428 202.286L239.285 202.501ZM243.391 198.442C243.305 198.751 239.48 200.758 239.172 200.932C236.914 202.204 234.19 203.83 231.872 204.91C229.8 205.875 235.534 202.524 235.552 202.514C236.394 202.04 243.036 198.227 243.391 198.442ZM240.616 198.419C239.5 199.022 231.444 203.481 231.041 203.423C231.216 202.954 236.782 200.084 237.679 199.6C238.13 199.357 241.867 197.3 242.167 197.428L241.999 197.626C241.704 197.884 240.996 198.215 240.616 198.419ZM239.236 197.516C237.636 198.326 226.988 203.825 226.378 203.913C225.938 203.691 228.388 202.62 228.441 202.592C229.532 202.034 240.62 196.32 240.85 196.475C241.141 196.671 239.413 197.427 239.236 197.516ZM237.969 196.435C237.348 197.025 227.705 202.01 227.29 201.949C226.712 201.864 230.425 200.092 230.689 199.952C231.405 199.574 237.668 196.22 237.967 196.352L237.969 196.435ZM236.939 195.508C235.183 196.432 224.847 201.932 226.313 200.662C226.833 200.212 238.541 194.293 239.284 194.033C239.874 193.827 238.879 194.529 238.794 194.578C238.183 194.93 237.553 195.187 236.939 195.508ZM225.978 197.736C228.561 196.004 232.418 194.38 235.32 192.903C235.351 192.887 245.09 187.928 241.205 190.317C239.75 191.212 237.545 192.219 235.967 193.018C234.1 193.962 224.19 199.025 225.777 197.881L225.978 197.736ZM225.74 195.784C226.623 194.942 239.398 188.644 241.034 188.134C241.225 188.324 237.333 190.183 236.848 190.441C235.05 191.397 227.254 195.644 225.74 195.784ZM229.539 192.273C231.595 191.198 241.695 185.919 240.271 186.97C238.967 187.932 235.839 189.502 234.333 190.303C233.216 190.896 226.718 194.35 225.823 194.499C225.243 194.5 228.985 192.561 229.539 192.273ZM238.659 185.794C237.977 186.549 226.815 192.757 226.088 192.851C226.918 192.046 238.401 185.674 238.659 185.794ZM239.46 183.368C238.145 184.612 230.452 188.712 228.199 190.009C228.182 190.018 223.301 192.819 224.551 191.727C225.493 190.904 229.987 188.539 231.498 187.669C233.828 186.328 236.578 184.663 238.972 183.521C239.086 183.466 239.351 183.323 239.482 183.324L239.46 183.368ZM238.905 182.074C237.504 183.007 234.67 184.309 233.091 185.097C233.068 185.108 226.506 188.459 227.852 187.477C228.808 186.779 238.626 181.715 239.02 181.941L238.905 182.074ZM239.485 243.836C239.47 244.052 234.721 245.846 234.139 245.943C233.288 246.01 234.641 245.477 234.761 245.432C235.711 245.075 238.687 243.71 239.485 243.836ZM245.585 240.014C245.551 240.295 243.753 240.894 243.491 241.002C243.49 241.002 233.302 245.403 236.109 243.695C236.849 243.245 239.529 242.268 240.515 241.861C240.971 241.67 245.295 239.828 245.52 239.95L245.585 240.014ZM246.409 238.275C245.376 238.725 237.372 242.271 237.013 242.055C237.125 241.668 246.904 237.69 248.032 237.268C248.575 237.065 248.409 237.468 247.644 237.802C247.232 237.981 246.812 238.102 246.409 238.275ZM245.217 237.228C243.665 237.848 234.275 241.642 235.618 240.675C236.298 240.186 247.33 236.072 247.422 236.104C247.424 236.101 247.691 236.226 246.945 236.58C246.382 236.846 245.789 237.003 245.217 237.228ZM247.556 234.74C244.012 235.824 240.568 237.246 236.984 238.149C236.773 237.655 238.326 237.471 238.652 237.372C239.731 237.041 248.522 233.982 248.8 234.111C249.106 234.253 247.564 234.738 247.556 234.74ZM236.966 237.091C236.759 236.602 238.102 236.45 238.414 236.348C239.473 235.991 249.474 232.315 247.676 233.439C247.149 233.768 243.796 234.826 242.998 235.111C240.984 235.831 239.031 236.522 236.966 237.091ZM235.794 234.865C237.256 234.286 247.456 231.352 248.421 231.453C247.585 232.049 233.875 235.768 235.794 234.865ZM245.087 230.702C243.778 231.075 232.827 234.215 234.929 233.269C236.382 232.616 246.38 229.769 247.76 229.788C247.413 230.072 245.653 230.541 245.087 230.702Z" fill="#BD8A68"/>
<path fill-rule="evenodd" clip-rule="evenodd" d="M35.8151 168.358C35.8151 168.358 33.6834 172.227 33.486 172.898C33.2886 173.569 34.1178 174.24 33.9597 174.714C33.8017 175.188 33.0518 175.504 33.5649 175.898C34.0781 176.293 57.5277 191.689 62.9755 196.584C68.4233 201.48 69.9235 200.532 70.634 201.085C71.3446 201.638 72.3711 202.032 72.9238 201.716C73.4764 201.401 73.699 195.002 75.924 194.532C78.1489 194.061 80.5032 191.926 81.2928 190.742C82.0824 189.557 72.3709 124.42 71.1076 121.419C69.8443 118.419 66.8269 113.722 66.8269 113.722C66.8269 113.722 66.1731 116.129 64.7125 116.169C63.2519 116.208 62.0677 119.011 61.5544 119.801C61.0412 120.59 51.9611 134.249 51.5663 138.671C51.1715 143.092 48.1711 142.855 48.1711 144.277C48.1711 145.698 46.8289 149.409 46.1973 149.961C45.5657 150.514 46.513 151.462 46.1973 153.041C45.8816 154.62 44.9341 154.383 44.6183 154.936C44.3024 155.488 43.3152 156.12 42.9206 157.699C42.5259 159.278 42.6443 159.634 42.5653 160.344C42.4864 161.055 42.6836 161.292 41.7757 161.213C40.8678 161.134 40.631 160.344 39.9599 160.66C39.2888 160.976 39.0912 161.923 38.8544 162.16C38.6176 162.397 37.7491 163.305 37.7491 163.305C37.7491 163.305 37.1865 164.075 37.1666 165.259C37.1468 166.444 37.5416 167.411 37.1172 167.796C36.6929 168.181 36.0706 167.727 35.9428 168.043C35.8151 168.358 35.8151 168.358 35.8151 168.358Z" fill="#939C66"/>
<path fill-rule="evenodd" clip-rule="evenodd" d="M74.6307 195.739C74.9672 195.104 75.3872 194.645 75.9241 194.532C76.9528 194.314 78.0092 193.741 78.9259 193.07L78.4391 191.398L75.5384 179.51C75.5384 179.51 75.2808 185.279 74.0966 185.871C72.9123 186.463 72.0043 185.121 72.0043 185.121L74.6307 195.739Z" fill="#6A704B"/>
<path fill-rule="evenodd" clip-rule="evenodd" d="M73.6573 198.804C74.0238 197.084 74.5736 195.149 75.6246 194.635C75.504 192.809 75.0424 190.52 73.9207 187.768C73.9207 187.768 73.8802 187.616 73.7301 187.304C73.52 186.794 73.3514 186.401 73.2039 186.097C73.2039 186.097 73.2085 180.266 60.4179 164.791C60.4179 164.791 67.1618 175.582 69.6338 181.999C66.0969 178.31 59.6849 172.736 48.1018 164.95C48.1018 164.95 63.4085 177.781 68.5005 185.04C64.3876 184.313 55.8569 181.031 36.9423 167.907C36.7891 167.971 36.624 167.967 36.4723 167.951C39.867 171.264 49.2773 180.175 55.5242 183.426C61.7999 186.692 70.5679 195.566 73.6573 198.804Z" fill="#6A704B"/>
<path fill-rule="evenodd" clip-rule="evenodd" d="M33.9757 174.646C33.9724 174.669 33.9672 174.692 33.9597 174.714C33.8017 175.188 33.0518 175.504 33.5649 175.898C34.0781 176.293 57.5277 191.689 62.9755 196.584C68.4233 201.48 69.9235 200.532 70.634 201.085C70.6718 201.114 70.7103 201.143 70.7497 201.171C68.4371 197.99 39.1864 178.165 33.9757 174.646Z" fill="#6A704B"/>
<path fill-rule="evenodd" clip-rule="evenodd" d="M167.415 218.257C167.415 218.257 177.205 217.31 183.837 209.73C190.47 202.151 193.312 192.044 194.101 189.36C194.891 186.675 208.551 116.327 203.498 108.432C198.444 100.536 188.023 99.9049 186.523 99.6679C185.022 99.431 177.758 96.5098 175.942 94.8517C174.127 93.1936 166.073 90.4302 163.231 89.4827C160.388 88.5353 130.623 83.0084 118.7 84.8244C106.778 86.6403 85.3815 101.405 80.8021 103.853C76.2227 106.3 67.5376 113.011 66.8269 113.722C66.1162 114.432 66.7069 115.064 66.1543 115.42C65.6016 115.775 74.3654 173.096 76.576 185.729C78.7866 198.362 79.7342 201.046 81.7081 204.52C83.6819 207.994 85.5571 210.58 86.2283 210.758C86.8994 210.935 87.649 211.212 88.5374 212.1C89.4257 212.988 90.8271 213.64 91.3008 213.877C91.7745 214.113 92.7022 215.179 93.3733 215.692C94.0444 216.206 106.164 221.693 114.691 223.43C123.218 225.167 155.431 224.536 158.748 223.588C162.064 222.641 167.415 218.257 167.415 218.257Z" fill="#828B56"/>
<path fill-rule="evenodd" clip-rule="evenodd" d="M106.572 89.0593C95.7771 94.1723 84.0529 102.115 80.8021 103.853C76.2227 106.3 67.5376 113.011 66.8269 113.722C66.1162 114.432 66.7069 115.065 66.1543 115.42C65.6016 115.775 74.3654 173.096 76.576 185.729C78.7866 198.362 79.7342 201.047 81.7081 204.52C83.6819 207.994 85.5571 210.58 86.2283 210.758C86.8994 210.936 87.649 211.212 88.5374 212.1C89.4257 212.988 90.8271 213.64 91.3008 213.877C91.7745 214.113 92.7022 215.179 93.3733 215.693C94.0444 216.206 106.164 221.693 114.691 223.43C115.986 223.694 117.83 223.903 120.034 224.065C117.24 217.517 109.468 226.984 96.6025 199.688C83.7374 172.392 96.2159 114.682 106.572 89.0593Z" fill="#939C66"/>
<path fill-rule="evenodd" clip-rule="evenodd" d="M95.2199 189.805C95.2199 189.805 94.1121 192.327 100.013 194.034C105.914 195.741 118.747 198.324 118.747 198.324C118.747 198.324 113.365 204.705 99.3901 198.616C85.4153 192.527 95.2199 189.805 95.2199 189.805Z" fill="#6A704B"/>
<path fill-rule="evenodd" clip-rule="evenodd" d="M158.301 88.392C158.079 88.3493 157.852 88.3062 157.619 88.2622C156.482 94.0277 152.065 115.942 149.603 121.209C146.76 127.289 133.5 149.949 133.5 149.949C151.246 134.527 161.404 110.612 158.301 88.392Z" fill="#6A704B"/>
<path fill-rule="evenodd" clip-rule="evenodd" d="M175.528 212.569C171.089 214.075 161.803 214.045 146.223 211.884C125.438 209.001 132.987 207.272 133.929 207.372C134.779 207.462 139.318 209.445 163.061 211.038C164.699 211.148 175.623 211.792 176.355 212.002C176.797 212.129 175.699 212.497 175.528 212.569Z" fill="#6A704B"/>
<path fill-rule="evenodd" clip-rule="evenodd" d="M124.894 221.942C124.894 221.942 123.236 220.302 123.236 217.89C123.236 215.478 122.328 212.921 120.985 211.281C119.643 209.641 119.051 207.905 119.446 206.265C119.84 204.625 121.419 203.274 121.341 201.489C121.262 199.705 120.827 197.197 120.906 196.135C120.985 195.074 122.091 191.89 121.815 191.504C121.538 191.118 120.709 191.456 120.907 188.562C121.104 185.668 121.538 186.729 121.538 183.642C121.538 180.554 120.63 169.171 120.63 167.723C120.63 166.374 119.738 156.72 120.258 152.529C120.295 152.225 120.483 149.415 120.536 149.174C120.589 148.933 121.085 150.001 120.907 150.948C120.729 151.895 120.433 154.481 120.334 155.883C120.236 157.284 120.591 161.489 120.71 162.614C120.828 163.739 121.184 170.095 121.263 171.595C121.342 173.095 122.053 182.551 122.053 183.814C122.053 185.077 121.54 186.814 121.5 187.643C121.461 188.472 121.382 189.459 121.698 190.091C122.014 190.722 122.763 190.88 122.329 192.578C121.895 194.275 121.777 196.289 121.856 197.552C121.935 198.815 121.974 199.21 122.014 200.513C122.053 201.816 121.935 202.96 121.185 204.105C120.435 205.25 120.356 208.685 121.698 211.132C123.04 213.58 123.514 215.751 123.711 217.172C123.909 218.593 123.254 218.329 124.894 221.942Z" fill="#6A704B"/>
<path d="M122.411 168.902C122.04 166.096 122.196 161.748 122.217 158.774C122.251 153.948 122.365 149.53 124.319 145.044C126.104 140.947 129.915 134.195 133.582 131.622C134.769 130.789 131.589 134.043 131.579 134.054C128.175 137.8 125.543 142.194 123.926 147.004C121.641 153.804 122.999 161.336 122.648 168.433C122.634 168.717 122.602 169.97 122.411 168.902ZM125.934 221.012C125.692 216.636 125.106 215.164 123.908 211.022C121.804 203.747 123.738 203.229 124.447 196.497C124.688 194.222 124.92 192.661 123.735 190.586C122.228 187.947 123.478 187.132 123.711 184.21C124.027 180.243 122.715 176.261 122.932 172.672C123.06 170.559 123.734 177.851 123.736 177.875C124.014 181.092 124.141 184.038 123.508 187.228C122.847 190.562 124.32 189.712 124.828 192.582C125.106 194.148 124.751 196.046 124.56 197.627C124.308 199.851 123.914 201.231 123.464 203.354C122.26 209.036 126.598 215.29 126.285 221.792C126.212 223.311 126.007 222.532 125.962 221.598L125.934 221.012Z" fill="#6A704B"/>
<path fill-rule="evenodd" clip-rule="evenodd" d="M106.653 89.0208C95.8362 94.1324 84.061 102.111 80.8022 103.853C78.2345 105.225 74.3764 107.937 71.3566 110.181L71.3272 110.203L71.3133 110.213L71.27 110.246L71.2269 110.278L71.1839 110.31L71.1411 110.342L71.0983 110.374L71.0773 110.389L71.0558 110.405L71.0133 110.437L70.9709 110.469L70.9287 110.5L70.8866 110.532L70.8445 110.563L70.8315 110.573L70.8027 110.595L70.761 110.626L70.7195 110.657L70.678 110.688L70.6367 110.719L70.5955 110.75L70.5903 110.754L70.5544 110.781L70.5137 110.812L70.473 110.842L70.4324 110.873L70.3536 110.932L70.3515 110.934L70.3114 110.964L70.2714 110.994L70.2316 111.024L70.1919 111.054L70.1523 111.084L70.1222 111.107L70.1131 111.114L70.0739 111.144L70.0348 111.173L69.9958 111.203L69.9572 111.232L69.9185 111.262L69.896 111.279L69.8802 111.291L69.8418 111.32L69.8038 111.349L69.7659 111.378L69.7281 111.407L69.6907 111.435L69.6755 111.447L69.6532 111.464L69.6161 111.492L69.5789 111.521L69.5421 111.549L69.5054 111.577L69.469 111.605L69.4609 111.611L69.4326 111.632L69.3965 111.66L69.3605 111.688L69.3247 111.715L69.2892 111.743L69.2538 111.77L69.2523 111.771L69.2186 111.797L69.1835 111.824L69.1488 111.851L69.114 111.877L69.0797 111.904L69.0503 111.926L69.0454 111.93L69.0114 111.956L68.9775 111.983L68.9439 112.009L68.9105 112.035L68.8772 112.06C67.7774 112.913 67.0153 113.533 66.827 113.722C66.1163 114.432 66.707 115.064 66.1544 115.42C66.1189 115.443 66.1224 115.704 66.1596 116.171C67.2394 115.183 66.3148 115.271 67.1063 114.163C67.3391 113.837 67.8796 113.482 68.7473 112.973C66.2318 132.084 73.2319 174.129 74.6883 174.216L74.6885 174.218C72.955 172.949 67.8149 131.362 71.099 111.609C73.3683 110.271 76.6128 108.237 80.9295 104.901C89.6146 98.19 94.7787 98.4416 99.5629 97.2427C104.347 96.0439 114.327 97.4006 113.459 94.8741C113.14 93.948 110.222 91.6101 106.653 89.0208Z" fill="#828B56"/>
<path fill-rule="evenodd" clip-rule="evenodd" d="M75.4946 179.242C75.9342 181.951 76.3047 184.178 76.5761 185.729C78.7867 198.362 79.7343 201.046 81.7081 204.52C83.682 207.994 85.5572 210.58 86.2283 210.758C86.8995 210.935 87.6491 211.212 88.5374 212.1C89.4258 212.988 90.8271 213.64 91.3009 213.877C91.3859 213.919 91.4856 213.988 91.5959 214.077C93.1592 207.976 89.2733 212.087 83.675 202.248C80.9869 197.524 78.005 188.23 75.4946 179.242Z" fill="#6A704B"/>
<path fill-rule="evenodd" clip-rule="evenodd" d="M184.458 209.001C190.648 201.516 193.337 191.959 194.101 189.36C194.452 188.168 197.339 173.637 200 157.158L181.104 145.875C181.104 145.875 180.631 146.191 180.947 166.719C181.229 185.071 194.506 181.343 184.458 209.001Z" fill="#6A704B"/>
<path fill-rule="evenodd" clip-rule="evenodd" d="M156.771 89.6491C146.647 86.9871 127.649 83.0375 118.701 84.9787C112.358 86.3546 103.334 92.95 95.5875 99.3466C97.1291 104.487 102.342 120.358 109.956 127.837C119.115 136.833 120.536 151.227 120.536 151.227C120.536 151.227 121.957 136.383 137.59 125.588C149.646 117.263 155.315 98.3744 156.771 89.6491Z" fill="#EBB794"/>
<path fill-rule="evenodd" clip-rule="evenodd" d="M156.771 89.6491C151.026 88.1384 142.422 86.2135 134.419 85.1853C121.191 89.895 109.343 94.2865 107.293 95.6081C102.314 98.8178 103 117.056 110.171 123.976C116.348 129.938 122.703 132.424 134.832 127.647C135.698 126.948 136.617 126.26 137.59 125.588C149.646 117.263 155.315 98.3743 156.771 89.6491Z" fill="#DBA581"/>
<path fill-rule="evenodd" clip-rule="evenodd" d="M198.778 105.393C198.778 105.393 205.489 109.656 207.147 111.314C208.805 112.972 215.279 120.078 216.227 121.973C217.174 123.868 218.595 131.684 219.701 133.106C220.806 134.527 222.464 134.053 225.07 137.843C227.675 141.633 228.544 143.765 230.044 145.028C231.544 146.291 233.36 144.791 234.307 146.054C235.255 147.318 237.466 149.686 238.334 150.239C239.203 150.792 239.045 154.66 239.518 155.766C239.992 156.871 239.914 158.687 241.019 159.003C242.124 159.319 242.835 159.003 243.467 160.424C244.098 161.845 244.493 165.793 245.046 167.846C245.598 169.899 241.572 172.188 238.098 173.767C234.624 175.347 227.36 183.006 220.728 186.875C214.095 190.744 205.331 195.007 204.384 195.007C203.437 195.007 200.515 193.665 199.726 192.875C198.936 192.086 198.462 191.059 198.62 189.559C198.778 188.059 197.752 187.349 197.357 185.927C196.962 184.506 196.252 183.874 196.567 182.848C196.883 181.822 191.672 176.847 189.619 173.926C187.567 171.005 182.75 164.373 182.434 161.925C182.119 159.477 176.749 147.317 181.171 126.947C185.592 106.577 198.778 105.393 198.778 105.393Z" fill="#828B56"/>
<path fill-rule="evenodd" clip-rule="evenodd" d="M149.274 92.0837C149.244 93.256 149.14 94.9738 148.839 97.0906C148.516 99.6919 147.839 103.115 146.446 106.918C144.14 113.547 139.98 121.259 132.5 128.267C131.721 131.546 132.596 138.309 134.356 141.774C136.117 145.238 133.5 149.949 133.5 149.949C133.5 149.949 148.458 130.961 153.937 115.33C159.416 99.698 156.227 93.6883 156.227 93.6883L149.274 92.0837Z" fill="#99A368"/>
<path fill-rule="evenodd" clip-rule="evenodd" d="M202.802 108.045C204.557 109.241 206.385 110.552 207.147 111.314C208.805 112.972 215.279 120.078 216.227 121.973C217.174 123.868 218.595 131.684 219.701 133.106C220.806 134.527 222.464 134.053 225.07 137.843C227.675 141.633 228.544 143.765 230.044 145.028C231.544 146.291 233.36 144.791 234.307 146.054C235.255 147.318 237.466 149.686 238.334 150.239C239.203 150.792 239.045 154.66 239.518 155.766C239.992 156.871 239.914 158.687 241.019 159.003C242.124 159.319 242.835 159.003 243.467 160.424C244.098 161.845 244.493 165.793 245.046 167.846C245.598 169.899 241.571 172.188 238.098 173.767C234.624 175.347 227.36 183.006 220.728 186.875C214.095 190.744 205.331 195.007 204.384 195.007C203.436 195.007 200.515 193.665 199.726 192.875C198.936 192.086 198.462 191.059 198.62 189.559C198.778 188.059 197.752 187.349 197.357 185.927C196.962 184.506 196.251 183.874 196.567 182.848C196.752 182.248 195.049 180.301 193.193 178.203C193.945 171.273 195.062 163.62 196.431 156.807C196.798 154.977 197.588 150.468 198.889 149.118C199.99 147.976 203.068 146.531 204.63 145.513C209.605 142.271 213.113 138.646 215.488 133.147C216.616 129.907 216.449 126.922 215.258 123.73C214.153 120.888 207.362 114.887 204.288 110.924C203.539 109.958 203.076 108.977 202.802 108.045Z" fill="#6A704B"/>
<path fill-rule="evenodd" clip-rule="evenodd" d="M92.2666 186.637C92.2666 186.637 92.8261 210.194 91.9438 211.976C91.0616 213.758 91.6982 214.161 91.6982 214.161C91.6982 214.161 92.9014 215.633 93.3734 215.692C93.8453 215.752 111.749 222.167 111.749 222.167C111.749 222.167 131.224 225.362 135.672 225.562C140.121 225.763 158.433 223.383 160.859 222.325C163.285 221.267 177.913 215.298 180.598 212.85C183.282 210.403 182.335 210.719 182.335 210.719C182.335 210.719 173.492 216.167 166.307 216.956C148.858 218.873 132.579 219.991 117.558 209.889C107.379 203.044 93.2449 191.748 92.2666 186.637Z" fill="#6A704B"/>
<path fill-rule="evenodd" clip-rule="evenodd" d="M109.582 127.515C109.582 127.515 112.024 138.84 108.9 142.824C105.776 146.808 107.983 150.826 107.983 150.826C107.983 150.826 96.0791 134.164 93.723 118.862C91.3669 103.559 93.5301 97.1515 93.5301 97.1515L101.513 95.5432C101.513 95.5432 94.4976 113.144 109.582 127.515Z" fill="#6A704B"/>
<path fill-rule="evenodd" clip-rule="evenodd" d="M101.172 96.9966C100.975 97.9781 100.741 99.4163 100.61 101.189C100.407 103.366 100.37 106.232 100.915 109.416C101.754 114.966 104.08 121.423 109.58 127.289C109.664 130.035 107.567 135.697 105.292 138.598C103.017 141.498 104.508 145.442 104.508 145.442C104.508 145.442 94.4649 129.546 92.4499 116.459C90.4349 103.371 94.5043 98.34 94.5043 98.34L101.172 96.9966Z" fill="#ABB57B"/>
<path fill-rule="evenodd" clip-rule="evenodd" d="M82.7667 175.24L101.879 172.797C101.435 165.475 101.092 157.829 100.528 150.552C100.293 147.519 100.396 154.785 100.397 154.807C100.395 160.088 100.47 166.195 100.459 171.477L84.0817 173.681C82.3815 167.775 80.5979 160.644 78.7958 154.831C77.894 151.922 79.4861 159.04 79.4909 159.064C80.5919 164.453 81.6757 169.848 82.7667 175.24ZM78.1257 152.115C85.0998 151.255 92.3395 150.494 99.2651 149.497C92.5379 149.921 85.5445 150.642 78.7968 151.21C77.5368 145.456 77.607 144.784 78.0566 151.138L78.1257 152.115ZM100.318 143.98C100.318 143.982 100.764 150.559 100.319 148.089C100.096 146.851 99.9324 145.657 99.6792 144.411C96.1309 144.343 91.2522 145.007 87.5617 145.313C86.8841 145.371 77.9983 146.223 79.9631 145.828C81.819 145.456 84.6663 145.266 86.684 145.005C90.8747 144.462 95.0434 143.909 99.2541 143.532C99.4522 143.514 99.6501 143.495 99.8491 143.498L100.189 143.616L100.318 143.98ZM94.0631 169.52C94.104 173.035 93.5137 166.234 93.4897 166.018C93.0028 161.653 92.349 156.981 91.9854 152.647C91.8806 151.397 91.6733 151.138 92.8788 151.001C93.6914 150.908 93.5858 151.241 93.665 152.261C93.8736 154.945 93.8367 158.384 93.9039 161.15C93.9713 163.94 94.0288 166.729 94.0631 169.52ZM88.3657 170.165C88.4065 173.679 87.8163 166.879 87.7923 166.662C87.2985 162.237 86.7102 157.714 86.285 153.297C86.1553 151.95 85.8836 151.663 87.4997 151.602C88.0013 151.583 87.8516 151.589 87.94 152.436C88.166 154.605 88.112 158.012 88.1698 160.314C88.2521 163.598 88.3251 166.88 88.3657 170.165Z" fill="#6A704B"/>
<path fill-rule="evenodd" clip-rule="evenodd" d="M169.492 173.433L150.296 171.767C150.443 164.433 150.475 156.78 150.743 149.486C150.856 146.446 151.047 153.71 151.048 153.732C151.264 159.009 151.436 165.114 151.661 170.391L168.115 171.928C169.574 165.958 171.067 158.761 172.631 152.879C173.414 149.936 172.113 157.113 172.109 157.137C171.227 162.566 170.363 168.001 169.492 173.433ZM173.191 150.138C166.188 149.562 158.923 149.096 151.963 148.38C158.701 148.531 165.718 148.967 172.483 149.262C173.509 143.461 173.412 142.792 173.22 149.159L173.191 150.138ZM150.687 142.91C150.687 142.913 150.508 149.502 150.852 147.017C151.025 145.77 151.14 144.571 151.342 143.315C154.885 143.103 159.787 143.569 163.486 143.724C164.166 143.755 173.079 144.246 171.1 143.932C169.23 143.634 166.378 143.56 164.351 143.381C160.142 143.009 155.954 142.626 151.731 142.42C151.533 142.41 151.334 142.399 151.136 142.41L150.801 142.542L150.687 142.91ZM157.973 168.176C158.075 171.689 158.388 164.87 158.404 164.653C158.713 160.272 159.177 155.577 159.364 151.233C159.418 149.979 159.615 149.712 158.405 149.624C157.589 149.565 157.708 149.893 157.67 150.915C157.571 153.605 157.747 157.04 157.792 159.806C157.838 162.597 157.894 165.386 157.973 168.176ZM163.692 168.589C163.793 172.102 164.107 165.283 164.123 165.066C164.436 160.624 164.841 156.081 165.086 151.65C165.161 150.3 165.421 150.002 163.804 150.006C163.302 150.007 163.451 150.008 163.398 150.858C163.26 153.034 163.452 156.436 163.488 158.738C163.539 162.023 163.599 165.305 163.692 168.589Z" fill="#6A704B"/>
<path fill-rule="evenodd" clip-rule="evenodd" d="M162.289 177.146C162.289 177.146 155.316 205.642 160.07 212.93C164.824 220.217 171.597 216.877 171.597 216.877L150.453 221.948C150.453 221.948 151.306 186.559 162.289 177.146Z" fill="#6A704B"/>
<path fill-rule="evenodd" clip-rule="evenodd" d="M92.8193 214.014C92.8193 214.014 92.0298 221.594 92.6614 222.304C93.293 223.015 96.2537 222.976 97.5565 223.489C98.8594 224.002 106.044 227.002 117.177 229.055C128.309 231.108 161.944 228.502 165.023 227.792C168.103 227.081 174.024 223.765 174.024 223.765L174.103 220.449C174.103 220.449 175.603 218.554 175.603 218.001C175.603 217.449 174.419 215.79 173.393 215.79C172.366 215.79 157.207 222.265 141.811 222.817C126.414 223.37 118.598 221.949 114.729 221.001C110.86 220.054 102.649 218.949 100.833 218.159C99.0171 217.37 95.5459 216.764 92.8193 214.014Z" fill="#663333"/>
<path fill-rule="evenodd" clip-rule="evenodd" d="M92.4468 219.011C92.3828 220.596 92.4051 222.016 92.6614 222.304C93.293 223.015 96.2537 222.976 97.5565 223.489C98.8594 224.002 106.044 227.002 117.177 229.055C128.309 231.108 161.944 228.502 165.023 227.792C168.103 227.081 174.024 223.765 174.024 223.765L174.078 221.527C169.812 223.068 165.369 224.661 162.974 225.482C157.447 227.377 130.388 229.828 111.337 225.325C102.598 223.259 96.4948 220.929 92.4468 219.011Z" fill="#421B1B"/>
<path fill-rule="evenodd" clip-rule="evenodd" d="M116.032 219.462C116.032 219.462 113.821 227.594 116.703 230.081C119.585 232.568 130.244 231.068 130.244 231.068C130.244 231.068 131.625 221.317 128.862 220.804C126.099 220.291 116.032 219.462 116.032 219.462Z" fill="#999999"/>
<path fill-rule="evenodd" clip-rule="evenodd" d="M115.289 226.708C115.436 228.091 115.842 229.338 116.703 230.081C119.585 232.569 130.244 231.068 130.244 231.068C130.244 231.068 131.123 224.865 130.076 222.094C129.928 222.697 129.847 223.487 129.966 224.469C130.283 227.095 128.469 230.069 128.469 230.069C128.469 230.069 122.823 230.03 119.071 229.336C117.222 228.995 116.026 227.816 115.289 226.708Z" fill="#808080"/>
<path fill-rule="evenodd" clip-rule="evenodd" d="M116.032 219.462C116.032 219.462 115.793 220.339 115.575 221.606C115.851 221 116.173 220.512 116.506 220.436C117.374 220.239 129.296 221.779 129.296 221.779L130.001 221.909C129.832 221.522 129.62 221.216 129.355 221.021L128.842 220.801C126.051 220.287 116.032 219.462 116.032 219.462Z" fill="#B3B3B3"/>
<path fill-rule="evenodd" clip-rule="evenodd" d="M95.308 215.275C95.308 215.038 93.9656 211.209 93.9262 209.629C93.8868 208.05 93.0578 205.721 93.2156 204.734C93.3735 203.747 94.6762 201.418 96.887 202.129C99.0978 202.839 98.861 203.55 99.611 205.287C100.361 207.024 105.612 214.248 105.967 214.683C106.322 215.117 106.164 216.854 105.533 216.854C104.901 216.854 103.243 216.222 101.309 213.538C99.3741 210.853 98.624 208.169 97.4003 208.958C96.1765 209.748 98.3871 215.472 97.5581 215.63C96.7291 215.788 95.308 215.275 95.308 215.275Z" fill="black"/>
<path fill-rule="evenodd" clip-rule="evenodd" d="M97.1243 201.221C97.1243 201.221 97.6374 198.142 96.9269 195.694C96.2163 193.247 91.5578 175.047 90.6104 170.941C89.6629 166.836 85.2421 121.909 86.6633 112.118C87.2956 108.187 88.2056 104.397 88.929 100.505C89.0557 99.824 89.113 99.2847 89.1 98.88C89.0549 97.4813 88.7783 98.7891 86.4501 99.9486C85.1599 100.591 84.7309 100.881 84.4431 101.788C84.1505 102.709 84.1173 103.734 83.9364 105.077C83.7929 106.142 83.6388 107.207 83.4937 108.272L83.4716 108.434C82.9133 112.71 82.6782 116.887 82.9129 121.198C83.5446 131.62 83.4657 153.49 84.0183 156.964C84.571 160.438 87.4926 180.256 88.8347 186.178C90.1768 192.1 91.7955 201.811 92.5457 202.206C93.2959 202.601 97.1243 201.221 97.1243 201.221Z" fill="black"/>
<path fill-rule="evenodd" clip-rule="evenodd" d="M151.908 219.479C151.898 219.229 153.089 215.282 153.061 213.615C153.032 211.948 153.769 209.549 153.567 208.493C153.364 207.437 151.946 204.876 149.741 205.459C147.536 206.043 147.807 206.812 147.123 208.592C146.44 210.371 141.444 217.611 141.103 218.044C140.763 218.476 140.998 220.325 141.637 220.373C142.275 220.421 143.925 219.879 145.765 217.187C147.604 214.495 148.246 211.714 149.518 212.642C150.79 213.569 148.803 219.454 149.648 219.684C150.493 219.914 151.908 219.479 151.908 219.479Z" fill="black"/>
<path fill-rule="evenodd" clip-rule="evenodd" d="M149.661 204.382C149.661 204.382 149.464 200.86 150.427 198.151C151.389 195.442 157.923 175.25 159.293 170.686C160.663 166.122 169.707 115.701 169.292 104.52C169.131 100.726 168.8 97.1134 168.507 93.3428C168.279 90.3971 169.058 90.9476 171.605 92.2744C173.484 93.2527 172.685 92.2436 172.731 94.2172C172.751 95.0464 172.898 98.1411 172.927 98.97C173.122 104.39 172.868 109.713 172.111 115.087C170.407 126.815 168.238 151.541 167.327 155.423C166.417 159.305 161.456 181.468 159.504 188.052C157.551 194.636 154.933 205.481 154.142 205.867C153.35 206.252 149.661 204.382 149.661 204.382Z" fill="black"/>
<path fill-rule="evenodd" clip-rule="evenodd" d="M94.2025 199.957C93.9657 199.957 91.676 201.181 92.0708 202.681C92.4656 204.182 92.1891 206.037 94.4788 206.195C96.7685 206.353 98.8214 203.392 98.0319 201.695C97.2423 199.997 96.6107 198.813 94.2025 199.957Z" fill="#B3B3B3"/>
<path fill-rule="evenodd" clip-rule="evenodd" d="M92.3896 204.354C92.6023 205.303 93.0187 206.094 94.4788 206.195C96.5049 206.335 98.3452 204.033 98.1952 202.325C96.0137 205.424 93.5806 204.891 92.3896 204.354Z" fill="#808080"/>
<path fill-rule="evenodd" clip-rule="evenodd" d="M152.362 203.367C152.601 203.385 154.97 204.853 154.636 206.409C154.301 207.965 154.661 209.948 152.353 209.941C150.044 209.934 147.84 206.648 148.565 204.913C149.29 203.178 149.877 201.974 152.362 203.367Z" fill="#B3B3B3"/>
<path fill-rule="evenodd" clip-rule="evenodd" d="M153.46 204.08C154.133 204.657 154.827 205.519 154.636 206.409C154.301 207.965 154.662 209.949 152.353 209.942C151.705 209.94 151.065 209.679 150.496 209.267C152.933 207.522 153.552 205.651 153.46 204.08Z" fill="#808080"/>
<path fill-rule="evenodd" clip-rule="evenodd" d="M96.2936 213.698C96.2936 213.698 94.1617 214.606 94.6355 217.093C95.1092 219.58 94.8723 223.488 95.7408 223.844C96.6093 224.199 99.2938 225.107 99.2938 225.107C99.2938 225.107 98.9384 216.58 98.5831 215.317C98.2279 214.053 97.3989 213.027 96.2936 213.698Z" fill="#999999"/>
<path fill-rule="evenodd" clip-rule="evenodd" d="M95.4774 214.265C94.9347 214.782 94.3672 215.684 94.6354 217.093C95.1092 219.58 94.8722 223.488 95.7408 223.844C96.6093 224.199 99.2938 225.107 99.2938 225.107C99.2938 225.107 99.248 224.004 99.1725 222.532C98.3334 222.436 97.3808 222.26 96.7282 221.934C95.7843 221.462 95.5371 217.125 95.4774 214.265Z" fill="#808080"/>
<path fill-rule="evenodd" clip-rule="evenodd" d="M103.557 214.764C103.557 214.764 102.424 215.93 102.675 218.683C102.926 221.436 103.044 225.383 103.518 226.212C103.992 227.041 107.663 227.357 107.663 227.357C107.663 227.357 107.071 218.199 106.558 216.896C106.044 215.593 105.492 214.053 103.557 214.764Z" fill="#999999"/>
<path fill-rule="evenodd" clip-rule="evenodd" d="M103.557 214.764C103.557 214.764 102.424 215.93 102.675 218.683C102.926 221.436 103.044 225.384 103.518 226.213C103.992 227.042 107.663 227.357 107.663 227.357C107.663 227.357 107.605 226.465 107.51 225.197C106.67 225.102 105.693 224.815 105.018 224.066C103.95 222.879 104.195 217.289 104.383 214.586C104.139 214.595 103.866 214.651 103.557 214.764Z" fill="#808080"/>
<path fill-rule="evenodd" clip-rule="evenodd" d="M150.843 217.737C150.843 217.737 153.038 218.859 152.667 221.453C152.296 224.047 152.704 228.197 151.842 228.507C150.979 228.817 148.303 229.573 148.303 229.573C148.303 229.573 148.293 220.584 148.598 219.275C148.902 217.966 149.696 216.944 150.843 217.737Z" fill="#999999"/>
<path fill-rule="evenodd" clip-rule="evenodd" d="M143.5 217.786C143.5 217.786 144.745 219.158 144.605 222.167C144.466 225.176 144.519 229.51 144.058 230.385C143.597 231.26 139.748 231.317 139.748 231.317C139.748 231.317 139.958 221.287 140.439 219.894C140.92 218.501 141.432 216.851 143.5 217.786Z" fill="#999999"/>
<path fill-rule="evenodd" clip-rule="evenodd" d="M143.5 217.786C143.5 217.786 143.737 218.047 143.992 218.591C143.709 221.294 143.042 225.545 141.575 226.908C140.964 227.476 140.377 227.747 139.847 227.843C139.953 224.804 140.146 220.744 140.439 219.894C140.92 218.501 141.432 216.851 143.5 217.786Z" fill="#B3B3B3"/>
<path fill-rule="evenodd" clip-rule="evenodd" d="M144.605 222.167C144.466 225.176 144.519 229.51 144.058 230.385C143.597 231.259 139.748 231.317 139.748 231.317C139.748 231.317 139.761 230.703 139.787 229.76C140.913 229.802 142.456 229.797 143.078 229.508C144.108 229.028 144.605 222.167 144.605 222.167Z" fill="#808080"/>
<path fill-rule="evenodd" clip-rule="evenodd" d="M82.8758 151.989C82.8758 151.989 83.1521 150.489 84.6128 150.331C86.0735 150.173 88.2446 149.384 89.2316 150.923C90.2186 152.463 89.8238 157.91 89.8238 157.91C89.8238 157.91 88.4817 158.818 86.6657 158.818C84.8497 158.818 83.4284 159.806 82.8758 157.081C82.3231 154.357 82.8758 151.989 82.8758 151.989ZM83.6846 152.181C83.6846 152.181 83.895 151.031 85.0073 150.909C86.1195 150.788 87.7725 150.183 88.5241 151.364C89.2755 152.545 88.975 156.725 88.975 156.725C88.975 156.725 87.9531 157.421 86.5704 157.421C85.1877 157.421 84.1055 158.179 83.6846 156.089C83.2638 153.999 83.6846 152.181 83.6846 152.181Z" fill="#CCCCCC"/>
<path fill-rule="evenodd" clip-rule="evenodd" d="M85.8762 153.134C85.8762 153.134 85.9748 154.733 86.0144 155.483C86.0539 156.233 86.429 156.351 86.6066 155.957C86.7841 155.562 86.5867 154.476 86.5867 154.081C86.5867 153.687 86.7447 152.66 85.8762 153.134Z" fill="#CCCCCC"/>
<path fill-rule="evenodd" clip-rule="evenodd" d="M162.502 149.467C162.502 149.467 163.22 148.12 164.66 148.412C166.1 148.703 168.408 148.607 168.883 150.373C169.358 152.139 167.335 157.212 167.335 157.212C167.335 157.212 165.781 157.672 164.05 157.123C162.319 156.573 160.665 157.084 160.963 154.321C161.259 151.557 162.502 149.467 162.502 149.467ZM163.215 149.895C163.215 149.895 163.764 148.861 164.861 149.082C165.958 149.303 167.716 149.226 168.075 150.579C168.434 151.932 166.884 155.825 166.884 155.825C166.884 155.825 165.699 156.18 164.381 155.762C163.063 155.344 161.803 155.739 162.034 153.619C162.265 151.5 163.215 149.895 163.215 149.895Z" fill="#CCCCCC"/>
<path fill-rule="evenodd" clip-rule="evenodd" d="M165.016 151.465C165.016 151.465 164.627 153.019 164.438 153.746C164.249 154.473 164.57 154.699 164.859 154.376C165.147 154.054 165.288 152.96 165.407 152.583C165.526 152.207 165.987 151.276 165.016 151.465Z" fill="#CCCCCC"/>
<path fill-rule="evenodd" clip-rule="evenodd" d="M102.451 69.1393C102.451 69.1393 104.057 59.8785 97.828 58.3849C91.5993 56.8913 89.8313 61.5761 91.0971 64.4992C92.3627 67.4223 95.9429 71.6153 102.451 69.1393Z" fill="#F2C8AC"/>
<path fill-rule="evenodd" clip-rule="evenodd" d="M95.5279 58.0993C91.1745 58.1358 90.0038 61.9745 91.0971 64.4994C91.3733 65.1373 91.7598 65.8357 92.2629 66.5122C91.8146 64.7015 91.7696 62.5764 92.5364 60.6931C93.0688 59.3856 94.3835 58.5762 95.5279 58.0993Z" fill="#FFE0CC"/>
<path fill-rule="evenodd" clip-rule="evenodd" d="M96.4679 62.0366C93.6868 59.5019 94.7051 64.2331 94.6993 64.2514C93.7918 64.4817 92.3631 60.563 95.6669 60.671C98.3606 60.7591 100.044 63.8951 100.197 66.2801C100.292 67.7636 99.1229 65.624 98.8112 65.1644C98.0497 64.0421 97.4016 63.0319 96.4679 62.0366Z" fill="#D49779"/>
<path fill-rule="evenodd" clip-rule="evenodd" d="M144.701 28.9313C144.701 28.9313 144.913 40.068 147.111 48.6706C149.309 57.2732 152.392 63.8916 154.925 67.6425C157.458 71.3935 169.36 78.9014 156.776 96.9749C144.191 115.048 128.969 120.99 128.969 120.99L119.707 120.983C119.707 120.983 89.9464 107.286 89.7345 96.7006C89.5225 86.1149 98.1318 75.3159 99.4666 60.7619C100.802 46.208 96.6226 32.3112 96.6226 32.3112C96.6226 32.3112 119.357 7.40939 144.701 28.9313Z" fill="#F2C8AC"/>
<path fill-rule="evenodd" clip-rule="evenodd" d="M144.701 28.9313C144.701 28.9313 144.913 40.0681 147.111 48.6706C149.309 57.2732 152.392 63.8916 154.925 67.6426C157.458 71.3936 169.36 78.9014 156.776 96.9749C144.191 115.048 128.969 120.99 128.969 120.99L125.228 120.987C120.701 104.226 116.259 77.3702 116.874 72.108C117.712 64.9457 116.736 47.316 115.168 34.0503C114.695 30.0515 115.303 25.4289 116.382 20.9217C124.481 19.101 134.374 20.1619 144.701 28.9313Z" fill="#EBB794"/>
<path fill-rule="evenodd" clip-rule="evenodd" d="M97.5615 70.3366C98.4544 67.318 99.1567 64.1414 99.4666 60.7621C100.802 46.2082 96.6226 32.3114 96.6226 32.3114C96.6226 32.3114 97.0355 31.8602 97.8057 31.1357C98.89 34.4575 100.084 38.7057 100.257 41.7452C100.583 47.4792 101.451 65.7815 100.015 69.5306C99.3315 71.3131 98.3762 71.0758 97.5615 70.3366Z" fill="#E3B99D"/>
<path fill-rule="evenodd" clip-rule="evenodd" d="M144.701 28.9313C144.701 28.9313 144.913 40.068 147.111 48.6706C147.866 51.6275 148.727 54.35 149.633 56.8022L145.559 63.3932C145.559 63.3932 138.325 40.0572 139.911 25.3774C141.494 26.3876 143.092 27.565 144.701 28.9313Z" fill="#DBA581"/>
<path fill-rule="evenodd" clip-rule="evenodd" d="M147.355 49.6033C149.534 57.7517 152.484 64.0284 154.925 67.6427C157.458 71.3936 169.36 78.9015 156.776 96.975C144.191 115.048 128.969 120.99 128.969 120.99L119.707 120.983C119.707 120.983 89.9464 107.286 89.7346 96.7007C89.529 86.4328 97.6224 75.9639 99.3269 62.0626C99.7408 64.4536 100.054 67.1607 100.012 69.7494C99.8959 76.8062 97.5764 81.987 114.228 80.5668C130.879 79.1467 143.894 73.9746 143.894 73.9746C143.894 73.9746 143.72 55.98 147.355 49.6033Z" fill="#CC6C0C"/>
<path fill-rule="evenodd" clip-rule="evenodd" d="M121.529 120.985L119.707 120.983C119.707 120.983 111.839 117.362 104.165 112.404C102.307 107.362 100.824 100.897 101.618 94.1241C102.508 86.5229 107.351 82.6758 111.887 80.7293C112.623 80.6908 113.401 80.6373 114.228 80.5668C116.504 80.3725 118.712 80.108 120.829 79.7963C120.31 84.2264 122.307 85.7639 119.384 91.7697C116.304 98.0996 119.423 113.319 121.529 120.985Z" fill="#DB7A18"/>
<path fill-rule="evenodd" clip-rule="evenodd" d="M93.3194 103.724C91.1675 101.35 89.7796 98.9548 89.7346 96.7008C89.529 86.4329 97.6224 75.9639 99.3269 62.0626C99.7366 64.4298 100.048 67.1066 100.013 69.6716C99.8896 70.3975 99.7213 71.1033 99.4983 71.7772C96.8865 79.6706 92.299 87.6948 92.4527 95.3001C92.522 98.7292 92.912 101.602 93.3194 103.724Z" fill="#F08F2D"/>
<path fill-rule="evenodd" clip-rule="evenodd" d="M147.355 49.6033C149.533 57.7517 152.484 64.0285 154.925 67.6427C157.458 71.3937 169.36 78.9015 156.776 96.975C144.191 115.049 128.969 120.991 128.969 120.991L119.707 120.983C119.707 120.983 118.705 120.522 117.072 119.705C120.021 118.267 124.447 116.925 128.189 115.993C133.874 114.576 143.512 108.267 147.787 93.5853C152.063 78.9032 149.936 71.7162 147.333 68.0821C146.496 66.9133 145.536 63.9537 144.62 60.4772C145.117 56.257 145.952 52.0647 147.355 49.6033Z" fill="#9E5002"/>
<path fill-rule="evenodd" clip-rule="evenodd" d="M148.5 90.9795C151.801 78.0392 149.777 71.4941 147.333 68.0819C146.496 66.9131 145.536 63.9535 144.62 60.477C144.75 59.3754 144.903 58.2757 145.082 57.2081C146.072 59.2536 146.991 61.3239 147.589 63.0515C149.558 68.7379 154.772 71.9634 151.521 85.2726C150.374 89.9715 149.347 91.2671 148.5 90.9795Z" fill="#B55C04"/>
<path fill-rule="evenodd" clip-rule="evenodd" d="M134.762 117.968C131.245 120.101 128.969 120.99 128.969 120.99L119.707 120.983C119.707 120.983 118.894 120.608 117.541 119.939C113.922 110.204 116.726 103.626 116.726 103.626C116.726 103.626 131.654 97.2428 129.753 104.347C128.73 108.17 131.752 113.686 134.762 117.968Z" fill="#F08F2D"/>
<path fill-rule="evenodd" clip-rule="evenodd" d="M134.762 117.968C134.312 118.241 133.883 118.493 133.476 118.726C131.738 116.687 129.792 113.499 128.449 110.252C127.347 107.589 127.816 103.992 128.487 101.227C129.64 101.622 130.232 102.555 129.753 104.347C128.73 108.17 131.752 113.686 134.762 117.968Z" fill="#B55C04"/>
<path fill-rule="evenodd" clip-rule="evenodd" d="M123.299 120.986L119.707 120.983C119.707 120.983 118.894 120.608 117.541 119.939C113.922 110.204 116.726 103.626 116.726 103.626C116.726 103.626 118.089 103.044 119.939 102.426C119.355 104.482 119.014 107.047 119.527 109.85C120.377 114.49 122.631 118.519 123.299 120.986Z" fill="#FAA855"/>
<path fill-rule="evenodd" clip-rule="evenodd" d="M123.048 74.9121C123.048 74.9121 120.075 79.4344 121.502 82.2572C122.93 85.08 123.67 86.361 127.618 86.2063C131.566 86.0516 137.647 84.9512 141.749 88.8232C144.694 91.6026 142.749 105.199 139.721 114.636C144.842 110.852 151.079 105.157 156.776 96.9751C157.104 96.5034 157.416 96.039 157.711 95.5815C156.736 90.4118 154.723 84.8205 151.23 81.7251C144.298 75.5827 144.923 69.4031 123.048 74.9121Z" fill="#DB7A18"/>
<path fill-rule="evenodd" clip-rule="evenodd" d="M121.162 79.7317C121.053 80.6158 121.118 81.498 121.502 82.2572C122.93 85.0799 123.67 86.361 127.618 86.2063C131.566 86.0516 137.647 84.9512 141.749 88.8232C144.694 91.6026 142.748 105.199 139.721 114.636C141.215 113.531 142.804 112.264 144.448 110.82C149.315 100.065 150.317 84.3844 137.842 83.376C132.448 82.94 127.498 84.5888 122.565 81.1654C121.957 80.7437 121.498 80.2057 121.162 79.7317Z" fill="#B55C04"/>
<path fill-rule="evenodd" clip-rule="evenodd" d="M123.048 74.9121C123.048 74.9121 121.012 78.0095 121.119 80.6775C123.302 80.236 128.923 78.5107 130.313 78.2585C144.921 75.6069 154.986 83.51 155.525 98.4069C155.529 98.5077 155.532 98.6076 155.535 98.7066C155.951 98.1421 156.365 97.5653 156.776 96.9751C157.104 96.5034 157.416 96.039 157.711 95.5815C156.736 90.4118 154.723 84.8205 151.23 81.7251C144.298 75.5827 144.923 69.4031 123.048 74.9121Z" fill="#F08F2D"/>
<path fill-rule="evenodd" clip-rule="evenodd" d="M123.048 74.912C123.048 74.912 122.091 76.3677 121.524 78.1426C124.416 77.0791 133.121 74.2712 140.121 76.0919C145.907 77.5971 148.472 79.2009 149.522 80.0761C144.229 74.566 142.957 69.8983 123.048 74.912ZM150.179 80.7409L150.176 80.7385L150.178 80.7416L150.179 80.7409Z" fill="#FAA855"/>
<path fill-rule="evenodd" clip-rule="evenodd" d="M118.954 78.0456C118.954 78.0456 122.188 82.7856 118.553 85.7829C114.919 88.7802 107.973 86.248 105.913 94.9315C104.242 101.977 112.441 114.487 115.595 118.956C110.717 116.45 102.512 111.898 96.6512 106.911C94.1427 99.4662 92.917 88.5292 98.3438 82.0558C104.429 74.7969 113.114 74.4091 118.954 78.0456Z" fill="#DB7A18"/>
<path fill-rule="evenodd" clip-rule="evenodd" d="M107.187 114.286C103.583 112.116 99.7824 109.576 96.6512 106.911C94.1427 99.4663 92.917 88.5293 98.3438 82.0559C104.401 74.8313 113.032 74.4136 118.871 77.9951C117.436 78.9591 114.865 80.0751 112.014 80.9579C96.801 85.6691 97.4094 100.25 107.187 114.286Z" fill="#F08F2D"/>
<path fill-rule="evenodd" clip-rule="evenodd" d="M119.12 78.3124C119.732 79.3529 121.673 83.2101 118.553 85.783C114.919 88.7803 107.973 86.2481 105.913 94.9315C105.058 98.5355 106.786 103.569 109.1 108.225L109.1 108.225C102.407 104.052 101.062 95.3656 104.817 89.21C108.573 83.0544 115.755 86.1396 117.731 82.8645C118.549 81.5097 118.941 79.8239 119.12 78.3124Z" fill="#B55C04"/>
<path fill-rule="evenodd" clip-rule="evenodd" d="M95.4381 102.53C93.9173 95.6196 93.9081 87.347 98.3438 82.0559C104.233 75.0303 112.558 74.4415 118.382 77.7077C117.852 78.3624 117.151 79.2183 116.036 79.2702C98.0742 80.1082 97.046 89.6654 97.3608 95.9606C97.499 98.725 98.7366 101.295 95.4381 102.53Z" fill="#FAA855"/>
<path fill-rule="evenodd" clip-rule="evenodd" d="M101.224 51.403C101.224 51.403 102.344 47.2024 105.572 46.3123C108.799 45.4222 111.085 45.5209 111.414 45.1168C111.743 44.7129 109.232 43.6874 109.232 43.6874C109.232 43.6874 112.174 42.923 114.28 45.1295C116.386 47.3359 113.195 51.095 108.417 51.4055C103.638 51.7159 101.82 54.9048 101.224 51.403Z" fill="#F98C23"/>
<path fill-rule="evenodd" clip-rule="evenodd" d="M101.224 51.403C101.224 51.403 102.344 47.2023 105.572 46.3122C108.799 45.4221 111.085 45.5208 111.414 45.1167C111.743 44.7127 109.233 43.6873 109.233 43.6873C109.233 43.6873 109.286 43.6736 109.382 43.6552C110.752 44.1572 112.401 44.9071 111.721 45.4164C110.615 46.2445 106.351 45.9646 104.731 47.7003C103.377 49.1519 102.684 51.1282 101.316 51.851C101.283 51.7157 101.252 51.5667 101.224 51.403Z" fill="#FAA855"/>
<path fill-rule="evenodd" clip-rule="evenodd" d="M114.356 45.2129C116.305 47.4294 113.136 51.0987 108.417 51.4054C104.727 51.6451 102.803 53.5997 101.843 52.8673C103.404 52.2947 105.745 50.1578 107.846 50.3663C110.254 50.6052 111.969 50.4469 113.729 48.5551C114.581 47.6398 114.582 46.3257 114.356 45.2129Z" fill="#BD6C1B"/>
<path fill-rule="evenodd" clip-rule="evenodd" d="M114.804 51.1292C116.204 54.8449 114.499 70.548 114.341 70.7283C111.025 74.498 108.319 70.8601 107.837 76.5949C107.28 83.2101 110.037 82.9919 120.513 81.5669C130.99 80.1419 131.768 72.2034 129.344 70.1065C126.92 68.0094 126.368 68.009 125.929 66.2444C125.489 64.4798 114.804 51.1292 114.804 51.1292Z" fill="url(#paint0_linear)"/>
<path fill-rule="evenodd" clip-rule="evenodd" d="M107.921 79.7186C108.645 83.0786 112.074 82.7149 120.513 81.5669C128.977 80.4157 131.11 75.0137 130.34 71.8747C128.936 73.6974 127.957 77.9025 119.87 79.9338C113.572 81.5156 109.901 80.6963 107.921 79.7186Z" fill="#D49779"/>
<path fill-rule="evenodd" clip-rule="evenodd" d="M115.434 52.8271C116.623 55.9801 115.575 67.7624 115.133 71.3699C115.805 70.9227 116.457 70.2658 116.664 69.341C116.999 67.8367 117.065 59.6073 117.074 54.8948C116.086 53.6422 115.434 52.8271 115.434 52.8271Z" fill="#F5CCBA"/>
<path fill-rule="evenodd" clip-rule="evenodd" d="M148.194 60.2467C148.194 60.2467 146.603 50.9832 152.834 49.4995C159.065 48.0159 160.826 52.7036 159.555 55.6246C158.285 58.5456 154.698 62.7329 148.194 60.2467Z" fill="#EBB794"/>
<path fill-rule="evenodd" clip-rule="evenodd" d="M158.196 50.1284C159.98 51.4281 160.326 53.8516 159.555 55.6246C158.383 58.3206 155.237 62.095 149.645 60.7058C151.99 60.3452 156.336 59.3841 157.559 57.1136C158.704 54.9873 158.471 51.9106 158.196 50.1284Z" fill="#DBA581"/>
<path fill-rule="evenodd" clip-rule="evenodd" d="M154.188 53.1533C156.973 50.6232 155.947 55.3528 155.953 55.3712C156.86 55.6029 158.295 51.6863 154.991 51.7892C152.298 51.873 150.609 55.0061 150.452 57.3911C150.355 58.8744 151.528 56.7366 151.84 56.2776C152.603 55.1563 153.253 54.1473 154.188 53.1533Z" fill="#D49779"/>
<path fill-rule="evenodd" clip-rule="evenodd" d="M105.814 8.02329C105.814 8.02329 109.673 7.47506 111.44 4.60949C113.206 1.74407 118.499 1.74831 119.547 1.74915C120.594 1.74999 121.035 1.97102 121.752 1.36508C122.47 0.759132 121.698 0.648402 122.745 0.649242C123.793 0.650082 128.534 0.598524 129.03 1.42597C129.526 2.25341 128.423 1.92189 130.187 2.52968C131.951 3.13746 135.147 4.79397 136.249 5.78722C137.351 6.78062 137.681 7.11168 138.508 7.71871C139.334 8.32589 139.223 9.15285 140.105 10.2562C140.986 11.3595 142.363 12.5735 142.473 12.9044C142.583 13.2353 143.243 15.1655 143.932 15.9655C144.62 16.7655 144.564 17.4546 144.729 18.8331C144.893 20.2114 144.672 21.2864 144.919 22.0309C145.167 22.7753 145.415 23.1615 145.414 23.4647C145.414 23.7679 145.414 24.1263 145.111 24.126C144.807 24.1258 116.498 22.3116 108.12 20.2097C99.7412 18.1079 97.8668 18.1065 98.4207 14.6886C98.9747 11.2708 99.6373 10.3342 100.713 9.86636C101.788 9.39857 102.891 8.9308 103.884 8.68347C104.876 8.43613 105.814 8.02329 105.814 8.02329Z" fill="#36404C"/>
<path fill-rule="evenodd" clip-rule="evenodd" d="M105.814 8.02346C105.814 8.02346 109.674 7.47509 111.44 4.60967C113.206 1.74395 118.499 1.74834 119.547 1.74918C120.594 1.75002 121.035 1.97105 121.752 1.3651C122.447 0.778088 121.745 0.655777 122.652 0.649492C121.048 3.35808 117.152 9.3666 113.801 10.0646C109.887 10.8797 103.732 11.5962 101.08 9.70748C102.037 9.29524 103.004 8.90272 103.884 8.68349C104.876 8.43616 105.814 8.02346 105.814 8.02346Z" fill="#445161"/>
<path fill-rule="evenodd" clip-rule="evenodd" d="M120.564 1.78878C120.989 1.79494 121.32 1.72986 121.752 1.3651C122.47 0.75915 121.698 0.64842 122.745 0.64926C123.793 0.6501 128.534 0.598542 129.03 1.42599C129.217 1.73813 129.176 1.88536 129.148 1.98038C126.928 2.54931 123.66 3.7584 122.465 6.10743C120.588 9.79981 122.352 9.80122 120.313 9.24827C118.273 8.69517 114.744 9.2438 115.462 7.81096C115.889 6.95785 118.409 4.11392 120.564 1.78878Z" fill="#19212C"/>
<path fill-rule="evenodd" clip-rule="evenodd" d="M120.139 1.6696C120.139 1.6696 117.673 2.75996 117.373 3.05202C117.074 3.34422 115.516 5.77682 114.932 7.21663C114.347 8.65659 115.267 10.2567 115.98 10.7143C116.693 11.1717 117.699 11.3147 118.421 11.2193C119.143 11.124 120.949 9.90492 122.337 8.57482C123.725 7.24486 124.444 4.80339 124.483 3.91416C124.522 3.02492 124.088 2.05847 123.573 1.91049C123.059 1.76251 120.139 1.6696 120.139 1.6696Z" fill="#B3B3B3"/>
<g filter="url(#filter0_d)">
<path fill-rule="evenodd" clip-rule="evenodd" d="M118.586 3.31405C118.586 3.31405 118.044 3.43895 117.633 3.86207C117.221 4.28533 115.811 6.12346 115.514 7.3758C115.218 8.62815 115.699 10.05 116.918 10.3345C118.137 10.6188 119.458 9.27775 120.191 8.41638C120.923 7.55516 121.72 5.74504 121.876 4.96004C122.031 4.17505 121.868 3.7646 121.868 3.7646L118.586 3.31405Z" fill="#F5D755"/>
</g>
<path fill-rule="evenodd" clip-rule="evenodd" d="M145.414 23.5616C145.411 23.8394 145.382 24.1263 145.111 24.1261C144.807 24.1258 116.498 22.3116 108.12 20.2098C99.7412 18.1079 97.8668 18.1065 98.4207 14.6887C98.7126 12.8882 99.0346 11.7764 99.4312 11.0589C101.455 9.55397 104.633 8.04476 109.342 7.86114C119.046 7.48307 129.353 10.689 131.392 12.3997C133.316 14.0143 140.49 21.182 145.414 23.5616Z" fill="#19212C"/>
<path fill-rule="evenodd" clip-rule="evenodd" d="M134.89 23.394C125.822 22.673 113.244 21.4952 108.119 20.2097C104.36 19.2664 101.91 18.7462 100.402 18.1504L100.463 17.3534C100.463 17.3534 105.918 8.39638 118.508 12.1174C131.099 15.8384 142.186 23.4269 142.186 23.4269L134.89 23.394Z" fill="#0C0F14"/>
<path fill-rule="evenodd" clip-rule="evenodd" d="M105.876 13.3276C105.876 13.3276 104.442 14.3741 104.495 16.3038C104.549 18.2334 105.489 15.0915 107.419 14.3212C109.349 13.551 110.507 13.3313 110.507 13.3313C110.507 13.3313 107.804 15.3139 107.969 16.1411C108.134 16.9683 111.441 17.3569 113.482 16.0905C115.523 14.824 120.252 15.7438 122.302 17.9722C124.351 20.2004 134.989 21.0413 138.838 22.5062C142.687 23.9709 146.826 20.4674 144.701 28.9312C142.575 37.395 141.098 23.7758 128.031 24.5373C114.963 25.2987 114.462 31.6385 114.462 31.6385C114.462 31.6385 112.699 30.4242 114.135 27.1174C115.571 23.8105 110.388 24.9641 110.33 28.5478C110.272 32.1314 110.157 37.3138 111.148 38.8583C112.14 40.4027 100.78 43.4259 94.9984 34.0488C89.2169 24.6715 95.344 15.6347 105.876 13.3276Z" fill="#FA8E22"/>
<path fill-rule="evenodd" clip-rule="evenodd" d="M99.7249 38.7612C97.9976 37.7471 96.3464 36.2354 94.9984 34.049C91.1357 27.7838 92.5897 21.671 97.1211 17.6153C95.6757 19.8877 94.1362 23.7566 95.1512 29.1782C96.055 34.0053 98.0373 37.0005 99.7249 38.7612Z" fill="#FAA855"/>
<path fill-rule="evenodd" clip-rule="evenodd" d="M108.083 15.6766C107.988 15.852 107.943 16.0109 107.969 16.1411C108.134 16.9683 111.441 17.357 113.482 16.0905C115.523 14.824 120.252 15.7438 122.302 17.972C124.352 20.2004 134.989 21.0415 138.838 22.5062C139.712 22.8388 140.6 22.9148 141.427 22.9336C141.258 23.2763 140.908 23.5868 140.425 23.8126C139.269 24.3533 133.41 21.5679 123.306 19.8227C113.201 18.0776 119.672 16.2577 113.833 17.0517C107.994 17.8457 107.28 17.4018 107.517 16.3755C107.593 16.0501 107.815 15.8281 108.083 15.6766Z" fill="#BD6C1B"/>
<path fill-rule="evenodd" clip-rule="evenodd" d="M144.958 27.8241C144.886 28.1684 144.8 28.5368 144.701 28.9313C142.575 37.395 141.098 23.7759 128.031 24.5373C114.964 25.2988 114.462 31.6387 114.462 31.6387C114.462 31.6387 114.424 31.612 114.363 31.5565C114.405 30.7948 114.504 29.8482 114.73 29.2115C115.166 27.9881 116.46 24.6908 124.092 22.7841C131.723 20.8774 140.197 25.3235 142.051 27.7332C142.929 28.8749 143.95 28.4657 144.958 27.8241Z" fill="#BD6C1B"/>
<path fill-rule="evenodd" clip-rule="evenodd" d="M109.692 40.1313C109.059 40.3334 108.257 40.4873 107.347 40.5484C106.886 40.2547 106.422 39.935 105.958 39.5868C98.4223 33.9354 99.3006 21.9746 99.3006 21.9746C101.413 31.8751 105.582 37.2379 109.692 40.1313Z" fill="#BD6C1B"/>
<path fill-rule="evenodd" clip-rule="evenodd" d="M139.133 45.5519C139.133 45.5519 137.848 42.0509 134.14 41.7209C130.432 41.3909 127.806 41.7915 127.427 41.4853C127.049 41.179 129.935 39.9409 129.935 39.9409C129.935 39.9409 126.555 39.681 124.134 41.891C121.713 44.1011 125.378 46.9326 130.868 46.5446C136.359 46.1566 138.446 48.6811 139.133 45.5519Z" fill="#F98C23"/>
<path fill-rule="evenodd" clip-rule="evenodd" d="M138.625 44.5726C137.955 43.5104 136.566 41.9369 134.14 41.7209C130.432 41.3908 127.806 41.7917 127.427 41.4852C127.125 41.2407 128.903 40.4025 129.633 40.0743C128.57 40.4002 127.121 40.9341 127.12 41.4218C127.12 42.1917 128.817 42.0748 130.989 42.0765C133.16 42.0783 134.857 41.8427 136.278 42.9097C137.321 43.6938 137.833 44.3205 138.625 44.5726Z" fill="#FAA855"/>
<path fill-rule="evenodd" clip-rule="evenodd" d="M123.471 43.9087C124.033 45.4903 126.996 46.818 130.868 46.5444C135.415 46.2232 137.629 47.8994 138.645 46.7076L137.221 46.1659C134.419 45.0978 133.47 46.1233 128.023 45.5267C125.577 45.2589 124.222 44.5777 123.471 43.9087Z" fill="#BD6C1B"/>
<path d="M120.518 6.1279C120.311 6.9985 119.23 2.18202 120.191 4.95772C120.323 5.33815 120.474 5.72561 120.518 6.1279ZM116.8 7.46718C116.293 7.98332 116.623 5.93051 116.814 7.32335L116.8 7.46718ZM117.902 7.23291C117.667 8.05769 116.933 4.05018 117.668 6.27855C117.771 6.58913 117.879 6.90509 117.902 7.23291ZM119.512 7.43235C119.436 8.55387 117.61 1.31264 118.999 5.60387C119.194 6.20473 119.404 6.80888 119.512 7.43235Z" fill="white"/>
<path d="M111.967 5.52434C112.857 5.57503 110.776 6.94845 111.833 5.61002L111.967 5.52434ZM134.956 11.8727C135.011 11.9512 137.469 15.3733 136.375 14.4355C135.953 14.0737 134.355 11.323 134.956 11.8727ZM142.758 18.7798C142.168 19.909 142.913 20.5154 142.5 20.4589C142.065 20.3995 142.227 18.8771 142.656 18.6161L142.758 18.7798ZM138.882 10.9085C138.907 10.9163 140.35 14.0958 139.252 12.4295C139.019 12.0754 138.639 11.3236 138.882 10.9085ZM131.835 4.61131C131.975 4.9525 131.457 5.3918 132.153 6.80534C132.514 7.53614 131.197 6.55226 131.513 4.91319C131.556 4.68882 131.609 4.55995 131.835 4.61131Z" fill="#19212C"/>
<path fill-rule="evenodd" clip-rule="evenodd" d="M95.8094 20.8218C94.0959 27.549 98.8941 40.3249 100.369 38.5898C100.369 38.5898 96.4345 29.2311 95.8094 20.8218Z" fill="#FAA855"/>
<path d="M110.997 57.339C111.007 57.3211 114.587 50.9973 127.734 55.1648L127.284 56.5866C115.275 52.7799 112.287 58.0828 112.278 58.0977L110.997 57.339Z" fill="black"/>
<path fill-rule="evenodd" clip-rule="evenodd" d="M144.204 49.0893L146.88 46.8017L147.618 49.5854L145.455 51.6366L144.204 49.0893Z" fill="black"/>
<path fill-rule="evenodd" clip-rule="evenodd" d="M131.236 48.0392C127.851 48.965 126.071 53.2397 127.26 57.5865C128.449 61.9334 133.14 64.3066 136.525 63.3806C139.91 62.4547 146.951 54.6954 145.762 50.3485C144.573 46.0016 134.621 47.1134 131.236 48.0392Z" fill="#B3B3B3"/>
<path fill-rule="evenodd" clip-rule="evenodd" d="M141.668 59.5512C144.275 56.7094 146.467 52.928 145.762 50.3485C144.847 47.0052 138.75 46.8911 134.443 47.4378C135.928 47.5785 137.788 47.9646 139.361 48.9905C142.099 50.7766 142.79 56.2865 141.668 59.5512Z" fill="#999999"/>
<path d="M136.171 62.0988C132.831 63.0124 129.331 60.8583 128.354 57.2875C127.378 53.7166 129.294 50.0813 132.634 49.1677C135.974 48.2541 139.474 50.4082 140.45 53.979C141.427 57.5498 139.511 61.1852 136.171 62.0988Z" fill="black"/>
<path fill-rule="evenodd" clip-rule="evenodd" d="M131.318 48.6059C131.877 48.7633 130.854 49.4105 131.029 48.6946C131.062 48.5576 131.217 48.5909 131.318 48.6059ZM130.126 49.2347C130.687 49.3961 129.653 50.0462 129.832 49.3224C129.866 49.1841 130.024 49.2188 130.126 49.2347ZM128.901 50.6944C129.465 50.8571 128.422 51.5111 128.605 50.7812C128.64 50.6426 128.798 50.6781 128.901 50.6944ZM128.122 52.2776C128.689 52.4442 127.634 53.1024 127.823 52.3635C127.858 52.2237 128.019 52.2607 128.122 52.2776ZM127.793 54.3646C128.363 54.5364 127.295 55.2001 127.489 54.4493C127.526 54.3076 127.689 54.3465 127.793 54.3646ZM127.873 56.3569C128.447 56.5392 127.358 57.2083 127.561 56.4394C127.599 56.2946 127.766 56.3362 127.873 56.3569ZM128.429 58.4372C129.007 58.6357 127.893 59.3089 128.104 58.5167C128.144 58.3666 128.32 58.4131 128.429 58.4372ZM129.31 60.006C129.89 60.2195 128.756 60.8931 128.974 60.0825C129.015 59.928 129.198 59.9787 129.31 60.006ZM130.722 61.2301C131.304 61.4535 130.158 62.1266 130.38 61.3052C130.423 61.1478 130.61 61.2009 130.722 61.2301ZM132.145 62.0198C132.727 62.252 131.573 62.9235 131.798 62.0937C131.841 61.9339 132.031 61.989 132.145 62.0198ZM133.962 62.4353C134.544 62.6726 133.387 63.3426 133.612 62.5088C133.655 62.3476 133.848 62.4036 133.962 62.4353ZM135.819 62.4758C136.4 62.7182 135.241 63.3863 135.466 62.5487C135.51 62.3861 135.704 62.4431 135.819 62.4758ZM137.595 61.8851C138.175 62.1245 137.023 62.7926 137.245 61.9594C137.288 61.7977 137.481 61.8533 137.595 61.8851ZM139.194 60.7621C139.771 60.9936 138.632 61.6617 138.849 60.8386C138.891 60.6789 139.08 60.7318 139.194 60.7621ZM140.337 59.4017C140.913 59.6233 139.789 60.292 140 59.4807C140.041 59.3237 140.224 59.3734 140.337 59.4017ZM140.987 57.6867C141.558 57.8921 140.458 58.5612 140.661 57.7691C140.7 57.6169 140.875 57.6617 140.987 57.6867ZM141.242 56.1092C141.81 56.3024 140.73 56.9692 140.925 56.1941C140.963 56.0452 141.133 56.0869 141.242 56.1092ZM141.161 54.6302C141.727 54.8125 140.664 55.4761 140.853 54.7175C140.89 54.5722 141.055 54.6104 141.161 54.6302ZM141.003 53.2685C141.566 53.4457 140.515 54.1062 140.699 53.3569C140.735 53.2137 140.898 53.25 141.003 53.2685ZM140.45 51.8283C141.011 51.9987 139.972 52.6551 140.152 51.9177C140.186 51.7766 140.346 51.811 140.45 51.8283ZM139.66 50.6838C140.218 50.8482 139.191 51.501 139.367 50.7742C139.4 50.6353 139.557 50.6679 139.66 50.6838ZM138.831 49.7165C139.388 49.8783 138.366 50.5282 138.54 49.8069C138.573 49.6688 138.728 49.701 138.831 49.7165ZM137.705 49.0056C138.261 49.1626 137.247 49.8098 137.417 49.0967C137.45 48.9602 137.603 48.9912 137.705 49.0056ZM136.46 48.4921C137.016 48.6458 136.006 49.2906 136.176 48.5832C136.208 48.4498 136.36 48.4783 136.46 48.4921ZM135.118 48.1755C135.673 48.328 134.665 48.9719 134.834 48.2664C134.866 48.1335 135.018 48.162 135.118 48.1755ZM133.775 48.1747C134.331 48.3263 133.322 48.9697 133.491 48.2653C133.523 48.1326 133.676 48.1612 133.775 48.1747ZM132.572 48.2324C133.129 48.3869 132.113 49.032 132.285 48.322C132.318 48.1864 132.471 48.2181 132.572 48.2324Z" fill="#E6E6E6"/>
<path fill-rule="evenodd" clip-rule="evenodd" d="M106.255 52.4636C110.624 52.5856 112.39 55.5272 112.386 59.6681C112.383 63.809 109.883 66.8965 106.243 67.012C102.604 67.1276 97.8008 63.7972 97.8042 59.6564C97.8075 55.5155 101.885 52.3416 106.255 52.4636Z" fill="#CCCCCC"/>
<path fill-rule="evenodd" clip-rule="evenodd" d="M101.266 65.3834C99.3048 64.0356 97.8023 61.9731 97.8042 59.6565C97.8061 57.2285 99.2094 55.1333 101.251 53.8397C99.8856 55.1179 99.101 56.6212 98.8984 58.9976C98.6486 61.9256 99.5598 63.4934 101.266 65.3834Z" fill="#E6E6E6"/>
<path d="M105.578 65.8221C108.76 65.8247 111.341 63.0691 111.344 59.6674C111.347 56.2657 108.769 53.5059 105.587 53.5034C102.405 53.5008 99.8236 56.2564 99.8209 59.6581C99.8181 63.0599 102.395 65.8196 105.578 65.8221Z" fill="black"/>
<path fill-rule="evenodd" clip-rule="evenodd" d="M105.289 53.0362C105.073 53.871 104.174 52.665 104.973 52.6652C105.184 52.6653 105.302 52.8327 105.289 53.0362ZM103.346 53.6162C103.132 54.4442 102.241 53.248 103.033 53.2485C103.242 53.2487 103.36 53.4145 103.346 53.6162ZM101.828 54.4139C101.616 55.2346 100.732 54.0489 101.518 54.0496C101.724 54.0497 101.841 54.2141 101.828 54.4139ZM100.677 55.9123C100.469 56.7216 99.5972 55.5528 100.372 55.5535C100.574 55.5537 100.69 55.7157 100.677 55.9123ZM99.9716 57.7482C99.7664 58.5476 98.9056 57.3935 99.6702 57.3942C99.8699 57.3943 99.9846 57.5542 99.9716 57.7482ZM99.6432 59.3456C99.4392 60.1449 98.5783 58.9916 99.3424 58.9926C99.5418 58.9928 99.6559 59.1524 99.6432 59.3456ZM99.1251 61.0999C99.3306 60.301 100.174 61.4403 99.4306 61.4567C99.2278 61.4612 99.1118 61.2954 99.1251 61.0999ZM100.061 63.1425C99.213 62.9326 100.47 62.0355 100.408 62.8525C100.394 63.0468 100.251 63.1522 100.061 63.1425ZM101.104 64.7467C100.271 64.5346 101.47 63.6357 101.472 64.4316C101.472 64.6404 101.306 64.7595 101.104 64.7467ZM102.997 66.0742C102.152 65.8576 103.372 64.9526 103.37 65.7555C103.369 65.9678 103.202 66.0876 102.997 66.0742ZM104.713 66.5712C103.863 66.3518 105.092 65.4419 105.089 66.2503C105.089 66.4645 104.92 66.5851 104.713 66.5712ZM106.509 66.5351C105.658 66.3143 106.885 65.3975 106.887 66.2119C106.888 66.4279 106.717 66.5491 106.509 66.5351ZM108.384 66.0249C107.529 65.8024 108.763 64.8813 108.765 65.7003C108.765 65.9175 108.594 66.0391 108.384 66.0249ZM109.53 65.0384C108.675 64.8162 109.91 63.8952 109.91 64.7145C109.911 64.9316 109.739 65.0526 109.53 65.0384ZM111.013 63.6227C110.793 64.4799 109.869 63.244 110.689 63.2438C110.906 63.2437 111.026 63.4142 111.013 63.6227ZM111.743 62.0243C111.525 62.8785 110.604 61.6468 111.421 61.6461C111.636 61.6458 111.757 61.8169 111.743 62.0243ZM112.079 60.366C111.861 61.2166 110.944 59.9901 111.758 59.9894C111.972 59.9892 112.092 60.1595 112.079 60.366ZM112.158 58.6289C111.941 59.4765 111.027 58.2542 111.838 58.2534C112.051 58.2531 112.172 58.423 112.158 58.6289ZM111.704 57.0492C111.487 57.8939 110.577 56.6755 111.384 56.6747C111.597 56.6744 111.717 56.8439 111.704 57.0492ZM111.053 55.7655C110.836 56.6086 109.928 55.3923 110.734 55.3914C110.946 55.3913 111.066 55.5605 111.053 55.7655ZM110.145 54.6987C109.928 55.5405 109.022 54.3258 109.827 54.3251C110.039 54.3248 110.159 54.4938 110.145 54.6987ZM108.857 53.6712C108.64 54.5118 107.734 53.2982 108.539 53.2977C108.751 53.2975 108.871 53.4665 108.857 53.6712ZM107.174 53.1069C106.958 53.9454 106.055 52.7345 106.857 52.7343C107.069 52.7343 107.188 52.9028 107.174 53.1069Z" fill="#E6E6E6"/>
<path d="M113.32 74.4486C115.318 74.4502 116.938 74.1223 116.938 73.7161C116.939 73.3099 115.319 72.9794 113.321 72.9778C111.323 72.9762 109.703 73.3041 109.702 73.7103C109.702 74.1165 111.322 74.447 113.32 74.4486Z" fill="#F5CCBA"/>
<path d="M135.916 52.5406C137.374 53.5984 126.753 51.0187 133.262 52.0082C134.154 52.1436 135.082 52.2573 135.916 52.5406ZM135.069 57.3401C136.407 58.3977 127.759 56.009 132.943 56.8568C133.665 56.9751 134.405 57.0891 135.069 57.3401ZM137.303 55.1477C139.401 56.2298 123.202 52.6456 133.154 54.3184C134.547 54.5526 135.965 54.7665 137.303 55.1477Z" fill="#808080"/>
<path d="M103.266 56.1533C106.421 56.6992 104.431 57.019 102.635 56.2545C101.904 55.9431 103.19 56.1428 103.266 56.1533ZM103.778 63.2143C104.174 63.4272 103.573 63.5847 103.431 63.1796C103.532 63.1118 103.673 63.1784 103.778 63.2143ZM103.106 61.0526C105.501 61.4235 103.468 61.7627 102.702 61.08C102.779 60.9931 103.004 61.0436 103.106 61.0526ZM103.214 58.4492C107.597 59.4351 106.588 59.724 102.89 58.7108C100.157 57.9621 101.273 58.0411 103.214 58.4492Z" fill="#808080"/>
<path fill-rule="evenodd" clip-rule="evenodd" d="M219.743 136.547C221.125 135.817 223.66 137.529 224.489 138.693C225.745 140.454 226.02 142.291 225.069 144.241C223.519 147.39 222.171 149.861 219.198 151.857C214.464 155 214.444 154.311 211.187 159.339C209.103 162.555 207.905 162.237 204.279 162.579C203.455 162.657 200.408 163.031 199.801 162.703C199.741 162 203.772 158.471 204.588 157.574C207.039 154.884 207.318 153.474 208.373 150.135C209.604 146.241 211.851 146.068 214.251 143.078C215.574 141.43 218.219 137.654 219.743 136.547Z" fill="#828B56"/>
<path fill-rule="evenodd" clip-rule="evenodd" d="M229.766 151.318C230.344 150.787 230.925 150.229 231.693 150.02C232.861 151.052 231.28 153.589 230.484 154.457C228.443 156.684 227.448 156.303 226.406 159.701C225.45 162.818 225.683 162.884 223.577 165.481L223.063 166.116C219.541 170.47 218.429 171.562 216.414 176.965C216.113 177.796 217.018 176.721 217.36 176.428C220.615 173.631 219.615 176.056 221.604 175.114C225.061 173.478 229.364 168.584 232.571 165.993C234.475 164.475 238.22 163.722 240.608 163.972C244.027 164.33 240.76 167.025 239.617 168.18C234.239 173.584 231.919 174.208 225.421 177.717C221.022 180.092 217.381 182.319 213.252 185.135C212.497 185.649 206.517 189.474 206.047 188.987C205.618 188.543 208.882 183.196 209.344 182.362C210.173 180.871 214.831 172.874 214.634 171.831C214.332 170.231 210.16 174.712 209.542 175.128C208.145 176.069 205.77 175.43 203.75 176.018C201.438 176.691 200.671 177.375 203.358 175.097C212.297 167.517 221.11 159.251 229.766 151.318Z" fill="#828B56"/>
<path fill-rule="evenodd" clip-rule="evenodd" d="M125.565 141.018C127.347 139.903 127.538 143.134 125.89 142.657C125.137 142.439 125.047 141.636 125.565 141.018ZM127.326 219.162C126.772 221.327 123.908 219.539 125.316 218.135C126.061 217.392 127.413 217.866 127.326 219.162ZM122.882 208.365C124.913 207.382 124.83 210.884 123.075 210.197C122.247 209.874 122.212 208.999 122.882 208.365ZM124.004 196.743C126.01 195.779 125.919 199.214 124.196 198.55C123.38 198.236 123.338 197.369 124.004 196.743ZM123.14 187.138C121.554 185.996 124.465 184.412 124.52 186.276C124.545 187.119 123.919 187.428 123.14 187.138ZM122.94 175.934C124.782 174.834 125.241 177.863 123.579 177.834C122.674 177.818 122.161 176.831 122.94 175.934ZM121.819 163.938C123.083 162.239 124.81 165.205 122.92 165.49C121.974 165.632 121.423 164.928 121.819 163.938ZM123.49 152.098C124.599 153.912 121.304 154.093 121.821 152.41C122.057 151.644 122.87 151.561 123.49 152.098Z" fill="black"/>
<path fill-rule="evenodd" clip-rule="evenodd" d="M213.488 253.375C213.488 253.375 216.782 250.88 219.377 251.679C221.972 252.477 226.563 257.367 226.563 260.262C226.563 263.156 223.868 267.049 221.273 268.247C218.678 269.444 209.695 277.828 209.695 277.828L201.611 268.646L198.617 264.454L213.488 253.375Z" fill="#433125"/>
<path fill-rule="evenodd" clip-rule="evenodd" d="M204.009 271.37L201.611 268.646L198.617 264.454L211.827 254.613C212.583 254.493 213.039 254.423 213.039 254.423C213.538 254.423 215.883 253.275 216.832 254.772C217.78 256.269 218.628 256.918 218.279 258.016C217.93 259.114 215.284 262.208 214.037 264.154C212.789 266.101 209.895 267.149 208.897 268.197C208.227 268.9 205.756 270.436 204.009 271.37Z" fill="#664939"/>
<path fill-rule="evenodd" clip-rule="evenodd" d="M180.25 224.78C185.24 240.45 196.718 262.507 196.718 262.507C196.718 262.507 199.513 264.503 200.91 264.453C202.307 264.404 203.904 266.3 203.904 266.3C203.904 266.3 209.643 272.588 210.841 275.083C212.038 277.578 209.893 278.526 209.893 278.526C209.893 278.526 210.491 285.188 211.165 285.363C211.839 285.537 215.332 286.062 215.332 286.062C215.332 286.062 214.534 288.432 215.632 289.53C216.729 290.628 217.528 291.626 217.578 292.424C217.628 293.223 216.58 293.971 216.58 293.971C216.58 293.971 212.487 298.712 211.19 299.111C209.892 299.511 208.694 299.86 208.345 300.359C207.996 300.858 205.102 299.76 203.804 299.66C202.506 299.561 192.077 297.864 191.627 297.415C191.178 296.966 191.578 290.927 191.578 290.927C191.578 290.927 188.782 268.071 186.786 262.382C184.79 256.693 174.509 238.628 172.613 215.273C172.415 212.832 170.704 195.296 171.346 193.335C171.8 191.948 174.202 192.384 174.349 194.186C175.182 204.404 177.18 215.018 180.25 224.78Z" fill="#808080"/>
<path fill-rule="evenodd" clip-rule="evenodd" d="M210.878 284.916C210.971 285.174 211.067 285.337 211.165 285.363C211.839 285.537 215.332 286.062 215.332 286.062C215.332 286.062 215.183 286.504 215.102 287.096C212.216 289.79 206.562 295.028 206.192 295.065C205.693 295.115 200.203 294.216 197.608 293.717C195.999 293.408 193.314 292.676 191.508 292.165C191.544 291.434 191.578 290.927 191.578 290.927L191.527 290.516C194.03 291.107 198.56 292.177 199.205 292.32C200.103 292.52 205.393 293.817 206.092 293.169C206.79 292.52 205.044 291.372 205.543 290.124C205.861 289.329 208.792 286.711 210.878 284.916Z" fill="#999999"/>
<path fill-rule="evenodd" clip-rule="evenodd" d="M214.204 285.889C214.847 285.989 215.332 286.062 215.332 286.062C215.332 286.062 215.104 286.739 215.059 287.537C212.792 289.698 208.846 293.363 208.038 293.468C206.89 293.617 207.04 292.22 207.04 292.22L214.204 285.889Z" fill="#B3B3B3"/>
<path fill-rule="evenodd" clip-rule="evenodd" d="M180.25 224.78C185.24 240.45 196.718 262.507 196.718 262.507C196.718 262.507 199.513 264.503 200.91 264.453C202.307 264.403 203.904 266.3 203.904 266.3C203.904 266.3 209.643 272.588 210.841 275.083C212.038 277.578 209.893 278.526 209.893 278.526C209.893 278.526 204.4 282.117 204.101 282.367C203.801 282.616 200.358 273.384 198.961 271.588C197.564 269.791 196.366 269.991 195.168 269.192C193.971 268.394 182.194 247.634 179.099 235.757C176.006 223.88 172.613 200.425 172.363 197.78C172.195 196 172.412 193.778 172.571 192.516C173.372 192.523 174.262 193.111 174.349 194.186C175.182 204.404 177.18 215.017 180.25 224.78Z" fill="#999999"/>
<path fill-rule="evenodd" clip-rule="evenodd" d="M202.22 264.858C203.148 265.401 203.904 266.3 203.904 266.3C203.904 266.3 204.422 266.868 205.179 267.729L200.105 271.112L199.121 271.812C199.065 271.729 199.012 271.653 198.961 271.588C197.564 269.791 196.366 269.991 195.168 269.192C193.971 268.394 182.194 247.634 179.099 235.757C176.006 223.88 172.613 200.425 172.363 197.78C172.195 196 172.412 193.778 172.571 192.516C172.701 192.517 172.834 192.534 172.965 192.565C172.782 194.427 172.649 197.105 172.984 199.674C173.583 204.266 178.672 233.01 179.62 235.505C180.569 238.001 182.864 244.538 183.862 246.085C184.86 247.632 194.466 267.17 195.664 267.669C196.862 268.167 196.845 269.006 198.508 267.818C199.506 267.106 200.977 265.793 202.22 264.858Z" fill="#B3B3B3"/>
<path fill-rule="evenodd" clip-rule="evenodd" d="M171.241 194.016C171.264 193.713 171.298 193.48 171.346 193.335C171.767 192.049 173.864 192.331 174.283 193.816C172.841 194.857 171.855 194.553 171.241 194.016Z" fill="#E6E6E6"/>
<path fill-rule="evenodd" clip-rule="evenodd" d="M190.172 271.011L186.13 274.055C186.13 274.055 185.481 280.642 188.151 284.959C190.82 289.276 192.367 291.022 196.26 290.274C200.152 289.525 200.402 286.88 201.15 286.531C201.899 286.182 202.847 285.683 202.847 285.683C202.847 285.683 199.004 274.903 198.056 273.805C197.108 272.708 190.172 271.011 190.172 271.011Z" fill="#433125"/>
<path fill-rule="evenodd" clip-rule="evenodd" d="M190.172 271.011L186.13 274.055C186.13 274.055 186.059 274.771 186.06 275.885C188.894 276.387 192.153 276.855 193.565 276.65C194.935 276.451 196.754 275.231 198.231 274.06C198.165 273.95 198.106 273.864 198.056 273.805C197.108 272.708 190.172 271.011 190.172 271.011Z" fill="#664939"/>
<path fill-rule="evenodd" clip-rule="evenodd" d="M187.223 273.231L186.13 274.055C186.13 274.055 185.481 280.642 188.151 284.959C190.82 289.276 192.367 291.022 196.26 290.274C198.588 289.826 199.613 288.699 200.221 287.792C200.128 287.017 199.89 286.213 199.703 285.383C199.254 283.387 196.31 277.648 194.264 275.851C192.655 274.439 189.258 273.582 187.223 273.231Z" fill="#91705E"/>
<path fill-rule="evenodd" clip-rule="evenodd" d="M119.216 214.528C117.658 216.676 114.398 216.634 108.929 213.55C101.632 209.436 104.282 206.969 104.613 207.111C104.911 207.24 106.505 210.069 114.84 212.342C115.415 212.499 119.25 213.419 119.507 213.719C119.662 213.9 119.276 214.425 119.216 214.528Z" fill="#828B56"/>
</g>
<defs>
<filter id="filter0_d" x="111.429" y="-0.685913" width="14.5137" height="15.0593" filterUnits="userSpaceOnUse" color-interpolation-filters="sRGB">
<feFlood flood-opacity="0" result="BackgroundImageFix"/>
<feColorMatrix in="SourceAlpha" type="matrix" values="0 0 0 0 0 0 0 0 0 0 0 0 0 0 0 0 0 0 127 0"/>
<feOffset/>
<feGaussianBlur stdDeviation="2"/>
<feColorMatrix type="matrix" values="0 0 0 0 1 0 0 0 0 0.912917 0 0 0 0 0.129167 0 0 0 1 0"/>
<feBlend mode="normal" in2="BackgroundImageFix" result="effect1_dropShadow"/>
<feBlend mode="normal" in="SourceGraphic" in2="effect1_dropShadow" result="shape"/>
</filter>
<linearGradient id="paint0_linear" x1="114.271" y1="81.2126" x2="123.998" y2="52.3068" gradientUnits="userSpaceOnUse">
<stop stop-color="#FFB494"/>
<stop offset="1" stop-color="#E6B99A"/>
</linearGradient>
<clipPath id="clip0">
<rect width="273" height="305" fill="white"/>
</clipPath>
</defs>
</svg>
