<svg width="85" height="97" viewBox="0 0 85 97" fill="none" xmlns="http://www.w3.org/2000/svg">
<mask id="mask0" mask-type="alpha" maskUnits="userSpaceOnUse" x="0" y="13" width="85" height="84">
<circle cx="42.694" cy="55.2753" r="41.7245" fill="#C4C4C4"/>
</mask>
<g mask="url(#mask0)">
<circle cx="42.694" cy="55.2753" r="41.7245" fill="#2B271A"/>
<path fill-rule="evenodd" clip-rule="evenodd" d="M-5.08406 86.0469C-5.08406 86.0469 -7.12875 90.515 -7.43172 93.1657C-7.7347 95.8163 -8.18909 106.267 -8.41629 108.009C-8.64348 109.751 -9.40078 113.613 -9.55227 115.052C-9.70376 116.491 -9.32529 122.171 -6.90184 127.018C-4.47839 131.865 -2.28214 135.121 -0.616055 135.576C1.05003 136.03 2.03459 135.955 2.79189 135.046C3.54918 134.137 4.76087 132.395 6.12405 132.471C7.48723 132.547 9.15338 131.411 9.38057 130.578C9.60777 129.745 11.9555 129.139 11.8797 128.23C11.804 127.321 9.98638 122.701 9.68348 122.247C9.38057 121.793 8.62328 121.565 8.24459 120.429C7.86591 119.293 8.16881 118.688 8.09311 117.855C8.0174 117.022 7.33581 115.81 7.18432 114.75C7.03283 113.689 5.74544 112.478 5.74544 112.478C5.74544 112.478 6.80571 106.873 7.7902 106.116C8.77469 105.359 9.45635 103.238 9.60777 102.481C9.75919 101.724 10.8195 98.7701 10.9709 98.0885C11.1224 97.4069 -4.32697 87.1073 -5.08406 86.0469Z" fill="#DBA581"/>
<path fill-rule="evenodd" clip-rule="evenodd" d="M-6.28752 88.9956C-6.79172 90.3655 -7.29333 91.955 -7.43173 93.1656C-7.7347 95.8162 -8.1891 106.267 -8.41629 108.009C-8.64349 109.751 -9.40078 113.613 -9.55227 115.052C-9.6282 115.773 -9.57095 117.559 -9.19019 119.771C-8.82288 119.418 -8.45801 118.947 -8.25149 119.128C-7.94852 119.393 -6.58541 123.104 -6.16888 124.051C-5.75234 124.997 -4.54065 125.565 -3.02599 127.004C-1.51132 128.443 -0.0345821 128.822 0.419809 128.443C0.874202 128.064 1.63157 125.83 1.48008 125.073C1.3286 124.316 0.571371 123.539 -0.0345097 123.274C-0.640389 123.009 -0.507864 122.858 -0.962255 122.025C-1.41665 121.192 -1.03796 121.04 -0.659281 120.51C-0.280597 119.98 0.249504 119.829 0.628117 118.768C1.00673 117.708 1.3097 117.026 0.855313 115.512C0.400921 113.997 -2.77983 113.013 -3.68861 111.801C-4.59739 110.589 -2.93124 108.544 -2.40114 107.106C-1.87104 105.667 1.91565 95.8214 1.42341 95.3291C1.03399 94.9397 -4.14193 90.7353 -6.28752 88.9956Z" fill="#EBB794"/>
<path fill-rule="evenodd" clip-rule="evenodd" d="M92.9497 82.791C92.9497 82.791 93.7071 89.304 93.7071 91.3488C93.7071 93.3935 94.843 100.21 95.2217 101.308C95.6004 102.406 96.1684 103.239 96.5092 103.769C96.85 104.299 96.9257 105.435 96.9636 106.154C97.0014 106.874 96.2442 108.692 96.2442 109.032C96.2442 109.373 100.334 116.037 100.675 116.719C101.015 117.401 101.621 118.044 101.432 118.802C101.243 119.559 100.391 121.793 99.9932 122.058C99.5956 122.323 99.0275 122.342 98.914 122.494C98.8004 122.645 97.0965 126.186 96.1309 126.659C95.1653 127.132 93.6696 127.776 93.4802 127.833C93.2909 127.89 93.0069 127.795 93.0069 127.795C93.0069 127.795 92.4579 127.928 92.3442 128.496C92.2306 129.064 92.2495 130.162 91.1135 130.654C89.9775 131.146 88.2736 131.695 87.8949 131.714C87.5162 131.733 84.165 130.749 83.9 130.427C83.6349 130.105 83.5024 129.613 83.5024 129.613C83.5024 129.613 78.8449 124.898 78.5798 124.785C78.3147 124.671 77.5953 123.649 77.7089 123.384C77.8224 123.118 78.2011 120.619 78.2011 120.165C78.2011 119.711 78.0876 118.537 78.2011 118.158C78.3147 117.779 78.9206 116.227 79.1099 115.848C79.2993 115.47 80.7002 112.781 80.208 110.661C79.7157 108.54 78.8826 107.518 78.504 106.609C78.1253 105.7 77.936 104.488 77.936 104.488C77.936 104.488 75.8155 101.042 75.2854 99.9065C74.7553 98.7705 74.5659 96.9908 74.5659 96.9908L74.9067 95.0595L92.9497 82.791Z" fill="#EBB794"/>
<path fill-rule="evenodd" clip-rule="evenodd" d="M92.9497 82.791C92.9497 82.791 93.1945 84.897 93.4058 87.0897C90.5753 89.1096 84.7162 93.1413 81.7946 94.0683C77.8564 95.3179 80.0148 102.702 81.3023 106.943C82.4117 110.597 81.8902 112.621 79.9803 113.692C80.2571 112.751 80.4364 111.645 80.208 110.661C79.7157 108.54 78.8826 107.518 78.504 106.609C78.1253 105.7 77.936 104.488 77.936 104.488C77.936 104.488 75.8155 101.042 75.2854 99.9065C74.7553 98.7705 74.5659 96.9908 74.5659 96.9908L74.9067 95.0595L92.9497 82.791Z" fill="#BD8A68"/>
<path fill-rule="evenodd" clip-rule="evenodd" d="M82.2542 93.9067C81.1482 95.3231 80.4703 96.842 80.9237 98.2145C82.2868 102.342 83.9908 104.046 83.6122 108.135C83.2335 112.225 82.8738 113.039 82.0786 113.266C81.5827 113.408 81.2487 113.226 81.0676 112.802C82.0429 111.612 82.1585 109.764 81.3022 106.943C80.0147 102.702 77.8563 95.3182 81.7945 94.0687C81.9405 94.0223 82.0943 93.9679 82.2542 93.9067Z" fill="#DBA581"/>
<path d="M94.6406 111.402C93.32 112.057 91.6917 112.516 90.4712 113.198C89.6785 113.641 91.2548 113.229 91.4268 113.195C92.0871 113.065 94.8007 112.52 95.3035 112.579C95.497 112.602 94.7929 112.746 94.7742 112.75C93.815 112.973 89.8363 113.766 89.0359 113.709C89.5049 113.282 92.2876 112.461 92.9114 111.936C92.2528 111.98 90.4945 112.588 89.6763 112.779C87.194 113.359 91.6386 112.091 91.9689 111.998C92.2517 111.918 95.2955 111.06 94.7698 111.334L94.6406 111.402ZM89.5996 106.659C89.8644 106.497 92.3652 105.197 92.4358 105.303C92.53 105.443 89.1515 107.056 89.5996 106.659ZM90.1887 105.126C90.189 105.126 92.7905 103.911 92.1587 104.357C91.7804 104.624 88.1442 106.259 88.8713 105.809C89.2614 105.567 89.773 105.328 90.1887 105.126ZM87.527 105.736C88.4331 105.119 90.0138 104.313 91.0171 103.817C92.3128 103.177 91.5047 103.732 90.8154 104.104C90.2576 104.405 86.9925 106.167 87.527 105.736ZM88.6821 104.147C90.0415 103.35 91.4567 102.883 92.8206 102.185C92.944 102.122 93.0692 102.277 92.449 102.528C91.633 102.858 90.6785 103.363 89.8574 103.741C89.8479 103.745 87.6476 104.786 88.6821 104.147ZM88.8075 103.083C90.0843 102.329 91.575 101.652 92.9313 101.037C93.4022 100.823 93.0839 101.15 92.7467 101.311C91.6459 101.835 90.5536 102.431 89.4519 102.915C89.4483 102.917 88.3216 103.401 88.8075 103.083ZM88.8661 102.257C88.87 102.255 94.8393 99.2176 92.6217 100.55C92.0631 100.885 88.6418 102.631 88.0758 102.757C88.1531 102.641 88.7016 102.343 88.8661 102.257ZM91.9182 99.8967C91.5192 100.177 90.4921 100.676 90.0074 100.933C87.5895 102.214 87.9035 101.809 90.0596 100.705C90.1935 100.636 91.8619 99.7231 91.9865 99.7937L91.9182 99.8967ZM93.8873 97.9503C93.8461 98.0982 92.0115 99.061 91.8641 99.1441C90.7809 99.7543 89.4747 100.534 88.3629 101.052C87.3691 101.515 90.119 99.908 90.1279 99.9029C90.5317 99.6757 93.7168 97.8468 93.8873 97.9503ZM92.5563 97.939C92.0211 98.2283 88.1576 100.367 87.9644 100.339C88.0482 100.114 90.7174 98.7374 91.1476 98.5055C91.3639 98.3889 93.1565 97.4023 93.3003 97.4639L93.2196 97.5587C93.078 97.6826 92.7388 97.8413 92.5563 97.939ZM91.8943 97.5058C91.1272 97.8944 86.0206 100.532 85.7281 100.574C85.5172 100.468 86.6918 99.9538 86.7174 99.9407C87.2406 99.6727 92.5582 96.9325 92.6684 97.0066C92.8084 97.1006 91.9793 97.4633 91.8943 97.5058ZM91.2869 96.9878C90.989 97.2703 86.3645 99.6614 86.1651 99.632C85.8883 99.5914 87.6689 98.7413 87.7957 98.6743C88.139 98.4929 91.1423 96.8846 91.2857 96.9479L91.2869 96.9878ZM90.7931 96.5428C89.9509 96.9863 84.9936 99.624 85.697 99.0149C85.9463 98.799 91.561 95.9602 91.9175 95.8357C92.2004 95.7369 91.7235 96.0734 91.6824 96.0971C91.3898 96.2657 91.0874 96.3891 90.7931 96.5428ZM85.5362 97.6115C86.7751 96.7808 88.6248 96.0019 90.0163 95.2937C90.0311 95.2862 94.7019 92.9078 92.8387 94.0534C92.1408 94.4825 91.0833 94.9657 90.3266 95.3487C89.4315 95.8016 84.6786 98.2296 85.4395 97.6812L85.5362 97.6115ZM85.4218 96.6756C85.8455 96.2715 91.9724 93.2511 92.7567 93.0067C92.8483 93.0978 90.9817 93.9893 90.749 94.113C89.887 94.5713 86.1481 96.6083 85.4218 96.6756ZM87.2441 94.9914C88.2301 94.4761 93.0738 91.9444 92.3909 92.4481C91.7653 92.9095 90.2655 93.6626 89.5429 94.0467C89.0072 94.3313 85.8909 95.9875 85.4617 96.0593C85.1835 96.0595 86.9783 95.1298 87.2441 94.9914ZM91.6177 91.8845C91.2905 92.2463 85.9377 95.2238 85.5889 95.2687C85.9867 94.8825 91.4939 91.8269 91.6177 91.8845ZM92.0017 90.7208C91.3714 91.3172 87.682 93.2839 86.6011 93.9057C86.5933 93.9101 84.2522 95.2535 84.8516 94.7297C85.3034 94.3349 87.4587 93.2008 88.1835 92.7836C89.3008 92.1404 90.6199 91.3421 91.768 90.7939C91.8228 90.7677 91.9499 90.699 92.0123 90.6998L92.0017 90.7208ZM91.7356 90.1003C91.0637 90.5478 89.7046 91.1723 88.9473 91.5501C88.9366 91.5554 85.7892 93.1624 86.4347 92.6912C86.8931 92.3565 91.6022 89.9282 91.7909 90.0362L91.7356 90.1003ZM92.0139 119.721C92.0067 119.824 89.7291 120.685 89.4502 120.731C89.0417 120.764 89.6906 120.508 89.7484 120.486C90.204 120.315 91.6313 119.66 92.0139 119.721ZM94.9392 117.888C94.9234 118.023 94.0607 118.31 93.9352 118.362C93.9349 118.362 89.0487 120.472 90.3948 119.653C90.7497 119.437 92.0351 118.969 92.5078 118.773C92.7265 118.682 94.8004 117.799 94.9084 117.857L94.9392 117.888ZM95.3349 117.054C94.8391 117.27 91.0006 118.97 90.8285 118.866C90.8823 118.681 95.5719 116.773 96.1128 116.571C96.3736 116.473 96.2939 116.667 95.9267 116.827C95.7295 116.913 95.5277 116.971 95.3349 117.054ZM94.7629 116.552C94.0185 116.849 89.5152 118.668 90.1595 118.205C90.4856 117.97 95.7763 115.997 95.8207 116.013C95.8214 116.011 95.9497 116.071 95.5916 116.241C95.3219 116.368 95.0373 116.444 94.7629 116.552ZM95.8849 115.358C94.1851 115.878 92.5333 116.56 90.8147 116.993C90.7133 116.757 91.4581 116.668 91.6144 116.62C92.1317 116.462 96.3481 114.995 96.4815 115.057C96.6282 115.125 95.8885 115.357 95.8849 115.358ZM90.8058 116.486C90.7066 116.251 91.3508 116.178 91.5004 116.13C92.0084 115.958 96.8045 114.195 95.9421 114.734C95.6894 114.892 94.0813 115.4 93.6986 115.536C92.733 115.882 91.7961 116.213 90.8058 116.486ZM90.2438 115.418C90.945 115.141 95.8367 113.733 96.2996 113.782C95.8986 114.068 89.3234 115.852 90.2438 115.418ZM94.7007 113.422C94.0726 113.601 88.8209 115.106 89.8292 114.653C90.5258 114.34 95.3207 112.974 95.9828 112.983C95.8163 113.12 94.9721 113.344 94.7007 113.422Z" fill="#BD8A68"/>
<path fill-rule="evenodd" clip-rule="evenodd" d="M-5.66456 83.522C-5.66456 83.522 -6.6869 85.3774 -6.78157 85.6993C-6.87625 86.0211 -6.4786 86.343 -6.55438 86.5702C-6.63016 86.7974 -6.98981 86.9489 -6.74372 87.1382C-6.49763 87.3275 4.74861 94.7114 7.36133 97.0591C9.97405 99.4069 10.6936 98.9525 11.0343 99.2175C11.3751 99.4826 11.8674 99.6719 12.1324 99.5204C12.3975 99.3689 12.5043 96.3002 13.5713 96.0746C14.6384 95.8491 15.7675 94.825 16.1462 94.257C16.5249 93.689 11.8673 62.4495 11.2614 61.0106C10.6556 59.5717 9.20845 57.3188 9.20845 57.3188C9.20845 57.3188 8.89488 58.4735 8.1944 58.4925C7.49393 58.5114 6.92597 59.8556 6.67981 60.2343C6.43365 60.613 2.07893 67.1637 1.88959 69.2842C1.70024 71.4048 0.261291 71.2912 0.261291 71.9727C0.261291 72.6543 -0.382444 74.434 -0.685348 74.6991C-0.988253 74.9642 -0.533932 75.4186 -0.685348 76.1759C-0.836764 76.9332 -1.29116 76.8196 -1.44265 77.0847C-1.59413 77.3497 -2.06756 77.6528 -2.25683 78.4101C-2.4461 79.1674 -2.38935 79.3378 -2.42721 79.6786C-2.46506 80.0194 -2.37047 80.133 -2.80589 80.0951C-3.24132 80.0573 -3.35488 79.6787 -3.67675 79.8301C-3.99862 79.9815 -4.09336 80.436 -4.20692 80.5495C-4.32049 80.6631 -4.73703 81.0986 -4.73703 81.0986C-4.73703 81.0986 -5.00687 81.4679 -5.01639 82.0359C-5.0259 82.6039 -4.83656 83.0679 -5.04007 83.2524C-5.24358 83.437 -5.54205 83.2194 -5.6033 83.3707C-5.66456 83.522 -5.66456 83.522 -5.66456 83.522Z" fill="#939C66"/>
<path fill-rule="evenodd" clip-rule="evenodd" d="M12.951 96.6539C13.1124 96.3493 13.3138 96.1291 13.5713 96.0746C14.0647 95.9703 14.5713 95.6952 15.011 95.3735L14.7775 94.5718L13.3863 88.8706C13.3863 88.8706 13.2628 91.6372 12.6949 91.9212C12.1269 92.2051 11.6914 91.5615 11.6914 91.5615L12.951 96.6539Z" fill="#6A704B"/>
<path fill-rule="evenodd" clip-rule="evenodd" d="M12.4843 98.1236C12.66 97.299 12.9237 96.371 13.4278 96.1245C13.3699 95.2487 13.1485 94.1506 12.6106 92.8312C12.6106 92.8312 12.5912 92.7582 12.5192 92.6083C12.4184 92.364 12.3376 92.1752 12.2668 92.0297C12.2668 92.0297 12.269 89.2333 6.13474 81.8115C6.13474 81.8115 9.36908 86.9867 10.5546 90.0643C8.85837 88.2949 5.78324 85.6216 0.228064 81.8878C0.228064 81.8878 7.56904 88.0414 10.0111 91.5229C8.0386 91.1739 3.94736 89.6002 -5.12396 83.306C-5.19745 83.3366 -5.27659 83.3343 -5.34937 83.327C-3.72128 84.916 0.7918 89.1895 3.78778 90.7486C6.79758 92.3148 11.0026 96.571 12.4843 98.1236Z" fill="#6A704B"/>
<path fill-rule="evenodd" clip-rule="evenodd" d="M-6.54672 86.5376C-6.5483 86.5486 -6.5508 86.5595 -6.55438 86.5702C-6.63016 86.7974 -6.98981 86.9489 -6.74372 87.1382C-6.49763 87.3275 4.74861 94.7114 7.36133 97.0591C9.97405 99.4068 10.6936 98.9525 11.0343 99.2175C11.0524 99.2315 11.0709 99.2454 11.0898 99.259C9.9807 97.7334 -4.04771 88.2252 -6.54672 86.5376Z" fill="#6A704B"/>
<path fill-rule="evenodd" clip-rule="evenodd" d="M57.4495 107.454C57.4495 107.454 62.1449 106.999 65.3257 103.364C68.5064 99.7288 69.8695 94.8819 70.2482 93.5945C70.6269 92.307 77.178 58.5687 74.7545 54.7821C72.3311 50.9955 67.3329 50.6925 66.6134 50.5789C65.894 50.4653 62.4102 49.0643 61.5393 48.2691C60.6685 47.4739 56.8061 46.1486 55.4429 45.6942C54.0797 45.2398 39.8043 42.5891 34.0865 43.4601C28.3687 44.331 18.107 51.412 15.9108 52.5858C13.7145 53.7597 9.54919 56.9782 9.20836 57.319C8.86753 57.6599 9.15083 57.963 8.88578 58.1333C8.62073 58.3037 12.8237 85.7946 13.8839 91.8532C14.9441 97.9118 15.3986 99.1992 16.3453 100.865C17.2919 102.531 18.1912 103.772 18.5131 103.857C18.835 103.942 19.1945 104.074 19.6205 104.5C20.0466 104.927 20.7187 105.239 20.9458 105.352C21.173 105.466 21.6179 105.977 21.9398 106.223C22.2617 106.47 28.074 109.101 32.1635 109.934C36.2531 110.767 51.7024 110.464 53.2928 110.01C54.8832 109.556 57.4495 107.454 57.4495 107.454Z" fill="#828B56"/>
<path fill-rule="evenodd" clip-rule="evenodd" d="M28.2696 45.4912C23.0927 47.9434 17.4698 51.7527 15.9108 52.586C13.7145 53.7598 9.54919 56.9783 9.20836 57.3191C8.86753 57.66 9.15083 57.9631 8.88578 58.1335C8.62073 58.3039 12.8237 85.7947 13.8839 91.8533C14.9441 97.9119 15.3986 99.1994 16.3453 100.865C17.2919 102.532 18.1912 103.772 18.5131 103.857C18.835 103.942 19.1945 104.075 19.6205 104.501C20.0466 104.927 20.7187 105.239 20.9458 105.353C21.173 105.466 21.6179 105.977 21.9398 106.223C22.2617 106.47 28.074 109.101 32.1635 109.934C32.7847 110.061 33.6691 110.161 34.7261 110.239C33.386 107.099 29.6585 111.639 23.4885 98.5479C17.3185 85.4568 23.3031 57.7798 28.2696 45.4912Z" fill="#939C66"/>
<path fill-rule="evenodd" clip-rule="evenodd" d="M22.8255 93.8081C22.8255 93.8081 22.2942 95.0177 25.1243 95.8363C27.9543 96.6548 34.109 97.8936 34.109 97.8936C34.109 97.8936 31.5276 100.954 24.8255 98.0337C18.1233 95.1135 22.8255 93.8081 22.8255 93.8081Z" fill="#6A704B"/>
<path fill-rule="evenodd" clip-rule="evenodd" d="M53.0786 45.1711C52.9724 45.1507 52.8636 45.13 52.752 45.1089C52.2066 47.874 50.0882 58.3839 48.9072 60.9099C47.544 63.8256 41.1846 74.6932 41.1846 74.6932C49.6951 67.2969 54.5669 55.8277 53.0786 45.1711Z" fill="#6A704B"/>
<path fill-rule="evenodd" clip-rule="evenodd" d="M37.0568 109.22C37.0568 109.22 36.2616 108.434 36.2616 107.277C36.2616 106.121 35.8261 104.894 35.1824 104.108C34.5386 103.321 34.2546 102.488 34.444 101.702C34.6333 100.915 35.3906 100.268 35.3528 99.4117C35.3149 98.5558 35.1067 97.3529 35.1445 96.8439C35.1824 96.335 35.7127 94.8079 35.5802 94.6228C35.4476 94.4377 35.0501 94.5997 35.1447 93.2117C35.2394 91.8237 35.4476 92.3325 35.4476 90.852C35.4476 89.3715 35.0121 83.9118 35.0121 83.2177C35.0121 82.5705 34.5843 77.9408 34.8335 75.9305C34.8515 75.785 34.9413 74.4373 34.9668 74.3217C34.9924 74.2062 35.23 74.7181 35.1448 75.1725C35.0596 75.6269 34.9175 76.867 34.8702 77.5391C34.8229 78.2112 34.9935 80.2276 35.0503 80.7672C35.1071 81.3068 35.2775 84.3551 35.3154 85.0746C35.3533 85.794 35.6945 90.3288 35.6945 90.9346C35.6945 91.5404 35.4484 92.3734 35.4294 92.771C35.4104 93.1687 35.3726 93.642 35.5241 93.9449C35.6756 94.2478 36.0352 94.3235 35.827 95.1377C35.6187 95.9519 35.5621 96.9175 35.5999 97.5233C35.6378 98.1292 35.6567 98.3186 35.6756 98.9433C35.6946 99.5681 35.6378 100.117 35.2781 100.666C34.9183 101.215 34.8805 102.862 35.5243 104.036C36.168 105.21 36.3951 106.251 36.4898 106.933C36.5845 107.615 36.2704 107.488 37.0568 109.22Z" fill="#6A704B"/>
<path d="M35.8663 83.783C35.6882 82.437 35.7632 80.3517 35.7732 78.9254C35.7894 76.6112 35.8443 74.4924 36.7814 72.3407C37.6372 70.3757 39.465 67.1377 41.2238 65.9038C41.7932 65.5043 40.2681 67.065 40.2633 67.0703C38.6309 68.8665 37.3684 70.9739 36.5931 73.2805C35.4969 76.5419 36.1485 80.154 35.9798 83.5579C35.9731 83.6943 35.9577 84.2949 35.8663 83.783ZM37.5559 108.775C37.4396 106.676 37.1588 105.97 36.5843 103.983C35.5753 100.494 36.5025 100.246 36.8426 97.0173C36.9584 95.9262 37.0696 95.1775 36.5013 94.1824C35.7785 92.9166 36.3779 92.526 36.4897 91.1244C36.6415 89.2219 36.0122 87.312 36.1164 85.5909C36.1777 84.5775 36.5006 88.0746 36.5016 88.0861C36.6352 89.6292 36.6959 91.0418 36.3925 92.5717C36.0754 94.171 36.7816 93.7633 37.0255 95.1395C37.1586 95.8908 36.9885 96.801 36.8968 97.559C36.7759 98.626 36.5871 99.2877 36.3713 100.306C35.7939 103.031 37.8746 106.03 37.7241 109.148C37.689 109.877 37.5907 109.503 37.5693 109.056L37.5559 108.775Z" fill="#6A704B"/>
<path fill-rule="evenodd" clip-rule="evenodd" d="M28.3088 45.4727C23.121 47.9242 17.4738 51.7505 15.9109 52.5859C14.6794 53.2441 12.8291 54.545 11.3808 55.6211L11.3667 55.6315L11.3601 55.6365L11.3393 55.6519L11.3186 55.6673L11.298 55.6827L11.2775 55.698L11.257 55.7133L11.2469 55.7208L11.2366 55.7285L11.2162 55.7437L11.1958 55.759L11.1756 55.774L11.1554 55.7892L11.1352 55.8042L11.129 55.8089L11.1152 55.8193L11.0952 55.8343L11.0753 55.8493L11.0554 55.8641L11.0356 55.879L11.0158 55.8938L11.0133 55.8958L10.9961 55.9087L10.9766 55.9234L10.9571 55.9381L10.9376 55.9527L10.8998 55.9811L10.8988 55.9819L10.8796 55.9965L10.8604 56.011L10.8413 56.0254L10.8222 56.0398L10.8033 56.0541L10.7888 56.0651L10.7845 56.0684L10.7656 56.0827L10.7469 56.0969L10.7282 56.1111L10.7097 56.1252L10.6911 56.1392L10.6803 56.1474L10.6728 56.1532L10.6544 56.1672L10.6361 56.1811L10.6179 56.1949L10.5998 56.2087L10.5819 56.2224L10.5746 56.2279L10.5639 56.2361L10.5461 56.2498L10.5283 56.2634L10.5106 56.2768L10.493 56.2903L10.4755 56.3037L10.4717 56.3067L10.4581 56.317L10.4408 56.3303L10.4235 56.3436L10.4063 56.3567L10.3893 56.3698L10.3724 56.3829L10.3716 56.3834L10.3555 56.3959L10.3387 56.4088L10.322 56.4216L10.3053 56.4345L10.2889 56.4472L10.2748 56.4581L10.2724 56.4599L10.2561 56.4725L10.2398 56.4851L10.2237 56.4975L10.2077 56.5099L10.1917 56.5223C9.66429 56.9311 9.29878 57.2287 9.20847 57.3191C8.86764 57.6599 9.15094 57.963 8.88589 58.1334C8.86886 58.1443 8.87057 58.2698 8.88839 58.4935C9.40626 58.0197 8.96281 58.0622 9.34243 57.5307C9.45406 57.3744 9.71331 57.2042 10.1294 56.96C8.92303 66.1254 12.2802 86.2901 12.9787 86.3317L12.9788 86.3324C12.1474 85.724 9.68225 65.7791 11.2573 56.3058C12.3456 55.6639 13.9017 54.6885 15.9719 53.0888C20.1372 49.8702 22.6139 49.9908 24.9083 49.4158C27.2028 48.8409 31.9893 49.4916 31.5727 48.2799C31.42 47.8357 30.0203 46.7145 28.3088 45.4727Z" fill="#828B56"/>
<path fill-rule="evenodd" clip-rule="evenodd" d="M13.3655 88.7417C13.5763 90.0411 13.754 91.1092 13.8841 91.8529C14.9443 97.9115 15.3988 99.199 16.3454 100.865C17.2921 102.531 18.1914 103.771 18.5133 103.857C18.8351 103.942 19.1946 104.074 19.6207 104.5C20.0468 104.926 20.7188 105.239 20.946 105.352C20.9868 105.373 21.0346 105.406 21.0875 105.448C21.8373 102.523 19.9736 104.494 17.2887 99.7753C15.9995 97.5095 14.5694 93.0521 13.3655 88.7417Z" fill="#6A704B"/>
<path fill-rule="evenodd" clip-rule="evenodd" d="M65.6235 103.014C68.5922 99.4246 69.8818 94.8412 70.2485 93.5946C70.4166 93.023 71.8013 86.0543 73.0771 78.1509L64.0152 72.7397C64.0152 72.7397 63.7881 72.8913 63.9395 82.7364C64.0749 91.5377 70.4425 89.7497 65.6235 103.014Z" fill="#6A704B"/>
<path fill-rule="evenodd" clip-rule="evenodd" d="M52.3452 45.774C47.4897 44.4973 38.3782 42.6031 34.0868 43.5341C31.0449 44.194 26.7172 47.357 23.002 50.4248C23.7413 52.8903 26.2412 60.5017 29.8929 64.0886C34.2854 68.4031 34.967 75.3061 34.967 75.3061C34.967 75.3061 35.6486 68.1873 43.146 63.01C48.928 59.0175 51.6466 49.9585 52.3452 45.774Z" fill="#EBB794"/>
<path fill-rule="evenodd" clip-rule="evenodd" d="M52.3449 45.7741C49.5893 45.0496 45.4632 44.1264 41.6252 43.6333C35.2808 45.892 29.5987 47.9982 28.6155 48.632C26.2274 50.1713 26.5566 58.9183 29.9956 62.2371C32.9584 65.0963 36.0061 66.2887 41.823 63.9977C42.2386 63.6625 42.6789 63.3325 43.1458 63.0102C48.9277 59.0176 51.6463 49.9587 52.3449 45.7741Z" fill="#DBA581"/>
<path fill-rule="evenodd" clip-rule="evenodd" d="M72.4913 53.3242C72.4913 53.3242 75.71 55.3689 76.5052 56.1641C77.3003 56.9594 80.4053 60.3673 80.8597 61.2761C81.3141 62.1849 81.9956 65.9336 82.5258 66.6152C83.056 67.2967 83.8512 67.0695 85.1008 68.8871C86.3503 70.7048 86.7668 71.7272 87.4863 72.333C88.2057 72.9388 89.0766 72.2193 89.531 72.8252C89.9854 73.4311 91.0457 74.5671 91.4622 74.8321C91.8788 75.0972 91.803 76.9525 92.0302 77.4827C92.2574 78.0129 92.2197 78.8838 92.7498 79.0353C93.2799 79.1868 93.6208 79.0353 93.9237 79.7169C94.2266 80.3985 94.4159 82.2918 94.681 83.2763C94.946 84.2608 93.0148 85.3589 91.3487 86.1162C89.6827 86.8736 86.1991 90.547 83.0183 92.4025C79.8375 94.2579 75.6344 96.3026 75.18 96.3026C74.7256 96.3026 73.3245 95.659 72.9459 95.2803C72.5672 94.9016 72.3399 94.4093 72.4157 93.6898C72.4915 92.9704 71.9992 92.6296 71.8099 91.9481C71.6205 91.2665 71.2797 90.9635 71.4312 90.4712C71.5827 89.979 69.0835 87.5934 68.099 86.1924C67.1145 84.7913 64.8047 81.6107 64.6532 80.4368C64.5017 79.2629 61.9267 73.4309 64.0472 63.6615C66.1676 53.892 72.4913 53.3242 72.4913 53.3242Z" fill="#828B56"/>
<path fill-rule="evenodd" clip-rule="evenodd" d="M48.7494 46.9414C48.7349 47.5036 48.6849 48.3275 48.5407 49.3427C48.3858 50.5902 48.0612 52.232 47.3932 54.0556C46.287 57.2351 44.2922 60.9338 40.7047 64.2944C40.3309 65.8671 40.7506 69.1107 41.5949 70.7723C42.4391 72.434 41.1844 74.693 41.1844 74.693C41.1844 74.693 48.3579 65.5869 50.9855 58.09C53.6132 50.5931 52.0838 47.7109 52.0838 47.7109L48.7494 46.9414Z" fill="#99A368"/>
<path fill-rule="evenodd" clip-rule="evenodd" d="M74.4213 54.5962C75.2626 55.1696 76.1395 55.7987 76.5049 56.1641C77.3 56.9593 80.4051 60.3673 80.8595 61.276C81.3138 62.1848 81.9954 65.9335 82.5255 66.6151C83.0557 67.2967 83.8509 67.0694 85.1005 68.8871C86.35 70.7047 86.7666 71.7271 87.486 72.3329C88.2054 72.9388 89.0764 72.2193 89.5308 72.8252C89.9852 73.4311 91.0454 74.5671 91.462 74.8321C91.8785 75.0972 91.8027 76.9525 92.0299 77.4827C92.2571 78.0128 92.2195 78.8838 92.7496 79.0353C93.2797 79.1868 93.6205 79.0353 93.9234 79.7169C94.2263 80.3984 94.4157 82.2918 94.6807 83.2763C94.9458 84.2608 93.0146 85.3588 91.3485 86.1162C89.6824 86.8736 86.1988 90.547 83.018 92.4024C79.8372 94.2578 75.6341 96.3026 75.1797 96.3026C74.7253 96.3026 73.3243 95.6589 72.9456 95.2803C72.5669 94.9016 72.3396 94.4093 72.4154 93.6898C72.4912 92.9704 71.9989 92.6296 71.8096 91.948C71.6203 91.2664 71.2794 90.9635 71.4309 90.4712C71.5194 90.1836 70.703 89.2496 69.8125 88.2433C70.1732 84.9199 70.7092 81.2495 71.3653 77.9821C71.5416 77.1043 71.9205 74.9418 72.5444 74.2946C73.0725 73.7467 74.5486 73.0537 75.2978 72.5654C77.6835 71.0108 79.366 69.2724 80.5053 66.6347C81.0463 65.0811 80.9658 63.6493 80.3948 62.1187C79.8647 60.7555 76.6081 57.8777 75.1338 55.9769C74.7746 55.5139 74.5524 55.0433 74.4213 54.5962Z" fill="#6A704B"/>
<path fill-rule="evenodd" clip-rule="evenodd" d="M21.4091 92.2891C21.4091 92.2891 21.6775 103.587 21.2544 104.441C20.8312 105.296 21.1366 105.489 21.1366 105.489C21.1366 105.489 21.7136 106.195 21.94 106.224C22.1663 106.252 30.7526 109.329 30.7526 109.329C30.7526 109.329 40.0927 110.861 42.2262 110.957C44.3597 111.053 53.1421 109.912 54.3055 109.405C55.4689 108.897 62.4847 106.034 63.7722 104.861C65.0596 103.687 64.6052 103.838 64.6052 103.838C64.6052 103.838 60.3642 106.451 56.9184 106.83C48.5499 107.749 40.7425 108.285 33.5385 103.44C28.6571 100.158 21.8783 94.7402 21.4091 92.2891Z" fill="#6A704B"/>
<path fill-rule="evenodd" clip-rule="evenodd" d="M29.7134 63.9339C29.7134 63.9339 30.8848 69.3652 29.3864 71.2759C27.8881 73.1866 28.9466 75.1139 28.9466 75.1139C28.9466 75.1139 23.2377 67.1228 22.1077 59.7839C20.9777 52.4451 22.0152 49.3719 22.0152 49.3719L25.8436 48.6006C25.8436 48.6006 22.4791 57.0418 29.7134 63.9339Z" fill="#6A704B"/>
<path fill-rule="evenodd" clip-rule="evenodd" d="M25.6802 49.2974C25.5858 49.7681 25.4736 50.4578 25.4107 51.3078C25.3133 52.3522 25.2954 53.7268 25.5569 55.2535C25.9593 57.9154 27.0749 61.012 29.7124 63.8255C29.7529 65.1422 28.747 67.8577 27.6561 69.2489C26.5652 70.6401 27.28 72.5313 27.28 72.5313C27.28 72.5313 22.4635 64.9076 21.4972 58.6312C20.5308 52.3547 22.4824 49.9417 22.4824 49.9417L25.6802 49.2974Z" fill="#ABB57B"/>
<path fill-rule="evenodd" clip-rule="evenodd" d="M16.8531 86.8224L26.0192 85.6507C25.8063 82.1389 25.642 78.4722 25.3713 74.982C25.2584 73.5275 25.3081 77.012 25.3082 77.0226C25.3074 79.5557 25.3436 82.4846 25.3383 85.0175L17.4837 86.0745C16.6683 83.2421 15.8129 79.8222 14.9486 77.0343C14.5161 75.6391 15.2797 79.0531 15.282 79.0644C15.8101 81.6489 16.3299 84.2364 16.8531 86.8224ZM14.6273 75.7317C17.972 75.3193 21.4441 74.9545 24.7656 74.4761C21.5393 74.6796 18.1853 75.0252 14.9491 75.2979C14.3448 72.5382 14.3785 72.2158 14.5941 75.2631L14.6273 75.7317ZM25.2705 71.8302C25.2706 71.8312 25.4843 74.9854 25.271 73.801C25.1641 73.2072 25.0856 72.6345 24.9642 72.0368C23.2624 72.0041 20.9226 72.3226 19.1527 72.4693C18.8277 72.4974 14.5662 72.906 15.5085 72.7167C16.3985 72.5379 17.7641 72.4469 18.7318 72.3217C20.7416 72.0614 22.7409 71.7962 24.7603 71.6153C24.8553 71.6069 24.9502 71.5976 25.0457 71.5993L25.2087 71.6559L25.2705 71.8302ZM22.2707 84.079C22.2903 85.7646 22.0072 82.5031 21.9957 82.3995C21.7622 80.3062 21.4487 78.0654 21.2743 75.987C21.2241 75.3872 21.1246 75.2632 21.7028 75.1974C22.0925 75.1531 22.0418 75.3125 22.0798 75.8017C22.1798 77.0889 22.1622 78.7382 22.1944 80.065C22.2267 81.4031 22.2543 82.7405 22.2707 84.079ZM19.5383 84.3882C19.5579 86.0738 19.2748 82.8123 19.2633 82.7086C19.0265 80.5861 18.7444 78.4169 18.5404 76.2985C18.4782 75.6526 18.3479 75.5149 19.123 75.4855C19.3635 75.4764 19.2918 75.4795 19.3341 75.8858C19.4425 76.9258 19.4166 78.5599 19.4443 79.6639C19.4838 81.2388 19.5188 82.8128 19.5383 84.3882Z" fill="#6A704B"/>
<path fill-rule="evenodd" clip-rule="evenodd" d="M58.4459 85.9562L49.2397 85.1574C49.3099 81.6398 49.3254 77.9696 49.4542 74.4712C49.508 73.0133 49.5997 76.497 49.6 76.5076C49.7037 79.0386 49.7862 81.9664 49.8944 84.4971L57.7854 85.2345C58.4852 82.3712 59.2011 78.9195 59.9515 76.0988C60.3271 74.6872 59.7026 78.1294 59.7009 78.1408C59.2781 80.7446 58.8637 83.3512 58.4459 85.9562ZM60.2198 74.7843C56.8611 74.5079 53.377 74.2844 50.0389 73.9412C53.2708 74.0136 56.6361 74.2227 59.8805 74.3639C60.3724 71.582 60.3256 71.2612 60.2338 74.3147L60.2198 74.7843ZM49.427 71.3178C49.4269 71.319 49.3414 74.4792 49.5064 73.2871C49.5892 72.6894 49.6444 72.114 49.7415 71.5118C51.4405 71.4102 53.7913 71.6335 55.5657 71.7082C55.8915 71.7231 60.1662 71.9584 59.217 71.8076C58.3204 71.665 56.9523 71.6295 55.9804 71.5437C53.9616 71.3651 51.9532 71.1812 49.9281 71.0824C49.8327 71.0779 49.7376 71.0725 49.6423 71.0781L49.4817 71.1412L49.427 71.3178ZM52.9213 83.4349C52.9701 85.1199 53.1207 81.8496 53.128 81.7455C53.2763 79.6445 53.4987 77.3928 53.5887 75.3091C53.6145 74.7078 53.7088 74.5799 53.1284 74.5376C52.7373 74.5091 52.7943 74.6664 52.7762 75.1566C52.7286 76.4468 52.8131 78.0941 52.8348 79.4211C52.8568 80.7594 52.8835 82.0968 52.9213 83.4349ZM55.6641 83.633C55.7129 85.318 55.8634 82.0476 55.8707 81.9436C56.0211 79.8132 56.2151 77.6343 56.3329 75.5094C56.3688 74.8616 56.4934 74.7187 55.7178 74.7207C55.4771 74.7214 55.5489 74.7216 55.523 75.1292C55.457 76.1728 55.5491 77.8046 55.5662 78.9087C55.5907 80.484 55.6196 82.058 55.6641 83.633Z" fill="#6A704B"/>
<path fill-rule="evenodd" clip-rule="evenodd" d="M54.9914 87.7368C54.9914 87.7368 51.647 101.403 53.927 104.898C56.2071 108.393 59.4554 106.792 59.4554 106.792L49.3147 109.223C49.3147 109.223 49.7239 92.251 54.9914 87.7368Z" fill="#6A704B"/>
<path fill-rule="evenodd" clip-rule="evenodd" d="M23.7389 99.283C23.7389 99.283 23.985 97.8062 23.6442 96.6324C23.3035 95.4585 21.0693 86.7301 20.6149 84.7611C20.1605 82.792 18.0403 61.2455 18.7219 56.5501C19.0252 54.6647 19.4616 52.8471 19.8085 50.9805C19.8693 50.6538 19.8967 50.3952 19.8905 50.2011C19.8689 49.5303 19.7362 50.1575 18.6196 50.7136C18.0009 51.0218 17.7952 51.1609 17.6571 51.5955C17.5168 52.0372 17.5008 52.5291 17.4141 53.1731C17.3453 53.6839 17.2713 54.1946 17.2018 54.7056L17.1912 54.7832C16.9234 56.834 16.8107 58.8369 16.9232 60.9046C17.2262 65.9029 17.1883 76.3917 17.4534 78.0579C17.7184 79.724 19.1196 89.2285 19.7633 92.0685C20.4069 94.9084 21.1833 99.5659 21.5431 99.7553C21.9029 99.9446 23.7389 99.283 23.7389 99.283Z" fill="black"/>
<path fill-rule="evenodd" clip-rule="evenodd" d="M48.935 100.799C48.935 100.799 48.8406 99.1099 49.3023 97.8108C49.764 96.5116 52.8974 86.8273 53.5546 84.6387C54.2118 82.45 58.5491 58.2684 58.3498 52.9059C58.2727 51.0864 58.114 49.3539 57.9736 47.5455C57.864 46.1328 58.2376 46.3968 59.4594 47.0331C60.3604 47.5023 59.9771 47.0184 59.9994 47.9649C60.0087 48.3626 60.0792 49.8468 60.0935 50.2443C60.1868 52.8435 60.065 55.3967 59.7021 57.9737C58.8849 63.5987 57.8443 75.457 57.4078 77.3188C56.9712 79.1805 54.5917 89.8095 53.6555 92.9673C52.7193 96.125 51.4635 101.326 51.0839 101.511C50.7044 101.696 48.935 100.799 48.935 100.799Z" fill="black"/>
<path fill-rule="evenodd" clip-rule="evenodd" d="M16.9054 75.6713C16.9054 75.6713 17.0379 74.952 17.7385 74.8762C18.439 74.8004 19.4803 74.4219 19.9536 75.1602C20.427 75.8985 20.2376 78.5113 20.2376 78.5113C20.2376 78.5113 19.594 78.9468 18.723 78.9468C17.8521 78.9468 17.1704 79.4202 16.9054 78.1138C16.6403 76.8073 16.9054 75.6713 16.9054 75.6713ZM17.2933 75.7637C17.2933 75.7637 17.3942 75.2118 17.9277 75.1536C18.4611 75.0956 19.2539 74.8051 19.6143 75.3716C19.9747 75.938 19.8305 77.9427 19.8305 77.9427C19.8305 77.9427 19.3404 78.2768 18.6773 78.2768C18.0142 78.2768 17.4952 78.64 17.2933 77.6377C17.0915 76.6353 17.2933 75.7637 17.2933 75.7637Z" fill="#CCCCCC"/>
<path fill-rule="evenodd" clip-rule="evenodd" d="M18.3442 76.2203C18.3442 76.2203 18.3915 76.9871 18.4105 77.3468C18.4295 77.7066 18.6094 77.7633 18.6945 77.574C18.7797 77.3848 18.685 76.8641 18.685 76.6748C18.685 76.4854 18.7608 75.9932 18.3442 76.2203Z" fill="#CCCCCC"/>
<path fill-rule="evenodd" clip-rule="evenodd" d="M55.0939 74.4623C55.0939 74.4623 55.4378 73.8167 56.1284 73.9563C56.8191 74.0959 57.9261 74.05 58.154 74.8969C58.3819 75.7438 57.4113 78.177 57.4113 78.177C57.4113 78.177 56.6661 78.3974 55.8359 78.134C55.0058 77.8707 54.2128 78.1157 54.3553 76.7903C54.4977 75.4649 55.0939 74.4623 55.0939 74.4623ZM55.4357 74.6676C55.4357 74.6676 55.6988 74.172 56.2248 74.2779C56.7509 74.3839 57.5944 74.3468 57.7666 74.9957C57.9388 75.6446 57.1952 77.5119 57.1952 77.5119C57.1952 77.5119 56.627 77.6821 55.9949 77.4816C55.3629 77.281 54.7583 77.4703 54.869 76.4539C54.9798 75.4374 55.4357 74.6676 55.4357 74.6676Z" fill="#CCCCCC"/>
<path fill-rule="evenodd" clip-rule="evenodd" d="M56.2993 75.4207C56.2993 75.4207 56.1125 76.1659 56.0218 76.5145C55.9311 76.8631 56.0854 76.9716 56.2238 76.8169C56.3622 76.6623 56.4294 76.1374 56.4867 75.9569C56.5439 75.7764 56.765 75.3302 56.2993 75.4207Z" fill="#CCCCCC"/>
<path fill-rule="evenodd" clip-rule="evenodd" d="M82.5458 68.2656C83.2086 67.9159 84.4243 68.7365 84.8221 69.2949C85.4241 70.1395 85.5562 71.0207 85.1 71.9558C84.3568 73.4659 83.7102 74.6512 82.2842 75.6084C80.0141 77.1155 80.0045 76.7854 78.4424 79.1964C77.4429 80.7391 76.8685 80.5866 75.1294 80.7505C74.7343 80.7878 73.2728 80.9674 72.9815 80.8099C72.9532 80.4727 74.8861 78.7802 75.2777 78.3504C76.4528 77.0603 76.587 76.3836 77.0929 74.7825C77.683 72.9147 78.761 72.8319 79.912 71.3978C80.5462 70.6077 81.8148 68.7967 82.5458 68.2656Z" fill="#828B56"/>
<path fill-rule="evenodd" clip-rule="evenodd" d="M87.3527 75.3495C87.6303 75.0951 87.9089 74.8272 88.2771 74.7271C88.8373 75.222 88.0789 76.4385 87.6972 76.855C86.7183 77.9233 86.2412 77.7402 85.7414 79.3701C85.283 80.8651 85.3947 80.8967 84.3848 82.1422L84.138 82.4465C82.4493 84.5348 81.9157 85.0585 80.9494 87.6495C80.8048 88.0481 81.2392 87.5328 81.403 87.392C82.964 86.0507 82.4847 87.2137 83.4384 86.7621C85.0964 85.9772 87.16 83.63 88.6981 82.3874C89.6111 81.6596 91.4072 81.2982 92.5527 81.4182C94.1922 81.5899 92.6253 82.8826 92.0775 83.4365C89.4979 86.0281 88.3853 86.3276 85.2692 88.0101C83.1594 89.1493 81.413 90.2175 79.4329 91.5677C79.071 91.8145 76.2031 93.6487 75.9774 93.4153C75.7718 93.2026 77.3372 90.6381 77.5585 90.238C77.9561 89.5231 80.1904 85.6878 80.0958 85.1873C79.9507 84.4201 77.95 86.5689 77.6538 86.7684C76.9834 87.22 75.8447 86.9136 74.8759 87.1955C73.7669 87.5182 73.3992 87.8463 74.6877 86.7538C78.975 83.1185 83.2013 79.1543 87.3527 75.3495Z" fill="#828B56"/>
<path fill-rule="evenodd" clip-rule="evenodd" d="M37.3786 70.4098C38.2336 69.8753 38.3252 71.4246 37.5347 71.1958C37.1734 71.0912 37.1305 70.7061 37.3786 70.4098ZM38.2232 107.887C37.9577 108.926 36.5843 108.068 37.2594 107.395C37.6167 107.038 38.2649 107.266 38.2232 107.887ZM36.0919 102.709C37.0663 102.238 37.0263 103.917 36.1844 103.588C35.7877 103.433 35.7705 103.013 36.0919 102.709ZM36.6302 97.1354C37.5924 96.673 37.5484 98.3203 36.722 98.0019C36.3307 97.8511 36.3109 97.4355 36.6302 97.1354ZM36.216 92.5286C35.4554 91.9809 36.8513 91.2214 36.8777 92.1151C36.8897 92.5197 36.5894 92.668 36.216 92.5286ZM36.1196 87.1553C37.0034 86.6277 37.2233 88.0807 36.4261 88.0667C35.9923 88.059 35.7463 87.5856 36.1196 87.1553ZM35.5823 81.402C36.1887 80.5874 37.0168 82.0099 36.1105 82.1464C35.6568 82.2147 35.3923 81.8771 35.5823 81.402ZM36.3837 75.724C36.9154 76.5936 35.3353 76.6806 35.5834 75.8734C35.6962 75.5061 36.0861 75.4661 36.3837 75.724Z" fill="black"/>
<path fill-rule="evenodd" clip-rule="evenodd" d="M63.6054 110.581C65.9988 118.097 71.5035 128.675 71.5035 128.675C71.5035 128.675 72.8436 129.632 73.5138 129.608C74.1838 129.584 74.9497 130.494 74.9497 130.494C74.9497 130.494 77.702 133.509 78.2764 134.706C78.8508 135.903 77.8218 136.358 77.8218 136.358C77.8218 136.358 78.1089 139.553 78.4321 139.636C78.7552 139.72 80.4305 139.971 80.4305 139.971C80.4305 139.971 80.0476 141.108 80.5742 141.635C81.1007 142.161 81.4837 142.64 81.5076 143.023C81.5315 143.406 81.0289 143.765 81.0289 143.765C81.0289 143.765 79.0661 146.039 78.4439 146.23C77.8216 146.422 77.2472 146.589 77.0797 146.828C76.9122 147.068 75.5241 146.541 74.9018 146.493C74.2794 146.446 69.2774 145.632 69.062 145.416C68.8466 145.201 69.0381 142.305 69.0381 142.305C69.0381 142.305 67.6975 131.343 66.7402 128.615C65.7829 125.886 60.8523 117.223 59.9429 106.022C59.8476 104.851 59.0272 96.4409 59.3351 95.5003C59.553 94.8353 60.7051 95.0446 60.7755 95.9087C61.1747 100.809 62.1332 105.899 63.6054 110.581Z" fill="#808080"/>
<path fill-rule="evenodd" clip-rule="evenodd" d="M63.6056 110.581C65.9989 118.097 71.5036 128.675 71.5036 128.675C71.5036 128.675 72.8437 129.632 73.5139 129.608C74.1839 129.584 74.9498 130.494 74.9498 130.494C74.9498 130.494 77.7022 133.509 78.2766 134.706C78.8509 135.903 77.8219 136.357 77.8219 136.357C77.8219 136.357 75.1879 138.08 75.0443 138.2C74.9007 138.319 73.2493 133.892 72.5793 133.03C71.9091 132.168 71.3347 132.264 70.7603 131.881C70.1859 131.498 64.5377 121.542 63.0538 115.846C61.57 110.15 59.9428 98.9009 59.8232 97.6324C59.7425 96.7785 59.8464 95.7131 59.9229 95.1079C60.3068 95.1109 60.7337 95.3932 60.7757 95.9086C61.1748 100.809 62.1333 105.899 63.6056 110.581Z" fill="#999999"/>
<path fill-rule="evenodd" clip-rule="evenodd" d="M74.1422 129.802C74.587 130.063 74.9498 130.494 74.9498 130.494C74.9498 130.494 75.1984 130.766 75.5615 131.179L73.128 132.802L72.6558 133.138C72.6291 133.097 72.6035 133.061 72.5793 133.03C71.9091 132.168 71.3347 132.264 70.7603 131.881C70.1859 131.498 64.5377 121.542 63.0538 115.846C61.57 110.15 59.9428 98.9009 59.8232 97.6324C59.7425 96.7785 59.8464 95.7131 59.9229 95.1079C59.9853 95.1084 60.0488 95.1164 60.1118 95.1315C60.0242 96.024 59.96 97.3085 60.1208 98.5408C60.4079 100.743 62.8488 114.528 63.3037 115.725C63.7585 116.922 64.8593 120.057 65.3379 120.799C65.8166 121.541 70.4236 130.911 70.998 131.15C71.5724 131.39 71.5646 131.792 72.3622 131.222C72.8406 130.88 73.5459 130.251 74.1422 129.802Z" fill="#B3B3B3"/>
<path fill-rule="evenodd" clip-rule="evenodd" d="M59.2856 95.8272C59.2969 95.6815 59.3133 95.5698 59.3361 95.5002C59.5381 94.8835 60.5436 95.019 60.7446 95.7311C60.053 96.2305 59.5805 96.0845 59.2856 95.8272Z" fill="#E6E6E6"/>
<circle cx="42.694" cy="55.2753" r="39.7245" stroke="#524A2D" stroke-width="4"/>
</g>
<path fill-rule="evenodd" clip-rule="evenodd" d="M26.263 35.8606C26.263 35.8606 27.0334 31.4192 24.046 30.7029C21.0588 29.9866 20.2109 32.2334 20.8179 33.6352C21.4249 35.0371 23.142 37.0481 26.263 35.8606Z" fill="#F2C8AC"/>
<path fill-rule="evenodd" clip-rule="evenodd" d="M22.9429 30.5653C20.855 30.5828 20.2935 32.4238 20.8179 33.6347C20.9504 33.9407 21.1357 34.2757 21.377 34.6001C21.162 33.7317 21.1404 32.7125 21.5082 31.8093C21.7635 31.1822 22.394 30.794 22.9429 30.5653Z" fill="#FFE0CC"/>
<path fill-rule="evenodd" clip-rule="evenodd" d="M23.394 32.4541C22.0602 31.2385 22.5485 33.5075 22.5457 33.5163C22.1105 33.6267 21.4253 31.7474 23.0098 31.7992C24.3017 31.8414 25.1091 33.3454 25.1823 34.4893C25.2279 35.2007 24.6672 34.1746 24.5178 33.9542C24.1526 33.4159 23.8417 32.9314 23.394 32.4541Z" fill="#D49779"/>
<path fill-rule="evenodd" clip-rule="evenodd" d="M46.5261 16.5769C46.5261 16.5769 46.6277 21.918 47.682 26.0438C48.7363 30.1695 50.2145 33.3436 51.4293 35.1426C52.6442 36.9415 58.3526 40.5422 52.317 49.2101C46.2815 57.8779 38.9814 60.7277 38.9814 60.7277L34.5393 60.7242C34.5393 60.7242 20.2663 54.1554 20.1647 49.0786C20.063 44.0017 24.192 38.8226 24.8321 31.8427C25.4724 24.8627 23.4682 18.1979 23.4682 18.1979C23.4682 18.1979 34.3715 6.25522 46.5261 16.5769Z" fill="#F2C8AC"/>
<path fill-rule="evenodd" clip-rule="evenodd" d="M46.5259 16.5772C46.5259 16.5772 46.6274 21.9182 47.6818 26.044C48.7361 30.1697 50.2143 33.3438 51.4291 35.1428C52.6439 36.9417 58.3523 40.5424 52.3168 49.2103C46.2813 57.8782 38.9812 60.728 38.9812 60.728L37.187 60.7265C35.0158 52.688 32.8853 39.8081 33.1806 37.2843C33.5825 33.8494 33.1143 25.3943 32.3621 19.0322C32.1354 17.1144 32.427 14.8974 32.9445 12.7358C36.8287 11.8626 41.5732 12.3714 46.5259 16.5772Z" fill="#EBB794"/>
<path fill-rule="evenodd" clip-rule="evenodd" d="M23.9183 36.4347C24.3466 34.987 24.6834 33.4635 24.832 31.8428C25.4723 24.8629 23.4681 18.1981 23.4681 18.1981C23.4681 18.1981 23.6661 17.9817 24.0355 17.6342C24.5555 19.2273 25.1282 21.2647 25.2112 22.7224C25.3676 25.4725 25.7839 34.2501 25.0948 36.0481C24.7672 36.903 24.3091 36.7892 23.9183 36.4347Z" fill="#E3B99D"/>
<path fill-rule="evenodd" clip-rule="evenodd" d="M46.5262 16.5771C46.5262 16.5771 46.6277 21.9181 47.682 26.0439C48.0444 27.462 48.4569 28.7677 48.8915 29.9437L46.9376 33.1047C46.9376 33.1047 43.4682 21.913 44.2292 14.8726C44.9881 15.3571 45.7546 15.9218 46.5262 16.5771Z" fill="#DBA581"/>
<path fill-rule="evenodd" clip-rule="evenodd" d="M47.7989 26.4909C48.8437 30.3988 50.2587 33.4091 51.4292 35.1424C52.644 36.9414 58.3524 40.5421 52.3169 49.21C46.2813 57.8778 38.9813 60.7276 38.9813 60.7276L34.5392 60.7241C34.5392 60.7241 20.2662 54.1553 20.1645 49.0784C20.0659 44.154 23.9475 39.1332 24.7649 32.4663C24.9634 33.613 25.1139 34.9113 25.0935 36.1528C25.0378 39.5372 23.9254 42.0218 31.9112 41.3407C39.8969 40.6597 46.139 38.1792 46.139 38.1792C46.139 38.1792 46.0557 29.5491 47.7989 26.4909Z" fill="#CC6C0C"/>
<path fill-rule="evenodd" clip-rule="evenodd" d="M35.4131 60.7249L34.5393 60.7242C34.5393 60.7242 30.7656 58.9874 27.0853 56.6098C26.1945 54.1918 25.4829 51.091 25.8636 47.8428C26.2909 44.1973 28.6131 42.3523 30.789 41.4188C31.1418 41.4003 31.5149 41.3746 31.9113 41.3408C33.0031 41.2477 34.062 41.1208 35.0772 40.9713C34.8284 43.096 35.7862 43.8334 34.3844 46.7137C32.9069 49.7495 34.4028 57.0486 35.4131 60.7249Z" fill="#DB7A18"/>
<path fill-rule="evenodd" clip-rule="evenodd" d="M21.8837 52.4464C20.8517 51.3078 20.1861 50.1593 20.1645 49.0783C20.0659 44.1539 23.9474 39.133 24.7648 32.4661C24.9614 33.6014 25.1108 34.8852 25.094 36.1153C25.0347 36.4634 24.954 36.8019 24.8471 37.1251C23.5945 40.9108 21.3943 44.7591 21.4681 48.4065C21.5013 50.0511 21.6883 51.4289 21.8837 52.4464Z" fill="#F08F2D"/>
<path fill-rule="evenodd" clip-rule="evenodd" d="M47.799 26.4911C48.8438 30.399 50.2588 33.4093 51.4293 35.1427C52.6441 36.9416 58.3525 40.5423 52.317 49.2102C46.2814 57.8781 38.9814 60.7278 38.9814 60.7278L34.5393 60.7243C34.5393 60.7243 34.0587 60.503 33.2753 60.1115C34.69 59.4216 36.8125 58.7781 38.6069 58.331C41.3338 57.6516 45.9559 54.626 48.0063 47.5845C50.0567 40.5431 49.0367 37.0963 47.7885 35.3534C47.387 34.7929 46.9268 33.3734 46.4872 31.7061C46.7256 29.6822 47.1262 27.6716 47.799 26.4911Z" fill="#9E5002"/>
<path fill-rule="evenodd" clip-rule="evenodd" d="M48.3477 46.3349C49.9309 40.1288 48.9603 36.9898 47.7883 35.3534C47.3868 34.7928 46.9266 33.3734 46.487 31.7061C46.5493 31.1777 46.6226 30.6504 46.7089 30.1384C47.1833 31.1194 47.624 32.1122 47.911 32.9408C48.8554 35.6679 51.3559 37.2149 49.797 43.5979C49.2466 45.8514 48.7544 46.4728 48.3477 46.3349Z" fill="#B55C04"/>
<path fill-rule="evenodd" clip-rule="evenodd" d="M41.7595 59.2785C40.0727 60.3016 38.9813 60.728 38.9813 60.728L34.5392 60.7244C34.5392 60.7244 34.1493 60.5448 33.5004 60.2236C31.7647 55.5548 33.1094 52.4003 33.1094 52.4003C33.1094 52.4003 40.2686 49.3388 39.3571 52.7461C38.8666 54.5793 40.3159 57.2251 41.7595 59.2785Z" fill="#F08F2D"/>
<path fill-rule="evenodd" clip-rule="evenodd" d="M41.7597 59.2785C41.5439 59.4094 41.3379 59.5305 41.1426 59.6422C40.3092 58.6642 39.376 57.1353 38.7317 55.5779C38.2034 54.3007 38.4281 52.5756 38.7503 51.2498C39.3031 51.439 39.5872 51.8865 39.3573 52.746C38.8668 54.5793 40.3161 57.225 41.7597 59.2785Z" fill="#B55C04"/>
<path fill-rule="evenodd" clip-rule="evenodd" d="M36.2621 60.7254L34.5393 60.724C34.5393 60.724 34.1493 60.5444 33.5004 60.2232C31.7647 55.5545 33.1095 52.3999 33.1095 52.3999C33.1095 52.3999 33.7632 52.1205 34.6502 51.8244C34.3704 52.8102 34.2069 54.0405 34.4529 55.3848C34.8603 57.6103 35.9416 59.5424 36.2621 60.7254Z" fill="#FAA855"/>
<path fill-rule="evenodd" clip-rule="evenodd" d="M36.1413 38.629C36.1413 38.629 34.7154 40.7978 35.4001 42.1516C36.0848 43.5054 36.4398 44.1198 38.3332 44.0456C40.2266 43.9714 43.1428 43.4437 45.1103 45.3007C46.5225 46.6336 45.5896 53.1542 44.1375 57.68C46.5934 55.8654 49.5846 53.134 52.3168 49.2102C52.4743 48.984 52.6238 48.7613 52.7656 48.5418C52.2976 46.0625 51.3324 43.3809 49.6571 41.8964C46.3326 38.9506 46.6325 35.9869 36.1413 38.629Z" fill="#DB7A18"/>
<path fill-rule="evenodd" clip-rule="evenodd" d="M35.2371 40.94C35.1847 41.364 35.216 41.787 35.4002 42.1511C36.0849 43.5049 36.4399 44.1193 38.3333 44.0451C40.2267 43.9709 43.1429 43.4432 45.1104 45.3002C46.5227 46.6331 45.5897 53.1537 44.1376 57.6795C44.8543 57.15 45.6165 56.5423 46.4046 55.8498C48.7389 50.6917 49.2193 43.1713 43.2367 42.6877C40.6497 42.4786 38.2759 43.2694 35.9098 41.6275C35.6183 41.4253 35.3981 41.1673 35.2371 40.94Z" fill="#B55C04"/>
<path fill-rule="evenodd" clip-rule="evenodd" d="M36.1415 38.629C36.1415 38.629 35.1649 40.1145 35.2163 41.394C36.2632 41.1823 38.959 40.3549 39.6255 40.2339C46.6318 38.9622 51.4589 42.7525 51.7174 49.8969C51.7192 49.9453 51.7206 49.9931 51.7219 50.0407C51.9214 49.7699 52.1199 49.4933 52.317 49.2102C52.4745 48.984 52.624 48.7613 52.7658 48.5418C52.2978 46.0625 51.3326 43.3809 49.6573 41.8964C46.3328 38.9506 46.6327 35.9869 36.1415 38.629Z" fill="#F08F2D"/>
<path fill-rule="evenodd" clip-rule="evenodd" d="M36.1415 38.6288C36.1415 38.6288 35.6826 39.3269 35.4105 40.1782C36.7974 39.6682 40.9724 38.3215 44.3294 39.1947C47.1046 39.9166 48.3345 40.6857 48.8384 41.1055C46.2999 38.4629 45.6896 36.2243 36.1415 38.6288ZM49.1531 41.4243L49.152 41.4231L49.153 41.4247L49.1531 41.4243Z" fill="#FAA855"/>
<path fill-rule="evenodd" clip-rule="evenodd" d="M34.178 40.1319C34.178 40.1319 35.7287 42.4051 33.9857 43.8426C32.2427 45.2801 28.9114 44.0657 27.9236 48.2302C27.1221 51.6091 31.0544 57.6089 32.5667 59.7524C30.2273 58.5503 26.2922 56.3675 23.4816 53.9755C22.2786 50.4051 21.6907 45.1597 24.2934 42.0552C27.2119 38.5738 31.3773 38.3878 34.178 40.1319Z" fill="#DB7A18"/>
<path fill-rule="evenodd" clip-rule="evenodd" d="M28.5347 57.5124C26.8059 56.4715 24.9833 55.2533 23.4816 53.9753C22.2786 50.4048 21.6907 45.1595 24.2934 42.0549C27.1981 38.5901 31.3378 38.3897 34.1381 40.1074C33.4496 40.5697 32.2169 41.105 30.8497 41.5284C23.5535 43.7878 23.8452 50.7806 28.5347 57.5124Z" fill="#F08F2D"/>
<path fill-rule="evenodd" clip-rule="evenodd" d="M34.2576 40.2597C34.5512 40.7587 35.482 42.6086 33.9858 43.8425C32.2427 45.28 28.9115 44.0656 27.9237 48.2301C27.5137 49.9585 28.3425 52.3726 29.4523 54.6056L29.452 54.6055C26.2424 52.6042 25.5971 48.4383 27.3981 45.4861C29.1992 42.5339 32.6438 44.0135 33.5917 42.4428C33.9838 41.7931 34.1717 40.9846 34.2576 40.2597Z" fill="#B55C04"/>
<path fill-rule="evenodd" clip-rule="evenodd" d="M22.9 51.8745C22.1706 48.5601 22.1662 44.5927 24.2935 42.0551C27.1181 38.6857 31.1107 38.4033 33.9037 39.9697C33.6496 40.2837 33.3132 40.6942 32.7787 40.7191C24.1642 41.121 23.6711 45.7045 23.8221 48.7237C23.8883 50.0495 24.4819 51.2819 22.9 51.8745Z" fill="#FAA855"/>
<path fill-rule="evenodd" clip-rule="evenodd" d="M25.6747 27.3542C25.6747 27.3542 26.2122 25.3396 27.7599 24.9127C29.3077 24.4858 30.4039 24.5331 30.5619 24.3393C30.7198 24.1456 29.5156 23.6538 29.5156 23.6538C29.5156 23.6538 30.9263 23.2872 31.9364 24.3454C32.9465 25.4036 31.4162 27.2064 29.1244 27.3553C26.8326 27.5042 25.9607 29.0336 25.6747 27.3542Z" fill="#F98C23"/>
<path fill-rule="evenodd" clip-rule="evenodd" d="M25.6748 27.3542C25.6748 27.3542 26.2121 25.3395 27.7599 24.9127C29.3077 24.4858 30.404 24.5331 30.5619 24.3393C30.7198 24.1456 29.5156 23.6538 29.5156 23.6538C29.5156 23.6538 29.5411 23.6472 29.5872 23.6384C30.2444 23.8791 31.0351 24.2388 30.7089 24.483C30.1784 24.8802 28.1338 24.7459 27.3569 25.5784C26.7071 26.2746 26.3749 27.2224 25.7188 27.569C25.7028 27.5041 25.6881 27.4327 25.6748 27.3542Z" fill="#FAA855"/>
<path fill-rule="evenodd" clip-rule="evenodd" d="M31.973 24.3857C32.908 25.4487 31.3877 27.2084 29.1247 27.3555C27.3552 27.4705 26.4323 28.4079 25.9719 28.0566C26.7207 27.782 27.8432 26.7572 28.8508 26.8572C30.0056 26.9718 30.8281 26.8959 31.6725 25.9885C32.081 25.5496 32.0815 24.9194 31.973 24.3857Z" fill="#BD6C1B"/>
<path fill-rule="evenodd" clip-rule="evenodd" d="M32.1878 27.2224C32.8594 29.0045 32.0416 36.5356 31.9656 36.622C30.3755 38.4299 29.0777 36.6852 28.8463 39.4356C28.5794 42.6082 29.9016 42.5036 34.926 41.8201C39.9503 41.1367 40.3236 37.3295 39.161 36.3238C37.9983 35.3181 37.7339 35.3178 37.5231 34.4716C37.3122 33.6253 32.1878 27.2224 32.1878 27.2224Z" fill="url(#paint0_linear)"/>
<path fill-rule="evenodd" clip-rule="evenodd" d="M28.8866 40.9341C29.2337 42.5455 30.8782 42.3711 34.9258 41.8205C38.985 41.2684 40.0081 38.6776 39.6384 37.1722C38.9652 38.0464 38.4956 40.0631 34.617 41.0373C31.5968 41.7959 29.8363 41.403 28.8866 40.9341Z" fill="#D49779"/>
<path fill-rule="evenodd" clip-rule="evenodd" d="M32.49 28.0372C33.0598 29.5493 32.5574 35.2001 32.3457 36.9302C32.668 36.7157 32.9806 36.4006 33.0795 35.9571C33.2405 35.2357 33.2719 31.2889 33.2765 29.0289C32.8027 28.4281 32.49 28.0372 32.49 28.0372Z" fill="#F5CCBA"/>
<path fill-rule="evenodd" clip-rule="evenodd" d="M48.2014 31.5955C48.2014 31.5955 47.4382 27.1528 50.4266 26.4413C53.415 25.7297 54.2593 27.9779 53.65 29.3788C53.0407 30.7797 51.3205 32.7879 48.2014 31.5955Z" fill="#EBB794"/>
<path fill-rule="evenodd" clip-rule="evenodd" d="M52.9983 26.743C53.8539 27.3663 54.0198 28.5286 53.6499 29.379C53.0876 30.6719 51.5788 32.4821 48.8973 31.8158C50.0215 31.6429 52.1061 31.182 52.6925 30.0931C53.2417 29.0733 53.1298 27.5978 52.9983 26.743Z" fill="#DBA581"/>
<path fill-rule="evenodd" clip-rule="evenodd" d="M51.0759 28.1931C52.4116 26.9797 51.9195 29.248 51.9224 29.2568C52.3575 29.3679 53.0456 27.4896 51.461 27.5389C50.1691 27.5791 49.3593 29.0817 49.2842 30.2255C49.2376 30.9369 49.7998 29.9116 49.9496 29.6915C50.3157 29.1537 50.6273 28.6698 51.0759 28.1931Z" fill="#D49779"/>
<path fill-rule="evenodd" clip-rule="evenodd" d="M27.876 6.5497C27.876 6.5497 29.7271 6.28678 30.5743 4.91248C31.4215 3.53824 33.9599 3.54028 34.4623 3.54068C34.9647 3.54108 35.1761 3.64709 35.5201 3.35648C35.864 3.06587 35.4939 3.01277 35.9963 3.01317C36.4986 3.01357 38.7726 2.98885 39.0103 3.38568C39.248 3.78252 38.7193 3.62352 39.5652 3.91501C40.411 4.2065 41.944 5.00095 42.4724 5.4773C43.0009 5.95373 43.1593 6.1125 43.5557 6.40363C43.9522 6.69483 43.899 7.09143 44.3216 7.62059C44.7442 8.14974 45.4047 8.73196 45.4575 8.89065C45.5103 9.04933 45.8268 9.97504 46.1571 10.3587C46.4873 10.7424 46.4605 11.0729 46.5394 11.734C46.6182 12.395 46.512 12.9106 46.6307 13.2676C46.7494 13.6247 46.8682 13.8099 46.8681 13.9553C46.868 14.1007 46.8679 14.2726 46.7224 14.2725C46.577 14.2723 33.0001 13.4023 28.9819 12.3942C24.9637 11.3862 24.0647 11.3855 24.3303 9.74636C24.5961 8.10718 24.9138 7.65798 25.4295 7.43363C25.9453 7.20928 26.4743 6.98494 26.9504 6.86632C27.4264 6.7477 27.876 6.5497 27.876 6.5497Z" fill="#36404C"/>
<path fill-rule="evenodd" clip-rule="evenodd" d="M27.8761 6.54967C27.8761 6.54967 29.7273 6.28668 30.5745 4.91245C31.4217 3.53807 33.9602 3.54017 34.4625 3.54058C34.9648 3.54098 35.1764 3.64698 35.5203 3.35638C35.8535 3.07485 35.5166 3.01619 35.9519 3.01317C35.1823 4.31219 33.3139 7.19383 31.7067 7.52858C29.8299 7.91949 26.8776 8.26311 25.6059 7.35731C26.0649 7.15961 26.5286 6.97136 26.9506 6.86622C27.4266 6.7476 27.8761 6.54967 27.8761 6.54967Z" fill="#445161"/>
<path fill-rule="evenodd" clip-rule="evenodd" d="M34.9503 3.55948C35.1537 3.56243 35.3129 3.53122 35.5201 3.35628C35.864 3.06567 35.4939 3.01257 35.9963 3.01297C36.4986 3.01337 38.7726 2.98865 39.0103 3.38548C39.1 3.53518 39.0805 3.60579 39.067 3.65136C38.0022 3.92422 36.4348 4.50409 35.8619 5.63066C34.9615 7.4015 35.8076 7.40218 34.8295 7.13698C33.8514 6.87172 32.159 7.13485 32.5033 6.44767C32.7082 6.03852 33.9165 4.67459 34.9503 3.55948Z" fill="#19212C"/>
<path fill-rule="evenodd" clip-rule="evenodd" d="M34.7463 3.50256C34.7463 3.50256 33.5639 4.02549 33.42 4.16556C33.2762 4.30569 32.5294 5.47235 32.2491 6.16287C31.9688 6.85346 32.4099 7.62085 32.7517 7.8403C33.0935 8.05969 33.5761 8.12827 33.9223 8.08253C34.2685 8.0368 35.1348 7.45215 35.8004 6.81424C36.4661 6.17641 36.8111 5.0055 36.8297 4.57903C36.8484 4.15256 36.6405 3.68906 36.3936 3.61809C36.1466 3.54712 34.7463 3.50256 34.7463 3.50256Z" fill="#B3B3B3"/>
<g filter="url(#filter0_d)">
<path fill-rule="evenodd" clip-rule="evenodd" d="M34.0014 4.29076C34.0014 4.29076 33.7414 4.35067 33.5441 4.55359C33.3468 4.75658 32.6705 5.63813 32.5282 6.23875C32.3859 6.83936 32.6169 7.52128 33.2016 7.6577C33.7862 7.79406 34.4195 7.15091 34.771 6.7378C35.1224 6.32476 35.5046 5.45664 35.5792 5.08017C35.6537 4.70369 35.5753 4.50684 35.5753 4.50684L34.0014 4.29076Z" fill="#F5D755"/>
</g>
<path fill-rule="evenodd" clip-rule="evenodd" d="M46.868 14.0015C46.8665 14.1348 46.8527 14.2724 46.7225 14.2723C46.5771 14.2721 33.0001 13.4021 28.982 12.394C24.9637 11.386 24.0648 11.3853 24.3304 9.74617C24.4704 8.88265 24.6248 8.34945 24.815 8.00534C25.7857 7.2836 27.3098 6.55979 29.5684 6.47173C34.2222 6.29041 39.1655 7.82793 40.1431 8.64841C41.0658 9.42276 44.5064 12.8603 46.868 14.0015Z" fill="#19212C"/>
<path fill-rule="evenodd" clip-rule="evenodd" d="M41.8209 13.9211C37.4719 13.5753 31.4395 13.0104 28.982 12.3939C27.1787 11.9415 26.004 11.6921 25.2805 11.4063L25.31 11.0241C25.31 11.0241 27.9263 6.72836 33.9645 8.51291C40.0027 10.2975 45.32 13.9369 45.32 13.9369L41.8209 13.9211Z" fill="#0C0F14"/>
<path fill-rule="evenodd" clip-rule="evenodd" d="M27.9059 9.09341C27.9059 9.09341 27.2181 9.59527 27.2438 10.5207C27.2695 11.4462 27.7203 9.93937 28.646 9.56994C29.5717 9.20051 30.127 9.09519 30.127 9.09519C30.127 9.09519 28.8306 10.046 28.9096 10.4427C28.9886 10.8394 30.575 11.0258 31.5538 10.4184C32.5326 9.81106 34.8007 10.2522 35.7837 11.3209C36.7666 12.3895 41.8684 12.7928 43.7143 13.4954C45.5602 14.1978 47.5454 12.5176 46.526 16.5768C45.5067 20.6359 44.798 14.1043 38.5311 14.4695C32.2642 14.8346 32.0238 17.8751 32.0238 17.8751C32.0238 17.8751 31.1782 17.2928 31.8669 15.7069C32.5557 14.1209 30.0697 14.6742 30.042 16.3929C30.0141 18.1115 29.9592 20.597 30.4346 21.3377C30.9099 22.0784 25.4619 23.5283 22.6891 19.0311C19.9164 14.5338 22.8549 10.1999 27.9059 9.09341Z" fill="#FA8E22"/>
<path fill-rule="evenodd" clip-rule="evenodd" d="M24.9559 21.2915C24.1275 20.8052 23.3356 20.0802 22.6891 19.0316C20.8366 16.0268 21.5339 13.0952 23.7071 11.1501C23.014 12.2399 22.2756 14.0954 22.7624 16.6956C23.1959 19.0106 24.1466 20.4471 24.9559 21.2915Z" fill="#FAA855"/>
<path fill-rule="evenodd" clip-rule="evenodd" d="M28.9643 10.2205C28.9189 10.3046 28.8972 10.3808 28.9097 10.4433C28.9887 10.84 30.575 11.0264 31.5539 10.419C32.5326 9.81164 34.8007 10.2528 35.7837 11.3214C36.7667 12.3901 41.8685 12.7935 43.7144 13.496C44.1334 13.6554 44.5594 13.6919 44.956 13.7009C44.8748 13.8653 44.707 14.0142 44.4755 14.1225C43.9212 14.3818 41.1113 13.0459 36.265 12.209C31.4188 11.372 34.5225 10.4992 31.7222 10.88C28.9219 11.2608 28.5791 11.0479 28.6931 10.5557C28.7292 10.3997 28.8357 10.2932 28.9643 10.2205Z" fill="#BD6C1B"/>
<path fill-rule="evenodd" clip-rule="evenodd" d="M46.6493 16.0458C46.6145 16.2109 46.5735 16.3875 46.526 16.5768C45.5066 20.6358 44.798 14.1043 38.5311 14.4694C32.2642 14.8346 32.0238 17.8752 32.0238 17.8752C32.0238 17.8752 32.0053 17.8624 31.9762 17.8357C31.9965 17.4705 32.0437 17.0165 32.1523 16.7111C32.361 16.1244 32.9819 14.543 36.6419 13.6286C40.302 12.7142 44.3659 14.8465 45.2549 16.0021C45.676 16.5497 46.1659 16.3534 46.6493 16.0458Z" fill="#BD6C1B"/>
<path fill-rule="evenodd" clip-rule="evenodd" d="M29.7359 21.9485C29.4322 22.0455 29.0481 22.1193 28.6112 22.1486C28.3902 22.0077 28.168 21.8544 27.9453 21.6874C24.3312 18.977 24.7524 13.2407 24.7524 13.2407C25.7653 17.9889 27.765 20.5609 29.7359 21.9485Z" fill="#BD6C1B"/>
<path fill-rule="evenodd" clip-rule="evenodd" d="M43.856 24.548C43.856 24.548 43.2394 22.8689 41.4611 22.7107C39.6829 22.5524 38.4232 22.7445 38.2418 22.5977C38.0605 22.4508 39.4443 21.857 39.4443 21.857C39.4443 21.857 37.8236 21.7323 36.6625 22.7923C35.5014 23.8522 37.2589 25.2102 39.8922 25.0241C42.5254 24.838 43.5265 26.0487 43.856 24.548Z" fill="#F98C23"/>
<path fill-rule="evenodd" clip-rule="evenodd" d="M43.6123 24.0782C43.2908 23.5688 42.6247 22.8142 41.4611 22.7106C39.6828 22.5523 38.4232 22.7445 38.2418 22.5976C38.097 22.4803 38.9497 22.0783 39.2996 21.9209C38.7899 22.0772 38.0946 22.3332 38.0945 22.5672C38.0942 22.9364 38.9084 22.8803 39.9497 22.8811C40.991 22.882 41.8052 22.769 42.4864 23.2808C42.9868 23.6568 43.2323 23.9574 43.6123 24.0782Z" fill="#FAA855"/>
<path fill-rule="evenodd" clip-rule="evenodd" d="M36.3445 23.7598C36.6139 24.5183 38.0351 25.1551 39.8922 25.0238C42.0729 24.8698 43.1344 25.6737 43.6218 25.1021L42.9387 24.8423C41.5949 24.3301 41.1402 24.8219 38.5276 24.5358C37.3544 24.4073 36.7045 24.0806 36.3445 23.7598Z" fill="#BD6C1B"/>
<path d="M34.9283 5.64033C34.8288 6.05786 34.3104 3.74791 34.7715 5.07911C34.8348 5.26156 34.9071 5.44739 34.9283 5.64033ZM33.1449 6.28263C32.9018 6.53017 33.0602 5.54566 33.1516 6.21365L33.1449 6.28263ZM33.6734 6.17028C33.5611 6.56583 33.2088 4.64386 33.5615 5.71258C33.6107 5.86153 33.6627 6.01306 33.6734 6.17028ZM34.4456 6.26593C34.4091 6.8038 33.5335 3.33097 34.1997 5.389C34.293 5.67717 34.3939 5.96692 34.4456 6.26593Z" fill="white"/>
<path d="M30.8271 5.35143C31.2539 5.37575 30.256 6.03443 30.7627 5.39253L30.8271 5.35143ZM41.8524 8.39604C41.8787 8.4337 43.0577 10.0749 42.5329 9.62516C42.3304 9.45162 41.5641 8.13241 41.8524 8.39604ZM45.5943 11.7087C45.3113 12.2502 45.6684 12.541 45.4704 12.514C45.2621 12.4854 45.3396 11.7553 45.5452 11.6301L45.5943 11.7087ZM43.7352 7.93364C43.7472 7.93737 44.4393 9.46225 43.9129 8.6631C43.801 8.49328 43.6188 8.13269 43.7352 7.93364ZM40.3557 4.91355C40.4229 5.07719 40.1743 5.28787 40.5084 5.96579C40.6812 6.31628 40.0497 5.84442 40.201 5.05833C40.2217 4.95073 40.2474 4.88892 40.3557 4.91355Z" fill="#19212C"/>
<path fill-rule="evenodd" clip-rule="evenodd" d="M23.0782 12.6872C22.2564 15.9135 24.5576 22.0407 25.2649 21.2085C25.2649 21.2085 23.378 16.7202 23.0782 12.6872Z" fill="#FAA855"/>
<path d="M30.3617 30.2007C30.3667 30.1921 32.0836 27.1593 38.3887 29.158L38.1729 29.8399C32.4135 28.0142 30.9806 30.5574 30.9763 30.5646L30.3617 30.2007Z" fill="black"/>
<path fill-rule="evenodd" clip-rule="evenodd" d="M46.2877 26.2441L47.5712 25.147L47.9252 26.4821L46.8878 27.4658L46.2877 26.2441Z" fill="black"/>
<path fill-rule="evenodd" clip-rule="evenodd" d="M40.0685 25.7412C38.4451 26.1852 37.5913 28.2353 38.1615 30.32C38.7317 32.4048 40.9814 33.5429 42.6049 33.0988C44.2284 32.6548 47.6051 28.9335 47.0349 26.8487C46.4646 24.764 41.692 25.2972 40.0685 25.7412Z" fill="#B3B3B3"/>
<path fill-rule="evenodd" clip-rule="evenodd" d="M45.0712 31.2618C46.3215 29.8989 47.3732 28.0854 47.0348 26.8482C46.5962 25.2448 43.672 25.1901 41.6063 25.4523C42.3185 25.5198 43.2107 25.705 43.9649 26.197C45.2779 27.0536 45.6098 29.6961 45.0712 31.2618Z" fill="#999999"/>
<path d="M42.4349 32.4838C40.8329 32.922 39.1546 31.8889 38.6862 30.1763C38.2178 28.4638 39.1367 26.7203 40.7386 26.2821C42.3405 25.844 44.0189 26.8771 44.4873 28.5896C44.9557 30.3021 44.0368 32.0456 42.4349 32.4838Z" fill="black"/>
<path fill-rule="evenodd" clip-rule="evenodd" d="M40.1078 26.0125C40.3759 26.088 39.8849 26.3984 39.9688 26.0551C39.9848 25.9894 40.0593 26.0053 40.1078 26.0125ZM39.5358 26.3141C39.8049 26.3915 39.3091 26.7033 39.3948 26.3561C39.4112 26.2898 39.4868 26.3065 39.5358 26.3141ZM38.9483 27.0142C39.2188 27.0922 38.7187 27.4059 38.8065 27.0558C38.8232 26.9893 38.8993 27.0064 38.9483 27.0142ZM38.5748 27.7735C38.8466 27.8533 38.341 28.169 38.4313 27.8147C38.4483 27.7476 38.5254 27.7654 38.5748 27.7735ZM38.4172 28.7744C38.6906 28.8567 38.1782 29.1751 38.2715 28.815C38.2891 28.747 38.3673 28.7657 38.4172 28.7744ZM38.4557 29.7299C38.7308 29.8173 38.2087 30.1382 38.3057 29.7694C38.324 29.7 38.4043 29.7199 38.4557 29.7299ZM38.7222 30.7276C38.9992 30.8228 38.4649 31.1456 38.5663 30.7657C38.5855 30.6937 38.6697 30.716 38.7222 30.7276ZM39.1444 31.4799C39.4226 31.5823 38.8788 31.9054 38.9834 31.5166C39.0034 31.4425 39.091 31.4669 39.1444 31.4799ZM39.822 32.067C40.1007 32.1742 39.5515 32.4969 39.6579 32.103C39.6782 32.0276 39.768 32.053 39.822 32.067ZM40.5043 32.4458C40.7834 32.5571 40.23 32.8792 40.3376 32.4812C40.3584 32.4046 40.4498 32.431 40.5043 32.4458ZM41.3757 32.645C41.6547 32.7588 41.0998 33.0802 41.2078 32.6802C41.2286 32.603 41.3209 32.6298 41.3757 32.645ZM42.2663 32.6644C42.545 32.7807 41.9889 33.1011 42.097 32.6994C42.118 32.6214 42.2112 32.6488 42.2663 32.6644ZM43.1182 32.3812C43.3963 32.4959 42.8436 32.8164 42.9503 32.4168C42.9709 32.3392 43.0632 32.3659 43.1182 32.3812ZM43.8847 31.8426C44.1617 31.9536 43.6155 32.274 43.7196 31.8792C43.7398 31.8027 43.83 31.828 43.8847 31.8426ZM44.4333 31.1901C44.7091 31.2964 44.1702 31.6171 44.2715 31.228C44.2911 31.1527 44.3791 31.1766 44.4333 31.1901ZM44.7447 30.3676C45.0188 30.4661 44.4911 30.787 44.5884 30.4071C44.6071 30.3342 44.6913 30.3556 44.7447 30.3676ZM44.8669 29.6111C45.1396 29.7037 44.6213 30.0235 44.7152 29.6518C44.7333 29.5804 44.815 29.6003 44.8669 29.6111ZM44.8283 28.9017C45.0997 28.9892 44.5901 29.3074 44.6807 28.9436C44.6981 28.8739 44.7773 28.8923 44.8283 28.9017ZM44.7525 28.2487C45.0227 28.3337 44.5184 28.6505 44.6069 28.2911C44.6239 28.2224 44.702 28.2398 44.7525 28.2487ZM44.4872 27.558C44.7562 27.6397 44.2581 27.9545 44.3443 27.6009C44.3608 27.5332 44.4373 27.5497 44.4872 27.558ZM44.1083 27.0091C44.3762 27.088 43.8835 27.401 43.9677 27.0524C43.9838 26.9858 44.0588 27.0015 44.1083 27.0091ZM43.7107 26.5452C43.9781 26.6228 43.488 26.9345 43.5711 26.5886C43.587 26.5223 43.6616 26.5377 43.7107 26.5452ZM43.1706 26.2043C43.4373 26.2795 42.9511 26.5899 43.0329 26.2479C43.0485 26.1825 43.1219 26.1973 43.1706 26.2043ZM42.5738 25.958C42.8402 26.0317 42.3561 26.3409 42.4373 26.0017C42.4526 25.9377 42.5259 25.9514 42.5738 25.958ZM41.93 25.8061C42.1964 25.8792 41.7128 26.1881 41.7938 25.8497C41.8091 25.786 41.8822 25.7996 41.93 25.8061ZM41.2861 25.8057C41.5526 25.8784 41.0687 26.187 41.15 25.8492C41.1654 25.7855 41.2383 25.7993 41.2861 25.8057ZM40.7089 25.8334C40.9761 25.9075 40.4889 26.2169 40.5713 25.8764C40.5871 25.8113 40.6606 25.8266 40.7089 25.8334Z" fill="#E6E6E6"/>
<path fill-rule="evenodd" clip-rule="evenodd" d="M28.0877 27.8627C30.1833 27.9212 31.03 29.332 31.0284 31.3179C31.0268 33.3039 29.8275 34.7846 28.0821 34.84C26.3367 34.8954 24.0332 33.2982 24.0348 31.3123C24.0364 29.3264 25.9921 27.8042 28.0877 27.8627Z" fill="#CCCCCC"/>
<path fill-rule="evenodd" clip-rule="evenodd" d="M25.6952 34.0591C24.7546 33.4127 24.034 32.4235 24.0349 31.3125C24.0358 30.1481 24.7088 29.1432 25.6877 28.5228C25.0331 29.1358 24.6568 29.8568 24.5596 30.9965C24.4399 32.4007 24.8768 33.1527 25.6952 34.0591Z" fill="#E6E6E6"/>
<path d="M27.7629 34.2695C29.2889 34.2708 30.5271 32.9492 30.5284 31.3178C30.5297 29.6864 29.2937 28.3628 27.7676 28.3616C26.2415 28.3604 25.0033 29.6819 25.002 31.3134C25.0007 32.9448 26.2368 34.2683 27.7629 34.2695Z" fill="black"/>
<path fill-rule="evenodd" clip-rule="evenodd" d="M27.6241 28.1373C27.5208 28.5376 27.0897 27.9592 27.4729 27.9593C27.5737 27.9594 27.6308 28.0397 27.6241 28.1373ZM26.6925 28.4154C26.5901 28.8125 26.1623 28.2388 26.5426 28.2391C26.6424 28.2392 26.6991 28.3187 26.6925 28.4154ZM25.9642 28.798C25.8627 29.1916 25.4389 28.623 25.8157 28.6233C25.9146 28.6233 25.9708 28.7022 25.9642 28.798ZM25.4124 29.5166C25.3125 29.9047 24.8946 29.3442 25.266 29.3446C25.3632 29.3446 25.4188 29.4223 25.4124 29.5166ZM25.0741 30.3971C24.9757 30.7805 24.5629 30.227 24.9296 30.2273C25.0254 30.2274 25.0804 30.3041 25.0741 30.3971ZM24.9167 31.1632C24.8188 31.5465 24.406 30.9934 24.7724 30.9939C24.868 30.994 24.9228 31.0705 24.9167 31.1632ZM24.6682 32.0045C24.7667 31.6214 25.1714 32.1678 24.8147 32.1757C24.7174 32.1778 24.6618 32.0983 24.6682 32.0045ZM25.1169 32.9842C24.7103 32.8835 25.3132 32.4533 25.2836 32.8451C25.2766 32.9383 25.2079 32.9888 25.1169 32.9842ZM25.6171 33.7535C25.2176 33.6518 25.7926 33.2207 25.7937 33.6024C25.7939 33.7026 25.714 33.7597 25.6171 33.7535ZM26.525 34.3902C26.12 34.2863 26.7052 33.8523 26.7039 34.2373C26.7036 34.3392 26.6236 34.3966 26.525 34.3902ZM27.3481 34.6285C26.9405 34.5233 27.53 34.0869 27.5286 34.4746C27.5283 34.5774 27.4475 34.6352 27.3481 34.6285ZM28.2094 34.6112C27.8015 34.5053 28.3898 34.0656 28.391 34.4562C28.3912 34.5598 28.3094 34.6179 28.2094 34.6112ZM29.1088 34.3666C28.6987 34.2598 29.2905 33.8181 29.2914 34.2108C29.2916 34.315 29.2093 34.3734 29.1088 34.3666ZM29.6583 33.8934C29.2481 33.7868 29.8404 33.3452 29.8407 33.7381C29.8408 33.8422 29.7587 33.9002 29.6583 33.8934ZM30.3695 33.2145C30.2642 33.6256 29.8208 33.0329 30.2143 33.0327C30.3181 33.0327 30.3759 33.1144 30.3695 33.2145ZM30.7198 32.4479C30.6149 32.8575 30.1734 32.2668 30.5651 32.2665C30.6681 32.2664 30.7262 32.3484 30.7198 32.4479ZM30.8808 31.6526C30.7763 32.0605 30.3366 31.4723 30.7266 31.472C30.8292 31.4718 30.8871 31.5535 30.8808 31.6526ZM30.9188 30.8195C30.8146 31.226 30.3764 30.6398 30.7652 30.6394C30.8674 30.6392 30.9252 30.7207 30.9188 30.8195ZM30.7008 30.0618C30.5968 30.467 30.1603 29.8827 30.5477 29.8823C30.6496 29.8821 30.7072 29.9634 30.7008 30.0618ZM30.3886 29.4462C30.2846 29.8506 29.8491 29.2672 30.2357 29.2668C30.3374 29.2668 30.3951 29.3479 30.3886 29.4462ZM29.9533 28.9346C29.8493 29.3383 29.4146 28.7557 29.8007 28.7554C29.9023 28.7553 29.9599 28.8363 29.9533 28.9346ZM29.3353 28.4418C29.2313 28.845 28.7971 28.2629 29.1829 28.2627C29.2845 28.2626 29.342 28.3436 29.3353 28.4418ZM28.5285 28.1712C28.4246 28.5733 27.9916 27.9926 28.3765 27.9925C28.4778 27.9925 28.5352 28.0733 28.5285 28.1712Z" fill="#E6E6E6"/>
<path d="M31.4759 38.407C32.4342 38.4078 33.2112 38.2505 33.2113 38.0557C33.2115 37.8609 32.4347 37.7024 31.4764 37.7016C30.5181 37.7008 29.7411 37.8581 29.7409 38.0529C29.7408 38.2477 30.5175 38.4062 31.4759 38.407Z" fill="#F5CCBA"/>
<path d="M42.3128 27.8997C43.0121 28.407 37.9182 27.1698 41.0399 27.6444C41.4678 27.7093 41.9127 27.7639 42.3128 27.8997ZM41.9065 30.2015C42.5483 30.7088 38.4006 29.5632 40.8868 29.9697C41.2332 30.0265 41.588 30.0811 41.9065 30.2015ZM42.978 29.1501C43.984 29.669 36.2155 27.9501 40.9881 28.7523C41.6564 28.8646 42.3364 28.9672 42.978 29.1501Z" fill="#808080"/>
<path d="M26.6542 29.632C28.1674 29.8938 27.2127 30.0472 26.3517 29.6806C26.0009 29.5312 26.6176 29.627 26.6542 29.632ZM26.8995 33.0184C27.0895 33.1205 26.8015 33.1961 26.7335 33.0018C26.7817 32.9693 26.8491 33.0012 26.8995 33.0184ZM26.5773 31.9817C27.726 32.1596 26.7512 32.3222 26.3837 31.9949C26.4204 31.9532 26.5284 31.9774 26.5773 31.9817ZM26.629 30.7331C28.7315 31.206 28.2473 31.3445 26.4736 30.8586C25.1633 30.4995 25.6982 30.5374 26.629 30.7331Z" fill="#808080"/>
<defs>
<filter id="filter0_d" x="28.4866" y="0.289551" width="11.1252" height="11.3886" filterUnits="userSpaceOnUse" color-interpolation-filters="sRGB">
<feFlood flood-opacity="0" result="BackgroundImageFix"/>
<feColorMatrix in="SourceAlpha" type="matrix" values="0 0 0 0 0 0 0 0 0 0 0 0 0 0 0 0 0 0 127 0"/>
<feOffset/>
<feGaussianBlur stdDeviation="2"/>
<feColorMatrix type="matrix" values="0 0 0 0 1 0 0 0 0 0.912917 0 0 0 0 0.129167 0 0 0 1 0"/>
<feBlend mode="normal" in2="BackgroundImageFix" result="effect1_dropShadow"/>
<feBlend mode="normal" in="SourceGraphic" in2="effect1_dropShadow" result="shape"/>
</filter>
<linearGradient id="paint0_linear" x1="31.9323" y1="41.6502" x2="36.5973" y2="27.7872" gradientUnits="userSpaceOnUse">
<stop stop-color="#FFB494"/>
<stop offset="1" stop-color="#E6B99A"/>
</linearGradient>
</defs>
</svg>
