<svg width="1214" height="600" viewBox="0 0 1214 600" fill="none" xmlns="http://www.w3.org/2000/svg">
<path d="M922 172.991C1005 150.991 996 228.491 980.5 246.991C965 265.491 989 278.491 984.5 301.991C982.207 313.965 973.166 321.842 964.406 326.5C945.61 336.494 940.379 350.514 929.5 370C925.667 378.167 912.2 395.5 889 399.5C860 404.5 851 420 844 458C841.158 473.427 833.732 482.468 825.669 487.5C809.604 497.526 792.379 490.35 775.5 486.5C728.5 473.5 710 497.5 668.5 501.5C627 505.5 630.5 490 626.5 470.5C622.5 451 632.5 445.5 640 438.5C646 432.9 645.5 417.833 644.5 411C643.414 404.212 642.326 398.516 639.597 392.273C633.065 377.329 625.27 353.113 631.5 341C640.5 323.5 661.5 312.5 673.5 306.5C685.5 300.5 690.5 297 701.5 273C712.5 249 712 245.5 709.5 233.5C707 221.5 674 231 677.5 201.5C680.3 177.9 649.333 169.333 633.5 168C622.278 167.024 622.588 169.892 619.181 178C610.067 199.687 574.896 180.636 543 203C510.787 225.586 481.945 232.92 462.5 231.903C455.303 231.527 448.443 229.158 443.762 223.5C442.094 221.483 439.473 218.58 435.5 214.474C420.5 198.974 403 206.974 394 207.474C385 207.974 401.5 236.474 356 239.474C310.5 242.474 309.5 289.474 316.5 325.474C322.1 354.274 309.5 400.141 302.5 419.474C302.5 419.474 297.5 431.5 295.5 431.5C293.5 431.5 293.53 421.648 291.948 417C280.68 383.89 251.616 358.729 256 310.5C261 255.5 287 266.5 279 240C271 213.5 212.167 179 195 170" stroke="#7F7550" stroke-dasharray="4 6"/>
</svg>
