<svg width="1214" height="600" viewBox="0 0 1214 600" fill="none" xmlns="http://www.w3.org/2000/svg">
<rect x="149.5" y="111.5" width="86" height="86" stroke="#7F7550" stroke-opacity="0.01"/>
<path d="M212.833 157.875C212.434 158.153 212.019 158.405 211.621 158.683L210.393 159.464C209.572 159.981 208.751 160.498 207.93 161.014C206.28 162.034 204.622 163.041 202.924 164.035C199.593 166.022 196.198 167.957 192.804 169.838C189.411 171.72 185.977 173.589 182.545 175.404C179.105 177.206 175.624 178.996 172.106 180.666C171.9 180.765 171.676 180.891 171.46 181.031C170.199 181.867 169.637 183.047 170.248 183.634C170.835 184.236 172.348 184.05 173.602 183.201C176.84 181.055 180.164 179.002 183.48 176.988C186.796 174.975 190.167 173 193.537 171.079C196.899 169.145 200.309 167.237 203.734 165.408C205.447 164.494 207.159 163.579 208.911 162.678C209.779 162.24 210.639 161.79 211.515 161.365L212.821 160.716C213.258 160.504 213.696 160.292 214.142 160.093C214.349 159.994 214.572 159.868 214.763 159.742C215.851 159.005 216.311 157.988 215.778 157.479C215.238 156.957 213.92 157.137 212.833 157.875Z" fill="#7F7550"/>
<path d="M179.218 154.099C179.503 154.489 179.76 154.894 180.044 155.284L180.843 156.485C181.371 157.289 181.899 158.091 182.427 158.895C183.469 160.509 184.499 162.131 185.515 163.792C187.546 167.051 189.524 170.371 191.447 173.691C193.371 177.011 195.281 180.37 197.137 183.728C198.979 187.093 200.808 190.498 202.516 193.94C202.617 194.142 202.746 194.36 202.888 194.571C203.743 195.806 204.949 196.356 205.55 195.757C206.165 195.183 205.975 193.703 205.107 192.476C202.914 189.309 200.815 186.057 198.756 182.813C196.698 179.57 194.68 176.272 192.716 172.974C190.739 169.685 188.788 166.349 186.918 162.999C185.984 161.324 185.049 159.649 184.127 157.935C183.68 157.085 183.22 156.244 182.786 155.388L182.122 154.11C181.905 153.682 181.689 153.254 181.485 152.818C181.384 152.616 181.255 152.397 181.127 152.21C180.373 151.146 179.334 150.696 178.813 151.217C178.279 151.746 178.464 153.034 179.218 154.099Z" fill="#7F7550"/>
<path d="M191.645 114.82L190.443 161.48C190.416 162.3 191.02 162.962 191.786 163.022C192.554 163.052 193.201 162.438 193.258 161.588L195.199 114.957L195.2 114.926C195.235 113.893 194.439 113.011 193.471 113.004C192.477 112.935 191.68 113.787 191.645 114.82Z" fill="#7F7550"/>
<path fill-rule="evenodd" clip-rule="evenodd" d="M175.176 115L211.11 116.886L209.934 139.292L174 137.406L174.793 122.293L176.033 121.377L174.769 120.49L177.372 119.606L175.021 117.959L175.176 115Z" fill="#7F7550"/>
<path d="M188.26 123.118C188.608 122.974 188.968 122.812 189.34 122.632C189.724 122.44 190.096 122.236 190.456 122.02C190.816 121.792 191.158 121.558 191.482 121.318C191.818 121.066 192.118 120.802 192.382 120.526H194.254V133H191.572V124.018C191.212 124.258 190.81 124.48 190.366 124.684C189.922 124.876 189.49 125.044 189.07 125.188L188.26 123.118Z" fill="#D7C99C"/>
<rect x="256.5" y="374.5" width="86" height="86" stroke="#7F7550" stroke-opacity="0.01"/>
<path d="M298.645 376.82L297.443 423.48C297.416 424.3 298.02 424.962 298.786 425.022C299.554 425.052 300.201 424.438 300.258 423.588L302.199 376.957L302.2 376.926C302.235 375.893 301.439 375.011 300.471 375.004C299.477 374.935 298.68 375.787 298.645 376.82Z" fill="#7F7550"/>
<path fill-rule="evenodd" clip-rule="evenodd" d="M282.176 377L318.11 378.886L316.934 401.292L281 399.406L281.793 384.293L283.033 383.377L281.769 382.49L284.372 381.606L282.021 379.959L282.176 377Z" fill="#7F7550"/>
<path d="M302.928 385.802C302.928 386.258 302.838 386.696 302.658 387.116C302.478 387.536 302.244 387.944 301.956 388.34C301.668 388.724 301.344 389.096 300.984 389.456C300.624 389.816 300.27 390.158 299.922 390.482C299.742 390.65 299.544 390.842 299.328 391.058C299.124 391.262 298.926 391.472 298.734 391.688C298.542 391.904 298.368 392.108 298.212 392.3C298.068 392.48 297.978 392.63 297.942 392.75H303.306V395H294.99C294.966 394.868 294.954 394.7 294.954 394.496C294.954 394.292 294.954 394.148 294.954 394.064C294.954 393.488 295.044 392.96 295.224 392.48C295.416 392 295.662 391.556 295.962 391.148C296.262 390.728 296.598 390.338 296.97 389.978C297.354 389.618 297.732 389.258 298.104 388.898C298.392 388.622 298.662 388.364 298.914 388.124C299.166 387.872 299.388 387.632 299.58 387.404C299.772 387.164 299.922 386.93 300.03 386.702C300.138 386.462 300.192 386.222 300.192 385.982C300.192 385.454 300.042 385.082 299.742 384.866C299.442 384.65 299.07 384.542 298.626 384.542C298.302 384.542 297.996 384.596 297.708 384.704C297.432 384.8 297.174 384.92 296.934 385.064C296.706 385.196 296.508 385.334 296.34 385.478C296.172 385.61 296.046 385.718 295.962 385.802L294.63 383.93C295.158 383.438 295.77 383.036 296.466 382.724C297.174 382.4 297.93 382.238 298.734 382.238C299.466 382.238 300.096 382.322 300.624 382.49C301.152 382.658 301.584 382.898 301.92 383.21C302.268 383.51 302.52 383.882 302.676 384.326C302.844 384.758 302.928 385.25 302.928 385.802Z" fill="#D7C99C"/>
<path d="M281.601 417.21C281.935 417.563 282.246 417.935 282.58 418.288L283.535 419.386C284.168 420.121 284.801 420.856 285.434 421.592C286.687 423.072 287.929 424.561 289.165 426.093C291.625 429.092 294.043 432.161 296.408 435.238C298.773 438.313 301.131 441.431 303.437 444.556C305.73 447.69 308.017 450.866 310.192 454.097C310.32 454.286 310.478 454.488 310.648 454.681C311.663 455.805 312.913 456.185 313.403 455.493C313.91 454.823 313.502 453.354 312.476 452.24C309.873 449.358 307.348 446.375 304.864 443.395C302.38 440.416 299.927 437.376 297.526 434.328C295.114 431.291 292.72 428.203 290.402 425.087C289.244 423.53 288.085 421.973 286.933 420.374C286.371 419.58 285.798 418.797 285.248 417.994L284.412 416.799C284.137 416.398 283.863 415.997 283.599 415.585C283.471 415.396 283.313 415.194 283.16 415.024C282.269 414.057 281.196 413.754 280.771 414.356C280.335 414.968 280.71 416.244 281.601 417.21Z" fill="#7F7550"/>
<path d="M282.862 451.012C283.206 450.673 283.568 450.358 283.912 450.019L284.981 449.051C285.697 448.409 286.412 447.768 287.128 447.126C288.57 445.855 290.02 444.597 291.512 443.345C294.433 440.852 297.423 438.402 300.42 436.007C303.417 433.612 306.454 431.223 309.499 428.889C312.554 426.567 315.648 424.252 318.798 422.052C318.983 421.922 319.18 421.762 319.367 421.59C320.461 420.561 320.826 419.286 320.145 418.782C319.485 418.259 318.05 418.667 316.966 419.707C314.16 422.347 311.256 424.906 308.354 427.424C305.452 429.941 302.491 432.427 299.522 434.859C296.564 437.303 293.555 439.728 290.519 442.075C289.002 443.248 287.484 444.421 285.926 445.587C285.153 446.156 284.389 446.736 283.607 447.292L282.442 448.138C282.051 448.417 281.66 448.694 281.259 448.961C281.074 449.091 280.877 449.251 280.711 449.405C279.771 450.309 279.48 451.404 280.073 451.841C280.675 452.29 281.922 451.916 282.862 451.012Z" fill="#7F7550"/>
<rect x="862.5" y="110.5" width="86" height="86" stroke="#7F7550" stroke-opacity="0.01"/>
<path d="M887.269 154.798C887.604 155.151 887.914 155.524 888.248 155.877L889.203 156.975C889.836 157.71 890.469 158.445 891.102 159.18C892.356 160.66 893.598 162.15 894.833 163.682C897.294 166.68 899.711 169.75 902.076 172.826C904.441 175.902 906.8 179.02 909.105 182.145C911.398 185.279 913.685 188.454 915.86 191.685C915.989 191.875 916.147 192.077 916.317 192.27C917.331 193.393 918.581 193.774 919.071 193.082C919.579 192.412 919.17 190.943 918.144 189.829C915.541 186.946 913.017 183.964 910.533 180.984C908.049 178.005 905.595 174.964 903.195 171.917C900.782 168.88 898.388 165.791 896.071 162.676C894.912 161.119 893.753 159.561 892.601 157.962C892.04 157.169 891.466 156.386 890.917 155.583L890.08 154.388C889.806 153.987 889.531 153.585 889.268 153.174C889.139 152.984 888.981 152.782 888.829 152.612C887.938 151.646 886.864 151.342 886.44 151.944C886.004 152.556 886.378 153.832 887.269 154.798Z" fill="#7F7550"/>
<path d="M888.53 188.601C888.874 188.262 889.237 187.947 889.58 187.608L890.649 186.64C891.365 185.998 892.081 185.356 892.797 184.715C894.238 183.444 895.689 182.185 897.181 180.933C900.101 178.44 903.091 175.991 906.088 173.595C909.085 171.2 912.123 168.812 915.168 166.478C918.222 164.156 921.317 161.841 924.467 159.641C924.651 159.51 924.848 159.35 925.036 159.178C926.13 158.15 926.494 156.875 925.813 156.37C925.154 155.848 923.718 156.255 922.634 157.296C919.828 159.935 916.924 162.495 914.022 165.012C911.121 167.529 908.159 170.016 905.191 172.448C902.232 174.892 899.223 177.317 896.188 179.663C894.67 180.836 893.153 182.01 891.594 183.176C890.821 183.744 890.058 184.325 889.275 184.881L888.11 185.727C887.719 186.005 887.328 186.283 886.927 186.549C886.742 186.679 886.545 186.839 886.38 186.994C885.439 187.898 885.149 188.992 885.741 189.429C886.343 189.879 887.59 189.504 888.53 188.601Z" fill="#7F7550"/>
<path d="M904.645 114.82L903.443 161.48C903.416 162.3 904.02 162.962 904.786 163.022C905.554 163.052 906.201 162.438 906.258 161.588L908.199 114.957L908.2 114.926C908.235 113.893 907.439 113.011 906.471 113.004C905.477 112.935 904.68 113.787 904.645 114.82Z" fill="#7F7550"/>
<path fill-rule="evenodd" clip-rule="evenodd" d="M888.176 115L924.11 116.886L922.934 139.292L887 137.406L887.793 122.293L889.033 121.377L887.769 120.49L890.372 119.606L888.021 117.959L888.176 115Z" fill="#7F7550"/>
<path d="M909.54 129.526C909.54 130.066 909.444 130.564 909.252 131.02C909.072 131.464 908.796 131.854 908.424 132.19C908.052 132.526 907.584 132.79 907.02 132.982C906.468 133.162 905.826 133.252 905.094 133.252C904.254 133.252 903.552 133.138 902.988 132.91C902.436 132.67 901.986 132.376 901.638 132.028C901.302 131.68 901.062 131.302 900.918 130.894C900.774 130.474 900.702 130.09 900.702 129.742C900.702 129.382 900.75 129.052 900.846 128.752C900.942 128.452 901.074 128.182 901.242 127.942C901.41 127.69 901.596 127.462 901.8 127.258C902.016 127.054 902.244 126.862 902.484 126.682C901.968 126.262 901.584 125.848 901.332 125.44C901.092 125.032 900.972 124.51 900.972 123.874C900.972 123.394 901.068 122.932 901.26 122.488C901.464 122.044 901.746 121.66 902.106 121.336C902.466 121 902.898 120.736 903.402 120.544C903.918 120.34 904.488 120.238 905.112 120.238C905.844 120.238 906.468 120.346 906.984 120.562C907.512 120.766 907.944 121.03 908.28 121.354C908.616 121.678 908.856 122.044 909 122.452C909.156 122.848 909.234 123.244 909.234 123.64C909.234 124.216 909.078 124.756 908.766 125.26C908.466 125.752 908.088 126.142 907.632 126.43C908.316 126.874 908.802 127.342 909.09 127.834C909.39 128.314 909.54 128.878 909.54 129.526ZM903.312 129.634C903.312 129.778 903.342 129.94 903.402 130.12C903.474 130.288 903.582 130.444 903.726 130.588C903.87 130.732 904.056 130.852 904.284 130.948C904.512 131.044 904.788 131.092 905.112 131.092C905.736 131.092 906.192 130.942 906.48 130.642C906.768 130.342 906.912 130.006 906.912 129.634C906.912 129.358 906.846 129.112 906.714 128.896C906.594 128.68 906.426 128.494 906.21 128.338C905.994 128.17 905.736 128.026 905.436 127.906C905.148 127.774 904.836 127.654 904.5 127.546C904.164 127.798 903.882 128.092 903.654 128.428C903.426 128.764 903.312 129.166 903.312 129.634ZM906.642 123.712C906.642 123.58 906.612 123.442 906.552 123.298C906.504 123.142 906.414 122.998 906.282 122.866C906.162 122.734 906.006 122.626 905.814 122.542C905.622 122.446 905.388 122.398 905.112 122.398C904.848 122.398 904.62 122.44 904.428 122.524C904.236 122.608 904.074 122.722 903.942 122.866C903.822 122.998 903.732 123.142 903.672 123.298C903.612 123.454 903.582 123.604 903.582 123.748C903.582 124.132 903.72 124.492 903.996 124.828C904.284 125.164 904.77 125.452 905.454 125.692C905.838 125.452 906.132 125.176 906.336 124.864C906.54 124.552 906.642 124.168 906.642 123.712Z" fill="#D7C99C"/>
<rect x="409.5" y="169.5" width="86" height="86" stroke="#7F7550" stroke-opacity="0.01"/>
<path d="M449.645 174.82L448.443 221.48C448.416 222.3 449.02 222.962 449.786 223.022C450.554 223.052 451.201 222.438 451.258 221.588L453.199 174.957L453.2 174.926C453.235 173.893 452.439 173.011 451.471 173.004C450.477 172.935 449.68 173.787 449.645 174.82Z" fill="#7F7550"/>
<path fill-rule="evenodd" clip-rule="evenodd" d="M433.176 175L469.11 176.886L467.934 199.292L432 197.406L432.793 182.293L434.033 181.377L432.769 180.49L435.372 179.606L433.021 177.959L433.176 175Z" fill="#7F7550"/>
<path d="M449.104 193.27C448.78 193.27 448.438 193.246 448.078 193.198C447.718 193.162 447.37 193.108 447.034 193.036C446.698 192.964 446.392 192.886 446.116 192.802C445.84 192.718 445.624 192.64 445.468 192.568L445.99 190.336C446.302 190.468 446.698 190.612 447.178 190.768C447.67 190.912 448.276 190.984 448.996 190.984C449.824 190.984 450.43 190.828 450.814 190.516C451.198 190.204 451.39 189.784 451.39 189.256C451.39 188.932 451.318 188.662 451.174 188.446C451.042 188.218 450.856 188.038 450.616 187.906C450.376 187.762 450.088 187.666 449.752 187.618C449.428 187.558 449.08 187.528 448.708 187.528H447.664V185.368H448.852C449.116 185.368 449.368 185.344 449.608 185.296C449.86 185.248 450.082 185.17 450.274 185.062C450.466 184.942 450.616 184.786 450.724 184.594C450.844 184.39 450.904 184.138 450.904 183.838C450.904 183.61 450.856 183.412 450.76 183.244C450.664 183.076 450.538 182.938 450.382 182.83C450.238 182.722 450.064 182.644 449.86 182.596C449.668 182.536 449.47 182.506 449.266 182.506C448.75 182.506 448.27 182.584 447.826 182.74C447.394 182.896 446.998 183.088 446.638 183.316L445.684 181.354C445.876 181.234 446.098 181.108 446.35 180.976C446.614 180.844 446.902 180.724 447.214 180.616C447.526 180.508 447.856 180.418 448.204 180.346C448.564 180.274 448.942 180.238 449.338 180.238C450.07 180.238 450.7 180.328 451.228 180.508C451.768 180.676 452.212 180.922 452.56 181.246C452.908 181.558 453.166 181.93 453.334 182.362C453.502 182.782 453.586 183.244 453.586 183.748C453.586 184.24 453.448 184.72 453.172 185.188C452.896 185.644 452.524 185.992 452.056 186.232C452.704 186.496 453.202 186.892 453.55 187.42C453.91 187.936 454.09 188.56 454.09 189.292C454.09 189.868 453.994 190.402 453.802 190.894C453.61 191.374 453.31 191.794 452.902 192.154C452.494 192.502 451.972 192.778 451.336 192.982C450.712 193.174 449.968 193.27 449.104 193.27Z" fill="#D7C99C"/>
<path d="M465.569 212.873C465.307 213.262 465.021 213.636 464.758 214.025L463.924 215.162C463.363 215.918 462.803 216.673 462.242 217.429C461.11 218.932 459.965 220.429 458.779 221.931C456.466 224.909 454.076 227.87 451.667 230.787C449.258 233.705 446.808 236.628 444.34 239.508C441.86 242.38 439.339 245.259 436.739 248.057C436.587 248.222 436.429 248.416 436.283 248.617C435.438 249.812 435.355 251 436.127 251.225C436.882 251.472 438.194 250.7 439.028 249.497C441.198 246.43 443.481 243.401 445.771 240.409C448.06 237.416 450.415 234.433 452.788 231.493C455.148 228.545 457.562 225.599 460.019 222.712C461.247 221.268 462.475 219.824 463.744 218.374C464.377 217.664 464.996 216.946 465.64 216.243L466.594 215.181C466.916 214.829 467.238 214.478 467.572 214.133C467.724 213.968 467.882 213.774 468.01 213.594C468.734 212.55 468.782 211.537 468.111 211.343C467.428 211.141 466.292 211.828 465.569 212.873Z" fill="#7F7550"/>
<path d="M433.537 223.602C433.938 223.802 434.321 224.025 434.722 224.224L435.889 224.87C436.663 225.305 437.438 225.739 438.212 226.174C439.751 227.054 441.281 227.947 442.814 228.877C445.855 230.685 448.87 232.565 451.834 234.468C454.799 236.369 457.766 238.309 460.683 240.269C463.59 242.242 466.5 244.251 469.313 246.341C469.479 246.463 469.676 246.587 469.883 246.7C471.112 247.35 472.413 247.301 472.742 246.569C473.094 245.851 472.381 244.729 471.142 244.091C467.987 242.423 464.886 240.648 461.826 238.863C458.766 237.078 455.723 235.233 452.73 233.366C449.727 231.511 446.731 229.607 443.805 227.658C442.342 226.683 440.878 225.709 439.413 224.697C438.695 224.193 437.968 223.7 437.261 223.183L436.189 222.42C435.835 222.162 435.482 221.904 435.137 221.634C434.971 221.511 434.774 221.387 434.589 221.288C433.513 220.735 432.401 220.797 432.117 221.432C431.822 222.08 432.461 223.049 433.537 223.602Z" fill="#7F7550"/>
<rect x="607.5" y="346.5" width="86" height="86" stroke="#7F7550" stroke-opacity="0.01"/>
<path d="M661.569 384.873C661.307 385.262 661.021 385.636 660.758 386.025L659.924 387.162C659.363 387.918 658.803 388.673 658.242 389.429C657.11 390.932 655.965 392.429 654.779 393.931C652.466 396.909 650.076 399.87 647.667 402.787C645.258 405.705 642.808 408.628 640.34 411.508C637.86 414.38 635.339 417.259 632.739 420.057C632.587 420.222 632.429 420.416 632.283 420.617C631.438 421.812 631.355 423 632.127 423.225C632.882 423.472 634.194 422.7 635.028 421.497C637.198 418.43 639.481 415.401 641.771 412.409C644.06 409.416 646.415 406.433 648.788 403.493C651.148 400.545 653.562 397.599 656.019 394.712C657.247 393.268 658.475 391.824 659.744 390.374C660.377 389.664 660.996 388.946 661.64 388.243L662.594 387.181C662.916 386.829 663.238 386.478 663.572 386.133C663.724 385.968 663.882 385.774 664.01 385.594C664.734 384.55 664.782 383.537 664.111 383.343C663.428 383.141 662.292 383.828 661.569 384.873Z" fill="#7F7550"/>
<path d="M629.537 395.602C629.938 395.802 630.321 396.025 630.722 396.224L631.889 396.87C632.663 397.305 633.438 397.739 634.212 398.174C635.751 399.054 637.281 399.947 638.814 400.877C641.855 402.685 644.87 404.565 647.834 406.468C650.799 408.369 653.766 410.309 656.683 412.269C659.59 414.242 662.5 416.251 665.313 418.341C665.479 418.463 665.676 418.587 665.883 418.7C667.112 419.35 668.413 419.301 668.742 418.569C669.094 417.851 668.381 416.729 667.142 416.091C663.987 414.423 660.886 412.648 657.826 410.863C654.766 409.078 651.723 407.233 648.73 405.366C645.727 403.511 642.731 401.607 639.805 399.658C638.342 398.683 636.878 397.709 635.413 396.697C634.695 396.193 633.968 395.7 633.261 395.183L632.189 394.42C631.835 394.162 631.482 393.904 631.137 393.634C630.971 393.511 630.774 393.387 630.589 393.288C629.513 392.735 628.401 392.797 628.117 393.432C627.822 394.08 628.461 395.049 629.537 395.602Z" fill="#7F7550"/>
<path d="M653.645 357.82L652.443 404.48C652.416 405.3 653.02 405.962 653.786 406.022C654.554 406.052 655.201 405.438 655.258 404.588L657.199 357.957L657.2 357.926C657.235 356.893 656.439 356.011 655.471 356.004C654.477 355.935 653.68 356.787 653.645 357.82Z" fill="#7F7550"/>
<path fill-rule="evenodd" clip-rule="evenodd" d="M637.176 358L673.11 359.886L671.934 382.292L636 380.406L636.793 365.293L638.033 364.377L636.769 363.49L639.372 362.606L637.021 360.959L637.176 358Z" fill="#7F7550"/>
<path d="M655.48 372.328C655.48 371.98 655.402 371.674 655.246 371.41C655.09 371.134 654.82 370.906 654.436 370.726C654.052 370.546 653.536 370.408 652.888 370.312C652.24 370.216 651.424 370.168 650.44 370.168C650.572 369.052 650.68 367.918 650.764 366.766C650.848 365.614 650.914 364.534 650.962 363.526H657.712V365.776H653.212C653.188 366.208 653.158 366.628 653.122 367.036C653.098 367.432 653.068 367.78 653.032 368.08C654.784 368.2 656.074 368.614 656.902 369.322C657.742 370.018 658.162 370.99 658.162 372.238C658.162 372.814 658.06 373.348 657.856 373.84C657.652 374.332 657.346 374.758 656.938 375.118C656.53 375.478 656.014 375.76 655.39 375.964C654.778 376.168 654.058 376.27 653.23 376.27C652.906 376.27 652.564 376.246 652.204 376.198C651.856 376.162 651.514 376.108 651.178 376.036C650.854 375.976 650.56 375.91 650.296 375.838C650.032 375.766 649.828 375.694 649.684 375.622L650.17 373.408C650.47 373.54 650.866 373.672 651.358 373.804C651.85 373.924 652.438 373.984 653.122 373.984C653.95 373.984 654.55 373.822 654.922 373.498C655.294 373.162 655.48 372.772 655.48 372.328Z" fill="#D7C99C"/>
<path d="M629.645 106.82L628.443 153.48C628.416 154.3 629.02 154.962 629.786 155.022C630.554 155.052 631.201 154.438 631.258 153.588L633.199 106.957L633.2 106.926C633.235 105.893 632.439 105.011 631.471 105.004C630.477 104.935 629.68 105.787 629.645 106.82Z" fill="#7F7550"/>
<path fill-rule="evenodd" clip-rule="evenodd" d="M613.176 107L649.11 108.886L647.934 131.292L612 129.406L612.793 114.293L614.033 113.377L612.769 112.49L615.372 111.606L613.021 109.959L613.176 107Z" fill="#7F7550"/>
<path d="M630.742 115.802C630.274 116.414 629.776 117.08 629.248 117.8C628.72 118.52 628.276 119.258 627.916 120.014H630.742V115.802ZM633.37 112.526V120.014H634.702V122.21H633.37V125H630.742V122.21H625.36V120.248C625.624 119.72 625.954 119.126 626.35 118.466C626.746 117.794 627.184 117.11 627.664 116.414C628.156 115.706 628.672 115.016 629.212 114.344C629.752 113.672 630.292 113.066 630.832 112.526H633.37Z" fill="#D7C99C"/>
<path d="M646.833 151.875C646.434 152.153 646.019 152.405 645.621 152.683L644.393 153.464C643.572 153.981 642.751 154.498 641.93 155.014C640.28 156.034 638.622 157.041 636.924 158.035C633.593 160.022 630.198 161.957 626.804 163.838C623.411 165.72 619.977 167.589 616.545 169.404C613.105 171.206 609.624 172.996 606.106 174.666C605.9 174.765 605.676 174.891 605.46 175.031C604.199 175.867 603.637 177.047 604.248 177.634C604.835 178.236 606.348 178.05 607.602 177.201C610.84 175.055 614.164 173.002 617.48 170.988C620.796 168.975 624.167 167 627.537 165.079C630.899 163.145 634.309 161.237 637.734 159.408C639.447 158.494 641.159 157.579 642.911 156.678C643.779 156.24 644.639 155.79 645.515 155.365L646.821 154.716C647.258 154.504 647.696 154.292 648.142 154.093C648.349 153.994 648.572 153.868 648.763 153.742C649.851 153.005 650.311 151.988 649.778 151.479C649.238 150.957 647.92 151.137 646.833 151.875Z" fill="#7F7550"/>
<path d="M613.218 148.099C613.503 148.489 613.76 148.894 614.044 149.284L614.843 150.485C615.371 151.289 615.899 152.091 616.427 152.895C617.469 154.509 618.499 156.131 619.515 157.792C621.546 161.051 623.524 164.371 625.447 167.691C627.371 171.011 629.281 174.37 631.137 177.728C632.979 181.093 634.808 184.498 636.516 187.94C636.617 188.142 636.746 188.36 636.888 188.571C637.743 189.806 638.949 190.356 639.55 189.757C640.165 189.183 639.975 187.703 639.107 186.476C636.914 183.309 634.815 180.057 632.756 176.813C630.698 173.57 628.68 170.272 626.716 166.974C624.739 163.685 622.788 160.349 620.918 156.999C619.984 155.324 619.049 153.649 618.127 151.935C617.68 151.085 617.22 150.244 616.786 149.388L616.122 148.11C615.905 147.682 615.689 147.254 615.485 146.818C615.384 146.616 615.255 146.397 615.127 146.21C614.373 145.146 613.334 144.696 612.813 145.217C612.279 145.746 612.464 147.034 613.218 148.099Z" fill="#7F7550"/>
<rect x="584.5" y="104.5" width="86" height="86" stroke="#7F7550" stroke-opacity="0.01"/>
<rect x="750.5" y="431.5" width="86" height="86" stroke="#7F7550" stroke-opacity="0.01"/>
<path d="M812.833 476.875C812.434 477.153 812.019 477.405 811.621 477.683L810.393 478.464C809.572 478.981 808.751 479.498 807.93 480.014C806.28 481.034 804.622 482.041 802.924 483.035C799.593 485.022 796.198 486.957 792.804 488.838C789.411 490.72 785.977 492.589 782.545 494.404C779.105 496.206 775.624 497.996 772.106 499.666C771.9 499.765 771.676 499.891 771.46 500.031C770.199 500.867 769.637 502.047 770.248 502.634C770.835 503.236 772.348 503.05 773.602 502.201C776.84 500.055 780.164 498.002 783.48 495.988C786.796 493.975 790.167 492 793.537 490.079C796.899 488.145 800.309 486.237 803.734 484.408C805.447 483.494 807.159 482.579 808.911 481.678C809.779 481.24 810.639 480.79 811.515 480.365L812.821 479.716C813.258 479.504 813.696 479.292 814.142 479.093C814.349 478.994 814.572 478.868 814.763 478.742C815.851 478.005 816.311 476.988 815.778 476.479C815.238 475.957 813.92 476.137 812.833 476.875Z" fill="#7F7550"/>
<path d="M779.218 473.099C779.503 473.489 779.76 473.894 780.044 474.284L780.843 475.485C781.371 476.289 781.899 477.091 782.427 477.895C783.469 479.509 784.499 481.131 785.515 482.792C787.546 486.051 789.524 489.371 791.447 492.691C793.371 496.011 795.281 499.37 797.137 502.728C798.979 506.093 800.808 509.498 802.516 512.94C802.617 513.142 802.746 513.36 802.888 513.571C803.743 514.806 804.949 515.356 805.55 514.757C806.165 514.183 805.975 512.703 805.107 511.476C802.914 508.309 800.815 505.057 798.756 501.813C796.698 498.57 794.68 495.272 792.716 491.974C790.739 488.685 788.788 485.349 786.918 481.999C785.984 480.324 785.049 478.649 784.127 476.935C783.68 476.085 783.22 475.244 782.786 474.388L782.122 473.11C781.905 472.682 781.689 472.254 781.485 471.818C781.384 471.616 781.255 471.397 781.127 471.21C780.373 470.146 779.334 469.696 778.813 470.217C778.279 470.746 778.464 472.034 779.218 473.099Z" fill="#7F7550"/>
<path d="M793.645 434.82L792.443 481.48C792.416 482.3 793.02 482.962 793.786 483.022C794.554 483.052 795.201 482.438 795.258 481.588L797.199 434.957L797.2 434.926C797.235 433.893 796.439 433.011 795.471 433.004C794.477 432.935 793.68 433.787 793.645 434.82Z" fill="#7F7550"/>
<path fill-rule="evenodd" clip-rule="evenodd" d="M777.176 435L813.11 436.886L811.934 459.292L776 457.406L776.793 442.293L778.033 441.377L776.769 440.49L779.372 439.606L777.021 437.959L777.176 435Z" fill="#7F7550"/>
<path d="M793.932 447.132C793.668 447.132 793.386 447.156 793.086 447.204C792.786 447.252 792.552 447.318 792.384 447.402C792.384 447.45 792.378 447.522 792.366 447.618C792.366 447.714 792.366 447.798 792.366 447.87C792.366 448.302 792.396 448.71 792.456 449.094C792.516 449.478 792.618 449.814 792.762 450.102C792.906 450.39 793.098 450.618 793.338 450.786C793.578 450.942 793.878 451.02 794.238 451.02C794.538 451.02 794.79 450.96 794.994 450.84C795.21 450.708 795.384 450.546 795.516 450.354C795.66 450.162 795.762 449.952 795.822 449.724C795.894 449.484 795.93 449.256 795.93 449.04C795.93 448.428 795.774 447.96 795.462 447.636C795.162 447.3 794.652 447.132 793.932 447.132ZM794.274 445.044C795.054 445.044 795.714 445.152 796.254 445.368C796.806 445.572 797.256 445.854 797.604 446.214C797.952 446.574 798.204 446.994 798.36 447.474C798.516 447.954 798.594 448.464 798.594 449.004C798.594 449.484 798.504 449.976 798.324 450.48C798.156 450.984 797.892 451.44 797.532 451.848C797.184 452.256 796.734 452.592 796.182 452.856C795.642 453.12 795 453.252 794.256 453.252C792.756 453.252 791.616 452.778 790.836 451.83C790.056 450.882 789.666 449.574 789.666 447.906C789.666 446.706 789.852 445.644 790.224 444.72C790.596 443.796 791.124 443.022 791.808 442.398C792.504 441.762 793.338 441.282 794.31 440.958C795.294 440.622 796.398 440.448 797.622 440.436C797.646 440.808 797.67 441.174 797.694 441.534C797.718 441.882 797.742 442.248 797.766 442.632C797.154 442.644 796.578 442.704 796.038 442.812C795.51 442.908 795.024 443.064 794.58 443.28C794.148 443.496 793.77 443.778 793.446 444.126C793.122 444.462 792.87 444.876 792.69 445.368C792.954 445.248 793.224 445.164 793.5 445.116C793.776 445.068 794.034 445.044 794.274 445.044Z" fill="#D7C99C"/>
<rect x="897.5" y="296.5" width="86" height="86" stroke="#7F7550" stroke-opacity="0.01"/>
<path d="M939.645 299.82L938.443 346.48C938.416 347.3 939.02 347.962 939.786 348.022C940.554 348.052 941.201 347.438 941.258 346.588L943.199 299.957L943.2 299.926C943.235 298.893 942.439 298.011 941.471 298.004C940.477 297.935 939.68 298.787 939.645 299.82Z" fill="#7F7550"/>
<path fill-rule="evenodd" clip-rule="evenodd" d="M923.176 300L959.11 301.886L957.934 324.292L922 322.406L922.793 307.293L924.033 306.377L922.769 305.49L925.372 304.606L923.021 302.959L923.176 300Z" fill="#7F7550"/>
<path d="M937.556 318C937.628 317.124 937.778 316.212 938.006 315.264C938.234 314.316 938.51 313.386 938.834 312.474C939.17 311.562 939.542 310.704 939.95 309.9C940.358 309.084 940.772 308.382 941.192 307.794H935.774V305.508H944.504V307.452C944.12 307.872 943.694 308.454 943.226 309.198C942.77 309.942 942.332 310.788 941.912 311.736C941.504 312.672 941.144 313.68 940.832 314.76C940.532 315.84 940.346 316.92 940.274 318H937.556Z" fill="#D7C99C"/>
<path d="M959.833 342.875C959.434 343.153 959.019 343.405 958.621 343.683L957.393 344.464C956.572 344.981 955.751 345.498 954.93 346.014C953.28 347.034 951.622 348.041 949.924 349.035C946.593 351.022 943.198 352.957 939.804 354.838C936.411 356.72 932.977 358.589 929.545 360.404C926.105 362.206 922.624 363.996 919.106 365.666C918.9 365.765 918.676 365.891 918.46 366.031C917.199 366.867 916.637 368.047 917.248 368.634C917.835 369.236 919.348 369.05 920.602 368.201C923.84 366.055 927.164 364.002 930.48 361.988C933.796 359.975 937.167 358 940.537 356.079C943.899 354.145 947.309 352.237 950.734 350.408C952.447 349.494 954.159 348.579 955.911 347.678C956.779 347.24 957.639 346.79 958.515 346.365L959.821 345.716C960.258 345.504 960.696 345.292 961.142 345.093C961.349 344.994 961.572 344.868 961.763 344.742C962.851 344.005 963.311 342.988 962.778 342.479C962.238 341.957 960.92 342.137 959.833 342.875Z" fill="#7F7550"/>
<path d="M926.218 339.099C926.503 339.489 926.76 339.894 927.044 340.284L927.843 341.485C928.371 342.289 928.899 343.091 929.427 343.895C930.469 345.509 931.499 347.131 932.515 348.792C934.546 352.051 936.524 355.371 938.447 358.691C940.371 362.011 942.281 365.37 944.137 368.728C945.979 372.093 947.808 375.498 949.516 378.94C949.617 379.142 949.746 379.36 949.888 379.571C950.743 380.806 951.949 381.356 952.55 380.757C953.165 380.183 952.975 378.703 952.107 377.476C949.914 374.309 947.815 371.057 945.756 367.813C943.698 364.57 941.68 361.272 939.716 357.974C937.739 354.685 935.788 351.349 933.918 347.999C932.984 346.324 932.049 344.649 931.127 342.935C930.68 342.085 930.22 341.244 929.786 340.388L929.122 339.11C928.905 338.682 928.689 338.254 928.485 337.818C928.384 337.616 928.255 337.397 928.127 337.21C927.373 336.146 926.334 335.696 925.813 336.217C925.279 336.746 925.464 338.034 926.218 339.099Z" fill="#7F7550"/>
</svg>
