<svg viewBox="0 0 1214 600" fill="none" xmlns="http://www.w3.org/2000/svg">
<g clip-path="url(#clip0)">
<path d="M212.833 154.287C212.434 154.565 212.019 154.816 211.621 155.094L210.393 155.876C209.572 156.393 208.751 156.909 207.93 157.426C206.28 158.445 204.622 159.452 202.924 160.447C199.593 162.434 196.198 164.368 192.804 166.25C189.411 168.131 185.977 170 182.545 171.816C179.105 173.618 175.624 175.408 172.106 177.078C171.9 177.177 171.676 177.303 171.46 177.442C170.199 178.278 169.637 179.458 170.248 180.046C170.835 180.647 172.348 180.462 173.602 179.613C176.84 177.467 180.164 175.414 183.48 173.4C186.796 171.387 190.167 169.412 193.537 167.491C196.899 165.557 200.309 163.648 203.734 161.82C205.447 160.905 207.159 159.991 208.911 159.089C209.779 158.652 210.639 158.201 211.515 157.777L212.821 157.128C213.258 156.915 213.696 156.704 214.142 156.504C214.349 156.406 214.572 156.279 214.763 156.154C215.851 155.416 216.311 154.4 215.778 153.891C215.238 153.368 213.92 153.549 212.833 154.287Z" fill="#7F7550"/>
<path d="M179.218 150.51C179.503 150.9 179.76 151.306 180.044 151.696L180.843 152.897C181.371 153.7 181.899 154.503 182.427 155.307C183.469 156.921 184.499 158.542 185.515 160.204C187.546 163.462 189.524 166.783 191.447 170.103C193.371 173.423 195.281 176.782 197.137 180.14C198.979 183.505 200.808 186.909 202.516 190.351C202.617 190.553 202.746 190.772 202.888 190.983C203.743 192.217 204.949 192.767 205.55 192.169C206.165 191.595 205.975 190.114 205.107 188.887C202.914 185.72 200.815 182.468 198.756 179.224C196.698 175.981 194.68 172.683 192.716 169.386C190.739 166.097 188.788 162.761 186.918 159.411C185.984 157.736 185.049 156.061 184.127 154.346C183.68 153.497 183.22 152.656 182.786 151.799L182.122 150.522C181.905 150.094 181.689 149.666 181.485 149.229C181.384 149.027 181.255 148.809 181.127 148.622C180.373 147.558 179.334 147.108 178.813 147.629C178.279 148.157 178.464 149.446 179.218 150.51Z" fill="#7F7550"/>
<path d="M191.645 111.232L190.443 157.891C190.416 158.712 191.02 159.374 191.786 159.434C192.554 159.464 193.201 158.85 193.258 158L195.199 111.369L195.2 111.338C195.235 110.305 194.439 109.422 193.471 109.415C192.477 109.347 191.68 110.199 191.645 111.232Z" fill="#7F7550"/>
<path fill-rule="evenodd" clip-rule="evenodd" d="M175.176 111.412L211.11 113.297L209.934 135.703L174 133.818L174.793 118.704L176.033 117.789L174.769 116.901L177.372 116.018L175.021 114.371L175.176 111.412Z" fill="#7F7550"/>
<path d="M188.26 119.53C188.608 119.386 188.968 119.224 189.34 119.044C189.724 118.852 190.096 118.648 190.456 118.432C190.816 118.204 191.158 117.97 191.482 117.73C191.818 117.478 192.118 117.214 192.382 116.938H194.254V129.412H191.572V120.43C191.212 120.67 190.81 120.892 190.366 121.096C189.922 121.288 189.49 121.456 189.07 121.6L188.26 119.53Z" fill="#D7C99C"/>
<path d="M298.645 373.232L297.443 419.891C297.416 420.712 298.02 421.374 298.786 421.434C299.554 421.464 300.201 420.85 300.258 420L302.199 373.369L302.2 373.338C302.235 372.305 301.439 371.422 300.471 371.415C299.477 371.347 298.68 372.199 298.645 373.232Z" fill="#7F7550"/>
<path fill-rule="evenodd" clip-rule="evenodd" d="M282.176 373.412L318.11 375.297L316.934 397.703L281 395.818L281.793 380.704L283.033 379.789L281.769 378.901L284.372 378.018L282.021 376.371L282.176 373.412Z" fill="#7F7550"/>
<path d="M302.928 382.214C302.928 382.67 302.838 383.108 302.658 383.528C302.478 383.948 302.244 384.356 301.956 384.752C301.668 385.136 301.344 385.508 300.984 385.868C300.624 386.228 300.27 386.57 299.922 386.894C299.742 387.062 299.544 387.254 299.328 387.47C299.124 387.674 298.926 387.884 298.734 388.1C298.542 388.316 298.368 388.52 298.212 388.712C298.068 388.892 297.978 389.042 297.942 389.162H303.306V391.412H294.99C294.966 391.28 294.954 391.112 294.954 390.908C294.954 390.704 294.954 390.56 294.954 390.476C294.954 389.9 295.044 389.372 295.224 388.892C295.416 388.412 295.662 387.968 295.962 387.56C296.262 387.14 296.598 386.75 296.97 386.39C297.354 386.03 297.732 385.67 298.104 385.31C298.392 385.034 298.662 384.776 298.914 384.536C299.166 384.284 299.388 384.044 299.58 383.816C299.772 383.576 299.922 383.342 300.03 383.114C300.138 382.874 300.192 382.634 300.192 382.394C300.192 381.866 300.042 381.494 299.742 381.278C299.442 381.062 299.07 380.954 298.626 380.954C298.302 380.954 297.996 381.008 297.708 381.116C297.432 381.212 297.174 381.332 296.934 381.476C296.706 381.608 296.508 381.746 296.34 381.89C296.172 382.022 296.046 382.13 295.962 382.214L294.63 380.342C295.158 379.85 295.77 379.448 296.466 379.136C297.174 378.812 297.93 378.65 298.734 378.65C299.466 378.65 300.096 378.734 300.624 378.902C301.152 379.07 301.584 379.31 301.92 379.622C302.268 379.922 302.52 380.294 302.676 380.738C302.844 381.17 302.928 381.662 302.928 382.214Z" fill="#D7C99C"/>
<path d="M449.645 171.232L448.443 217.891C448.416 218.712 449.02 219.374 449.786 219.434C450.554 219.464 451.201 218.85 451.258 218L453.199 171.369L453.2 171.338C453.235 170.305 452.439 169.422 451.471 169.415C450.477 169.347 449.68 170.199 449.645 171.232Z" fill="#7F7550"/>
<path fill-rule="evenodd" clip-rule="evenodd" d="M433.176 171.412L469.11 173.297L467.934 195.703L432 193.818L432.793 178.704L434.033 177.789L432.769 176.901L435.372 176.018L433.021 174.371L433.176 171.412Z" fill="#7F7550"/>
<path d="M449.104 189.682C448.78 189.682 448.438 189.658 448.078 189.61C447.718 189.574 447.37 189.52 447.034 189.448C446.698 189.376 446.392 189.298 446.116 189.214C445.84 189.13 445.624 189.052 445.468 188.98L445.99 186.748C446.302 186.88 446.698 187.024 447.178 187.18C447.67 187.324 448.276 187.396 448.996 187.396C449.824 187.396 450.43 187.24 450.814 186.928C451.198 186.616 451.39 186.196 451.39 185.668C451.39 185.344 451.318 185.074 451.174 184.858C451.042 184.63 450.856 184.45 450.616 184.318C450.376 184.174 450.088 184.078 449.752 184.03C449.428 183.97 449.08 183.94 448.708 183.94H447.664V181.78H448.852C449.116 181.78 449.368 181.756 449.608 181.708C449.86 181.66 450.082 181.582 450.274 181.474C450.466 181.354 450.616 181.198 450.724 181.006C450.844 180.802 450.904 180.55 450.904 180.25C450.904 180.022 450.856 179.824 450.76 179.656C450.664 179.488 450.538 179.35 450.382 179.242C450.238 179.134 450.064 179.056 449.86 179.008C449.668 178.948 449.47 178.918 449.266 178.918C448.75 178.918 448.27 178.996 447.826 179.152C447.394 179.308 446.998 179.5 446.638 179.728L445.684 177.766C445.876 177.646 446.098 177.52 446.35 177.388C446.614 177.256 446.902 177.136 447.214 177.028C447.526 176.92 447.856 176.83 448.204 176.758C448.564 176.686 448.942 176.65 449.338 176.65C450.07 176.65 450.7 176.74 451.228 176.92C451.768 177.088 452.212 177.334 452.56 177.658C452.908 177.97 453.166 178.342 453.334 178.774C453.502 179.194 453.586 179.656 453.586 180.16C453.586 180.652 453.448 181.132 453.172 181.6C452.896 182.056 452.524 182.404 452.056 182.644C452.704 182.908 453.202 183.304 453.55 183.832C453.91 184.348 454.09 184.972 454.09 185.704C454.09 186.28 453.994 186.814 453.802 187.306C453.61 187.786 453.31 188.206 452.902 188.566C452.494 188.914 451.972 189.19 451.336 189.394C450.712 189.586 449.968 189.682 449.104 189.682Z" fill="#D7C99C"/>
<path d="M629.645 103.232L628.443 149.891C628.416 150.712 629.02 151.374 629.786 151.434C630.554 151.464 631.201 150.85 631.258 150L633.199 103.369L633.2 103.338C633.235 102.305 632.439 101.422 631.471 101.415C630.477 101.347 629.68 102.199 629.645 103.232Z" fill="#7F7550"/>
<path fill-rule="evenodd" clip-rule="evenodd" d="M613.176 103.412L649.11 105.297L647.934 127.703L612 125.818L612.793 110.704L614.033 109.789L612.769 108.901L615.372 108.018L613.021 106.371L613.176 103.412Z" fill="#7F7550"/>
<path d="M630.742 112.214C630.274 112.826 629.776 113.492 629.248 114.212C628.72 114.932 628.276 115.67 627.916 116.426H630.742V112.214ZM633.37 108.938V116.426H634.702V118.622H633.37V121.412H630.742V118.622H625.36V116.66C625.624 116.132 625.954 115.538 626.35 114.878C626.746 114.206 627.184 113.522 627.664 112.826C628.156 112.118 628.672 111.428 629.212 110.756C629.752 110.084 630.292 109.478 630.832 108.938H633.37Z" fill="#D7C99C"/>
<path d="M281.601 413.621C281.935 413.974 282.246 414.347 282.58 414.7L283.535 415.798C284.168 416.533 284.801 417.268 285.434 418.003C286.687 419.483 287.929 420.973 289.165 422.505C291.625 425.503 294.043 428.573 296.408 431.649C298.773 434.725 301.131 437.843 303.437 440.968C305.73 444.102 308.017 447.277 310.192 450.508C310.32 450.698 310.478 450.9 310.648 451.093C311.663 452.216 312.913 452.597 313.403 451.904C313.91 451.235 313.502 449.766 312.476 448.652C309.873 445.769 307.348 442.787 304.864 439.807C302.38 436.828 299.927 433.787 297.526 430.74C295.114 427.703 292.72 424.614 290.402 421.499C289.244 419.942 288.085 418.384 286.933 416.785C286.371 415.992 285.798 415.209 285.248 414.406L284.412 413.211C284.137 412.81 283.863 412.408 283.599 411.997C283.471 411.807 283.313 411.605 283.16 411.435C282.269 410.469 281.196 410.165 280.771 410.767C280.335 411.379 280.71 412.655 281.601 413.621Z" fill="#7F7550"/>
<path d="M282.862 447.424C283.206 447.085 283.568 446.77 283.912 446.431L284.981 445.463C285.697 444.821 286.412 444.179 287.128 443.538C288.57 442.267 290.02 441.008 291.512 439.756C294.433 437.263 297.423 434.814 300.42 432.418C303.417 430.023 306.454 427.635 309.499 425.301C312.554 422.979 315.648 420.664 318.798 418.464C318.983 418.333 319.18 418.173 319.367 418.001C320.461 416.973 320.826 415.698 320.145 415.193C319.485 414.67 318.05 415.078 316.966 416.119C314.16 418.758 311.256 421.318 308.354 423.835C305.452 426.352 302.491 428.839 299.522 431.271C296.564 433.715 293.555 436.14 290.519 438.486C289.002 439.659 287.484 440.832 285.926 441.999C285.153 442.567 284.389 443.148 283.607 443.704L282.442 444.55C282.051 444.828 281.66 445.106 281.259 445.372C281.074 445.502 280.877 445.662 280.711 445.817C279.771 446.721 279.48 447.815 280.073 448.252C280.675 448.702 281.922 448.327 282.862 447.424Z" fill="#7F7550"/>
<path d="M887.27 151.21C887.604 151.563 887.914 151.935 888.248 152.288L889.203 153.386C889.836 154.122 890.469 154.857 891.102 155.592C892.356 157.072 893.598 158.562 894.834 160.093C897.294 163.092 899.711 166.161 902.076 169.238C904.441 172.314 906.8 175.432 909.105 178.556C911.398 181.69 913.686 184.866 915.86 188.097C915.989 188.286 916.147 188.489 916.317 188.681C917.331 189.805 918.581 190.185 919.071 189.493C919.579 188.823 919.17 187.355 918.144 186.24C915.542 183.358 913.017 180.375 910.533 177.396C908.049 174.416 905.595 171.376 903.195 168.329C900.782 165.291 898.388 162.203 896.071 159.088C894.912 157.53 893.754 155.973 892.601 154.374C892.04 153.581 891.466 152.797 890.917 151.994L890.081 150.8C889.806 150.398 889.531 149.997 889.268 149.586C889.139 149.396 888.981 149.194 888.829 149.024C887.938 148.057 886.864 147.754 886.44 148.356C886.004 148.968 886.378 150.244 887.27 151.21Z" fill="#7F7550"/>
<path d="M888.531 185.012C888.874 184.673 889.237 184.359 889.58 184.02L890.649 183.051C891.365 182.409 892.081 181.768 892.797 181.126C894.238 179.856 895.689 178.597 897.181 177.345C900.101 174.852 903.091 172.402 906.088 170.007C909.085 167.612 912.123 165.224 915.168 162.889C918.222 160.567 921.317 158.252 924.467 156.052C924.652 155.922 924.848 155.762 925.036 155.59C926.13 154.561 926.494 153.287 925.813 152.782C925.154 152.259 923.718 152.667 922.634 153.708C919.828 156.347 916.924 158.906 914.022 161.424C911.121 163.941 908.16 166.427 905.191 168.859C902.232 171.303 899.223 173.728 896.188 176.075C894.67 177.248 893.153 178.421 891.594 179.587C890.821 180.156 890.058 180.736 889.275 181.292L888.11 182.139C887.719 182.417 887.328 182.695 886.927 182.961C886.742 183.091 886.545 183.251 886.38 183.405C885.439 184.309 885.149 185.404 885.741 185.841C886.343 186.29 887.59 185.916 888.531 185.012Z" fill="#7F7550"/>
<path d="M904.645 111.232L903.443 157.891C903.416 158.712 904.02 159.374 904.786 159.434C905.554 159.464 906.201 158.85 906.258 158L908.199 111.369L908.2 111.338C908.235 110.305 907.439 109.422 906.471 109.415C905.477 109.347 904.68 110.199 904.645 111.232Z" fill="#7F7550"/>
<path fill-rule="evenodd" clip-rule="evenodd" d="M888.176 111.412L924.11 113.297L922.934 135.703L887 133.818L887.793 118.704L889.033 117.789L887.769 116.901L890.372 116.018L888.021 114.371L888.176 111.412Z" fill="#7F7550"/>
<path d="M909.54 125.938C909.54 126.478 909.444 126.976 909.252 127.432C909.072 127.876 908.796 128.266 908.424 128.602C908.052 128.938 907.584 129.202 907.02 129.394C906.468 129.574 905.826 129.664 905.094 129.664C904.254 129.664 903.552 129.55 902.988 129.322C902.436 129.082 901.986 128.788 901.638 128.44C901.302 128.092 901.062 127.714 900.918 127.306C900.774 126.886 900.702 126.502 900.702 126.154C900.702 125.794 900.75 125.464 900.846 125.164C900.942 124.864 901.074 124.594 901.242 124.354C901.41 124.102 901.596 123.874 901.8 123.67C902.016 123.466 902.244 123.274 902.484 123.094C901.968 122.674 901.584 122.26 901.332 121.852C901.092 121.444 900.972 120.922 900.972 120.286C900.972 119.806 901.068 119.344 901.26 118.9C901.464 118.456 901.746 118.072 902.106 117.748C902.466 117.412 902.898 117.148 903.402 116.956C903.918 116.752 904.488 116.65 905.112 116.65C905.844 116.65 906.468 116.758 906.984 116.974C907.512 117.178 907.944 117.442 908.28 117.766C908.616 118.09 908.856 118.456 909 118.864C909.156 119.26 909.234 119.656 909.234 120.052C909.234 120.628 909.078 121.168 908.766 121.672C908.466 122.164 908.088 122.554 907.632 122.842C908.316 123.286 908.802 123.754 909.09 124.246C909.39 124.726 909.54 125.29 909.54 125.938ZM903.312 126.046C903.312 126.19 903.342 126.352 903.402 126.532C903.474 126.7 903.582 126.856 903.726 127C903.87 127.144 904.056 127.264 904.284 127.36C904.512 127.456 904.788 127.504 905.112 127.504C905.736 127.504 906.192 127.354 906.48 127.054C906.768 126.754 906.912 126.418 906.912 126.046C906.912 125.77 906.846 125.524 906.714 125.308C906.594 125.092 906.426 124.906 906.21 124.75C905.994 124.582 905.736 124.438 905.436 124.318C905.148 124.186 904.836 124.066 904.5 123.958C904.164 124.21 903.882 124.504 903.654 124.84C903.426 125.176 903.312 125.578 903.312 126.046ZM906.642 120.124C906.642 119.992 906.612 119.854 906.552 119.71C906.504 119.554 906.414 119.41 906.282 119.278C906.162 119.146 906.006 119.038 905.814 118.954C905.622 118.858 905.388 118.81 905.112 118.81C904.848 118.81 904.62 118.852 904.428 118.936C904.236 119.02 904.074 119.134 903.942 119.278C903.822 119.41 903.732 119.554 903.672 119.71C903.612 119.866 903.582 120.016 903.582 120.16C903.582 120.544 903.72 120.904 903.996 121.24C904.284 121.576 904.77 121.864 905.454 122.104C905.838 121.864 906.132 121.588 906.336 121.276C906.54 120.964 906.642 120.58 906.642 120.124Z" fill="#D7C99C"/>
<path d="M465.569 209.284C465.307 209.673 465.021 210.047 464.758 210.436L463.924 211.573C463.363 212.329 462.803 213.085 462.242 213.84C461.11 215.344 459.965 216.84 458.779 218.343C456.466 221.32 454.076 224.281 451.667 227.199C449.258 230.116 446.808 233.04 444.34 235.92C441.86 238.792 439.339 241.671 436.739 244.468C436.587 244.633 436.429 244.827 436.283 245.029C435.438 246.224 435.355 247.411 436.127 247.636C436.882 247.883 438.194 247.112 439.028 245.909C441.198 242.842 443.481 239.813 445.771 236.82C448.06 233.828 450.414 230.844 452.788 227.904C455.148 224.957 457.562 222.011 460.019 219.123C461.247 217.68 462.475 216.236 463.744 214.786C464.377 214.075 464.996 213.357 465.64 212.654L466.594 211.592C466.916 211.241 467.238 210.889 467.572 210.545C467.724 210.38 467.882 210.186 468.01 210.006C468.734 208.962 468.782 207.949 468.111 207.755C467.428 207.553 466.292 208.24 465.569 209.284Z" fill="#7F7550"/>
<path d="M433.537 220.014C433.938 220.213 434.321 220.436 434.722 220.636L435.889 221.282C436.663 221.716 437.438 222.151 438.212 222.585C439.751 223.466 441.281 224.358 442.814 225.288C445.855 227.096 448.87 228.977 451.834 230.879C454.799 232.781 457.766 234.72 460.683 236.681C463.59 238.653 466.5 240.663 469.313 242.752C469.479 242.874 469.676 242.999 469.883 243.111C471.112 243.761 472.413 243.712 472.742 242.981C473.094 242.263 472.381 241.141 471.142 240.503C467.987 238.835 464.886 237.06 461.826 235.275C458.766 233.49 455.723 231.645 452.73 229.778C449.727 227.923 446.731 226.019 443.805 224.069C442.342 223.095 440.878 222.121 439.413 221.109C438.695 220.604 437.968 220.111 437.261 219.595L436.189 218.832C435.835 218.574 435.482 218.315 435.137 218.045C434.971 217.923 434.774 217.799 434.589 217.7C433.513 217.146 432.401 217.208 432.117 217.844C431.822 218.491 432.461 219.46 433.537 220.014Z" fill="#7F7550"/>
<path d="M661.569 381.284C661.307 381.673 661.021 382.047 660.758 382.436L659.924 383.573C659.363 384.329 658.803 385.085 658.242 385.84C657.11 387.344 655.965 388.84 654.779 390.343C652.466 393.32 650.076 396.281 647.667 399.199C645.258 402.116 642.808 405.04 640.34 407.92C637.86 410.792 635.339 413.671 632.739 416.468C632.587 416.633 632.429 416.827 632.283 417.029C631.438 418.224 631.355 419.411 632.127 419.636C632.882 419.883 634.194 419.112 635.028 417.909C637.198 414.842 639.481 411.813 641.771 408.82C644.06 405.828 646.414 402.844 648.788 399.904C651.148 396.957 653.562 394.011 656.019 391.123C657.247 389.68 658.475 388.236 659.744 386.786C660.377 386.075 660.996 385.357 661.64 384.654L662.594 383.592C662.916 383.241 663.238 382.889 663.572 382.545C663.724 382.38 663.882 382.186 664.01 382.006C664.734 380.962 664.782 379.949 664.111 379.755C663.428 379.553 662.292 380.24 661.569 381.284Z" fill="#7F7550"/>
<path d="M629.537 392.014C629.938 392.213 630.321 392.436 630.722 392.636L631.889 393.282C632.663 393.716 633.438 394.151 634.212 394.585C635.751 395.466 637.281 396.358 638.814 397.288C641.855 399.096 644.87 400.977 647.834 402.879C650.799 404.781 653.766 406.72 656.683 408.681C659.59 410.653 662.5 412.663 665.313 414.752C665.479 414.874 665.676 414.999 665.883 415.111C667.112 415.761 668.413 415.712 668.742 414.981C669.094 414.263 668.381 413.141 667.142 412.503C663.987 410.835 660.886 409.06 657.826 407.275C654.766 405.49 651.723 403.645 648.73 401.778C645.727 399.923 642.731 398.019 639.805 396.069C638.342 395.095 636.878 394.121 635.413 393.109C634.695 392.604 633.968 392.111 633.261 391.595L632.189 390.832C631.835 390.574 631.482 390.315 631.137 390.045C630.971 389.923 630.774 389.799 630.589 389.7C629.513 389.146 628.401 389.208 628.117 389.844C627.822 390.491 628.461 391.46 629.537 392.014Z" fill="#7F7550"/>
<path d="M653.645 354.232L652.443 400.891C652.416 401.712 653.02 402.374 653.786 402.434C654.554 402.464 655.201 401.85 655.258 401L657.199 354.369L657.2 354.338C657.235 353.305 656.439 352.422 655.471 352.415C654.477 352.347 653.68 353.199 653.645 354.232Z" fill="#7F7550"/>
<path fill-rule="evenodd" clip-rule="evenodd" d="M637.176 354.412L673.11 356.297L671.934 378.703L636 376.818L636.793 361.704L638.033 360.789L636.769 359.901L639.372 359.018L637.021 357.371L637.176 354.412Z" fill="#7F7550"/>
<path d="M655.48 368.74C655.48 368.392 655.402 368.086 655.246 367.822C655.09 367.546 654.82 367.318 654.436 367.138C654.052 366.958 653.536 366.82 652.888 366.724C652.24 366.628 651.424 366.58 650.44 366.58C650.572 365.464 650.68 364.33 650.764 363.178C650.848 362.026 650.914 360.946 650.962 359.938H657.712V362.188H653.212C653.188 362.62 653.158 363.04 653.122 363.448C653.098 363.844 653.068 364.192 653.032 364.492C654.784 364.612 656.074 365.026 656.902 365.734C657.742 366.43 658.162 367.402 658.162 368.65C658.162 369.226 658.06 369.76 657.856 370.252C657.652 370.744 657.346 371.17 656.938 371.53C656.53 371.89 656.014 372.172 655.39 372.376C654.778 372.58 654.058 372.682 653.23 372.682C652.906 372.682 652.564 372.658 652.204 372.61C651.856 372.574 651.514 372.52 651.178 372.448C650.854 372.388 650.56 372.322 650.296 372.25C650.032 372.178 649.828 372.106 649.684 372.034L650.17 369.82C650.47 369.952 650.866 370.084 651.358 370.216C651.85 370.336 652.438 370.396 653.122 370.396C653.95 370.396 654.55 370.234 654.922 369.91C655.294 369.574 655.48 369.184 655.48 368.74Z" fill="#D7C99C"/>
<path d="M646.833 148.287C646.434 148.565 646.019 148.816 645.621 149.094L644.393 149.876C643.572 150.393 642.751 150.909 641.93 151.426C640.28 152.445 638.622 153.452 636.924 154.447C633.593 156.434 630.198 158.368 626.804 160.25C623.411 162.131 619.977 164 616.545 165.816C613.105 167.618 609.624 169.408 606.106 171.078C605.9 171.177 605.676 171.303 605.46 171.442C604.199 172.278 603.637 173.458 604.248 174.046C604.835 174.647 606.348 174.462 607.602 173.613C610.84 171.467 614.164 169.414 617.48 167.4C620.796 165.387 624.167 163.412 627.537 161.491C630.899 159.557 634.309 157.648 637.734 155.82C639.447 154.905 641.159 153.991 642.911 153.089C643.779 152.652 644.639 152.201 645.515 151.777L646.821 151.128C647.258 150.915 647.696 150.704 648.142 150.504C648.349 150.406 648.572 150.279 648.763 150.154C649.851 149.416 650.311 148.4 649.778 147.891C649.238 147.368 647.92 147.549 646.833 148.287Z" fill="#7F7550"/>
<path d="M613.218 144.51C613.503 144.9 613.76 145.306 614.044 145.696L614.843 146.897C615.371 147.7 615.899 148.503 616.427 149.307C617.469 150.921 618.499 152.542 619.515 154.204C621.546 157.462 623.524 160.783 625.447 164.103C627.371 167.423 629.281 170.782 631.137 174.14C632.979 177.505 634.808 180.909 636.516 184.351C636.617 184.553 636.746 184.772 636.888 184.983C637.743 186.217 638.949 186.767 639.55 186.169C640.165 185.595 639.975 184.114 639.107 182.887C636.914 179.72 634.815 176.468 632.756 173.224C630.698 169.981 628.68 166.683 626.716 163.386C624.739 160.097 622.788 156.761 620.918 153.411C619.984 151.736 619.049 150.061 618.127 148.346C617.68 147.497 617.22 146.656 616.786 145.799L616.122 144.522C615.905 144.094 615.689 143.666 615.485 143.229C615.384 143.027 615.255 142.809 615.127 142.622C614.373 141.558 613.334 141.108 612.813 141.629C612.279 142.157 612.464 143.446 613.218 144.51Z" fill="#7F7550"/>
<path d="M812.833 473.287C812.434 473.565 812.019 473.816 811.621 474.094L810.393 474.876C809.572 475.393 808.751 475.909 807.93 476.426C806.28 477.445 804.622 478.452 802.924 479.447C799.593 481.434 796.198 483.368 792.804 485.25C789.411 487.131 785.977 489 782.545 490.816C779.105 492.618 775.624 494.408 772.106 496.078C771.9 496.177 771.676 496.303 771.46 496.442C770.199 497.278 769.637 498.458 770.248 499.046C770.835 499.647 772.348 499.462 773.602 498.613C776.84 496.467 780.164 494.414 783.48 492.4C786.796 490.387 790.167 488.412 793.537 486.491C796.899 484.557 800.309 482.648 803.734 480.82C805.447 479.905 807.159 478.991 808.911 478.089C809.779 477.652 810.639 477.201 811.515 476.777L812.821 476.128C813.258 475.915 813.696 475.704 814.142 475.504C814.349 475.406 814.572 475.279 814.763 475.154C815.851 474.416 816.311 473.4 815.778 472.891C815.238 472.368 813.92 472.549 812.833 473.287Z" fill="#7F7550"/>
<path d="M779.218 469.51C779.503 469.9 779.76 470.306 780.044 470.696L780.843 471.897C781.371 472.7 781.899 473.503 782.427 474.307C783.469 475.921 784.499 477.542 785.515 479.204C787.546 482.462 789.524 485.783 791.447 489.103C793.371 492.423 795.281 495.782 797.137 499.14C798.979 502.505 800.808 505.909 802.516 509.351C802.617 509.553 802.746 509.772 802.888 509.983C803.743 511.217 804.949 511.767 805.55 511.169C806.165 510.595 805.975 509.114 805.107 507.887C802.914 504.72 800.815 501.468 798.756 498.224C796.698 494.981 794.68 491.683 792.716 488.386C790.739 485.097 788.788 481.761 786.918 478.411C785.984 476.736 785.049 475.061 784.127 473.346C783.68 472.497 783.22 471.656 782.786 470.799L782.122 469.522C781.905 469.094 781.689 468.666 781.485 468.229C781.384 468.027 781.255 467.809 781.127 467.622C780.373 466.558 779.334 466.108 778.813 466.629C778.279 467.157 778.464 468.446 779.218 469.51Z" fill="#7F7550"/>
<path d="M793.645 431.232L792.443 477.891C792.416 478.712 793.02 479.374 793.786 479.434C794.554 479.464 795.201 478.85 795.258 478L797.199 431.369L797.2 431.338C797.235 430.305 796.439 429.422 795.471 429.415C794.477 429.347 793.68 430.199 793.645 431.232Z" fill="#7F7550"/>
<path fill-rule="evenodd" clip-rule="evenodd" d="M777.176 431.412L813.11 433.297L811.934 455.703L776 453.818L776.793 438.704L778.033 437.789L776.769 436.901L779.372 436.018L777.021 434.371L777.176 431.412Z" fill="#7F7550"/>
<path d="M793.932 443.544C793.668 443.544 793.386 443.568 793.086 443.616C792.786 443.664 792.552 443.73 792.384 443.814C792.384 443.862 792.378 443.934 792.366 444.03C792.366 444.126 792.366 444.21 792.366 444.282C792.366 444.714 792.396 445.122 792.456 445.506C792.516 445.89 792.618 446.226 792.762 446.514C792.906 446.802 793.098 447.03 793.338 447.198C793.578 447.354 793.878 447.432 794.238 447.432C794.538 447.432 794.79 447.372 794.994 447.252C795.21 447.12 795.384 446.958 795.516 446.766C795.66 446.574 795.762 446.364 795.822 446.136C795.894 445.896 795.93 445.668 795.93 445.452C795.93 444.84 795.774 444.372 795.462 444.048C795.162 443.712 794.652 443.544 793.932 443.544ZM794.274 441.456C795.054 441.456 795.714 441.564 796.254 441.78C796.806 441.984 797.256 442.266 797.604 442.626C797.952 442.986 798.204 443.406 798.36 443.886C798.516 444.366 798.594 444.876 798.594 445.416C798.594 445.896 798.504 446.388 798.324 446.892C798.156 447.396 797.892 447.852 797.532 448.26C797.184 448.668 796.734 449.004 796.182 449.268C795.642 449.532 795 449.664 794.256 449.664C792.756 449.664 791.616 449.19 790.836 448.242C790.056 447.294 789.666 445.986 789.666 444.318C789.666 443.118 789.852 442.056 790.224 441.132C790.596 440.208 791.124 439.434 791.808 438.81C792.504 438.174 793.338 437.694 794.31 437.37C795.294 437.034 796.398 436.86 797.622 436.848C797.646 437.22 797.67 437.586 797.694 437.946C797.718 438.294 797.742 438.66 797.766 439.044C797.154 439.056 796.578 439.116 796.038 439.224C795.51 439.32 795.024 439.476 794.58 439.692C794.148 439.908 793.77 440.19 793.446 440.538C793.122 440.874 792.87 441.288 792.69 441.78C792.954 441.66 793.224 441.576 793.5 441.528C793.776 441.48 794.034 441.456 794.274 441.456Z" fill="#D7C99C"/>
<path d="M939.645 296.232L938.443 342.891C938.416 343.712 939.02 344.374 939.786 344.434C940.554 344.464 941.201 343.85 941.258 343L943.199 296.369L943.2 296.338C943.235 295.305 942.439 294.422 941.471 294.415C940.477 294.347 939.68 295.199 939.645 296.232Z" fill="#7F7550"/>
<path fill-rule="evenodd" clip-rule="evenodd" d="M923.176 296.412L959.11 298.297L957.934 320.703L922 318.818L922.793 303.704L924.033 302.789L922.769 301.901L925.372 301.018L923.021 299.371L923.176 296.412Z" fill="#7F7550"/>
<path d="M937.556 314.412C937.628 313.536 937.778 312.624 938.006 311.676C938.234 310.728 938.51 309.798 938.834 308.886C939.17 307.974 939.542 307.116 939.95 306.312C940.358 305.496 940.772 304.794 941.192 304.206H935.774V301.92H944.504V303.864C944.12 304.284 943.694 304.866 943.226 305.61C942.77 306.354 942.332 307.2 941.912 308.148C941.504 309.084 941.144 310.092 940.832 311.172C940.532 312.252 940.346 313.332 940.274 314.412H937.556Z" fill="#D7C99C"/>
<path d="M959.833 339.287C959.434 339.565 959.019 339.816 958.621 340.094L957.393 340.876C956.572 341.393 955.751 341.909 954.93 342.426C953.28 343.445 951.622 344.452 949.924 345.447C946.593 347.434 943.198 349.368 939.804 351.25C936.411 353.131 932.977 355 929.545 356.816C926.105 358.618 922.624 360.408 919.106 362.078C918.9 362.177 918.676 362.303 918.46 362.442C917.199 363.278 916.637 364.458 917.248 365.046C917.835 365.647 919.348 365.462 920.602 364.613C923.84 362.467 927.164 360.414 930.48 358.4C933.796 356.387 937.167 354.412 940.537 352.491C943.899 350.557 947.309 348.648 950.734 346.82C952.447 345.905 954.159 344.991 955.911 344.089C956.779 343.652 957.639 343.201 958.515 342.777L959.821 342.128C960.258 341.915 960.696 341.704 961.142 341.504C961.349 341.406 961.572 341.279 961.763 341.154C962.851 340.416 963.311 339.4 962.778 338.891C962.238 338.368 960.92 338.549 959.833 339.287Z" fill="#7F7550"/>
<path d="M926.218 335.51C926.503 335.9 926.76 336.306 927.044 336.696L927.843 337.897C928.371 338.7 928.899 339.503 929.427 340.307C930.469 341.921 931.499 343.542 932.515 345.204C934.546 348.462 936.524 351.783 938.447 355.103C940.371 358.423 942.281 361.782 944.137 365.14C945.979 368.505 947.808 371.909 949.516 375.351C949.617 375.553 949.746 375.772 949.888 375.983C950.743 377.217 951.949 377.767 952.55 377.169C953.165 376.595 952.975 375.114 952.107 373.887C949.914 370.72 947.815 367.468 945.756 364.224C943.698 360.981 941.68 357.683 939.716 354.386C937.739 351.097 935.788 347.761 933.918 344.411C932.984 342.736 932.049 341.061 931.127 339.346C930.68 338.497 930.22 337.656 929.786 336.799L929.122 335.522C928.905 335.094 928.689 334.666 928.485 334.229C928.384 334.027 928.255 333.809 928.127 333.622C927.373 332.558 926.334 332.108 925.813 332.629C925.279 333.157 925.464 334.446 926.218 335.51Z" fill="#7F7550"/>
</g>
<defs>
<clipPath id="clip0">
<rect width="1214" height="600" fill="white"/>
</clipPath>
</defs>
</svg>
