<svg width="640" height="32" viewBox="0 0 640 32" fill="none" xmlns="http://www.w3.org/2000/svg">
<g clip-path="url(#clip0)">
<path fill-rule="evenodd" clip-rule="evenodd" d="M640 0V15.141C610.857 20.5367 581.256 24.9892 550.34 27.9696C424.755 40.0764 372.403 -6.26061 259.37 1.95549C192.237 6.83486 73.9245 28.3663 0 10.0301V0H640Z" fill="white"/>
<path fill-rule="evenodd" clip-rule="evenodd" d="M402.131 17.3005C444.459 26.4438 488.601 34.897 550.513 28.7593L550.415 27.7642C488.658 33.8864 444.638 25.4595 402.342 16.3231C399.695 15.7511 397.053 15.1764 394.415 14.6022C354.901 6.00303 315.999 -2.46284 264.593 0.663879C262.895 0.767199 261.182 0.883173 259.456 1.01221C243.427 2.21021 224.486 4.38342 203.943 6.74041C202.96 6.85316 201.973 6.96632 200.984 7.07982C179.296 9.56661 155.911 12.2145 132.315 14.1165C85.3676 17.9009 37.6471 18.7263 0.852587 9.48288C0.650468 9.4321 0.201526 9.31815 6.86646e-05 9.26676V10.2986C37.049 19.7485 85.1803 18.9193 132.395 15.1133C156.01 13.2097 179.411 10.56 201.098 8.07331C202.084 7.96019 203.067 7.84741 204.046 7.73505C224.599 5.37702 243.522 3.2059 259.53 2.00943C261.252 1.88074 262.96 1.76507 264.654 1.66203C315.918 -1.45606 354.698 6.98285 394.218 15.5828C396.851 16.1558 399.488 16.7295 402.131 17.3005Z" fill="#D2D2D2"/>
</g>
<defs>
<clipPath id="clip0">
<rect width="640" height="32" fill="white"/>
</clipPath>
</defs>
</svg>
