<svg width="147" height="147" viewBox="0 0 147 147" fill="none" xmlns="http://www.w3.org/2000/svg">
<path d="M73.5004 24.9506C46.7203 24.9506 24.9454 46.7304 24.9454 73.5164C24.9454 100.303 46.7203 122.082 73.5004 122.082C100.28 122.082 122.055 100.303 122.055 73.5164C122.055 46.7304 100.28 24.9506 73.5004 24.9506ZM73.5004 119.417C48.1825 119.417 27.578 98.8071 27.578 73.4841C27.578 48.1605 48.1825 27.5508 73.5004 27.5508C98.8177 27.5508 119.423 48.1605 119.423 73.4841C119.423 98.8394 98.8177 119.417 73.5004 119.417Z" fill="#C6B889"/>
<path fill-rule="evenodd" clip-rule="evenodd" d="M73.5004 25.9506C47.2728 25.9506 25.9454 47.2824 25.9454 73.5164C25.9454 99.7504 47.2728 121.082 73.5004 121.082C99.7279 121.082 121.055 99.7504 121.055 73.5164C121.055 47.2824 99.7279 25.9506 73.5004 25.9506ZM73.5004 120.417C47.63 120.417 26.578 99.3592 26.578 73.4841C26.578 47.6085 47.63 26.5508 73.5004 26.5508C99.3702 26.5508 120.423 47.6085 120.423 73.4841C120.423 99.392 99.3697 120.417 73.5004 120.417ZM24.9454 73.5164C24.9454 46.7304 46.7203 24.9506 73.5004 24.9506C100.28 24.9506 122.055 46.7304 122.055 73.5164C122.055 100.303 100.28 122.082 73.5004 122.082C46.7203 122.082 24.9454 100.303 24.9454 73.5164ZM27.578 73.4841C27.578 98.8071 48.1825 119.417 73.5004 119.417C98.8177 119.417 119.423 98.8394 119.423 73.4841C119.423 48.1605 98.8177 27.5508 73.5004 27.5508C48.1825 27.5508 27.578 48.1605 27.578 73.4841Z" fill="#524A2D"/>
<path d="M81.2352 73.5166L116.627 30.3792L73.5001 73.5166H81.2352Z" fill="#524A2D"/>
<path fill-rule="evenodd" clip-rule="evenodd" d="M116.627 30.3792L73.5001 73.5166H81.2352L116.627 30.3792ZM102.945 45.4787L80.7622 72.5166H75.9139L102.945 45.4787Z" fill="#524A2D"/>
<path d="M73.5001 73.5166L116.627 30.3792L73.5001 65.7797V73.5166Z" fill="#C6B889"/>
<path fill-rule="evenodd" clip-rule="evenodd" d="M116.627 30.3792L73.5001 65.7797V73.5166L116.627 30.3792ZM101.532 44.0641L74.5001 66.2526V71.102L101.532 44.0641Z" fill="#524A2D"/>
<path d="M73.5002 73.5166V65.7797L30.3724 30.3792L73.5002 73.5166Z" fill="#524A2D"/>
<path fill-rule="evenodd" clip-rule="evenodd" d="M72.5002 66.2526L45.4683 44.0641L72.5002 71.102V66.2526ZM73.5002 65.7797L30.3724 30.3792L73.5002 73.5166V65.7797Z" fill="#524A2D"/>
<path d="M65.7651 73.5166H73.5002L30.3724 30.3792L65.7651 73.5166Z" fill="#C6B889"/>
<path fill-rule="evenodd" clip-rule="evenodd" d="M73.5002 73.5166L30.3724 30.3792L65.7651 73.5166H73.5002ZM44.0546 45.4788L66.2381 72.5166H71.0864L44.0546 45.4788Z" fill="#524A2D"/>
<path d="M30.3724 116.653L73.5002 73.5164H65.7651L30.3724 116.653Z" fill="#524A2D"/>
<path fill-rule="evenodd" clip-rule="evenodd" d="M73.5002 73.5164H65.7651L30.3724 116.653L73.5002 73.5164ZM71.0864 74.5164H66.2381L44.0547 101.554L71.0864 74.5164Z" fill="#524A2D"/>
<path d="M73.5002 81.2204V73.5164L30.3724 116.653L73.5002 81.2204Z" fill="#C6B889"/>
<path fill-rule="evenodd" clip-rule="evenodd" d="M73.5002 73.5164L30.3724 116.653L73.5002 81.2204V73.5164ZM72.5002 75.9309L45.5353 102.902L72.5002 80.7477V75.9309Z" fill="#524A2D"/>
<path d="M73.5001 81.2204L116.627 116.653L73.5001 73.5164V81.2204Z" fill="#524A2D"/>
<path fill-rule="evenodd" clip-rule="evenodd" d="M116.627 116.653L73.5001 73.5164V81.2204L116.627 116.653ZM101.465 102.902L74.5001 75.931V80.7477L101.465 102.902Z" fill="#524A2D"/>
<path d="M73.5001 73.5164L116.627 116.653L81.2352 73.5164H73.5001Z" fill="#C6B889"/>
<path fill-rule="evenodd" clip-rule="evenodd" d="M116.627 116.653L81.2352 73.5164H73.5001L116.627 116.653ZM102.945 101.554L80.7622 74.5164H75.9139L102.945 101.554Z" fill="#524A2D"/>
<path d="M73.5001 73.5164L79.9022 67.1122L73.5001 2V73.5164Z" fill="#524A2D"/>
<path fill-rule="evenodd" clip-rule="evenodd" d="M78.8608 66.7396L74.5001 22.3898V71.1016L78.8608 66.7396ZM79.9022 67.1122L73.5001 2V73.5164L79.9022 67.1122Z" fill="#524A2D"/>
<path d="M73.5002 73.5164V2L67.0975 67.1122L73.5002 73.5164Z" fill="#C6B889"/>
<path fill-rule="evenodd" clip-rule="evenodd" d="M73.5002 2L67.0975 67.1122L73.5002 73.5164V2ZM72.5002 22.3881L68.139 66.7395L72.5002 71.1018V22.3881Z" fill="#524A2D"/>
<path d="M2 73.5163H73.5003L67.0976 67.1122L2 73.5163Z" fill="#524A2D"/>
<path fill-rule="evenodd" clip-rule="evenodd" d="M73.5003 73.5163L67.0976 67.1122L2 73.5163H73.5003ZM22.3789 72.5163H71.0864L66.7248 68.1537L22.3789 72.5163Z" fill="#524A2D"/>
<path d="M67.0976 79.92L73.5003 73.5164H2L67.0976 79.92Z" fill="#C6B889"/>
<path fill-rule="evenodd" clip-rule="evenodd" d="M73.5003 73.5164H2L67.0976 79.92L73.5003 73.5164ZM71.0863 74.5164L66.7248 78.8785L22.3806 74.5164H71.0863Z" fill="#524A2D"/>
<path d="M73.5002 145V73.5164L67.0975 79.92L73.5002 145Z" fill="#524A2D"/>
<path fill-rule="evenodd" clip-rule="evenodd" d="M73.5002 73.5164L67.0975 79.92L73.5002 145V73.5164ZM72.5002 124.622V75.9308L68.139 80.2926L72.5002 124.622Z" fill="#524A2D"/>
<path d="M73.5001 145L79.9022 79.92L73.5001 73.5164V145Z" fill="#C6B889"/>
<path fill-rule="evenodd" clip-rule="evenodd" d="M78.8608 80.2926L74.5001 75.931V124.62L78.8608 80.2926ZM79.9022 79.92L73.5001 73.5164V145L79.9022 79.92Z" fill="#524A2D"/>
<path d="M79.9023 79.92L145 73.5164H73.5001L79.9023 79.92Z" fill="#524A2D"/>
<path fill-rule="evenodd" clip-rule="evenodd" d="M145 73.5164H73.5001L79.9023 79.92L145 73.5164ZM124.619 74.5164H75.9139L80.275 78.8785L124.619 74.5164Z" fill="#524A2D"/>
<path d="M73.5001 73.5163H145L79.9023 67.1122L73.5001 73.5163Z" fill="#C6B889"/>
<path fill-rule="evenodd" clip-rule="evenodd" d="M145 73.5163L79.9023 67.1122L73.5001 73.5163H145ZM75.9138 72.5163H124.621L80.2751 68.1537L75.9138 72.5163Z" fill="#524A2D"/>
</svg>
