<svg width="8" height="8" viewBox="0 0 8 8" fill="none" xmlns="http://www.w3.org/2000/svg"><path fill-rule="evenodd" clip-rule="evenodd" d="M6.265.126c.118-.072.34-.174.584-.1a.566.566 0 01.335.268.646.646 0 01.077.344.989.989 0 01-.18.5l-.004.006a1.47 1.47 0 01-.113.141l-.007.008a8.112 8.112 0 00-.16.174l-.167.19c-.071.079-.139.157-.21.239l-.113.13a70.328 70.328 0 00-1.74 2.116 55.28 55.28 0 002.892 1.706c.168.088.317.218.417.376.09.143.191.404.064.676-.132.29-.415.364-.585.371a1.063 1.063 0 01-.542-.134l-.005-.002a1.334 1.334 0 01-.151-.098l-.002-.001a42.29 42.29 0 00-1.481-1.061 83.27 83.27 0 00-1.341-.898 71.3 71.3 0 00-1.785 2.41 1.323 1.323 0 01-.398.383c-.127.076-.363.182-.618.1a.579.579 0 01-.34-.282.674.674 0 01-.074-.36 1.08 1.08 0 01.203-.535l.003-.005c.034-.049.073-.097.113-.141l.001-.002a54.67 54.67 0 001.308-1.497c.198-.236.396-.474.593-.712-.247-.156-.495-.31-.744-.46l-.004-.002a35.322 35.322 0 00-.787-.471l-.4-.229-.193-.109-.105-.056-.002-.001a3.062 3.062 0 00-.09-.048L.51 3.057a1.026 1.026 0 01-.387-.345c-.086-.134-.186-.382-.068-.647.124-.281.392-.356.555-.366a.977.977 0 01.503.117l.006.003c.051.028.104.062.151.098l.006.004.005.004c.052.042.107.082.168.128l.188.136c.078.058.154.112.234.169l.132.093A54.866 54.866 0 003.588 3.52c.39-.483.776-.971 1.15-1.461l.002-.003c.203-.262.399-.523.594-.786l.29-.398V.871l.139-.192.071-.103.002-.003c.024-.034.044-.062.062-.09l.003-.005C6 .335 6.126.211 6.265.126z" fill="#524A2D"/></svg>