<svg width="18" height="17" viewBox="0 0 18 17" fill="none" xmlns="http://www.w3.org/2000/svg"><path d="M17.764.108A7.81 7.81 0 0118 0c-1.193 5.105-2.396 10.21-3.598 15.313-1.888-.886-3.77-1.783-5.658-2.671-.723.943-1.443 1.888-2.165 2.831-.394.508-.772 1.027-1.175 1.527-.01-1.978-.005-3.957-.003-5.935C3.605 10.205 1.8 9.363 0 8.506 5.92 5.704 11.843 2.908 17.764.108zm-2.788 2.996c-2.552 2.042-5.089 4.1-7.642 6.141-.072.055-.147.12-.131.217.005.804-.014 1.609.01 2.413.056-.051.11-.102.162-.157 1.9-2.102 3.797-4.205 5.699-6.305.819-.916 1.659-1.815 2.463-2.743-.2.129-.376.287-.561.434z" fill="#fff"/></svg>