<svg width="18" height="14" viewBox="0 0 18 14" fill="none" xmlns="http://www.w3.org/2000/svg"><path d="M17.73 2.171c-.652.258-1.515.555-2.184.629.692-.383 1.38-1.235 1.714-1.989.119-.267.096-.251-.147-.112-.526.3-1.11.652-1.704.854l-.467-.433C14.264.45 13.594 0 12.524 0c-2.055 0-3.628 1.457-3.628 3.36 0 .223.029.392.067.535l-.067.025c-3.627 0-6.024-.715-7.859-2.8-.32.508-.604 1.048-.604 1.68 0 1.196.815 2.18 1.813 2.8-.61-.018-1.312-.304-1.813-.56 0 1.669 2.53 3.602 4.232 3.92-.605.56-2.795.041-3.023 0 .474 1.37 2 2.211 3.627 2.24-1.272.923-2.81 1.406-4.553 1.406-.862 0-.999-.048-.12.351C2.149 13.662 4.083 14 5.875 14c6.844 0 10.277-4.966 10.277-9.52 0-.15.005-.412 0-.56.661-.443 1.207-1.035 1.677-1.66a.803.803 0 00-.098-.089z" fill="#fff"/></svg>