<svg width="18" height="10" viewBox="0 0 18 10" fill="none" xmlns="http://www.w3.org/2000/svg"><path d="M17.59.678c.123-.39 0-.678-.595-.678h-1.968c-.501 0-.732.247-.856.522 0 0-1.002 2.284-2.419 3.765-.458.429-.668.566-.919.566-.123 0-.314-.137-.314-.528V.678C10.52.21 10.38 0 9.964 0H6.87c-.314 0-.501.219-.501.422 0 .444.708.547.782 1.797V4.93c0 .594-.114.703-.364.703-.669 0-2.293-2.293-3.255-4.918C3.338.206 3.148 0 2.643 0H.675C.114 0 0 .247 0 .522c0 .487.668 2.91 3.111 6.11C4.738 8.815 7.03 10 9.116 10c1.253 0 1.406-.262 1.406-.716 0-2.087-.113-2.284.515-2.284.29 0 .792.137 1.962 1.19C14.335 9.44 14.556 10 15.304 10h1.968c.562 0 .846-.263.682-.781-.374-1.09-2.904-3.335-3.017-3.485-.291-.35-.208-.506 0-.819.003-.003 2.406-3.165 2.653-4.237z" fill="#fff"/></svg>