<svg width="137" height="36" fill="none" viewBox="0 0 137 36">
    <defs/>
    <path fill="#4D4D4D" d="M23.577 17.73c-.402-.223-.982-.446-1.785-.625.758-.268 1.338-.58 1.785-.938.402-.357.759-.803.982-1.294.268-.492.357-.983.357-1.519 0-.758-.223-1.428-.67-2.053-.446-.625-1.07-1.116-1.875-1.429-.312-.134-.713-.223-1.115-.312V6.658h-2.813v2.679h-1.785v-2.68h-2.812v2.68H9.56v2.276h.67c.401 0 .714.045.848.134a.823.823 0 01.357.313c.045.134.09.446.09.938v9.152c0 .447-.045.76-.09.893-.09.134-.178.268-.357.313-.134.089-.447.134-.848.134h-.67v2.277h4.286v2.678h2.812v-2.678h1.785v2.678h2.813V25.5c.446-.09.892-.179 1.25-.313.937-.402 1.696-.937 2.231-1.696a3.918 3.918 0 00.804-2.411c0-.714-.178-1.385-.536-1.965a3.862 3.862 0 00-1.428-1.384zm-7.946-5.715h1.786c1.07 0 1.785.045 2.231.179.402.134.715.357.938.67.223.312.313.67.313 1.071 0 .446-.09.804-.358 1.116-.223.313-.535.536-1.026.715-.446.134-1.116.223-2.098.223H15.63v-3.974zM20.72 22.15c-.313.402-.715.67-1.16.803-.447.135-1.027.18-1.742.18h-1.205c-.401 0-.67 0-.759-.045-.089-.045-.134-.135-.178-.268-.045-.045-.045-.357-.045-.848V18.4h2.143c.937 0 1.607.09 2.098.268.446.179.803.446 1.027.759.223.357.312.759.312 1.25 0 .58-.134 1.071-.491 1.473zM3.722 17.551c0-9.715 9.858-16.51 18.983-12.83 5.153 2.08 8.675 7.099 8.675 12.83 0 3.852-1.584 7.34-4.133 9.85a13.796 13.796 0 01-8.99 3.964c-7.93.402-14.535-5.942-14.535-13.814zm31.38 0c0-5.12-2.204-9.734-5.712-12.945a17.508 17.508 0 00-9.748-4.48C9.115-1.13 0 7.127 0 17.552 0 29.33 11.441 37.818 22.732 34.324a17.569 17.569 0 007.145-4.291l.002-.002a17.5 17.5 0 005.221-12.48z"/>
    <path fill="#F7931A" d="M29.389 4.606a19.386 19.386 0 00-.447-.391c-.209-.179-.113-.11-.586-.48-.249-.196-.152-.13-.79-.585l-2.684 2.686c.663.415 1.29.884 1.87 1.403a13.8 13.8 0 014.627 10.312 13.788 13.788 0 01-6.183 11.51l2.674 2.674a17.785 17.785 0 002.006-1.702l.002-.002c3.221-3.184 5.223-7.601 5.223-12.48 0-5.12-2.204-9.734-5.712-12.945z"/>
    <path fill="#F7931A" d="M18.67 12.048c.413.028.737.074.978.146.402.134.715.357.938.67.223.312.312.67.312 1.072 0 .446-.09.803-.357 1.116-.224.312-.536.536-1.027.714-.446.134-1.116.223-2.097.223H15.63v-.9l-2.202 2.202 2.202 2.202V18.4h2.142c.938 0 1.607.09 2.099.268.445.179.803.446 1.026.76.223.356.312.758.312 1.25 0 .58-.133 1.07-.49 1.472-.313.402-.715.67-1.16.804a3.293 3.293 0 01-.382.087l2.393 2.394c.337-.07.662-.147.935-.249.937-.402 1.696-.937 2.231-1.696a3.918 3.918 0 00.804-2.41c0-.715-.179-1.385-.536-1.966a3.864 3.864 0 00-1.429-1.383c-.401-.224-.981-.447-1.785-.626.759-.268 1.34-.58 1.785-.937.402-.358.76-.804.983-1.295.267-.491.357-.982.357-1.518a3.43 3.43 0 00-.67-2.054c-.446-.625-1.071-1.116-1.875-1.428-.312-.134-.714-.224-1.116-.313v-.096l-2.584 2.584zm47.29 16.228h2.453V7.373H65.96v20.903z"/>
    <path fill="#4D4D4D" d="M45.995 22.761c1.313 0 2.049-.855 2.049-2.049 0-1.174-.756-2.03-2.049-2.03H43.25v4.08h2.745zm-.258-6.148c1.113 0 1.75-.795 1.75-1.81 0-1.015-.617-1.751-1.79-1.751H43.25v3.56h2.486zm-5.053-5.77h5.033c2.566 0 4.376 1.313 4.376 3.641 0 1.314-.637 2.447-1.711 3.024v.04c1.552.458 2.288 1.89 2.288 3.323 0 2.825-2.268 4.099-4.874 4.099h-5.112V10.843zm12.136 3.979h2.527V24.97h-2.526V14.822zm0-3.979h2.527v2.249h-2.526v-2.249zm5.73 6.128h-1.313v-2.01h1.373v-2.904h2.467v2.904h2.307v2.01h-2.307v3.96c0 1.67 1.312 1.909 2.009 1.909.14 0 .258 0 .458-.04v2.209c-.2.02-.438.06-.776.06-1.413 0-4.218-.418-4.218-3.82V16.97zm19.299-6.367c1.85 0 3.838.597 5.212 1.93l-1.234 1.91c-.995-.855-2.486-1.492-3.859-1.492-3.103 0-4.734 2.248-4.734 4.855 0 2.646 1.69 5.053 4.754 5.053 1.512 0 3.024-.736 4.098-1.79l1.353 1.85c-1.214 1.233-3.025 2.288-5.55 2.288-4.437 0-7.301-3.203-7.301-7.362 0-4.098 3.004-7.242 7.26-7.242zm7.44.239h2.506v10.585c0 1.114.378 1.393 1.035 1.393.1 0 .238 0 .377-.02v2.208c-.179.02-.457.06-.795.06-1.393 0-3.123-.358-3.123-3.263V10.843zm5.651 3.979h2.527v6.01c0 1.233.319 2.068 1.572 2.068 1.83 0 2.844-1.611 2.844-3.422v-4.656h2.507V24.97h-2.427v-1.195c0-.377.06-.695.06-.695h-.04c-.478 1.034-1.79 2.128-3.52 2.128-2.19 0-3.522-1.094-3.522-3.86v-6.526zm12.493 7.223c.756.696 1.87 1.114 2.885 1.114.895 0 1.412-.378 1.412-1.015 0-1.591-5.032-1.193-5.032-4.516 0-1.99 1.75-3.044 3.878-3.044 1.214 0 2.487.338 3.422 1.154l-.935 1.77c-.597-.517-1.671-.875-2.566-.875-.875 0-1.412.338-1.412.975 0 1.611 5.033 1.154 5.033 4.477 0 1.79-1.512 3.123-3.84 3.123-1.413 0-2.924-.477-3.979-1.492l1.134-1.671zm9.27-5.074h-1.313v-2.01h1.373v-2.904h2.467v2.904h2.307v2.01h-2.307v3.96c0 1.67 1.312 1.909 2.009 1.909.139 0 .259 0 .457-.04v2.209c-.198.02-.437.06-.775.06-1.412 0-4.218-.418-4.218-3.82V16.97zm13.37 1.671c-.02-1.352-.896-2.149-2.029-2.149-1.293 0-2.208.856-2.447 2.15h4.476zm-1.97-4.058c2.905 0 4.496 2.128 4.496 4.814 0 .319-.04.657-.08.975h-6.982c.159 1.771 1.512 2.686 3.044 2.686 1.035 0 2.089-.457 2.904-1.114l.995 1.81c-1.035.916-2.626 1.453-4.078 1.453-3.362 0-5.47-2.427-5.47-5.312 0-3.124 2.128-5.313 5.171-5.313zm6.608.238h2.427v1.79c0 .379-.04.697-.04.697h.04c.457-1.432 1.691-2.626 3.223-2.626.151 0 .302.018.454.037v2.486a4.972 4.972 0 00-.594-.036c-2.068 0-2.984 1.79-2.984 3.701v4.099h-2.526V14.822z"/>
</svg>
