<svg width="137" height="27" fill="none" viewBox="0 0 137 27">
    <defs/>
    <path fill="#000" d="M67.66.155c.785-.26 1.784-.063 2.248.67.551.8.255 2.03-.615 2.473-.907.541-2.264.155-2.642-.861-.41-.867.107-1.988 1.01-2.282zm5.397.527c.963-.025 1.928-.01 2.892-.01.002 6.416-.003 12.83.004 19.245-.964.014-1.926.009-2.889.005-.008-6.413.006-12.827-.007-19.24zM51.456.727c.944.008 1.89.001 2.835.005.005 2.557-.013 5.116.01 7.673.671-1.028 1.646-1.896 2.847-2.232 1.628-.485 3.541-.308 4.902.77 1.271 1.022 1.751 2.723 1.755 4.298-.007 2.896.021 5.791-.014 8.687-.94-.01-1.882.005-2.823-.007 0-2.762.005-5.526-.003-8.288.005-1.013-.352-2.163-1.31-2.658-1.502-.714-3.58-.434-4.589.97-.687.95-.815 2.16-.776 3.3l.001 6.673c-.944.01-1.89.013-2.834 0 0-6.398.005-12.794-.002-19.19zm27.768.001c.94.005 1.882.003 2.824 0 .007 3.801-.012 7.602.01 11.403 1.999-1.954 3.957-3.949 5.938-5.92 1.191.013 2.384-.008 3.576.01-2.202 2.191-4.464 4.322-6.678 6.503 2.401 2.401 4.83 4.775 7.223 7.186-1.201.017-2.407.04-3.606-.008-2.196-2.046-4.28-4.214-6.456-6.28-.014 2.1-.003 4.2-.007 6.3-.943.003-1.887.01-2.83-.004.004-6.396-.004-12.793.006-19.19zM127.197 3.1c.947-.183 1.883-.418 2.83-.607.002 1.238-.003 2.475.003 3.713 1.874.02 3.749 0 5.623.01-.002.877.007 1.755-.002 2.633-1.874.002-3.747-.005-5.621.003 0 1.996-.015 3.992.007 5.988.011 1.039.482 2.2 1.529 2.574 1.355.495 2.758-.085 4.071-.44.181.748.298 1.512.505 2.256-1.241.64-2.632 1.026-4.034.983-1.302.015-2.648-.455-3.532-1.433-.927-.975-1.293-2.342-1.372-3.654-.02-2.092 0-4.184-.01-6.277-.848 0-1.696-.004-2.544.002.005-.877-.003-1.756.005-2.633.847-.008 1.696-.002 2.544-.004-.007-1.037.002-2.076-.002-3.115zM37.266 7.649c2.68-2.366 7.179-2.31 9.729.225.927.886 1.503 2.08 1.767 3.326-.972.012-1.945.005-2.917-.002-.284-.843-.831-1.61-1.607-2.064-1.37-.818-3.205-.794-4.557.053-1.644 1.042-2.26 3.238-1.815 5.066.282 1.499 1.438 2.802 2.92 3.202 1.122.276 2.37.183 3.38-.414.81-.448 1.378-1.248 1.676-2.113.974-.02 1.948-.011 2.92-.004-.343 1.685-1.324 3.261-2.8 4.173-1.586 1.043-3.583 1.325-5.43.994-1.701-.331-3.286-1.295-4.29-2.717-2.11-2.89-1.716-7.37 1.024-9.725zM98.163 6.06a7.306 7.306 0 014.972.789c1.793 1 3.06 2.843 3.413 4.862.212 1.364.134 2.802-.388 4.092a6.81 6.81 0 01-3.247 3.623c-1.667.865-3.677 1.027-5.471.489a6.895 6.895 0 01-3.94-3.05c-1.129-1.843-1.328-4.196-.635-6.23.772-2.333 2.879-4.142 5.296-4.575zm.623 2.621c-1.123.2-2.166.866-2.767 1.842-1.206 1.904-.887 4.723.925 6.14 1.69 1.34 4.4 1.13 5.799-.535 1.589-1.831 1.424-4.981-.461-6.55-.952-.792-2.278-1.15-3.496-.897zm15.874-2.607a7.284 7.284 0 015.315.936c1.548.954 2.666 2.557 3.061 4.328.374 1.488.236 3.084-.316 4.508a6.883 6.883 0 01-3.626 3.771c-1.607.704-3.472.794-5.145.279a6.943 6.943 0 01-4.169-3.556 7.463 7.463 0 01-.547-4.972c.556-2.633 2.781-4.803 5.427-5.294zm.744 2.596c-.922.171-1.804.612-2.419 1.327-1.587 1.81-1.478 4.917.36 6.514 1.089.973 2.713 1.284 4.096.832 1.207-.357 2.212-1.322 2.642-2.503.331-.857.364-1.807.229-2.708-.232-1.369-1.161-2.61-2.441-3.163-.774-.318-1.64-.475-2.467-.3zM66.948 6.215c.931-.006 1.863.002 2.795 0 .02 4.57.006 9.14.006 13.709-.932-.002-1.866.01-2.798-.004-.001-4.568.004-9.137-.003-13.705z"/>
    <path fill="#A0F200" d="M7.68 5.596L5.756 2.243a12.1 12.1 0 00-1.2.929l2.74 2.741c.114-.113.25-.204.386-.317zm-.248-4.305l1.925 3.353.476-.203L8.836.702a9.657 9.657 0 00-1.404.59zm4.259 2.651c.159-.023.34-.045.498-.068V0c-.52.045-1.02.113-1.518.204l1.02 3.738zm-5.777 3.33l-2.742-2.74c-.34.384-.634.792-.929 1.2l3.354 1.926c.113-.114.226-.25.317-.385zM4.645 9.358L1.292 7.409a15.31 15.31 0 00-.59 1.404l3.739.997c.068-.159.136-.295.204-.453zm9.47-5.483c.181.023.34.045.499.068L15.61.204A16.32 16.32 0 0014.092 0v3.874h.023zm4.78-2.583a15.302 15.302 0 00-1.404-.589l-.997 3.739.476.203 1.925-3.353zm-14.952 10.4l-3.739-.997c-.09.498-.158.996-.204 1.518h3.875c.022-.204.045-.363.068-.521z"/>
    <path fill="#000" d="M21.115 13.956c-1.268 0-2.696-.815-2.696-.815l-4.486-2.583a1.514 1.514 0 00-1.518 0l-1.223.702a2.28 2.28 0 00-.816 1.178 2.213 2.213 0 00.204 1.609c.181.317.43.566.748.748l.045.022 3.58 2.085c.498.294.929.725 1.223 1.246.93 1.63.385 3.715-1.246 4.644l-.068.045-5.256 3.059c1.065.272 2.243.43 3.557.43 4.033 0 6.842-1.45 8.813-3.375a13.282 13.282 0 004.327-8.61c.046-.249.068-.385.068-.385h-5.256zm-6.049 4.849a1.974 1.974 0 00-.748-.748l-.022-.023-3.58-2.084a3.233 3.233 0 01-1.223-1.246 3.382 3.382 0 01-.408-2.198l-1.178.68c-.272.159-1.495.77-2.628.77l-5.12-.022v.045h-.16c.25 3.852 2.13 7.227 4.963 9.493.838.747 1.857 1.382 3.013 1.88l6.366-3.693c.974-.589 1.292-1.857.725-2.854z"/>
    <path fill="#FF005E" d="M21.863 9.81l3.738-.996a10.848 10.848 0 00-.589-1.405L21.66 9.335c.09.158.159.317.204.475zm-1.155-2.13l3.353-1.925c-.295-.43-.59-.816-.93-1.2l-2.74 2.74c.113.114.226.25.317.386zM19.03 5.915l2.742-2.742c-.386-.34-.793-.634-1.201-.929l-1.926 3.353c.113.114.25.204.385.318zm3.399 6.275h3.874a16.329 16.329 0 00-.204-1.518l-3.738.997c.045.181.068.34.068.521z"/>
</svg>
