<svg width="115" height="22" fill="none" viewBox="0 0 115 22">
    <defs/>
    <path fill="#6B5CEA" fill-rule="evenodd" d="M33.087.276c.394-.005.787.026 1.174.092.311.053.606.173.865.352a2.6 2.6 0 01.665.708c.236.377.437.774.602 1.187l6.428 14.8a.437.437 0 00.429.278h.37a.44.44 0 00.43-.278L50.483 2.62a7.32 7.32 0 01.602-1.187c.174-.277.4-.519.664-.712a2.16 2.16 0 01.85-.354 6.176 6.176 0 011.16-.092h3.305c1.073 0 1.794.24 2.163.724.368.483.554 1.31.556 2.48v17.696c0 .452-.237.678-.71.678H55.92c-.454 0-.68-.226-.679-.678V5.084c0-.205-.083-.308-.247-.308h-.275a.383.383 0 00-.402.246l-6.24 13.806a9.156 9.156 0 01-.757 1.402 4.44 4.44 0 01-.834.94 2.673 2.673 0 01-1.02.525c-.439.11-.89.162-1.343.154h-1.489a5.18 5.18 0 01-1.344-.153 2.671 2.671 0 01-1.02-.524 4.396 4.396 0 01-.833-.94 9.128 9.128 0 01-.757-1.403L32.44 5.022a.383.383 0 00-.401-.246h-.278c-.166 0-.247.107-.247.308v16.09c0 .452-.227.678-.68.678H27.68c-.474 0-.711-.226-.71-.678V3.48c0-1.172.185-1.999.556-2.48.37-.483 1.102-.725 2.193-.725h3.368zm61.925 16.892c0 .221.177.4.396.4h9.992a8.765 8.765 0 002.254-.245 3.27 3.27 0 001.478-.802c.398-.41.677-.922.808-1.48a9.17 9.17 0 00.243-2.281V9.368a9.17 9.17 0 00-.243-2.282 3.157 3.157 0 00-.808-1.48 3.28 3.28 0 00-1.478-.801 8.803 8.803 0 00-2.254-.247h-9.997c-.265 0-.396.144-.396.43l.005 12.18zM105.52.273c1.645 0 3.057.17 4.235.508 1.178.34 2.142.863 2.894 1.572a6.33 6.33 0 011.662 2.714c.354 1.1.532 2.4.532 3.9v4.191c0 1.5-.178 2.8-.532 3.9a6.33 6.33 0 01-1.66 2.714c-.751.709-1.716 1.233-2.894 1.572-1.178.339-2.589.508-4.234.508H91.26a.92.92 0 01-.914-.925V1.347c0-.593.475-1.074 1.062-1.074h14.113zM.85.273h21.673c.47 0 .85.383.85.856v2.783c0 .473-.38.857-.85.857H.85A.853.853 0 010 3.912V1.13C0 .656.38.273.85.273zm0 17.084h21.673c.47 0 .85.383.85.856v2.783c0 .473-.38.856-.85.856H.85a.853.853 0 01-.85-.856v-2.783c0-.473.38-.856.85-.856zm9.987-8.543H.85c-.47 0-.85.383-.85.856v2.783c0 .473.38.857.85.857h9.987c.47 0 .85-.384.85-.857V9.67a.853.853 0 00-.85-.856zM85.86.273c.451 0 .89.331.89.781V4.06c0 .471-.225.706-.676.706H72.386c-.8 0-1.674-.04-2.197.093a2.57 2.57 0 00-1.245.675c-.33.36-.559.8-.662 1.276a8.522 8.522 0 00-.199 2.02v4.358c-.014.685.053 1.37.2 2.04.1.48.329.925.66 1.288.344.337.776.571 1.246.675.719.187 1.456.29 2.198.306h13.687c.45 0 .676.225.676.675v3.005c0 .45-.225.675-.676.675H72.203a17.173 17.173 0 01-4.182-.531c-1.088-.284-1.975-.749-2.66-1.396-.688-.647-1.19-1.487-1.508-2.52-.318-1.032-.477-2.285-.477-3.757V8.37c0-1.472.16-2.72.477-3.743.318-1.023.82-1.856 1.507-2.5.686-.644 1.573-1.115 2.66-1.41C69.11.42 70.432.272 71.99.272h13.87z" clip-rule="evenodd"/>
</svg>
