<svg width="140" height="20" fill="none">
    <defs/>
    <path fill="#185886" d="M8.678 14.438L15.109.291a.488.488 0 01.168-.21.455.455 0 01.267-.082c.16 0 .294.056.398.167.09.095.149.225.178.391.667 3.675 1.033 11.091 1.236 15.04 0 .12-.03.24-.09.359a.447.447 0 01-.429.263.6.6 0 01-.22-.04.529.529 0 01-.305-.323.677.677 0 01-.035-.209l-1.068-12.95-6.025 13.292a.65.65 0 01-.192.263.511.511 0 01-.325.111c-.226 0-.39-.125-.495-.374L2.147 2.697 1.078 15.648a.675.675 0 01-.034.209.539.539 0 01-.304.322.6.6 0 01-.221.041.468.468 0 01-.43-.262.803.803 0 01-.089-.36C.205 11.592.57 4.308 1.236.558a.747.747 0 01.177-.391A.525.525 0 011.812 0c.099 0 .188.028.267.082a.49.49 0 01.167.21l6.432 14.146zm10.576-8.27c0-.366.19-.55.57-.55.36 0 .539.184.539.55v9.482a.55.55 0 01-.143.397.527.527 0 01-.396.152c-.38 0-.57-.183-.57-.55V6.17zm-.329-3.286a.866.866 0 011.201-.805.845.845 0 01.282.188.852.852 0 01.252.617.85.85 0 01-.252.612.84.84 0 01-.615.256.86.86 0 01-.802-.534.85.85 0 01-.066-.334zm5.153 12.768a.54.54 0 01-.15.401.548.548 0 01-.403.148c-.362 0-.546-.183-.546-.55V6.17c0-.168.05-.302.148-.4.098-.1.231-.15.398-.15.37 0 .553.183.553.55l.004.719a4.356 4.356 0 011.125-.924c.335-.191.69-.335 1.064-.43a4.786 4.786 0 012.068-.054c.29.06.573.147.844.262a4.372 4.372 0 011.956 1.608c.16.237.296.49.41.757a4.413 4.413 0 01.349 1.739v5.804c0 .366-.183.55-.549.55-.366 0-.55-.184-.55-.55V9.805a3.664 3.664 0 00-.08-.677 3.311 3.311 0 00-.199-.627 3.268 3.268 0 00-1.775-1.747 3.15 3.15 0 00-.625-.188 3.592 3.592 0 00-.681-.063c-.233 0-.457.02-.67.06a3.388 3.388 0 00-1.194.474 3.238 3.238 0 00-.888.857 3.371 3.371 0 00-.61 1.818v5.938zM34.32 6.169c0-.367.19-.55.57-.55.36 0 .539.183.539.55v9.48a.55.55 0 01-.142.398.527.527 0 01-.397.152c-.38 0-.57-.183-.57-.55V6.17zm-.328-3.287a.866.866 0 011.2-.805.845.845 0 01.282.188.85.85 0 01.253.617.85.85 0 01-.252.612.839.839 0 01-.616.256.86.86 0 01-.801-.534.85.85 0 01-.066-.334zm5.152 12.768a.54.54 0 01-.15.401.548.548 0 01-.402.148c-.362 0-.547-.183-.547-.55V6.17c0-.168.05-.302.148-.4.099-.1.232-.15.399-.15.37 0 .552.183.552.55l.004.719a4.353 4.353 0 011.125-.924c.336-.191.69-.335 1.064-.43a4.786 4.786 0 012.068-.054c.291.06.573.147.844.262a4.372 4.372 0 011.956 1.608c.16.237.296.49.411.757a4.414 4.414 0 01.349 1.739v5.804c0 .366-.183.55-.55.55-.365 0-.549-.184-.549-.55V9.805a3.673 3.673 0 00-.08-.677 3.311 3.311 0 00-.2-.627 3.268 3.268 0 00-1.775-1.747 3.15 3.15 0 00-.625-.188 3.592 3.592 0 00-.68-.063c-.234 0-.458.02-.67.06a3.388 3.388 0 00-1.194.474 3.238 3.238 0 00-.888.857 3.378 3.378 0 00-.61 1.818v5.938zm19.993-1.233v.051a7.56 7.56 0 01-.089 1.08 6.784 6.784 0 01-.242 1.024c-.107.334-.24.65-.4.943a4.93 4.93 0 01-.56.826 4.418 4.418 0 01-.722.689 4.588 4.588 0 01-1.907.86c-.368.073-.76.11-1.176.11a6.168 6.168 0 01-1.348-.15c-.44-.1-.871-.238-1.294-.414l-.028-.015a1.24 1.24 0 01-.156-.104.856.856 0 01-.128-.125.439.439 0 01-.099-.23.594.594 0 01.019-.234l.015-.04a.753.753 0 01.103-.168.438.438 0 01.412-.175.881.881 0 01.224.06 13.665 13.665 0 001.137.382 3.816 3.816 0 001.02.144c.28 0 .553-.02.813-.063a4.73 4.73 0 00.77-.19 3.357 3.357 0 001.296-.8c.186-.183.354-.394.502-.631.15-.237.28-.505.393-.803a4.91 4.91 0 00.252-.984c.056-.36.084-.76.084-1.197v-.083a4.96 4.96 0 01-4.13 2.245 4.808 4.808 0 01-2.023-.441 5.322 5.322 0 01-2.287-2 5.901 5.901 0 01-.48-.938 5.459 5.459 0 01-.307-1.04 5.91 5.91 0 010-2.206c.068-.36.171-.71.306-1.045a5.99 5.99 0 01.481-.941 5.472 5.472 0 011.398-1.497c.277-.2.572-.372.887-.517.318-.146.647-.256.984-.329a5.057 5.057 0 012.531.119 5.042 5.042 0 011.337.65A4.776 4.776 0 0157.8 7.256c.081.104.157.21.228.32V6.179c0-.38.19-.57.57-.57a.51.51 0 01.401.163.583.583 0 01.138.407v8.238zm-1.14-3.513c0-.31-.027-.609-.08-.896a4.464 4.464 0 00-.243-.836 4.823 4.823 0 00-.385-.761 4.331 4.331 0 00-1.108-1.195 4.247 4.247 0 00-.7-.416 3.6 3.6 0 00-1.584-.349c-.286 0-.563.03-.83.088a3.542 3.542 0 00-.766.261 4.208 4.208 0 00-1.793 1.609 4.727 4.727 0 00-.7 2.495c0 .305.026.6.08.883.053.286.133.564.24.832.107.27.234.524.38.76.145.234.31.453.496.656a4.142 4.142 0 001.296.956c.244.114.5.2.768.258a3.902 3.902 0 001.646 0c.265-.057.521-.144.768-.26a4.16 4.16 0 001.306-.955c.187-.203.354-.422.501-.657.147-.233.275-.487.385-.759.108-.269.19-.546.243-.83a4.78 4.78 0 00.08-.884zm16.267-8.78a.713.713 0 01.178.18.48.48 0 01.08.26.536.536 0 01-.049.217.763.763 0 01-.297.33.481.481 0 01-.235.064.543.543 0 01-.385-.169 6.963 6.963 0 00-2.035-1.183 6.459 6.459 0 00-1.149-.311 7.086 7.086 0 00-1.224-.104 6.75 6.75 0 00-1.84.247 6.777 6.777 0 00-3.044 1.784 6.982 6.982 0 00-1.482 2.209 7.178 7.178 0 00-.299.858 6.644 6.644 0 00-.185.903 7.056 7.056 0 00.185 2.77 6.985 6.985 0 00.7 1.645 7.07 7.07 0 001.744 1.986 6.753 6.753 0 001.527.89c.272.114.556.213.853.297a6.649 6.649 0 001.841.246c.42 0 .828-.035 1.222-.105.396-.07.78-.176 1.15-.316a7.606 7.606 0 002.05-1.166.633.633 0 01.162-.104.534.534 0 01.21-.044c.16 0 .3.071.418.213.049.06.087.12.114.182a.548.548 0 01.047.216.452.452 0 01-.083.259.65.65 0 01-.172.169 8.77 8.77 0 01-2.343 1.341c-.43.165-.879.29-1.343.372a8.09 8.09 0 01-1.432.124 7.945 7.945 0 01-4.058-1.1 8.279 8.279 0 01-1.623-1.254 7.935 7.935 0 01-1.258-1.63 8.123 8.123 0 01-1.092-4.054c0-.733.096-1.447.287-2.138a8.04 8.04 0 01.804-1.928 8.05 8.05 0 011.257-1.634A8.253 8.253 0 0166.018.908a8.01 8.01 0 01.99-.351c.341-.097.692-.17 1.05-.218a8.175 8.175 0 012.528.054c.466.084.913.21 1.34.377a8.966 8.966 0 012.34 1.353zM76.41.961c0-.171.054-.307.16-.407a.577.577 0 01.41-.143c.166 0 .299.051.397.152a.55.55 0 01.142.398v14.678a.55.55 0 01-.142.398.526.526 0 01-.397.152c-.38 0-.57-.183-.57-.55V.961zm3.48 5.218c0-.17.051-.306.155-.406a.566.566 0 01.407-.144c.165 0 .297.051.395.153.093.098.14.231.14.397v5.906c.006.232.034.458.082.677a3.357 3.357 0 00.513 1.183 3.144 3.144 0 00.894.867 3.291 3.291 0 001.196.482c.215.042.44.063.677.063a3.41 3.41 0 001.326-.258c.203-.085.395-.188.574-.307a3.239 3.239 0 001.204-1.466c.085-.201.15-.41.192-.628a3.53 3.53 0 00.065-.685V6.18a.55.55 0 01.142-.398.527.527 0 01.397-.152c.17 0 .304.049.405.145.103.1.154.235.154.405 0 6.069.275 7.248-1.336 9.018a4.582 4.582 0 01-.896.683 4.165 4.165 0 01-1.056.44c-.371.097-.76.146-1.168.146-.61 0-1.191-.117-1.73-.35a4.55 4.55 0 01-1.416-.953 4.458 4.458 0 01-.963-1.413 4.157 4.157 0 01-.266-.842 4.507 4.507 0 01-.088-.895V6.18zm11.73-5.167c0-.166.048-.298.141-.397a.52.52 0 01.395-.153c.17 0 .306.049.406.145.105.1.157.235.157.405v6.622l.043-.077a2.092 2.092 0 01.246-.344 5.42 5.42 0 01.791-.73 5.59 5.59 0 01.928-.577 4.923 4.923 0 011.034-.372 4.648 4.648 0 011.088-.131 4.746 4.746 0 012.024.438 5.285 5.285 0 011.656 1.194c.236.252.446.524.63.815.183.29.343.602.479.936.136.332.239.678.307 1.037a5.974 5.974 0 010 2.212c-.068.36-.171.708-.306 1.042a5.956 5.956 0 01-.482.943 5.512 5.512 0 01-.628.815 5.186 5.186 0 01-1.655 1.19c-.32.147-.648.258-.985.33a4.995 4.995 0 01-2.17-.016 4.68 4.68 0 01-1.048-.38 5.389 5.389 0 01-1.74-1.38l-.212-.255v1.295c0 .173-.05.311-.15.414a.552.552 0 01-.413.156.51.51 0 01-.4-.165.592.592 0 01-.136-.405V1.012zm1.14 9.902c0 .308.027.605.082.89.054.288.136.567.245.838.108.272.238.527.386.766.147.235.314.454.498.653a4.2 4.2 0 001.309.954 3.653 3.653 0 001.58.352c.288 0 .565-.03.828-.088a3.59 3.59 0 00.768-.264 4.131 4.131 0 001.298-.953c.184-.201.35-.42.494-.653a4.833 4.833 0 00.622-1.602 4.98 4.98 0 000-1.776 4.8 4.8 0 00-.622-1.595 4.48 4.48 0 00-.495-.657 4.058 4.058 0 00-1.296-.952 3.726 3.726 0 00-1.597-.345c-.56 0-1.086.116-1.582.346a4.084 4.084 0 00-1.306.952 4.438 4.438 0 00-.499.657 4.868 4.868 0 00-.386.763c-.109.269-.19.547-.245.832a4.67 4.67 0 00-.082.882zm11.299 4.52a.867.867 0 01.537-.806.86.86 0 01.33-.062.88.88 0 01.334.063.858.858 0 01.534.804.843.843 0 01-.252.613.863.863 0 01-1.228 0 .879.879 0 01-.19-.279.868.868 0 01-.065-.333zm4.69-9.265c0-.367.19-.55.57-.55.36 0 .539.183.539.55v9.48c0 .167-.048.3-.142.398a.529.529 0 01-.397.152c-.38 0-.57-.183-.57-.55V6.17zm-.328-3.287a.868.868 0 01.536-.806.87.87 0 01.331-.063.846.846 0 01.615.252.866.866 0 01.253.616.846.846 0 01-.252.612.838.838 0 01-.616.257.865.865 0 01-.333-.065.884.884 0 01-.534-.803zm5.152 12.768a.54.54 0 01-.149.401.548.548 0 01-.403.148c-.362 0-.546-.183-.546-.55V6.17a.54.54 0 01.148-.4c.098-.1.231-.15.398-.15.37 0 .552.183.552.55l.004.719a4.39 4.39 0 011.125-.924 4.263 4.263 0 011.065-.43 4.781 4.781 0 012.067-.054 4.464 4.464 0 011.604.672 4.358 4.358 0 011.196 1.198c.16.237.296.49.411.757.115.27.203.551.261.843.059.29.088.589.088.896v5.804c0 .366-.183.55-.549.55-.366 0-.55-.184-.55-.55V9.805a3.699 3.699 0 00-.08-.677 3.274 3.274 0 00-.199-.627 3.277 3.277 0 00-2.401-1.935 3.589 3.589 0 00-.681-.063c-.233 0-.456.02-.67.06a3.347 3.347 0 00-1.194.474 3.237 3.237 0 00-.888.857 3.344 3.344 0 00-.52 1.16c-.05.213-.079.432-.089.658v5.938zm13.891-10.031a.6.6 0 01.379.125.464.464 0 01.149.197c.028.07.042.146.042.228a.619.619 0 01-.041.227.496.496 0 01-.136.196.566.566 0 01-.393.147h-1.914v8.962a.52.52 0 01-.157.4.568.568 0 01-.402.14.531.531 0 01-.393-.146.536.536 0 01-.146-.394V6.739h-1.237a.53.53 0 01-.406-.16.58.58 0 01-.143-.41c0-.367.183-.55.549-.55h1.237V3.704c0-.302.021-.583.063-.842.043-.262.108-.498.195-.708a2.77 2.77 0 01.311-.573 2.32 2.32 0 01.419-.455 2.818 2.818 0 011.067-.55 4.866 4.866 0 011.224-.156.772.772 0 01.242.039.527.527 0 01.333.335c.024.07.036.143.036.218a.478.478 0 01-.236.435.696.696 0 01-.354.105l-.004-.001a3.35 3.35 0 00-.493.026 2.59 2.59 0 00-.437.096 1.923 1.923 0 00-.375.162 1.555 1.555 0 00-.546.524 2.01 2.01 0 00-.188.383 2.465 2.465 0 00-.119.468c-.026.169-.04.358-.04.565V5.62h1.914zm1.565 5.316c0-.377.036-.746.109-1.105.072-.36.18-.707.323-1.039a5.677 5.677 0 011.171-1.749 5.453 5.453 0 011.738-1.175 5.14 5.14 0 011.034-.324 5.616 5.616 0 012.202 0c.359.072.706.18 1.037.323.331.142.645.312.938.51a5.434 5.434 0 011.479 1.479c.197.29.367.604.51.936.142.332.25.679.322 1.039.073.36.109.728.109 1.105a5.476 5.476 0 01-.431 2.133 5.637 5.637 0 01-1.179 1.746c-.248.249-.52.473-.812.67a5.66 5.66 0 01-.936.51c-.331.143-.678.25-1.038.323a5.593 5.593 0 01-2.201 0 5.239 5.239 0 01-1.034-.323 5.588 5.588 0 01-1.738-1.18 5.457 5.457 0 01-.664-.812 5.681 5.681 0 01-.507-.934 5.195 5.195 0 01-.323-1.036 5.476 5.476 0 01-.109-1.097zm1.099 0a4.2 4.2 0 00.348 1.7 4.46 4.46 0 001.603 1.938c.233.16.485.298.754.415.264.116.538.203.82.26a4.421 4.421 0 001.756.001c.281-.058.555-.145.819-.261a4.433 4.433 0 001.935-1.6c.159-.235.296-.486.412-.753a4.06 4.06 0 00.261-.823 4.32 4.32 0 00.087-.877c0-.304-.029-.598-.087-.88a4.153 4.153 0 00-.261-.829 4.74 4.74 0 00-.414-.76 4.328 4.328 0 00-1.181-1.182 4.658 4.658 0 00-.752-.413 4.087 4.087 0 00-.819-.26 4.384 4.384 0 00-.877-.088c-.303 0-.597.03-.879.087a4.06 4.06 0 00-.82.261 4.795 4.795 0 00-.758.415 4.403 4.403 0 00-.645.533c-.202.2-.383.417-.54.65a4.588 4.588 0 00-.414.757 4.246 4.246 0 00-.348 1.709z"/>
</svg>
