<svg width="8" height="8" viewBox="0 0 8 8" fill="none" xmlns="http://www.w3.org/2000/svg">
<path fill-rule="evenodd" clip-rule="evenodd" d="M6.26527 0.126235C6.3827 0.0541527 6.60408 -0.0479353 6.84935 0.0252467C6.99163 0.0674977 7.11088 0.162495 7.18426 0.294331C7.25226 0.416506 7.26579 0.541954 7.26147 0.63829C7.25304 0.826306 7.17412 1.00129 7.0807 1.13863L7.07729 1.14365C7.04357 1.19187 7.00385 1.24149 6.96441 1.28497L6.95677 1.29339C6.90461 1.34814 6.85344 1.40473 6.79758 1.46688L6.63043 1.65639C6.55878 1.73604 6.49133 1.81402 6.42062 1.89581C6.38399 1.93817 6.34648 1.98156 6.30705 2.02672C6.08962 2.27966 5.87891 2.53187 5.6658 2.78696C5.29364 3.23238 4.92669 3.68637 4.56608 4.14221C4.99403 4.41125 5.42676 4.67663 5.86104 4.93459C6.38998 5.24878 6.92097 5.5583 7.45938 5.84813C7.62673 5.93642 7.77597 6.06585 7.87552 6.22362C7.96577 6.36664 8.06728 6.62768 7.94028 6.89969C7.80797 7.19026 7.52544 7.26383 7.35463 7.27134C7.16798 7.27955 6.97769 7.226 6.81328 7.13749L6.80829 7.1348C6.75666 7.10618 6.70451 7.07304 6.6568 7.03729L6.65502 7.03596C6.17517 6.67287 5.6768 6.32237 5.17395 5.97499C4.73185 5.67239 4.28271 5.37245 3.83257 5.07702C3.62183 5.34922 3.41312 5.62257 3.20754 5.89619C2.81148 6.42334 2.41973 6.95263 2.04842 7.48701C1.94074 7.64453 1.80033 7.77858 1.64966 7.86957C1.52327 7.9459 1.28726 8.05228 1.03243 7.97056C0.885307 7.92472 0.764549 7.82422 0.691821 7.68762C0.62379 7.55984 0.612155 7.42896 0.618368 7.32824C0.630558 7.13063 0.716185 6.94299 0.820733 6.79254L0.823665 6.78832C0.858464 6.7394 0.897198 6.69068 0.937065 6.64664L0.938322 6.64525C1.38361 6.15731 1.81673 5.65382 2.24598 5.1476C2.44437 4.9119 2.64213 4.67446 2.83887 4.43614C2.59185 4.28026 2.34362 4.12646 2.09458 3.97566L2.09107 3.97354C1.82996 3.81223 1.56855 3.65693 1.30405 3.50284L0.903537 3.27401L0.710547 3.1652C0.672349 3.14563 0.636203 3.12577 0.606222 3.1093L0.60375 3.10795C0.568654 3.08867 0.541309 3.0737 0.51442 3.06008L0.50887 3.05727C0.356159 2.9773 0.217025 2.85918 0.122392 2.71227C0.0360111 2.57817 -0.0639246 2.33029 0.0536355 2.06536C0.178059 1.78379 0.446499 1.70855 0.609202 1.69904C0.784348 1.6888 0.96062 1.737 1.1118 1.81621L1.1177 1.8193C1.16921 1.84725 1.2224 1.88136 1.2695 1.91674L1.27491 1.9208L1.2802 1.92502C1.33219 1.96651 1.38663 2.00707 1.44808 2.0527L1.63629 2.18923C1.71415 2.24711 1.7899 2.30075 1.87041 2.35772C1.91252 2.38752 1.95593 2.41823 2.00162 2.45096C2.25185 2.62678 2.50212 2.79651 2.75602 2.96868C3.02998 3.15449 3.30779 3.33816 3.58771 3.51957C3.97791 3.03697 4.36396 2.54882 4.73774 2.05887L4.73994 2.05599C4.9427 1.79444 5.13883 1.53341 5.33379 1.26989L5.62327 0.872482L5.62464 0.870585L5.76301 0.678615C5.78791 0.641309 5.81302 0.605743 5.8343 0.575613L5.83586 0.5734C5.86034 0.538732 5.88008 0.510712 5.89833 0.483139L5.90149 0.478375C5.99888 0.335126 6.12639 0.211486 6.26527 0.126235Z" fill="#524A2D"/>
</svg>
