<svg width="27" height="19" viewBox="0 0 27 19" fill="none" xmlns="http://www.w3.org/2000/svg">
<path d="M0 1.43396C0 0.642007 0.642007 0 1.43396 0H25.566C26.358 0 27 0.642007 27 1.43396C27 2.22592 26.358 2.86792 25.566 2.86792H1.43396C0.642006 2.86792 0 2.22592 0 1.43396Z" fill="#524A2D"/>
<path d="M0 9.67924C0 8.88729 0.642007 8.24528 1.43396 8.24528H22.566C23.358 8.24528 24 8.88729 24 9.67924C24 10.4712 23.358 11.1132 22.566 11.1132H1.43396C0.642006 11.1132 0 10.4712 0 9.67924Z" fill="#524A2D"/>
<path d="M0 17.566C0 16.7741 0.642007 16.1321 1.43396 16.1321H25.566C26.358 16.1321 27 16.7741 27 17.566C27 18.358 26.358 19 25.566 19H1.43396C0.642006 19 0 18.358 0 17.566Z" fill="#524A2D"/>
</svg>
