<svg width="18" height="17" viewBox="0 0 18 17" fill="none" xmlns="http://www.w3.org/2000/svg">
<path d="M17.7636 0.108133C17.8417 0.0710245 17.9202 0.0347142 18 0C16.8068 5.10539 15.6038 10.2092 14.4021 15.313C12.5137 14.4268 10.6312 13.5302 8.74358 12.642C8.02054 13.5848 7.30088 14.5301 6.57911 15.4734C6.1853 15.9809 5.80711 16.4996 5.40401 17C5.39388 15.0221 5.39894 13.0434 5.40148 11.0651C3.60507 10.2048 1.79852 9.36287 0 8.50618C5.9198 5.70431 11.843 2.90841 17.7636 0.108133ZM14.9757 3.10353C12.4242 5.14569 9.88702 7.2042 7.33423 9.24516C7.26247 9.30022 7.18734 9.36526 7.20253 9.46222C7.20844 10.2662 7.1886 11.071 7.21309 11.8747C7.2688 11.824 7.32367 11.7725 7.37517 11.7178C9.27415 9.61624 11.1719 7.51304 13.0738 5.41343C13.8926 4.49729 14.733 3.59791 15.5375 2.6702C15.337 2.79869 15.1614 2.95749 14.9757 3.10353Z" fill="white"/>
</svg>
