<svg width="18" height="14" viewBox="0 0 18 14" fill="none" xmlns="http://www.w3.org/2000/svg">
<path d="M17.7302 2.171C17.0776 2.42913 16.2147 2.72583 15.5463 2.8C16.2376 2.41668 16.9254 1.56478 17.2602 0.811338C17.3788 0.54446 17.3564 0.559882 17.1129 0.698884C16.587 0.999144 16.0034 1.35099 15.409 1.55288L14.9417 1.12C14.264 0.44968 13.5936 0 12.5236 0C10.4694 0 8.89638 1.45712 8.89638 3.36C8.89638 3.58344 8.92479 3.752 8.96288 3.89536L8.89638 3.92C5.26916 3.92 2.87157 3.20544 1.03741 1.12C0.716403 1.62848 0.432876 2.16832 0.432876 2.8C0.432876 3.99616 1.24779 4.98064 2.24648 5.6C1.63651 5.58152 0.934036 5.29648 0.432876 5.04C0.432876 6.7088 2.96346 8.64192 4.66463 8.96C4.06009 9.52 1.86986 9.00144 1.64195 8.96C2.1159 10.3303 3.64236 11.1714 5.26916 11.2C3.99661 12.1229 2.45988 12.6056 0.716403 12.6056C-0.145508 12.6056 -0.28268 12.5581 0.596511 12.9575C2.1479 13.6622 4.08176 14 5.8737 14C12.7183 14 16.1508 9.03448 16.1508 4.48C16.1508 4.32992 16.1556 4.06784 16.1508 3.92C16.8121 3.4773 17.358 2.88502 17.8283 2.26079C17.8305 2.25792 17.7341 2.16948 17.7302 2.171Z" fill="white"/>
</svg>
