<svg width="18" height="10" viewBox="0 0 18 10" fill="none" xmlns="http://www.w3.org/2000/svg">
<path d="M17.5898 0.678104C17.7134 0.28749 17.5898 0 16.995 0H15.0268C14.5256 0 14.295 0.246869 14.1714 0.52188C14.1714 0.52188 13.169 2.80621 11.7521 4.28746C11.2944 4.71558 11.0839 4.85311 10.8333 4.85311C10.7097 4.85311 10.5192 4.71558 10.5192 4.32497V0.678104C10.5192 0.209359 10.3788 0 9.96447 0H6.87023C6.55612 0 6.369 0.218764 6.369 0.421866C6.369 0.865579 7.07742 0.968704 7.15095 2.21871V4.93124C7.15095 5.52499 7.03731 5.6343 6.78672 5.6343C6.11841 5.6343 4.49441 3.3406 3.53208 0.715613C3.3383 0.206249 3.14778 0 2.64323 0H0.675002C0.113635 0 0 0.246869 0 0.52188C0 1.00932 0.66831 3.43125 3.11095 6.63122C4.73828 8.81553 7.03054 10 9.11565 10C10.3687 10 10.5224 9.7375 10.5224 9.28439C10.5224 7.19683 10.4088 6.99995 11.0371 6.99995C11.3277 6.99995 11.829 7.13743 12.9986 8.19053C14.3351 9.44054 14.5557 9.99996 15.3041 9.99996H17.2723C17.8337 9.99996 18.1177 9.73747 17.954 9.21862C17.5797 8.12806 15.0502 5.88432 14.9366 5.73431C14.6459 5.38432 14.7294 5.22802 14.9366 4.9155C14.94 4.91246 17.3425 1.74997 17.5898 0.678104Z" fill="white"/>
</svg>
