<?xml version="1.0" standalone="no"?>
<!DOCTYPE svg PUBLIC "-//W3C//DTD SVG 20010904//EN"
 "http://www.w3.org/TR/2001/REC-SVG-20010904/DTD/svg10.dtd">
<svg version="1.0" xmlns="http://www.w3.org/2000/svg"
 width="700.000000pt" height="700.000000pt" viewBox="0 0 700.000000 700.000000"
 preserveAspectRatio="xMidYMid meet">
<metadata>
Created by potrace 1.11, written by Peter Selinger 2001-2013
</metadata>
<g transform="translate(0.000000,700.000000) scale(0.100000,-0.100000)"
fill="#000000" stroke="none">
<path d="M2942 6980 l-23 -19 38 -6 c21 -4 45 -7 53 -8 25 -4 34 -60 17 -109
-11 -30 -16 -36 -16 -20 -2 38 -40 101 -74 123 -28 18 -44 20 -123 16 -116 -5
-184 -34 -239 -101 -50 -61 -98 -88 -231 -131 -156 -51 -175 -62 -203 -118
-22 -45 -42 -177 -27 -177 3 0 25 12 48 26 23 15 77 40 120 55 78 29 78 29 64
6 -18 -29 -27 -79 -17 -96 6 -9 17 -1 39 27 30 38 66 60 122 77 22 7 20 2 -18
-39 -65 -71 -58 -81 63 -81 55 0 126 3 158 7 51 6 60 4 75 -13 31 -38 89 -58
268 -95 99 -20 257 -58 352 -85 182 -52 232 -58 252 -34 15 18 69 20 105 3 30
-14 39 -43 32 -105 -9 -82 -54 -94 -120 -34 -126 115 -352 191 -530 177 -131
-9 -292 -72 -371 -145 -35 -32 -76 -116 -76 -156 0 -29 1 -29 21 13 62 124
257 204 499 204 174 0 265 -39 411 -178 43 -40 87 -74 97 -74 18 0 35 25 55
80 3 8 6 -10 6 -41 1 -90 31 -373 50 -480 l18 -100 -39 -31 c-32 -25 -37 -33
-26 -45 7 -9 -4 -4 -25 10 -48 33 -117 47 -220 46 l-82 0 53 -17 c72 -23 120
-64 150 -131 23 -48 26 -70 27 -154 l0 -99 28 34 c39 46 97 165 97 198 0 15 7
33 15 40 18 15 19 3 4 -37 -40 -104 -79 -432 -79 -670 0 -84 -3 -113 -12 -113
-7 0 7 -17 32 -38 24 -20 70 -64 100 -97 31 -33 93 -99 138 -147 61 -66 92
-109 126 -180 63 -128 113 -308 91 -330 -3 -2 -6 -72 -8 -154 -4 -173 -30
-301 -103 -517 -103 -301 -379 -786 -656 -1149 -32 -43 -54 -78 -50 -78 14 0
220 216 295 310 367 459 577 1022 577 1548 l0 119 43 86 43 85 130 -42 c83
-28 128 -47 126 -56 -1 -7 5 -105 14 -219 28 -346 9 -562 -117 -1361 -23 -140
-42 -256 -44 -258 -2 -2 -104 4 -228 14 -123 9 -232 14 -241 11 -13 -5 -16
-21 -15 -89 l1 -83 12 70 11 70 165 -2 c91 -1 194 -5 229 -8 l63 -7 -6 -41
c-17 -106 -19 -130 -9 -124 16 10 122 -12 163 -33 21 -11 64 -19 105 -21 l70
-4 2 95 c1 97 0 95 -22 -27 l-6 -33 -75 0 -76 0 6 38 c3 20 8 61 12 90 l6 52
41 1 42 2 -40 6 c-39 6 -40 7 -37 41 7 99 94 856 114 990 19 133 22 200 22
466 l1 312 30 -15 c16 -9 54 -32 85 -53 120 -82 300 -154 434 -176 163 -27
273 -67 384 -142 71 -49 142 -127 142 -156 0 -36 50 -104 174 -236 65 -69 142
-153 172 -187 l55 -62 -11 -63 c-32 -178 -103 -411 -181 -597 -49 -117 -53
-121 -217 -218 -170 -100 -178 -113 -232 -388 -27 -140 -31 -150 -67 -189 -56
-60 -192 -192 -235 -227 l-38 -30 -43 68 c-73 112 -97 167 -132 295 l-34 123
0 -212 c-1 -116 4 -247 11 -290 18 -123 18 -123 -27 -155 -63 -44 -232 -141
-330 -191 -90 -45 -297 -130 -347 -142 l-26 -7 17 79 c10 43 30 133 46 201
l28 122 86 -6 c47 -4 97 -7 110 -8 24 -1 24 1 77 324 83 506 78 506 -40 0
l-61 -265 -75 3 c-40 1 -76 4 -78 6 -2 3 21 113 52 246 31 132 56 245 56 249
0 5 -28 11 -62 14 -35 4 -74 9 -88 12 l-25 6 -49 -250 c-26 -138 -52 -254 -58
-257 -5 -3 -65 0 -133 6 l-125 13 -4 31 c-3 17 -10 184 -16 371 -6 187 -12
341 -14 342 -5 5 -16 -400 -16 -598 l0 -196 58 -6 c31 -4 96 -9 145 -13 48 -4
87 -10 87 -13 0 -10 -148 -472 -153 -477 -7 -8 -196 -42 -307 -56 -138 -17
-495 -17 -641 1 -105 12 -116 15 -112 32 3 10 -3 29 -14 42 l-18 24 -18 -23
c-9 -12 -17 -28 -17 -33 0 -6 -7 -11 -16 -11 -14 0 -16 8 -10 49 4 27 -6 226
-20 443 -28 402 -35 643 -22 758 l7 65 -14 -45 c-19 -59 -19 -252 0 -565 8
-132 20 -326 26 -431 13 -207 9 -264 -19 -264 -36 0 -259 62 -380 106 -70 25
-199 81 -287 124 -173 85 -366 201 -346 208 7 2 86 14 174 26 l162 21 -2 65
c-7 185 -36 641 -43 685 -6 31 -8 -91 -7 -325 l2 -375 -164 -23 c-90 -13 -165
-21 -168 -19 -8 9 -32 169 -51 337 -14 130 -21 165 -32 165 -51 -2 -160 -19
-160 -25 0 -5 11 -81 25 -171 14 -89 25 -168 23 -176 -2 -7 -30 13 -70 50
l-67 62 -47 173 c-26 94 -49 170 -51 169 -2 -2 10 -69 26 -148 16 -79 28 -145
26 -147 -1 -1 -34 32 -72 75 -264 295 -457 623 -585 993 -31 91 -98 352 -98
383 0 17 114 211 147 249 8 9 27 19 41 23 34 8 62 33 62 55 0 24 48 65 217
190 119 88 412 275 419 267 1 -1 -9 -85 -22 -187 -29 -224 -31 -377 -16 -855
7 -198 12 -436 12 -528 l0 -169 30 7 c17 4 56 8 87 10 l58 4 -3 38 c-1 21 -5
59 -8 85 l-6 46 54 6 c83 9 154 15 264 22 l101 6 15 -73 c14 -65 16 -69 17
-33 0 23 -2 63 -6 89 l-6 47 -86 -7 c-47 -4 -144 -15 -216 -25 -71 -10 -131
-17 -132 -16 -5 5 -31 368 -44 592 -6 115 -9 298 -6 405 4 177 8 211 44 389
22 107 44 212 47 233 4 20 12 37 19 37 9 0 12 34 13 123 2 145 19 210 134 512
61 160 140 381 140 392 0 2 -8 3 -17 3 -31 1 -99 37 -143 76 -85 77 -117 194
-72 266 33 53 76 73 160 73 l74 0 14 35 c8 19 24 45 36 57 20 22 20 25 9 195
-7 95 -23 235 -36 310 -22 132 -25 139 -64 185 -22 26 -49 59 -59 73 l-19 24
-94 -56 c-224 -134 -425 -295 -624 -499 -160 -165 -239 -262 -363 -449 -272
-408 -439 -865 -497 -1365 -20 -170 -20 -529 0 -696 102 -866 534 -1615 1234
-2142 572 -431 1318 -655 2024 -608 313 21 524 61 797 151 1021 337 1785 1164
2046 2215 66 267 78 382 78 730 0 269 -2 328 -21 445 -92 578 -296 1049 -651
1500 -41 52 -150 169 -241 260 -345 344 -739 589 -1189 739 -202 68 -338 98
-659 147 -36 5 -37 8 -48 141 -5 59 -14 88 -52 160 -25 48 -64 108 -87 133
-23 25 -48 59 -55 75 -19 45 -131 133 -239 187 -53 26 -101 48 -106 48 -6 0
-16 10 -21 22 -12 28 -44 35 -155 36 -70 1 -89 -2 -108 -18z m-4 -91 c19 -7
21 -13 16 -36 -10 -40 -43 -110 -59 -123 -20 -16 -165 -2 -172 18 -8 20 35 98
74 132 27 25 37 28 75 23 24 -3 53 -10 66 -14z m1293 -1650 c72 -36 98 -133
59 -214 -53 -110 -154 -178 -264 -179 -33 0 -77 5 -97 12 -34 12 -37 16 -42
61 -14 119 33 261 100 302 71 44 178 52 244 18z"/>
<path d="M2144 6135 c9 -225 104 -439 235 -529 41 -28 95 -37 123 -20 5 3 -18
31 -52 61 -112 101 -203 255 -261 439 -50 158 -49 158 -45 49z"/>
<path d="M3016 5437 c3 -8 28 -27 56 -42 47 -26 64 -29 202 -36 83 -5 172 -11
198 -15 26 -4 55 -3 65 0 17 7 17 8 -2 19 -38 21 -129 36 -185 31 -103 -11
-255 14 -333 54 -4 2 -4 -3 -1 -11z"/>
<path d="M2680 5361 c0 -81 -78 -134 -196 -133 -63 0 -82 -4 -141 -33 -37 -18
-77 -40 -88 -49 -18 -14 -18 -15 -3 -16 10 0 41 9 70 20 29 11 93 27 142 35
102 17 179 54 214 105 23 34 30 94 12 105 -6 4 -10 -10 -10 -34z"/>
<path d="M3328 5266 c-111 -41 -166 -129 -155 -247 10 -108 83 -194 187 -219
98 -23 204 35 246 135 21 50 21 140 -1 190 -45 110 -179 178 -277 141z"/>
<path d="M2282 5093 c-71 -35 -122 -123 -122 -209 0 -46 37 -130 71 -161 133
-122 340 -20 342 168 1 122 -89 219 -202 219 -31 0 -71 -8 -89 -17z"/>
<path d="M2786 5099 c-57 -8 -144 -43 -178 -70 -11 -10 -15 -24 -11 -47 l5
-33 22 19 c87 81 250 100 438 51 40 -10 73 -17 74 -16 1 1 -1 16 -3 33 -5 30
-7 32 -86 47 -110 22 -190 27 -261 16z"/>
<path d="M2151 4714 c0 -11 3 -14 6 -6 3 7 2 16 -1 19 -3 4 -6 -2 -5 -13z"/>
<path d="M2162 4600 c0 -14 2 -19 5 -12 2 6 2 18 0 25 -3 6 -5 1 -5 -13z"/>
<path d="M2160 4527 c0 -30 -43 -156 -118 -342 -71 -177 -116 -316 -132 -404
-21 -116 -8 -409 20 -462 11 -19 111 -111 116 -106 2 1 -8 39 -21 82 -38 123
-59 283 -51 400 12 199 59 317 171 432 69 72 70 73 53 95 -30 40 -41 113 -34
225 4 56 4 103 1 103 -3 0 -5 -10 -5 -23z"/>
<path d="M3340 4244 c-14 -2 -52 -9 -85 -15 -33 -5 -101 -30 -151 -55 -73 -36
-113 -49 -205 -65 -151 -26 -326 -35 -369 -20 -31 10 -39 8 -99 -28 -112 -66
-196 -170 -237 -291 -27 -80 -25 -257 4 -367 35 -129 106 -285 183 -399 16
-23 26 -44 24 -46 -5 -5 237 -144 334 -193 46 -23 53 -24 47 -9 -38 99 -51
185 -51 334 1 199 9 226 80 251 110 38 214 63 288 67 l78 5 -8 -44 c-4 -24 -8
-91 -8 -149 0 -105 0 -105 48 -204 26 -55 68 -128 92 -163 25 -35 45 -66 45
-68 0 -3 -18 -14 -40 -25 -22 -11 -40 -23 -40 -26 0 -9 127 64 230 132 192
127 399 315 551 499 83 101 128 162 112 152 -6 -4 -12 21 -16 71 -25 315 -210
553 -489 632 -71 20 -260 35 -318 24z"/>
<path d="M4179 3543 c-13 -16 -12 -17 4 -4 16 13 21 21 13 21 -2 0 -10 -8 -17
-17z"/>
<path d="M3110 2710 l-115 -6 110 -2 c61 -1 117 3 125 8 8 5 11 9 5 8 -5 -1
-62 -5 -125 -8z"/>
<path d="M2511 2419 c-2 -66 -84 -265 -138 -337 -13 -17 -31 -48 -39 -67 -17
-42 -18 -138 0 -185 12 -33 102 -180 111 -180 2 0 -1 17 -7 37 -15 55 -4 136
26 186 76 126 93 213 76 398 -11 119 -27 202 -29 148z"/>
<path d="M3253 2197 c-32 -39 -76 -102 -98 -139 -25 -42 -48 -68 -60 -70 -16
-2 -20 -11 -21 -43 -1 -22 -15 -69 -31 -105 -31 -66 -63 -178 -63 -218 0 -12
-4 -22 -10 -22 -5 0 -14 -9 -20 -21 -9 -16 -8 -24 3 -37 13 -14 14 -45 10
-187 -2 -93 -9 -180 -15 -192 -6 -12 -7 -29 -2 -40 4 -10 13 -47 20 -83 l11
-65 2 62 c1 52 4 63 21 68 13 4 20 15 20 31 0 13 -9 29 -20 36 -19 12 -20 24
-20 184 0 163 1 172 20 177 24 6 26 34 4 58 -15 17 -15 24 0 91 9 40 31 109
49 153 26 64 37 80 57 85 22 6 25 11 23 44 -2 30 7 51 46 110 27 39 69 96 95
126 42 49 54 70 41 70 -3 0 -31 -33 -62 -73z"/>
<path d="M1523 1813 c9 -2 25 -2 35 0 9 3 1 5 -18 5 -19 0 -27 -2 -17 -5z"/>
<path d="M1385 1690 c3 -30 5 -66 5 -79 0 -23 1 -23 73 -17 82 8 107 14 107
26 0 4 -36 6 -79 3 l-79 -6 -16 64 -16 64 5 -55z"/>
<path d="M4098 1713 c7 -3 16 -2 19 1 4 3 -2 6 -13 5 -11 0 -14 -3 -6 -6z"/>
<path d="M4270 1695 c122 -11 164 -9 124 6 -10 4 -71 7 -134 7 l-115 -1 125
-12z"/>
<path d="M4440 1675 c-12 -15 -40 -141 -40 -182 0 -26 47 -43 118 -43 49 0 52
6 72 108 16 79 9 107 -31 121 -45 16 -104 14 -119 -4z m70 -82 c0 -10 -5 -35
-11 -55 -11 -43 -35 -54 -25 -12 4 15 10 39 13 55 6 32 23 40 23 12z"/>
<path d="M1873 1657 c-51 -5 -93 -13 -93 -17 0 -8 83 -2 200 15 68 10 75 12
35 12 -27 0 -92 -4 -142 -10z"/>
<path d="M4231 1478 c2 -191 14 -521 17 -463 1 17 11 145 22 285 11 140 20
281 20 313 0 57 0 57 -30 57 l-30 0 1 -192z"/>
<path d="M1655 1633 c-54 -8 -65 -27 -65 -114 0 -43 4 -89 10 -103 8 -23 15
-26 57 -25 27 0 64 6 83 12 28 10 35 17 33 37 -15 210 -13 208 -118 193z m35
-139 c0 -34 -4 -53 -10 -49 -5 3 -10 28 -10 56 0 27 5 49 10 49 6 0 10 -25 10
-56z"/>
<path d="M1884 1607 c-3 -8 7 -117 21 -243 14 -126 31 -269 36 -319 5 -49 12
-94 14 -100 6 -14 -5 580 -11 633 -5 37 -8 42 -30 42 -14 0 -27 -6 -30 -13z"/>
<path d="M1411 1464 c0 -11 3 -14 6 -6 3 7 2 16 -1 19 -3 4 -6 -2 -5 -13z"/>
<path d="M2991 798 c0 -37 -5 -70 -11 -73 -15 -9 -12 -31 6 -49 14 -15 25 -72
38 -191 2 -22 2 8 0 66 -3 86 -1 109 11 119 21 18 19 55 -5 71 -13 9 -23 32
-29 69 l-9 55 -1 -67z"/>
</g>
</svg>
