<svg version="1.0" xmlns="http://www.w3.org/2000/svg" width="933.333" height="933.333" viewBox="0 0 700 700"><path d="M294.2 2l-2.3 1.9 3.8.6c2.1.4 4.5.7 5.3.8 2.5.4 3.4 6 1.7 10.9-1.1 3-1.6 3.6-1.6 2-.2-3.8-4-10.1-7.4-12.3-2.8-1.8-4.4-2-12.3-1.6-11.6.5-18.4 3.4-23.9 10.1-5 6.1-9.8 8.8-23.1 13.1-15.6 5.1-17.5 6.2-20.3 11.8-2.2 4.5-4.2 17.7-2.7 17.7.3 0 2.5-1.2 4.8-2.6 2.3-1.5 7.7-4 12-5.5 7.8-2.9 7.8-2.9 6.4-.6-1.8 2.9-2.7 7.9-1.7 9.6.6.9 1.7.1 3.9-2.7 3-3.8 6.6-6 12.2-7.7 2.2-.7 2-.2-1.8 3.9-6.5 7.1-5.8 8.1 6.3 8.1 5.5 0 12.6-.3 15.8-.7 5.1-.6 6-.4 7.5 1.3 3.1 3.8 8.9 5.8 26.8 9.5 9.9 2 25.7 5.8 35.2 8.5 18.2 5.2 23.2 5.8 25.2 3.4 1.5-1.8 6.9-2 10.5-.3 3 1.4 3.9 4.3 3.2 10.5-.9 8.2-5.4 9.4-12 3.4-12.6-11.5-35.2-19.1-53-17.7-13.1.9-29.2 7.2-37.1 14.5-3.5 3.2-7.6 11.6-7.6 15.6 0 2.9.1 2.9 2.1-1.3 6.2-12.4 25.7-20.4 49.9-20.4 17.4 0 26.5 3.9 41.1 17.8 4.3 4 8.7 7.4 9.7 7.4 1.8 0 3.5-2.5 5.5-8 .3-.8.6 1 .6 4.1.1 9 3.1 37.3 5 48l1.8 10-3.9 3.1c-3.2 2.5-3.7 3.3-2.6 4.5.7.9-.4.4-2.5-1-4.8-3.3-11.7-4.7-22-4.6h-8.2l5.3 1.7c7.2 2.3 12 6.4 15 13.1 2.3 4.8 2.6 7 2.7 15.4v9.9l2.8-3.4c3.9-4.6 9.7-16.5 9.7-19.8 0-1.5.7-3.3 1.5-4 1.8-1.5 1.9-.3.4 3.7-4 10.4-7.9 43.2-7.9 67 0 8.4-.3 11.3-1.2 11.3-.7 0 .7 1.7 3.2 3.8 2.4 2 7 6.4 10 9.7 3.1 3.3 9.3 9.9 13.8 14.7 6.1 6.6 9.2 10.9 12.6 18 6.3 12.8 11.3 30.8 9.1 33-.3.2-.6 7.2-.8 15.4-.4 17.3-3 30.1-10.3 51.7-10.3 30.1-37.9 78.6-65.6 114.9-3.2 4.3-5.4 7.8-5 7.8 1.4 0 22-21.6 29.5-31C406 454.1 427 397.8 427 345.2v-11.9l4.3-8.6 4.3-8.5 13 4.2c8.3 2.8 12.8 4.7 12.6 5.6-.1.7.5 10.5 1.4 21.9 2.8 34.6.9 56.2-11.7 136.1-2.3 14-4.2 25.6-4.4 25.8-.2.2-10.4-.4-22.8-1.4-12.3-.9-23.2-1.4-24.1-1.1-1.3.5-1.6 2.1-1.5 8.9l.1 8.3 1.2-7 1.1-7 16.5.2c9.1.1 19.4.5 22.9.8l6.3.7-.6 4.1c-1.7 10.6-1.9 13-.9 12.4 1.6-1 12.2 1.2 16.3 3.3 2.1 1.1 6.4 1.9 10.5 2.1l7 .4.2-9.5c.1-9.7 0-9.5-2.2 2.7l-.6 3.3h-15.1l.6-3.8c.3-2 .8-6.1 1.2-9l.6-5.2 4.1-.1 4.2-.2-4-.6c-3.9-.6-4-.7-3.7-4.1.7-9.9 9.4-85.6 11.4-99 1.9-13.3 2.2-20 2.2-46.6l.1-31.2 3 1.5c1.6.9 5.4 3.2 8.5 5.3 12 8.2 30 15.4 43.4 17.6 16.3 2.7 27.3 6.7 38.4 14.2 7.1 4.9 14.2 12.7 14.2 15.6 0 3.6 5 10.4 17.4 23.6 6.5 6.9 14.2 15.3 17.2 18.7l5.5 6.2-1.1 6.3c-3.2 17.8-10.3 41.1-18.1 59.7-4.9 11.7-5.3 12.1-21.7 21.8-17 10-17.8 11.3-23.2 38.8-2.7 14-3.1 15-6.7 18.9-5.6 6-19.2 19.2-23.5 22.7l-3.8 3-4.3-6.8c-7.3-11.2-9.7-16.7-13.2-29.5l-3.4-12.3v21.2c-.1 11.6.4 24.7 1.1 29 1.8 12.3 1.8 12.3-2.7 15.5-6.3 4.4-23.2 14.1-33 19.1-9 4.5-29.7 13-34.7 14.2l-2.6.7 1.7-7.9c1-4.3 3-13.3 4.6-20.1l2.8-12.2 8.6.6c4.7.4 9.7.7 11 .8 2.4.1 2.4-.1 7.7-32.4 8.3-50.6 7.8-50.6-4 0l-6.1 26.5-7.5-.3c-4-.1-7.6-.4-7.8-.6-.2-.3 2.1-11.3 5.2-24.6 3.1-13.2 5.6-24.5 5.6-24.9 0-.5-2.8-1.1-6.2-1.4-3.5-.4-7.4-.9-8.8-1.2l-2.5-.6-4.9 25c-2.6 13.8-5.2 25.4-5.8 25.7-.5.3-6.5 0-13.3-.6l-12.5-1.3-.4-3.1c-.3-1.7-1-18.4-1.6-37.1-.6-18.7-1.2-34.1-1.4-34.2-.5-.5-1.6 40-1.6 59.8v19.6l5.8.6c3.1.4 9.6.9 14.5 1.3 4.8.4 8.7 1 8.7 1.3 0 1-14.8 47.2-15.3 47.7-.7.8-19.6 4.2-30.7 5.6-13.8 1.7-49.5 1.7-64.1-.1-10.5-1.2-11.6-1.5-11.2-3.2.3-1-.3-2.9-1.4-4.2l-1.8-2.4-1.8 2.3c-.9 1.2-1.7 2.8-1.7 3.3 0 .6-.7 1.1-1.6 1.1-1.4 0-1.6-.8-1-4.9.4-2.7-.6-22.6-2-44.3-2.8-40.2-3.5-64.3-2.2-75.8l.7-6.5-1.4 4.5c-1.9 5.9-1.9 25.2 0 56.5.8 13.2 2 32.6 2.6 43.1 1.3 20.7.9 26.4-1.9 26.4-3.6 0-25.9-6.2-38-10.6-7-2.5-19.9-8.1-28.7-12.4-17.3-8.5-36.6-20.1-34.6-20.8.7-.2 8.6-1.4 17.4-2.6l16.2-2.1-.2-6.5c-.7-18.5-3.6-64.1-4.3-68.5-.6-3.1-.8 9.1-.7 32.5l.2 37.5-16.4 2.3c-9 1.3-16.5 2.1-16.8 1.9-.8-.9-3.2-16.9-5.1-33.7-1.4-13-2.1-16.5-3.2-16.5-5.1.2-16 1.9-16 2.5 0 .5 1.1 8.1 2.5 17.1 1.4 8.9 2.5 16.8 2.3 17.6-.2.7-3-1.3-7-5l-6.7-6.2-4.7-17.3c-2.6-9.4-4.9-17-5.1-16.9-.2.2 1 6.9 2.6 14.8s2.8 14.5 2.6 14.7c-.1.1-3.4-3.2-7.2-7.5-26.4-29.5-45.7-62.3-58.5-99.3-3.1-9.1-9.8-35.2-9.8-38.3 0-1.7 11.4-21.1 14.7-24.9.8-.9 2.7-1.9 4.1-2.3 3.4-.8 6.2-3.3 6.2-5.5 0-2.4 4.8-6.5 21.7-19 11.9-8.8 41.2-27.5 41.9-26.7.1.1-.9 8.5-2.2 18.7-2.9 22.4-3.1 37.7-1.6 85.5.7 19.8 1.2 43.6 1.2 52.8v16.9l3-.7c1.7-.4 5.6-.8 8.7-1l5.8-.4-.3-3.8c-.1-2.1-.5-5.9-.8-8.5l-.6-4.6 5.4-.6c8.3-.9 15.4-1.5 26.4-2.2l10.1-.6 1.5 7.3c1.4 6.5 1.6 6.9 1.7 3.3 0-2.3-.2-6.3-.6-8.9l-.6-4.7-8.6.7c-4.7.4-14.4 1.5-21.6 2.5-7.1 1-13.1 1.7-13.2 1.6-.5-.5-3.1-36.8-4.4-59.2-.6-11.5-.9-29.8-.6-40.5.4-17.7.8-21.1 4.4-38.9 2.2-10.7 4.4-21.2 4.7-23.3.4-2 1.2-3.7 1.9-3.7.9 0 1.2-3.4 1.3-12.3.2-14.5 1.9-21 13.4-51.2 6.1-16 14-38.1 14-39.2 0-.2-.8-.3-1.7-.3-3.1-.1-9.9-3.7-14.3-7.6-8.5-7.7-11.7-19.4-7.2-26.6 3.3-5.3 7.6-7.3 16-7.3h7.4l1.4-3.5c.8-1.9 2.4-4.5 3.6-5.7 2-2.2 2-2.5.9-19.5-.7-9.5-2.3-23.5-3.6-31-2.2-13.2-2.5-13.9-6.4-18.5-2.2-2.6-4.9-5.9-5.9-7.3l-1.9-2.4-9.4 5.6c-22.4 13.4-42.5 29.5-62.4 49.9-16 16.5-23.9 26.2-36.3 44.9-27.2 40.8-43.9 86.5-49.7 136.5-2 17-2 52.9 0 69.6 10.2 86.6 53.4 161.5 123.4 214.2 57.2 43.1 131.8 65.5 202.4 60.8 31.3-2.1 52.4-6.1 79.7-15.1 102.1-33.7 178.5-116.4 204.6-221.5 6.6-26.7 7.8-38.2 7.8-73 0-26.9-.2-32.8-2.1-44.5-9.2-57.8-29.6-104.9-65.1-150-4.1-5.2-15-16.9-24.1-26-34.5-34.4-73.9-58.9-118.9-73.9-20.2-6.8-33.8-9.8-65.9-14.7-3.6-.5-3.7-.8-4.8-14.1-.5-5.9-1.4-8.8-5.2-16-2.5-4.8-6.4-10.8-8.7-13.3-2.3-2.5-4.8-5.9-5.5-7.5-1.9-4.5-13.1-13.3-23.9-18.7-5.3-2.6-10.1-4.8-10.6-4.8-.6 0-1.6-1-2.1-2.2C319.3 1 316.1.3 305 .2c-7-.1-8.9.2-10.8 1.8zm-.4 9.1c1.9.7 2.1 1.3 1.6 3.6-1 4-4.3 11-5.9 12.3-2 1.6-16.5.2-17.2-1.8-.8-2 3.5-9.8 7.4-13.2 2.7-2.5 3.7-2.8 7.5-2.3 2.4.3 5.3 1 6.6 1.4zm129.3 165c7.2 3.6 9.8 13.3 5.9 21.4-5.3 11-15.4 17.8-26.4 17.9-3.3 0-7.7-.5-9.7-1.2-3.4-1.2-3.7-1.6-4.2-6.1-1.4-11.9 3.3-26.1 10-30.2 7.1-4.4 17.8-5.2 24.4-1.8z"/><path d="M214.4 86.5c.9 22.5 10.4 43.9 23.5 52.9 4.1 2.8 9.5 3.7 12.3 2 .5-.3-1.8-3.1-5.2-6.1-11.2-10.1-20.3-25.5-26.1-43.9-5-15.8-4.9-15.8-4.5-4.9zm87.2 69.8c.3.8 2.8 2.7 5.6 4.2 4.7 2.6 6.4 2.9 20.2 3.6 8.3.5 17.2 1.1 19.8 1.5 2.6.4 5.5.3 6.5 0 1.7-.7 1.7-.8-.2-1.9-3.8-2.1-12.9-3.6-18.5-3.1-10.3 1.1-25.5-1.4-33.3-5.4-.4-.2-.4.3-.1 1.1zm-33.6 7.6c0 8.1-7.8 13.4-19.6 13.3-6.3 0-8.2.4-14.1 3.3-3.7 1.8-7.7 4-8.8 4.9-1.8 1.4-1.8 1.5-.3 1.6 1 0 4.1-.9 7-2 2.9-1.1 9.3-2.7 14.2-3.5 10.2-1.7 17.9-5.4 21.4-10.5 2.3-3.4 3-9.4 1.2-10.5-.6-.4-1 1-1 3.4zm64.8 9.5c-11.1 4.1-16.6 12.9-15.5 24.7 1 10.8 8.3 19.4 18.7 21.9 9.8 2.3 20.4-3.5 24.6-13.5 2.1-5 2.1-14-.1-19-4.5-11-17.9-17.8-27.7-14.1zm-104.6 17.3c-7.1 3.5-12.2 12.3-12.2 20.9 0 4.6 3.7 13 7.1 16.1 13.3 12.2 34 2 34.2-16.8.1-12.2-8.9-21.9-20.2-21.9-3.1 0-7.1.8-8.9 1.7zm50.4-.6c-5.7.8-14.4 4.3-17.8 7-1.1 1-1.5 2.4-1.1 4.7l.5 3.3 2.2-1.9c8.7-8.1 25-10 43.8-5.1 4 1 7.3 1.7 7.4 1.6.1-.1-.1-1.6-.3-3.3-.5-3-.7-3.2-8.6-4.7-11-2.2-19-2.7-26.1-1.6zm-63.5 38.5c0 1.1.3 1.4.6.6.3-.7.2-1.6-.1-1.9-.3-.4-.6.2-.5 1.3zm1.1 11.4c0 1.4.2 1.9.5 1.2.2-.6.2-1.8 0-2.5-.3-.6-.5-.1-.5 1.3zm-.2 7.3c0 3-4.3 15.6-11.8 34.2-7.1 17.7-11.6 31.6-13.2 40.4-2.1 11.6-.8 40.9 2 46.2 1.1 1.9 11.1 11.1 11.6 10.6.2-.1-.8-3.9-2.1-8.2-3.8-12.3-5.9-28.3-5.1-40 1.2-19.9 5.9-31.7 17.1-43.2 6.9-7.2 7-7.3 5.3-9.5-3-4-4.1-11.3-3.4-22.5.4-5.6.4-10.3.1-10.3-.3 0-.5 1-.5 2.3zm118 28.3c-1.4.2-5.2.9-8.5 1.5-3.3.5-10.1 3-15.1 5.5-7.3 3.6-11.3 4.9-20.5 6.5-15.1 2.6-32.6 3.5-36.9 2-3.1-1-3.9-.8-9.9 2.8-11.2 6.6-19.6 17-23.7 29.1-2.7 8-2.5 25.7.4 36.7 3.5 12.9 10.6 28.5 18.3 39.9 1.6 2.3 2.6 4.4 2.4 4.6-.5.5 23.7 14.4 33.4 19.3 4.6 2.3 5.3 2.4 4.7.9-3.8-9.9-5.1-18.5-5.1-33.4.1-19.9.9-22.6 8-25.1 11-3.8 21.4-6.3 28.8-6.7l7.8-.5-.8 4.4c-.4 2.4-.8 9.1-.8 14.9 0 10.5 0 10.5 4.8 20.4 2.6 5.5 6.8 12.8 9.2 16.3 2.5 3.5 4.5 6.6 4.5 6.8 0 .3-1.8 1.4-4 2.5s-4 2.3-4 2.6c0 .9 12.7-6.4 23-13.2 19.2-12.7 39.9-31.5 55.1-49.9 8.3-10.1 12.8-16.2 11.2-15.2-.6.4-1.2-2.1-1.6-7.1-2.5-31.5-21-55.3-48.9-63.2-7.1-2-26-3.5-31.8-2.4z"/><path d="M417.9 345.7c-1.3 1.6-1.2 1.7.4.4 1.6-1.3 2.1-2.1 1.3-2.1-.2 0-1 .8-1.7 1.7zM311 429l-11.5.6 11 .2c6.1.1 11.7-.3 12.5-.8.8-.5 1.1-.9.5-.8-.5.1-6.2.5-12.5.8zm-59.9 29.1c-.2 6.6-8.4 26.5-13.8 33.7-1.3 1.7-3.1 4.8-3.9 6.7-1.7 4.2-1.8 13.8 0 18.5 1.2 3.3 10.2 18 11.1 18 .2 0-.1-1.7-.7-3.7-1.5-5.5-.4-13.6 2.6-18.6 7.6-12.6 9.3-21.3 7.6-39.8-1.1-11.9-2.7-20.2-2.9-14.8zm74.2 22.2c-3.2 3.9-7.6 10.2-9.8 13.9-2.5 4.2-4.8 6.8-6 7-1.6.2-2 1.1-2.1 4.3-.1 2.2-1.5 6.9-3.1 10.5-3.1 6.6-6.3 17.8-6.3 21.8 0 1.2-.4 2.2-1 2.2-.5 0-1.4.9-2 2.1-.9 1.6-.8 2.4.3 3.7 1.3 1.4 1.4 4.5 1 18.7-.2 9.3-.9 18-1.5 19.2-.6 1.2-.7 2.9-.2 4 .4 1 1.3 4.7 2 8.3l1.1 6.5.2-6.2c.1-5.2.4-6.3 2.1-6.8 1.3-.4 2-1.5 2-3.1 0-1.3-.9-2.9-2-3.6-1.9-1.2-2-2.4-2-18.4 0-16.3.1-17.2 2-17.7 2.4-.6 2.6-3.4.4-5.8-1.5-1.7-1.5-2.4 0-9.1.9-4 3.1-10.9 4.9-15.3 2.6-6.4 3.7-8 5.7-8.5 2.2-.6 2.5-1.1 2.3-4.4-.2-3 .7-5.1 4.6-11 2.7-3.9 6.9-9.6 9.5-12.6 4.2-4.9 5.4-7 4.1-7-.3 0-3.1 3.3-6.2 7.3zm-173 38.4c.9.2 2.5.2 3.5 0 .9-.3.1-.5-1.8-.5-1.9 0-2.7.2-1.7.5zM138.5 531c.3 3 .5 6.6.5 7.9 0 2.3.1 2.3 7.3 1.7 8.2-.8 10.7-1.4 10.7-2.6 0-.4-3.6-.6-7.9-.3l-7.9.6-1.6-6.4-1.6-6.4.5 5.5zm271.3-2.3c.7.3 1.6.2 1.9-.1.4-.3-.2-.6-1.3-.5-1.1 0-1.4.3-.6.6zm17.2 1.8c12.2 1.1 16.4.9 12.4-.6-1-.4-7.1-.7-13.4-.7l-11.5.1 12.5 1.2zm17 2c-1.2 1.5-4 14.1-4 18.2 0 2.6 4.7 4.3 11.8 4.3 4.9 0 5.2-.6 7.2-10.8 1.6-7.9.9-10.7-3.1-12.1-4.5-1.6-10.4-1.4-11.9.4zm7 8.2c0 1-.5 3.5-1.1 5.5-1.1 4.3-3.5 5.4-2.5 1.2.4-1.5 1-3.9 1.3-5.5.6-3.2 2.3-4 2.3-1.2zm-263.7-6.4c-5.1.5-9.3 1.3-9.3 1.7 0 .8 8.3.2 20-1.5 6.8-1 7.5-1.2 3.5-1.2-2.7 0-9.2.4-14.2 1zm235.8 17.9c.2 19.1 1.4 52.1 1.7 46.3.1-1.7 1.1-14.5 2.2-28.5s2-28.1 2-31.3c0-5.7 0-5.7-3-5.7h-3l.1 19.2zm-257.6-15.5c-5.4.8-6.5 2.7-6.5 11.4 0 4.3.4 8.9 1 10.3.8 2.3 1.5 2.6 5.7 2.5 2.7 0 6.4-.6 8.3-1.2 2.8-1 3.5-1.7 3.3-3.7-1.5-21-1.3-20.8-11.8-19.3zm3.5 13.9c0 3.4-.4 5.3-1 4.9-.5-.3-1-2.8-1-5.6 0-2.7.5-4.9 1-4.9.6 0 1 2.5 1 5.6zm19.4-11.3c-.3.8.7 11.7 2.1 24.3 1.4 12.6 3.1 26.9 3.6 31.9.5 4.9 1.2 9.4 1.4 10 .6 1.4-.5-58-1.1-63.3-.5-3.7-.8-4.2-3-4.2-1.4 0-2.7.6-3 1.3zm-47.3 14.3c0 1.1.3 1.4.6.6.3-.7.2-1.6-.1-1.9-.3-.4-.6.2-.5 1.3zm158 66.6c0 3.7-.5 7-1.1 7.3-1.5.9-1.2 3.1.6 4.9 1.4 1.5 2.5 7.2 3.8 19.1.2 2.2.2-.8 0-6.6-.3-8.6-.1-10.9 1.1-11.9 2.1-1.8 1.9-5.5-.5-7.1-1.3-.9-2.3-3.2-2.9-6.9l-.9-5.5-.1 6.7z"/></svg>