<svg width="137" height="36" viewBox="0 0 137 36" fill="none" xmlns="http://www.w3.org/2000/svg">
<path d="M23.5766 17.7305C23.1753 17.5069 22.595 17.2838 21.7916 17.1053C22.5499 16.8372 23.1305 16.5245 23.5766 16.1674C23.9787 15.81 24.336 15.3642 24.559 14.8727C24.8268 14.3812 24.9158 13.8904 24.9158 13.3544C24.9158 12.596 24.6928 11.9259 24.2465 11.301C23.8002 10.676 23.1753 10.1851 22.3714 9.87249C22.0591 9.73843 21.6575 9.64915 21.2557 9.55987V6.65758H18.4432V9.33653H16.6577V6.65758H13.8457V9.33653H9.56027V11.6133H10.2299C10.6314 11.6133 10.944 11.6578 11.078 11.7474C11.2566 11.8364 11.3455 11.9259 11.4348 12.06C11.4796 12.1938 11.5247 12.5064 11.5247 12.9979V22.15C11.5247 22.5967 11.4796 22.9096 11.4348 23.0431C11.3455 23.1771 11.2566 23.3112 11.078 23.3557C10.944 23.4447 10.6314 23.4898 10.2299 23.4898H9.56027V25.7668H13.8457V28.4455H16.6577V25.7668H18.2205C18.3095 25.7668 18.3543 25.7668 18.4432 25.7668V28.4455H21.2557V25.4987C21.702 25.4094 22.1483 25.3201 22.506 25.1861C23.4431 24.7842 24.202 24.2488 24.7372 23.4898C25.2731 22.7752 25.5412 21.9717 25.5412 21.0789C25.5412 20.3647 25.3627 19.6944 25.0053 19.1142C24.6483 18.534 24.202 18.0873 23.5766 17.7305ZM15.631 12.0152H17.4168C18.4877 12.0152 19.2021 12.06 19.6484 12.1938C20.0505 12.3278 20.3628 12.5509 20.5864 12.8635C20.8091 13.1758 20.8987 13.5332 20.8987 13.9354C20.8987 14.3813 20.8091 14.7387 20.5413 15.0513C20.3178 15.3642 20.0055 15.5872 19.5147 15.7658C19.0687 15.8999 18.3987 15.9891 17.4168 15.9891H15.631V12.0152ZM20.7199 22.15C20.4073 22.5519 20.0054 22.82 19.5594 22.9535C19.1131 23.0879 18.5328 23.1326 17.8184 23.1326H16.6135C16.2117 23.1326 15.9436 23.1326 15.854 23.0879C15.765 23.0431 15.72 22.9535 15.676 22.82C15.631 22.7752 15.631 22.4626 15.631 21.9717V18.4H17.7736C18.7113 18.4 19.3806 18.4892 19.872 18.6675C20.3177 18.8466 20.6754 19.1142 20.8987 19.4268C21.1217 19.7836 21.2106 20.1856 21.2106 20.677C21.2106 21.2575 21.0772 21.7484 20.7199 22.15ZM3.72167 17.5514C3.72167 7.83618 13.5802 1.04182 22.7047 4.72024C27.8578 6.80105 31.3798 11.8198 31.3798 17.5514C31.3798 21.4029 29.7959 24.8909 27.2472 27.4007C24.7401 29.8708 21.5138 31.1994 18.2573 31.3652C10.3269 31.7665 3.72167 25.4228 3.72167 17.5514ZM35.1014 17.5514C35.1014 12.4311 32.8976 7.81737 29.3898 4.60559C29.3892 4.60531 29.3892 4.60528 29.3892 4.60528C26.7119 2.15367 23.3147 0.565467 19.6418 0.126772C9.11481 -1.13027 0 7.1265 0 17.5514C0 29.3288 11.4413 37.8178 22.7318 34.3242C25.4291 33.4888 27.8769 32.0092 29.8772 30.0325C29.8772 30.0325 29.8783 30.0317 29.8789 30.0311C33.1 26.847 35.1014 22.4295 35.1014 17.5514Z" fill="#4D4D4D"/>
<path d="M29.389 4.60563C29.3308 4.54801 29.0037 4.26762 28.9415 4.21457C28.7334 4.0363 28.8294 4.10561 28.356 3.73451C28.1071 3.53941 28.204 3.60414 27.5669 3.15033L24.8819 5.83586C25.5447 6.25145 26.1718 6.72039 26.7528 7.23924C29.5892 9.77415 31.379 13.4571 31.379 17.5514C31.379 21.403 29.7951 24.8909 27.2464 27.4007C26.6201 28.0186 25.9306 28.5702 25.1962 29.0603L27.8704 31.7352C28.5805 31.2164 29.2521 30.649 29.8764 30.0326C29.8764 30.0326 29.8775 30.0318 29.8781 30.0312C33.0993 26.8471 35.1006 22.4296 35.1006 17.5514C35.1006 12.4311 32.8968 7.81742 29.389 4.60563Z" fill="#F7931A"/>
<path d="M18.6708 12.0482C19.0832 12.0756 19.4069 12.1218 19.6481 12.194C20.0503 12.328 20.3626 12.5511 20.5861 12.8637C20.8089 13.1761 20.8984 13.5335 20.8984 13.9357C20.8984 14.3815 20.8089 14.7389 20.5411 15.0515C20.3175 15.3644 20.0052 15.5875 19.5144 15.766C19.0684 15.9001 18.3985 15.9894 17.4166 15.9894H15.6307V15.0889L13.4294 17.2909L15.6307 19.4932V18.4002H17.7733C18.711 18.4002 19.3804 18.4895 19.8717 18.6677C20.3175 18.8469 20.6751 19.1144 20.8984 19.4271C21.1214 19.7839 21.2104 20.1858 21.2104 20.6773C21.2104 21.2577 21.0769 21.7486 20.7196 22.1502C20.407 22.5522 20.0052 22.8203 19.5591 22.9538C19.4419 22.9891 19.3139 23.0176 19.1781 23.0413L21.5714 25.4348C21.9082 25.3646 22.2325 25.2884 22.5057 25.1863C23.4428 24.7844 24.2017 24.249 24.737 23.49C25.2728 22.7755 25.5409 21.972 25.5409 21.0792C25.5409 20.3649 25.3624 19.6946 25.0051 19.1144C24.648 18.5343 24.2017 18.0876 23.5763 17.7308C23.175 17.5071 22.5947 17.2841 21.7913 17.1055C22.5496 16.8374 23.1303 16.5248 23.5763 16.1677C23.9784 15.8102 24.3357 15.3644 24.5587 14.8729C24.8265 14.3815 24.9155 13.8906 24.9155 13.3546C24.9155 12.5962 24.6925 11.9261 24.2462 11.3012C23.7999 10.6762 23.175 10.1853 22.3711 9.87271C22.0588 9.73865 21.6573 9.64937 21.2554 9.56009V9.46368L18.6708 12.0482Z" fill="#F7931A"/>
<path d="M65.9604 28.2765H68.4134V7.37256H65.9604V28.2765Z" fill="#F7931A"/>
<path d="M45.9954 22.7611C47.3081 22.7611 48.0439 21.9057 48.0439 20.712C48.0439 19.5379 47.2882 18.6825 45.9954 18.6825H43.25V22.7611H45.9954ZM45.7365 16.6128C46.8504 16.6128 47.4872 15.8175 47.4872 14.8024C47.4872 13.7878 46.8704 13.0519 45.6965 13.0519H43.25V16.6128H45.7365ZM40.6836 10.8433H45.7165C48.2826 10.8433 50.093 12.1565 50.093 14.4843C50.093 15.7979 49.4561 16.9314 48.3818 17.5084V17.5481C49.9341 18.0062 50.6696 19.4383 50.6696 20.8711C50.6696 23.6958 48.4018 24.9697 45.7961 24.9697H40.6836V10.8433Z" fill="#4D4D4D"/>
<path d="M52.8205 14.8223H55.347V24.9697H52.8205V14.8223ZM52.8205 10.8433H55.347V13.0918H52.8205V10.8433Z" fill="#4D4D4D"/>
<path d="M58.5502 16.971H57.2374V14.9612H58.6103V12.0566H61.0766V14.9612H63.384V16.971H61.0766V20.9304C61.0766 22.6016 62.3893 22.84 63.0857 22.84C63.2252 22.84 63.3441 22.8401 63.5435 22.8004V25.009C63.3441 25.029 63.1057 25.0686 62.7677 25.0686C61.3552 25.0686 58.5502 24.651 58.5502 21.2487V16.971Z" fill="#4D4D4D"/>
<path d="M77.8486 10.6044C79.6986 10.6044 81.6875 11.2011 83.0607 12.534L81.8273 14.4442C80.8325 13.5888 79.3407 12.9525 77.9681 12.9525C74.8647 12.9525 73.2337 15.2001 73.2337 17.8066C73.2337 20.4528 74.9243 22.8602 77.988 22.8602C79.4998 22.8602 81.0117 22.1243 82.086 21.07L83.4386 22.9201C82.2251 24.1532 80.4144 25.208 77.8882 25.208C73.4524 25.208 70.588 22.0048 70.588 17.8463C70.588 13.748 73.5916 10.6044 77.8486 10.6044Z" fill="#4D4D4D"/>
<path d="M85.2888 10.8433H87.795V21.4276C87.795 22.5423 88.1729 22.8207 88.8296 22.8207C88.9292 22.8207 89.0683 22.8207 89.2075 22.8007V25.0093C89.0284 25.0293 88.7501 25.0689 88.4122 25.0689C87.019 25.0689 85.2888 24.7109 85.2888 21.8061V10.8433Z" fill="#4D4D4D"/>
<path d="M90.9409 14.8224H93.4674V20.8315C93.4674 22.0646 93.7857 22.9 95.0385 22.9C96.8694 22.9 97.8832 21.2885 97.8832 19.4783V14.8224H100.39V24.9697H97.9633V23.7754C97.9633 23.3981 98.0229 23.0797 98.0229 23.0797H97.983C97.5053 24.1137 96.1926 25.2082 94.4624 25.2082C92.2736 25.2082 90.9409 24.1137 90.9409 21.3481V14.8224Z" fill="#4D4D4D"/>
<path d="M103.433 22.0447C104.189 22.741 105.303 23.1592 106.318 23.1592C107.213 23.1592 107.73 22.7807 107.73 22.1443C107.73 20.5527 102.698 20.9506 102.698 17.6275C102.698 15.6383 104.448 14.5835 106.576 14.5835C107.79 14.5835 109.063 14.9218 109.998 15.7378L109.063 17.5083C108.466 16.9909 107.392 16.6326 106.497 16.6326C105.622 16.6326 105.085 16.9712 105.085 17.6076C105.085 19.2192 110.118 18.762 110.118 22.0847C110.118 23.8748 108.606 25.208 106.278 25.208C104.865 25.208 103.354 24.7308 102.299 23.7157L103.433 22.0447Z" fill="#4D4D4D"/>
<path d="M112.703 16.971H111.39V14.9612H112.763V12.0566H115.23V14.9612H117.537V16.971H115.23V20.9304C115.23 22.6016 116.542 22.84 117.239 22.84C117.378 22.84 117.498 22.8401 117.696 22.8004V25.009C117.498 25.029 117.259 25.0686 116.921 25.0686C115.509 25.0686 112.703 24.651 112.703 21.2487V16.971Z" fill="#4D4D4D"/>
<path d="M126.073 18.6424C126.053 17.2895 125.177 16.4932 124.044 16.4932C122.751 16.4932 121.836 17.3492 121.597 18.6424H126.073ZM124.103 14.5835C127.008 14.5835 128.599 16.7125 128.599 19.3983C128.599 19.7169 128.559 20.0549 128.519 20.3733H121.537C121.696 22.1443 123.049 23.059 124.581 23.059C125.616 23.059 126.67 22.6018 127.485 21.9452L128.48 23.7556C127.445 24.6709 125.854 25.208 124.402 25.208C121.04 25.208 118.932 22.7807 118.932 19.8958C118.932 16.7721 121.06 14.5835 124.103 14.5835Z" fill="#4D4D4D"/>
<path d="M130.711 14.8222H133.138V16.6127C133.138 16.9909 133.098 17.3092 133.098 17.3092H133.138C133.595 15.8771 134.829 14.683 136.361 14.683C136.512 14.683 136.663 14.701 136.815 14.7198V17.2057C136.698 17.1874 136.425 17.17 136.221 17.17C134.153 17.17 133.237 18.9605 133.237 20.871V24.9696H130.711V14.8222Z" fill="#4D4D4D"/>
</svg>
