<svg width="137" height="27" viewBox="0 0 137 27" fill="none" xmlns="http://www.w3.org/2000/svg">
<path d="M67.6606 0.154804C68.4455 -0.105162 69.4442 0.092312 69.9079 0.824715C70.459 1.62461 70.1628 2.85445 69.2929 3.29814C68.3856 3.83932 67.0295 3.45312 66.6508 2.437C66.2408 1.56962 66.7583 0.448515 67.6606 0.154804Z" fill="black"/>
<path d="M73.0567 0.682247C74.0203 0.65725 74.9852 0.672248 75.9488 0.672248C75.9513 7.08765 75.9463 13.5018 75.9526 19.9172C74.9889 19.931 74.0266 19.926 73.0642 19.9222C73.0555 13.5093 73.0704 7.09515 73.0567 0.682247Z" fill="black"/>
<path d="M51.4555 0.727112C52.4004 0.734611 53.3453 0.728362 54.2914 0.732111C54.2964 3.28927 54.2776 5.84769 54.3014 8.40485C54.9725 7.37749 55.9474 6.50885 57.1485 6.17264C58.7758 5.68771 60.6893 5.86519 62.0504 6.94254C63.3214 7.96491 63.8014 9.66593 63.8051 11.2407C63.7976 14.1366 63.8264 17.0325 63.7914 19.9283C62.8503 19.9183 61.9091 19.9333 60.968 19.9208C60.968 17.1587 60.973 14.3953 60.9655 11.6332C60.9705 10.6196 60.613 9.46971 59.6544 8.97478C58.1534 8.26112 56.0749 8.54108 55.0663 9.94465C54.3789 10.8945 54.2514 12.1056 54.2901 13.2455C54.2914 15.4702 54.2914 17.6949 54.2914 19.9183C53.3465 19.9283 52.4016 19.9308 51.4568 19.9183C51.4568 13.5204 51.4618 7.12377 51.4555 0.727112Z" fill="black"/>
<path d="M79.2236 0.728394C80.1648 0.733393 81.1059 0.730893 82.0483 0.728394C82.0545 4.52914 82.0358 8.32989 82.0583 12.1306C84.0567 10.1771 86.0152 8.18241 87.9962 6.21017C89.1873 6.22392 90.3797 6.20267 91.572 6.22017C89.3698 8.41238 87.1076 10.5434 84.8941 12.7243C87.2951 15.1252 89.7247 17.4987 92.1169 19.9096C90.9158 19.9271 89.7097 19.9496 88.5112 19.9021C86.3152 17.8561 84.2317 15.6877 82.0545 13.6217C82.0408 15.7214 82.052 17.8224 82.0483 19.9221C81.1046 19.9246 80.161 19.9321 79.2186 19.9184C79.2224 13.5217 79.2136 7.12505 79.2236 0.728394Z" fill="black"/>
<path d="M127.197 3.09933C128.144 2.91686 129.08 2.68189 130.027 2.49316C130.029 3.7305 130.024 4.96784 130.03 6.20643C131.904 6.22642 133.779 6.20642 135.653 6.21517C135.651 7.09256 135.66 7.97119 135.651 8.84858C133.777 8.85108 131.904 8.84358 130.03 8.85233C130.03 10.8483 130.015 12.8443 130.037 14.8403C130.048 15.8789 130.519 17.04 131.566 17.4137C132.921 17.9086 134.324 17.3287 135.637 16.9738C135.818 17.7224 135.935 18.4861 136.142 19.2297C134.901 19.8696 133.51 20.2558 132.108 20.2133C130.806 20.2283 129.46 19.7584 128.576 18.7798C127.649 17.8049 127.283 16.4376 127.204 15.1265C127.184 13.0343 127.204 10.9421 127.194 8.84858C126.346 8.84983 125.498 8.84483 124.65 8.85108C124.655 7.97369 124.647 7.09506 124.655 6.21767C125.502 6.21017 126.351 6.21642 127.199 6.21392C127.192 5.17656 127.201 4.13795 127.197 3.09933Z" fill="black"/>
<path d="M37.266 7.64887C39.9456 5.28294 44.445 5.33918 46.9947 7.87384C47.9221 8.75998 48.4983 9.95482 48.762 11.1997C47.7896 11.2122 46.8172 11.2047 45.8449 11.1984C45.5611 10.3548 45.0137 9.58737 44.2376 9.13368C42.8678 8.31629 41.033 8.34003 39.6807 9.18742C38.0371 10.2285 37.421 12.4245 37.8659 14.253C38.1484 15.7516 39.3045 17.0551 40.7855 17.4551C41.9079 17.7313 43.1565 17.6376 44.1651 17.0414C44.9762 16.5927 45.5437 15.7928 45.8424 14.9279C46.816 14.9079 47.7896 14.9167 48.762 14.9242C48.4195 16.6089 47.4384 18.185 45.9611 19.0974C44.3763 20.1397 42.3791 20.4222 40.5318 20.091C38.8308 19.7598 37.246 18.7962 36.2411 17.3738C34.1327 14.4842 34.5264 10.0048 37.266 7.64887Z" fill="black"/>
<path d="M98.1627 6.06017C99.8425 5.71897 101.64 6.01143 103.135 6.84882C104.928 7.84993 106.195 9.69219 106.548 11.7107C106.76 13.0755 106.682 14.5128 106.16 15.8026C105.577 17.3574 104.389 18.6698 102.913 19.4259C101.246 20.2908 99.2363 20.4533 97.4415 19.9146C95.8117 19.4322 94.3707 18.3286 93.502 16.865C92.3734 15.0215 92.1735 12.6693 92.8671 10.6358C93.6395 8.30238 95.7455 6.49261 98.1627 6.06017ZM98.7864 8.68108C97.6628 8.88105 96.6204 9.54721 96.0192 10.5233C94.8131 12.4268 95.1318 15.2465 96.9441 16.6638C98.6339 18.0036 101.344 17.7924 102.743 16.1276C104.332 14.2966 104.167 11.147 102.282 9.57846C101.33 8.78606 100.004 8.42736 98.7864 8.68108Z" fill="black"/>
<path d="M114.66 6.07394C116.463 5.69274 118.412 6.0302 119.975 7.01007C121.523 7.96369 122.641 9.56723 123.036 11.3382C123.41 12.8256 123.272 14.4216 122.72 15.8464C122.069 17.5162 120.737 18.9023 119.094 19.6172C117.487 20.3208 115.622 20.4108 113.949 19.8959C112.15 19.3459 110.603 18.0324 109.78 16.3401C109.038 14.8103 108.831 13.023 109.233 11.3682C109.789 8.73484 112.014 6.56513 114.66 6.07394ZM115.404 8.66985C114.482 8.84108 113.6 9.28227 112.985 9.99718C111.398 11.8069 111.507 14.914 113.345 16.5113C114.434 17.4837 116.058 17.7949 117.441 17.3425C118.648 16.9863 119.653 16.0214 120.083 14.8403C120.414 13.9829 120.447 13.033 120.312 12.1319C120.08 10.7633 119.151 9.52224 117.871 8.96856C117.097 8.6511 116.231 8.49362 115.404 8.66985Z" fill="black"/>
<path d="M66.9483 6.21535C67.8794 6.2091 68.8106 6.2166 69.7429 6.21535C69.7629 10.7847 69.7492 15.3541 69.7492 19.9235C68.8168 19.9223 67.8832 19.9348 66.9508 19.9198C66.9495 15.3516 66.9546 10.7835 66.9483 6.21535Z" fill="black"/>
<path d="M7.68085 5.59602L5.7551 2.24294C5.32464 2.53747 4.93949 2.83199 4.55433 3.17183L7.2957 5.9132C7.40898 5.79992 7.54492 5.7093 7.68085 5.59602ZM7.43164 1.29139L9.3574 4.64447C9.51599 4.5765 9.67458 4.50854 9.83317 4.44057L8.83631 0.702336C8.33788 0.860928 7.88476 1.06483 7.43164 1.29139ZM11.691 3.94213C11.8495 3.91948 12.0308 3.89683 12.1894 3.87417V0C11.6683 0.0453119 11.1699 0.113278 10.6714 0.203902L11.691 3.94213ZM5.91369 7.27256L3.17232 4.53119C2.83248 4.91634 2.53795 5.32415 2.24343 5.73195L5.59651 7.65771C5.70979 7.54443 5.82307 7.4085 5.91369 7.27256ZM4.64496 9.3569L1.29188 7.4085C1.06532 7.86162 0.88407 8.33739 0.702822 8.81316L4.44105 9.81002C4.50902 9.65143 4.57699 9.5155 4.64496 9.3569ZM14.1151 3.87417C14.2964 3.89683 14.455 3.91948 14.6136 3.94213L15.6104 0.203902C15.112 0.113278 14.6136 0.0453119 14.0925 0V3.87417H14.1151ZM18.8955 1.29139C18.4424 1.06483 17.9667 0.883583 17.4909 0.702336L16.494 4.44057C16.6526 4.50854 16.8112 4.5765 16.9698 4.64447L18.8955 1.29139ZM3.94262 11.6905L0.20439 10.6936C0.113767 11.192 0.0458002 11.6905 0.000488281 12.2116H3.87466C3.89731 12.0077 3.91997 11.8491 3.94262 11.6905Z" fill="#A0F200"/>
<path d="M21.1152 13.9564C19.8465 13.9564 18.4192 13.1407 18.4192 13.1407L13.9333 10.558C13.4575 10.2861 12.8911 10.2861 12.4153 10.558L11.1919 11.2603C10.8068 11.5548 10.5122 11.9626 10.3763 12.4384C10.2404 12.9822 10.3083 13.5486 10.5802 14.047C10.7615 14.3642 11.0107 14.6134 11.3279 14.7946L11.3732 14.8173L14.9528 16.9016C15.4512 17.1962 15.8817 17.6266 16.1762 18.1477C17.1051 19.7789 16.5614 21.8633 14.9301 22.7922L14.8622 22.8375L9.606 25.896C10.6708 26.1679 11.8489 26.3265 13.163 26.3265C17.1957 26.3265 20.0051 24.8765 21.9762 22.9508C24.3777 20.7758 25.9863 17.7399 26.3034 14.3415C26.3487 14.0923 26.3714 13.9564 26.3714 13.9564H21.1152ZM15.0661 18.8047C14.8848 18.4875 14.6356 18.2383 14.3184 18.0571L14.2958 18.0344L10.7161 15.9501C10.1951 15.6556 9.78725 15.2251 9.49272 14.704C9.10757 14.0243 8.97163 13.2767 9.08491 12.5064L7.9068 13.1861C7.63493 13.3447 6.41151 13.9564 5.27871 13.9564L0.158469 13.9337C0.158469 13.9337 0.158469 13.9564 0.158469 13.979H-0.00012207C0.249093 17.8305 2.12954 21.2063 4.96153 23.4719C5.7998 24.2195 6.81932 24.8539 7.97477 25.3523L14.3411 21.6594C15.3153 21.0703 15.6325 19.8016 15.0661 18.8047Z" fill="black"/>
<path d="M21.8632 9.81037L25.6014 8.81351C25.4428 8.33774 25.2389 7.86197 25.0124 7.40885L21.6593 9.3346C21.7499 9.4932 21.8179 9.65178 21.8632 9.81037ZM20.7077 7.68072L24.0608 5.75496C23.7663 5.3245 23.4718 4.93935 23.1319 4.5542L20.3906 7.29557C20.5038 7.40885 20.6171 7.54478 20.7077 7.68072ZM19.0312 5.91355L21.7726 3.17218C21.3874 2.83234 20.9796 2.53781 20.5718 2.24329L18.6461 5.59637C18.7593 5.70965 18.8953 5.80027 19.0312 5.91355ZM22.4296 12.1892H26.3038C26.2585 11.6682 26.1905 11.1697 26.0999 10.6713L22.3616 11.6682C22.4069 11.8494 22.4296 12.008 22.4296 12.1892Z" fill="#FF005E"/>
</svg>
