<svg width="115" height="22" viewBox="0 0 115 22" fill="none" xmlns="http://www.w3.org/2000/svg">
<path fill-rule="evenodd" clip-rule="evenodd" d="M33.0871 0.275623C33.4807 0.270774 33.8736 0.301593 34.2615 0.367769C34.5721 0.421108 34.8672 0.541182 35.1265 0.720027C35.3906 0.912562 35.6158 1.15274 35.7906 1.42828C36.0268 1.80536 36.2281 2.20242 36.393 2.61516L42.8208 17.4153C42.889 17.5904 43.062 17.702 43.25 17.6926H43.6204C43.8084 17.7017 43.9812 17.5901 44.0497 17.4153L50.4829 2.61856C50.6472 2.20554 50.8485 1.80822 51.0849 1.4317C51.2594 1.15474 51.4847 0.913418 51.7494 0.720027C52.0038 0.542323 52.2938 0.421384 52.5995 0.365763C52.9819 0.298732 53.3701 0.267913 53.7585 0.273618H57.0641C58.1373 0.273618 58.8585 0.51494 59.2267 0.998134C59.5951 1.48104 59.7805 2.30794 59.7828 3.47884V21.1739C59.7828 21.6263 59.5458 21.8525 59.0724 21.8525H55.9211C55.4673 21.8525 55.2406 21.6263 55.242 21.1739V5.08417C55.242 4.8788 55.1593 4.77612 54.9948 4.77612H54.7198C54.5456 4.75672 54.38 4.85798 54.3184 5.02228L48.0776 18.8281C47.8666 19.3164 47.6136 19.7854 47.321 20.23C47.0891 20.5815 46.8082 20.8983 46.4871 21.1707C46.1894 21.4172 45.8415 21.5957 45.4673 21.695C45.0281 21.8051 44.5764 21.8568 44.1238 21.8491H42.6351C42.1822 21.857 41.7305 21.8057 41.2913 21.6962C40.9174 21.5972 40.5695 21.4183 40.2718 21.1719C39.9501 20.8998 39.6692 20.5829 39.4379 20.2312C39.145 19.7865 38.8921 19.3173 38.6813 18.8292L32.4392 5.02228C32.3776 4.85798 32.2124 4.75672 32.0376 4.77612H31.7596C31.5944 4.77612 31.5129 4.88308 31.5129 5.08417V21.1739C31.5129 21.6263 31.2865 21.8525 30.8333 21.8525H27.6803C27.206 21.8525 26.969 21.6263 26.9696 21.1739V3.48085C26.9696 2.30938 27.1553 1.48248 27.5257 1.00014C27.8965 0.518087 28.6277 0.276194 29.7194 0.275623H33.0871Z" fill="#6B5CEA"/>
<path fill-rule="evenodd" clip-rule="evenodd" d="M95.0117 17.1676C95.0117 17.3893 95.1892 17.5687 95.4079 17.5687H105.4C106.159 17.5844 106.917 17.5019 107.654 17.3225C108.208 17.189 108.716 16.9129 109.132 16.5207C109.53 16.1114 109.809 15.5994 109.94 15.0412C110.116 14.2942 110.198 13.5274 110.183 12.7596V9.3678C110.198 8.59994 110.116 7.83325 109.94 7.08621C109.809 6.52771 109.53 6.01597 109.132 5.60637C108.716 5.21445 108.207 4.93836 107.654 4.80459C106.917 4.62574 106.159 4.54303 105.4 4.55843H95.4028C95.1384 4.55843 95.0066 4.70188 95.0066 4.98826L95.0117 17.1676ZM105.521 0.27301C107.166 0.27301 108.578 0.442144 109.756 0.781006C110.934 1.12015 111.898 1.64385 112.65 2.35324C113.424 3.09885 113.997 4.03331 114.312 5.06701C114.666 6.16689 114.844 7.4667 114.844 8.96705V13.158C114.844 14.6584 114.666 15.9582 114.312 17.0581C113.997 18.0915 113.426 19.026 112.652 19.7719C111.901 20.481 110.936 21.0049 109.758 21.3441C108.58 21.6829 107.169 21.8524 105.524 21.8524H91.2598C90.7547 21.8518 90.3461 21.4376 90.3461 20.9271V1.34778C90.3461 0.753912 90.8215 0.27301 91.4084 0.27301H105.521Z" fill="#6B5CEA"/>
<path fill-rule="evenodd" clip-rule="evenodd" d="M0.850432 0.27301H22.5231C22.9928 0.27301 23.3735 0.656359 23.3735 1.12929V3.91237C23.3735 4.3853 22.9928 4.76868 22.5231 4.76868H0.850432C0.380446 4.76868 0 4.3853 0 3.91237V1.12929C0 0.656359 0.380446 0.27301 0.850432 0.27301Z" fill="#6B5CEA"/>
<path fill-rule="evenodd" clip-rule="evenodd" d="M0.850432 17.3566H22.5231C22.9928 17.3566 23.3735 17.7399 23.3735 18.2126V20.9959C23.3735 21.4688 22.9928 21.8522 22.5231 21.8522H0.850432C0.380446 21.8522 0 21.4688 0 20.9959V18.2126C0 17.7399 0.380446 17.3566 0.850432 17.3566Z" fill="#6B5CEA"/>
<path fill-rule="evenodd" clip-rule="evenodd" d="M10.8368 8.81409H0.849819C0.380404 8.81409 0 9.19746 0 9.67038V12.4534C0 12.9263 0.380404 13.3097 0.849819 13.3097H10.8368C11.3062 13.3097 11.6866 12.9263 11.6866 12.4534V9.67038C11.6866 9.19746 11.3062 8.81409 10.8368 8.81409Z" fill="#6B5CEA"/>
<path fill-rule="evenodd" clip-rule="evenodd" d="M85.8604 0.27301C86.311 0.27301 86.7499 0.604446 86.7499 1.05427V4.0604C86.7499 4.53105 86.5249 4.76637 86.0737 4.76637H72.3865C71.5863 4.76637 70.7116 4.72584 70.1891 4.85876C69.7192 4.96316 69.2874 5.19708 68.9437 5.53395C68.6138 5.89306 68.3854 6.33346 68.2824 6.80952C68.1358 7.47241 68.0688 8.15041 68.0831 8.82928V13.1877C68.0688 13.8731 68.1358 14.5577 68.2824 15.2277C68.3836 15.7081 68.6115 16.1528 68.9437 16.5159C69.2868 16.853 69.7186 17.0872 70.1891 17.191C70.9075 17.3776 71.6447 17.4803 72.3865 17.4974H86.0737C86.5249 17.4974 86.7499 17.7221 86.7499 18.172V21.1772C86.7499 21.6273 86.5249 21.8524 86.0737 21.8524H72.2025C70.7923 21.8478 69.3872 21.669 68.0209 21.321C66.9335 21.0375 66.0465 20.5722 65.3601 19.925C64.6734 19.2781 64.1712 18.4381 63.8526 17.4058C63.5349 16.3733 63.3761 15.1205 63.3764 13.6478V8.37092C63.3764 6.89852 63.5355 5.65059 63.8526 4.62801C64.1706 3.60543 64.6731 2.77199 65.3601 2.12792C66.0465 1.48385 66.9335 1.0135 68.0209 0.717134C69.1086 0.421058 70.4313 0.27301 71.9893 0.27301H85.8604Z" fill="#6B5CEA"/>
</svg>
