<svg width="140" height="20" viewBox="0 0 140 20" fill="none" xmlns="http://www.w3.org/2000/svg">
<path d="M8.67782 14.4375L15.1095 0.291555C15.1483 0.20353 15.204 0.133412 15.2771 0.082464C15.3552 0.0277323 15.4447 0 15.5437 0C15.7042 0 15.838 0.0559957 15.9421 0.166972C16.0313 0.261555 16.0906 0.392198 16.1198 0.558159C16.7874 4.23275 17.1533 11.6493 17.3556 15.5983C17.3556 15.7183 17.3256 15.8384 17.2664 15.9567C17.179 16.1314 17.0356 16.22 16.837 16.22C16.7566 16.22 16.6828 16.2058 16.6162 16.1796C16.5437 16.1499 16.4817 16.1077 16.4293 16.0522C16.3768 15.997 16.337 15.9314 16.3116 15.8565C16.2899 15.7925 16.2786 15.7229 16.2775 15.6484L15.2085 2.69673L9.18409 15.9889C9.13672 16.1004 9.07271 16.1884 8.99207 16.252C8.89756 16.3264 8.78895 16.3635 8.66748 16.3635C8.44143 16.3635 8.27637 16.2384 8.17179 15.9889L2.14683 2.69673L1.07808 15.6484C1.07707 15.7229 1.06548 15.7925 1.04381 15.8565C1.01734 15.9319 0.978788 15.9968 0.927379 16.0512C0.874962 16.107 0.812214 16.1496 0.740393 16.1786C0.671343 16.2058 0.597504 16.22 0.518627 16.22C0.424628 16.22 0.339954 16.1973 0.265612 16.1524C0.189254 16.1057 0.130537 16.0404 0.0892079 15.9577C0.0299866 15.8384 0 15.7183 0 15.5983C0.205133 11.592 0.569278 4.30892 1.23558 0.558159C1.26456 0.392703 1.32429 0.261807 1.41325 0.166972C1.51758 0.0562479 1.65063 0 1.81192 0C1.9107 0 2.00017 0.0277323 2.07854 0.082464C2.15137 0.133412 2.20732 0.20353 2.24613 0.291555L8.67782 14.4375ZM19.2537 6.16852C19.2537 5.80229 19.4437 5.61893 19.8235 5.61893C20.1831 5.61893 20.3626 5.80229 20.3626 6.16852V15.6497C20.3626 15.8159 20.3147 15.9488 20.2202 16.0472C20.1216 16.1486 19.9898 16.1993 19.8235 16.1993C19.4437 16.1993 19.2537 16.0159 19.2537 15.6497V6.16852ZM18.9254 2.88161C18.9254 2.76433 18.9473 2.65207 18.9904 2.54816C19.0337 2.44273 19.0977 2.3479 19.1801 2.26517C19.2653 2.18118 19.3593 2.11812 19.4619 2.07625C19.5645 2.03439 19.6746 2.01347 19.7928 2.01347C19.911 2.01347 20.0226 2.0344 20.1264 2.07677C20.2295 2.11839 20.3238 2.18144 20.4077 2.26517C20.4921 2.35017 20.5553 2.44451 20.5969 2.54766C20.6393 2.65158 20.6602 2.76332 20.6602 2.88161C20.6602 2.9999 20.6393 3.11036 20.5974 3.21302C20.5556 3.31592 20.4921 3.40975 20.4087 3.49349C20.2403 3.66323 20.0332 3.74975 19.7928 3.74975C19.6741 3.74975 19.5632 3.72755 19.4599 3.68467C19.355 3.63978 19.2618 3.57622 19.1801 3.4945C19.0985 3.41278 19.0352 3.31971 18.9914 3.21605C18.9473 3.11163 18.9254 3.0004 18.9254 2.88161ZM24.0779 15.6497C24.0779 15.8179 24.028 15.9521 23.9284 16.0512C23.8286 16.1499 23.6943 16.1993 23.5252 16.1993C23.1634 16.1993 22.9791 16.0159 22.9791 15.6497V6.16852C22.9791 6.00079 23.0288 5.86711 23.1271 5.76824C23.2251 5.66912 23.3584 5.61893 23.5252 5.61893C23.8957 5.61893 24.0779 5.80229 24.0779 6.16852L24.0819 6.88761C24.1555 6.80287 24.2321 6.72064 24.3117 6.64195C24.5771 6.38014 24.876 6.15338 25.2066 5.96371C25.5425 5.77253 25.8974 5.62928 26.2711 5.53445C26.6441 5.44037 27.0357 5.39294 27.4457 5.39294C27.7509 5.39294 28.0487 5.4222 28.3388 5.47996C28.6299 5.53923 28.9119 5.62677 29.1828 5.74203C29.4529 5.85755 29.7064 5.99448 29.9428 6.15288C30.1792 6.31152 30.3982 6.49162 30.599 6.69239C30.8006 6.89442 30.9806 7.11333 31.1388 7.34966C31.2981 7.58675 31.4349 7.83949 31.5496 8.10659C31.6648 8.37647 31.7522 8.65819 31.8104 8.94975C31.8691 9.23981 31.8984 9.53895 31.8984 9.8459V15.6497C31.8984 16.0159 31.7152 16.1993 31.349 16.1993C30.9831 16.1993 30.7996 16.0159 30.7996 15.6497V9.80476C30.7938 9.57449 30.7669 9.34802 30.7197 9.12808C30.6731 8.90915 30.6063 8.69929 30.5202 8.50054C30.3458 8.09673 30.1066 7.74591 29.8047 7.4503C29.6535 7.302 29.4895 7.16958 29.3146 7.05431C29.1397 6.93955 28.9497 6.83892 28.745 6.75367C28.5442 6.66968 28.335 6.60663 28.1196 6.56552C27.9026 6.52365 27.675 6.50271 27.4389 6.50271C27.2055 6.50271 26.982 6.52264 26.7688 6.56249C26.5543 6.60183 26.3459 6.66287 26.1433 6.74434C25.941 6.8253 25.7507 6.92341 25.5743 7.03641C25.3986 7.14915 25.2364 7.27754 25.0892 7.42055C24.94 7.56507 24.8052 7.72271 24.686 7.89346C24.5675 8.06144 24.4634 8.24504 24.3735 8.44278C24.2843 8.63976 24.215 8.84433 24.1661 9.05468C24.1169 9.2668 24.0872 9.48647 24.0774 9.7122L24.0779 15.6497ZM34.3201 6.16852C34.3201 5.80229 34.5102 5.61893 34.8897 5.61893C35.2495 5.61893 35.429 5.80229 35.429 6.16852V15.6497C35.429 15.8159 35.3811 15.9488 35.2866 16.0472C35.1881 16.1486 35.0563 16.1993 34.8897 16.1993C34.5102 16.1993 34.3201 16.0159 34.3201 15.6497V6.16852ZM33.9918 2.88161C33.9918 2.76433 34.0137 2.65207 34.0568 2.54816C34.1001 2.44273 34.1642 2.3479 34.2466 2.26517C34.3317 2.18118 34.4257 2.11812 34.5283 2.07625C34.6309 2.03439 34.741 2.01347 34.8592 2.01347C34.9774 2.01347 35.089 2.0344 35.1928 2.07677C35.2959 2.11839 35.3902 2.18144 35.4741 2.26517C35.5585 2.35017 35.6218 2.44451 35.6633 2.54766C35.7057 2.65158 35.7266 2.76332 35.7266 2.88161C35.7266 2.9999 35.7057 3.11036 35.6638 3.21302C35.622 3.31592 35.5585 3.40975 35.4751 3.49349C35.3068 3.66323 35.0996 3.74975 34.8592 3.74975C34.7405 3.74975 34.6296 3.72755 34.5263 3.68467C34.4215 3.63978 34.3282 3.57622 34.2466 3.4945C34.1649 3.41278 34.1017 3.31971 34.0578 3.21605C34.0137 3.11163 33.9918 3.0004 33.9918 2.88161ZM39.1443 15.6497C39.1443 15.8179 39.0944 15.9521 38.9949 16.0512C38.8951 16.1499 38.7607 16.1993 38.5916 16.1993C38.2298 16.1993 38.0455 16.0159 38.0455 15.6497V6.16852C38.0455 6.00079 38.0952 5.86711 38.1935 5.76824C38.2915 5.66912 38.4248 5.61893 38.5916 5.61893C38.9621 5.61893 39.1443 5.80229 39.1443 6.16852L39.1483 6.88761C39.2219 6.80287 39.2985 6.72064 39.3782 6.64195C39.6435 6.38014 39.9424 6.15338 40.273 5.96371C40.6089 5.77253 40.9638 5.62928 41.3375 5.53445C41.7105 5.44037 42.1021 5.39294 42.5121 5.39294C42.8173 5.39294 43.1151 5.4222 43.4052 5.47996C43.6963 5.53923 43.9783 5.62677 44.2492 5.74203C44.5193 5.85755 44.7728 5.99448 45.0092 6.15288C45.2456 6.31152 45.4646 6.49162 45.6654 6.69239C45.8671 6.89442 46.047 7.11333 46.2052 7.34966C46.3645 7.58675 46.5014 7.83949 46.616 8.10659C46.7312 8.37647 46.8186 8.65819 46.8768 8.94975C46.9356 9.23981 46.9648 9.53895 46.9648 9.8459V15.6497C46.9648 16.0159 46.7816 16.1993 46.4154 16.1993C46.0495 16.1993 45.866 16.0159 45.866 15.6497V9.80476C45.8602 9.57449 45.8333 9.34802 45.7862 9.12808C45.7395 8.90915 45.6728 8.69929 45.5866 8.50054C45.4122 8.09673 45.173 7.74591 44.8711 7.4503C44.7199 7.302 44.5559 7.16958 44.381 7.05431C44.2061 6.93955 44.0161 6.83892 43.8114 6.75367C43.6106 6.66968 43.4014 6.60663 43.186 6.56552C42.969 6.52365 42.7414 6.50271 42.5053 6.50271C42.2719 6.50271 42.0484 6.52264 41.8352 6.56249C41.6208 6.60183 41.4123 6.66287 41.2097 6.74434C41.0074 6.8253 40.8171 6.92341 40.6407 7.03641C40.4651 7.14915 40.3028 7.27754 40.1556 7.42055C40.0064 7.56507 39.8716 7.72271 39.7524 7.89346C39.6339 8.06144 39.5299 8.24504 39.4399 8.44278C39.3507 8.63976 39.2814 8.84433 39.2325 9.05468C39.1834 9.2668 39.1536 9.48647 39.1438 9.7122L39.1443 15.6497ZM59.1369 14.4169V14.4683C59.1324 14.8383 59.1029 15.1977 59.0482 15.5471C58.9933 15.8987 58.9121 16.2412 58.806 16.5721C58.6992 16.9063 58.5651 17.2215 58.4056 17.5154C58.2456 17.8122 58.0583 18.0879 57.8464 18.3411C57.6339 18.5956 57.3928 18.8256 57.1239 19.0297C56.8565 19.233 56.5652 19.409 56.2512 19.5551C55.9324 19.7036 55.5867 19.8156 55.2165 19.8895C54.849 19.9632 54.4572 20 54.0411 20C53.8161 20 53.5893 19.9871 53.3619 19.9619C53.1382 19.9372 52.9144 19.8991 52.6926 19.8494C52.2536 19.75 51.8219 19.6121 51.3993 19.436L51.3709 19.4212C51.3104 19.3866 51.2582 19.3513 51.2151 19.317C51.1657 19.2779 51.1224 19.2355 51.0868 19.1924C51.0329 19.1278 50.9994 19.0504 50.9883 18.9619C50.9785 18.8882 50.9845 18.81 51.0067 18.7278L51.0216 18.6885C51.0513 18.6236 51.0863 18.5669 51.1249 18.5205C51.1703 18.4645 51.2239 18.4198 51.2829 18.3888C51.3562 18.35 51.4414 18.3356 51.5372 18.3454C51.605 18.3525 51.6793 18.3727 51.7605 18.4042C51.958 18.4806 52.1548 18.5515 52.3476 18.6161C52.5313 18.6781 52.7153 18.7354 52.898 18.7868C53.0694 18.8355 53.2402 18.8718 53.4086 18.8955C53.5754 18.919 53.7455 18.9311 53.9179 18.9311C54.1989 18.9311 54.4705 18.9102 54.7306 18.8683C54.9932 18.8264 55.2505 18.7626 55.501 18.6779C55.7457 18.5951 55.9768 18.4867 56.1922 18.3535C56.4079 18.2206 56.6101 18.0614 56.797 17.8776C56.983 17.6945 57.1506 17.4841 57.299 17.247C57.4482 17.0099 57.5795 16.7421 57.6924 16.4442C57.8046 16.1471 57.8887 15.8184 57.9442 15.4595C58.0001 15.0991 58.0281 14.6996 58.0281 14.2627V14.1803C57.9671 14.2749 57.9021 14.3677 57.8328 14.459C57.6786 14.6625 57.5105 14.8522 57.3303 15.0267C57.1491 15.2025 56.9545 15.3637 56.7479 15.5092C56.539 15.6565 56.3215 15.7869 56.0965 15.8989C55.8737 16.0104 55.6378 16.1067 55.3903 16.1864C55.1467 16.2654 54.8992 16.3252 54.6499 16.3648C54.3972 16.4049 54.1462 16.4253 53.8975 16.4253C53.5416 16.4253 53.1949 16.3882 52.8579 16.3151C52.5225 16.2419 52.1939 16.1309 51.8741 15.9839C51.5578 15.8386 51.262 15.6666 50.987 15.4689C50.7111 15.2706 50.4556 15.0467 50.2215 14.798C49.9856 14.548 49.7741 14.2761 49.5884 13.9836C49.4039 13.6927 49.2432 13.3797 49.1073 13.0458C48.972 12.7126 48.8694 12.3653 48.8014 12.0061C48.7331 11.6477 48.6988 11.2797 48.6988 10.9039C48.6988 10.5281 48.7331 10.1594 48.8014 9.79974C48.8694 9.43932 48.972 9.09075 49.1073 8.75529C49.2422 8.42211 49.4027 8.10785 49.5884 7.81351C49.7736 7.51993 49.9853 7.24627 50.2215 6.9938C50.4586 6.74032 50.7136 6.51433 50.986 6.31709C51.263 6.11784 51.5583 5.94507 51.8731 5.80004C52.1909 5.65375 52.52 5.54353 52.8572 5.47114C53.1951 5.39825 53.5419 5.36193 53.8975 5.36193C54.152 5.36193 54.404 5.38135 54.653 5.41893C54.9007 5.45676 55.1461 5.51403 55.3883 5.58969C55.6287 5.66485 55.8616 5.75715 56.0851 5.86561C56.3071 5.9733 56.5213 6.09867 56.7255 6.2394C56.9304 6.3809 57.1226 6.53676 57.3003 6.70549C57.4792 6.87574 57.646 7.05987 57.8 7.25685C57.8812 7.36077 57.957 7.46772 58.0281 7.57693V6.17886C58.0281 5.79877 58.2181 5.60861 58.5976 5.60861C58.7672 5.60861 58.9008 5.66308 58.9993 5.77179C59.0913 5.87318 59.1369 6.00912 59.1369 6.17886V14.4169ZM57.9971 10.9039C57.9971 10.5942 57.9701 10.2953 57.9167 10.0081C57.863 9.72129 57.7816 9.44234 57.6738 9.17247C57.5639 8.89881 57.4356 8.64431 57.2895 8.41076C57.1408 8.17418 56.9739 7.95626 56.7897 7.75701C56.603 7.557 56.4001 7.3759 56.1816 7.21599C55.9639 7.05659 55.7295 6.91736 55.4803 6.80008C55.2323 6.68305 54.9766 6.59553 54.7147 6.53803C54.4531 6.48027 54.18 6.45125 53.8975 6.45125C53.6107 6.45125 53.334 6.48051 53.0679 6.53852C52.802 6.59653 52.5457 6.6838 52.301 6.80008C52.0535 6.91736 51.8209 7.05634 51.6047 7.21574C51.3882 7.37515 51.1876 7.55572 51.0032 7.75649C50.8182 7.95801 50.6526 8.17568 50.5085 8.40899C50.3633 8.6433 50.2363 8.89754 50.129 9.17045C50.0214 9.44335 49.9405 9.72355 49.8875 10.0096C49.8344 10.2956 49.8077 10.594 49.8077 10.9039C49.8077 11.2094 49.8344 11.504 49.8875 11.7872C49.941 12.0732 50.0211 12.3512 50.128 12.6193C50.2348 12.8892 50.3623 13.1429 50.5085 13.3792C50.6526 13.6125 50.8185 13.8317 51.0042 14.0353C51.1884 14.237 51.389 14.4186 51.605 14.5778C51.8219 14.7377 52.054 14.8759 52.3 14.9909C52.5437 15.1049 52.8002 15.1914 53.0679 15.2492C53.3337 15.3069 53.6104 15.336 53.8975 15.336C54.1772 15.336 54.4501 15.3069 54.7142 15.2492C54.9786 15.1917 55.2351 15.1047 55.4823 14.9899C55.7323 14.8734 55.9659 14.7357 56.1816 14.578C56.3994 14.4181 56.6022 14.2363 56.7882 14.0342C56.9745 13.8315 57.142 13.612 57.289 13.3772C57.4359 13.1437 57.5641 12.8902 57.6738 12.6183C57.7821 12.3492 57.8635 12.0717 57.9172 11.7872C57.9704 11.5037 57.9971 11.2094 57.9971 10.9039ZM74.2643 2.12419C74.3402 2.17993 74.3996 2.24072 74.4415 2.30478C74.4944 2.38574 74.5214 2.47251 74.5214 2.5633C74.5214 2.63594 74.5052 2.70883 74.4732 2.78121C74.4442 2.84502 74.4042 2.90607 74.3533 2.96484C74.2976 3.02739 74.2383 3.07656 74.1759 3.11112C74.0997 3.15324 74.0211 3.17469 73.9412 3.17469C73.8001 3.17469 73.6708 3.11818 73.5557 3.00619C73.246 2.74994 72.9234 2.52371 72.5885 2.32875C72.2473 2.13025 71.8909 1.961 71.5205 1.82278C71.1523 1.68532 70.769 1.58115 70.3723 1.51179C69.9777 1.44268 69.5694 1.40787 69.1483 1.40787C68.507 1.40787 67.8931 1.49012 67.3072 1.65507C67.0103 1.7383 66.7258 1.83768 66.4536 1.95244C66.1792 2.06871 65.9143 2.20161 65.6593 2.35168C65.4083 2.49922 65.1644 2.6652 64.9293 2.84806C64.6939 3.03142 64.4714 3.2289 64.2632 3.439C64.054 3.64986 63.8592 3.87307 63.6793 4.10763C63.4989 4.34245 63.3336 4.58913 63.1839 4.84614C63.0314 5.10819 62.8973 5.3753 62.7824 5.6477C62.666 5.92312 62.566 6.2099 62.483 6.50625C62.4006 6.80186 62.3386 7.103 62.2976 7.4092C62.257 7.71211 62.2363 8.02512 62.2363 8.34645C62.2363 8.66752 62.257 8.97927 62.2976 9.28067C62.3384 9.58459 62.4004 9.88422 62.483 10.1786C62.5654 10.4721 62.6652 10.7561 62.7814 11.0288C62.8981 11.3032 63.0324 11.5688 63.1829 11.8238C63.3338 12.0796 63.4991 12.3239 63.6781 12.5555C63.8577 12.7883 64.053 13.011 64.2632 13.2231C64.4729 13.4347 64.6946 13.6309 64.9265 13.8103C65.1581 13.9891 65.4023 14.1535 65.6583 14.3024C65.9151 14.4517 66.1805 14.5841 66.4536 14.6994C66.7258 14.8136 67.0101 14.9132 67.3072 14.9967C67.6015 15.0792 67.9017 15.1412 68.2068 15.1823C68.5098 15.2229 68.8238 15.2434 69.1483 15.2434C69.5684 15.2434 69.9762 15.2081 70.3703 15.138C70.766 15.0673 71.1495 14.9619 71.5195 14.8217C71.8929 14.6807 72.2503 14.513 72.5905 14.3198C72.9307 14.1261 73.257 13.9044 73.5693 13.6554C73.6212 13.6108 73.6759 13.5755 73.7323 13.5515C73.8001 13.5228 73.8702 13.5076 73.9412 13.5076C74.1015 13.5076 74.2414 13.579 74.3598 13.7212C74.409 13.7803 74.447 13.8415 74.474 13.9031C74.5055 13.9767 74.5214 14.0489 74.5214 14.1192C74.5214 14.2105 74.4936 14.2971 74.4384 14.378C74.3969 14.4401 74.3387 14.4963 74.2661 14.5468C73.9107 14.8308 73.5393 15.084 73.1522 15.3059C72.7611 15.5302 72.3506 15.7244 71.9232 15.8883C71.4927 16.053 71.0444 16.1773 70.5797 16.2603C70.1181 16.3426 69.6403 16.3842 69.1483 16.3842C68.4087 16.3842 67.6953 16.2883 67.0083 16.0971C66.6679 16.0023 66.3375 15.8868 66.0182 15.7514C65.6956 15.6147 65.3854 15.4583 65.0895 15.2837C64.7927 15.1084 64.5092 14.9163 64.2403 14.7087C63.9696 14.4996 63.7116 14.2736 63.4669 14.0302C63.2222 13.7866 62.9934 13.5275 62.7832 13.2551C62.5733 12.9833 62.381 12.697 62.2086 12.3993C62.0355 12.1002 61.8815 11.7905 61.7477 11.4714C61.6149 11.1554 61.5002 10.8235 61.4042 10.4779C61.3089 10.1354 61.2374 9.78586 61.1895 9.43023C61.1416 9.07006 61.1172 8.70914 61.1172 8.34645C61.1172 7.61325 61.2132 6.89896 61.4042 6.20763C61.4995 5.86234 61.6144 5.52916 61.7474 5.21035C61.8813 4.88953 62.0352 4.57904 62.2086 4.27941C62.3807 3.98229 62.5725 3.69678 62.7822 3.42489C62.9946 3.14871 63.2232 2.88842 63.4659 2.64528C63.9535 2.15723 64.494 1.73703 65.0895 1.3824C65.3904 1.20358 65.6996 1.04468 66.0167 0.908729C66.3337 0.772279 66.6643 0.654765 67.0073 0.557913C67.3483 0.46106 67.6988 0.388153 68.0579 0.339979C68.418 0.291553 68.7817 0.267097 69.1483 0.267097C69.639 0.267097 70.1183 0.309205 70.5853 0.393699C71.0505 0.47794 71.4978 0.603797 71.9252 0.771018C72.3516 0.937988 72.7616 1.13573 73.1532 1.36272C73.5405 1.58745 73.911 1.8417 74.2643 2.12419ZM76.4091 0.960947C76.4091 0.789942 76.4626 0.65374 76.5681 0.554366C76.6697 0.459027 76.8068 0.410867 76.9789 0.410867C77.1452 0.410867 77.2778 0.462062 77.3756 0.563455C77.4701 0.661568 77.518 0.794734 77.518 0.960947V15.6394C77.518 15.8056 77.4701 15.9385 77.3756 16.0369C77.2778 16.1383 77.145 16.1889 76.9789 16.1889C76.5991 16.1889 76.4091 16.0056 76.4091 15.6394V0.960947ZM79.8881 6.17886C79.8881 6.00861 79.94 5.87317 80.0443 5.77329C80.1444 5.6777 80.2802 5.62903 80.4513 5.62903C80.6164 5.62903 80.7484 5.68048 80.8459 5.78238C80.9394 5.88049 80.9868 6.01315 80.9868 6.17886V12.0854C80.9924 12.3171 81.0201 12.5426 81.068 12.7618C81.1151 12.9787 81.1831 13.1868 81.2698 13.3843C81.3575 13.5845 81.4613 13.7717 81.5805 13.9445C81.6985 14.1165 81.8338 14.2756 81.9843 14.4217C82.1349 14.5677 82.2988 14.6983 82.4747 14.8123C82.6521 14.9276 82.8421 15.0267 83.0429 15.109C83.2445 15.1914 83.4537 15.2532 83.6709 15.2948C83.8861 15.336 84.1119 15.3566 84.3478 15.3566C84.8208 15.3566 85.2646 15.2704 85.6744 15.0989C85.8775 15.0139 86.069 14.911 86.2479 14.7917C86.4253 14.6741 86.5904 14.5382 86.7424 14.3858C86.8948 14.2335 87.0299 14.0693 87.1461 13.8955C87.2635 13.7197 87.3661 13.5291 87.4523 13.3255C87.5375 13.125 87.602 12.9154 87.6443 12.6975C87.6869 12.4801 87.7086 12.2516 87.7086 12.0132V6.17886C87.7086 6.01315 87.7562 5.88049 87.8512 5.78137C87.949 5.68023 88.0815 5.62903 88.2478 5.62903C88.4177 5.62903 88.5525 5.6777 88.6526 5.7743C88.7556 5.87393 88.8073 6.00912 88.8073 6.17886C88.8073 12.2475 89.0815 13.4267 87.4712 15.1975C87.2051 15.458 86.9062 15.6858 86.575 15.8797C86.2434 16.0747 85.8908 16.2215 85.5189 16.3193C85.1477 16.4172 84.7581 16.4664 84.3511 16.4664C83.7407 16.4664 83.1599 16.3494 82.6203 16.1163C82.3529 16.0023 82.0992 15.8641 81.8615 15.7039C81.6256 15.545 81.4059 15.3644 81.2048 15.1634C81.0012 14.9614 80.8182 14.742 80.6582 14.5069C80.4987 14.2726 80.3591 14.0201 80.2416 13.7503C80.1234 13.4796 80.0352 13.1984 79.9765 12.9078C79.9176 12.6163 79.8881 12.3179 79.8881 12.0132V6.17886ZM91.6189 1.0124C91.6189 0.846188 91.6666 0.713767 91.7601 0.615401C91.8568 0.513756 91.9891 0.46232 92.1547 0.46232C92.3253 0.46232 92.4614 0.510986 92.5614 0.606829C92.666 0.706456 92.7177 0.8419 92.7177 1.0124V7.63442L92.7608 7.557C92.7971 7.49345 92.8371 7.43138 92.88 7.37186C92.9208 7.31359 92.9634 7.26064 93.007 7.21348C93.1234 7.08232 93.2487 6.9552 93.3807 6.83313C93.5125 6.71181 93.6524 6.59427 93.7985 6.48253C93.9439 6.3708 94.0941 6.26639 94.2471 6.17105C94.3986 6.07672 94.5586 5.98768 94.7264 5.90571C94.8905 5.8255 95.0586 5.75438 95.2292 5.69334C95.4033 5.63079 95.581 5.57758 95.7599 5.5342C95.9411 5.49031 96.1215 5.45751 96.3002 5.43607C96.4824 5.41413 96.6654 5.40304 96.8483 5.40304C97.2034 5.40304 97.5506 5.43937 97.8883 5.51201C98.2245 5.58439 98.5529 5.69461 98.8719 5.84115C99.1882 5.98668 99.4848 6.1592 99.7602 6.3582C100.037 6.55745 100.294 6.7837 100.528 7.03466C100.764 7.28663 100.974 7.55876 101.158 7.84957C101.341 8.13987 101.501 8.45212 101.637 8.78606C101.773 9.11773 101.876 9.46376 101.944 9.82267C102.012 10.1806 102.047 10.5483 102.047 10.9244C102.047 11.304 102.012 11.674 101.944 12.0344C101.876 12.3953 101.773 12.7434 101.638 13.0766C101.503 13.4098 101.342 13.7248 101.156 14.0196C100.972 14.3112 100.762 14.5831 100.528 14.8345C100.293 15.086 100.037 15.311 99.763 15.5077C99.4868 15.706 99.1894 15.8787 98.8727 16.0245C98.5536 16.1721 98.2245 16.283 97.8876 16.3559C97.5509 16.4293 97.2039 16.4664 96.8483 16.4664C96.4579 16.4664 96.0802 16.4238 95.7168 16.3395C95.3544 16.2553 95.0051 16.1279 94.6702 15.9594C94.3358 15.7915 94.0233 15.5922 93.7338 15.3622C93.4465 15.1339 93.1781 14.8724 92.9309 14.5783L92.7177 14.3245V15.6187C92.7177 15.792 92.6683 15.9302 92.5685 16.0326C92.4674 16.1365 92.3288 16.1889 92.1547 16.1889C91.9854 16.1889 91.8513 16.1335 91.7543 16.0245C91.6648 15.9231 91.6189 15.7877 91.6189 15.6187V1.0124ZM92.7588 10.9143C92.7588 11.222 92.7862 11.5188 92.8407 11.8046C92.8951 12.0919 92.977 12.3711 93.0856 12.6422C93.1942 12.9139 93.3238 13.1694 93.4719 13.4075C93.6191 13.6433 93.7859 13.8615 93.9704 14.0607C94.1534 14.2592 94.3555 14.4386 94.5755 14.5985C94.7919 14.7576 95.0271 14.8961 95.2793 15.0146C95.5278 15.1319 95.7836 15.2207 96.0449 15.2789C96.3055 15.3372 96.5766 15.3667 96.8586 15.3667C97.1469 15.3667 97.4236 15.3372 97.687 15.2789C97.9513 15.2207 98.2079 15.1319 98.4551 15.0146C98.7028 14.8971 98.9359 14.7586 99.1526 14.5995C99.3686 14.4411 99.5692 14.2617 99.7529 14.0617C99.9374 13.8607 100.103 13.6426 100.247 13.4085C100.391 13.1742 100.519 12.9184 100.627 12.6432C100.735 12.3708 100.816 12.0914 100.869 11.8066C100.921 11.5204 100.948 11.2233 100.948 10.9143C100.948 10.6088 100.921 10.3143 100.869 10.031C100.815 9.74475 100.734 9.46731 100.628 9.19894C100.521 8.92857 100.394 8.67381 100.247 8.43647C100.102 8.20241 99.9369 7.98274 99.7519 7.77945C99.5685 7.57817 99.3681 7.3981 99.1526 7.23996C98.9354 7.0803 98.7026 6.94284 98.4561 6.82707C97.9647 6.5973 97.4317 6.48229 96.8586 6.48229C96.2997 6.48229 95.7732 6.59755 95.2773 6.82808C95.0255 6.94511 94.7914 7.08232 94.5755 7.23996C94.3597 7.39709 94.1576 7.57767 93.9714 7.78046C93.7862 7.98198 93.6191 8.20166 93.4722 8.43748C93.3235 8.67558 93.1942 8.93008 93.0856 9.19995C92.9772 9.46882 92.8951 9.74677 92.8407 10.032C92.7862 10.3158 92.7588 10.6099 92.7588 10.9143ZM104.058 15.4338C104.058 15.3163 104.08 15.2045 104.123 15.1004C104.167 14.9954 104.23 14.9006 104.313 14.8174C104.396 14.7341 104.491 14.6706 104.595 14.6282C104.697 14.5863 104.807 14.5657 104.925 14.5657C105.042 14.5657 105.153 14.5866 105.259 14.6295C105.363 14.6708 105.458 14.7341 105.541 14.8174C105.624 14.9001 105.686 14.995 105.729 15.0986C105.772 15.2048 105.793 15.3168 105.793 15.4338C105.793 15.5519 105.772 15.6626 105.73 15.765C105.687 15.8704 105.624 15.9642 105.541 16.0467C105.458 16.1297 105.364 16.1935 105.259 16.2369C105.154 16.28 105.043 16.3022 104.925 16.3022C104.808 16.3022 104.696 16.2798 104.592 16.2356C104.488 16.1917 104.395 16.1282 104.313 16.0467C104.23 15.963 104.166 15.8697 104.123 15.767C104.08 15.6626 104.058 15.5511 104.058 15.4338ZM108.748 6.16852C108.748 5.80229 108.938 5.61893 109.318 5.61893C109.678 5.61893 109.857 5.80229 109.857 6.16852V15.6497C109.857 15.8159 109.809 15.9488 109.715 16.0472C109.616 16.1486 109.484 16.1993 109.318 16.1993C108.938 16.1993 108.748 16.0159 108.748 15.6497V6.16852ZM108.42 2.88161C108.42 2.76433 108.442 2.65207 108.485 2.54816C108.528 2.44273 108.592 2.3479 108.675 2.26517C108.76 2.18118 108.854 2.11812 108.956 2.07625C109.059 2.03439 109.169 2.01347 109.287 2.01347C109.406 2.01347 109.517 2.0344 109.621 2.07677C109.724 2.11839 109.818 2.18144 109.902 2.26517C109.987 2.35017 110.05 2.44451 110.091 2.54766C110.134 2.65158 110.155 2.76332 110.155 2.88161C110.155 2.9999 110.134 3.11036 110.092 3.21302C110.05 3.31592 109.987 3.40975 109.903 3.49349C109.735 3.66323 109.528 3.74975 109.287 3.74975C109.169 3.74975 109.058 3.72755 108.954 3.68467C108.85 3.63978 108.756 3.57622 108.675 3.4945C108.593 3.41278 108.53 3.31971 108.486 3.21605C108.442 3.11163 108.42 3.0004 108.42 2.88161ZM113.572 15.6497C113.572 15.8179 113.523 15.9521 113.423 16.0512C113.323 16.1499 113.189 16.1993 113.02 16.1993C112.658 16.1993 112.474 16.0159 112.474 15.6497V6.16852C112.474 6.00079 112.523 5.86711 112.622 5.76824C112.72 5.66912 112.853 5.61893 113.02 5.61893C113.39 5.61893 113.572 5.80229 113.572 6.16852L113.576 6.88761C113.65 6.80287 113.727 6.72064 113.806 6.64195C114.072 6.38014 114.371 6.15338 114.701 5.96371C115.037 5.77253 115.392 5.62928 115.766 5.53445C116.139 5.44037 116.53 5.39294 116.94 5.39294C117.245 5.39294 117.543 5.4222 117.833 5.47996C118.124 5.53923 118.406 5.62677 118.677 5.74203C118.947 5.85755 119.201 5.99448 119.437 6.15288C119.674 6.31152 119.893 6.49162 120.094 6.69239C120.295 6.89442 120.475 7.11333 120.633 7.34966C120.793 7.58675 120.929 7.83949 121.044 8.10659C121.159 8.37647 121.247 8.65819 121.305 8.94975C121.364 9.23981 121.393 9.53895 121.393 9.8459V15.6497C121.393 16.0159 121.21 16.1993 120.844 16.1993C120.478 16.1993 120.294 16.0159 120.294 15.6497V9.80476C120.288 9.57449 120.261 9.34802 120.214 9.12808C120.168 8.90915 120.101 8.69929 120.015 8.50054C119.84 8.09673 119.601 7.74591 119.299 7.4503C119.148 7.302 118.984 7.16958 118.809 7.05431C118.634 6.93955 118.444 6.83892 118.24 6.75367C118.039 6.66968 117.83 6.60663 117.614 6.56552C117.397 6.52365 117.17 6.50271 116.933 6.50271C116.7 6.50271 116.477 6.52264 116.263 6.56249C116.049 6.60183 115.84 6.66287 115.638 6.74434C115.435 6.8253 115.245 6.92341 115.069 7.03641C114.893 7.14915 114.731 7.27754 114.584 7.42055C114.435 7.56507 114.3 7.72271 114.181 7.89346C114.062 8.06144 113.958 8.24504 113.868 8.44278C113.779 8.63976 113.709 8.84433 113.661 9.05468C113.611 9.2668 113.582 9.48647 113.572 9.7122L113.572 15.6497ZM127.463 5.61893C127.609 5.61893 127.735 5.6608 127.842 5.74378C127.91 5.79624 127.959 5.86182 127.991 5.94051C128.019 6.01012 128.033 6.0868 128.033 6.16852C128.033 6.25099 128.019 6.32743 127.992 6.39603C127.962 6.47271 127.917 6.53828 127.856 6.59175C127.8 6.64144 127.739 6.6785 127.673 6.70246C127.607 6.72693 127.537 6.73904 127.463 6.73904H125.549V15.7007C125.549 15.8691 125.497 16.0028 125.392 16.1007C125.292 16.1935 125.158 16.2404 124.99 16.2404C124.825 16.2404 124.693 16.1915 124.597 16.0949C124.5 15.997 124.451 15.8656 124.451 15.7007V6.73904H123.214C123.043 6.73904 122.907 6.68558 122.808 6.5799C122.713 6.478 122.665 6.34103 122.665 6.16852C122.665 5.80229 122.848 5.61893 123.214 5.61893H124.451V3.70359C124.451 3.40219 124.472 3.12095 124.514 2.86217C124.557 2.60012 124.622 2.36379 124.709 2.15369C124.794 1.94334 124.898 1.75191 125.02 1.5809C125.142 1.40788 125.282 1.25606 125.439 1.12642C125.592 0.999046 125.758 0.888301 125.936 0.79725C126.114 0.704938 126.305 0.631044 126.506 0.577322C126.697 0.525869 126.898 0.486778 127.106 0.460547C127.311 0.434064 127.519 0.421187 127.73 0.421187C127.818 0.421187 127.899 0.43381 127.972 0.458527C128.06 0.489802 128.134 0.537463 128.191 0.60077C128.242 0.658276 128.28 0.723095 128.305 0.794221C128.329 0.864338 128.341 0.936987 128.341 1.0124C128.341 1.10471 128.322 1.18718 128.285 1.25982C128.243 1.33901 128.182 1.40157 128.105 1.44773C127.99 1.51507 127.872 1.55164 127.751 1.55164L127.747 1.55063C127.575 1.54761 127.41 1.55643 127.254 1.57686C127.103 1.59704 126.957 1.62908 126.817 1.67322C126.68 1.71635 126.555 1.77031 126.442 1.83463C126.331 1.89793 126.23 1.97335 126.138 2.06061C126.048 2.14637 125.967 2.24625 125.896 2.35899C125.823 2.4735 125.76 2.60188 125.708 2.74237C125.655 2.88689 125.615 3.04326 125.589 3.21023C125.563 3.37897 125.549 3.56789 125.549 3.77521V5.61893H127.463ZM129.028 10.9347C129.028 10.5584 129.064 10.1894 129.137 9.82974C129.209 9.46957 129.317 9.12302 129.46 8.79135C129.601 8.46069 129.771 8.14744 129.968 7.85386C130.163 7.56229 130.384 7.29141 130.631 7.04247C130.879 6.79327 131.149 6.57032 131.439 6.37384C131.725 6.18013 132.035 6.01089 132.369 5.86662C132.701 5.7226 133.045 5.61466 133.403 5.54252C133.76 5.47039 134.126 5.43405 134.5 5.43405C134.876 5.43405 135.245 5.47039 135.605 5.54252C135.964 5.61491 136.311 5.7226 136.642 5.86561C136.973 6.00786 137.287 6.1781 137.58 6.37559C137.873 6.57257 138.143 6.79479 138.39 7.04146C138.639 7.2904 138.862 7.5623 139.059 7.85462C139.256 8.14593 139.426 8.45893 139.569 8.79135C139.711 9.12302 139.819 9.46957 139.891 9.82974C139.964 10.1894 140 10.5584 140 10.9347C140 11.3078 139.964 11.6737 139.891 12.0316C139.82 12.39 139.711 12.7361 139.569 13.068C139.427 13.3974 139.257 13.7096 139.058 14.003C138.862 14.2953 138.638 14.5659 138.39 14.8141C138.142 15.0628 137.87 15.287 137.578 15.484C137.287 15.6805 136.974 15.8512 136.642 15.9937C136.311 16.1365 135.964 16.2444 135.604 16.3168C135.245 16.389 134.876 16.4253 134.5 16.4253C134.126 16.4253 133.76 16.389 133.403 16.3168C133.045 16.2442 132.7 16.1363 132.369 15.9937C132.041 15.852 131.73 15.6807 131.439 15.4825C131.149 15.2853 130.879 15.0615 130.631 14.8131C130.384 14.5644 130.162 14.2938 129.967 14.0025C129.771 13.7101 129.601 13.3984 129.46 13.068C129.317 12.7363 129.209 12.3903 129.137 12.0316C129.064 11.6737 129.028 11.3078 129.028 10.9347ZM130.127 10.9347C130.127 11.5375 130.243 12.1038 130.475 12.6354C130.708 13.1706 131.026 13.6383 131.428 14.0368C131.628 14.2363 131.845 14.4154 132.078 14.573C132.311 14.7324 132.563 14.8706 132.832 14.9879C133.096 15.1039 133.37 15.1914 133.652 15.2489C133.934 15.3067 134.228 15.336 134.531 15.336C134.833 15.336 135.126 15.3067 135.408 15.2489C135.689 15.1912 135.963 15.1039 136.227 14.9879C136.496 14.8708 136.746 14.7329 136.978 14.5755C137.209 14.4189 137.425 14.239 137.627 14.0368C137.825 13.8395 138.004 13.6226 138.162 13.3883C138.321 13.1532 138.458 12.9015 138.574 12.6354C138.69 12.3693 138.778 12.0944 138.835 11.8119C138.893 11.5312 138.922 11.2387 138.922 10.9347C138.922 10.6308 138.893 10.3375 138.835 10.0552C138.777 9.77023 138.69 9.49328 138.574 9.22643C138.457 8.95681 138.319 8.70258 138.16 8.46625C138.004 8.23345 137.826 8.01703 137.628 7.81854C137.428 7.61979 137.212 7.44123 136.979 7.2841C136.745 7.1252 136.493 6.98773 136.227 6.87146C135.963 6.75543 135.689 6.66818 135.408 6.61017C135.126 6.55267 134.833 6.5234 134.531 6.5234C134.228 6.5234 133.934 6.55267 133.652 6.61017C133.37 6.66793 133.096 6.75543 132.832 6.87146C132.565 6.98823 132.311 7.12671 132.074 7.28636C131.843 7.44299 131.627 7.62081 131.429 7.81905C131.227 8.01856 131.046 8.23572 130.889 8.46852C130.73 8.70359 130.591 8.95681 130.475 9.22643C130.243 9.76114 130.127 10.3309 130.127 10.9347Z" fill="#185886"/>
</svg>
