<svg width="379" height="108" viewBox="0 0 379 108" fill="none" xmlns="http://www.w3.org/2000/svg"><path d="M373.043 5.632c-8.032.348-16.196.701-24.069 2.816l-.97.519c-4.258 2.302-11.476 4.427-16.472 4.79-3.778.273-6.76.883-9.411 2.112-2.656 1.232-4.911 3.053-7.284 5.642-3.912 4.267-9.488 7.17-16.655 8.572-4.596.897-7.611 1.725-9.551 3.12-2.062 1.483-2.8 3.51-3.194 6.31-.224 1.595-1.172 4.081-2.59 6.837-1.406 2.728-3.221 5.622-5.1 8.014-1.742 2.22-3.017 3.832-4.171 5.022-1.138 1.173-2.111 1.885-3.224 2.33-1.126.45-2.475.658-4.418.697-1.95.038-4.414-.094-7.755-.28-7.356-.411-18.692-4.085-25.747-8.366-5.585-3.39-9.272-5.315-12.801-5.885-3.582-.579-6.881.254-11.624 1.994-3.375 1.238-8.274 2.018-14.557 2.29-6.268.272-13.851.036-22.559-.72-12.91-1.122-19.846-1.658-25.113-.898-5.357.774-8.973 2.884-15.239 6.781-3.59 2.232-6.92 4.55-9.397 6.492-1.236.97-2.276 1.858-3.033 2.604-.378.372-.702.724-.948 1.046-.223.292-.469.669-.552 1.075-.093.453.036.951.156 1.32.138.424.35.924.617 1.475.534 1.106 1.33 2.512 2.318 4.115 1.978 3.21 4.768 7.274 7.895 11.425 3.106 4.123 5.874 7.977 7.831 10.862.981 1.445 1.749 2.634 2.253 3.489l.083.14a32.529 32.529 0 01-2.279-.357c-2.29-.427-5.405-1.154-8.786-2.079-5.223-1.428-8.679-2.134-11.377-1.836-2.799.31-4.679 1.681-6.789 3.961l-6.413 4.863c-2.446-.723-5.546-1.353-8.81-1.747-7.544-.911-12.945-2.734-16.287-5.314-3.269-2.522-4.614-5.797-4.036-9.913.428-3.044 2.807-6.517 5.88-9.12 1.519-1.287 3.161-2.32 4.735-2.96 1.585-.644 3.022-.857 4.177-.621 2.004.41 3.682.347 4.9-.253 1.31-.646 1.943-1.844 1.889-3.236-.051-1.313-.699-2.753-1.762-4.159-1.076-1.423-2.636-2.89-4.653-4.272-6.364-4.358-12.78-6.45-19.035-6.178-6.26.272-12.25 2.906-17.765 7.8-2.178 1.933-3.778 3.338-5.148 4.314-1.357.966-2.412 1.455-3.482 1.62-1.075.167-2.277.023-3.957-.48-1.691-.507-3.772-1.347-6.6-2.505-6.316-2.584-15.03-5.53-19.401-6.546-5.461-1.27-9.312-6.324-10.435-11.114-.56-2.387-.402-4.55.42-6.055.78-1.43 2.24-2.422 4.727-2.385 2.017.03 3.648-.608 4.71-2.2.994-1.49 1.383-3.666 1.415-6.446.023-1.93.747-4.547 1.961-7.225 1.208-2.663 2.855-5.283 4.63-7.22 2.857-3.116 4.966-4.904 7.866-6.135 2.946-1.25 6.775-1.956 13.149-2.73 8.15-.99 18.457-1.356 22.871-.841 3.115.364 5.88.199 8.665-.641 2.774-.837 5.515-2.326 8.604-4.535C87.314.557 92.55-.99 101.787-1.103c5.673-.07 9.195-.287 12.058-1.392 2.907-1.122 5.042-3.12 8.065-6.418l246.212-1.115c5.161 3.407 8.068 6.595 9.223 10.224.506 1.59.688 3.304.547 5.212-1.609.084-3.225.154-4.848.224h-.001z" fill="#C6B889"/><path d="M277.747 54.364c1.879-2.392 3.694-5.286 5.1-8.014 1.418-2.756 2.366-5.242 2.59-6.838.394-2.8 1.132-4.826 3.194-6.31 1.94-1.394 4.955-2.222 9.551-3.12 7.167-1.4 12.743-4.304 16.655-8.571 2.373-2.59 4.628-4.41 7.284-5.642 2.651-1.229 5.633-1.84 9.411-2.113 4.996-.362 12.214-2.487 16.472-4.789l.97-.519c7.873-2.115 16.037-2.468 24.07-2.816 1.623-.07 3.239-.14 4.848-.224.141-1.908-.041-3.622-.547-5.212-1.155-3.629-4.062-6.817-9.223-10.224L121.91-8.913c-3.023 3.298-5.158 5.296-8.065 6.418-2.863 1.105-6.385 1.321-12.058 1.391-9.237.115-14.473 1.66-20.441 5.93-3.089 2.21-5.83 3.7-8.604 4.536-2.785.84-5.55 1.005-8.665.64-4.414-.514-14.72-.148-22.871.842-6.374.774-10.203 1.48-13.15 2.73-2.899 1.23-5.008 3.019-7.866 6.136-1.774 1.936-3.421 4.556-4.629 7.219-1.214 2.678-1.938 5.296-1.96 7.225-.033 2.78-.422 4.956-1.416 6.445-1.062 1.593-2.693 2.231-4.71 2.2-2.487-.036-3.948.956-4.728 2.386-.821 1.505-.979 3.668-.419 6.055 1.123 4.79 4.974 9.845 10.435 11.114 4.37 1.017 13.085 3.962 19.4 6.546m245.584-14.536l.787.617m-.787-.617c-1.742 2.22-3.017 3.832-4.171 5.022-1.138 1.173-2.111 1.885-3.224 2.33-1.126.45-2.475.658-4.418.697-1.95.038-4.414-.094-7.755-.28-7.356-.411-18.692-4.085-25.747-8.366-5.585-3.39-9.272-5.315-12.801-5.885-3.582-.579-6.881.254-11.624 1.994-3.375 1.238-8.274 2.018-14.557 2.29-6.268.272-13.851.036-22.559-.72-12.91-1.122-19.846-1.658-25.113-.898-5.357.774-8.973 2.884-15.239 6.781-3.59 2.232-6.92 4.55-9.397 6.492-1.236.97-2.276 1.858-3.033 2.604-.378.372-.702.724-.948 1.046-.223.292-.469.669-.552 1.075-.093.453.036.951.156 1.32.138.424.35.924.617 1.475.534 1.106 1.33 2.512 2.318 4.115 1.978 3.21 4.768 7.274 7.895 11.425 3.106 4.123 5.874 7.977 7.831 10.862.981 1.445 1.749 2.634 2.253 3.489l.083.14a32.529 32.529 0 01-2.279-.357c-2.29-.427-5.405-1.154-8.786-2.079-5.223-1.428-8.679-2.134-11.377-1.836-2.799.31-4.679 1.681-6.789 3.961l-6.413 4.863c-2.446-.723-5.546-1.353-8.81-1.747-7.544-.911-12.945-2.734-16.287-5.314-3.269-2.522-4.614-5.797-4.036-9.913.428-3.044 2.807-6.517 5.88-9.12 1.519-1.287 3.161-2.32 4.735-2.96 1.585-.644 3.022-.857 4.177-.621 2.004.41 3.682.347 4.9-.253 1.31-.646 1.943-1.844 1.889-3.236-.051-1.313-.699-2.753-1.762-4.159-1.076-1.423-2.636-2.89-4.653-4.272-6.364-4.358-12.78-6.45-19.035-6.178-6.26.272-12.25 2.906-17.765 7.8-2.178 1.933-3.778 3.338-5.148 4.314-1.357.966-2.412 1.455-3.482 1.62-1.075.167-2.277.023-3.957-.48-1.691-.507-3.772-1.347-6.6-2.505m0 0l-.38.926" stroke="#988A5B" stroke-width="2"/></svg>