<svg width="59" height="48" viewBox="0 0 59 48" fill="none" xmlns="http://www.w3.org/2000/svg"><path d="M8.315.949C8.575.516 8.948.052 9.5.01c.585-.084 1.129.317 1.41.795.334 2.104.183 4.25.374 6.368.063 1.074.08 2.153.138 3.23 1.612-.956 3.078-2.134 4.64-3.166.547-.364 1.352-.211 1.753.298.45.485.292 1.192.318 1.787.008 2.764-.177 5.557-.97 8.22-.558 1.867-1.558 3.677-3.16 4.865-.747.576-1.662.86-2.539 1.179.754 1.137 2.016 1.908 3.33 2.259.696-.511 1.228-1.202 1.908-1.73 1.62-1.375 3.572-2.254 5.54-3.013a3.342 3.342 0 01-.73-3.23 3.145 3.145 0 011.77-1.746c1.081-.29 2.379-.16 3.164.709 1.01.945 1.018 2.497.45 3.676 1.8.015 3.6.013 5.4 0-.52-1.099-.582-2.512.261-3.473 1.054-1.366 3.391-1.425 4.514-.117 1.12 1.137.939 3.104-.164 4.194 1.728.633 3.438 1.363 4.906 2.48.903.604 1.61 1.43 2.427 2.128 1.303-.233 2.45-1.102 3.236-2.137-1.071-.403-2.192-.793-3.018-1.617-2.164-1.965-2.926-4.933-3.313-7.706-.29-1.958-.286-3.94-.28-5.914-.028-.828.867-1.495 1.673-1.29.637.206 1.123.697 1.678 1.051 1.123.744 2.163 1.615 3.353 2.257.084-1.388.052-2.783.189-4.167.127-1.787.022-3.596.321-5.368.363-.957 1.83-1.15 2.37-.244 1.583 2.497 3.069 5.058 4.614 7.579.655 1.075 1.334 2.151 1.752 3.343 1.26 3.363.473 7.421-2.053 10.015-1.133 1.207-2.709 1.93-4.346 2.166-.668 1.905-2.253 3.328-4.051 4.201.24.317.466.666.803.897 1.372-.421 2.687-1.118 4.15-1.183 1.597-.125 3.218.274 4.593 1.075 1.103.627 1.996 1.543 2.837 2.468.655.78-.058 2.14-1.085 2.03-.776.143-1.209-.589-1.697-1.035-1.03-1.11-2.5-1.881-4.05-1.84-1.218-.043-2.35.462-3.444.926.175.626.23 1.274.312 1.916 2.521-.186 5.113.834 6.754 2.746.424.515 1.012 1.063.896 1.797-.075.881-1.168 1.447-1.954 1.012-.48-.305-.766-.816-1.163-1.21-1.22-1.338-3.178-1.898-4.952-1.546-.4 1.143-.89 2.251-1.36 3.369 1.108.301 2.24.617 3.195 1.27 1.363.871 2.425 2.167 3.084 3.626.432.86-.407 1.94-1.352 1.832-.83-.041-1.18-.916-1.563-1.511-.806-1.435-2.377-2.334-3.996-2.551-.284-.01-.689-.121-.841.202-1.072 1.742-2.292 3.459-3.998 4.65-1.022.697-2.233 1.2-3.494 1.165-5.63 0-11.26.002-16.89 0-1.84.034-3.521-.986-4.773-2.243-1.095-1.04-1.92-2.308-2.714-3.578-.151-.32-.55-.196-.826-.198-1.603.14-3.19.94-4.06 2.306-.422.597-.676 1.411-1.41 1.715-.956.31-2.03-.654-1.722-1.621 1.06-2.682 3.633-4.624 6.5-5.072-.411-1.123-.907-2.214-1.33-3.333-1.879-.425-3.976.158-5.236 1.62-.486.482-.855 1.308-1.662 1.247-.927.043-1.665-.974-1.284-1.824 1.543-2.633 4.716-4.148 7.77-3.864.107-.63.17-1.265.301-1.891-1.12-.384-2.212-.963-3.426-.967a5.23 5.23 0 00-3.762 1.358c-.486.427-.895.938-1.401 1.345-.833.57-2.196-.115-2.111-1.147-.012-.712.665-1.131 1.095-1.607 1.568-1.675 3.85-2.756 6.183-2.666 1.672-.017 3.204.728 4.734 1.298.274-.286.52-.6.732-.93-1.288-.57-2.51-1.378-3.333-2.527-.385-.507-.594-1.112-.9-1.662-.21-.2-.535-.164-.797-.248-2.29-.484-4.15-2.216-5.109-4.281-1.155-2.334-1.367-5.12-.484-7.572.347-1.016.883-1.953 1.436-2.87C5.147 6.177 6.736 3.567 8.315.95z" fill="#D7C99C"/><path d="M33.674 33.757a1.16 1.16 0 00-1.575 0l-5.773 5.45a1.01 1.01 0 000 1.485c.435.41 1.14.41 1.575 0l5.773-5.449a1.01 1.01 0 000-1.486z" fill="#000"/><path d="M33.674 35.243a1.01 1.01 0 000-1.486l-5.773-5.45a1.16 1.16 0 00-1.575 0 1.01 1.01 0 000 1.487l5.773 5.45c.435.41 1.14.41 1.575 0z" fill="#000"/></svg>