<svg width="681" height="720" viewBox="0 0 681 720" fill="none" xmlns="http://www.w3.org/2000/svg"><g clip-path="url(#clip0)"><g filter="url(#filter0_f)" fill="#9B8E62"><path d="M102.369 497.879c-9.671 20.165 6.815 3.549-8.47 31.128l-3.795 9.782c-8.19 25.605 19.838 33.293 38.073 30.751 32.328-4.513 52.864-45.255 83.12-69.544 23.653-18.981 52.117-14.571 50.526-29.716-4.078-38.75-6.944-26.11 10.013-64.427 10.327-23.341-25.672-85.307-57.442-43.991-31.647 41.154-33.487 13.253-75.433 28.921-40.873 15.26-28.416 28.025-24.404 52.832.991 6.136-9.639 48.947-12.188 54.264z"/><path d="M173.26 442.058c22.365 3.096-.936 18.665 5.896 34.447 3.846 5.765 8.873 7.489 15.483 9.064 9.904 2.364 28.925 2.036 25.184 15.941-5.86 19.415-17.122 17.298-33.519 22.728l-2.137.768c-12.146 4.371-21.209 14.642-34.682 13.313-13.898-1.372-11.918-8.293-11.108-18.298 2.441-30.025-33.972-21.467-26.076-42.988 8.799-23.983 36.24-37.854 60.959-34.975zm-2.936-81.014c9.589-36.032 25.011-47.316 63.551-50.004 35.092-2.45-78.502 109.48-63.551 50.004zm-69.146 248.014c15.703 30.763 63.544-51.996 19.051-29.979-9.716 4.806-22.36 18.259-19.051 29.979z"/></g><g filter="url(#filter1_f)" fill="#9B8E62"><path d="M195.968 481.039c-10.081 5.533-43.326-27.502-51.191-34.514l-4.001-3.277c-19.568-16.016-10.5-13.172-17.011-26.807-1.037-2.176-24.278-15.118.473-17.853 24.518-2.708 30.301-3.011 54.99-.831 8.445.747 74.625-1.415 61.501 17.984-20.856 30.839 5.771 42.284-24.523 53.858-14.324 5.471-10.945 6.336-20.238 11.44zM68.999 304.798c-17.86 1.392-18.737 4.852-27.909-7.337-8.814-11.053-7.9-19.752.812-31.165 15.5-20.305 14.438 1.718 40.808-24.899 30.121-30.401 14.902-43.862 55.769-41.931 45.993 2.173 54.727-9.783 38.614 35.343-.886 2.48-1.698 4.78-2.463 6.926 18.143 6.543 29.459 32.027 55.614 30.474 18.727-1.112 28.501 14.326 17.949 29.822-12.423 18.242 5.6 19.577-23.394 22.614-22.551 2.363-33.047 28.01-36.925 26.641-12.624-4.456-2.343-20.297-46.926-20.676-22.727-.193-57.422 1.801-70.662-20.734-.838-1.426-1.252-3.171-1.287-5.078z"/><path d="M192.476 174.959c-2.334-4.069 2.683-7.037 4.3-10.284l.001-.009c3.805-.504 6.855-3.025 10.14-4.772 4.313-2.429 9.531.661 13.822-2.345 4.508-3.82 8.955 1.254 11.147 5.043 5.521 5.776 10.55 12.485 12.293 20.437 1.746 3.739-1.097 8.785 2.371 11.709 2.834 3.864 7.136 6.888 8.386 11.734-.263 5.091 1.806 10.108 1.063 15.216-2.649 3.991-7.771 4.677-11.499 7.242-3.46 3.418-8.675 3.814-13.247 3.105-5.627-1.25-11.518-1.679-17.177-.376-5.566.672-6.548-5.51-7.515-9.476-1.705-3.685-2.969-8.108-6.512-10.463-3.862-1.461-5.536-6.277-2.946-9.638 3.881-4.659-2.114-7.023-5.963-7.716-3.643-1.978-2.13-6.847-.776-9.838 1.052-2.953 3.785-6.531 2.112-9.569zm33.761-58.365c.703 4.825 2.297 9.403-3.004 10.288l-.059-.008c-1.905-.243-3.787-.483-5.564-1.339-2.717-1.307-2.29-6.967-1.92-7.744 1.064-2.235 10.257-3.184 10.547-1.197zm-15.906-21.201c-2.834 3.11-4.418 8.836-6.925 11.315-3.429 1.288-4.797 1.284-8.35.546-13.105-2.716-9.259 4.446-15.154-11.946-4.206-11.69-4.971-11.779-11.794-21.635-1.365-1.978-4.038-7.517-2.429-9.868 6.803-8.697 3.361-7.254 14.874-9.188 1.561.034 9.197 2.308 11.368 2.842 3.156.777.847-.388 2.957 1.101 3.979 2.8 5.228-.59 5.919 1.92.675 2.458-1.814 1.486-.932 6.16.557 2.953 7.148 12.88 9.128 15.998.834 1.311.888.726.661 1.886-.49 2.466-.651 5.584.232 7.95 1.075 2.88 1.98 1.481.445 2.919zm25.154-16.653c-2.036-3.551 2.339-6.14 3.751-8.971l.001-.009c3.319-.44 5.98-2.638 8.846-4.162 3.761-2.12 8.313.576 12.055-2.046 3.934-3.333 7.812 1.094 9.725 4.4 4.588 4.86 6.416 7.83 9.807 13.467 3.28 5.454 2.981 5.323 4.376 11.27 1.272 5.43 4.493 8.981 5.923 13.539-.229 4.442 1.576 8.818.928 13.273-2.312 3.482-6.779 4.08-10.031 6.319-3.018 2.98-7.567 3.326-11.555 2.708-4.908-1.09-10.048-1.466-14.984-.33-8.246.312-3.294-10.502-12.393-14.895-2.929-1.413-6.845-3.593-6.912-7.347-.161-9.197-7.417-7.758-2.41-17.878 1.676-3.204 4.218-5.798 2.873-9.339zm31.506 76.539c1.337-3.416-5.775-2.476-7.487-1.989-3.628 1.896-3.717 3.467-1.72 6.682.564.909 1.395 2.746 1.803 3.33 1.865 2.672 6.846-6.599 7.404-8.023zM132.904 346.814c-.28-10.401-19.069 5.452-6.088 6.161 4.22.231 5.315-2.693 6.088-6.161zm-83.59-163.787c-4.836-12.203 24.338-22.868 31.026-9.465-.297 6.623-1.785 28.504-8.448 31.783-10.966 5.397-19.617-14.848-22.578-22.318z"/></g><g filter="url(#filter2_f)" fill="#A29669"><path d="M146.831 510.852c-6.469-1.149-5.149-9.2-7.182-13.851l-.009-.01c2.878-4.536 2.911-10.074 3.987-15.168 1.265-6.812 9.274-9.637 9.902-16.942-.053-8.27 9.394-8.487 15.435-7.437 11.166-.739 22.892-.113 33.002 5.157 5.585 1.484 8.451 9.066 14.708 7.97 6.698.428 13.813-1.475 20.141 1.535 5.233 4.855 12.482 7.139 17.301 12.523 1.906 6.427-1.959 12.541-2.553 18.846.561 6.783-3.7 12.736-8.571 17.008-6.399 4.916-12.155 10.855-15.841 18.099-4.28 6.579-11.803 2.081-16.932-.443-5.492-1.479-11.379-4.093-17.093-2.406-5.039 2.835-11.718.306-13.001-5.492-1.516-8.35-9.443-4.038-13.648-.528-5.398 2.133-9.269-3.862-11.265-8.001-2.227-3.782-3.614-9.928-8.381-10.86z"/><path d="M206.059 407.077c5.217.481 26.433 20.883 27.89 24.387 1.872 9.279-.64 16.955-.764 27.506-.137 11.651-16.6 10.719-24.52 9.025-49.873-10.674-28.157-63.279-2.606-60.918z"/></g><g filter="url(#filter3_f)" fill="#A29669"><path d="M95.83 314.852c-6.468-1.149-5.148-9.2-7.181-13.851l-.01-.01c2.879-4.536 2.912-10.074 3.988-15.168 1.265-6.812 9.274-9.637 9.902-16.942-.053-8.27 9.394-8.487 15.435-7.437 11.166-.739 22.892-.113 33.002 5.157 5.585 1.484 8.451 9.066 14.708 7.97 6.698.428 13.813-1.475 20.141 1.535 5.233 4.855 12.482 7.139 17.301 12.523 1.906 6.427-1.959 12.541-2.553 18.846.561 6.783-3.7 12.736-8.571 17.008-6.399 4.916-12.155 10.855-15.841 18.099-4.28 6.579-11.803 2.081-16.932-.443-5.492-1.479-11.379-4.093-17.093-2.406-5.039 2.835-11.718.306-13.001-5.492-1.516-8.35-9.443-4.038-13.648-.528-5.398 2.133-9.269-3.862-11.265-8.001-2.227-3.782-3.614-9.928-8.381-10.86z"/><path d="M155.059 211.077c5.217.481 26.433 20.883 27.89 24.387 1.872 9.279-.64 16.955-.764 27.506-.137 11.651-16.6 10.719-24.52 9.025-49.873-10.674-28.157-63.279-2.606-60.918z"/></g><g filter="url(#filter4_f)" fill="#A29669"><path d="M212.705 144.081c-4.557-.809-3.627-6.474-5.059-9.747l-.006-.007c2.027-3.192 2.05-7.089 2.808-10.674.891-4.793 6.532-6.782 6.975-11.922-.038-5.819 6.616-5.972 10.871-5.234 7.865-.52 16.124-.079 23.245 3.63 3.934 1.044 5.952 6.379 10.36 5.608 4.718.301 9.729-1.038 14.186 1.08 3.686 3.417 8.791 5.024 12.186 8.812 1.342 4.524-1.38 8.826-1.799 13.263.396 4.773-2.606 8.963-6.036 11.968-4.507 3.46-8.562 7.639-11.158 12.737-3.015 4.629-8.313 1.464-11.926-.312-3.868-1.041-8.015-2.88-12.039-1.693-3.55 1.995-8.254.215-9.157-3.865-1.068-5.876-6.652-2.841-9.613-.371-3.802 1.501-6.529-2.718-7.935-5.631-1.568-2.661-2.545-6.986-5.903-7.642z"/><path d="M254.422 71.054c3.675.339 18.618 14.696 19.644 17.161 1.319 6.53-.451 11.932-.538 19.357-.096 8.199-11.692 7.543-17.271 6.35-35.128-7.511-19.832-44.53-1.835-42.868z"/></g><g filter="url(#filter5_f)" fill="#9B8E62"><path d="M280.518 22.761c9.671-20.165-6.815-3.55 8.47-31.128l3.795-9.781c8.191-25.606-19.838-33.294-38.073-30.752-32.328 4.513-52.864 45.255-83.12 69.544-23.653 18.982-52.117 14.571-50.526 29.716 4.078 38.75 6.944 26.11-10.013 64.427-10.327 23.341 25.672 85.307 57.442 43.991 31.647-41.154 33.486-13.253 75.432-28.921 40.874-15.26 28.417-28.025 24.405-52.832-.991-6.136 9.638-48.947 12.188-54.264z"/><path d="M209.627 78.582c-22.365-3.095.936-18.665-5.896-34.447-3.846-5.764-8.873-7.488-15.483-9.064-9.904-2.364-28.925-2.035-25.184-15.941 5.86-19.415 17.122-17.298 33.519-22.727l2.137-.769c12.146-4.371 21.209-14.642 34.682-13.313C247.3-16.307 245.32-9.386 244.51.619c-2.441 30.025 33.972 21.467 26.076 42.988-8.799 23.983-36.24 37.855-60.959 34.975zm2.936 81.014c-9.589 36.032-25.011 47.317-63.551 50.004-35.092 2.45 78.502-109.48 63.551-50.004zm69.146-248.014c-15.703-30.763-63.544 51.996-19.051 29.98 9.716-4.807 22.36-18.26 19.051-29.98z"/></g><g filter="url(#filter6_f)" fill="#9B8E62"><path d="M162.919-6.399C173-11.932 206.244 21.104 214.11 28.116l4 3.276c19.569 16.016 10.501 13.172 17.011 26.807 1.038 2.176 24.278 15.118-.472 17.853-24.518 2.708-30.302 3.011-54.991.831-8.444-.747-74.624 1.415-61.5-17.984 20.856-30.839-5.771-42.284 24.523-53.858 14.324-5.47 10.945-6.336 20.238-11.44zm126.969 176.241c17.86-1.392 18.737-4.852 27.908 7.337 8.815 11.054 7.901 19.753-.811 31.165-15.5 20.305-14.438-1.718-40.809 24.899-30.12 30.401-14.901 43.862-55.768 41.932-45.993-2.174-54.728 9.783-38.614-35.344.885-2.48 1.698-4.78 2.463-6.926-18.143-6.543-29.459-32.027-55.614-30.474-18.727 1.112-28.501-14.326-17.949-29.822 12.422-18.242-5.6-19.577 23.394-22.614 22.551-2.363 33.047-28.01 36.925-26.641 12.623 4.456 2.343 20.297 46.926 20.676 22.727.193 57.422-1.801 70.662 20.734.837 1.426 1.251 3.171 1.287 5.078z"/><path d="M166.411 299.681c2.334 4.07-2.683 7.038-4.301 10.284l-.001.009c-3.804.504-6.854 3.025-10.14 4.772-4.312 2.43-9.53-.66-13.821 2.345-4.508 3.82-8.955-1.254-11.148-5.043-5.52-5.776-10.549-12.484-12.292-20.437-1.746-3.739 1.096-8.785-2.371-11.709-2.834-3.864-7.136-6.888-8.386-11.733.263-5.092-1.806-10.109-1.063-15.216 2.649-3.992 7.771-4.678 11.498-7.243 3.46-3.418 8.676-3.814 13.248-3.105 5.626 1.25 11.518 1.679 17.177.376 5.566-.672 6.548 5.51 7.515 9.476 1.705 3.686 2.969 8.108 6.511 10.464 3.863 1.46 5.537 6.276 2.947 9.638-3.882 4.658 2.114 7.022 5.963 7.715 3.642 1.978 2.13 6.847.776 9.838-1.052 2.953-3.785 6.531-2.112 9.569zm-33.761 58.365c-.704-4.825-2.297-9.403 3.003-10.287l.06.007c1.904.243 3.787.483 5.564 1.339 2.717 1.308 2.29 6.967 1.92 7.744-1.064 2.235-10.257 3.184-10.547 1.197zm15.906 21.202c2.834-3.11 4.418-8.837 6.925-11.316 3.429-1.287 4.797-1.284 8.35-.546 13.105 2.716 9.259-4.446 15.153 11.946 4.207 11.689 4.971 11.779 11.795 21.635 1.365 1.978 4.038 7.517 2.429 9.868-6.804 8.698-3.361 7.254-14.874 9.189-1.561-.035-9.197-2.308-11.369-2.843-3.156-.777-.847.388-2.957-1.101-3.978-2.8-5.227.59-5.919-1.919-.674-2.459 1.814-1.487.932-6.161-.557-2.953-7.147-12.88-9.128-15.998-.833-1.311-.887-.726-.66-1.886.49-2.466.651-5.584-.232-7.95-1.076-2.879-1.98-1.481-.445-2.918zm-25.154 16.653c2.036 3.55-2.339 6.138-3.751 8.971l-.001.008c-3.319.439-5.98 2.638-8.846 4.163-3.761 2.119-8.313-.576-12.055 2.045-3.934 3.333-7.813-1.094-9.725-4.4-4.588-4.86-6.416-7.83-9.807-13.467-3.28-5.454-2.981-5.322-4.376-11.271-1.273-5.428-4.493-8.98-5.924-13.538.23-4.442-1.575-8.818-.927-13.273 2.311-3.482 6.778-4.08 10.03-6.319 3.019-2.98 7.568-3.326 11.556-2.708 4.908 1.09 10.048 1.466 14.984.33 8.245-.312 3.294 10.502 12.393 14.895 2.929 1.413 6.845 3.593 6.912 7.347.161 9.197 7.417 7.758 2.41 17.878-1.676 3.204-4.218 5.798-2.873 9.339zm-31.506-76.539c-1.337 3.416 5.775 2.475 7.486 1.988 3.629-1.896 3.717-3.466 1.721-6.682-.565-.909-1.395-2.746-1.803-3.33-1.866-2.672-6.847 6.599-7.404 8.024zm134.087-191.536c.279 10.401 19.069-5.452 6.088-6.161-4.22-.23-5.315 2.693-6.088 6.161zm83.59 163.787c4.835 12.203-24.338 22.868-31.026 9.465.296-6.623 1.784-28.504 8.448-31.783 10.966-5.397 19.617 14.848 22.578 22.318z"/></g><g filter="url(#filter7_f)" fill="#A29669"><path d="M236.056 9.788c6.469 1.15 5.149 9.2 7.182 13.852l.009.009c-2.878 4.536-2.911 10.074-3.987 15.169-1.265 6.81-9.274 9.637-9.902 16.941.053 8.27-9.394 8.487-15.435 7.438-11.166.738-22.892.112-33.002-5.158-5.585-1.484-8.451-9.066-14.708-7.97-6.698-.428-13.813 1.475-20.141-1.535-5.233-4.855-12.482-7.139-17.301-12.522-1.906-6.428 1.959-12.541 2.553-18.847-.562-6.783 3.7-12.736 8.571-17.008 6.399-4.916 12.155-10.855 15.841-18.1 4.28-6.578 11.803-2.08 16.932.444 5.492 1.479 11.379 4.093 17.093 2.406 5.039-2.834 11.718-.306 13.001 5.492 1.516 8.35 9.443 4.038 13.648.528 5.398-2.133 9.269 3.863 11.265 8.001 2.227 3.782 3.614 9.928 8.381 10.86z"/><path d="M176.828 113.563c-5.217-.481-26.433-20.883-27.89-24.386-1.872-9.28.64-16.956.764-27.507.137-11.651 16.6-10.72 24.52-9.025 49.873 10.674 28.157 63.279 2.606 60.918z"/></g><g filter="url(#filter8_f)" fill="#A29669"><path d="M287.056 205.788c6.469 1.149 5.149 9.2 7.182 13.852l.009.009c-2.878 4.536-2.911 10.074-3.987 15.169-1.265 6.811-9.274 9.637-9.902 16.941.053 8.27-9.394 8.487-15.435 7.437-11.166.739-22.892.114-33.002-5.157-5.585-1.484-8.451-9.066-14.708-7.97-6.698-.428-13.813 1.475-20.141-1.535-5.233-4.855-12.482-7.139-17.301-12.522-1.906-6.428 1.959-12.542 2.553-18.847-.562-6.783 3.7-12.736 8.571-17.008 6.399-4.916 12.155-10.855 15.841-18.099 4.28-6.579 11.803-2.081 16.932.443 5.492 1.479 11.379 4.093 17.093 2.406 5.039-2.834 11.718-.306 13.001 5.492 1.516 8.35 9.443 4.038 13.648.528 5.398-2.133 9.269 3.863 11.265 8.001 2.227 3.782 3.614 9.928 8.381 10.86z"/><path d="M227.828 309.563c-5.217-.481-26.433-20.883-27.89-24.386-1.872-9.28.64-16.956.764-27.507.137-11.651 16.6-10.719 24.52-9.025 49.873 10.674 28.157 63.279 2.606 60.918z"/></g><g filter="url(#filter9_f)" fill="#A29669"><path d="M170.182 376.559c4.557.809 3.627 6.474 5.059 9.747l.006.007c-2.027 3.192-2.05 7.089-2.808 10.674-.891 4.793-6.532 6.782-6.975 11.922.038 5.82-6.616 5.972-10.871 5.234-7.865.52-16.124.079-23.245-3.63-3.934-1.044-5.952-6.379-10.36-5.608-4.718-.301-9.729 1.038-14.186-1.08-3.686-3.416-8.792-5.024-12.186-8.812-1.343-4.523 1.38-8.826 1.799-13.263-.396-4.773 2.605-8.962 6.036-11.968 4.507-3.46 8.562-7.639 11.158-12.737 3.015-4.629 8.313-1.464 11.926.312 3.868 1.041 8.014 2.88 12.039 1.693 3.55-1.994 8.254-.215 9.157 3.865 1.068 5.876 6.652 2.841 9.613.372 3.802-1.502 6.529 2.718 7.935 5.63 1.568 2.661 2.545 6.986 5.903 7.642z"/><path d="M128.465 449.586c-3.675-.339-18.618-14.696-19.644-17.161-1.319-6.53.45-11.932.538-19.356.096-8.199 11.692-7.543 17.271-6.351 35.128 7.511 19.832 44.529 1.835 42.868z"/></g><g filter="url(#filter10_f)" fill="#9B8E62"><path d="M540.879 732.271c20.165 9.671 3.549-6.815 31.128 8.469l9.782 3.796c25.605 8.19 33.293-19.838 30.751-38.073-4.513-32.328-45.255-52.864-69.544-83.121-18.981-23.652-14.571-52.116-29.716-50.525-38.75 4.078-26.11 6.944-64.427-10.013-23.341-10.327-85.307 25.671-43.991 57.442 41.154 31.646 13.253 33.486 28.921 75.432 15.26 40.873 28.025 28.417 52.832 24.405 6.136-.992 48.947 9.638 54.264 12.188z"/><path d="M485.058 661.38c3.096-22.365 18.665.936 34.447-5.897 5.765-3.845 7.489-8.873 9.064-15.482 2.364-9.904 2.036-28.926 15.941-25.184 19.415 5.86 17.298 17.121 22.728 33.518l.768 2.138c4.371 12.146 14.642 21.209 13.313 34.681-1.372 13.899-8.293 11.919-18.298 11.108-30.025-2.44-21.467 33.973-42.988 26.077-23.983-8.8-37.854-36.24-34.975-60.959zm-81.014 2.935c-36.032-9.588-47.316-25.01-50.004-63.55-2.45-35.092 109.48 78.501 50.004 63.55zm248.014 69.147c30.763-15.703-51.996-63.544-29.979-19.052 4.806 9.716 18.259 22.361 29.979 19.052z"/></g><g filter="url(#filter11_f)" fill="#9B8E62"><path d="M524.039 638.672c5.533 10.081-27.503 43.325-34.515 51.191l-3.276 4c-16.016 19.568-13.172 10.501-26.807 17.011-2.176 1.038-15.118 24.278-17.853-.472-2.708-24.518-3.011-30.302-.831-54.991.747-8.444-1.415-74.624 17.984-61.5 30.839 20.855 42.284-5.771 53.858 24.523 5.471 14.323 6.336 10.945 11.44 20.238zM347.798 765.641c1.392 17.86 4.852 18.737-7.337 27.908-11.054 8.815-19.753 7.9-31.165-.811-20.305-15.5 1.718-14.439-24.899-40.809-30.401-30.12-43.862-14.901-41.932-55.768 2.174-45.993-9.783-54.728 35.344-38.614 2.48.885 4.78 1.698 6.926 2.463 6.543-18.143 32.027-29.459 30.474-55.614-1.113-18.727 14.326-28.501 29.822-17.949 18.242 12.422 19.577-5.6 22.614 23.394 2.363 22.551 28.01 33.047 26.641 36.925-4.456 12.623-20.297 2.343-20.676 46.926-.193 22.726 1.801 57.422-20.734 70.661-1.426.838-3.171 1.252-5.078 1.288z"/><path d="M217.959 642.164c-4.07 2.334-7.038-2.683-10.284-4.301l-.009-.001c-.504-3.804-3.025-6.855-4.772-10.14-2.43-4.312.66-9.53-2.345-13.821-3.82-4.508 1.254-8.955 5.043-11.148 5.776-5.52 12.484-10.549 20.437-12.292 3.739-1.746 8.785 1.096 11.709-2.371 3.864-2.834 6.888-7.136 11.733-8.386 5.092.263 10.109-1.806 15.216-1.063 3.991 2.649 4.678 7.771 7.243 11.498 3.418 3.46 3.814 8.676 3.105 13.248-1.25 5.626-1.679 11.518-.376 17.177.672 5.566-5.51 6.548-9.476 7.514-3.686 1.706-8.108 2.97-10.464 6.512-1.46 3.863-6.277 5.537-9.638 2.947-4.658-3.882-7.022 2.113-7.715 5.963-1.978 3.642-6.847 2.13-9.838.776-2.953-1.052-6.531-3.785-9.569-2.112zm-58.365-33.761c4.825-.704 9.403-2.297 10.287 3.003l-.007.06c-.243 1.904-.483 3.787-1.339 5.564-1.308 2.717-6.967 2.29-7.744 1.92-2.235-1.064-3.184-10.258-1.197-10.547zm-21.202 15.905c3.11 2.835 8.837 4.419 11.316 6.926 1.287 3.429 1.284 4.796.546 8.35-2.717 13.105 4.446 9.259-11.946 15.153-11.689 4.207-11.779 4.971-21.635 11.795-1.978 1.365-7.517 4.038-9.868 2.429-8.698-6.804-7.254-3.361-9.189-14.874.035-1.561 2.308-9.197 2.843-11.369.777-3.156-.388-.847 1.101-2.957 2.8-3.978-.59-5.227 1.919-5.919 2.458-.674 1.487 1.814 6.161.932 2.953-.557 12.88-7.147 15.998-9.128 1.311-.833.726-.887 1.886-.66 2.466.49 5.584.651 7.95-.232 2.879-1.076 1.481-1.981 2.918-.446zm-16.653-25.153c-3.551 2.036-6.138-2.34-8.971-3.751l-.008-.001c-.439-3.319-2.638-5.98-4.163-8.846-2.119-3.761.576-8.313-2.045-12.055-3.333-3.934 1.094-7.813 4.4-9.725 4.86-4.589 7.829-6.416 13.467-9.807 5.454-3.281 5.322-2.981 11.271-4.376 5.428-1.273 8.98-4.493 13.538-5.924 4.442.23 8.818-1.575 13.273-.927 3.482 2.311 4.08 6.778 6.319 10.031 2.98 3.018 3.326 7.567 2.708 11.555-1.09 4.908-1.466 10.048-.33 14.984.312 8.245-10.502 3.294-14.895 12.393-1.413 2.929-3.593 6.845-7.347 6.912-9.197.161-7.758 7.417-17.878 2.41-3.204-1.676-5.798-4.218-9.339-2.873zm76.539-31.506c-3.416-1.337-2.475 5.775-1.988 7.486 1.896 3.629 3.466 3.717 6.682 1.721.909-.565 2.746-1.395 3.33-1.803 2.672-1.866-6.599-6.847-8.024-7.404zm191.536 134.087c-10.401.279 5.452 19.069 6.161 6.088.23-4.22-2.693-5.316-6.161-6.088zm-163.787 83.59c-12.203 4.835-22.868-24.338-9.465-31.026 6.623.296 28.504 1.784 31.783 8.448 5.397 10.965-14.848 19.617-22.318 22.578z"/></g><g filter="url(#filter12_f)" fill="#A29669"><path d="M553.852 687.809c-1.149 6.469-9.2 5.148-13.851 7.182l-.01.009c-4.536-2.878-10.074-2.911-15.168-3.987-6.812-1.266-9.637-9.274-16.942-9.902-8.27.052-8.487-9.394-7.437-15.436-.739-11.165-.113-22.892 5.157-33.001 1.484-5.586 9.066-8.451 7.97-14.709.428-6.698-1.475-13.812 1.535-20.141 4.855-5.233 7.139-12.481 12.523-17.3 6.427-1.907 12.541 1.959 18.846 2.553 6.783-.562 12.736 3.7 17.008 8.57 4.916 6.4 10.855 12.156 18.099 15.842 6.579 4.28 2.081 11.803-.443 16.932-1.479 5.492-4.093 11.378-2.406 17.092 2.835 5.04.306 11.719-5.492 13.001-8.35 1.517-4.038 9.444-.528 13.648 2.133 5.398-3.862 9.27-8.001 11.265-3.782 2.227-9.928 3.614-10.86 8.382z"/><path d="M450.077 628.581c.481-5.218 20.883-26.433 24.387-27.89 9.279-1.872 16.955.64 27.506.764 11.651.136 10.719 16.6 9.025 24.52-10.674 49.873-63.279 28.157-60.918 2.606z"/></g><g filter="url(#filter13_f)" fill="#A29669"><path d="M357.852 738.809c-1.149 6.469-9.2 5.148-13.851 7.182l-.01.009c-4.536-2.878-10.074-2.911-15.168-3.987-6.812-1.266-9.637-9.274-16.942-9.902-8.27.052-8.487-9.394-7.437-15.436-.739-11.165-.113-22.892 5.157-33.001 1.484-5.586 9.066-8.451 7.97-14.709.428-6.698-1.475-13.812 1.535-20.141 4.855-5.233 7.139-12.481 12.523-17.3 6.427-1.907 12.541 1.959 18.846 2.553 6.783-.562 12.736 3.7 17.008 8.57 4.916 6.4 10.855 12.156 18.099 15.842 6.579 4.28 2.081 11.803-.443 16.932-1.479 5.492-4.093 11.378-2.406 17.092 2.835 5.04.306 11.719-5.492 13.001-8.35 1.517-4.038 9.444-.528 13.648 2.133 5.398-3.862 9.27-8.001 11.265-3.782 2.227-9.928 3.614-10.86 8.382z"/><path d="M254.077 679.581c.481-5.218 20.883-26.433 24.387-27.89 9.279-1.872 16.955.64 27.506.764 11.651.136 10.719 16.6 9.025 24.52-10.674 49.873-63.279 28.157-60.918 2.606z"/></g><g filter="url(#filter14_f)" fill="#A29669"><path d="M187.081 621.935c-.809 4.556-6.474 3.626-9.747 5.059l-.007.006c-3.192-2.027-7.089-2.051-10.674-2.808-4.793-.892-6.782-6.532-11.922-6.975-5.819.037-5.972-6.617-5.234-10.872-.52-7.864-.079-16.124 3.63-23.244 1.044-3.934 6.379-5.953 5.608-10.36.301-4.718-1.038-9.729 1.08-14.186 3.417-3.686 5.024-8.792 8.812-12.186 4.524-1.343 8.826 1.38 13.263 1.798 4.773-.395 8.963 2.606 11.968 6.037 3.46 4.507 7.639 8.561 12.737 11.158 4.629 3.014 1.464 8.313-.312 11.926-1.041 3.868-2.88 8.014-1.693 12.039 1.995 3.549.215 8.254-3.865 9.157-5.876 1.068-2.841 6.652-.371 9.613 1.501 3.802-2.718 6.529-5.631 7.934-2.661 1.569-6.986 2.546-7.642 5.904z"/><path d="M114.054 580.218c.339-3.675 14.696-18.618 17.161-19.645 6.53-1.318 11.932.451 19.357.539 8.199.096 7.543 11.692 6.35 17.27-7.511 35.128-44.529 19.833-42.868 1.836z"/></g><g filter="url(#filter15_f)" fill="#9B8E62"><path d="M490.518 56.272c20.165 9.67 3.549-6.816 31.128 8.469l9.782 3.795c25.605 8.19 33.293-19.838 30.751-38.073-4.513-32.327-45.255-52.864-69.544-83.12-18.981-23.653-14.571-52.117-29.716-50.526-38.75 4.078-26.11 6.944-64.427-10.013-23.341-10.327-85.307 25.672-43.991 57.442 41.154 31.647 13.253 33.487 28.921 75.433 15.26 40.873 28.025 28.416 52.832 24.404 6.136-.991 48.947 9.639 54.264 12.189z"/><path d="M434.697-14.62c3.095-22.365 18.665.936 34.447-5.896 5.764-3.846 7.489-8.873 9.064-15.483 2.364-9.904 2.036-28.925 15.941-25.184 19.415 5.86 17.298 17.122 22.727 33.519l.769 2.137c4.371 12.146 14.642 21.21 13.313 34.682-1.372 13.898-8.293 11.918-18.298 11.108-30.025-2.44-21.467 33.972-42.988 26.076-23.983-8.8-37.854-36.24-34.975-60.959zm-81.014 2.936c-36.032-9.589-47.316-25.011-50.004-63.55-2.45-35.093 109.48 78.5 50.004 63.55zm248.014 69.146c30.763-15.703-51.996-63.544-29.98-19.051 4.807 9.716 18.26 22.36 29.98 19.051z"/></g><g filter="url(#filter16_f)" fill="#9B8E62"><path d="M529.038 7.671c5.533 10.081-27.502 43.326-34.514 51.191l-3.276 4.001c-16.017 19.568-13.173 10.5-26.808 17.011-2.176 1.038-15.117 24.278-17.853-.473-2.708-24.517-3.011-30.3-.831-54.99.748-8.444-1.415-74.624 17.984-61.5 30.839 20.855 42.284-5.771 53.858 24.523 5.471 14.323 6.337 10.945 11.44 20.237zm-176.241 126.97c1.393 17.86 4.852 18.737-7.337 27.908-11.053 8.814-19.752 7.9-31.164-.812-20.306-15.499 1.717-14.438-24.9-40.808-30.401-30.12-43.862-14.901-41.931-55.769 2.173-45.992-9.783-54.727 35.343-38.614 2.481.886 4.781 1.699 6.926 2.464 6.543-18.143 32.027-29.46 30.474-55.615-1.112-18.726 14.326-28.5 29.822-17.948 18.243 12.422 19.577-5.6 22.614 23.393 2.363 22.551 28.01 33.048 26.641 36.925-4.455 12.624-20.297 2.343-20.675 46.927-.194 22.726 1.8 57.421-20.735 70.661-1.426.838-3.171 1.252-5.078 1.288z"/><path d="M222.958 11.164c-4.069 2.334-7.037-2.683-10.284-4.3l-.009-.002c-.504-3.804-3.025-6.855-4.771-10.14-2.43-4.313.66-9.53-2.345-13.821-3.821-4.508 1.253-8.955 5.042-11.148 5.776-5.52 12.485-10.55 20.437-12.292 3.74-1.746 8.785 1.096 11.709-2.371 3.865-2.834 6.888-7.137 11.734-8.387 5.092.264 10.108-1.805 15.216-1.062 3.991 2.649 4.677 7.77 7.243 11.498 3.417 3.46 3.813 8.675 3.104 13.248-1.25 5.626-1.679 11.518-.376 17.177.672 5.566-5.51 6.548-9.476 7.514-3.685 1.706-8.108 2.97-10.463 6.512-1.461 3.863-6.277 5.537-9.638 2.947-4.659-3.882-7.023 2.113-7.716 5.963-1.978 3.642-6.847 2.13-9.838.776-2.953-1.052-6.531-3.786-9.569-2.112zm-58.365-33.762c4.826-.703 9.403-2.296 10.288 3.004l-.008.06c-.243 1.904-.483 3.786-1.339 5.564-1.307 2.717-6.966 2.29-7.744 1.92-2.235-1.064-3.184-10.258-1.197-10.548zM143.392-6.692c3.109 2.835 8.836 4.419 11.315 6.926 1.288 3.429 1.285 4.796.546 8.35-2.716 13.105 4.446 9.259-11.946 15.153-11.689 4.207-11.778 4.971-21.635 11.795-1.977 1.365-7.517 4.038-9.868 2.429-8.697-6.804-7.253-3.361-9.188-14.874.034-1.561 2.308-9.197 2.842-11.369.777-3.156-.388-.847 1.101-2.957 2.8-3.979-.59-5.227 1.92-5.919 2.458-.674 1.486 1.814 6.16.932 2.953-.557 12.881-7.147 15.998-9.128 1.311-.834.726-.888 1.886-.66 2.467.49 5.584.65 7.95-.232 2.879-1.076 1.481-1.98 2.919-.446zm-16.654-25.153c-3.55 2.036-6.138-2.34-8.97-3.752h-.008c-.44-3.32-2.639-5.98-4.163-8.846-2.12-3.762.576-8.313-2.046-12.056-3.332-3.933 1.094-7.812 4.4-9.724 4.86-4.589 7.83-6.416 13.467-9.807 5.454-3.28 5.323-2.981 11.271-4.376 5.428-1.273 8.98-4.493 13.538-5.924 4.442.23 8.818-1.575 13.273-.927 3.482 2.311 4.08 6.778 6.319 10.03 2.981 3.019 3.326 7.568 2.708 11.555-1.09 4.909-1.465 10.049-.33 14.985.313 8.245-10.502 3.294-14.894 12.393-1.414 2.928-3.594 6.845-7.348 6.911-9.197.162-7.758 7.417-17.878 2.41-3.204-1.675-5.798-4.217-9.339-2.872zm76.54-31.507c-3.416-1.336-2.476 5.776-1.989 7.487 1.896 3.629 3.467 3.717 6.682 1.72.909-.564 2.747-1.395 3.33-1.802 2.672-1.866-6.599-6.847-8.023-7.404zM394.813 70.736c-10.401.279 5.452 19.069 6.162 6.087.23-4.22-2.694-5.315-6.162-6.087zm-163.787 83.59c-12.203 4.835-22.868-24.338-9.465-31.026 6.623.296 28.504 1.784 31.783 8.448 5.397 10.965-14.848 19.617-22.318 22.578z"/></g><g filter="url(#filter17_f)" fill="#9B8E62"><path d="M634.038 7.671c5.533 10.081-27.503 43.326-34.514 51.191l-3.277 4.001c-16.016 19.568-13.172 10.5-26.807 17.011-2.176 1.038-15.118 24.278-17.853-.473-2.708-24.517-3.011-30.3-.831-54.99.747-8.444-1.415-74.624 17.984-61.5 30.839 20.855 42.284-5.771 53.858 24.523 5.471 14.323 6.336 10.945 11.44 20.237zm-176.241 126.97c1.392 17.86 4.852 18.737-7.337 27.908-11.054 8.814-19.753 7.9-31.165-.812-20.305-15.499 1.718-14.438-24.899-40.808-30.401-30.12-43.862-14.901-41.932-55.769 2.174-45.992-9.783-54.727 35.344-38.614 2.48.886 4.78 1.699 6.926 2.464 6.543-18.143 32.027-29.46 30.474-55.615-1.112-18.726 14.326-28.5 29.822-17.948 18.242 12.422 19.577-5.6 22.614 23.393 2.363 22.551 28.01 33.048 26.641 36.925-4.456 12.624-20.297 2.343-20.676 46.927-.193 22.726 1.801 57.421-20.734 70.661-1.426.838-3.171 1.252-5.078 1.288z"/><path d="M327.958 11.164c-4.07 2.334-7.038-2.683-10.284-4.3l-.009-.002c-.504-3.804-3.025-6.855-4.772-10.14-2.43-4.313.66-9.53-2.345-13.821-3.82-4.508 1.254-8.955 5.043-11.148 5.776-5.52 12.484-10.55 20.437-12.292 3.739-1.746 8.785 1.096 11.709-2.371 3.864-2.834 6.888-7.137 11.733-8.387 5.092.264 10.109-1.805 15.216-1.062 3.992 2.649 4.678 7.77 7.243 11.498 3.418 3.46 3.814 8.675 3.105 13.248-1.25 5.626-1.679 11.518-.376 17.177.672 5.566-5.51 6.548-9.476 7.514-3.686 1.706-8.108 2.97-10.464 6.512-1.46 3.863-6.276 5.537-9.638 2.947-4.658-3.882-7.022 2.113-7.715 5.963-1.978 3.642-6.847 2.13-9.838.776-2.953-1.052-6.531-3.786-9.569-2.112zm-58.365-33.762c4.825-.703 9.403-2.296 10.287 3.004l-.007.06c-.243 1.904-.483 3.786-1.339 5.564-1.308 2.717-6.967 2.29-7.744 1.92-2.235-1.064-3.184-10.258-1.197-10.548zM248.391-6.692c3.11 2.835 8.837 4.419 11.316 6.926 1.287 3.429 1.284 4.796.546 8.35-2.716 13.105 4.446 9.259-11.946 15.153-11.689 4.207-11.779 4.971-21.635 11.795-1.978 1.365-7.517 4.038-9.868 2.429-8.698-6.804-7.254-3.361-9.189-14.874.035-1.561 2.308-9.197 2.843-11.369.777-3.156-.388-.847 1.101-2.957 2.8-3.979-.59-5.227 1.919-5.919 2.459-.674 1.487 1.814 6.161.932 2.953-.557 12.88-7.147 15.998-9.128 1.311-.834.726-.888 1.886-.66 2.466.49 5.584.65 7.95-.232 2.879-1.076 1.481-1.98 2.918-.446zm-16.653-25.153c-3.55 2.036-6.138-2.34-8.971-3.752h-.008c-.439-3.32-2.638-5.98-4.163-8.846-2.119-3.762.576-8.313-2.045-12.056-3.333-3.933 1.094-7.812 4.4-9.724 4.86-4.589 7.83-6.416 13.467-9.807 5.454-3.28 5.322-2.981 11.271-4.376 5.428-1.273 8.98-4.493 13.538-5.924 4.442.23 8.818-1.575 13.273-.927 3.482 2.311 4.08 6.778 6.319 10.03 2.98 3.019 3.326 7.568 2.708 11.555-1.09 4.909-1.466 10.049-.33 14.985.312 8.245-10.502 3.294-14.895 12.393-1.413 2.928-3.593 6.845-7.347 6.911-9.197.162-7.758 7.417-17.878 2.41-3.204-1.675-5.798-4.217-9.339-2.872zm76.539-31.507c-3.416-1.336-2.475 5.776-1.988 7.487 1.896 3.629 3.466 3.717 6.682 1.72.909-.564 2.746-1.395 3.33-1.802 2.672-1.866-6.599-6.847-8.024-7.404zM499.813 70.736c-10.401.279 5.452 19.069 6.161 6.087.23-4.22-2.693-5.315-6.161-6.087zm-163.787 83.59c-12.203 4.835-22.868-24.338-9.465-31.026 6.623.296 28.504 1.784 31.783 8.448 5.397 10.965-14.848 19.617-22.318 22.578z"/></g><g filter="url(#filter18_f)" fill="#A29669"><path d="M552.851 11.81c-1.149 6.468-9.2 5.148-13.852 7.181l-.009.01c-4.536-2.879-10.074-2.912-15.169-3.988-6.811-1.265-9.637-9.274-16.941-9.902-8.27.053-8.487-9.394-7.438-15.435-.738-11.166-.113-22.892 5.158-33.002 1.484-5.585 9.066-8.45 7.969-14.708.429-6.698-1.474-13.813 1.536-20.141 4.854-5.233 7.139-12.482 12.522-17.3 6.428-1.907 12.541 1.959 18.847 2.552 6.783-.561 12.736 3.7 17.008 8.57 4.916 6.4 10.855 12.156 18.099 15.842 6.579 4.28 2.081 11.803-.443 16.932-1.479 5.492-4.093 11.379-2.406 17.093 2.834 5.04.306 11.718-5.493 13-8.349 1.517-4.037 9.444-.527 13.649 2.133 5.398-3.863 9.269-8.002 11.265-3.781 2.227-9.928 3.614-10.859 8.381z"/><path d="M449.076-47.42c.481-5.216 20.883-26.432 24.386-27.889 9.28-1.872 16.956.64 27.507.764 11.651.137 10.719 16.6 9.025 24.52-10.674 49.873-63.279 28.157-60.918 2.606z"/></g><g filter="url(#filter19_f)" fill="#A29669"><path d="M356.851 62.81c-1.149 6.468-9.199 5.148-13.851 7.181l-.009.01c-4.537-2.879-10.074-2.912-15.169-3.988-6.812-1.265-9.637-9.274-16.942-9.902-8.27.053-8.487-9.394-7.437-15.435-.739-11.166-.113-22.892 5.158-33.002 1.483-5.585 9.065-8.45 7.969-14.708.428-6.698-1.474-13.813 1.535-20.141 4.855-5.233 7.139-12.482 12.523-17.3 6.427-1.907 12.541 1.959 18.846 2.552 6.783-.561 12.737 3.7 17.008 8.57 4.917 6.4 10.856 12.156 18.1 15.842 6.578 4.28 2.081 11.803-.443 16.932-1.479 5.492-4.094 11.379-2.407 17.093 2.835 5.04.306 11.718-5.492 13-8.35 1.517-4.037 9.444-.528 13.649 2.134 5.398-3.862 9.269-8.001 11.265-3.781 2.227-9.928 3.614-10.86 8.381z"/><path d="M253.076 3.58c.481-5.216 20.884-26.432 24.387-27.889 9.28-1.872 16.956.64 27.506.765 11.652.136 10.719 16.6 9.025 24.52-10.674 49.873-63.279 28.156-60.918 2.605z"/></g></g><defs><filter id="filter0_f" x="64.64" y="287" width="233" height="353" filterUnits="userSpaceOnUse" color-interpolation-filters="sRGB"><feFlood flood-opacity="0" result="BackgroundImageFix"/><feBlend in="SourceGraphic" in2="BackgroundImageFix" result="shape"/><feGaussianBlur stdDeviation="12" result="effect1_foregroundBlur"/></filter><filter id="filter1_f" x="-62.36" y="-11.36" width="533.608" height="534.36" filterUnits="userSpaceOnUse" color-interpolation-filters="sRGB"><feFlood flood-opacity="0" result="BackgroundImageFix"/><feBlend in="SourceGraphic" in2="BackgroundImageFix" result="shape"/><feGaussianBlur stdDeviation="12" result="effect1_foregroundBlur"/></filter><filter id="filter2_f" x="115.64" y="383" width="163" height="183" filterUnits="userSpaceOnUse" color-interpolation-filters="sRGB"><feFlood flood-opacity="0" result="BackgroundImageFix"/><feBlend in="SourceGraphic" in2="BackgroundImageFix" result="shape"/><feGaussianBlur stdDeviation="12" result="effect1_foregroundBlur"/></filter><filter id="filter3_f" x="64.64" y="187" width="163" height="183" filterUnits="userSpaceOnUse" color-interpolation-filters="sRGB"><feFlood flood-opacity="0" result="BackgroundImageFix"/><feBlend in="SourceGraphic" in2="BackgroundImageFix" result="shape"/><feGaussianBlur stdDeviation="12" result="effect1_foregroundBlur"/></filter><filter id="filter4_f" x="183.64" y="47" width="129" height="143" filterUnits="userSpaceOnUse" color-interpolation-filters="sRGB"><feFlood flood-opacity="0" result="BackgroundImageFix"/><feBlend in="SourceGraphic" in2="BackgroundImageFix" result="shape"/><feGaussianBlur stdDeviation="12" result="effect1_foregroundBlur"/></filter><filter id="filter5_f" x="85.247" y="-119.36" width="233" height="353" filterUnits="userSpaceOnUse" color-interpolation-filters="sRGB"><feFlood flood-opacity="0" result="BackgroundImageFix"/><feBlend in="SourceGraphic" in2="BackgroundImageFix" result="shape"/><feGaussianBlur stdDeviation="12" result="effect1_foregroundBlur"/></filter><filter id="filter6_f" x="-112.361" y="-48.36" width="533.608" height="534.36" filterUnits="userSpaceOnUse" color-interpolation-filters="sRGB"><feFlood flood-opacity="0" result="BackgroundImageFix"/><feBlend in="SourceGraphic" in2="BackgroundImageFix" result="shape"/><feGaussianBlur stdDeviation="12" result="effect1_foregroundBlur"/></filter><filter id="filter7_f" x="104.247" y="-45.36" width="163" height="183" filterUnits="userSpaceOnUse" color-interpolation-filters="sRGB"><feFlood flood-opacity="0" result="BackgroundImageFix"/><feBlend in="SourceGraphic" in2="BackgroundImageFix" result="shape"/><feGaussianBlur stdDeviation="12" result="effect1_foregroundBlur"/></filter><filter id="filter8_f" x="155.247" y="150.64" width="163" height="183" filterUnits="userSpaceOnUse" color-interpolation-filters="sRGB"><feFlood flood-opacity="0" result="BackgroundImageFix"/><feBlend in="SourceGraphic" in2="BackgroundImageFix" result="shape"/><feGaussianBlur stdDeviation="12" result="effect1_foregroundBlur"/></filter><filter id="filter9_f" x="70.247" y="330.64" width="129" height="143" filterUnits="userSpaceOnUse" color-interpolation-filters="sRGB"><feFlood flood-opacity="0" result="BackgroundImageFix"/><feBlend in="SourceGraphic" in2="BackgroundImageFix" result="shape"/><feGaussianBlur stdDeviation="12" result="effect1_foregroundBlur"/></filter><filter id="filter10_f" x="330" y="537" width="353" height="233" filterUnits="userSpaceOnUse" color-interpolation-filters="sRGB"><feFlood flood-opacity="0" result="BackgroundImageFix"/><feBlend in="SourceGraphic" in2="BackgroundImageFix" result="shape"/><feGaussianBlur stdDeviation="12" result="effect1_foregroundBlur"/></filter><filter id="filter11_f" x="31.64" y="363.392" width="534.36" height="533.608" filterUnits="userSpaceOnUse" color-interpolation-filters="sRGB"><feFlood flood-opacity="0" result="BackgroundImageFix"/><feBlend in="SourceGraphic" in2="BackgroundImageFix" result="shape"/><feGaussianBlur stdDeviation="12" result="effect1_foregroundBlur"/></filter><filter id="filter12_f" x="426" y="556" width="183" height="163" filterUnits="userSpaceOnUse" color-interpolation-filters="sRGB"><feFlood flood-opacity="0" result="BackgroundImageFix"/><feBlend in="SourceGraphic" in2="BackgroundImageFix" result="shape"/><feGaussianBlur stdDeviation="12" result="effect1_foregroundBlur"/></filter><filter id="filter13_f" x="230" y="607" width="183" height="163" filterUnits="userSpaceOnUse" color-interpolation-filters="sRGB"><feFlood flood-opacity="0" result="BackgroundImageFix"/><feBlend in="SourceGraphic" in2="BackgroundImageFix" result="shape"/><feGaussianBlur stdDeviation="12" result="effect1_foregroundBlur"/></filter><filter id="filter14_f" x="90" y="522" width="143" height="129" filterUnits="userSpaceOnUse" color-interpolation-filters="sRGB"><feFlood flood-opacity="0" result="BackgroundImageFix"/><feBlend in="SourceGraphic" in2="BackgroundImageFix" result="shape"/><feGaussianBlur stdDeviation="12" result="effect1_foregroundBlur"/></filter><filter id="filter15_f" x="279.639" y="-139" width="353" height="233" filterUnits="userSpaceOnUse" color-interpolation-filters="sRGB"><feFlood flood-opacity="0" result="BackgroundImageFix"/><feBlend in="SourceGraphic" in2="BackgroundImageFix" result="shape"/><feGaussianBlur stdDeviation="12" result="effect1_foregroundBlur"/></filter><filter id="filter16_f" x="36.639" y="-267.608" width="534.36" height="533.608" filterUnits="userSpaceOnUse" color-interpolation-filters="sRGB"><feFlood flood-opacity="0" result="BackgroundImageFix"/><feBlend in="SourceGraphic" in2="BackgroundImageFix" result="shape"/><feGaussianBlur stdDeviation="12" result="effect1_foregroundBlur"/></filter><filter id="filter17_f" x="141.639" y="-267.608" width="534.36" height="533.608" filterUnits="userSpaceOnUse" color-interpolation-filters="sRGB"><feFlood flood-opacity="0" result="BackgroundImageFix"/><feBlend in="SourceGraphic" in2="BackgroundImageFix" result="shape"/><feGaussianBlur stdDeviation="12" result="effect1_foregroundBlur"/></filter><filter id="filter18_f" x="424.999" y="-120" width="183" height="163" filterUnits="userSpaceOnUse" color-interpolation-filters="sRGB"><feFlood flood-opacity="0" result="BackgroundImageFix"/><feBlend in="SourceGraphic" in2="BackgroundImageFix" result="shape"/><feGaussianBlur stdDeviation="12" result="effect1_foregroundBlur"/></filter><filter id="filter19_f" x="228.999" y="-69" width="183" height="163" filterUnits="userSpaceOnUse" color-interpolation-filters="sRGB"><feFlood flood-opacity="0" result="BackgroundImageFix"/><feBlend in="SourceGraphic" in2="BackgroundImageFix" result="shape"/><feGaussianBlur stdDeviation="12" result="effect1_foregroundBlur"/></filter><clipPath id="clip0"><path transform="rotate(180 681 720)" fill="#fff" d="M681 720h681v720H681z"/></clipPath></defs></svg>