<svg width="1214" height="600" viewBox="0 0 1214 600" fill="none" xmlns="http://www.w3.org/2000/svg"><g clip-path="url(#clip0)" fill="#FFF7E1"><g filter="url(#filter0_f)"><path d="M976.271 130.121c9.671-20.165-6.815-3.549 8.469-31.129l3.796-9.78c8.19-25.606-19.838-33.295-38.073-30.752-32.328 4.513-52.864 45.255-83.121 69.544-23.652 18.981-52.117 14.571-50.525 29.716 4.078 38.75 6.944 26.11-10.013 64.427-10.328 23.341 25.671 85.307 57.442 43.991 31.646-41.154 33.486-13.253 75.432-28.921 40.873-15.26 28.417-28.025 24.405-52.832-.992-6.136 9.638-48.947 12.188-54.264z"/><path d="M905.38 185.942c-22.365-3.096.936-18.665-5.897-34.447-3.845-5.765-8.873-7.489-15.482-9.064-9.905-2.364-28.926-2.036-25.184-15.941 5.86-19.415 17.121-17.298 33.518-22.728l2.138-.768c12.146-4.371 21.209-14.642 34.681-13.313 13.899 1.372 11.919 8.293 11.108 18.298-2.44 30.025 33.973 21.467 26.077 42.988-8.8 23.983-36.24 37.854-60.959 34.975zm2.935 81.014c-9.588 36.032-25.01 47.316-63.55 50.004-35.092 2.45 78.501-109.48 63.55-50.004zm69.147-248.014c-15.703-30.763-63.544 51.996-19.052 29.98 9.716-4.807 22.361-18.26 19.052-29.98z"/></g><g filter="url(#filter1_f)"><path d="M936.945 85.103c-10.39-8.254-20.953-14.864-25.911-12.142-9.293 5.103-5.914 5.97-20.238 11.44-30.294 11.574-3.667 23.019-24.523 53.858-13.124 19.399 53.056 17.237 61.5 17.984 4.079.36 7.642.652 10.859.877-2.876 1.29-5.826 2.475-7.629 5.192-.743 5.108 1.326 10.125 1.063 15.216 1.25 4.846 5.552 7.869 8.386 11.734 3.467 2.924.625 7.97 2.371 11.709 1.743 7.952 6.772 14.661 12.292 20.437 2.193 3.789 6.64 8.863 11.148 5.043 4.291-3.006 9.509.084 13.821-2.345 3.286-1.747 6.336-4.268 10.14-4.772l.001-.009c1.618-3.247 6.635-6.215 4.301-10.284-1.673-3.038 1.06-6.616 2.112-9.569 1.354-2.991 2.866-7.86-.776-9.838-3.849-.693-9.845-3.057-5.963-7.716 2.59-3.361.916-8.177-2.947-9.638-3.542-2.355-4.806-6.778-6.511-10.463-.442-1.812-.887-4.085-1.77-5.957 1.306-.141 2.668-.29 4.093-.448 24.746-2.736 1.51-15.677.472-17.853-6.159-12.899 1.624-11.05-14.085-24.373 17.896 5.329 28.228 23.672 43.219 29.079-.76 2.146-1.58 4.446-2.46 6.926-16.115 45.126-7.38 33.17 38.61 35.343 40.87 1.931 25.65-11.53 55.77-41.931 26.37-26.617 25.31-4.594 40.81-24.899 8.71-11.413 9.63-20.112.81-31.165-9.17-12.189-10.05-8.73-27.91-7.337-.03-1.907-.45-3.652-1.28-5.078-13.24-22.535-47.94-20.541-70.67-20.734-44.58-.379-34.3-16.22-46.922-20.676-3.878-1.369-14.374 24.278-36.925 26.64-28.994 3.038-10.972 4.373-23.394 22.615a28.882 28.882 0 00-1.864 3.135z"/><path d="M880.765 167.406c-.704-4.825-2.297-9.403 3.003-10.287l.06.007c1.904.243 3.787.483 5.564 1.339 2.717 1.307 2.29 6.967 1.92 7.744-1.064 2.235-10.257 3.184-10.547 1.197zm22.831 9.886c-2.507 2.479-4.091 8.206-6.925 11.315-1.535 1.438-.631.04.445 2.919.883 2.366.722 5.484.232 7.95-.227 1.16-.173.575.66 1.886 1.981 3.117 8.571 13.045 9.128 15.998.882 4.674-1.606 3.702-.932 6.16.692 2.51 1.941-.88 5.919 1.92 2.11 1.489-.199.324 2.957 1.101.989.243 3.109.847 5.273 1.436-.162.328-.28.585-.342.744-1.337 3.416 5.775 2.476 7.486 1.989 1.24-.648 2.066-1.257 2.537-1.907 7.241-1.153 5.314-.969 11.289-8.608 1.609-2.351-1.064-7.89-2.429-9.868-6.824-9.856-7.588-9.946-11.795-21.635-5.894-16.392-2.048-9.23-15.153-11.946-3.554-.738-4.921-.741-8.35.546zm-32.079 27.969c2.036 3.55-2.339 6.138-3.751 8.971l-.001.008c-3.319.439-5.98 2.638-8.846 4.162-3.761 2.12-8.313-.576-12.055 2.046-3.934 3.333-7.813-1.094-9.725-4.4-4.588-4.86-6.416-7.83-9.807-13.467-3.281-5.454-2.981-5.323-4.376-11.271-1.273-5.428-4.493-8.98-5.924-13.538.23-4.442-1.575-8.818-.927-13.273 2.311-3.482 6.778-4.08 10.031-6.319 3.018-2.98 7.567-3.326 11.555-2.708 4.908 1.09 10.048 1.466 14.984.33 8.245-.312 3.294 10.502 12.393 14.895 2.929 1.413 6.845 3.593 6.912 7.347.161 9.197 7.417 7.758 2.41 17.878-1.676 3.204-4.218 5.798-2.873 9.339zM1054.1 37.186c.28 10.401 19.07-5.452 6.09-6.161-4.22-.23-5.32 2.693-6.09 6.161zm83.59 163.787c4.83 12.203-24.34 22.868-31.03 9.465.3-6.623 1.79-28.504 8.45-31.783 10.97-5.397 19.62 14.848 22.58 22.318z"/></g><g filter="url(#filter2_f)"><path d="M931.809 117.148c6.469 1.149 5.148 9.2 7.182 13.851l.009.01c-2.878 4.536-2.911 10.074-3.987 15.168-1.266 6.812-9.274 9.637-9.902 16.942.052 8.27-9.394 8.487-15.436 7.437-11.165.739-22.892.113-33.001-5.157-5.586-1.484-8.451-9.066-14.709-7.97-6.698-.428-13.812 1.475-20.141-1.535-5.233-4.855-12.481-7.139-17.3-12.523-1.907-6.427 1.959-12.541 2.553-18.846-.562-6.783 3.7-12.737 8.57-17.008 6.4-4.916 12.156-10.855 15.842-18.1 4.28-6.578 11.803-2.08 16.932.444 5.492 1.479 11.378 4.093 17.092 2.406 5.04-2.834 11.719-.306 13.001 5.492 1.517 8.35 9.444 4.038 13.648.528 5.398-2.133 9.27 3.862 11.265 8.001 2.227 3.782 3.614 9.928 8.382 10.86z"/><path d="M872.581 220.923c-5.218-.481-26.433-20.883-27.89-24.387-1.872-9.279.64-16.955.764-27.506.136-11.651 16.6-10.719 24.52-9.025 49.873 10.674 28.157 63.279 2.606 60.918z"/></g><g filter="url(#filter3_f)"><path d="M1164.81 106.148c6.47 1.149 5.15 9.2 7.18 13.851l.01.01c-2.88 4.536-2.91 10.074-3.99 15.168-1.26 6.812-9.27 9.637-9.9 16.942.05 8.27-9.39 8.487-15.43 7.437-11.17.739-22.9.113-33.01-5.157-5.58-1.484-8.45-9.066-14.7-7.97-6.7-.428-13.82 1.475-20.15-1.535-5.23-4.855-12.48-7.139-17.3-12.523-1.9-6.427 1.96-12.541 2.56-18.846-.56-6.783 3.7-12.737 8.57-17.008 6.4-4.916 12.15-10.855 15.84-18.1 4.28-6.578 11.8-2.08 16.93.444 5.49 1.479 11.38 4.093 17.09 2.406 5.04-2.834 11.72-.306 13 5.492 1.52 8.35 9.45 4.037 13.65.528 5.4-2.133 9.27 3.862 11.27 8.001 2.22 3.782 3.61 9.928 8.38 10.86z"/><path d="M1105.58 209.923c-5.22-.481-26.43-20.883-27.89-24.387-1.87-9.279.64-16.955.77-27.506.13-11.651 16.6-10.719 24.52-9.025 49.87 10.674 28.15 63.279 2.6 60.918z"/></g><g filter="url(#filter4_f)"><path d="M917.935 127.919c4.557.809 3.627 6.474 5.059 9.747l.006.007c-2.027 3.192-2.05 7.089-2.808 10.674-.891 4.793-6.532 6.782-6.974 11.922.037 5.819-6.617 5.972-10.872 5.234-7.865.52-16.124.079-23.245-3.63-3.934-1.044-5.952-6.379-10.36-5.608-4.717-.301-9.728 1.038-14.186-1.08-3.686-3.417-8.791-5.024-12.186-8.812-1.342-4.524 1.38-8.826 1.799-13.263-.396-4.773 2.606-8.963 6.036-11.968 4.508-3.46 8.562-7.639 11.158-12.737 3.015-4.629 8.314-1.464 11.926.312 3.868 1.041 8.015 2.88 12.039 1.693 3.55-1.995 8.254-.215 9.158 3.865 1.068 5.876 6.651 2.841 9.612.371 3.802-1.501 6.529 2.718 7.935 5.631 1.568 2.661 2.545 6.986 5.903 7.642z"/><path d="M876.218 200.946c-3.675-.339-18.618-14.696-19.644-17.161-1.318-6.53.451-11.932.538-19.357.096-8.199 11.692-7.543 17.271-6.35 35.128 7.511 19.832 44.529 1.835 42.868z"/></g><g filter="url(#filter5_f)"><path d="M906.482 405.879c-9.671 20.165 6.815 3.549-8.469 31.128l-3.796 9.782c-8.19 25.605 19.838 33.293 38.073 30.751 32.328-4.513 52.864-45.255 83.12-69.544 23.65-18.981 52.12-14.571 50.53-29.716-4.08-38.75-6.95-26.11 10.01-64.427 10.33-23.341-25.67-85.307-57.44-43.991-31.649 41.154-33.489 13.253-75.435 28.921-40.874 15.26-28.417 28.025-24.405 52.832.992 6.136-9.638 48.947-12.188 54.264z"/><path d="M977.373 350.058c22.365 3.096-.936 18.665 5.897 34.447 3.845 5.765 8.873 7.489 15.482 9.064 9.908 2.364 28.928 2.036 25.188 15.941-5.86 19.415-17.13 17.298-33.522 22.728l-2.138.768c-12.146 4.371-21.209 14.642-34.681 13.313-13.899-1.372-11.919-8.293-11.108-18.298 2.44-30.025-33.973-21.467-26.077-42.988 8.8-23.983 36.24-37.854 60.959-34.975zm-2.935-81.014c9.588-36.032 25.01-47.316 63.552-50.004 35.09-2.45-78.503 109.48-63.552 50.004zm-69.147 248.014c15.703 30.763 63.544-51.996 19.052-29.979-9.716 4.806-22.361 18.259-19.052 29.979z"/></g><g filter="url(#filter6_f)"><path d="M1024.08 560.399c-10.08 5.533-43.324-27.502-51.189-34.514l-4.001-3.276c-19.568-16.017-10.501-13.173-17.011-26.808-1.038-2.176-24.278-15.117.473-17.853 24.517-2.708 30.301-3.011 54.988-.831 8.45.748 74.63-1.415 61.5 17.984-20.85 30.839 5.77 42.284-24.52 53.858-14.32 5.471-10.95 6.337-20.24 11.44zM897.112 384.158c-17.86 1.393-18.737 4.852-27.908-7.337-8.814-11.053-7.9-19.752.812-31.164 15.499-20.306 14.438 1.717 40.808-24.9 30.12-30.401 14.901-43.862 55.769-41.931 45.997 2.173 54.727-9.783 38.617 35.343-.89 2.481-1.7 4.781-2.47 6.926 18.15 6.543 29.46 32.027 55.62 30.474 18.72-1.112 28.5 14.326 17.95 29.822-12.43 18.243 5.6 19.577-23.4 22.615-22.55 2.362-33.04 28.009-36.92 26.64-12.63-4.455-2.35-20.297-46.929-20.675-22.726-.194-57.421 1.8-70.661-20.735-.838-1.426-1.252-3.171-1.288-5.078z"/><path d="M1020.59 254.319c-2.33-4.069 2.68-7.037 4.3-10.284v-.009c3.81-.504 6.86-3.025 10.14-4.771 4.31-2.43 9.53.66 13.82-2.345 4.51-3.821 8.96 1.253 11.15 5.042 5.52 5.776 10.55 12.485 12.29 20.437 1.75 3.74-1.09 8.785 2.37 11.709 2.84 3.865 7.14 6.888 8.39 11.734-.26 5.092 1.81 10.108 1.06 15.216-2.65 3.991-7.77 4.677-11.5 7.243-3.46 3.417-8.67 3.813-13.24 3.104-5.63-1.25-11.52-1.679-17.18-.376-5.57.672-6.55-5.51-7.52-9.476-1.7-3.685-2.96-8.108-6.51-10.463-3.86-1.461-5.53-6.277-2.94-9.638 3.88-4.659-2.12-7.023-5.97-7.716-3.64-1.978-2.13-6.847-.77-9.838 1.05-2.953 3.78-6.531 2.11-9.569zm33.76-58.365c.7 4.826 2.3 9.403-3 10.288l-.06-.008c-1.91-.243-3.79-.483-5.57-1.339-2.71-1.307-2.29-6.966-1.92-7.744 1.07-2.235 10.26-3.184 10.55-1.197zm-15.91-21.201c-2.83 3.109-4.41 8.836-6.92 11.315-3.43 1.288-4.8 1.285-8.35.546-13.11-2.716-9.26 4.446-15.15-11.946-4.21-11.689-4.98-11.778-11.799-21.635-1.364-1.977-4.038-7.517-2.429-9.868 6.808-8.697 3.361-7.253 14.878-9.188 1.56.034 9.19 2.308 11.36 2.842 3.16.777.85-.388 2.96 1.101 3.98 2.8 5.23-.59 5.92 1.92.68 2.458-1.81 1.486-.93 6.16.56 2.953 7.15 12.881 9.13 15.998.83 1.311.88.726.66 1.886-.49 2.467-.65 5.584.23 7.95 1.07 2.879 1.98 1.481.44 2.919zm25.16-16.654c-2.04-3.55 2.34-6.138 3.75-8.97v-.008c3.32-.44 5.98-2.639 8.85-4.163 3.76-2.12 8.31.576 12.05-2.046 3.94-3.332 7.81 1.094 9.73 4.4 4.58 4.86 6.41 7.83 9.8 13.468 3.28 5.453 2.98 5.322 4.38 11.27 1.27 5.428 4.49 8.98 5.92 13.538-.23 4.442 1.58 8.818.93 13.273-2.31 3.482-6.78 4.08-10.03 6.319-3.02 2.981-7.57 3.326-11.56 2.708-4.9-1.09-10.04-1.465-14.98-.33-8.25.313-3.29-10.502-12.39-14.894-2.93-1.414-6.85-3.594-6.91-7.348-.17-9.197-7.42-7.758-2.41-17.878 1.67-3.204 4.21-5.798 2.87-9.339zm31.5 76.54c1.34-3.416-5.77-2.475-7.48-1.989-3.63 1.896-3.72 3.467-1.72 6.682.56.909 1.39 2.747 1.8 3.33 1.87 2.672 6.85-6.599 7.4-8.023zM961.017 426.174c-.279-10.401-19.069 5.452-6.087 6.162 4.219.23 5.315-2.694 6.087-6.162zm-83.59-163.787c-4.835-12.203 24.338-22.868 31.027-9.465-.297 6.623-1.785 28.504-8.449 31.783-10.965 5.397-19.617-14.848-22.578-22.318z"/></g><g filter="url(#filter7_f)"><path d="M950.944 544.212c-6.469-1.149-5.148-9.2-7.182-13.851l-.009-.009c2.878-4.537 2.911-10.075 3.987-15.169 1.266-6.812 9.274-9.637 9.902-16.942-.052-8.27 9.394-8.487 15.435-7.437 11.166-.739 22.892-.113 33.003 5.157 5.58 1.484 8.45 9.066 14.71 7.97 6.7.428 13.81-1.475 20.14 1.535 5.23 4.855 12.48 7.139 17.3 12.523 1.91 6.427-1.96 12.541-2.55 18.846.56 6.783-3.7 12.737-8.57 17.008-6.4 4.917-12.16 10.855-15.85 18.1-4.28 6.578-11.8 2.08-16.93-.444-5.49-1.479-11.38-4.093-17.09-2.406-5.04 2.835-11.719.306-13.002-5.492-1.516-8.35-9.443-4.037-13.647-.528-5.398 2.134-9.27-3.862-11.265-8.001-2.227-3.782-3.614-9.928-8.382-10.86z"/><path d="M1010.17 440.437c5.22.481 26.44 20.883 27.89 24.387 1.87 9.279-.64 16.955-.76 27.506-.14 11.651-16.6 10.719-24.52 9.025-49.875-10.674-28.159-63.279-2.61-60.918z"/></g><g filter="url(#filter8_f)"><path d="M899.944 348.212c-6.469-1.149-5.148-9.2-7.182-13.851l-.009-.009c2.878-4.537 2.911-10.075 3.987-15.169 1.266-6.812 9.274-9.637 9.902-16.942-.052-8.27 9.394-8.487 15.435-7.437 11.166-.739 22.892-.113 33.002 5.157 5.586 1.484 8.451 9.066 14.708 7.97 6.699.428 13.813-1.475 20.141 1.535 5.234 4.855 12.482 7.139 17.302 12.523 1.91 6.427-1.96 12.541-2.55 18.846.56 6.783-3.7 12.737-8.574 17.008-6.4 4.917-12.156 10.855-15.842 18.1-4.28 6.578-11.803 2.08-16.932-.444-5.492-1.479-11.378-4.093-17.092-2.406-5.04 2.835-11.719.306-13.002-5.492-1.516-8.35-9.443-4.037-13.647-.528-5.398 2.134-9.27-3.862-11.265-8.001-2.227-3.782-3.614-9.928-8.382-10.86z"/><path d="M959.172 244.437c5.218.481 26.433 20.883 27.89 24.387 1.872 9.279-.64 16.955-.764 27.506-.136 11.651-16.6 10.719-24.52 9.025-49.873-10.674-28.157-63.279-2.606-60.918z"/></g><g filter="url(#filter9_f)"><path d="M961.065 219.081c-4.556-.809-3.626-6.474-5.059-9.747l-.006-.007c2.027-3.192 2.051-7.089 2.808-10.674.892-4.793 6.532-6.782 6.975-11.922-.037-5.819 6.617-5.972 10.872-5.234 7.864-.52 16.124-.079 23.244 3.63 3.931 1.044 5.951 6.379 10.361 5.608 4.72.301 9.73-1.038 14.19 1.08 3.68 3.417 8.79 5.024 12.18 8.812 1.34 4.524-1.38 8.826-1.8 13.263.4 4.773-2.6 8.963-6.03 11.968-4.51 3.46-8.57 7.639-11.16 12.737-3.02 4.629-8.32 1.464-11.93-.312-3.87-1.041-8.012-2.88-12.037-1.693-3.549 1.995-8.254.215-9.157-3.865-1.068-5.876-6.652-2.841-9.613-.371-3.802 1.501-6.529-2.718-7.934-5.631-1.569-2.661-2.546-6.986-5.904-7.642z"/><path d="M1002.78 146.054c3.68.339 18.62 14.696 19.65 17.161 1.31 6.53-.45 11.932-.54 19.357-.1 8.199-11.69 7.543-17.27 6.35-35.13-7.511-19.835-44.529-1.84-42.868z"/></g><g filter="url(#filter10_f)"><path d="M646.121 232.729c-20.165-9.671-3.549 6.815-31.128-8.469l-9.782-3.796c-25.605-8.19-33.293 19.838-30.751 38.073 4.513 32.328 45.255 52.864 69.544 83.121 18.981 23.652 14.571 52.116 29.716 50.525 38.75-4.078 26.11-6.944 64.427 10.013 23.341 10.328 85.307-25.671 43.991-57.442-41.154-31.646-13.253-33.486-28.921-75.432-15.26-40.873-28.025-28.417-52.832-24.405-6.136.992-48.947-9.638-54.264-12.188z"/><path d="M701.942 303.62c-3.096 22.365-18.665-.936-34.447 5.897-5.765 3.845-7.489 8.873-9.064 15.482-2.364 9.904-2.036 28.926-15.941 25.184-19.415-5.86-17.298-17.121-22.728-33.518l-.768-2.138c-4.371-12.146-14.642-21.209-13.313-34.681 1.372-13.899 8.293-11.919 18.298-11.108 30.025 2.44 21.467-33.973 42.988-26.077 23.983 8.8 37.854 36.24 34.975 60.959zm81.014-2.935c36.032 9.588 47.316 25.01 50.004 63.55 2.45 35.092-109.48-78.501-50.004-63.55zm-248.014-69.147c-30.763 15.703 51.996 63.544 29.979 19.052-4.806-9.716-18.259-22.361-29.979-19.052z"/></g><g filter="url(#filter11_f)"><path d="M635.961 477.328c-5.533-10.081 27.503-43.325 34.515-51.191l3.276-4c16.016-19.569 13.172-10.501 26.807-17.011 2.176-1.038 15.118-24.278 17.853.472 2.708 24.518 3.011 30.302.831 54.991-.747 8.444 1.415 74.624-17.984 61.5-30.839-20.855-42.284 5.771-53.858-24.523-5.471-14.323-6.336-10.945-11.44-20.238zm176.241-126.969c-1.392-17.86-4.852-18.737 7.337-27.908 11.054-8.815 19.753-7.9 31.165.811 20.305 15.5-1.718 14.439 24.899 40.809 30.401 30.12 43.862 14.901 41.932 55.768-2.174 45.993 9.783 54.728-35.344 38.614-2.48-.885-4.78-1.698-6.926-2.463-6.543 18.143-32.027 29.459-30.474 55.614 1.112 18.727-14.326 28.501-29.822 17.949-18.242-12.422-19.577 5.6-22.614-23.394-2.363-22.551-28.01-33.047-26.641-36.925 4.456-12.623 20.297-2.343 20.676-46.926.193-22.726-1.801-57.422 20.734-70.661 1.426-.838 3.171-1.252 5.078-1.288z"/><path d="M942.041 473.836c4.07-2.334 7.038 2.683 10.284 4.301l.009.001c.504 3.804 3.025 6.855 4.772 10.14 2.43 4.312-.66 9.53 2.345 13.821 3.82 4.508-1.254 8.955-5.043 11.148-5.776 5.52-12.484 10.549-20.437 12.292-3.739 1.746-8.785-1.096-11.709 2.371-3.864 2.834-6.888 7.136-11.733 8.386-5.092-.263-10.109 1.806-15.216 1.063-3.992-2.649-4.678-7.771-7.243-11.498-3.418-3.46-3.814-8.676-3.105-13.248 1.25-5.626 1.679-11.518.376-17.177-.672-5.566 5.51-6.548 9.476-7.514 3.686-1.706 8.108-2.97 10.464-6.512 1.46-3.863 6.276-5.537 9.638-2.947 4.658 3.882 7.022-2.113 7.715-5.963 1.978-3.642 6.847-2.13 9.838-.776 2.953 1.052 6.531 3.785 9.569 2.112zm58.369 33.761c-4.829.704-9.407 2.297-10.291-3.003l.007-.06c.243-1.904.483-3.787 1.339-5.564 1.308-2.717 6.967-2.29 7.744-1.92 2.231 1.064 3.181 10.258 1.201 10.547zm21.2-15.905c-3.11-2.835-8.84-4.419-11.32-6.926-1.29-3.429-1.28-4.796-.54-8.35 2.71-13.105-4.45-9.259 11.94-15.153 11.69-4.207 11.78-4.971 21.64-11.795 1.97-1.365 7.51-4.038 9.87-2.429 8.69 6.804 7.25 3.361 9.18 14.874-.03 1.561-2.3 9.197-2.84 11.369-.78 3.156.39.847-1.1 2.957-2.8 3.979.59 5.227-1.92 5.919-2.46.674-1.49-1.814-6.16-.932-2.95.557-12.88 7.147-16 9.128-1.31.833-.72.888-1.88.66-2.47-.49-5.59-.651-7.95.232-2.88 1.076-1.48 1.981-2.92.446zm16.65 25.153c3.55-2.036 6.14 2.34 8.97 3.751l.01.001c.44 3.319 2.64 5.98 4.16 8.846 2.12 3.761-.57 8.313 2.05 12.055 3.33 3.934-1.1 7.813-4.4 9.725-4.86 4.589-7.83 6.416-13.47 9.807-5.45 3.281-5.32 2.981-11.27 4.376-5.43 1.273-8.98 4.493-13.54 5.924-4.44-.23-8.82 1.575-13.271.927-3.482-2.311-4.08-6.778-6.319-10.031-2.98-3.018-3.326-7.567-2.708-11.555 1.09-4.908 1.466-10.048.33-14.984-.312-8.245 10.502-3.294 14.898-12.393 1.41-2.928 3.59-6.845 7.34-6.912 9.2-.161 7.76-7.417 17.88-2.41 3.21 1.676 5.8 4.218 9.34 2.873zm-76.538 31.506c3.416 1.337 2.475-5.775 1.988-7.486-1.896-3.629-3.466-3.717-6.682-1.721-.909.565-2.746 1.395-3.33 1.803-2.672 1.866 6.599 6.847 8.024 7.404zM770.186 414.264c10.401-.279-5.452-19.069-6.161-6.088-.23 4.22 2.693 5.316 6.161 6.088zm163.787-83.59c12.203-4.835 22.868 24.338 9.465 31.026-6.623-.296-28.504-1.784-31.783-8.448-5.397-10.965 14.848-19.617 22.318-22.578z"/></g><g filter="url(#filter12_f)"><path d="M595.961 485.328c-5.533-10.081 27.503-43.325 34.515-51.191l3.276-4c16.016-19.569 13.172-10.501 26.807-17.011 2.176-1.038 15.118-24.278 17.853.472 2.708 24.518 3.011 30.302.831 54.991-.747 8.444 1.415 74.624-17.984 61.5-30.839-20.855-42.284 5.771-53.858-24.523-5.471-14.323-6.336-10.945-11.44-20.238zm176.241-126.969c-1.392-17.86-4.852-18.737 7.337-27.908 11.054-8.815 19.753-7.9 31.165.811 20.305 15.5-1.718 14.439 24.899 40.809 30.401 30.12 43.862 14.901 41.932 55.768-2.174 45.993 9.783 54.728-35.344 38.614-2.48-.885-4.78-1.698-6.926-2.463-6.543 18.143-32.027 29.459-30.474 55.614 1.112 18.727-14.326 28.501-29.822 17.949-18.242-12.422-19.577 5.6-22.614-23.394-2.363-22.551-28.01-33.047-26.641-36.925 4.456-12.623 20.297-2.343 20.676-46.926.193-22.726-1.801-57.422 20.734-70.661 1.426-.838 3.171-1.252 5.078-1.288z"/><path d="M902.041 481.836c4.07-2.334 7.038 2.683 10.284 4.301l.009.001c.504 3.804 3.025 6.855 4.772 10.14 2.43 4.312-.66 9.53 2.345 13.821 3.82 4.508-1.254 8.955-5.043 11.148-5.776 5.52-12.484 10.549-20.437 12.292-3.739 1.746-8.785-1.096-11.709 2.371-3.864 2.834-6.888 7.136-11.733 8.386-5.092-.263-10.109 1.806-15.216 1.063-3.992-2.649-4.678-7.771-7.243-11.498-3.418-3.46-3.814-8.676-3.105-13.248 1.25-5.626 1.679-11.518.376-17.177-.672-5.566 5.51-6.548 9.476-7.514 3.686-1.706 8.108-2.97 10.464-6.512 1.46-3.863 6.276-5.537 9.638-2.947 4.658 3.882 7.022-2.113 7.715-5.963 1.978-3.642 6.847-2.13 9.838-.776 2.953 1.052 6.531 3.785 9.569 2.112zm58.365 33.761c-4.825.704-9.403 2.297-10.287-3.003l.007-.06c.243-1.904.483-3.787 1.339-5.564 1.308-2.717 6.967-2.29 7.744-1.92 2.235 1.064 3.184 10.258 1.197 10.547zm21.202-15.905c-3.11-2.835-8.837-4.419-11.316-6.926-1.287-3.429-1.284-4.796-.546-8.35 2.716-13.105-4.446-9.259 11.946-15.153 11.689-4.207 11.779-4.971 21.638-11.795 1.97-1.365 7.51-4.038 9.87-2.429 8.69 6.804 7.25 3.361 9.18 14.874-.03 1.561-2.3 9.197-2.84 11.369-.78 3.156.39.847-1.1 2.957-2.8 3.979.59 5.227-1.92 5.919-2.46.674-1.49-1.814-6.16-.932-2.95.557-12.88 7.147-15.998 9.128-1.311.833-.726.888-1.886.66-2.466-.49-5.584-.651-7.95.232-2.879 1.076-1.481 1.981-2.918.446zm16.653 25.153c3.549-2.036 6.139 2.34 8.969 3.751l.01.001c.44 3.319 2.64 5.98 4.16 8.846 2.12 3.761-.57 8.313 2.05 12.055 3.33 3.934-1.1 7.813-4.4 9.725-4.86 4.589-7.83 6.416-13.469 9.807-5.454 3.281-5.322 2.981-11.271 4.376-5.428 1.273-8.98 4.493-13.538 5.924-4.442-.23-8.818 1.575-13.273.927-3.482-2.311-4.08-6.778-6.319-10.031-2.98-3.018-3.326-7.567-2.708-11.555 1.09-4.908 1.466-10.048.33-14.984-.312-8.245 10.502-3.294 14.895-12.393 1.413-2.928 3.593-6.845 7.347-6.912 9.197-.161 7.758-7.417 17.878-2.41 3.204 1.676 5.798 4.218 9.339 2.873zm-76.539 31.506c3.416 1.337 2.475-5.775 1.988-7.486-1.896-3.629-3.466-3.717-6.682-1.721-.909.565-2.746 1.395-3.33 1.803-2.672 1.866 6.599 6.847 8.024 7.404zM730.186 422.264c10.401-.279-5.452-19.069-6.161-6.088-.23 4.22 2.693 5.316 6.161 6.088zm163.787-83.59c12.203-4.835 22.868 24.338 9.465 31.026-6.623-.296-28.504-1.784-31.783-8.448-5.397-10.965 14.848-19.617 22.318-22.578z"/></g><g filter="url(#filter13_f)"><path d="M749.148 324.191c1.149-6.469 9.2-5.148 13.851-7.182l.01-.009c4.536 2.878 10.074 2.911 15.168 3.987 6.812 1.266 9.637 9.274 16.942 9.902 8.27-.052 8.487 9.394 7.437 15.436.739 11.165.113 22.892-5.157 33.001-1.484 5.586-9.066 8.451-7.97 14.709-.428 6.698 1.475 13.812-1.535 20.141-4.855 5.233-7.139 12.481-12.523 17.3-6.427 1.907-12.541-1.959-18.846-2.553-6.783.562-12.736-3.7-17.008-8.57-4.916-6.4-10.855-12.156-18.099-15.842-6.579-4.28-2.081-11.803.443-16.932 1.479-5.492 4.093-11.378 2.406-17.092-2.835-5.04-.306-11.719 5.492-13.001 8.35-1.517 4.038-9.444.528-13.648-2.133-5.398 3.862-9.27 8.001-11.265 3.782-2.227 9.928-3.614 10.86-8.382z"/><path d="M852.923 383.419c-.481 5.218-20.883 26.433-24.387 27.89-9.279 1.872-16.955-.64-27.506-.764-11.651-.136-10.719-16.6-9.025-24.52 10.674-49.873 63.279-28.157 60.918-2.606z"/></g><g filter="url(#filter14_f)"><path d="M819.148 219.191c1.149-6.469 9.2-5.148 13.851-7.182l.01-.009c4.536 2.878 10.074 2.911 15.168 3.987 6.812 1.266 9.637 9.274 16.942 9.902 8.27-.052 8.487 9.394 7.437 15.436.739 11.165.113 22.892-5.157 33.001-1.484 5.586-9.066 8.451-7.97 14.709-.428 6.698 1.475 13.812-1.535 20.141-4.855 5.233-7.139 12.481-12.523 17.3-6.427 1.907-12.541-1.959-18.846-2.553-6.783.562-12.736-3.7-17.008-8.57-4.916-6.4-10.855-12.156-18.099-15.842-6.579-4.28-2.081-11.803.443-16.932 1.479-5.492 4.093-11.378 2.406-17.092-2.835-5.04-.306-11.719 5.492-13.001 8.35-1.517 4.038-9.444.528-13.648-2.133-5.398 3.862-9.27 8.001-11.265 3.782-2.227 9.928-3.614 10.86-8.382z"/><path d="M922.923 278.419c-.481 5.218-20.883 26.433-24.387 27.89-9.279 1.872-16.955-.64-27.506-.764-11.651-.136-10.719-16.6-9.025-24.52 10.674-49.873 63.279-28.157 60.918-2.606z"/></g><g filter="url(#filter15_f)"><path d="M1078.92 432.065c.81-4.556 6.47-3.626 9.75-5.059V427c3.19 2.027 7.09 2.051 10.68 2.808 4.79.892 6.78 6.532 11.92 6.975 5.82-.037 5.97 6.617 5.23 10.872.52 7.864.08 16.124-3.63 23.244-1.04 3.934-6.38 5.953-5.6 10.36-.31 4.718 1.03 9.729-1.09 14.186-3.41 3.686-5.02 8.792-8.81 12.186-4.52 1.343-8.82-1.38-13.26-1.798-4.77.395-8.96-2.606-11.97-6.037-3.46-4.507-7.64-8.561-12.74-11.158-4.62-3.014-1.46-8.313.32-11.926 1.04-3.868 2.88-8.014 1.69-12.039-1.99-3.549-.22-8.254 3.87-9.157 5.87-1.068 2.84-6.652.37-9.613-1.5-3.802 2.71-6.529 5.63-7.934 2.66-1.569 6.98-2.546 7.64-5.904z"/><path d="M1151.95 473.782c-.34 3.675-14.7 18.618-17.17 19.645-6.53 1.318-11.93-.451-19.35-.539-8.2-.096-7.54-11.692-6.35-17.27 7.51-35.128 44.53-19.833 42.87-1.836z"/></g><g filter="url(#filter16_f)"><path d="M601.729 463.879c-9.671 20.165 6.815 3.549-8.469 31.128l-3.796 9.782c-8.19 25.605 19.838 33.293 38.073 30.751 32.328-4.513 52.864-45.255 83.121-69.544 23.652-18.981 52.117-14.571 50.525-29.716-4.078-38.75-6.944-26.11 10.013-64.427 10.328-23.341-25.671-85.307-57.442-43.991-31.646 41.154-33.486 13.253-75.432 28.921-40.873 15.26-28.417 28.025-24.405 52.832.992 6.136-9.638 48.947-12.188 54.264z"/><path d="M672.62 408.058c22.365 3.096-.936 18.665 5.897 34.447 3.845 5.765 8.873 7.489 15.483 9.064 9.904 2.364 28.925 2.036 25.183 15.941-5.86 19.415-17.121 17.298-33.518 22.728l-2.138.768c-12.145 4.371-21.209 14.642-34.681 13.313-13.899-1.372-11.919-8.293-11.108-18.298 2.44-30.025-33.973-21.467-26.077-42.988 8.8-23.983 36.24-37.854 60.959-34.975zm-2.935-81.014c9.588-36.032 25.01-47.316 63.55-50.004 35.092-2.45-78.501 109.48-63.55 50.004zm-69.147 248.014c15.703 30.763 63.544-51.996 19.052-29.979-9.716 4.806-22.361 18.259-19.052 29.979z"/></g><g filter="url(#filter17_f)"><path d="M710.328 512.4c-10.081 5.533-43.325-27.503-51.191-34.515l-4-3.276c-19.569-16.016-10.501-13.172-17.011-26.807-1.038-2.176-24.278-15.118.472-17.853 24.518-2.708 30.302-3.011 54.991-.831 8.444.747 74.624-1.415 61.5 17.984-20.856 30.839 5.771 42.284-24.523 53.858-14.324 5.471-10.945 6.336-20.238 11.44zM583.359 336.159c-17.86 1.392-18.737 4.852-27.908-7.337-8.815-11.054-7.9-19.753.811-31.165 15.5-20.305 14.439 1.718 40.809-24.899 30.12-30.401 14.901-43.862 55.768-41.932 45.993 2.174 54.728-9.783 38.614 35.344-.885 2.48-1.698 4.78-2.463 6.926 18.143 6.543 29.459 32.027 55.614 30.474 18.727-1.112 28.501 14.326 17.949 29.822-12.422 18.242 5.6 19.577-23.394 22.614-22.551 2.363-33.047 28.01-36.925 26.641-12.623-4.456-2.343-20.297-46.926-20.676-22.726-.193-57.422 1.801-70.662-20.734-.837-1.426-1.251-3.171-1.287-5.078z"/><path d="M706.836 206.32c-2.334-4.07 2.683-7.038 4.301-10.284l.001-.009c3.804-.504 6.855-3.025 10.14-4.772 4.312-2.43 9.53.66 13.821-2.345 4.508-3.82 8.955 1.254 11.148 5.043 5.52 5.776 10.549 12.484 12.292 20.437 1.746 3.739-1.096 8.785 2.371 11.709 2.834 3.864 7.136 6.888 8.386 11.734-.263 5.091 1.806 10.108 1.063 15.215-2.649 3.992-7.771 4.678-11.498 7.243-3.46 3.418-8.676 3.814-13.248 3.105-5.626-1.25-11.518-1.679-17.177-.376-5.566.672-6.548-5.51-7.514-9.476-1.706-3.686-2.97-8.108-6.512-10.464-3.863-1.46-5.537-6.276-2.947-9.638 3.882-4.658-2.113-7.022-5.963-7.715-3.642-1.978-2.13-6.847-.776-9.838 1.052-2.953 3.785-6.531 2.112-9.569zm33.761-58.365c.704 4.825 2.297 9.403-3.003 10.287l-.06-.007c-1.904-.243-3.787-.483-5.564-1.339-2.717-1.308-2.29-6.967-1.92-7.744 1.064-2.235 10.258-3.184 10.547-1.197zm-15.905-21.201c-2.835 3.109-4.419 8.836-6.926 11.315-3.429 1.287-4.796 1.284-8.35.546-13.105-2.716-9.259 4.446-15.153-11.946-4.207-11.689-4.971-11.779-11.795-21.635-1.365-1.978-4.038-7.517-2.429-9.868 6.804-8.698 3.361-7.254 14.874-9.189 1.561.035 9.197 2.308 11.369 2.843 3.156.777.847-.388 2.957 1.101 3.979 2.8 5.227-.59 5.919 1.92.674 2.458-1.814 1.486-.932 6.16.557 2.953 7.147 12.88 9.128 15.998.833 1.311.888.726.66 1.886-.49 2.466-.651 5.584.232 7.95 1.076 2.879 1.981 1.481.446 2.919zm25.153-16.654c-2.036-3.55 2.34-6.138 3.751-8.971l.001-.008c3.319-.439 5.98-2.638 8.846-4.162 3.761-2.12 8.313.575 12.056-2.046 3.933-3.333 7.812 1.094 9.724 4.4 4.589 4.86 6.416 7.83 9.807 13.467 3.281 5.454 2.981 5.323 4.376 11.271 1.273 5.428 4.493 8.98 5.924 13.538-.23 4.442 1.575 8.818.927 13.273-2.311 3.482-6.778 4.08-10.031 6.319-3.018 2.98-7.567 3.326-11.555 2.708-4.908-1.09-10.048-1.466-14.984-.33-8.245.312-3.294-10.502-12.393-14.895-2.928-1.413-6.845-3.593-6.912-7.347-.161-9.197-7.417-7.758-2.41-17.878 1.676-3.204 4.218-5.798 2.873-9.339zm31.506 76.539c1.337-3.416-5.775-2.475-7.486-1.988-3.629 1.896-3.717 3.466-1.721 6.682.565.909 1.395 2.746 1.803 3.33 1.866 2.672 6.847-6.599 7.404-8.024zM647.264 378.175c-.279-10.401-19.069 5.452-6.088 6.161 4.22.23 5.315-2.693 6.088-6.161zm-83.59-163.787c-4.835-12.203 24.338-22.868 31.026-9.465-.296 6.623-1.784 28.504-8.448 31.783-10.965 5.397-19.617-14.848-22.578-22.318z"/></g><g filter="url(#filter18_f)"><path d="M612.191 501.852c-6.469-1.149-5.148-9.199-7.182-13.851l-.009-.009c2.878-4.536 2.911-10.074 3.987-15.169 1.266-6.811 9.274-9.637 9.902-16.941-.052-8.27 9.394-8.487 15.436-7.438 11.165-.739 22.892-.113 33.001 5.158 5.586 1.484 8.451 9.066 14.709 7.969 6.698.429 13.812-1.474 20.141 1.535 5.233 4.855 12.481 7.139 17.3 12.523 1.907 6.428-1.959 12.541-2.553 18.847.562 6.783-3.7 12.736-8.57 17.008-6.4 4.916-12.156 10.855-15.842 18.099-4.28 6.578-11.803 2.081-16.932-.443-5.492-1.479-11.378-4.093-17.092-2.406-5.04 2.834-11.719.306-13.001-5.493-1.517-8.349-9.444-4.037-13.648-.527-5.398 2.133-9.27-3.863-11.265-8.002-2.227-3.781-3.614-9.928-8.382-10.86z"/><path d="M671.42 398.078c5.217.481 26.432 20.883 27.889 24.386 1.872 9.28-.64 16.956-.764 27.507-.136 11.651-16.6 10.719-24.52 9.025-49.873-10.674-28.157-63.279-2.605-60.918z"/></g><g filter="url(#filter19_f)"><path d="M612.191 382.852c-6.469-1.149-5.148-9.199-7.182-13.851l-.009-.009c2.878-4.536 2.911-10.074 3.987-15.169 1.266-6.811 9.274-9.637 9.902-16.942-.052-8.269 9.394-8.486 15.436-7.437 11.165-.739 22.892-.113 33.001 5.158 5.586 1.483 8.451 9.066 14.709 7.969 6.698.429 13.812-1.474 20.141 1.535 5.233 4.855 12.481 7.139 17.3 12.523 1.907 6.428-1.959 12.541-2.553 18.847.562 6.782-3.7 12.736-8.57 17.007-6.4 4.917-12.156 10.856-15.842 18.1-4.28 6.578-11.803 2.081-16.932-.443-5.492-1.479-11.378-4.093-17.092-2.407-5.04 2.835-11.719.307-13.001-5.492-1.517-8.35-9.444-4.037-13.648-.527-5.398 2.133-9.27-3.863-11.265-8.002-2.227-3.781-3.614-9.928-8.382-10.86z"/><path d="M671.42 279.078c5.217.481 26.432 20.883 27.889 24.386 1.872 9.28-.64 16.956-.764 27.507-.136 11.651-16.6 10.719-24.52 9.025-49.873-10.675-28.157-63.279-2.605-60.918z"/></g><g filter="url(#filter20_f)"><path d="M556.065 410.081c-4.556-.808-3.626-6.473-5.059-9.747l-.006-.006c2.027-3.192 2.051-7.089 2.808-10.675.892-4.793 6.532-6.781 6.975-11.922-.037-5.819 6.617-5.972 10.872-5.233 7.864-.52 16.124-.08 23.244 3.629 3.934 1.044 5.953 6.38 10.36 5.608 4.718.302 9.729-1.037 14.186 1.081 3.686 3.416 8.792 5.023 12.186 8.812 1.343 4.523-1.38 8.825-1.798 13.262.395 4.773-2.606 8.963-6.037 11.969-4.507 3.46-8.561 7.639-11.158 12.737-3.014 4.629-8.313 1.464-11.926-.312-3.868-1.041-8.014-2.881-12.039-1.694-3.549 1.995-8.254.216-9.157-3.865-1.068-5.875-6.652-2.841-9.613-.371-3.802 1.501-6.529-2.718-7.934-5.63-1.569-2.661-2.546-6.987-5.904-7.643z"/><path d="M597.782 337.055c3.675.338 18.618 14.695 19.645 17.161 1.318 6.53-.451 11.931-.539 19.356-.096 8.199-11.692 7.543-17.27 6.351-35.128-7.512-19.833-44.53-1.836-42.868z"/></g><g filter="url(#filter21_f)"><path d="M646.122 59.729c-20.165-9.671-3.55 6.815-31.129-8.47l-9.781-3.795c-25.606-8.19-33.294 19.838-30.751 38.073 4.512 32.328 45.255 52.864 69.544 83.121 18.981 23.652 14.571 52.116 29.716 50.525 38.749-4.078 26.11-6.944 64.427 10.013 23.341 10.327 85.307-25.671 43.99-57.442-41.154-31.647-13.253-33.486-28.92-75.432-15.26-40.874-28.026-28.417-52.832-24.405-6.136.992-48.948-9.638-54.264-12.188z"/><path d="M701.943 130.62c-3.096 22.365-18.665-.936-34.447 5.897-5.765 3.845-7.489 8.872-9.065 15.482-2.363 9.904-2.035 28.926-15.941 25.184-19.414-5.86-17.297-17.121-22.727-33.518l-.768-2.138c-4.372-12.146-14.642-21.209-13.313-34.681 1.372-13.899 8.293-11.919 18.298-11.108 30.024 2.44 21.467-33.973 42.988-26.077 23.983 8.8 37.854 36.24 34.975 60.959zm81.014-2.935c36.032 9.588 47.316 25.01 50.004 63.55 2.45 35.092-109.48-78.502-50.004-63.55zM534.943 58.538c-30.764 15.703 51.996 63.544 29.979 19.052-4.807-9.716-18.259-22.361-29.979-19.052z"/></g><g filter="url(#filter22_f)"><path d="M531.961 186.328c-5.533-10.081 27.503-43.325 34.515-51.191l3.276-4c16.016-19.569 13.172-10.501 26.807-17.011 2.176-1.038 15.118-24.278 17.853.472 2.708 24.518 3.011 30.302.831 54.991-.747 8.444 1.415 74.624-17.984 61.5-30.839-20.855-42.284 5.771-53.858-24.523-5.471-14.323-6.336-10.945-11.44-20.238zM708.202 59.36c-1.392-17.861-4.852-18.738 7.337-27.91 11.054-8.813 19.753-7.9 31.165.812 20.305 15.5-1.718 14.438 24.899 40.809 30.401 30.12 43.862 14.901 41.932 55.768-2.174 45.993 9.783 54.728-35.344 38.614-2.48-.885-4.78-1.698-6.926-2.463-6.543 18.143-32.027 29.459-30.474 55.614 1.112 18.727-14.326 28.501-29.822 17.949-18.242-12.422-19.577 5.6-22.614-23.394-2.363-22.551-28.01-33.047-26.641-36.925 4.456-12.623 20.297-2.343 20.676-46.926.193-22.726-1.801-57.421 20.734-70.661 1.426-.838 3.171-1.252 5.078-1.288z"/><path d="M838.041 182.836c4.07-2.334 7.038 2.683 10.284 4.301l.009.001c.504 3.804 3.025 6.855 4.772 10.14 2.43 4.312-.66 9.53 2.345 13.821 3.82 4.508-1.254 8.955-5.043 11.148-5.776 5.52-12.484 10.549-20.437 12.292-3.739 1.746-8.785-1.096-11.709 2.371-3.864 2.834-6.888 7.136-11.733 8.386-5.092-.263-10.109 1.806-15.216 1.063-3.992-2.649-4.678-7.771-7.243-11.498-3.418-3.46-3.814-8.676-3.105-13.248 1.25-5.626 1.679-11.518.376-17.177-.672-5.566 5.51-6.548 9.476-7.514 3.686-1.706 8.108-2.97 10.464-6.512 1.46-3.863 6.276-5.537 9.638-2.947 4.658 3.882 7.022-2.113 7.715-5.963 1.978-3.642 6.847-2.13 9.838-.776 2.953 1.052 6.531 3.785 9.569 2.112zm58.365 33.761c-4.825.704-9.403 2.297-10.287-3.003l.007-.06c.243-1.904.483-3.787 1.339-5.564 1.308-2.717 6.967-2.29 7.744-1.92 2.235 1.064 3.184 10.258 1.197 10.547zm21.202-15.905c-3.11-2.835-8.837-4.419-11.316-6.926-1.287-3.429-1.284-4.796-.546-8.35 2.716-13.105-4.446-9.259 11.946-15.153 11.689-4.207 11.779-4.971 21.635-11.795 1.978-1.365 7.517-4.038 9.868-2.429 8.698 6.804 7.254 3.361 9.189 14.874-.035 1.561-2.308 9.197-2.843 11.369-.777 3.156.388.847-1.101 2.957-2.8 3.979.59 5.227-1.919 5.919-2.459.674-1.487-1.814-6.161-.932-2.953.557-12.88 7.147-15.998 9.128-1.311.833-.726.887-1.886.66-2.466-.49-5.584-.651-7.95.232-2.879 1.076-1.481 1.981-2.918.446zm16.653 25.153c3.55-2.036 6.138 2.34 8.971 3.751l.008.001c.439 3.319 2.638 5.98 4.163 8.846 2.119 3.761-.576 8.313 2.045 12.055 3.333 3.934-1.094 7.813-4.4 9.725-4.86 4.589-7.83 6.416-13.467 9.807-5.454 3.281-5.322 2.981-11.271 4.376-5.428 1.273-8.98 4.493-13.538 5.924-4.442-.23-8.818 1.575-13.273.927-3.482-2.311-4.08-6.778-6.319-10.031-2.98-3.018-3.326-7.567-2.708-11.555 1.09-4.908 1.466-10.048.33-14.984-.312-8.245 10.502-3.294 14.895-12.393 1.413-2.928 3.593-6.845 7.347-6.912 9.197-.161 7.758-7.417 17.878-2.41 3.204 1.676 5.798 4.218 9.339 2.873zm-76.539 31.506c3.416 1.337 2.475-5.775 1.988-7.486-1.896-3.629-3.466-3.717-6.682-1.721-.909.565-2.746 1.395-3.33 1.803-2.672 1.866 6.599 6.847 8.024 7.404zM666.186 123.264c10.401-.279-5.452-19.069-6.161-6.088-.23 4.22 2.693 5.316 6.161 6.088zm163.787-83.59c12.203-4.835 22.868 24.338 9.465 31.026-6.623-.296-28.504-1.784-31.783-8.448-5.397-10.966 14.848-19.617 22.318-22.578z"/></g><g filter="url(#filter23_f)"><path d="M633.149 104.191c1.149-6.469 9.199-5.148 13.851-7.182l.009-.01c4.537 2.879 10.074 2.912 15.169 3.988 6.812 1.266 9.637 9.274 16.942 9.902 8.27-.053 8.487 9.394 7.437 15.435.739 11.166.113 22.892-5.158 33.002-1.483 5.585-9.065 8.451-7.969 14.708-.428 6.698 1.474 13.813-1.535 20.141-4.855 5.234-7.139 12.482-12.523 17.301-6.427 1.906-12.541-1.959-18.846-2.553-6.783.562-12.737-3.7-17.008-8.57-4.917-6.4-10.856-12.156-18.1-15.842-6.578-4.28-2.081-11.803.443-16.932 1.479-5.492 4.094-11.379 2.407-17.092-2.835-5.04-.306-11.719 5.492-13.002 8.35-1.516 4.037-9.443.528-13.647-2.134-5.398 3.862-9.27 8.001-11.265 3.781-2.227 9.928-3.614 10.86-8.382z"/><path d="M736.924 163.419c-.481 5.218-20.884 26.433-24.387 27.89-9.28 1.872-16.956-.64-27.506-.764-11.652-.137-10.719-16.6-9.025-24.52 10.674-49.873 63.279-28.157 60.918-2.606z"/></g><g filter="url(#filter24_f)"><path d="M595.148 104.191c1.149-6.469 9.2-5.148 13.852-7.182l.009-.01c4.536 2.879 10.074 2.912 15.169 3.988 6.811 1.266 9.637 9.274 16.941 9.902 8.27-.053 8.487 9.394 7.438 15.435.738 11.166.113 22.892-5.158 33.002-1.484 5.585-9.066 8.451-7.969 14.708-.429 6.698 1.474 13.813-1.535 20.141-4.855 5.234-7.14 12.482-12.523 17.301-6.428 1.906-12.541-1.959-18.847-2.553-6.783.562-12.736-3.7-17.008-8.57-4.916-6.4-10.855-12.156-18.099-15.842-6.579-4.28-2.081-11.803.443-16.932 1.479-5.492 4.093-11.379 2.406-17.092-2.834-5.04-.306-11.719 5.493-13.002 8.349-1.516 4.037-9.443.527-13.647-2.133-5.398 3.863-9.27 8.002-11.265 3.781-2.227 9.928-3.614 10.859-8.382z"/><path d="M698.923 163.419c-.481 5.218-20.883 26.433-24.386 27.89-9.28 1.872-16.956-.64-27.507-.764-11.651-.137-10.719-16.6-9.025-24.52 10.674-49.873 63.279-28.157 60.918-2.606z"/></g><g filter="url(#filter25_f)"><path d="M765.919 221.065c.809-4.556 6.474-3.626 9.747-5.058l.007-.007c3.192 2.027 7.089 2.051 10.674 2.808 4.794.892 6.782 6.533 11.922 6.975 5.82-.037 5.972 6.617 5.234 10.872.52 7.864.079 16.124-3.63 23.244-1.044 3.935-6.379 5.953-5.608 10.36-.301 4.718 1.038 9.729-1.08 14.187-3.416 3.686-5.024 8.791-8.812 12.185-4.523 1.343-8.825-1.38-13.263-1.798-4.773.396-8.962-2.606-11.968-6.036-3.46-4.508-7.639-8.562-12.737-11.158-4.629-3.015-1.464-8.314.312-11.926 1.041-3.869 2.88-8.015 1.693-12.039-1.994-3.55-.215-8.254 3.865-9.158 5.876-1.068 2.841-6.651.372-9.613-1.502-3.802 2.718-6.528 5.63-7.934 2.661-1.569 6.987-2.546 7.642-5.904z"/><path d="M838.946 262.783c-.339 3.674-14.696 18.617-17.161 19.644-6.53 1.318-11.932-.451-19.356-.539-8.199-.096-7.543-11.692-6.351-17.27 7.511-35.128 44.529-19.832 42.868-1.835z"/></g></g><defs><filter id="filter0_f" x="781" y="-12" width="233" height="353" filterUnits="userSpaceOnUse" color-interpolation-filters="sRGB"><feFlood flood-opacity="0" result="BackgroundImageFix"/><feBlend in="SourceGraphic" in2="BackgroundImageFix" result="shape"/><feGaussianBlur stdDeviation="12" result="effect1_foregroundBlur"/></filter><filter id="filter1_f" x="791.964" y="7.012" width="384.13" height="248.195" filterUnits="userSpaceOnUse" color-interpolation-filters="sRGB"><feFlood flood-opacity="0" result="BackgroundImageFix"/><feBlend in="SourceGraphic" in2="BackgroundImageFix" result="shape"/><feGaussianBlur stdDeviation="12" result="effect1_foregroundBlur"/></filter><filter id="filter2_f" x="800" y="62" width="163" height="183" filterUnits="userSpaceOnUse" color-interpolation-filters="sRGB"><feFlood flood-opacity="0" result="BackgroundImageFix"/><feBlend in="SourceGraphic" in2="BackgroundImageFix" result="shape"/><feGaussianBlur stdDeviation="12" result="effect1_foregroundBlur"/></filter><filter id="filter3_f" x="1033" y="51" width="163" height="183" filterUnits="userSpaceOnUse" color-interpolation-filters="sRGB"><feFlood flood-opacity="0" result="BackgroundImageFix"/><feBlend in="SourceGraphic" in2="BackgroundImageFix" result="shape"/><feGaussianBlur stdDeviation="12" result="effect1_foregroundBlur"/></filter><filter id="filter4_f" x="818" y="82" width="129" height="143" filterUnits="userSpaceOnUse" color-interpolation-filters="sRGB"><feFlood flood-opacity="0" result="BackgroundImageFix"/><feBlend in="SourceGraphic" in2="BackgroundImageFix" result="shape"/><feGaussianBlur stdDeviation="12" result="effect1_foregroundBlur"/></filter><filter id="filter5_f" x="868.753" y="195" width="233" height="353" filterUnits="userSpaceOnUse" color-interpolation-filters="sRGB"><feFlood flood-opacity="0" result="BackgroundImageFix"/><feBlend in="SourceGraphic" in2="BackgroundImageFix" result="shape"/><feGaussianBlur stdDeviation="12" result="effect1_foregroundBlur"/></filter><filter id="filter6_f" x="839.021" y="109.977" width="304.13" height="475.044" filterUnits="userSpaceOnUse" color-interpolation-filters="sRGB"><feFlood flood-opacity="0" result="BackgroundImageFix"/><feBlend in="SourceGraphic" in2="BackgroundImageFix" result="shape"/><feGaussianBlur stdDeviation="12" result="effect1_foregroundBlur"/></filter><filter id="filter7_f" x="919.753" y="416.36" width="163" height="183" filterUnits="userSpaceOnUse" color-interpolation-filters="sRGB"><feFlood flood-opacity="0" result="BackgroundImageFix"/><feBlend in="SourceGraphic" in2="BackgroundImageFix" result="shape"/><feGaussianBlur stdDeviation="12" result="effect1_foregroundBlur"/></filter><filter id="filter8_f" x="868.753" y="220.36" width="163" height="183" filterUnits="userSpaceOnUse" color-interpolation-filters="sRGB"><feFlood flood-opacity="0" result="BackgroundImageFix"/><feBlend in="SourceGraphic" in2="BackgroundImageFix" result="shape"/><feGaussianBlur stdDeviation="12" result="effect1_foregroundBlur"/></filter><filter id="filter9_f" x="932" y="122" width="129" height="143" filterUnits="userSpaceOnUse" color-interpolation-filters="sRGB"><feFlood flood-opacity="0" result="BackgroundImageFix"/><feBlend in="SourceGraphic" in2="BackgroundImageFix" result="shape"/><feGaussianBlur stdDeviation="12" result="effect1_foregroundBlur"/></filter><filter id="filter10_f" x="504" y="195" width="353" height="233" filterUnits="userSpaceOnUse" color-interpolation-filters="sRGB"><feFlood flood-opacity="0" result="BackgroundImageFix"/><feBlend in="SourceGraphic" in2="BackgroundImageFix" result="shape"/><feGaussianBlur stdDeviation="12" result="effect1_foregroundBlur"/></filter><filter id="filter11_f" x="611.339" y="292.268" width="475.044" height="304.13" filterUnits="userSpaceOnUse" color-interpolation-filters="sRGB"><feFlood flood-opacity="0" result="BackgroundImageFix"/><feBlend in="SourceGraphic" in2="BackgroundImageFix" result="shape"/><feGaussianBlur stdDeviation="12" result="effect1_foregroundBlur"/></filter><filter id="filter12_f" x="571.339" y="300.268" width="475.044" height="304.13" filterUnits="userSpaceOnUse" color-interpolation-filters="sRGB"><feFlood flood-opacity="0" result="BackgroundImageFix"/><feBlend in="SourceGraphic" in2="BackgroundImageFix" result="shape"/><feGaussianBlur stdDeviation="12" result="effect1_foregroundBlur"/></filter><filter id="filter13_f" x="694" y="293" width="183" height="163" filterUnits="userSpaceOnUse" color-interpolation-filters="sRGB"><feFlood flood-opacity="0" result="BackgroundImageFix"/><feBlend in="SourceGraphic" in2="BackgroundImageFix" result="shape"/><feGaussianBlur stdDeviation="12" result="effect1_foregroundBlur"/></filter><filter id="filter14_f" x="764" y="188" width="183" height="163" filterUnits="userSpaceOnUse" color-interpolation-filters="sRGB"><feFlood flood-opacity="0" result="BackgroundImageFix"/><feBlend in="SourceGraphic" in2="BackgroundImageFix" result="shape"/><feGaussianBlur stdDeviation="12" result="effect1_foregroundBlur"/></filter><filter id="filter15_f" x="1033" y="403" width="143" height="129" filterUnits="userSpaceOnUse" color-interpolation-filters="sRGB"><feFlood flood-opacity="0" result="BackgroundImageFix"/><feBlend in="SourceGraphic" in2="BackgroundImageFix" result="shape"/><feGaussianBlur stdDeviation="12" result="effect1_foregroundBlur"/></filter><filter id="filter16_f" x="564" y="253" width="233" height="353" filterUnits="userSpaceOnUse" color-interpolation-filters="sRGB"><feFlood flood-opacity="0" result="BackgroundImageFix"/><feBlend in="SourceGraphic" in2="BackgroundImageFix" result="shape"/><feGaussianBlur stdDeviation="12" result="effect1_foregroundBlur"/></filter><filter id="filter17_f" x="525.268" y="61.977" width="304.13" height="475.044" filterUnits="userSpaceOnUse" color-interpolation-filters="sRGB"><feFlood flood-opacity="0" result="BackgroundImageFix"/><feBlend in="SourceGraphic" in2="BackgroundImageFix" result="shape"/><feGaussianBlur stdDeviation="12" result="effect1_foregroundBlur"/></filter><filter id="filter18_f" x="581" y="374.001" width="163" height="183" filterUnits="userSpaceOnUse" color-interpolation-filters="sRGB"><feFlood flood-opacity="0" result="BackgroundImageFix"/><feBlend in="SourceGraphic" in2="BackgroundImageFix" result="shape"/><feGaussianBlur stdDeviation="12" result="effect1_foregroundBlur"/></filter><filter id="filter19_f" x="581" y="255" width="163" height="183" filterUnits="userSpaceOnUse" color-interpolation-filters="sRGB"><feFlood flood-opacity="0" result="BackgroundImageFix"/><feBlend in="SourceGraphic" in2="BackgroundImageFix" result="shape"/><feGaussianBlur stdDeviation="12" result="effect1_foregroundBlur"/></filter><filter id="filter20_f" x="527" y="313" width="129" height="143" filterUnits="userSpaceOnUse" color-interpolation-filters="sRGB"><feFlood flood-opacity="0" result="BackgroundImageFix"/><feBlend in="SourceGraphic" in2="BackgroundImageFix" result="shape"/><feGaussianBlur stdDeviation="12" result="effect1_foregroundBlur"/></filter><filter id="filter21_f" x="504.001" y="22" width="353" height="233" filterUnits="userSpaceOnUse" color-interpolation-filters="sRGB"><feFlood flood-opacity="0" result="BackgroundImageFix"/><feBlend in="SourceGraphic" in2="BackgroundImageFix" result="shape"/><feGaussianBlur stdDeviation="12" result="effect1_foregroundBlur"/></filter><filter id="filter22_f" x="507.339" y="1.268" width="475.044" height="304.13" filterUnits="userSpaceOnUse" color-interpolation-filters="sRGB"><feFlood flood-opacity="0" result="BackgroundImageFix"/><feBlend in="SourceGraphic" in2="BackgroundImageFix" result="shape"/><feGaussianBlur stdDeviation="12" result="effect1_foregroundBlur"/></filter><filter id="filter23_f" x="578.001" y="73" width="183" height="163" filterUnits="userSpaceOnUse" color-interpolation-filters="sRGB"><feFlood flood-opacity="0" result="BackgroundImageFix"/><feBlend in="SourceGraphic" in2="BackgroundImageFix" result="shape"/><feGaussianBlur stdDeviation="12" result="effect1_foregroundBlur"/></filter><filter id="filter24_f" x="540" y="73" width="183" height="163" filterUnits="userSpaceOnUse" color-interpolation-filters="sRGB"><feFlood flood-opacity="0" result="BackgroundImageFix"/><feBlend in="SourceGraphic" in2="BackgroundImageFix" result="shape"/><feGaussianBlur stdDeviation="12" result="effect1_foregroundBlur"/></filter><filter id="filter25_f" x="720" y="192" width="143" height="129" filterUnits="userSpaceOnUse" color-interpolation-filters="sRGB"><feFlood flood-opacity="0" result="BackgroundImageFix"/><feBlend in="SourceGraphic" in2="BackgroundImageFix" result="shape"/><feGaussianBlur stdDeviation="12" result="effect1_foregroundBlur"/></filter><clipPath id="clip0"><path fill="#fff" d="M0 0h1214v600H0z"/></clipPath></defs></svg>