<svg width="133" height="196" viewBox="0 0 133 196" fill="none" xmlns="http://www.w3.org/2000/svg"><g clip-path="url(#clip0)"><path d="M65.204 181.255l-.002-.009-.001-.008c-1.031-5.266-4.945-8.578-9.336-11.097-2.195-1.258-4.564-2.348-6.827-3.39l-.026-.012c-2.29-1.054-4.46-2.055-6.328-3.153l-.035-.021-.038-.018c-4.167-2.005-9.172-4.912-12.593-8.605-3.362-3.629-5.09-7.879-3.207-12.803 3.567-4.293 7.606-10.537 8.603-16.21.508-2.89.245-5.751-1.41-8.111-1.651-2.357-4.559-4.028-8.94-4.826-11.029-2.448-15.93-15.185-10.473-24.87l.056-.099.032-.108c1.78-6.018 1.276-12.083-.015-17.982-.645-2.95-1.493-5.876-2.36-8.745l-.6-1.973c-.67-2.193-1.329-4.347-1.903-6.475l-.025-.094-.043-.088c-.394-.798-.808-1.62-1.23-2.459-2.371-4.704-5.03-9.978-6.065-15.095-.605-2.989-.634-5.842.234-8.434.858-2.562 2.623-4.956 5.765-7.008C23.285 12.008 35.424.248 45.444-12.766c8.597-9.777 20.387-18.101 33.665-17.003l.088.007.088-.008c4.732-.445 9.45-1.788 14.061-3.101 1.726-.491 3.436-.978 5.127-1.412 6.214-1.596 12.29-2.527 18.471-.76 5.252 4.747 9.035 10.679 12.754 16.833l1.052 1.747c3.359 5.589 6.781 11.28 11.271 16.144 2.899 6.164 3.453 12.742 3.361 19.542-.032 2.39-.147 4.83-.262 7.289-.21 4.46-.422 8.98-.15 13.355-.984 5.86 1.562 10.326 4.816 14.3.142.761.289 1.493.439 2.192 4.124 19.238 11.33 33.33 20.319 43.146 1.881 12.167 1.89 24.735 1.076 37.015l-.008.119.021.118c1.054 6.06 1.449 13.721-.425 19.801-.932 3.026-2.408 5.601-4.585 7.412-2.163 1.8-5.1 2.915-9.093 2.889h-.046l-.046.004c-7.785.668-13.152 5.278-18.154 9.802l-.689.624c-4.814 4.365-9.359 8.485-15.639 9.65l-.012.002-.012.003c-2.554.538-5.17.947-7.823 1.351l-.647.098c-2.434.37-4.898.745-7.333 1.217-5.135.995-10.222 2.437-14.857 5.261-2.37-.962-5.086-1.541-7.806-2.042-.654-.12-1.308-.236-1.959-.351-2.274-.404-4.519-.802-6.64-1.368-2.718-.727-5.115-1.703-6.962-3.227-1.82-1.503-3.159-3.58-3.701-6.628zm104.688-85.55c-7.536-9.136-13.67-21.726-17.428-38.471l.819.896c1.379 1.507 2.736 2.99 3.97 4.562 1.789 2.28 3.227 4.642 3.931 7.287l.028.108.052.098c4.216 8.073 6.954 16.67 8.628 25.52zm2.533 2.888c-1.618-10.121-4.53-20-9.338-29.236-.811-2.968-2.41-5.542-4.261-7.9-1.281-1.632-2.725-3.21-4.13-4.747-.63-.688-1.253-1.369-1.849-2.041a65.85 65.85 0 01-1.189-1.377c-1.421-7.858-2.277-18.584-.473-27.702 1.007-5.092 2.826-9.594 5.754-12.826 2.899-3.201 6.946-5.228 12.592-5.294l-.011-1 .012 1c8.01-.095 15.23-.864 22.055-1.59a500.9 500.9 0 016.907-.705c8.859-.824 17.319-1.139 26.554.706.751.337 2.04 1.226 3.797 2.658 1.789 1.458 3.975 3.403 6.414 5.699 4.876 4.59 10.731 10.552 16.399 16.754 5.669 6.205 11.134 12.634 15.237 18.159 2.052 2.764 3.751 5.285 4.963 7.428 1.231 2.178 1.889 3.847 1.99 4.941 1.164 12.574-4.44 24.755-13.968 34.432-9.526 9.676-22.908 16.772-37.101 19.157-14.183 2.383-29.131.058-41.862-9.039a56.795 56.795 0 01-8.492-7.477z" fill="#C6B889" stroke="#988A5B" stroke-width="2"/></g><defs><clipPath id="clip0"><path fill="#fff" d="M0 0h133v196H0z"/></clipPath></defs></svg>