<svg xmlns="http://www.w3.org/2000/svg" fill="none" viewBox="0 0 102 343">
    <defs/>
    <g clip-path="url(#clip0)">
        <path fill="#C6B889" stroke="#988A5B" stroke-width="2" d="M163.613 81.57l-.249-.025.21-1.073c1.57-8 4.85-15.484 8.078-22.85a521.995 521.995 0 001.934-4.45c-1.65-.967-3.269-1.56-4.919-1.805h-.001c-3.766-.563-7.908.643-13.241 3.775l-.506-.863.506.862c-2.858 1.679-5.183 2.94-7.128 3.665-1.944.726-3.66.978-5.225.437-1.566-.54-2.759-1.797-3.837-3.567-1.077-1.77-2.122-4.195-3.326-7.275l.931-.364-.931.364c-.905-2.316-2.127-4.452-3.352-6.018-.614-.784-1.21-1.403-1.747-1.829-.556-.44-.959-.603-1.193-.628-1.56-.164-3.187-1.114-4.648-2.33-1.487-1.24-2.924-2.856-4.111-4.545-1.183-1.685-2.15-3.49-2.66-5.122-.485-1.55-.663-3.288.275-4.5h0c1.882-2.433 1.749-5.04.433-6.933-1.332-1.918-3.973-3.229-7.34-2.75h-.001c-2.716.386-5.124.157-7.413-.842-2.273-.992-4.347-2.707-6.463-5.158h0l-4.733-5.487-1.834 4.194a17.08 17.08 0 00-1.256 4.57c-.189 1.514-.08 2.63.174 3.159 0 0 0 0 0 0l-.9.434c.771 1.602-2.754 9.246-7.833 16.988l.836.549c-8.625 13.146-12.115 24.177-14.2 45.162-.355 3.568-1.025 6.22-2.417 8.225-1.414 2.038-3.477 3.275-6.31 4.223l-.318-.948.317.948c-1.927.645-4.274 2.388-6.718 5.043-2.424 2.634-4.867 6.081-7.002 10.002-1.984 3.645-4.101 6.94-5.923 9.318-.908 1.186-1.763 2.169-2.507 2.857-.37.343-.741.637-1.1.845-.33.193-.79.394-1.294.341l.005.001c-.003.001-.076.002-.241.061-.183.065-.423.18-.717.355-.59.351-1.318.896-2.139 1.61-1.637 1.423-3.558 3.443-5.352 5.711-3.052 3.86-4.463 5.96-4.868 7.966-.394 1.957.145 3.971 1.64 7.796 2.2 5.627 2.4 10.434.123 13.899-.777 1.183-1.866 3.492-2.994 6.312a102.197 102.197 0 00-3.118 9.003c-1.787 6.135-6.069 14.353-9.585 18.334h0c-1.97 2.231-3.396 4.012-4.387 5.917-.98 1.882-1.558 3.927-1.752 6.698-.395 5.632.794 14.089 3.339 29.896 2.316 14.385 4.587 29.826 5.043 34.299h0c.311 3.054.821 4.713 1.528 5.544.581.683 1.45.963 3.244.595 1.65-.338 3.671-.06 5.575.575 1.919.64 3.838 1.682 5.291 3m138.307-194.17L24.635 276.482M163.613 81.571c.19 4.837-1.082 12.252-2.958 16.897-1.42 3.512-2.186 6.458-2.25 9.379-.065 2.928.577 5.753 1.855 9.025 2.107 5.392 2.257 11.677.357 18.728-1.219 4.521-1.804 7.593-1.407 9.948.422 2.505 1.917 4.06 4.257 5.648h0c1.334.904 3.148 2.85 4.996 5.338 1.831 2.463 3.628 5.368 4.948 8.108l.901-.434-.901.434c1.225 2.543 2.11 4.397 2.67 5.957.552 1.539.762 2.726.671 3.921-.093 1.209-.499 2.512-1.321 4.273-.824 1.768-2.028 3.922-3.668 6.839-3.61 6.422-11.902 14.98-18.854 19.427-5.503 3.52-8.856 5.982-10.923 8.899-2.098 2.96-2.804 6.288-3.332 11.313-.375 3.575-1.834 8.317-4.357 14.077-2.518 5.747-6.071 12.45-10.587 19.934l.856.516-.856-.516c-6.695 11.096-10.232 17.085-11.87 22.148-1.666 5.15-1.364 9.326-.627 16.668.422 4.207 1.036 8.217 1.688 11.296.325 1.537.665 2.862 1.001 3.87.167.503.341.949.522 1.312.164.329.393.716.721.97.366.283.87.386 1.253.441.442.063.984.092 1.596.096 1.229.008 2.842-.087 4.716-.267 3.753-.362 8.631-1.076 13.735-2.055 5.07-.971 9.749-1.758 13.201-2.244 1.729-.243 3.136-.409 4.125-.485a4.96 4.96 0 01.162-.012m9.68-229.45l-9.68 229.45M25.306 275.741l-.671.741m.671-.741v-.001l-.671.742m.671-.741c2.176 1.97 3.244 2.501 4.354 2.297.607-.111 1.345-.462 2.357-1.203 1.006-.738 2.205-1.801 3.737-3.244l6.955-6.555 1.078-1.016.54 1.38 3.619 9.258-.932.365m-22.38-.541c4.28 3.874 5.668 3.62 11.806-2.163l6.17-5.816-.146-.375.931-.364.686.727-.293.277 3.226 8.255m0 0l.932-.364c1.628 4.166 2.481 6.963 2.208 10.067-.27 3.058-1.628 6.314-4.064 11.437-3.967 8.343-4.886 13.725-3.683 20.964l-.986.164m5.593-42.268c3.254 8.325 3.07 10.412-1.827 20.711-4.034 8.483-5.01 14.072-3.766 21.557m0 0l.986-.164c.622 3.747.752 6.863.28 9.721-.473 2.871-1.542 5.426-3.242 8.061m1.976-17.618c1.224 7.368.462 11.993-2.817 17.076m.84.542l-1.01 56.847c-3.794-1.917-8.539-7.681-10.543-12.808-3.12-7.983-2.934-11.353 1.288-23.465m10.266-20.574c-2.407 3.736-6.62 13.15-9.322 20.903l-.944-.329m10.266-20.574s0 0 0 0l-.84-.542m.84.542l-.84-.542m.84.542l114.488-25.889M38.604 336.367c-2.47 3.835-6.714 13.338-9.425 21.116m0 0l.944.329c-2.113 6.063-3.167 9.81-3.343 13.007-.172 3.145.503 5.826 2.043 9.765.956 2.446 2.582 5.079 4.44 7.336 1.87 2.27 3.9 4.073 5.623 4.944h0c2.48 1.254 4.264 2.561 5.163 4.11.96 1.656.816 3.4-.1 5.198-1.13 2.216-.883 3.965.058 5.295.989 1.4 2.861 2.495 5.25 3.044 4.795 1.102 11.03-.127 14.575-4.47l.775.632m0 0c2.791-3.418 9.232-9.905 14.314-14.416 9.097-8.076 9.191-8.376 6.106-19.539m-20.42 33.955l47.601-108.675c.838 8.355 2.435 15.896 3.549 16.757 1.113.861 10.339-.028 20.5-1.976 10.162-1.947 18.784-3.161 19.16-2.695.377.467-3.131 5.173-7.796 10.457-7.204 8.162-8.09 10.62-5.882 16.304m-77.132 69.828l-.775-.633c2.839-3.475 9.322-10.001 14.425-14.531 2.285-2.029 3.956-3.527 5.156-4.822 1.192-1.287 1.85-2.302 2.175-3.34.323-1.034.349-2.197.08-3.84-.273-1.66-.83-3.716-1.605-6.522l.964-.267m0 0c-3.828-13.853 1.138-25.188 14.286-32.613 8.217-4.64 14.024-2.064 9.252 4.106m-23.538 28.507l-.964.266c-1.964-7.106-1.69-13.644.825-19.384 2.512-5.735 7.217-10.573 13.933-14.366 2.129-1.202 4.134-1.955 5.885-2.294 1.731-.335 3.309-.283 4.51.25 1.274.565 2.07 1.661 2.072 3.122.003 1.358-.68 2.892-1.932 4.51m-.791-.611c-3.537 4.576-.542 16.476 5.115 20.313 7.475 5.07 15.664 1.042 24.023-11.818 1.889-2.905 3.927-5.514 5.69-7.374m-34.828-1.121l.791.611s0 0 0 0m-.791-.611l.791.611m34.037.51l-1.654-8.487m1.654 8.487l-.725-.688c-.117.123-.235.25-.354.379m1.079.309l-.981.192-.098-.501m-.575-8.178l-.981.192.017.086m.964-.278l-.932.362-.032-.084m0 0c-1.117-2.899-1.521-5.191-.565-7.84.921-2.553 3.078-5.344 6.661-9.404 2.32-2.628 4.345-5.103 5.737-6.971a33.067 33.067 0 001.325-1.888m-13.158 26.103l1.539 7.9m0 0c-1.726 1.877-3.657 4.382-5.449 7.138-4.142 6.372-8.158 10.417-11.946 12.281-3.705 1.822-7.238 1.587-10.677-.745-2.544-1.726-4.614-5.391-5.597-9.297-.487-1.931-.69-3.86-.571-5.554.12-1.707.562-3.091 1.282-4.024"/>
    </g>
    <defs>
        <clipPath id="clip0">
            <path fill="#fff" d="M0 0h102v343H0z"/>
        </clipPath>
    </defs>
</svg>
