<svg width="114" height="27" viewBox="0 0 114 27" fill="none" xmlns="http://www.w3.org/2000/svg"><path d="M106.729 20.397c-6.673 0-8.916-7.645-4.683-11.81 1.38-1.357 2.853-2.04 4.89-2.04h6.889V19.99c0 2.706-1.286 4.82-3.604 6.067-2.159 1.154-5.172.923-7.715.923v-2.428c1.99 0 5.246.175 6.682-.637 1.324-.74 1.999-1.94 1.999-3.63V8.977h-4.251c-6.054 0-6.072 9.002-.207 9.002 1.286 0 2.422-.35 3.398-1.043v2.594a6.909 6.909 0 01-3.398.868zM76.274 14.82V.268h2.61V14.82c0 2.494 1.05 3.03 3.331 3.03v2.39c-4.157 0-5.94-1.338-5.94-5.42zM70.644 6.547h2.815l-3.51 5.965c3.736.988 3.567 4.47 3.567 7.729h-2.553c0-1.93.253-3.768-1.145-5.033-1.155-1.053-2.919-1.163-4.627-.96v5.993h-2.553V.268h2.553v11.727a8.998 8.998 0 012.44 0l3.013-5.448zM51.703 20.24v-7.783c0-2.798.601-4.719 2.722-5.485 1.69-.61 3.604-.425 5.622-.425v2.4c-1.22 0-3.5-.166-4.486.222-1.117.443-1.305 1.588-1.305 3.287v7.785h-2.553zM37.382 8.56c4.252-4.248 11.995-1.367 11.995 4.848 0 7.562-10.596 9.428-13.468 2.668-1.06-2.502-.554-5.55 1.473-7.516zm4.993.416c-5.781 0-5.781 8.864 0 8.864 5.791 0 5.791-8.864 0-8.864zM33.758 8.947h-3.341V20.24h-2.61V8.947h-1.97L27 6.547h.807c0-4.073 3.153-6.307 7.105-6.307v2.4c-2.994 0-4.496 1.303-4.496 3.907h3.341v2.4z" fill="#524A2D"/><path fill-rule="evenodd" clip-rule="evenodd" d="M17.954 17.978c-1.201-.064-2.412.046-3.613-.24-1.614-.406-2.994-1.219-4.308-2.142-1.004-.72-2-1.459-3.022-2.142-1.915-1.32-4.524-1.173-7.011-1.22 0-.609.019-1.218.019-1.827C.019 9.787 0 9.178 0 8.569c2.487-.046 5.096.102 7.01-1.219 1.024-.683 2.019-1.422 3.023-2.142 1.314-.923 2.694-1.736 4.308-2.142 1.201-.287 2.412-.176 3.613-.24-.582-.693-1.164-1.247-1.811-1.884-.179-.176-.329-.379-.179-.637.113-.203.32-.259.545-.259.77-.01 1.51-.046 2.28-.046.601 0 1.098.222 1.52.637 1.108 1.108 2.216 2.189 3.314 3.297.591.59.572 1.034-.028 1.643-1.089 1.09-2.215 2.17-3.313 3.278-.404.397-.883.6-1.446.619-.732.018-1.464.018-2.196.018-.272 0-.544-.046-.676-.323-.168-.304.066-.49.254-.683.591-.563 1.173-1.117 1.868-1.773-1.83-.212-3.388-.037-4.768.896-1.22.83-2.422 1.69-3.67 2.539-.14.092-.225.175-.234.259.009.073.093.157.234.249 1.248.85 2.45 1.708 3.67 2.54 1.38.932 2.937 1.107 4.768.895-.695-.656-1.277-1.21-1.868-1.773-.188-.194-.422-.379-.254-.683.132-.277.404-.323.676-.323.732 0 1.464 0 2.196.018a2.082 2.082 0 011.446.619c1.098 1.108 2.224 2.188 3.313 3.278.6.61.62 1.052.028 1.643-1.098 1.108-2.206 2.189-3.313 3.297-.422.415-.92.637-1.52.637-.77 0-1.512-.037-2.281-.046-.225 0-.432-.056-.545-.259-.15-.258 0-.461.179-.637.647-.637 1.23-1.191 1.811-1.884z" fill="#524A2D"/><path d="M85.998 8.56c4.251-4.248 11.994-1.367 11.994 4.848 0 7.562-10.596 9.428-13.468 2.668-1.06-2.502-.544-5.55 1.474-7.516zM91 8.976c-5.79 0-5.79 8.864 0 8.864 5.781 0 5.781-8.864 0-8.864z" fill="#524A2D"/></svg>