<svg width="114" height="28" viewBox="0 0 114 28" fill="none" xmlns="http://www.w3.org/2000/svg"><path d="M106.894 20.429c-6.683 0-8.93-7.658-4.691-11.828 1.382-1.36 2.858-2.044 4.898-2.044H114v13.465c0 2.71-1.288 4.827-3.61 6.076-2.161 1.156-5.179.925-7.726.925V24.59c1.993 0 5.254.176 6.693-.638 1.325-.74 2.002-1.942 2.002-3.634V8.988h-4.258c-6.063 0-6.082 9.018-.207 9.018 1.288 0 2.425-.352 3.402-1.045v2.599a6.917 6.917 0 01-3.402.869zm-30.502-5.586V.268h2.613v14.575c0 2.497 1.053 3.034 3.337 3.034v2.395c-4.164 0-5.95-1.341-5.95-5.429z" fill="#FEFEFC"/><path d="M70.752 6.557h2.82l-3.515 5.974c3.741.99 3.572 4.476 3.572 7.74h-2.557c0-1.932.254-3.772-1.147-5.04-1.156-1.054-2.923-1.165-4.634-.961v6.002h-2.557V.268h2.557v11.745a9.01 9.01 0 012.444 0l3.017-5.456zM51.783 20.272v-7.796c0-2.803.602-4.726 2.726-5.494 1.692-.61 3.61-.425 5.63-.425V8.96c-1.222 0-3.506-.166-4.493.222-1.118.444-1.306 1.591-1.306 3.293v7.796h-2.557zM37.44 8.573c4.258-4.254 12.013-1.369 12.013 4.855 0 7.575-10.612 9.443-13.489 2.673-1.062-2.506-.554-5.558 1.476-7.528zm5 .416c-5.79 0-5.79 8.878 0 8.878 5.8 0 5.8-8.878 0-8.878zm-8.63-.028h-3.346v11.31H27.85V8.962h-1.974l1.165-2.404h.809c0-4.079 3.158-6.317 7.115-6.317v2.405c-2.998 0-4.502 1.304-4.502 3.912h3.346V8.96z" fill="#19AAE0"/><path fill-rule="evenodd" clip-rule="evenodd" d="M17.982 18.006c-1.203-.065-2.416.046-3.62-.24-1.616-.407-2.998-1.221-4.314-2.146-1.005-.721-2.002-1.461-3.026-2.145C5.104 12.152 2.49 12.3 0 12.254c0-.61.019-1.221.019-1.831 0-.62-.019-1.23-.019-1.84 2.491-.047 5.104.101 7.022-1.222 1.024-.684 2.02-1.424 3.026-2.145 1.316-.925 2.698-1.739 4.315-2.146 1.203-.286 2.416-.175 3.619-.24-.583-.694-1.166-1.249-1.814-1.887-.179-.175-.33-.379-.179-.638.113-.203.32-.259.545-.259C17.305.037 18.048 0 18.818 0c.602 0 1.1.222 1.523.638 1.11 1.11 2.218 2.192 3.318 3.302.593.592.574 1.035-.028 1.646-1.09 1.091-2.218 2.173-3.318 3.283a2.086 2.086 0 01-1.448.62c-.733.018-1.466.018-2.2.018-.272 0-.544-.046-.676-.324-.17-.305.066-.49.254-.684.592-.564 1.175-1.119 1.87-1.776-1.832-.212-3.393-.037-4.775.897-1.222.833-2.425 1.693-3.675 2.544-.141.092-.226.175-.235.259.01.074.094.157.235.25 1.25.85 2.453 1.71 3.675 2.543 1.382.934 2.943 1.11 4.775.897a530.897 530.897 0 01-1.87-1.776c-.188-.194-.423-.38-.254-.684.132-.278.404-.324.677-.324.733 0 1.466 0 2.2.018a2.086 2.086 0 011.447.62c1.1 1.11 2.228 2.192 3.318 3.283.602.61.62 1.054.028 1.646-1.1 1.11-2.209 2.192-3.318 3.302-.423.416-.921.638-1.523.638-.77 0-1.513-.037-2.284-.046-.225 0-.432-.056-.545-.26-.15-.258 0-.462.179-.637.648-.639 1.231-1.193 1.814-1.887z" fill="#E9A520"/><path d="M86.13 8.573c4.258-4.254 12.013-1.369 12.013 4.855 0 7.575-10.612 9.443-13.489 2.673-1.062-2.506-.545-5.558 1.476-7.528zm5.01.416c-5.8 0-5.8 8.878 0 8.878 5.79 0 5.79-8.878 0-8.878z" fill="#FEFEFC"/></svg>