<svg width="906" height="527" viewBox="0 0 906 527" fill="none" xmlns="http://www.w3.org/2000/svg"><g clip-path="url(#clip0)" stroke="#524A2D"><path d="M588.979 429.161v.001l-.004-.004a5.521 5.521 0 00-3.48-1.636l-.051-.001h-.01a1.357 1.357 0 01-.225-.021h-.424c-.105.019-.201.021-.261.023h-.012a1.13 1.13 0 00-.131.009l-.02.004-.02.002a5.535 5.535 0 00-3.561 1.885h0l-.002.003c-.914 1.057-1.385 2.47-1.257 3.837.129 1.021.56 2.001 1.089 2.964.597 1.071 1.318 2.08 2.096 3.06l.001.001a34.36 34.36 0 002.271 2.591l.023.023.04-.04c.723-.748 1.41-1.53 2.066-2.337 1.075-1.343 2.066-2.725 2.762-4.242.273-.605.487-1.219.588-1.843.211-1.534-.364-3.155-1.478-4.279z" fill="#fff"/><circle cx="586.2" cy="431.8" r="1.9" fill="#D7C99C"/><path d="M569.979 432.161v.001l-.004-.004a5.521 5.521 0 00-3.48-1.636l-.051-.001h-.01a1.357 1.357 0 01-.225-.021h-.424c-.105.019-.201.021-.261.023h-.012a1.13 1.13 0 00-.131.009l-.02.004-.02.002a5.535 5.535 0 00-3.561 1.885h0l-.002.003c-.914 1.057-1.385 2.47-1.257 3.837.129 1.021.56 2.001 1.089 2.964.597 1.071 1.318 2.08 2.096 3.06l.001.001a34.36 34.36 0 002.271 2.591l.023.023.04-.04c.723-.748 1.41-1.53 2.066-2.337 1.075-1.343 2.066-2.725 2.762-4.242.273-.605.487-1.219.588-1.843.211-1.534-.364-3.155-1.478-4.279z" fill="#fff"/><circle cx="567.2" cy="434.8" r="1.9" fill="#D7C99C"/><path d="M579.979 442.161v.001l-.004-.004a5.521 5.521 0 00-3.48-1.636l-.051-.001h-.01a1.357 1.357 0 01-.225-.021h-.424c-.105.019-.201.021-.261.023h-.012a1.13 1.13 0 00-.131.009l-.02.004-.02.002a5.535 5.535 0 00-3.561 1.885h0l-.002.003c-.914 1.057-1.385 2.47-1.257 3.837.129 1.021.56 2.001 1.089 2.964.597 1.071 1.318 2.08 2.096 3.06l.001.001a34.36 34.36 0 002.271 2.591l.023.023.04-.04c.723-.748 1.41-1.53 2.066-2.337 1.075-1.343 2.066-2.725 2.762-4.242.273-.605.487-1.219.588-1.843.211-1.534-.364-3.155-1.478-4.279z" fill="#fff"/><circle cx="577.2" cy="444.8" r="1.9" fill="#D7C99C"/><path d="M246.979 282.161v.001l-.004-.004a5.521 5.521 0 00-3.48-1.636l-.051-.001h-.01a1.357 1.357 0 01-.225-.021h-.424c-.105.019-.201.021-.261.023h-.012a1.13 1.13 0 00-.131.009l-.02.004-.02.002a5.535 5.535 0 00-3.561 1.885h0l-.002.003c-.914 1.057-1.385 2.47-1.257 3.837.129 1.021.56 2.001 1.089 2.964.597 1.071 1.318 2.08 2.096 3.06l.001.001a34.36 34.36 0 002.271 2.591l.023.023.04-.04c.723-.748 1.41-1.53 2.066-2.337 1.075-1.343 2.066-2.725 2.762-4.242.273-.605.487-1.219.588-1.843.211-1.534-.364-3.155-1.478-4.279z" fill="#fff"/><circle cx="244.2" cy="284.8" r="1.9" fill="#D7C99C"/><path d="M306.979 289.161v.001l-.004-.004a5.521 5.521 0 00-3.48-1.636l-.051-.001h-.01a1.357 1.357 0 01-.225-.021h-.424c-.105.019-.201.021-.261.023h-.012a1.13 1.13 0 00-.131.009l-.02.004-.02.002a5.535 5.535 0 00-3.561 1.885h0l-.002.003c-.914 1.057-1.385 2.47-1.257 3.837.129 1.021.56 2.001 1.089 2.964.597 1.071 1.318 2.08 2.096 3.06l.001.001a34.36 34.36 0 002.271 2.591l.023.023.04-.04c.723-.748 1.41-1.53 2.066-2.337 1.075-1.343 2.066-2.725 2.762-4.242.273-.605.487-1.219.588-1.843.211-1.534-.364-3.155-1.478-4.279z" fill="#fff"/><circle cx="304.2" cy="291.8" r="1.9" fill="#D7C99C"/><path d="M260.979 258.161v.001l-.004-.004a5.521 5.521 0 00-3.48-1.636l-.051-.001h-.01a1.357 1.357 0 01-.225-.021h-.424c-.105.019-.201.021-.261.023h-.012a1.13 1.13 0 00-.131.009l-.02.004-.02.002a5.535 5.535 0 00-3.561 1.885h0l-.002.003c-.914 1.057-1.385 2.47-1.257 3.837.129 1.021.56 2.001 1.089 2.964.597 1.071 1.318 2.08 2.096 3.06l.001.001a34.36 34.36 0 002.271 2.591l.023.023.04-.04c.723-.748 1.41-1.53 2.066-2.337 1.075-1.343 2.066-2.725 2.762-4.242.273-.605.487-1.219.588-1.843.211-1.534-.364-3.155-1.478-4.279z" fill="#fff"/><circle cx="258.2" cy="260.8" r="1.9" fill="#D7C99C"/><path d="M273.979 257.161v.001l-.004-.004a5.521 5.521 0 00-3.48-1.636l-.051-.001h-.01a1.357 1.357 0 01-.225-.021h-.424c-.105.019-.201.021-.261.023h-.012a1.13 1.13 0 00-.131.009l-.02.004-.02.002a5.535 5.535 0 00-3.561 1.885h0l-.002.003c-.914 1.057-1.385 2.47-1.257 3.837.129 1.021.56 2.001 1.089 2.964.597 1.071 1.318 2.08 2.096 3.06l.001.001a34.36 34.36 0 002.271 2.591l.023.023.04-.04c.723-.748 1.41-1.53 2.066-2.337 1.075-1.343 2.066-2.725 2.762-4.242.273-.605.487-1.219.588-1.843.211-1.534-.364-3.155-1.478-4.279z" fill="#fff"/><circle cx="271.2" cy="259.8" r="1.9" fill="#D7C99C"/><path d="M286.979 262.161v.001l-.004-.004a5.521 5.521 0 00-3.48-1.636l-.051-.001h-.01a1.357 1.357 0 01-.225-.021h-.424c-.105.019-.201.021-.261.023h-.012a1.13 1.13 0 00-.131.009l-.02.004-.02.002a5.535 5.535 0 00-3.561 1.885h0l-.002.003c-.914 1.057-1.385 2.47-1.257 3.837.129 1.021.56 2.001 1.089 2.964.597 1.071 1.318 2.08 2.096 3.06l.001.001a34.36 34.36 0 002.271 2.591l.023.023.04-.04c.723-.748 1.41-1.53 2.066-2.337 1.075-1.343 2.066-2.725 2.762-4.242.273-.605.487-1.219.588-1.843.211-1.534-.364-3.155-1.478-4.279z" fill="#fff"/><circle cx="284.2" cy="264.8" r="1.9" fill="#D7C99C"/><path d="M594.979 396.161v.001l-.004-.004a5.521 5.521 0 00-3.48-1.636l-.051-.001h-.01a1.357 1.357 0 01-.225-.021h-.424c-.105.019-.201.021-.261.023h-.012a1.13 1.13 0 00-.131.009l-.02.004-.02.002a5.535 5.535 0 00-3.561 1.885h0l-.002.003c-.914 1.057-1.385 2.47-1.257 3.837.129 1.021.56 2.001 1.089 2.964.597 1.071 1.318 2.08 2.096 3.06l.001.001a34.36 34.36 0 002.271 2.591l.023.023.04-.04c.723-.748 1.41-1.53 2.066-2.337 1.075-1.343 2.066-2.725 2.762-4.242.273-.605.487-1.219.588-1.843.211-1.534-.364-3.155-1.478-4.279z" fill="#fff"/><circle cx="592.2" cy="398.8" r="1.9" fill="#D7C99C"/><path d="M610.979 393.161v.001l-.004-.004a5.521 5.521 0 00-3.48-1.636l-.051-.001h-.01a1.357 1.357 0 01-.225-.021h-.424c-.105.019-.201.021-.261.023h-.012a1.13 1.13 0 00-.131.009l-.02.004-.02.002a5.535 5.535 0 00-3.561 1.885h0l-.002.003c-.914 1.057-1.385 2.47-1.257 3.837.129 1.021.56 2.001 1.089 2.964.597 1.071 1.318 2.08 2.096 3.06l.001.001a34.36 34.36 0 002.271 2.591l.023.023.04-.04c.723-.748 1.41-1.53 2.066-2.337 1.075-1.343 2.066-2.725 2.762-4.242.273-.605.487-1.219.588-1.843.211-1.534-.364-3.155-1.478-4.279z" fill="#fff"/><circle cx="608.2" cy="395.8" r="1.9" fill="#D7C99C"/><path d="M604.979 409.161v.001l-.004-.004a5.521 5.521 0 00-3.48-1.636l-.051-.001h-.01a1.357 1.357 0 01-.225-.021h-.424c-.105.019-.201.021-.261.023h-.012a1.13 1.13 0 00-.131.009l-.02.004-.02.002a5.535 5.535 0 00-3.561 1.885h0l-.002.003c-.914 1.057-1.385 2.47-1.257 3.837.129 1.021.56 2.001 1.089 2.964.597 1.071 1.318 2.08 2.096 3.06l.001.001a34.36 34.36 0 002.271 2.591l.023.023.04-.04c.723-.748 1.41-1.53 2.066-2.337 1.075-1.343 2.066-2.725 2.762-4.242.273-.605.487-1.219.588-1.843.211-1.534-.364-3.155-1.478-4.279z" fill="#fff"/><circle cx="602.2" cy="411.8" r="1.9" fill="#D7C99C"/><path d="M521.979 381.161v.001l-.004-.004a5.521 5.521 0 00-3.48-1.636l-.051-.001h-.01a1.357 1.357 0 01-.225-.021h-.424c-.105.019-.201.021-.261.023h-.012a1.13 1.13 0 00-.131.009l-.02.004-.02.002a5.535 5.535 0 00-3.561 1.885h0l-.002.003c-.914 1.057-1.385 2.47-1.257 3.837.129 1.021.56 2.001 1.089 2.964.597 1.071 1.318 2.08 2.096 3.06l.001.001a34.36 34.36 0 002.271 2.591l.023.023.04-.04c.723-.748 1.41-1.53 2.066-2.337 1.075-1.343 2.066-2.725 2.762-4.242.273-.605.487-1.219.588-1.843.211-1.534-.364-3.155-1.478-4.279z" fill="#fff"/><circle cx="519.2" cy="383.8" r="1.9" fill="#D7C99C"/><path d="M509.979 380.161v.001l-.004-.004a5.521 5.521 0 00-3.48-1.636l-.051-.001h-.01a1.357 1.357 0 01-.225-.021h-.424c-.105.019-.201.021-.261.023h-.012a1.13 1.13 0 00-.131.009l-.02.004-.02.002a5.535 5.535 0 00-3.561 1.885h0l-.002.003c-.914 1.057-1.385 2.47-1.257 3.837.129 1.021.56 2.001 1.089 2.964.597 1.071 1.318 2.08 2.096 3.06l.001.001a34.36 34.36 0 002.271 2.591l.023.023.04-.04c.723-.748 1.41-1.53 2.066-2.337 1.075-1.343 2.066-2.725 2.762-4.242.273-.605.487-1.219.588-1.843.211-1.534-.364-3.155-1.478-4.279z" fill="#fff"/><circle cx="507.2" cy="382.8" r="1.9" fill="#D7C99C"/><path d="M460.979 390.161v.001l-.004-.004a5.521 5.521 0 00-3.48-1.636l-.051-.001h-.01a1.357 1.357 0 01-.225-.021h-.424c-.105.019-.201.021-.261.023h-.012a1.13 1.13 0 00-.131.009l-.02.004-.02.002a5.535 5.535 0 00-3.561 1.885h0l-.002.003c-.914 1.057-1.385 2.47-1.257 3.837.129 1.021.56 2.001 1.089 2.964.597 1.071 1.318 2.08 2.096 3.06l.001.001a34.36 34.36 0 002.271 2.591l.023.023.04-.04c.723-.748 1.41-1.53 2.066-2.337 1.075-1.343 2.066-2.725 2.762-4.242.273-.605.487-1.219.588-1.843.211-1.534-.364-3.155-1.478-4.279z" fill="#fff"/><circle cx="458.2" cy="392.8" r="1.9" fill="#D7C99C"/><path d="M427.979 386.161v.001l-.004-.004a5.521 5.521 0 00-3.48-1.636l-.051-.001h-.01a1.357 1.357 0 01-.225-.021h-.424c-.105.019-.201.021-.261.023h-.012a1.13 1.13 0 00-.131.009l-.02.004-.02.002a5.535 5.535 0 00-3.561 1.885h0l-.002.003c-.914 1.057-1.385 2.47-1.257 3.837.129 1.021.56 2.001 1.089 2.964.597 1.071 1.318 2.08 2.096 3.06l.001.001a34.36 34.36 0 002.271 2.591l.023.023.04-.04c.723-.748 1.41-1.53 2.066-2.337 1.075-1.343 2.066-2.725 2.762-4.242.273-.605.487-1.219.588-1.843.211-1.534-.364-3.155-1.478-4.279z" fill="#fff"/><circle cx="425.2" cy="388.8" r="1.9" fill="#D7C99C"/><path d="M49.98 177.161v.001l-.005-.004a5.524 5.524 0 00-3.48-1.636l-.05-.001h-.011a1.345 1.345 0 01-.225-.021h-.424c-.104.019-.2.021-.261.023h-.012a1.111 1.111 0 00-.13.009l-.02.004-.02.002a5.537 5.537 0 00-3.562 1.885h0l-.002.003c-.914 1.057-1.385 2.47-1.257 3.837.129 1.021.56 2.001 1.089 2.964.597 1.071 1.319 2.08 2.096 3.06v.001c.71.9 1.471 1.762 2.272 2.591l.023.023.04-.04c.723-.748 1.41-1.53 2.066-2.337 1.075-1.343 2.066-2.725 2.762-4.242.273-.605.487-1.219.588-1.843.211-1.534-.364-3.155-1.478-4.279z" fill="#fff"/><circle cx="47.2" cy="179.8" r="1.9" fill="#D7C99C"/><path d="M100.979 230.161v.001l-.004-.004a5.522 5.522 0 00-3.48-1.636l-.05-.001h-.011a1.345 1.345 0 01-.225-.021h-.424c-.105.019-.2.021-.261.023h-.012a1.111 1.111 0 00-.13.009l-.02.004-.02.002a5.537 5.537 0 00-3.562 1.885h0l-.002.003c-.914 1.057-1.385 2.47-1.257 3.837.129 1.021.56 2.001 1.089 2.964.597 1.071 1.319 2.08 2.096 3.06v.001c.71.9 1.471 1.762 2.272 2.591l.023.023.04-.04c.723-.748 1.41-1.53 2.066-2.337 1.075-1.343 2.066-2.725 2.762-4.242.273-.605.487-1.219.588-1.843.211-1.534-.364-3.155-1.478-4.279z" fill="#fff"/><circle cx="98.2" cy="232.8" r="1.9" fill="#D7C99C"/><path d="M62.98 150.161v.001l-.005-.004a5.524 5.524 0 00-3.48-1.636l-.05-.001h-.011a1.345 1.345 0 01-.225-.021h-.424c-.104.019-.2.021-.261.023h-.012a1.111 1.111 0 00-.13.009l-.02.004-.02.002a5.537 5.537 0 00-3.562 1.885h0l-.002.003c-.914 1.057-1.385 2.47-1.257 3.837.129 1.021.56 2.001 1.089 2.964.597 1.071 1.319 2.08 2.096 3.06v.001c.71.9 1.471 1.762 2.272 2.591l.023.023.04-.04c.723-.748 1.41-1.53 2.066-2.337 1.075-1.343 2.066-2.725 2.762-4.242.273-.605.487-1.219.588-1.843.211-1.534-.364-3.155-1.478-4.279z" fill="#fff"/><circle cx="60.2" cy="152.8" r="1.9" fill="#D7C99C"/><path d="M135.979 154.161v.001l-.004-.004a5.521 5.521 0 00-3.48-1.636l-.051-.001h-.01a1.357 1.357 0 01-.225-.021h-.424c-.105.019-.201.021-.261.023h-.012a1.13 1.13 0 00-.131.009l-.02.004-.02.002a5.535 5.535 0 00-3.561 1.885h0l-.002.003c-.914 1.057-1.385 2.47-1.257 3.837.129 1.021.56 2.001 1.089 2.964.597 1.071 1.318 2.08 2.096 3.06l.001.001a34.36 34.36 0 002.294 2.614l.04-.04c.723-.748 1.41-1.53 2.066-2.337 1.075-1.343 2.066-2.725 2.762-4.242.273-.605.487-1.219.588-1.843.211-1.534-.364-3.155-1.478-4.279z" fill="#fff"/><circle cx="133.2" cy="156.8" r="1.9" fill="#D7C99C"/><path d="M116.979 135.161v.001l-.004-.004a5.521 5.521 0 00-3.48-1.636l-.051-.001h-.01a1.357 1.357 0 01-.225-.021h-.424c-.105.019-.201.021-.261.023h-.012a1.13 1.13 0 00-.131.009l-.02.004-.02.002a5.535 5.535 0 00-3.561 1.885h0l-.002.003c-.914 1.057-1.385 2.47-1.257 3.837.129 1.021.56 2.001 1.089 2.964.597 1.071 1.318 2.08 2.096 3.06l.001.001a34.36 34.36 0 002.271 2.591l.023.023.04-.04c.723-.748 1.41-1.53 2.066-2.337 1.075-1.343 2.066-2.725 2.762-4.242.273-.605.487-1.219.588-1.843.211-1.534-.364-3.155-1.478-4.279z" fill="#fff"/><circle cx="114.2" cy="137.8" r="1.9" fill="#D7C99C"/><path d="M115.979 85.162h0l-.004-.004a5.523 5.523 0 00-3.48-1.636l-.051-.001h-.01a1.357 1.357 0 01-.225-.021h-.424c-.105.019-.201.021-.261.023h-.012a.91.91 0 00-.131.01l-.02.003-.02.002a5.535 5.535 0 00-3.561 1.885h0l-.002.002c-.914 1.058-1.385 2.472-1.257 3.838.129 1.021.56 2.001 1.089 2.964.597 1.071 1.318 2.08 2.096 3.06l.001.001a34.43 34.43 0 002.271 2.59l.023.024.04-.04c.723-.748 1.41-1.53 2.066-2.337 1.075-1.343 2.066-2.725 2.762-4.242.273-.605.487-1.219.588-1.843.211-1.534-.364-3.155-1.478-4.278z" fill="#fff"/><circle cx="113.2" cy="87.8" r="1.9" fill="#D7C99C"/><path d="M104.979 80.162h0l-.004-.004a5.523 5.523 0 00-3.48-1.636l-.051-.001h-.01a1.357 1.357 0 01-.225-.021h-.424c-.105.019-.201.021-.261.023h-.012a.91.91 0 00-.131.01l-.02.003-.02.002a5.537 5.537 0 00-3.561 1.885h0l-.002.002c-.914 1.058-1.385 2.472-1.257 3.838.129 1.021.56 2.001 1.089 2.964.597 1.071 1.319 2.08 2.096 3.06v.001c.71.9 1.472 1.762 2.272 2.59l.023.024.04-.04c.723-.748 1.41-1.53 2.066-2.337 1.075-1.343 2.066-2.725 2.762-4.242.273-.605.487-1.219.588-1.843.211-1.534-.364-3.155-1.478-4.278z" fill="#fff"/><circle cx="102.2" cy="82.8" r="1.9" fill="#D7C99C"/><path d="M93.98 75.162h0l-.005-.004a5.526 5.526 0 00-3.48-1.636 1.48 1.48 0 00-.061-.001 1.348 1.348 0 01-.225-.021h-.424c-.105.019-.2.021-.261.023h-.012a.898.898 0 00-.13.01l-.02.003-.02.002a5.537 5.537 0 00-3.562 1.885h0l-.002.002c-.914 1.058-1.385 2.472-1.257 3.838.129 1.021.56 2.001 1.089 2.964.597 1.071 1.319 2.08 2.096 3.06v.001a34.343 34.343 0 002.295 2.614l.04-.04c.723-.748 1.41-1.53 2.066-2.337 1.075-1.343 2.066-2.725 2.762-4.242.273-.605.487-1.219.588-1.843.211-1.534-.364-3.155-1.478-4.278z" fill="#fff"/><circle cx="91.2" cy="77.8" r="1.9" fill="#D7C99C"/><path d="M86.98 98.162h0l-.005-.004a5.526 5.526 0 00-3.48-1.636 1.48 1.48 0 00-.061-.001 1.348 1.348 0 01-.225-.021h-.424c-.105.019-.2.021-.261.023h-.012a.898.898 0 00-.13.01l-.02.003-.02.002a5.537 5.537 0 00-3.562 1.885h0l-.002.002c-.914 1.058-1.385 2.471-1.257 3.838.129 1.021.56 2.001 1.089 2.964.597 1.071 1.319 2.08 2.096 3.06v.001c.71.9 1.471 1.762 2.272 2.591l.023.023.04-.04c.723-.748 1.41-1.53 2.066-2.337 1.075-1.343 2.066-2.725 2.762-4.242.273-.605.487-1.219.588-1.843.211-1.534-.364-3.155-1.478-4.278z" fill="#fff"/><circle cx="84.2" cy="100.8" r="1.9" fill="#D7C99C"/><path d="M93.98 104.161v.001l-.005-.004a5.524 5.524 0 00-3.48-1.636l-.05-.001h-.011a1.345 1.345 0 01-.225-.021h-.424c-.105.019-.2.021-.261.023h-.012a1.111 1.111 0 00-.13.009l-.02.004-.02.002a5.537 5.537 0 00-3.562 1.885h0l-.002.003c-.914 1.057-1.385 2.47-1.257 3.837.129 1.021.56 2.001 1.089 2.964.597 1.071 1.319 2.08 2.096 3.06v.001c.71.9 1.471 1.762 2.272 2.591l.023.023.04-.04c.723-.748 1.41-1.53 2.066-2.337 1.075-1.343 2.066-2.725 2.762-4.242.273-.605.487-1.219.588-1.843.211-1.534-.364-3.155-1.478-4.279z" fill="#fff"/><circle cx="91.2" cy="106.8" r="1.9" fill="#D7C99C"/><path d="M91.98 117.161v.001l-.005-.004a5.524 5.524 0 00-3.48-1.636l-.05-.001h-.011a1.345 1.345 0 01-.225-.021h-.424c-.105.019-.2.021-.261.023h-.012a1.111 1.111 0 00-.13.009l-.02.004-.02.002a5.537 5.537 0 00-3.562 1.885h0l-.002.003c-.914 1.057-1.385 2.47-1.257 3.837.129 1.021.56 2.001 1.089 2.964.597 1.071 1.319 2.08 2.096 3.06v.001c.71.9 1.471 1.762 2.272 2.591l.023.023.04-.04c.723-.748 1.41-1.53 2.066-2.337 1.075-1.343 2.066-2.725 2.762-4.242.273-.605.487-1.219.588-1.843.211-1.534-.364-3.155-1.478-4.279z" fill="#fff"/><circle cx="89.2" cy="119.8" r="1.9" fill="#D7C99C"/><path d="M102.979 120.161v.001l-.004-.004a5.521 5.521 0 00-3.48-1.636l-.05-.001h-.011a1.345 1.345 0 01-.225-.021h-.424c-.105.019-.2.021-.261.023h-.012a1.111 1.111 0 00-.13.009l-.02.004-.02.002a5.537 5.537 0 00-3.562 1.885h0l-.002.003c-.914 1.057-1.385 2.47-1.257 3.837.129 1.021.56 2.001 1.089 2.964.597 1.071 1.319 2.08 2.096 3.06v.001c.71.9 1.471 1.762 2.272 2.591l.023.023.04-.04a36.29 36.29 0 002.066-2.337c1.075-1.343 2.066-2.725 2.762-4.242.273-.605.487-1.219.588-1.843.211-1.534-.364-3.155-1.478-4.279z" fill="#fff"/><circle cx="100.2" cy="122.8" r="1.9" fill="#D7C99C"/><path d="M105.979 104.161v.001l-.004-.004a5.521 5.521 0 00-3.48-1.636l-.051-.001h-.01a1.357 1.357 0 01-.225-.021h-.424c-.105.019-.201.021-.261.023h-.012a1.13 1.13 0 00-.131.009l-.02.004-.02.002a5.537 5.537 0 00-3.561 1.885h0l-.002.003c-.914 1.057-1.385 2.47-1.257 3.837.129 1.021.56 2.001 1.089 2.964.597 1.071 1.319 2.08 2.096 3.06v.001c.71.9 1.472 1.762 2.272 2.591l.023.023.04-.04c.723-.748 1.41-1.53 2.066-2.337 1.075-1.343 2.066-2.725 2.762-4.242.273-.605.487-1.219.588-1.843.211-1.534-.364-3.155-1.478-4.279z" fill="#fff"/><circle cx="103.2" cy="106.8" r="1.9" fill="#D7C99C"/><path d="M105.979 130.161v.001l-.004-.004a5.521 5.521 0 00-3.48-1.636l-.051-.001h-.01a1.357 1.357 0 01-.225-.021h-.424c-.105.019-.201.021-.261.023h-.012a1.13 1.13 0 00-.131.009l-.02.004-.02.002a5.537 5.537 0 00-3.561 1.885h0l-.002.003c-.914 1.057-1.385 2.47-1.257 3.837.129 1.021.56 2.001 1.089 2.964.597 1.071 1.319 2.08 2.096 3.06v.001c.71.9 1.472 1.762 2.272 2.591l.023.023.04-.04c.723-.748 1.41-1.53 2.066-2.337 1.075-1.343 2.066-2.725 2.762-4.242.273-.605.487-1.219.588-1.843.211-1.534-.364-3.155-1.478-4.279z" fill="#fff"/><circle cx="103.2" cy="132.8" r="1.9" fill="#D7C99C"/><path d="M93.98 130.161v.001l-.005-.004a5.524 5.524 0 00-3.48-1.636l-.05-.001h-.011a1.345 1.345 0 01-.225-.021h-.424c-.105.019-.2.021-.261.023h-.012a1.111 1.111 0 00-.13.009l-.02.004-.02.002a5.537 5.537 0 00-3.562 1.885h0l-.002.003c-.914 1.057-1.385 2.47-1.257 3.837.129 1.021.56 2.001 1.089 2.964.597 1.071 1.319 2.08 2.096 3.06v.001c.71.9 1.471 1.762 2.272 2.591l.023.023.04-.04c.723-.748 1.41-1.53 2.066-2.337 1.075-1.343 2.066-2.725 2.762-4.242.273-.605.487-1.219.588-1.843.211-1.534-.364-3.155-1.478-4.279z" fill="#fff"/><circle cx="91.2" cy="132.8" r="1.9" fill="#D7C99C"/><path d="M123.979 17.162h0l-.004-.004a5.523 5.523 0 00-3.48-1.636l-.051-.001h-.01a1.357 1.357 0 01-.225-.021h-.424c-.105.018-.201.021-.261.023h-.012a.91.91 0 00-.131.01l-.02.003-.02.002a5.535 5.535 0 00-3.561 1.885h0l-.002.003c-.914 1.057-1.385 2.47-1.257 3.837.129 1.021.56 2.002 1.089 2.964.597 1.071 1.318 2.08 2.096 3.06l.001.001a34.43 34.43 0 002.271 2.59l.023.024.04-.04c.723-.748 1.41-1.53 2.066-2.337 1.075-1.343 2.066-2.725 2.762-4.242.273-.605.487-1.219.588-1.843.211-1.534-.364-3.155-1.478-4.279z" fill="#fff"/><circle cx="121.2" cy="19.8" r="1.9" fill="#D7C99C"/><path d="M135.979 17.162h0l-.004-.004a5.523 5.523 0 00-3.48-1.636 1.436 1.436 0 00-.061-.001 1.357 1.357 0 01-.225-.021h-.424c-.105.018-.201.021-.261.023h-.012a.91.91 0 00-.131.01l-.02.003-.02.002a5.535 5.535 0 00-3.561 1.885h0l-.002.003c-.914 1.057-1.385 2.47-1.257 3.837.129 1.021.56 2.002 1.089 2.964.597 1.071 1.318 2.08 2.096 3.06l.001.001a34.43 34.43 0 002.271 2.59l.023.024.04-.04c.723-.748 1.41-1.53 2.066-2.337 1.075-1.343 2.066-2.725 2.762-4.242.273-.605.487-1.219.588-1.843.211-1.534-.364-3.155-1.478-4.279z" fill="#fff"/><circle cx="133.2" cy="19.8" r="1.9" fill="#D7C99C"/><path d="M170.979 13.162h0l-.004-.004a5.523 5.523 0 00-3.48-1.636 1.436 1.436 0 00-.061-.001 1.357 1.357 0 01-.225-.021h-.424c-.105.018-.201.021-.261.023h-.012a.91.91 0 00-.131.01l-.02.003-.02.002a5.535 5.535 0 00-3.561 1.885h0l-.002.002c-.914 1.058-1.385 2.471-1.257 3.838.129 1.021.56 2.002 1.089 2.964.597 1.071 1.318 2.08 2.096 3.06l.001.001a34.43 34.43 0 002.271 2.59l.023.024.04-.04c.723-.748 1.41-1.53 2.066-2.337 1.075-1.343 2.066-2.725 2.762-4.242.273-.605.487-1.219.588-1.843.211-1.534-.364-3.155-1.478-4.279z" fill="#fff"/><circle cx="168.2" cy="15.8" r="1.9" fill="#D7C99C"/><path d="M93.98 146.161v.001l-.005-.004a5.524 5.524 0 00-3.48-1.636l-.05-.001h-.011a1.345 1.345 0 01-.225-.021h-.424c-.105.019-.2.021-.261.023h-.012a1.111 1.111 0 00-.13.009l-.02.004-.02.002a5.537 5.537 0 00-3.562 1.885h0l-.002.003c-.914 1.057-1.385 2.47-1.257 3.837.129 1.021.56 2.001 1.089 2.964.597 1.071 1.319 2.08 2.096 3.06v.001c.71.9 1.471 1.762 2.272 2.591l.023.023.04-.04c.723-.748 1.41-1.53 2.066-2.337 1.075-1.343 2.066-2.725 2.762-4.242.273-.605.487-1.219.588-1.843.211-1.534-.364-3.155-1.478-4.279z" fill="#fff"/><circle cx="91.2" cy="148.8" r="1.9" fill="#D7C99C"/></g><defs><clipPath id="clip0"><path fill="#fff" d="M0 0h906v527H0z"/></clipPath></defs></svg>