<svg fill="none" viewBox="0 0 906 527">
    <defs/>
    <g stroke="#524A2D" clip-path="url(#clip0)">
        <path fill="#F22" d="M616.979 406.161v.001l-.004-.004a5.521 5.521 0 00-3.48-1.636l-.051-.001h-.01a1.357 1.357 0 01-.225-.021h-.424c-.105.019-.201.021-.261.023h-.012a1.13 1.13 0 00-.131.009l-.02.004-.02.002a5.535 5.535 0 00-3.561 1.885h0l-.002.003c-.914 1.057-1.385 2.47-1.257 3.837.129 1.021.56 2.001 1.089 2.964.597 1.071 1.318 2.08 2.096 3.06l.001.001a34.36 34.36 0 002.271 2.591l.023.023.04-.04c.723-.748 1.41-1.53 2.066-2.337 1.075-1.343 2.066-2.725 2.762-4.242.273-.605.487-1.219.588-1.843.211-1.534-.364-3.155-1.478-4.279z"/>
        <circle cx="614.2" cy="408.8" r="1.9" fill="#D7C99C"/>
        <path fill="#F22" d="M68.98 126.161v.001l-.005-.004a5.524 5.524 0 00-3.48-1.636l-.05-.001h-.011a1.345 1.345 0 01-.225-.021h-.424c-.105.019-.2.021-.261.023h-.012a1.111 1.111 0 00-.13.009l-.02.004-.02.002a5.537 5.537 0 00-3.562 1.885h0l-.002.003c-.914 1.057-1.385 2.47-1.257 3.837.129 1.021.56 2.001 1.089 2.964.597 1.071 1.319 2.08 2.096 3.06v.001c.71.9 1.471 1.762 2.272 2.591l.023.023.04-.04c.723-.748 1.41-1.53 2.066-2.337 1.075-1.343 2.066-2.725 2.762-4.242.273-.605.487-1.219.588-1.843.211-1.534-.364-3.155-1.478-4.279z"/>
        <circle cx="66.2" cy="128.8" r="1.9" fill="#D7C99C"/>
        <path fill="#F22" d="M80.98 130.161v.001l-.005-.004a5.524 5.524 0 00-3.48-1.636l-.05-.001h-.011a1.345 1.345 0 01-.225-.021h-.424c-.105.019-.2.021-.261.023h-.012a1.111 1.111 0 00-.13.009l-.02.004-.02.002a5.537 5.537 0 00-3.562 1.885h0l-.002.003c-.914 1.057-1.385 2.47-1.257 3.837.129 1.021.56 2.001 1.089 2.964.597 1.071 1.319 2.08 2.096 3.06v.001c.71.9 1.471 1.762 2.272 2.591l.023.023.04-.04c.723-.748 1.41-1.53 2.066-2.337 1.075-1.343 2.066-2.725 2.762-4.242.273-.605.487-1.219.588-1.843.211-1.534-.364-3.155-1.478-4.279z"/>
        <circle cx="78.2" cy="132.8" r="1.9" fill="#D7C99C"/>
        <path fill="#F22" d="M128.979 85.162h0l-.004-.004a5.523 5.523 0 00-3.48-1.636l-.051-.001h-.01a1.357 1.357 0 01-.225-.021h-.424c-.105.019-.201.021-.261.023h-.012a.91.91 0 00-.131.01l-.02.003-.02.002a5.535 5.535 0 00-3.561 1.885h0l-.002.002c-.914 1.058-1.385 2.472-1.257 3.838.129 1.021.56 2.001 1.089 2.964.597 1.071 1.318 2.08 2.096 3.06l.001.001a34.43 34.43 0 002.271 2.59l.023.024.04-.04c.723-.748 1.41-1.53 2.066-2.337 1.075-1.343 2.066-2.725 2.762-4.242.273-.605.487-1.219.588-1.843.211-1.534-.364-3.155-1.478-4.278z"/>
        <circle cx="126.2" cy="87.8" r="1.9" fill="#D7C99C"/>
    </g>
    <defs>
        <clipPath id="clip0">
            <path fill="#fff" d="M0 0h906v527H0z"/>
        </clipPath>
    </defs>
</svg>
