<svg xmlns="http://www.w3.org/2000/svg" width="85" height="97" fill="none" viewBox="0 0 85 97">
    <defs/>
    <mask id="a" width="85" height="84" x="0" y="13" maskUnits="userSpaceOnUse">
        <circle cx="42.694" cy="55.275" r="41.724" fill="#C4C4C4"/>
    </mask>
    <g mask="url(#a)">
        <circle cx="42.694" cy="55.275" r="41.724" fill="#2B271A"/>
        <path fill="#DBA581" fill-rule="evenodd" d="M-5.084 86.047s-2.045 4.468-2.348 7.119c-.303 2.65-.757 13.101-.984 14.843-.227 1.742-.985 5.604-1.136 7.043-.152 1.439.227 7.119 2.65 11.966 2.424 4.847 4.62 8.103 6.286 8.558 1.666.454 2.65.379 3.408-.53.757-.909 1.969-2.651 3.332-2.575 1.363.076 3.03-1.06 3.257-1.893.227-.833 2.575-1.439 2.499-2.348-.076-.909-1.894-5.529-2.197-5.983-.302-.454-1.06-.682-1.438-1.818-.38-1.136-.076-1.741-.152-2.574-.076-.833-.757-2.045-.909-3.105-.151-1.061-1.439-2.272-1.439-2.272s1.06-5.605 2.045-6.362c.985-.757 1.666-2.878 1.818-3.635.151-.757 1.211-3.71 1.363-4.392.151-.682-15.298-10.982-16.055-12.042z" clip-rule="evenodd"/>
        <path fill="#EBB794" fill-rule="evenodd" d="M-6.288 88.996c-.504 1.37-1.005 2.959-1.144 4.17-.303 2.65-.757 13.101-.984 14.843-.227 1.742-.985 5.604-1.136 7.043-.076.721-.019 2.507.362 4.719.367-.353.732-.824.939-.643.302.265 1.666 3.976 2.082 4.923.417.946 1.628 1.514 3.143 2.953 1.515 1.439 2.991 1.818 3.446 1.439.454-.379 1.212-2.613 1.06-3.37-.151-.757-.909-1.534-1.515-1.799-.605-.265-.473-.416-.927-1.249-.455-.833-.076-.985.303-1.515.378-.53.909-.681 1.287-1.742.379-1.06.682-1.742.227-3.256-.454-1.515-3.635-2.499-4.544-3.711-.908-1.212.758-3.257 1.288-4.695.53-1.439 4.317-11.285 3.824-11.777-.389-.39-5.565-4.594-7.71-6.333zm99.238-6.205s.757 6.513.757 8.558c0 2.044 1.136 8.861 1.515 9.959.378 1.098.946 1.931 1.287 2.461.341.53.417 1.666.455 2.385.037.72-.72 2.538-.72 2.878 0 .341 4.09 7.005 4.431 7.687.34.682.946 1.325.757 2.083-.189.757-1.041 2.991-1.439 3.256-.397.265-.965.284-1.079.436-.114.151-1.817 3.692-2.783 4.165-.966.473-2.461 1.117-2.65 1.174-.19.057-.474-.038-.474-.038s-.55.133-.663.701c-.113.568-.094 1.666-1.23 2.158s-2.84 1.041-3.22 1.06c-.378.019-3.729-.965-3.994-1.287-.265-.322-.398-.814-.398-.814s-4.657-4.715-4.922-4.828c-.265-.114-.985-1.136-.871-1.401.113-.266.492-2.765.492-3.219 0-.454-.113-1.628 0-2.007.114-.379.72-1.931.909-2.31.19-.378 1.59-3.067 1.098-5.187-.492-2.121-1.325-3.143-1.704-4.052-.379-.909-.568-2.121-.568-2.121s-2.12-3.446-2.65-4.582c-.53-1.136-.72-2.915-.72-2.915l.34-1.931L92.95 82.79z" clip-rule="evenodd"/>
        <path fill="#BD8A68" fill-rule="evenodd" d="M92.95 82.791s.245 2.106.456 4.299c-2.83 2.02-8.69 6.051-11.611 6.978-3.939 1.25-1.78 8.634-.493 12.875 1.11 3.654.588 5.678-1.322 6.749.277-.941.456-2.047.228-3.031-.492-2.121-1.325-3.143-1.704-4.052-.379-.909-.568-2.121-.568-2.121s-2.12-3.446-2.65-4.582c-.53-1.136-.72-2.915-.72-2.915l.34-1.931L92.95 82.79z" clip-rule="evenodd"/>
        <path fill="#DBA581" fill-rule="evenodd" d="M82.254 93.907c-1.106 1.416-1.784 2.935-1.33 4.308 1.363 4.127 3.067 5.831 2.688 9.92-.378 4.09-.738 4.904-1.533 5.131-.496.142-.83-.04-1.011-.464.975-1.19 1.09-3.038.234-5.859-1.287-4.241-3.446-11.625.492-12.874.147-.047.3-.101.46-.162z" clip-rule="evenodd"/>
        <path fill="#BD8A68" d="M94.64 111.402c-1.32.655-2.948 1.114-4.169 1.796-.793.443.784.031.956-.003.66-.13 3.374-.675 3.876-.616.194.023-.51.167-.529.171-.959.223-4.938 1.016-5.738.959.469-.427 3.252-1.248 3.875-1.773-.658.044-2.416.652-3.235.843-2.482.58 1.963-.688 2.293-.781.283-.08 3.327-.938 2.8-.664l-.128.068zm-5.04-4.743c.264-.162 2.765-1.462 2.836-1.356.094.14-3.285 1.753-2.836 1.356zm.589-1.533s2.602-1.215 1.97-.769c-.379.267-4.015 1.902-3.288 1.452.39-.242.902-.481 1.318-.683zm-2.662.61c.906-.617 2.487-1.423 3.49-1.919 1.296-.64.488-.085-.202.287-.557.301-3.822 2.063-3.288 1.632zm1.155-1.589c1.36-.797 2.775-1.264 4.139-1.962.123-.063.248.092-.372.343-.816.33-1.77.835-2.592 1.213-.01.004-2.21 1.045-1.175.406zm.126-1.064c1.276-.754 2.767-1.431 4.123-2.046.471-.214.153.113-.184.274-1.101.524-2.193 1.12-3.295 1.604-.004.002-1.13.486-.644.168zm.058-.826c.004-.002 5.973-3.04 3.756-1.707-.559.335-3.98 2.081-4.546 2.207.077-.116.626-.414.79-.5zm3.052-2.36c-.399.28-1.426.779-1.91 1.036-2.418 1.281-2.105.876.052-.228.133-.069 1.802-.982 1.927-.911l-.069.103zm1.97-1.947c-.042.148-1.877 1.111-2.024 1.194-1.083.61-2.39 1.39-3.501 1.908-.994.463 1.756-1.144 1.765-1.15.404-.226 3.589-2.055 3.76-1.952zm-1.332-.011c-.535.29-4.398 2.428-4.592 2.4.084-.225 2.753-1.602 3.184-1.834.216-.116 2.008-1.103 2.152-1.041l-.08.095c-.142.124-.481.282-.664.38zm-.662-.433c-.767.388-5.873 3.026-6.166 3.068-.21-.106.964-.62.99-.633.523-.268 5.84-3.008 5.95-2.934.14.094-.689.456-.774.499zm-.607-.518c-.298.282-4.922 2.673-5.122 2.644-.277-.04 1.504-.89 1.63-.958.344-.181 3.347-1.79 3.49-1.726l.002.04zm-.494-.445c-.842.443-5.8 3.081-5.096 2.472.25-.216 5.864-3.055 6.22-3.18.283-.098-.194.238-.235.262-.292.169-.595.292-.889.446zm-5.257 1.069c1.24-.831 3.089-1.61 4.48-2.318.015-.008 4.686-2.386 2.823-1.24-.698.428-1.756.912-2.512 1.295-.895.453-5.648 2.88-4.888 2.332l.097-.07zm-.114-.936c.424-.404 6.55-3.425 7.335-3.67.091.092-1.775.983-2.008 1.107-.862.458-4.6 2.495-5.327 2.563zm1.822-1.685c.986-.515 5.83-3.047 5.147-2.543-.626.462-2.126 1.215-2.848 1.599-.536.284-3.652 1.94-4.081 2.012-.279 0 1.516-.93 1.782-1.068zm4.374-3.106c-.328.361-5.68 3.339-6.03 3.384.399-.387 5.906-3.442 6.03-3.385zm.384-1.164c-.63.596-4.32 2.563-5.4 3.185-.009.004-2.35 1.347-1.75.824.451-.395 2.607-1.53 3.331-1.946 1.118-.644 2.437-1.442 3.585-1.99.055-.026.182-.095.244-.094l-.01.02zm-.266-.62c-.672.447-2.031 1.071-2.789 1.45-.01.004-3.158 1.611-2.512 1.14.458-.335 5.167-2.763 5.356-2.655l-.055.064zm.278 29.62c-.007.103-2.285.964-2.564 1.01-.408.033.24-.223.298-.245.456-.171 1.883-.826 2.266-.765zm2.925-1.833c-.016.135-.878.422-1.004.474 0 0-4.886 2.11-3.54 1.291.355-.216 1.64-.684 2.113-.88.219-.091 2.292-.974 2.4-.916l.031.031zm.396-.834c-.496.216-4.334 1.916-4.506 1.812.053-.185 4.743-2.093 5.284-2.295.26-.098.18.096-.186.256-.198.086-.4.144-.592.227zm-.572-.502c-.745.297-5.248 2.116-4.604 1.653.327-.235 5.617-2.208 5.662-2.192 0-.002.129.058-.23.228-.27.127-.554.203-.828.311zm1.122-1.194c-1.7.52-3.352 1.202-5.07 1.635-.102-.236.643-.325.8-.373.517-.158 4.733-1.625 4.867-1.563.146.068-.594.3-.597.301zm-5.08 1.128c-.098-.235.546-.308.695-.356.508-.172 5.305-1.935 4.442-1.396-.253.158-1.86.666-2.243.802-.966.346-1.903.677-2.893.95zm-.561-1.068c.701-.277 5.593-1.685 6.056-1.636-.401.286-6.977 2.07-6.056 1.636zm4.457-1.996c-.628.179-5.88 1.684-4.872 1.231.697-.313 5.492-1.679 6.154-1.67-.167.137-1.01.361-1.282.439z"/>
        <path fill="#939C66" fill-rule="evenodd" d="M-5.665 83.522s-1.022 1.855-1.117 2.177c-.094.322.303.644.228.871-.076.227-.436.379-.19.568.246.19 11.493 7.573 14.105 9.921 2.613 2.348 3.333 1.894 3.673 2.159.341.265.833.454 1.098.302.266-.151.372-3.22 1.44-3.445 1.066-.226 2.196-1.25 2.574-1.818.379-.568-4.279-31.808-4.885-33.246-.605-1.44-2.053-3.692-2.053-3.692s-.313 1.154-1.014 1.173c-.7.02-1.268 1.364-1.514 1.742-.246.379-4.601 6.93-4.79 9.05-.19 2.12-1.63 2.007-1.63 2.689 0 .681-.643 2.461-.946 2.726-.303.265.151.72 0 1.477-.152.757-.606.644-.758.909-.151.265-.625.568-.814 1.325-.19.757-.132.928-.17 1.269-.038.34.057.454-.379.416-.435-.038-.549-.416-.87-.265-.323.151-.417.606-.53.72-.114.113-.531.549-.531.549s-.27.369-.28.937c-.009.568.18 1.032-.023 1.216-.204.185-.502-.033-.563.119l-.062.151z" clip-rule="evenodd"/>
        <path fill="#6A704B" fill-rule="evenodd" d="M12.951 96.654c.161-.305.363-.525.62-.58.494-.104 1-.379 1.44-.7l-.233-.802-1.392-5.701s-.123 2.766-.691 3.05c-.568.284-1.004-.36-1.004-.36l1.26 5.093z" clip-rule="evenodd"/>
        <path fill="#6A704B" fill-rule="evenodd" d="M12.484 98.124c.176-.825.44-1.753.944-2-.058-.875-.28-1.973-.817-3.293 0 0-.02-.073-.092-.223a10.06 10.06 0 00-.252-.578s.002-2.797-6.132-10.219c0 0 3.234 5.176 4.42 8.253-1.697-1.77-4.772-4.442-10.327-8.176 0 0 7.341 6.153 9.783 9.635-1.972-.35-6.064-1.923-15.135-8.217a.46.46 0 01-.225.021c1.628 1.589 6.14 5.862 9.137 7.422 3.01 1.566 7.215 5.822 8.696 7.375zM-6.547 86.538a.186.186 0 01-.007.032c-.076.227-.436.379-.19.568.246.19 11.493 7.573 14.105 9.921 2.613 2.348 3.333 1.894 3.673 2.159l.056.041C9.98 97.733-4.048 88.225-6.547 86.538z" clip-rule="evenodd"/>
        <path fill="#828B56" fill-rule="evenodd" d="M57.45 107.454s4.695-.455 7.876-4.09c3.18-3.635 4.544-8.482 4.922-9.77.379-1.287 6.93-35.025 4.506-38.812-2.423-3.786-7.421-4.09-8.14-4.203-.72-.114-4.204-1.515-5.075-2.31-.87-.795-4.733-2.12-6.096-2.575-1.363-.454-15.639-3.105-21.356-2.234-5.718.871-15.98 7.952-18.176 9.126-2.197 1.174-6.362 4.392-6.703 4.733-.34.34-.057.644-.322.814-.265.17 3.938 27.662 4.998 33.72 1.06 6.059 1.515 7.346 2.461 9.012.947 1.666 1.846 2.907 2.168 2.992.322.085.681.217 1.107.643.427.427 1.099.739 1.326.852.227.114.672.625.994.871.322.247 6.134 2.878 10.223 3.711 4.09.833 19.54.53 21.13.076 1.59-.454 4.157-2.556 4.157-2.556z" clip-rule="evenodd"/>
        <path fill="#939C66" fill-rule="evenodd" d="M28.27 45.491c-5.177 2.452-10.8 6.262-12.36 7.095-2.196 1.174-6.36 4.392-6.702 4.733-.34.341-.057.644-.322.814-.265.17 3.938 27.662 4.998 33.72 1.06 6.059 1.515 7.346 2.461 9.012.947 1.667 1.846 2.907 2.168 2.992.322.085.681.218 1.107.644.427.426 1.099.738 1.326.852.227.113.672.624.994.87.322.247 6.134 2.878 10.223 3.711.622.127 1.506.227 2.563.305-1.34-3.14-5.067 1.4-11.238-11.691-6.17-13.091-.185-40.768 4.782-53.057z" clip-rule="evenodd"/>
        <path fill="#6A704B" fill-rule="evenodd" d="M22.826 93.808s-.532 1.21 2.298 2.028c2.83.819 8.985 2.058 8.985 2.058s-2.581 3.06-9.284.14c-6.702-2.92-2-4.226-2-4.226zm30.253-48.637l-.327-.062c-.545 2.765-2.664 13.275-3.845 15.8-1.363 2.917-7.722 13.784-7.722 13.784 8.51-7.396 13.382-18.865 11.894-29.522zM37.057 109.22s-.795-.786-.795-1.943c0-1.156-.436-2.383-1.08-3.169-.643-.787-.927-1.62-.738-2.406.19-.787.947-1.434.909-2.29-.038-.856-.246-2.06-.209-2.568.038-.509.569-2.036.436-2.221-.132-.185-.53-.023-.435-1.411.094-1.388.303-.88.303-2.36s-.436-6.94-.436-7.634c0-.648-.428-5.277-.178-7.288.017-.145.107-1.493.133-1.608.025-.116.263.396.178.85-.085.455-.228 1.695-.275 2.367-.047.672.123 2.689.18 3.228.057.54.228 3.588.265 4.308.038.719.38 5.254.38 5.86 0 .605-.247 1.438-.266 1.836-.019.398-.056.871.095 1.174.152.303.511.379.303 1.193a8.497 8.497 0 00-.227 2.385c.038.606.057.796.076 1.42.019.625-.038 1.174-.398 1.723-.36.549-.398 2.196.246 3.37a8.37 8.37 0 01.966 2.897c.094.682-.22.555.567 2.287z" clip-rule="evenodd"/>
        <path fill="#6A704B" d="M35.866 83.783c-.178-1.346-.103-3.431-.093-4.858.016-2.314.071-4.433 1.008-6.584.856-1.965 2.684-5.203 4.443-6.437.57-.4-.956 1.161-.96 1.166a17.575 17.575 0 00-3.67 6.21c-1.097 3.262-.446 6.874-.614 10.278-.007.136-.022.737-.114.225zm1.69 24.992c-.116-2.099-.397-2.805-.972-4.792-1.009-3.489-.082-3.737.259-6.966.115-1.09.227-1.84-.342-2.835-.722-1.265-.123-1.656-.011-3.058.151-1.902-.478-3.812-.374-5.533.062-1.013.385 2.484.386 2.495.133 1.543.194 2.956-.11 4.486-.317 1.599.39 1.191.633 2.567.134.752-.036 1.662-.128 2.42-.121 1.067-.31 1.729-.526 2.747-.577 2.725 1.504 5.724 1.353 8.842-.035.729-.133.355-.155-.092l-.013-.281z"/>
        <path fill="#828B56" fill-rule="evenodd" d="M28.309 45.473c-5.188 2.451-10.835 6.278-12.398 7.113-1.232.658-3.082 1.959-4.53 3.035l-.014.01-.007.005-.02.016-.021.015-.021.016-.02.015-.021.015-.01.008-.01.008-.02.015-.021.015-.02.015-.02.015-.02.015-.007.005-.014.01-.02.015-.02.015-.02.015-.02.015-.02.015-.002.002-.017.013-.02.014-.019.015-.02.015-.037.028h-.001l-.02.015-.019.015-.019.014-.019.015-.019.014-.014.011-.005.003-.018.015-.02.014-.018.014-.018.014-.019.014-.01.008-.008.006-.019.014-.018.014-.018.014-.018.014-.018.013-.007.006-.011.008-.018.014-.018.013-.017.014-.018.013-.018.014-.003.003-.014.01-.017.013-.018.014-.017.013-.017.013-.017.013-.017.013-.016.013-.017.013-.017.013-.016.012-.014.011-.003.002-.016.012-.016.013-.016.013-.016.012-.016.012c-.528.41-.893.707-.984.797-.34.34-.057.644-.322.814-.017.011-.015.137.002.36.518-.473.075-.43.454-.962.112-.157.371-.327.787-.571-1.206 9.165 2.151 29.33 2.85 29.372-.832-.608-3.297-20.553-1.722-30.026 1.089-.642 2.645-1.617 4.715-3.217 4.165-3.219 6.642-3.098 8.936-3.673 2.295-.575 7.081.076 6.665-1.136-.153-.444-1.553-1.566-3.264-2.807z" clip-rule="evenodd"/>
        <path fill="#6A704B" fill-rule="evenodd" d="M13.366 88.742c.21 1.3.388 2.367.518 3.11 1.06 6.06 1.515 7.347 2.461 9.013.947 1.666 1.846 2.906 2.168 2.992.322.085.682.217 1.108.643.426.426 1.098.739 1.325.852.04.021.089.054.141.096.75-2.925-1.113-.954-3.798-5.673-1.29-2.266-2.72-6.723-3.924-11.033zm52.258 14.272c2.968-3.59 4.258-8.173 4.625-9.42.168-.571 1.552-7.54 2.828-15.443l-9.062-5.411s-.227.151-.075 9.996c.135 8.802 6.502 7.014 1.684 20.278z" clip-rule="evenodd"/>
        <path fill="#EBB794" fill-rule="evenodd" d="M52.345 45.774c-4.855-1.277-13.967-3.17-18.258-2.24-3.042.66-7.37 3.823-11.085 6.89.74 2.466 3.24 10.078 6.89 13.665 4.393 4.314 5.075 11.217 5.075 11.217s.682-7.119 8.179-12.296c5.782-3.992 8.5-13.051 9.2-17.236z" clip-rule="evenodd"/>
        <path fill="#DBA581" fill-rule="evenodd" d="M52.345 45.774c-2.756-.724-6.882-1.648-10.72-2.14-6.344 2.258-12.026 4.364-13.01 4.998-2.388 1.54-2.058 10.286 1.38 13.605 2.963 2.86 6.011 4.052 11.828 1.76.416-.334.856-.664 1.323-.987 5.782-3.992 8.5-13.051 9.199-17.236z" clip-rule="evenodd"/>
        <path fill="#828B56" fill-rule="evenodd" d="M72.491 53.324s3.219 2.045 4.014 2.84c.795.795 3.9 4.203 4.355 5.112.454.909 1.136 4.658 1.666 5.34.53.68 1.325.454 2.575 2.271 1.25 1.818 1.666 2.84 2.385 3.446.72.606 1.59-.114 2.045.492.454.606 1.515 1.742 1.931 2.007.417.265.341 2.12.568 2.65.227.53.19 1.402.72 1.553.53.152.87 0 1.174.682.303.681.492 2.575.757 3.56.265.984-1.666 2.082-3.332 2.84-1.666.757-5.15 4.43-8.33 6.285-3.181 1.856-7.385 3.9-7.839 3.9-.454 0-1.856-.643-2.234-1.022-.379-.378-.606-.87-.53-1.59.076-.72-.417-1.06-.606-1.742-.19-.681-.53-.984-.379-1.477.152-.492-2.347-2.878-3.332-4.279-.984-1.4-3.294-4.581-3.446-5.755-.151-1.174-2.726-7.006-.606-16.776 2.12-9.769 8.444-10.337 8.444-10.337z" clip-rule="evenodd"/>
        <path fill="#99A368" fill-rule="evenodd" d="M48.75 46.941a21.092 21.092 0 01-.21 2.402 21.48 21.48 0 01-1.147 4.713c-1.106 3.18-3.1 6.878-6.688 10.238-.374 1.573.046 4.817.89 6.478.844 1.662-.41 3.921-.41 3.921s7.173-9.106 9.8-16.603c2.628-7.497 1.099-10.38 1.099-10.38l-3.335-.769z" clip-rule="evenodd"/>
        <path fill="#6A704B" fill-rule="evenodd" d="M74.421 54.596c.842.574 1.718 1.203 2.084 1.568.795.795 3.9 4.203 4.355 5.112.454.909 1.135 4.657 1.665 5.34.53.68 1.326.453 2.575 2.271 1.25 1.818 1.667 2.84 2.386 3.446.72.606 1.59-.114 2.045.492.454.606 1.514 1.742 1.931 2.007.416.265.34 2.12.568 2.65.227.53.19 1.402.72 1.553.53.152.87 0 1.173.682.303.681.493 2.575.758 3.56.265.984-1.666 2.082-3.332 2.84-1.667.757-5.15 4.43-8.331 6.285-3.18 1.856-7.384 3.9-7.838 3.9-.455 0-1.856-.643-2.234-1.022-.38-.378-.606-.87-.53-1.59.075-.72-.417-1.06-.606-1.742-.19-.682-.53-.984-.38-1.477.09-.287-.727-1.221-1.618-2.228.361-3.323.897-6.993 1.553-10.26.177-.879.556-3.041 1.18-3.688.528-.548 2.004-1.241 2.753-1.73 2.385-1.554 4.068-3.293 5.207-5.93.541-1.554.46-2.986-.11-4.516-.53-1.364-3.787-4.241-5.261-6.142a4.141 4.141 0 01-.713-1.38zM21.41 92.29s.267 11.297-.156 12.151c-.423.855-.117 1.048-.117 1.048s.577.706.803.735c.226.028 8.813 3.105 8.813 3.105s9.34 1.532 11.473 1.628c2.134.096 10.916-1.045 12.08-1.552 1.163-.508 8.179-3.371 9.466-4.544 1.288-1.174.833-1.023.833-1.023s-4.24 2.613-7.687 2.992c-8.368.919-16.175 1.455-23.38-3.39-4.88-3.282-11.66-8.7-12.129-11.15zm8.303-28.356s1.172 5.431-.327 7.342c-1.498 1.91-.44 3.838-.44 3.838s-5.708-7.991-6.838-15.33-.093-10.412-.093-10.412l3.829-.771s-3.365 8.44 3.87 15.333z" clip-rule="evenodd"/>
        <path fill="#ABB57B" fill-rule="evenodd" d="M25.68 49.297a16.79 16.79 0 00-.27 2.01 15.179 15.179 0 00.147 3.947c.402 2.661 1.518 5.758 4.155 8.572.04 1.316-.965 4.032-2.056 5.423-1.09 1.391-.376 3.282-.376 3.282s-4.817-7.623-5.783-13.9c-.966-6.276.985-8.69.985-8.69l3.198-.644z" clip-rule="evenodd"/>
        <path fill="#6A704B" fill-rule="evenodd" d="M16.853 86.822l9.166-1.171c-.213-3.512-.377-7.179-.648-10.669-.113-1.454-.063 2.03-.063 2.04 0 2.534.036 5.463.03 7.995l-7.854 1.058c-.816-2.833-1.671-6.253-2.535-9.04-.433-1.396.33 2.018.333 2.03.528 2.584 1.048 5.171 1.571 7.757zm-2.226-11.09c3.345-.413 6.817-.778 10.139-1.256-3.227.204-6.58.55-9.817.822-.604-2.76-.57-3.082-.355-.035l.033.469zM25.27 71.83c0 .001.214 3.155.001 1.971-.107-.594-.185-1.166-.307-1.764-1.702-.033-4.041.286-5.811.432-.325.028-4.587.437-3.644.248.89-.18 2.255-.27 3.223-.395 2.01-.26 4.009-.526 6.028-.707.095-.008.19-.017.286-.016l.163.057.061.174zm-3 12.249c.02 1.686-.263-1.576-.274-1.68-.234-2.093-.547-4.334-.722-6.412-.05-.6-.15-.724.429-.79.39-.044.339.115.377.605.1 1.287.082 2.936.114 4.263.033 1.338.06 2.675.077 4.014zm-2.732.31c.02 1.685-.263-1.577-.275-1.68-.237-2.123-.519-4.292-.723-6.41-.062-.646-.192-.784.583-.814.24-.009.169-.005.211.4.108 1.04.083 2.675.11 3.779.04 1.575.075 3.149.094 4.724zm38.908 1.567l-9.206-.799c.07-3.517.085-7.187.214-10.686.054-1.458.146 2.026.146 2.037.104 2.53.186 5.458.294 7.99l7.891.736c.7-2.863 1.416-6.314 2.167-9.135.375-1.412-.25 2.03-.251 2.042-.423 2.604-.837 5.21-1.255 7.815zm1.774-11.172c-3.359-.276-6.843-.5-10.181-.843 3.232.073 6.597.282 9.841.423.492-2.782.446-3.103.354-.05l-.014.47zm-10.793-3.466c0 .001-.086 3.161.08 1.97.082-.599.137-1.174.235-1.776 1.699-.102 4.05.121 5.824.196.325.015 4.6.25 3.651.1-.897-.143-2.265-.179-3.237-.264-2.018-.179-4.027-.363-6.052-.462-.095-.004-.19-.01-.286-.004l-.16.063-.055.177zm3.494 12.117c.05 1.685.2-1.585.207-1.69.148-2.1.37-4.352.46-6.436.026-.601.12-.73-.46-.771-.39-.029-.334.128-.352.619-.047 1.29.037 2.937.059 4.264.022 1.338.048 2.676.086 4.014zm2.743.198c.049 1.685.2-1.585.207-1.69.15-2.13.344-4.309.462-6.434.036-.647.16-.79-.615-.788-.24 0-.17 0-.195.408-.066 1.044.026 2.676.043 3.78.025 1.575.054 3.149.098 4.724zm-.673 4.104s-3.344 13.666-1.064 17.161c2.28 3.495 5.528 1.894 5.528 1.894l-10.14 2.431s.409-16.972 5.676-21.486z" clip-rule="evenodd"/>
        <path fill="#000" fill-rule="evenodd" d="M23.739 99.283s.246-1.477-.095-2.65c-.34-1.174-2.575-9.903-3.03-11.872-.454-1.969-2.574-23.515-1.892-28.21.303-1.886.74-3.704 1.086-5.57a3.76 3.76 0 00.082-.78c-.021-.67-.154-.044-1.27.513-.62.308-.825.447-.963.882-.14.441-.156.933-.243 1.577-.069.51-.143 1.022-.212 1.533l-.01.077c-.269 2.051-.381 4.054-.269 6.122.303 4.998.265 15.487.53 17.153.265 1.666 1.667 11.17 2.31 14.01.644 2.84 1.42 7.498 1.78 7.687.36.19 2.196-.472 2.196-.472zm25.196 1.516s-.094-1.69.367-2.988c.462-1.3 3.595-10.984 4.253-13.172.657-2.189 4.994-26.37 4.795-31.733-.077-1.82-.236-3.552-.376-5.36-.11-1.413.264-1.15 1.485-.513.901.47.518-.015.54.932.01.398.08 1.882.094 2.28a43.814 43.814 0 01-.39 7.729c-.818 5.625-1.859 17.483-2.295 19.345-.437 1.861-2.816 12.49-3.752 15.648-.937 3.158-2.192 8.359-2.572 8.544-.38.185-2.149-.712-2.149-.712z" clip-rule="evenodd"/>
        <path fill="#CCC" fill-rule="evenodd" d="M16.905 75.671s.133-.719.833-.795c.701-.076 1.742-.454 2.216.284.473.739.284 3.351.284 3.351s-.644.436-1.515.436c-.87 0-1.553.473-1.818-.833-.265-1.307 0-2.443 0-2.443zm.388.093s.101-.552.635-.61c.533-.058 1.326-.349 1.686.218.36.566.216 2.57.216 2.57s-.49.335-1.153.335-1.182.363-1.384-.64c-.201-1.002 0-1.873 0-1.873z" clip-rule="evenodd"/>
        <path fill="#CCC" fill-rule="evenodd" d="M18.344 76.22s.047.767.066 1.127c.02.36.2.416.285.227.085-.19-.01-.71-.01-.9 0-.189.076-.68-.34-.454zm36.75-1.758s.344-.645 1.034-.506c.691.14 1.798.094 2.026.94.228.848-.743 3.281-.743 3.281s-.745.22-1.575-.043-1.623-.018-1.48-1.344a6.362 6.362 0 01.738-2.328zm.342.206s.263-.496.789-.39c.526.106 1.37.069 1.542.718.172.649-.572 2.516-.572 2.516s-.568.17-1.2-.03c-.632-.201-1.237-.012-1.126-1.028.11-1.017.567-1.786.567-1.786z" clip-rule="evenodd"/>
        <path fill="#CCC" fill-rule="evenodd" d="M56.3 75.42s-.188.746-.278 1.094c-.09.35.063.458.202.303.138-.155.205-.68.263-.86.057-.18.278-.627-.188-.536z" clip-rule="evenodd"/>
        <path fill="#828B56" fill-rule="evenodd" d="M82.546 68.266c.663-.35 1.878.47 2.276 1.029.602.844.734 1.726.278 2.66-.743 1.51-1.39 2.696-2.816 3.653-2.27 1.507-2.28 1.177-3.842 3.588-1 1.543-1.573 1.39-3.313 1.555-.395.037-1.856.216-2.148.059-.028-.337 1.905-2.03 2.297-2.46 1.175-1.29 1.309-1.966 1.815-3.567.59-1.868 1.668-1.951 2.819-3.385.634-.79 1.903-2.601 2.634-3.132zm4.807 7.084c.277-.255.556-.523.924-.623.56.495-.198 1.712-.58 2.128-.979 1.068-1.456.885-1.956 2.515-.458 1.495-.346 1.527-1.356 2.772l-.247.305c-1.689 2.088-2.222 2.611-3.189 5.203-.144.398.29-.117.454-.258 1.561-1.341 1.082-.178 2.035-.63 1.658-.785 3.722-3.132 5.26-4.375.913-.727 2.71-1.089 3.855-.969 1.64.172.072 1.465-.475 2.018-2.58 2.592-3.693 2.892-6.809 4.574a62.923 62.923 0 00-5.836 3.558c-.362.246-3.23 2.08-3.456 1.847-.205-.212 1.36-2.777 1.581-3.177.398-.715 2.632-4.55 2.538-5.05-.145-.768-2.146 1.38-2.442 1.58-.67.452-1.81.146-2.778.427-1.11.323-1.477.651-.188-.441 4.287-3.636 8.513-7.6 12.665-11.404z" clip-rule="evenodd"/>
        <path fill="#000" fill-rule="evenodd" d="M37.379 70.41c.855-.535.946 1.015.156.786-.362-.105-.404-.49-.156-.786zm.844 37.477c-.265 1.039-1.639.181-.964-.492.358-.357 1.006-.129.964.492zm-2.131-5.178c.974-.471.934 1.208.092.879-.396-.155-.413-.575-.092-.879zm.538-5.574c.962-.462.918 1.185.092.867-.391-.15-.411-.566-.092-.867zm-.414-4.606c-.76-.548.635-1.308.662-.414.012.405-.289.553-.662.414zm-.096-5.374c.883-.527 1.103.926.306.912-.434-.008-.68-.481-.306-.912zm-.538-5.753c.607-.815 1.435.608.529.744-.454.069-.719-.269-.529-.744zm.802-5.678c.531.87-1.049.957-.8.15.112-.368.502-.408.8-.15z" clip-rule="evenodd"/>
        <path fill="gray" fill-rule="evenodd" d="M63.605 110.581c2.394 7.516 7.899 18.094 7.899 18.094s1.34.957 2.01.933c.67-.024 1.436.886 1.436.886s2.752 3.015 3.326 4.212c.575 1.197-.454 1.652-.454 1.652s.287 3.195.61 3.278c.323.084 1.998.335 1.998.335s-.382 1.137.144 1.664c.527.526.91 1.005.934 1.388.023.383-.48.742-.48.742s-1.962 2.274-2.584 2.465c-.622.192-1.197.359-1.364.598-.168.24-1.556-.287-2.178-.335-.623-.047-5.625-.861-5.84-1.077-.215-.215-.024-3.111-.024-3.111s-1.34-10.962-2.298-13.69c-.957-2.729-5.888-11.392-6.797-22.593-.095-1.171-.916-9.581-.608-10.522.218-.665 1.37-.455 1.44.409.4 4.9 1.358 9.99 2.83 14.672z" clip-rule="evenodd"/>
        <path fill="#999" fill-rule="evenodd" d="M63.606 110.581c2.393 7.516 7.898 18.094 7.898 18.094s1.34.957 2.01.933c.67-.024 1.436.886 1.436.886s2.752 3.015 3.327 4.212c.574 1.197-.455 1.651-.455 1.651s-2.634 1.723-2.778 1.843c-.143.119-1.795-4.308-2.465-5.17-.67-.862-1.244-.766-1.819-1.149-.574-.383-6.222-10.339-7.706-16.035s-3.111-16.945-3.23-18.214c-.081-.854.022-1.919.099-2.524.384.003.81.285.853.8.399 4.901 1.357 9.991 2.83 14.673z" clip-rule="evenodd"/>
        <path fill="#B3B3B3" fill-rule="evenodd" d="M74.142 129.802c.445.261.808.692.808.692s.248.272.611.685l-2.433 1.623-.472.336a1.557 1.557 0 00-.077-.108c-.67-.862-1.244-.766-1.819-1.149-.574-.383-6.222-10.339-7.706-16.035s-3.111-16.945-3.23-18.214c-.081-.854.022-1.919.099-2.524a.84.84 0 01.189.023c-.088.893-.152 2.177.009 3.41.287 2.202 2.728 15.987 3.183 17.184.454 1.197 1.555 4.332 2.034 5.074.479.742 5.086 10.112 5.66 10.351.574.24.567.642 1.364.072.479-.342 1.184-.971 1.78-1.42z" clip-rule="evenodd"/>
        <path fill="#E6E6E6" fill-rule="evenodd" d="M59.286 95.827c.01-.145.027-.257.05-.327.202-.617 1.208-.481 1.409.231-.692.5-1.164.354-1.46.096z" clip-rule="evenodd"/>
        <circle cx="42.694" cy="55.275" r="39.724" stroke="#524A2D" stroke-width="4"/>
    </g>
    <path fill="#F2C8AC" fill-rule="evenodd" d="M26.263 35.86s.77-4.44-2.217-5.157c-2.987-.716-3.835 1.53-3.228 2.932.607 1.402 2.324 3.413 5.445 2.226z" clip-rule="evenodd"/>
    <path fill="#FFE0CC" fill-rule="evenodd" d="M22.943 30.565c-2.088.018-2.65 1.859-2.125 3.07.132.306.318.64.559.965-.215-.868-.237-1.888.131-2.79.256-.628.886-1.016 1.435-1.245z" clip-rule="evenodd"/>
    <path fill="#D49779" fill-rule="evenodd" d="M23.394 32.454c-1.334-1.216-.845 1.053-.848 1.062-.436.11-1.12-1.769.464-1.717 1.292.042 2.1 1.546 2.172 2.69.046.712-.515-.314-.664-.535-.365-.538-.676-1.023-1.124-1.5z" clip-rule="evenodd"/>
    <path fill="#F2C8AC" fill-rule="evenodd" d="M46.526 16.577s.102 5.341 1.156 9.467c1.054 4.125 2.532 7.3 3.747 9.099 1.215 1.798 6.924 5.4.888 14.067-6.035 8.668-13.336 11.518-13.336 11.518l-4.442-.004S20.266 54.155 20.165 49.08c-.102-5.077 4.027-10.256 4.667-17.236.64-6.98-1.364-13.645-1.364-13.645s10.903-11.943 23.058-1.621z" clip-rule="evenodd"/>
    <path fill="#EBB794" fill-rule="evenodd" d="M46.526 16.577s.101 5.341 1.156 9.467c1.054 4.126 2.532 7.3 3.747 9.099 1.215 1.799 6.923 5.4.888 14.067C46.28 57.878 38.98 60.728 38.98 60.728l-1.794-.002c-2.171-8.038-4.302-20.918-4.006-23.442.402-3.435-.067-11.89-.819-18.252-.227-1.918.065-4.135.582-6.296 3.885-.873 8.63-.365 13.582 3.841z" clip-rule="evenodd"/>
    <path fill="#E3B99D" fill-rule="evenodd" d="M23.918 36.435c.429-1.448.765-2.971.914-4.592.64-6.98-1.364-13.645-1.364-13.645s.198-.216.567-.564c.52 1.593 1.093 3.63 1.176 5.088.157 2.75.573 11.528-.116 13.326-.328.855-.786.741-1.177.387z" clip-rule="evenodd"/>
    <path fill="#DBA581" fill-rule="evenodd" d="M46.526 16.577s.102 5.341 1.156 9.467a39.47 39.47 0 001.21 3.9l-1.954 3.16s-3.47-11.191-2.709-18.231a21.05 21.05 0 012.297 1.704z" clip-rule="evenodd"/>
    <path fill="#CC6C0C" fill-rule="evenodd" d="M47.799 26.49c1.045 3.909 2.46 6.92 3.63 8.652 1.215 1.8 6.923 5.4.888 14.068C46.28 57.878 38.98 60.728 38.98 60.728l-4.442-.004s-14.273-6.569-14.375-11.646c-.098-4.924 3.784-9.945 4.6-16.612.2 1.147.35 2.445.33 3.687-.056 3.384-1.169 5.869 6.817 5.188 7.986-.681 14.228-3.162 14.228-3.162s-.083-8.63 1.66-11.688z" clip-rule="evenodd"/>
    <path fill="#DB7A18" fill-rule="evenodd" d="M35.413 60.725h-.874s-3.773-1.738-7.454-4.115c-.89-2.418-1.602-5.519-1.221-8.767.427-3.646 2.75-5.49 4.925-6.424.353-.019.726-.044 1.122-.078a51.664 51.664 0 003.166-.37c-.249 2.125.71 2.862-.693 5.743-1.477 3.035.019 10.335 1.03 14.01z" clip-rule="evenodd"/>
    <path fill="#F08F2D" fill-rule="evenodd" d="M21.884 52.446c-1.032-1.138-1.698-2.287-1.72-3.368-.098-4.924 3.783-9.945 4.6-16.612.197 1.135.347 2.42.33 3.65-.06.347-.14.686-.247 1.01-1.253 3.785-3.453 7.633-3.379 11.28.033 1.645.22 3.023.416 4.04z" clip-rule="evenodd"/>
    <path fill="#9E5002" fill-rule="evenodd" d="M47.799 26.491c1.045 3.908 2.46 6.918 3.63 8.652 1.215 1.799 6.923 5.4.888 14.067-6.036 8.668-13.336 11.518-13.336 11.518l-4.442-.004s-.48-.221-1.264-.612c1.415-.69 3.538-1.334 5.332-1.781 2.727-.68 7.349-3.705 9.4-10.747 2.05-7.04 1.03-10.488-.218-12.23-.402-.561-.862-1.98-1.302-3.648.239-2.024.64-4.034 1.312-5.215z" clip-rule="evenodd"/>
    <path fill="#B55C04" fill-rule="evenodd" d="M48.348 46.335c1.583-6.206.612-9.345-.56-10.982-.401-.56-.861-1.98-1.301-3.647a32.15 32.15 0 01.222-1.568c.474.981.915 1.974 1.202 2.803.944 2.727 3.445 4.274 1.886 10.657-.55 2.253-1.043 2.875-1.45 2.737z" clip-rule="evenodd"/>
    <path fill="#F08F2D" fill-rule="evenodd" d="M41.76 59.279c-1.687 1.023-2.779 1.449-2.779 1.449l-4.442-.004s-.39-.18-1.039-.5c-1.735-4.67-.39-7.824-.39-7.824s7.159-3.061 6.247.346c-.49 1.833.959 4.48 2.403 6.532z" clip-rule="evenodd"/>
    <path fill="#B55C04" fill-rule="evenodd" d="M41.76 59.279c-.216.13-.422.252-.617.363-.834-.978-1.767-2.507-2.411-4.064-.529-1.277-.304-3.002.018-4.328.553.189.837.636.607 1.496-.49 1.833.96 4.479 2.403 6.532z" clip-rule="evenodd"/>
    <path fill="#FAA855" fill-rule="evenodd" d="M36.262 60.725l-1.723-.001s-.39-.18-1.039-.5c-1.735-4.67-.39-7.824-.39-7.824s.653-.28 1.54-.576c-.28.986-.443 2.217-.197 3.56.407 2.226 1.489 4.158 1.81 5.341z" clip-rule="evenodd"/>
    <path fill="#DB7A18" fill-rule="evenodd" d="M36.141 38.629s-1.426 2.169-.74 3.523c.684 1.353 1.039 1.968 2.932 1.894 1.894-.075 4.81-.602 6.777 1.255 1.413 1.333.48 7.853-.972 12.379 2.455-1.815 5.447-4.546 8.179-8.47.157-.226.307-.449.449-.668-.468-2.48-1.434-5.161-3.109-6.646-3.324-2.945-3.024-5.91-13.516-3.267z" clip-rule="evenodd"/>
    <path fill="#B55C04" fill-rule="evenodd" d="M35.237 40.94c-.052.424-.021.847.163 1.211.685 1.354 1.04 1.968 2.933 1.894 1.894-.074 4.81-.602 6.777 1.255 1.413 1.333.48 7.854-.972 12.38a34.46 34.46 0 002.267-1.83c2.334-5.158 2.814-12.679-3.168-13.162-2.587-.21-4.961.581-7.327-1.06a2.794 2.794 0 01-.673-.688z" clip-rule="evenodd"/>
    <path fill="#F08F2D" fill-rule="evenodd" d="M36.142 38.629s-.977 1.486-.926 2.765c1.047-.212 3.743-1.04 4.41-1.16 7.006-1.272 11.833 2.518 12.091 9.663l.005.144c.2-.271.398-.548.595-.83.157-.227.307-.45.449-.67-.468-2.478-1.433-5.16-3.109-6.645-3.324-2.945-3.024-5.91-13.515-3.267z" clip-rule="evenodd"/>
    <path fill="#FAA855" fill-rule="evenodd" d="M36.142 38.629s-.46.698-.732 1.55c1.387-.51 5.562-1.858 8.92-.984 2.775.722 4.005 1.49 4.508 1.91-2.538-2.642-3.148-4.88-12.697-2.476zm13.011 2.795h-.001.001z" clip-rule="evenodd"/>
    <path fill="#DB7A18" fill-rule="evenodd" d="M34.178 40.132s1.55 2.273-.192 3.71c-1.743 1.438-5.075.224-6.062 4.388-.802 3.38 3.13 9.379 4.643 11.522-2.34-1.202-6.275-3.385-9.085-5.777-1.203-3.57-1.791-8.815.811-11.92 2.919-3.481 7.084-3.667 9.885-1.923z" clip-rule="evenodd"/>
    <path fill="#F08F2D" fill-rule="evenodd" d="M28.535 57.512c-1.73-1.04-3.552-2.259-5.053-3.537-1.203-3.57-1.791-8.816.811-11.92 2.905-3.465 7.045-3.665 9.845-1.948-.688.463-1.921.998-3.288 1.421-7.297 2.26-7.005 9.253-2.315 15.984z" clip-rule="evenodd"/>
    <path fill="#B55C04" fill-rule="evenodd" d="M34.258 40.26c.293.499 1.224 2.349-.272 3.583-1.743 1.437-5.074.223-6.062 4.387-.41 1.729.419 4.143 1.528 6.376-3.21-2.002-3.855-6.168-2.054-9.12 1.801-2.952 5.246-1.472 6.194-3.043.392-.65.58-1.458.666-2.183z" clip-rule="evenodd"/>
    <path fill="#FAA855" fill-rule="evenodd" d="M22.9 51.874c-.73-3.314-.734-7.281 1.394-9.819 2.824-3.37 6.817-3.652 9.61-2.085-.254.314-.59.724-1.125.75-8.615.401-9.108 4.985-8.957 8.004.066 1.326.66 2.558-.922 3.15z" clip-rule="evenodd"/>
    <path fill="#F98C23" fill-rule="evenodd" d="M25.675 27.354s.537-2.014 2.085-2.441c1.548-.427 2.644-.38 2.802-.574.158-.193-1.046-.685-1.046-.685s1.41-.367 2.42.691c1.01 1.059-.52 2.861-2.812 3.01-2.291.15-3.163 1.679-3.45 0z" clip-rule="evenodd"/>
    <path fill="#FAA855" fill-rule="evenodd" d="M25.675 27.354s.537-2.014 2.085-2.441c1.548-.427 2.644-.38 2.802-.574.158-.193-1.046-.685-1.046-.685s.025-.007.071-.016c.657.241 1.448.6 1.122.845-.53.397-2.575.263-3.352 1.095-.65.697-.982 1.644-1.638 1.991a2.977 2.977 0 01-.044-.215z" clip-rule="evenodd"/>
    <path fill="#BD6C1B" fill-rule="evenodd" d="M31.973 24.386c.935 1.063-.585 2.822-2.848 2.97-1.77.114-2.693 1.052-3.153.7.749-.274 1.871-1.299 2.879-1.199 1.155.115 1.977.039 2.822-.869.408-.438.409-1.069.3-1.602z" clip-rule="evenodd"/>
    <path fill="url(#paint0_linear)" fill-rule="evenodd" d="M32.188 27.222c.671 1.782-.146 9.314-.222 9.4-1.59 1.808-2.888.063-3.12 2.814-.267 3.172 1.056 3.068 6.08 2.384 5.024-.683 5.398-4.49 4.235-5.496-1.163-1.006-1.427-1.006-1.638-1.852-.21-.847-5.335-7.25-5.335-7.25z" clip-rule="evenodd"/>
    <path fill="#D49779" fill-rule="evenodd" d="M28.887 40.934c.347 1.611 1.991 1.437 6.039.887 4.059-.553 5.082-3.143 4.712-4.649-.673.874-1.142 2.891-5.021 3.865-3.02.759-4.78.366-5.73-.103z" clip-rule="evenodd"/>
    <path fill="#F5CCBA" fill-rule="evenodd" d="M32.49 28.037c.57 1.512.067 7.163-.144 8.893.322-.214.635-.53.734-.973.16-.721.192-4.668.197-6.928-.474-.6-.787-.992-.787-.992z" clip-rule="evenodd"/>
    <path fill="#EBB794" fill-rule="evenodd" d="M48.201 31.596s-.763-4.443 2.226-5.155c2.988-.711 3.832 1.537 3.223 2.938-.61 1.4-2.33 3.409-5.449 2.216z" clip-rule="evenodd"/>
    <path fill="#DBA581" fill-rule="evenodd" d="M52.998 26.743c.856.623 1.022 1.786.652 2.636-.562 1.293-2.071 3.103-4.753 2.437 1.125-.173 3.21-.634 3.796-1.723.549-1.02.437-2.495.305-3.35z" clip-rule="evenodd"/>
    <path fill="#D49779" fill-rule="evenodd" d="M51.076 28.193c1.336-1.213.843 1.055.846 1.064.436.11 1.124-1.767-.461-1.718-1.292.04-2.102 1.543-2.177 2.686-.046.712.516-.313.666-.534.366-.537.677-1.021 1.126-1.498z" clip-rule="evenodd"/>
    <path fill="#36404C" fill-rule="evenodd" d="M27.876 6.55s1.851-.263 2.698-1.638c.848-1.374 3.386-1.372 3.888-1.371.503 0 .714.106 1.058-.185.344-.29-.026-.343.476-.343.503 0 2.777-.024 3.014.373.238.397-.29.238.555.529.846.292 2.379 1.086 2.907 1.562.529.477.687.635 1.084.927.396.29.343.687.766 1.217.422.529 1.083 1.111 1.136 1.27.052.158.369 1.084.7 1.468.33.383.303.714.381 1.375.08.661-.027 1.177.092 1.534.118.357.237.542.237.687 0 .146 0 .318-.146.318-.145 0-13.722-.87-17.74-1.879-4.018-1.008-4.917-1.008-4.652-2.648.266-1.639.584-2.088 1.1-2.312.515-.225 1.044-.45 1.52-.568.476-.118.926-.316.926-.316z" clip-rule="evenodd"/>
    <path fill="#445161" fill-rule="evenodd" d="M27.876 6.55s1.851-.263 2.698-1.638c.848-1.374 3.386-1.372 3.888-1.371.503 0 .714.106 1.058-.185.333-.281-.003-.34.432-.343-.77 1.3-2.638 4.18-4.245 4.516-1.877.39-4.83.734-6.101-.172.459-.197.923-.386 1.345-.49.476-.12.925-.317.925-.317z" clip-rule="evenodd"/>
    <path fill="#19212C" fill-rule="evenodd" d="M34.95 3.56a.76.76 0 00.57-.204c.344-.29-.026-.343.476-.343.503 0 2.777-.024 3.014.372.09.15.07.22.057.266-1.065.273-2.632.853-3.205 1.98-.9 1.77-.054 1.771-1.032 1.506-.979-.265-2.671-.002-2.327-.69.205-.408 1.413-1.772 2.447-2.888z" clip-rule="evenodd"/>
    <path fill="#B3B3B3" fill-rule="evenodd" d="M34.746 3.503s-1.182.522-1.326.663c-.144.14-.89 1.306-1.17 1.997-.281.69.16 1.458.502 1.677.341.22.824.288 1.17.243.347-.046 1.213-.63 1.878-1.269.666-.638 1.011-1.809 1.03-2.235.018-.426-.19-.89-.436-.96-.247-.072-1.648-.116-1.648-.116z" clip-rule="evenodd"/>
    <g filter="url(#filter0_d)">
        <path fill="#F5D755" fill-rule="evenodd" d="M34.001 4.29s-.26.06-.457.264c-.197.203-.873 1.084-1.016 1.685-.142.6.089 1.282.674 1.419.584.136 1.218-.507 1.569-.92.351-.413.734-1.281.808-1.658.075-.376-.004-.573-.004-.573l-1.574-.216z" clip-rule="evenodd"/>
    </g>
    <path fill="#19212C" fill-rule="evenodd" d="M46.868 14.002c-.002.133-.015.27-.146.27-.145 0-13.722-.87-17.74-1.878-4.018-1.008-4.917-1.009-4.652-2.648.14-.863.295-1.397.485-1.74.97-.722 2.495-1.446 4.753-1.534 4.654-.182 9.598 1.356 10.575 2.176.923.775 4.363 4.212 6.725 5.354z" clip-rule="evenodd"/>
    <path fill="#0C0F14" fill-rule="evenodd" d="M41.82 13.921c-4.348-.346-10.38-.91-12.838-1.527-1.803-.453-2.978-.702-3.701-.988l.029-.382s2.616-4.296 8.655-2.511c6.038 1.784 11.355 5.424 11.355 5.424l-3.5-.016z" clip-rule="evenodd"/>
    <path fill="#FA8E22" fill-rule="evenodd" d="M27.906 9.093s-.688.502-.662 1.428c.026.925.476-.582 1.402-.951.926-.37 1.481-.475 1.481-.475s-1.296.951-1.217 1.348c.079.396 1.665.583 2.644-.025.979-.607 3.247-.166 4.23.903.983 1.069 6.084 1.472 7.93 2.174 1.846.703 3.831-.977 2.812 3.082-1.02 4.059-1.728-2.473-7.995-2.108-6.267.366-6.507 3.406-6.507 3.406s-.846-.582-.157-2.168c.689-1.586-1.797-1.033-1.825.686-.028 1.718-.083 4.204.393 4.945.475.74-4.973 2.19-7.746-2.307-2.773-4.497.166-8.831 5.217-9.938z" clip-rule="evenodd"/>
    <path fill="#FAA855" fill-rule="evenodd" d="M24.956 21.291c-.828-.486-1.62-1.21-2.267-2.26-1.852-3.004-1.155-5.936 1.018-7.88-.693 1.089-1.431 2.944-.945 5.545.434 2.315 1.385 3.751 2.194 4.595z" clip-rule="evenodd"/>
    <path fill="#BD6C1B" fill-rule="evenodd" d="M28.964 10.22c-.045.085-.067.16-.054.223.079.397 1.665.583 2.644-.024.979-.607 3.247-.166 4.23.902.983 1.07 6.084 1.473 7.93 2.175.42.16.845.196 1.242.205-.081.164-.249.313-.48.421-.555.26-3.365-1.076-8.211-1.913s-1.742-1.71-4.543-1.329c-2.8.38-3.143.168-3.029-.324a.522.522 0 01.271-.335z" clip-rule="evenodd"/>
    <path fill="#BD6C1B" fill-rule="evenodd" d="M46.65 16.046c-.035.165-.076.341-.124.53-1.02 4.06-1.728-2.472-7.995-2.107-6.267.366-6.507 3.406-6.507 3.406s-.019-.013-.048-.04c.02-.364.068-.819.176-1.124.209-.587.83-2.168 4.49-3.082 3.66-.915 7.724 1.218 8.613 2.373.421.548.91.351 1.394.044zm-16.914 5.902a4.76 4.76 0 01-1.125.2c-.22-.14-.443-.294-.666-.46-3.614-2.711-3.193-8.447-3.193-8.447 1.013 4.748 3.013 7.32 4.984 8.707z" clip-rule="evenodd"/>
    <path fill="#F98C23" fill-rule="evenodd" d="M43.856 24.548s-.617-1.68-2.395-1.837c-1.778-.159-3.038.034-3.22-.113-.18-.147 1.203-.741 1.203-.741s-1.62-.125-2.782.935c-1.16 1.06.597 2.418 3.23 2.232 2.633-.186 3.634 1.025 3.964-.476z" clip-rule="evenodd"/>
    <path fill="#FAA855" fill-rule="evenodd" d="M43.612 24.078c-.321-.51-.987-1.264-2.15-1.367-1.78-.159-3.039.034-3.22-.113-.145-.118.708-.52 1.058-.677-.51.156-1.205.412-1.206.646 0 .37.814.313 1.856.314 1.041.001 1.855-.112 2.536.4.5.376.746.676 1.126.797z" clip-rule="evenodd"/>
    <path fill="#BD6C1B" fill-rule="evenodd" d="M36.344 23.76c.27.758 1.691 1.395 3.548 1.264 2.18-.154 3.242.65 3.73.078l-.683-.26c-1.344-.512-1.799-.02-4.411-.306-1.174-.129-1.823-.455-2.184-.776z" clip-rule="evenodd"/>
    <path fill="#fff" d="M34.928 5.64c-.1.418-.618-1.892-.156-.56.063.182.135.367.156.56zm-1.783.643c-.243.247-.085-.737.007-.07l-.007.07zm.528-.113c-.112.396-.464-1.526-.111-.457.049.149.1.3.111.457zm.773.096c-.037.538-.913-2.935-.246-.877.093.288.194.578.246.877z"/>
    <path fill="#19212C" d="M30.827 5.351c.427.025-.571.683-.064.042l.064-.042zm11.025 3.045c.027.038 1.206 1.679.68 1.23-.202-.174-.968-1.494-.68-1.23zm3.742 3.313c-.283.541.074.832-.124.805-.208-.029-.13-.759.075-.884l.05.079zm-1.859-3.775c.012.003.704 1.528.178.73-.112-.17-.294-.531-.178-.73zm-3.38-3.02c.068.163-.18.374.153 1.052.173.35-.458-.122-.307-.908.02-.107.046-.17.155-.144z"/>
    <path fill="#FAA855" fill-rule="evenodd" d="M23.078 12.687c-.822 3.227 1.48 9.354 2.187 8.522 0 0-1.887-4.489-2.187-8.522z" clip-rule="evenodd"/>
    <path fill="#000" d="M30.362 30.2c.005-.008 1.722-3.04 8.027-1.042l-.216.682c-5.76-1.826-7.192.717-7.197.725l-.614-.364z"/>
    <path fill="#000" fill-rule="evenodd" d="M46.288 26.244l1.283-1.097.354 1.335-1.037.984-.6-1.222z" clip-rule="evenodd"/>
    <path fill="#B3B3B3" fill-rule="evenodd" d="M40.069 25.741c-1.624.444-2.478 2.494-1.908 4.579.57 2.085 2.82 3.223 4.444 2.779 1.623-.444 5-4.165 4.43-6.25-.57-2.085-5.343-1.552-6.966-1.108z" clip-rule="evenodd"/>
    <path fill="#999" fill-rule="evenodd" d="M45.071 31.262c1.25-1.363 2.302-3.177 1.964-4.414-.439-1.603-3.363-1.658-5.429-1.396.712.068 1.605.253 2.359.745 1.313.857 1.645 3.5 1.106 5.065z" clip-rule="evenodd"/>
    <path fill="#000" d="M42.435 32.484c-1.602.438-3.28-.595-3.749-2.308-.468-1.712.45-3.456 2.053-3.894 1.602-.438 3.28.595 3.748 2.308.469 1.712-.45 3.456-2.052 3.894z"/>
    <path fill="#E6E6E6" fill-rule="evenodd" d="M40.108 26.012c.268.076-.223.386-.14.043.017-.066.091-.05.14-.043zm-.572.302c.269.078-.227.39-.141.042.016-.066.092-.05.14-.042zm-.588.7c.27.078-.23.392-.142.042.017-.067.093-.05.142-.042zm-.373.76c.272.08-.234.395-.144.04.017-.066.094-.049.144-.04zm-.158 1c.274.083-.239.401-.145.041.017-.068.095-.05.145-.04zm.039.956c.275.087-.247.408-.15.04.018-.07.098-.05.15-.04zm.266.998c.277.095-.257.418-.156.038.02-.072.104-.05.156-.038zm.422.752c.279.102-.265.425-.16.037.02-.075.107-.05.16-.037zm.678.587c.279.107-.27.43-.164.036.02-.075.11-.05.164-.036zm.682.379c.28.111-.274.433-.166.035.02-.076.112-.05.166-.035zm.872.199c.279.114-.276.435-.168.035.02-.077.113-.05.168-.035zm.89.02c.279.116-.277.436-.169.034.021-.078.114-.05.17-.035zm.852-.284c.278.115-.274.435-.168.036.02-.078.113-.051.168-.036zm.767-.538c.277.11-.27.431-.165.036.02-.076.11-.051.165-.036zm.548-.653c.276.106-.263.427-.161.038.02-.075.107-.051.161-.038zm.312-.822c.274.098-.254.419-.157.04.02-.074.103-.052.157-.04zm.122-.757c.273.093-.246.412-.152.04.018-.07.1-.05.152-.04zm-.039-.71c.272.088-.238.406-.147.043.017-.07.096-.052.147-.042zm-.076-.652c.27.085-.234.402-.145.042.017-.069.095-.051.145-.042zm-.265-.691c.27.082-.229.396-.143.043.017-.068.093-.051.143-.043zm-.379-.549c.268.079-.224.392-.14.043.016-.066.09-.05.14-.043zm-.397-.464c.267.078-.223.39-.14.044.016-.067.09-.051.14-.044zm-.54-.34c.266.075-.22.385-.138.043.015-.066.089-.05.138-.044zm-.597-.247c.266.074-.218.383-.137.044.016-.064.089-.05.137-.044zm-.644-.152c.266.073-.217.382-.136.044.015-.064.088-.05.136-.044zm-.644 0c.267.072-.217.381-.136.043.015-.064.088-.05.136-.043zm-.577.027c.267.075-.22.384-.138.043.016-.065.09-.05.138-.043z" clip-rule="evenodd"/>
    <path fill="#CCC" fill-rule="evenodd" d="M28.088 27.863c2.095.058 2.942 1.469 2.94 3.455-.001 1.986-1.2 3.467-2.946 3.522-1.745.055-4.049-1.542-4.047-3.528.001-1.986 1.957-3.508 4.053-3.45z" clip-rule="evenodd"/>
    <path fill="#E6E6E6" fill-rule="evenodd" d="M25.695 34.06c-.94-.647-1.661-1.637-1.66-2.748 0-1.164.674-2.169 1.653-2.79-.655.614-1.031 1.335-1.128 2.475-.12 1.404.317 2.156 1.135 3.062z" clip-rule="evenodd"/>
    <path fill="#000" d="M27.763 34.27c1.526 0 2.764-1.32 2.765-2.952.002-1.632-1.234-2.955-2.76-2.956-1.527-.002-2.765 1.32-2.766 2.951-.001 1.632 1.235 2.955 2.76 2.957z"/>
    <path fill="#E6E6E6" fill-rule="evenodd" d="M27.624 28.137c-.103.4-.534-.178-.151-.178.1 0 .158.08.151.178zm-.931.278c-.103.398-.53-.176-.15-.176.1 0 .156.08.15.176zm-.729.383c-.101.394-.525-.175-.148-.175.099 0 .155.08.148.175zm-.552.719c-.1.388-.517-.173-.146-.172.097 0 .153.077.146.172zm-.338.88c-.098.384-.511-.17-.144-.17.095 0 .15.077.144.17zm-.157.766c-.098.384-.511-.17-.145-.17.096.001.15.078.145.17zm-.249.841c.099-.383.503.164.147.172-.098.002-.153-.078-.147-.172zm.449.98c-.407-.1.196-.53.167-.139-.007.093-.076.144-.167.14zm.5.77c-.4-.102.176-.533.177-.152 0 .1-.08.158-.177.152zm.908.636c-.405-.104.18-.538.179-.153 0 .102-.08.16-.179.153zm.823.239c-.407-.106.182-.542.18-.154 0 .102-.08.16-.18.154zm.861-.018c-.407-.106.18-.545.182-.155 0 .104-.082.162-.182.155zm.9-.244c-.41-.107.181-.549.182-.156 0 .104-.082.162-.182.156zm.55-.474c-.41-.106.181-.548.182-.155 0 .104-.082.162-.183.155zm.71-.678c-.105.41-.548-.182-.155-.182.104 0 .162.081.155.181zm.35-.767c-.104.41-.546-.181-.154-.181.103 0 .161.081.155.18zm.162-.795c-.105.407-.544-.18-.154-.181.102 0 .16.081.154.18zm.038-.833c-.104.406-.543-.18-.154-.18.102 0 .16.08.154.18zm-.218-.758c-.104.405-.54-.18-.153-.18.102 0 .16.081.153.18zm-.312-.616c-.104.405-.54-.179-.153-.18.101 0 .16.082.153.18zm-.436-.511c-.104.403-.538-.18-.152-.18.101 0 .159.081.152.18zm-.618-.493c-.104.403-.538-.18-.152-.18.102 0 .159.082.152.18zm-.806-.27c-.104.401-.537-.18-.152-.18.1 0 .158.081.152.18z" clip-rule="evenodd"/>
    <path fill="#F5CCBA" d="M31.476 38.407c.958 0 1.735-.156 1.735-.351 0-.195-.776-.354-1.735-.354-.958-.001-1.735.156-1.735.35 0 .196.776.354 1.735.355z"/>
    <path fill="gray" d="M42.313 27.9c.7.507-4.395-.73-1.273-.256.428.065.873.12 1.273.256zm-.407 2.302c.642.507-3.505-.639-1.02-.232.347.056.702.111 1.02.232zm1.072-1.052c1.006.519-6.763-1.2-1.99-.398.668.113 1.348.215 1.99.398zm-16.324.482c1.513.262.559.415-.302.049-.351-.15.266-.054.302-.049zm.245 3.386c.19.102-.098.178-.166-.016.049-.033.116 0 .166.016zm-.322-1.036c1.149.178.174.34-.193.013.036-.042.144-.018.193-.013zm.052-1.249c2.102.473 1.618.611-.155.126-1.31-.36-.776-.322.155-.126z"/>
    <defs>
        <linearGradient id="paint0_linear" x1="31.932" x2="36.597" y1="41.65" y2="27.787" gradientUnits="userSpaceOnUse">
            <stop stop-color="#FFB494"/>
            <stop offset="1" stop-color="#E6B99A"/>
        </linearGradient>
        <filter id="filter0_d" width="11.125" height="11.389" x="28.487" y=".29" color-interpolation-filters="sRGB" filterUnits="userSpaceOnUse">
            <feFlood flood-opacity="0" result="BackgroundImageFix"/>
            <feColorMatrix in="SourceAlpha" values="0 0 0 0 0 0 0 0 0 0 0 0 0 0 0 0 0 0 127 0"/>
            <feOffset/>
            <feGaussianBlur stdDeviation="2"/>
            <feColorMatrix values="0 0 0 0 1 0 0 0 0 0.912917 0 0 0 0 0.129167 0 0 0 1 0"/>
            <feBlend in2="BackgroundImageFix" result="effect1_dropShadow"/>
            <feBlend in="SourceGraphic" in2="effect1_dropShadow" result="shape"/>
        </filter>
    </defs>
</svg>
