<svg width="1214" height="600" viewBox="0 0 1214 600" fill="none" xmlns="http://www.w3.org/2000/svg"><path d="M922 172.991c83-22 74 55.5 58.5 74s8.5 31.5 4 55c-2.293 11.974-11.334 19.851-20.094 24.509-18.796 9.994-24.027 24.014-34.906 43.5-3.833 8.167-17.3 25.5-40.5 29.5-29 5-38 20.5-45 58.5-2.842 15.427-10.268 24.468-18.331 29.5-16.065 10.026-33.29 2.85-50.169-1-47-13-65.5 11-107 15s-38-11.5-42-31 6-25 13.5-32c6-5.6 5.5-20.667 4.5-27.5-1.086-6.788-2.174-12.484-4.903-18.727-6.532-14.944-14.327-39.16-8.097-51.273 9-17.5 30-28.5 42-34.5s17-9.5 28-33.5 10.5-27.5 8-39.5-35.5-2.5-32-32c2.8-23.6-28.167-32.167-44-33.5-11.222-.976-10.912 1.892-14.319 10-9.114 21.687-44.285 2.636-76.181 25-32.213 22.586-61.055 29.92-80.5 28.903-7.197-.376-14.057-2.745-18.738-8.403-1.668-2.017-4.289-4.92-8.262-9.026-15-15.5-32.5-7.5-41.5-7s7.5 29-38 32-46.5 50-39.5 86c5.6 28.8-7 74.667-14 94 0 0-5 12.026-7 12.026s-1.97-9.852-3.552-14.5C280.68 383.89 251.616 358.729 256 310.5c5-55 31-44 23-70.5s-66.833-61-84-70" stroke="#7F7550" stroke-dasharray="4 6"/></svg>