<svg width="1214" height="600" viewBox="0 0 1214 600" fill="none" xmlns="http://www.w3.org/2000/svg"><path stroke="#7F7550" stroke-opacity=".01" d="M149.5 111.5h86v86h-86z"/><path d="M212.833 157.875c-.399.278-.814.53-1.212.808l-1.228.781-2.463 1.55a242.147 242.147 0 01-5.006 3.021 367.95 367.95 0 01-10.12 5.803 586.02 586.02 0 01-10.259 5.566c-3.44 1.802-6.921 3.592-10.439 5.262-.206.099-.43.225-.646.365-1.261.836-1.823 2.016-1.212 2.603.587.602 2.1.416 3.354-.433 3.238-2.146 6.562-4.199 9.878-6.213a425.165 425.165 0 0110.057-5.909 370.82 370.82 0 0110.197-5.671c1.713-.914 3.425-1.829 5.177-2.73.868-.438 1.728-.888 2.604-1.313l1.306-.649c.437-.212.875-.424 1.321-.623.207-.099.43-.225.621-.351 1.088-.737 1.548-1.754 1.015-2.263-.54-.522-1.858-.342-2.945.396z" fill="#7F7550"/><path d="M179.218 154.099c.285.39.542.795.826 1.185l.799 1.201 1.584 2.41a237.397 237.397 0 013.088 4.897 358.045 358.045 0 015.932 9.899 569.653 569.653 0 015.69 10.037c1.842 3.365 3.671 6.77 5.379 10.212.101.202.23.42.372.631.855 1.235 2.061 1.785 2.662 1.186.615-.574.425-2.054-.443-3.281-2.193-3.167-4.292-6.419-6.351-9.663a408.062 408.062 0 01-6.04-9.839 360.3 360.3 0 01-5.798-9.975c-.934-1.675-1.869-3.35-2.791-5.064-.447-.85-.907-1.691-1.341-2.547l-.664-1.278a45.515 45.515 0 01-.637-1.292 5.38 5.38 0 00-.358-.608c-.754-1.064-1.793-1.514-2.314-.993-.534.529-.349 1.817.405 2.882z" fill="#7F7550"/><path d="M191.645 114.82l-1.202 46.66c-.027.82.577 1.482 1.343 1.542.768.03 1.415-.584 1.472-1.434l1.941-46.631.001-.031c.035-1.033-.761-1.915-1.729-1.922-.994-.069-1.791.783-1.826 1.816z" fill="#7F7550"/><path fill-rule="evenodd" clip-rule="evenodd" d="M175.176 115l35.934 1.886-1.176 22.406L174 137.406l.793-15.113 1.24-.916-1.264-.887 2.603-.884-2.351-1.647.155-2.959z" fill="#7F7550"/><path d="M188.26 123.118c.348-.144.708-.306 1.08-.486.384-.192.756-.396 1.116-.612.36-.228.702-.462 1.026-.702.336-.252.636-.516.9-.792h1.872V133h-2.682v-8.982c-.36.24-.762.462-1.206.666-.444.192-.876.36-1.296.504l-.81-2.07z" fill="#D7C99C"/><path stroke="#7F7550" stroke-opacity=".01" d="M256.5 374.5h86v86h-86z"/><path d="M298.645 376.82l-1.202 46.66c-.027.82.577 1.482 1.343 1.542.768.03 1.415-.584 1.472-1.434l1.941-46.631.001-.031c.035-1.033-.761-1.915-1.729-1.922-.994-.069-1.791.783-1.826 1.816z" fill="#7F7550"/><path fill-rule="evenodd" clip-rule="evenodd" d="M282.176 377l35.934 1.886-1.176 22.406L281 399.406l.793-15.113 1.24-.916-1.264-.887 2.603-.884-2.351-1.647.155-2.959z" fill="#7F7550"/><path d="M302.928 385.802c0 .456-.09.894-.27 1.314-.18.42-.414.828-.702 1.224-.288.384-.612.756-.972 1.116a41.4 41.4 0 01-1.062 1.026c-.18.168-.378.36-.594.576-.204.204-.402.414-.594.63-.192.216-.366.42-.522.612-.144.18-.234.33-.27.45h5.364V395h-8.316a2.902 2.902 0 01-.036-.504v-.432c0-.576.09-1.104.27-1.584a6 6 0 01.738-1.332c.3-.42.636-.81 1.008-1.17.384-.36.762-.72 1.134-1.08l.81-.774c.252-.252.474-.492.666-.72a3.61 3.61 0 00.45-.702c.108-.24.162-.48.162-.72 0-.528-.15-.9-.45-1.116-.3-.216-.672-.324-1.116-.324-.324 0-.63.054-.918.162a4.148 4.148 0 00-.774.36c-.228.132-.426.27-.594.414-.168.132-.294.24-.378.324l-1.332-1.872a6.672 6.672 0 011.836-1.206 5.386 5.386 0 012.268-.486c.732 0 1.362.084 1.89.252.528.168.96.408 1.296.72.348.3.6.672.756 1.116.168.432.252.924.252 1.476z" fill="#D7C99C"/><path d="M281.601 417.21c.334.353.645.725.979 1.078l.955 1.098 1.899 2.206a246.218 246.218 0 013.731 4.501 369.137 369.137 0 017.243 9.145 588.14 588.14 0 017.029 9.318c2.293 3.134 4.58 6.31 6.755 9.541.128.189.286.391.456.584 1.015 1.124 2.265 1.504 2.755.812.507-.67.099-2.139-.927-3.253-2.603-2.882-5.128-5.865-7.612-8.845a420.237 420.237 0 01-7.338-9.067 369.95 369.95 0 01-7.124-9.241c-1.158-1.557-2.317-3.114-3.469-4.713-.562-.794-1.135-1.577-1.685-2.38l-.836-1.195a46.632 46.632 0 01-.813-1.214 5.393 5.393 0 00-.439-.561c-.891-.967-1.964-1.27-2.389-.668-.436.612-.061 1.888.83 2.854z" fill="#7F7550"/><path d="M282.862 451.012c.344-.339.706-.654 1.05-.993l1.069-.968 2.147-1.925a237.485 237.485 0 014.384-3.781 358.193 358.193 0 018.908-7.338 571.572 571.572 0 019.079-7.118c3.055-2.322 6.149-4.637 9.299-6.837.185-.13.382-.29.569-.462 1.094-1.029 1.459-2.304.778-2.808-.66-.523-2.095-.115-3.179.925-2.806 2.64-5.71 5.199-8.612 7.717a410.723 410.723 0 01-8.832 7.435 356.532 356.532 0 01-9.003 7.216 365.776 365.776 0 01-4.593 3.512c-.773.569-1.537 1.149-2.319 1.705l-1.165.846c-.391.279-.782.556-1.183.823-.185.13-.382.29-.548.444-.94.904-1.231 1.999-.638 2.436.602.449 1.849.075 2.789-.829z" fill="#7F7550"/><path stroke="#7F7550" stroke-opacity=".01" d="M862.5 110.5h86v86h-86z"/><path d="M887.269 154.798c.335.353.645.726.979 1.079l.955 1.098 1.899 2.205c1.254 1.48 2.496 2.97 3.731 4.502a366.749 366.749 0 017.243 9.144 586.732 586.732 0 017.029 9.319c2.293 3.134 4.58 6.309 6.755 9.54.129.19.287.392.457.585 1.014 1.123 2.264 1.504 2.754.812.508-.67.099-2.139-.927-3.253-2.603-2.883-5.127-5.865-7.611-8.845a419.66 419.66 0 01-7.338-9.067 367.039 367.039 0 01-7.124-9.241 374.02 374.02 0 01-3.47-4.714c-.561-.793-1.135-1.576-1.684-2.379l-.837-1.195c-.274-.401-.549-.803-.812-1.214a5.575 5.575 0 00-.439-.562c-.891-.966-1.965-1.27-2.389-.668-.436.612-.062 1.888.829 2.854z" fill="#7F7550"/><path d="M888.53 188.601c.344-.339.707-.654 1.05-.993l1.069-.968 2.148-1.925a234.27 234.27 0 014.384-3.782c2.92-2.493 5.91-4.942 8.907-7.338a571.589 571.589 0 019.08-7.117c3.054-2.322 6.149-4.637 9.299-6.837.184-.131.381-.291.569-.463 1.094-1.028 1.458-2.303.777-2.808-.659-.522-2.095-.115-3.179.926-2.806 2.639-5.71 5.199-8.612 7.716a410.716 410.716 0 01-8.831 7.436 357.846 357.846 0 01-9.003 7.215c-1.518 1.173-3.035 2.347-4.594 3.513-.773.568-1.536 1.149-2.319 1.705l-1.165.846c-.391.278-.782.556-1.183.822-.185.13-.382.29-.547.445-.941.904-1.231 1.998-.639 2.435.602.45 1.849.075 2.789-.828z" fill="#7F7550"/><path d="M904.645 114.82l-1.202 46.66c-.027.82.577 1.482 1.343 1.542.768.03 1.415-.584 1.472-1.434l1.941-46.631.001-.031c.035-1.033-.761-1.915-1.729-1.922-.994-.069-1.791.783-1.826 1.816z" fill="#7F7550"/><path fill-rule="evenodd" clip-rule="evenodd" d="M888.176 115l35.934 1.886-1.176 22.406L887 137.406l.793-15.113 1.24-.916-1.264-.887 2.603-.884-2.351-1.647.155-2.959z" fill="#7F7550"/><path d="M909.54 129.526c0 .54-.096 1.038-.288 1.494-.18.444-.456.834-.828 1.17-.372.336-.84.6-1.404.792-.552.18-1.194.27-1.926.27-.84 0-1.542-.114-2.106-.342-.552-.24-1.002-.534-1.35-.882a3.13 3.13 0 01-.72-1.134 3.58 3.58 0 01-.216-1.152c0-.36.048-.69.144-.99.096-.3.228-.57.396-.81a4.47 4.47 0 01.558-.684c.216-.204.444-.396.684-.576-.516-.42-.9-.834-1.152-1.242-.24-.408-.36-.93-.36-1.566 0-.48.096-.942.288-1.386.204-.444.486-.828.846-1.152.36-.336.792-.6 1.296-.792a4.613 4.613 0 011.71-.306c.732 0 1.356.108 1.872.324.528.204.96.468 1.296.792.336.324.576.69.72 1.098.156.396.234.792.234 1.188 0 .576-.156 1.116-.468 1.62a3.53 3.53 0 01-1.134 1.17c.684.444 1.17.912 1.458 1.404.3.48.45 1.044.45 1.692zm-6.228.108c0 .144.03.306.09.486.072.168.18.324.324.468.144.144.33.264.558.36.228.096.504.144.828.144.624 0 1.08-.15 1.368-.45.288-.3.432-.636.432-1.008 0-.276-.066-.522-.198-.738a1.711 1.711 0 00-.504-.558 3.171 3.171 0 00-.774-.432 8.46 8.46 0 00-.936-.36 3.684 3.684 0 00-.846.882c-.228.336-.342.738-.342 1.206zm3.33-5.922c0-.132-.03-.27-.09-.414a1.045 1.045 0 00-.27-.432 1.355 1.355 0 00-.468-.324 1.558 1.558 0 00-.702-.144c-.264 0-.492.042-.684.126a1.423 1.423 0 00-.486.342c-.12.132-.21.276-.27.432-.06.156-.09.306-.09.45 0 .384.138.744.414 1.08.288.336.774.624 1.458.864.384-.24.678-.516.882-.828.204-.312.306-.696.306-1.152z" fill="#D7C99C"/><path stroke="#7F7550" stroke-opacity=".01" d="M409.5 169.5h86v86h-86z"/><path d="M449.645 174.82l-1.202 46.66c-.027.82.577 1.482 1.343 1.542.768.03 1.415-.584 1.472-1.434l1.941-46.631.001-.031c.035-1.033-.761-1.915-1.729-1.922-.994-.069-1.791.783-1.826 1.816z" fill="#7F7550"/><path fill-rule="evenodd" clip-rule="evenodd" d="M433.176 175l35.934 1.886-1.176 22.406L432 197.406l.793-15.113 1.24-.916-1.264-.887 2.603-.884-2.351-1.647.155-2.959z" fill="#7F7550"/><path d="M449.104 193.27c-.324 0-.666-.024-1.026-.072a9.484 9.484 0 01-1.044-.162c-.336-.072-.642-.15-.918-.234a5.287 5.287 0 01-.648-.234l.522-2.232c.312.132.708.276 1.188.432.492.144 1.098.216 1.818.216.828 0 1.434-.156 1.818-.468.384-.312.576-.732.576-1.26 0-.324-.072-.594-.216-.81a1.422 1.422 0 00-.558-.54 2.294 2.294 0 00-.864-.288 5.734 5.734 0 00-1.044-.09h-1.044v-2.16h1.188c.264 0 .516-.024.756-.072.252-.048.474-.126.666-.234.192-.12.342-.276.45-.468.12-.204.18-.456.18-.756a1.177 1.177 0 00-.522-1.008 1.388 1.388 0 00-.522-.234 1.98 1.98 0 00-.594-.09c-.516 0-.996.078-1.44.234a6.056 6.056 0 00-1.188.576l-.954-1.962c.192-.12.414-.246.666-.378.264-.132.552-.252.864-.36.312-.108.642-.198.99-.27.36-.072.738-.108 1.134-.108.732 0 1.362.09 1.89.27.54.168.984.414 1.332.738.348.312.606.684.774 1.116a3.7 3.7 0 01.252 1.386c0 .492-.138.972-.414 1.44a2.749 2.749 0 01-1.116 1.044c.648.264 1.146.66 1.494 1.188.36.516.54 1.14.54 1.872 0 .576-.096 1.11-.288 1.602a3.3 3.3 0 01-.9 1.26c-.408.348-.93.624-1.566.828-.624.192-1.368.288-2.232.288z" fill="#D7C99C"/><path d="M465.569 212.873c-.262.389-.548.763-.811 1.152l-.834 1.137-1.682 2.267c-1.132 1.503-2.277 3-3.463 4.502a380.423 380.423 0 01-7.112 8.856 621.224 621.224 0 01-7.327 8.721c-2.48 2.872-5.001 5.751-7.601 8.549a6.35 6.35 0 00-.456.56c-.845 1.195-.928 2.383-.156 2.608.755.247 2.067-.525 2.901-1.728 2.17-3.067 4.453-6.096 6.743-9.088a434.398 434.398 0 017.017-8.916 379.51 379.51 0 017.231-8.781 400.704 400.704 0 013.725-4.338c.633-.71 1.252-1.428 1.896-2.131l.954-1.062c.322-.352.644-.703.978-1.048a5.73 5.73 0 00.438-.539c.724-1.044.772-2.057.101-2.251-.683-.202-1.819.485-2.542 1.53z" fill="#7F7550"/><path d="M433.537 223.602c.401.2.784.423 1.185.622l1.167.646 2.323 1.304c1.539.88 3.069 1.773 4.602 2.703a309.468 309.468 0 019.02 5.591 493.267 493.267 0 018.849 5.801c2.907 1.973 5.817 3.982 8.63 6.072.166.122.363.246.57.359 1.229.65 2.53.601 2.859-.131.352-.718-.361-1.84-1.6-2.478-3.155-1.668-6.256-3.443-9.316-5.228a359.173 359.173 0 01-9.096-5.497 310.045 310.045 0 01-8.925-5.708c-1.463-.975-2.927-1.949-4.392-2.961-.718-.504-1.445-.997-2.152-1.514l-1.072-.763a38.325 38.325 0 01-1.052-.786 4.606 4.606 0 00-.548-.346c-1.076-.553-2.188-.491-2.472.144-.295.648.344 1.617 1.42 2.17z" fill="#7F7550"/><path stroke="#7F7550" stroke-opacity=".01" d="M607.5 346.5h86v86h-86z"/><path d="M661.569 384.873c-.262.389-.548.763-.811 1.152l-.834 1.137-1.682 2.267c-1.132 1.503-2.277 3-3.463 4.502a380.423 380.423 0 01-7.112 8.856 621.224 621.224 0 01-7.327 8.721c-2.48 2.872-5.001 5.751-7.601 8.549a6.35 6.35 0 00-.456.56c-.845 1.195-.928 2.383-.156 2.608.755.247 2.067-.525 2.901-1.728 2.17-3.067 4.453-6.096 6.743-9.088a434.398 434.398 0 017.017-8.916 379.51 379.51 0 017.231-8.781 400.704 400.704 0 013.725-4.338c.633-.71 1.252-1.428 1.896-2.131l.954-1.062c.322-.352.644-.703.978-1.048a5.73 5.73 0 00.438-.539c.724-1.044.772-2.057.101-2.251-.683-.202-1.819.485-2.542 1.53z" fill="#7F7550"/><path d="M629.537 395.602c.401.2.784.423 1.185.622l1.167.646 2.323 1.304c1.539.88 3.069 1.773 4.602 2.703a309.468 309.468 0 019.02 5.591 493.267 493.267 0 018.849 5.801c2.907 1.973 5.817 3.982 8.63 6.072.166.122.363.246.57.359 1.229.65 2.53.601 2.859-.131.352-.718-.361-1.84-1.6-2.478-3.155-1.668-6.256-3.443-9.316-5.228a359.173 359.173 0 01-9.096-5.497 310.045 310.045 0 01-8.925-5.708c-1.463-.975-2.927-1.949-4.392-2.961-.718-.504-1.445-.997-2.152-1.514l-1.072-.763a38.325 38.325 0 01-1.052-.786 4.606 4.606 0 00-.548-.346c-1.076-.553-2.188-.491-2.472.144-.295.648.344 1.617 1.42 2.17z" fill="#7F7550"/><path d="M653.645 357.82l-1.202 46.66c-.027.82.577 1.482 1.343 1.542.768.03 1.415-.584 1.472-1.434l1.941-46.631.001-.031c.035-1.033-.761-1.915-1.729-1.922-.994-.069-1.791.783-1.826 1.816z" fill="#7F7550"/><path fill-rule="evenodd" clip-rule="evenodd" d="M637.176 358l35.934 1.886-1.176 22.406L636 380.406l.793-15.113 1.24-.916-1.264-.887 2.603-.884-2.351-1.647.155-2.959z" fill="#7F7550"/><path d="M655.48 372.328a1.77 1.77 0 00-.234-.918c-.156-.276-.426-.504-.81-.684-.384-.18-.9-.318-1.548-.414-.648-.096-1.464-.144-2.448-.144.132-1.116.24-2.25.324-3.402.084-1.152.15-2.232.198-3.24h6.75v2.25h-4.5c-.024.432-.054.852-.09 1.26a18.04 18.04 0 01-.09 1.044c1.752.12 3.042.534 3.87 1.242.84.696 1.26 1.668 1.26 2.916 0 .576-.102 1.11-.306 1.602-.204.492-.51.918-.918 1.278-.408.36-.924.642-1.548.846-.612.204-1.332.306-2.16.306-.324 0-.666-.024-1.026-.072a9.615 9.615 0 01-1.026-.162c-.324-.06-.618-.126-.882-.198a3.463 3.463 0 01-.612-.216l.486-2.214c.3.132.696.264 1.188.396.492.12 1.08.18 1.764.18.828 0 1.428-.162 1.8-.486.372-.336.558-.726.558-1.17z" fill="#D7C99C"/><path d="M629.645 106.82l-1.202 46.66c-.027.82.577 1.482 1.343 1.542.768.03 1.415-.584 1.472-1.434l1.941-46.631.001-.031c.035-1.033-.761-1.915-1.729-1.922-.994-.069-1.791.783-1.826 1.816z" fill="#7F7550"/><path fill-rule="evenodd" clip-rule="evenodd" d="M613.176 107l35.934 1.886-1.176 22.406L612 129.406l.793-15.113 1.24-.916-1.264-.887 2.603-.884-2.351-1.647.155-2.959z" fill="#7F7550"/><path d="M630.742 115.802a124.64 124.64 0 00-1.494 1.998 13.72 13.72 0 00-1.332 2.214h2.826v-4.212zm2.628-3.276v7.488h1.332v2.196h-1.332V125h-2.628v-2.79h-5.382v-1.962c.264-.528.594-1.122.99-1.782a34.24 34.24 0 012.862-4.122c.54-.672 1.08-1.278 1.62-1.818h2.538z" fill="#D7C99C"/><path d="M646.833 151.875c-.399.278-.814.53-1.212.808l-1.228.781-2.463 1.55a242.147 242.147 0 01-5.006 3.021 367.95 367.95 0 01-10.12 5.803 586.02 586.02 0 01-10.259 5.566c-3.44 1.802-6.921 3.592-10.439 5.262-.206.099-.43.225-.646.365-1.261.836-1.823 2.016-1.212 2.603.587.602 2.1.416 3.354-.433 3.238-2.146 6.562-4.199 9.878-6.213a425.165 425.165 0 0110.057-5.909 370.82 370.82 0 0110.197-5.671c1.713-.914 3.425-1.829 5.177-2.73.868-.438 1.728-.888 2.604-1.313l1.306-.649c.437-.212.875-.424 1.321-.623.207-.099.43-.225.621-.351 1.088-.737 1.548-1.754 1.015-2.263-.54-.522-1.858-.342-2.945.396z" fill="#7F7550"/><path d="M613.218 148.099c.285.39.542.795.826 1.185l.799 1.201 1.584 2.41a237.397 237.397 0 013.088 4.897 358.045 358.045 0 015.932 9.899 569.653 569.653 0 015.69 10.037c1.842 3.365 3.671 6.77 5.379 10.212.101.202.23.42.372.631.855 1.235 2.061 1.785 2.662 1.186.615-.574.425-2.054-.443-3.281-2.193-3.167-4.292-6.419-6.351-9.663a408.062 408.062 0 01-6.04-9.839 360.3 360.3 0 01-5.798-9.975c-.934-1.675-1.869-3.35-2.791-5.064-.447-.85-.907-1.691-1.341-2.547l-.664-1.278a45.515 45.515 0 01-.637-1.292 5.38 5.38 0 00-.358-.608c-.754-1.064-1.793-1.514-2.314-.993-.534.529-.349 1.817.405 2.882z" fill="#7F7550"/><path stroke="#7F7550" stroke-opacity=".01" d="M584.5 104.5h86v86h-86z"/><path stroke="#7F7550" stroke-opacity=".01" d="M750.5 431.5h86v86h-86z"/><path d="M812.833 476.875c-.399.278-.814.53-1.212.808l-1.228.781-2.463 1.55a242.147 242.147 0 01-5.006 3.021 367.95 367.95 0 01-10.12 5.803 586.02 586.02 0 01-10.259 5.566c-3.44 1.802-6.921 3.592-10.439 5.262-.206.099-.43.225-.646.365-1.261.836-1.823 2.016-1.212 2.603.587.602 2.1.416 3.354-.433 3.238-2.146 6.562-4.199 9.878-6.213a425.165 425.165 0 0110.057-5.909 370.82 370.82 0 0110.197-5.671c1.713-.914 3.425-1.829 5.177-2.73.868-.438 1.728-.888 2.604-1.313l1.306-.649c.437-.212.875-.424 1.321-.623.207-.099.43-.225.621-.351 1.088-.737 1.548-1.754 1.015-2.263-.54-.522-1.858-.342-2.945.396z" fill="#7F7550"/><path d="M779.218 473.099c.285.39.542.795.826 1.185l.799 1.201 1.584 2.41a237.397 237.397 0 013.088 4.897 358.045 358.045 0 015.932 9.899 569.653 569.653 0 015.69 10.037c1.842 3.365 3.671 6.77 5.379 10.212.101.202.23.42.372.631.855 1.235 2.061 1.785 2.662 1.186.615-.574.425-2.054-.443-3.281-2.193-3.167-4.292-6.419-6.351-9.663a408.062 408.062 0 01-6.04-9.839 360.3 360.3 0 01-5.798-9.975c-.934-1.675-1.869-3.35-2.791-5.064-.447-.85-.907-1.691-1.341-2.547l-.664-1.278a45.515 45.515 0 01-.637-1.292 5.38 5.38 0 00-.358-.608c-.754-1.064-1.793-1.514-2.314-.993-.534.529-.349 1.817.405 2.882z" fill="#7F7550"/><path d="M793.645 434.82l-1.202 46.66c-.027.82.577 1.482 1.343 1.542.768.03 1.415-.584 1.472-1.434l1.941-46.631.001-.031c.035-1.033-.761-1.915-1.729-1.922-.994-.069-1.791.783-1.826 1.816z" fill="#7F7550"/><path fill-rule="evenodd" clip-rule="evenodd" d="M777.176 435l35.934 1.886-1.176 22.406L776 457.406l.793-15.113 1.24-.916-1.264-.887 2.603-.884-2.351-1.647.155-2.959z" fill="#7F7550"/><path d="M793.932 447.132c-.264 0-.546.024-.846.072-.3.048-.534.114-.702.198 0 .048-.006.12-.018.216v.252c0 .432.03.84.09 1.224s.162.72.306 1.008c.144.288.336.516.576.684.24.156.54.234.9.234.3 0 .552-.06.756-.18.216-.132.39-.294.522-.486.144-.192.246-.402.306-.63.072-.24.108-.468.108-.684 0-.612-.156-1.08-.468-1.404-.3-.336-.81-.504-1.53-.504zm.342-2.088c.78 0 1.44.108 1.98.324.552.204 1.002.486 1.35.846.348.36.6.78.756 1.26.156.48.234.99.234 1.53 0 .48-.09.972-.27 1.476-.168.504-.432.96-.792 1.368a4.025 4.025 0 01-1.35 1.008c-.54.264-1.182.396-1.926.396-1.5 0-2.64-.474-3.42-1.422-.78-.948-1.17-2.256-1.17-3.924 0-1.2.186-2.262.558-3.186.372-.924.9-1.698 1.584-2.322.696-.636 1.53-1.116 2.502-1.44.984-.336 2.088-.51 3.312-.522a513.97 513.97 0 00.144 2.196 9.786 9.786 0 00-1.728.18 5.61 5.61 0 00-1.458.468c-.432.216-.81.498-1.134.846-.324.336-.576.75-.756 1.242a3.33 3.33 0 01.81-.252c.276-.048.534-.072.774-.072z" fill="#D7C99C"/><path stroke="#7F7550" stroke-opacity=".01" d="M897.5 296.5h86v86h-86z"/><path d="M939.645 299.82l-1.202 46.66c-.027.82.577 1.482 1.343 1.542.768.03 1.415-.584 1.472-1.434l1.941-46.631.001-.031c.035-1.033-.761-1.915-1.729-1.922-.994-.069-1.791.783-1.826 1.816z" fill="#7F7550"/><path fill-rule="evenodd" clip-rule="evenodd" d="M923.176 300l35.934 1.886-1.176 22.406L922 322.406l.793-15.113 1.24-.916-1.264-.887 2.603-.884-2.351-1.647.155-2.959z" fill="#7F7550"/><path d="M937.556 318a18.03 18.03 0 01.45-2.736c.228-.948.504-1.878.828-2.79.336-.912.708-1.77 1.116-2.574.408-.816.822-1.518 1.242-2.106h-5.418v-2.286h8.73v1.944c-.384.42-.81 1.002-1.278 1.746-.456.744-.894 1.59-1.314 2.538a24.767 24.767 0 00-1.08 3.024c-.3 1.08-.486 2.16-.558 3.24h-2.718z" fill="#D7C99C"/><path d="M959.833 342.875c-.399.278-.814.53-1.212.808l-1.228.781-2.463 1.55a242.147 242.147 0 01-5.006 3.021 367.95 367.95 0 01-10.12 5.803 586.02 586.02 0 01-10.259 5.566c-3.44 1.802-6.921 3.592-10.439 5.262-.206.099-.43.225-.646.365-1.261.836-1.823 2.016-1.212 2.603.587.602 2.1.416 3.354-.433 3.238-2.146 6.562-4.199 9.878-6.213a425.165 425.165 0 0110.057-5.909 370.82 370.82 0 0110.197-5.671c1.713-.914 3.425-1.829 5.177-2.73.868-.438 1.728-.888 2.604-1.313l1.306-.649c.437-.212.875-.424 1.321-.623.207-.099.43-.225.621-.351 1.088-.737 1.548-1.754 1.015-2.263-.54-.522-1.858-.342-2.945.396z" fill="#7F7550"/><path d="M926.218 339.099c.285.39.542.795.826 1.185l.799 1.201 1.584 2.41a237.397 237.397 0 013.088 4.897 358.045 358.045 0 015.932 9.899 569.653 569.653 0 015.69 10.037c1.842 3.365 3.671 6.77 5.379 10.212.101.202.23.42.372.631.855 1.235 2.061 1.785 2.662 1.186.615-.574.425-2.054-.443-3.281-2.193-3.167-4.292-6.419-6.351-9.663a408.062 408.062 0 01-6.04-9.839 360.3 360.3 0 01-5.798-9.975c-.934-1.675-1.869-3.35-2.791-5.064-.447-.85-.907-1.691-1.341-2.547l-.664-1.278a45.515 45.515 0 01-.637-1.292 5.38 5.38 0 00-.358-.608c-.754-1.064-1.793-1.514-2.314-.993-.534.529-.349 1.817.405 2.882z" fill="#7F7550"/></svg>