<svg width="640" height="32" viewBox="0 0 640 32" fill="none" xmlns="http://www.w3.org/2000/svg"><g clip-path="url(#clip0)" fill-rule="evenodd" clip-rule="evenodd"><path d="M640 0v15.141c-29.143 5.396-58.744 9.848-89.66 12.829C424.755 40.076 372.403-6.26 259.37 1.955 192.237 6.835 73.924 28.366 0 10.03V0h640z" fill="#fff"/><path d="M402.131 17.3c42.328 9.144 86.47 17.597 148.382 11.46l-.098-.996c-61.757 6.122-105.777-2.305-148.073-11.44a5403.15 5403.15 0 01-7.927-1.722C354.901 6.003 315.999-2.463 264.593.664c-1.698.103-3.411.22-5.137.348-16.029 1.198-34.97 3.371-55.513 5.728l-2.959.34c-21.688 2.487-45.073 5.134-68.669 7.037C85.368 17.9 37.647 18.727.853 9.482.65 9.433.202 9.318 0 9.267v1.032c37.049 9.45 85.18 8.62 132.395 4.814 23.615-1.903 47.016-4.553 68.703-7.04l2.948-.338c20.553-2.358 39.476-4.53 55.484-5.726 1.722-.128 3.43-.244 5.124-.347 51.264-3.118 90.044 5.32 129.564 13.92 2.633.574 5.27 1.148 7.913 1.718z" fill="#D2D2D2"/></g><defs><clipPath id="clip0"><path fill="#fff" d="M0 0h640v32H0z"/></clipPath></defs></svg>