<svg width="147" height="147" viewBox="0 0 147 147" fill="none" xmlns="http://www.w3.org/2000/svg"><path d="M73.5 24.95c-26.78 0-48.555 21.78-48.555 48.566 0 26.787 21.775 48.566 48.555 48.566s48.555-21.779 48.555-48.566c0-26.786-21.775-48.565-48.555-48.565zm0 94.467c-25.318 0-45.922-20.61-45.922-45.933S48.182 27.551 73.5 27.551c25.318 0 45.923 20.61 45.923 45.933 0 25.355-20.605 45.933-45.923 45.933z" fill="#C6B889"/><path fill-rule="evenodd" clip-rule="evenodd" d="M73.5 25.95c-26.227 0-47.555 21.332-47.555 47.566s21.328 47.566 47.555 47.566c26.228 0 47.555-21.332 47.555-47.566S99.728 25.951 73.5 25.951zm0 94.467c-25.87 0-46.922-21.058-46.922-46.933S47.63 26.551 73.5 26.551c25.87 0 46.923 21.058 46.923 46.933 0 25.908-21.053 46.933-46.923 46.933zm-48.555-46.9C24.945 46.73 46.72 24.95 73.5 24.95s48.555 21.78 48.555 48.565c0 26.787-21.775 48.566-48.555 48.566s-48.555-21.779-48.555-48.566zm2.633-.033c0 25.323 20.604 45.933 45.922 45.933 25.318 0 45.923-20.578 45.923-45.933 0-25.323-20.605-45.933-45.923-45.933S27.578 48.16 27.578 73.484z" fill="#524A2D"/><path d="M81.235 73.517l35.392-43.138L73.5 73.517h7.735z" fill="#524A2D"/><path fill-rule="evenodd" clip-rule="evenodd" d="M116.627 30.38L73.5 73.516h7.735l35.392-43.138zm-13.682 15.099L80.762 72.517h-4.848l27.031-27.038z" fill="#524A2D"/><path d="M73.5 73.517l43.127-43.138L73.5 65.78v7.738z" fill="#C6B889"/><path fill-rule="evenodd" clip-rule="evenodd" d="M116.627 30.38L73.5 65.78v7.737l43.127-43.138zm-15.095 13.684L74.5 66.253v4.849l27.032-27.038z" fill="#524A2D"/><path d="M73.5 73.517V65.78l-43.128-35.4L73.5 73.516z" fill="#524A2D"/><path fill-rule="evenodd" clip-rule="evenodd" d="M72.5 66.253L45.468 44.064 72.5 71.102v-4.85zm1-.473l-43.128-35.4L73.5 73.516V65.78z" fill="#524A2D"/><path d="M65.765 73.517H73.5L30.372 30.379l35.393 43.138z" fill="#C6B889"/><path fill-rule="evenodd" clip-rule="evenodd" d="M73.5 73.517L30.372 30.379l35.393 43.138H73.5zM44.055 45.479l22.183 27.038h4.848L44.055 45.479z" fill="#524A2D"/><path d="M30.372 116.653L73.5 73.516h-7.735l-35.393 43.137z" fill="#524A2D"/><path fill-rule="evenodd" clip-rule="evenodd" d="M73.5 73.516h-7.735l-35.393 43.137L73.5 73.516zm-2.414 1h-4.848l-22.183 27.038 27.031-27.038z" fill="#524A2D"/><path d="M73.5 81.22v-7.704l-43.128 43.137L73.5 81.22z" fill="#C6B889"/><path fill-rule="evenodd" clip-rule="evenodd" d="M73.5 73.516l-43.128 43.137L73.5 81.22v-7.704zm-1 2.415l-26.965 26.971L72.5 80.748V75.93z" fill="#524A2D"/><path d="M73.5 81.22l43.127 35.433L73.5 73.516v7.704z" fill="#524A2D"/><path fill-rule="evenodd" clip-rule="evenodd" d="M116.627 116.653L73.5 73.516v7.704l43.127 35.433zm-15.162-13.751L74.5 75.931v4.817l26.965 22.154z" fill="#524A2D"/><path d="M73.5 73.516l43.127 43.137-35.392-43.137H73.5z" fill="#C6B889"/><path fill-rule="evenodd" clip-rule="evenodd" d="M116.627 116.653L81.235 73.516H73.5l43.127 43.137zm-13.682-15.099L80.762 74.516h-4.848l27.031 27.038z" fill="#524A2D"/><path d="M73.5 73.516l6.402-6.404L73.5 2v71.516z" fill="#524A2D"/><path fill-rule="evenodd" clip-rule="evenodd" d="M78.86 66.74L74.5 22.39v48.712l4.36-4.362zm1.042.372L73.5 2v71.516l6.402-6.404z" fill="#524A2D"/><path d="M73.5 73.516V2l-6.403 65.112 6.403 6.404z" fill="#C6B889"/><path fill-rule="evenodd" clip-rule="evenodd" d="M73.5 2l-6.403 65.112 6.403 6.404V2zm-1 20.388L68.14 66.74l4.361 4.362V22.388z" fill="#524A2D"/><path d="M2 73.516h71.5l-6.402-6.404L2 73.516z" fill="#524A2D"/><path fill-rule="evenodd" clip-rule="evenodd" d="M73.5 73.516l-6.402-6.404L2 73.516h71.5zm-51.121-1h48.707l-4.361-4.362-44.346 4.362z" fill="#524A2D"/><path d="M67.098 79.92l6.402-6.404H2l65.098 6.404z" fill="#C6B889"/><path fill-rule="evenodd" clip-rule="evenodd" d="M73.5 73.516H2l65.098 6.404 6.402-6.404zm-2.414 1l-4.361 4.362-44.344-4.362h48.705z" fill="#524A2D"/><path d="M73.5 145V73.516l-6.403 6.404L73.5 145z" fill="#524A2D"/><path fill-rule="evenodd" clip-rule="evenodd" d="M73.5 73.516l-6.403 6.404L73.5 145V73.516zm-1 51.106V75.931l-4.361 4.362 4.361 44.329z" fill="#524A2D"/><path d="M73.5 145l6.402-65.08-6.402-6.404V145z" fill="#C6B889"/><path fill-rule="evenodd" clip-rule="evenodd" d="M78.86 80.293L74.5 75.93v48.689l4.36-44.327zm1.042-.373L73.5 73.516V145l6.402-65.08z" fill="#524A2D"/><path d="M79.902 79.92L145 73.516H73.5l6.402 6.404z" fill="#524A2D"/><path fill-rule="evenodd" clip-rule="evenodd" d="M145 73.516H73.5l6.402 6.404L145 73.516zm-20.381 1H75.914l4.361 4.362 44.344-4.362z" fill="#524A2D"/><path d="M73.5 73.516H145l-65.098-6.404-6.402 6.404z" fill="#C6B889"/><path fill-rule="evenodd" clip-rule="evenodd" d="M145 73.516l-65.098-6.404-6.402 6.404H145zm-69.086-1h48.707l-44.346-4.362-4.361 4.362z" fill="#524A2D"/></svg>